  0
SECTION
  2
HEADER
  9
$ACADVER
  1
AC1024
  9
$ACADMAINTVER
 70
     6
  9
$DWGCODEPAGE
  3
ANSI_1252
  9
$INSBASE
 10
0.0
 20
0.0
 30
0.0
  9
$EXTMIN
 10
1.000000000000000E+20
 20
1.000000000000000E+20
 30
1.000000000000000E+20
  9
$EXTMAX
 10
-1.000000000000000E+20
 20
-1.000000000000000E+20
 30
-1.000000000000000E+20
  9
$LIMMIN
 10
0.0
 20
0.0
  9
$LIMMAX
 10
12.0
 20
9.0
  9
$ORTHOMODE
 70
     0
  9
$REGENMODE
 70
     1
  9
$FILLMODE
 70
     1
  9
$QTEXTMODE
 70
     0
  9
$MIRRTEXT
 70
     1
  9
$LTSCALE
 40
1.0
  9
$ATTMODE
 70
     1
  9
$TEXTSIZE
 40
0.2
  9
$TRACEWID
 40
0.05
  9
$TEXTSTYLE
  7
Standard
  9
$CLAYER
  8
0
  9
$CELTYPE
  6
ByLayer
  9
$CECOLOR
 62
   256
  9
$CELTSCALE
 40
1.0
  9
$DISPSILH
 70
     0
  9
$DIMSCALE
 40
1.0
  9
$DIMASZ
 40
0.18
  9
$DIMEXO
 40
0.0625
  9
$DIMDLI
 40
0.38
  9
$DIMRND
 40
0.0
  9
$DIMDLE
 40
0.0
  9
$DIMEXE
 40
0.18
  9
$DIMTP
 40
0.0
  9
$DIMTM
 40
0.0
  9
$DIMTXT
 40
0.18
  9
$DIMCEN
 40
0.09
  9
$DIMTSZ
 40
0.0
  9
$DIMTOL
 70
     0
  9
$DIMLIM
 70
     0
  9
$DIMTIH
 70
     1
  9
$DIMTOH
 70
     1
  9
$DIMSE1
 70
     0
  9
$DIMSE2
 70
     0
  9
$DIMTAD
 70
     0
  9
$DIMZIN
 70
     0
  9
$DIMBLK
  1

  9
$DIMASO
 70
     1
  9
$DIMSHO
 70
     1
  9
$DIMPOST
  1

  9
$DIMAPOST
  1

  9
$DIMALT
 70
     0
  9
$DIMALTD
 70
     2
  9
$DIMALTF
 40
25.4
  9
$DIMLFAC
 40
1.0
  9
$DIMTOFL
 70
     0
  9
$DIMTVP
 40
0.0
  9
$DIMTIX
 70
     0
  9
$DIMSOXD
 70
     0
  9
$DIMSAH
 70
     0
  9
$DIMBLK1
  1

  9
$DIMBLK2
  1

  9
$DIMSTYLE
  2
Standard
  9
$DIMCLRD
 70
     0
  9
$DIMCLRE
 70
     0
  9
$DIMCLRT
 70
     0
  9
$DIMTFAC
 40
1.0
  9
$DIMGAP
 40
0.09
  9
$DIMJUST
 70
     0
  9
$DIMSD1
 70
     0
  9
$DIMSD2
 70
     0
  9
$DIMTOLJ
 70
     1
  9
$DIMTZIN
 70
     0
  9
$DIMALTZ
 70
     0
  9
$DIMALTTZ
 70
     0
  9
$DIMUPT
 70
     0
  9
$DIMDEC
 70
     4
  9
$DIMTDEC
 70
     4
  9
$DIMALTU
 70
     2
  9
$DIMALTTD
 70
     2
  9
$DIMTXSTY
  7
Standard
  9
$DIMAUNIT
 70
     0
  9
$DIMADEC
 70
     0
  9
$DIMALTRND
 40
0.0
  9
$DIMAZIN
 70
     0
  9
$DIMDSEP
 70
    46
  9
$DIMATFIT
 70
     3
  9
$DIMFRAC
 70
     0
  9
$DIMLDRBLK
  1

  9
$DIMLUNIT
 70
     2
  9
$DIMLWD
 70
    -2
  9
$DIMLWE
 70
    -2
  9
$DIMTMOVE
 70
     0
  9
$DIMFXL
 40
1.0
  9
$DIMFXLON
 70
     0
  9
$DIMJOGANG
 40
0.7853981633974483
  9
$DIMTFILL
 70
     0
  9
$DIMTFILLCLR
 70
     0
  9
$DIMARCSYM
 70
     0
  9
$DIMLTYPE
  6

  9
$DIMLTEX1
  6

  9
$DIMLTEX2
  6

  9
$DIMTXTDIRECTION
 70
     0
  9
$LUNITS
 70
     2
  9
$LUPREC
 70
     4
  9
$SKETCHINC
 40
0.1
  9
$FILLETRAD
 40
0.5
  9
$AUNITS
 70
     0
  9
$AUPREC
 70
     0
  9
$MENU
  1
.
  9
$ELEVATION
 40
0.0
  9
$PELEVATION
 40
0.0
  9
$THICKNESS
 40
0.0
  9
$LIMCHECK
 70
     0
  9
$CHAMFERA
 40
0.5
  9
$CHAMFERB
 40
0.5
  9
$CHAMFERC
 40
1.0
  9
$CHAMFERD
 40
0.0
  9
$SKPOLY
 70
     0
  9
$TDCREATE
 40
2457009.991989468
  9
$TDUCREATE
 40
2457010.325322801
  9
$TDUPDATE
 40
2457009.991989526
  9
$TDUUPDATE
 40
2457010.325322859
  9
$TDINDWG
 40
0.0000000116
  9
$TDUSRTIMER
 40
0.0000000116
  9
$USRTIMER
 70
     1
  9
$ANGBASE
 50
0.0
  9
$ANGDIR
 70
     0
  9
$PDMODE
 70
     0
  9
$PDSIZE
 40
0.0
  9
$PLINEWID
 40
0.0
  9
$SPLFRAME
 70
     0
  9
$SPLINETYPE
 70
     6
  9
$SPLINESEGS
 70
     8
  9
$HANDSEED
  5
5D
  9
$SURFTAB1
 70
     6
  9
$SURFTAB2
 70
     6
  9
$SURFTYPE
 70
     6
  9
$SURFU
 70
     6
  9
$SURFV
 70
     6
  9
$UCSBASE
  2

  9
$UCSNAME
  2

  9
$UCSORG
 10
0.0
 20
0.0
 30
0.0
  9
$UCSXDIR
 10
1.0
 20
0.0
 30
0.0
  9
$UCSYDIR
 10
0.0
 20
1.0
 30
0.0
  9
$UCSORTHOREF
  2

  9
$UCSORTHOVIEW
 70
     0
  9
$UCSORGTOP
 10
0.0
 20
0.0
 30
0.0
  9
$UCSORGBOTTOM
 10
0.0
 20
0.0
 30
0.0
  9
$UCSORGLEFT
 10
0.0
 20
0.0
 30
0.0
  9
$UCSORGRIGHT
 10
0.0
 20
0.0
 30
0.0
  9
$UCSORGFRONT
 10
0.0
 20
0.0
 30
0.0
  9
$UCSORGBACK
 10
0.0
 20
0.0
 30
0.0
  9
$PUCSBASE
  2

  9
$PUCSNAME
  2

  9
$PUCSORG
 10
0.0
 20
0.0
 30
0.0
  9
$PUCSXDIR
 10
1.0
 20
0.0
 30
0.0
  9
$PUCSYDIR
 10
0.0
 20
1.0
 30
0.0
  9
$PUCSORTHOREF
  2

  9
$PUCSORTHOVIEW
 70
     0
  9
$PUCSORGTOP
 10
0.0
 20
0.0
 30
0.0
  9
$PUCSORGBOTTOM
 10
0.0
 20
0.0
 30
0.0
  9
$PUCSORGLEFT
 10
0.0
 20
0.0
 30
0.0
  9
$PUCSORGRIGHT
 10
0.0
 20
0.0
 30
0.0
  9
$PUCSORGFRONT
 10
0.0
 20
0.0
 30
0.0
  9
$PUCSORGBACK
 10
0.0
 20
0.0
 30
0.0
  9
$USERI1
 70
     0
  9
$USERI2
 70
     0
  9
$USERI3
 70
     0
  9
$USERI4
 70
     0
  9
$USERI5
 70
     0
  9
$USERR1
 40
0.0
  9
$USERR2
 40
0.0
  9
$USERR3
 40
0.0
  9
$USERR4
 40
0.0
  9
$USERR5
 40
0.0
  9
$WORLDVIEW
 70
     1
  9
$SHADEDGE
 70
     3
  9
$SHADEDIF
 70
    70
  9
$TILEMODE
 70
     1
  9
$MAXACTVP
 70
    64
  9
$PINSBASE
 10
0.0
 20
0.0
 30
0.0
  9
$PLIMCHECK
 70
     0
  9
$PEXTMIN
 10
1.000000000000000E+20
 20
1.000000000000000E+20
 30
1.000000000000000E+20
  9
$PEXTMAX
 10
-1.000000000000000E+20
 20
-1.000000000000000E+20
 30
-1.000000000000000E+20
  9
$PLIMMIN
 10
0.0
 20
0.0
  9
$PLIMMAX
 10
12.0
 20
9.0
  9
$UNITMODE
 70
     0
  9
$VISRETAIN
 70
     1
  9
$PLINEGEN
 70
     0
  9
$PSLTSCALE
 70
     1
  9
$TREEDEPTH
 70
  3020
  9
$CMLSTYLE
  2
Standard
  9
$CMLJUST
 70
     0
  9
$CMLSCALE
 40
1.0
  9
$PROXYGRAPHICS
 70
     1
  9
$MEASUREMENT
 70
     0
  9
$CELWEIGHT
370
    -1
  9
$ENDCAPS
280
     0
  9
$JOINSTYLE
280
     0
  9
$LWDISPLAY
290
     1
  9
$INSUNITS
 70
     1
  9
$HYPERLINKBASE
  1

  9
$STYLESHEET
  1

  9
$XEDIT
290
     1
  9
$CEPSNTYPE
380
     0
  9
$PSTYLEMODE
290
     1
  9
$FINGERPRINTGUID
  2
{5B9417B4-1014-4ADE-BDDB-81EA454719FB}
  9
$VERSIONGUID
  2
{FAEB1C32-E019-11D5-929B-00C0DF256EC4}
  9
$EXTNAMES
290
     1
  9
$PSVPSCALE
 40
0.0
  9
$OLESTARTUP
290
     0
  9
$SORTENTS
280
   127
  9
$INDEXCTL
280
     0
  9
$HIDETEXT
280
     1
  9
$XCLIPFRAME
280
     2
  9
$HALOGAP
280
     0
  9
$OBSCOLOR
 70
   257
  9
$OBSLTYPE
280
     0
  9
$INTERSECTIONDISPLAY
280
     0
  9
$INTERSECTIONCOLOR
 70
   257
  9
$DIMASSOC
280
     2
  9
$PROJECTNAME
  1

  9
$CAMERADISPLAY
290
     0
  9
$LENSLENGTH
 40
50.0
  9
$CAMERAHEIGHT
 40
0.0
  9
$STEPSPERSEC
 40
2.0
  9
$STEPSIZE
 40
6.0
  9
$3DDWFPREC
 40
2.0
  9
$PSOLWIDTH
 40
0.25
  9
$PSOLHEIGHT
 40
4.0
  9
$LOFTANG1
 40
1.570796326794897
  9
$LOFTANG2
 40
1.570796326794897
  9
$LOFTMAG1
 40
0.0
  9
$LOFTMAG2
 40
0.0
  9
$LOFTPARAM
 70
     7
  9
$LOFTNORMALS
280
     1
  9
$LATITUDE
 40
37.795
  9
$LONGITUDE
 40
-122.394
  9
$NORTHDIRECTION
 40
0.0
  9
$TIMEZONE
 70
 -8000
  9
$LIGHTGLYPHDISPLAY
280
     1
  9
$TILEMODELIGHTSYNCH
280
     1
  9
$CMATERIAL
347
3C
  9
$SOLIDHIST
280
     1
  9
$SHOWHIST
280
     1
  9
$DWFFRAME
280
     2
  9
$DGNFRAME
280
     2
  9
$REALWORLDSCALE
290
     1
  9
$INTERFERECOLOR
 62
   256
  9
$CSHADOW
280
     0
  9
$SHADOWPLANELOCATION
 40
0.0
  0
ENDSEC
  0
SECTION
  2
CLASSES
  0
CLASS
  1
ACDBDICTIONARYWDFLT
  2
AcDbDictionaryWithDefault
  3
ObjectDBX Classes
 90
        0
 91
        4
280
     0
281
     0
  0
CLASS
  1
VISUALSTYLE
  2
AcDbVisualStyle
  3
ObjectDBX Classes
 90
     4095
 91
        4
280
     0
281
     0
  0
CLASS
  1
MATERIAL
  2
AcDbMaterial
  3
ObjectDBX Classes
 90
     1153
 91
        4
280
     0
281
     0
  0
CLASS
  1
SUN
  2
AcDbSun
  3
SCENEOE
 90
     1024
 91
        4
280
     0
281
     0
  0
ENDSEC
  0
SECTION
  2
TABLES
  0
TABLE
  2
VPORT
  5
8
330
0
100
AcDbSymbolTable
 70
     1
  0
VPORT
  5
29
330
8
100
AcDbSymbolTableRecord
100
AcDbViewportTableRecord
  2
*Active
 70
     0
 10
0.0
 20
0.0
 11
1.0
 21
1.0
 12
0.0
 22
0.0
 13
0.0
 23
0.0
 14
0.5
 24
0.5
 15
0.5
 25
0.5
 16
0.0
 26
0.0
 36
1.0
 17
4.25
 27
5.5
 37
0.0
 40
11.0
 41
0.7727272727272727
 42
50.0
 43
0.0
 44
0.0
 50
0.0
 51
0.0
 71
     0
 72
   100
 73
     1
 74
     3
 75
     0
 76
     0
 77
     0
 78
     0
281
     0
 65
     1
110
0.0
120
0.0
130
0.0
111
1.0
121
0.0
131
0.0
112
0.0
122
1.0
132
0.0
 79
     0
146
0.0
 60
     3
 61
     5
292
     1
282
     1
141
0.0
142
0.0
 63
   250
361
3F
  0
ENDTAB
  0
TABLE
  2
LTYPE
  5
5
330
0
100
AcDbSymbolTable
 70
     1
  0
LTYPE
  5
14
330
5
100
AcDbSymbolTableRecord
100
AcDbLinetypeTableRecord
  2
ByBlock
 70
     0
  3

 72
    65
 73
     0
 40
0.0
  0
LTYPE
  5
15
330
5
100
AcDbSymbolTableRecord
100
AcDbLinetypeTableRecord
  2
ByLayer
 70
     0
  3

 72
    65
 73
     0
 40
0.0
  0
LTYPE
  5
16
330
5
100
AcDbSymbolTableRecord
100
AcDbLinetypeTableRecord
  2
Continuous
 70
     0
  3
Solid line
 72
    65
 73
     0
 40
0.0
  0
ENDTAB
  0
TABLE
  2
LAYER
  5
2
330
0
100
AcDbSymbolTable
 70
     2
  0
LAYER
  5
10
330
2
100
AcDbSymbolTableRecord
100
AcDbLayerTableRecord
  2
0
 70
     0
 62
     7
  6
Continuous
370
    -3
390
F
347
3E
  0
LAYER
  5
40
330
2
100
AcDbSymbolTableRecord
100
AcDbLayerTableRecord
  2
Layer 1
 70
     0
 62
     7
  6
Continuous
370
    -3
390
F
347
3E
  0
ENDTAB
  0
TABLE
  2
STYLE
  5
3
330
0
100
AcDbSymbolTable
 70
     1
  0
STYLE
  5
11
330
3
100
AcDbSymbolTableRecord
100
AcDbTextStyleTableRecord
  2
Standard
 70
     0
 40
0.0
 41
1.0
 50
0.0
 71
     0
 42
0.2
  3
txt
  4

  0
ENDTAB
  0
TABLE
  2
VIEW
  5
6
330
0
100
AcDbSymbolTable
 70
     0
  0
ENDTAB
  0
TABLE
  2
UCS
  5
7
330
0
100
AcDbSymbolTable
 70
     0
  0
ENDTAB
  0
TABLE
  2
APPID
  5
9
330
0
100
AcDbSymbolTable
 70
     1
  0
APPID
  5
12
330
9
100
AcDbSymbolTableRecord
100
AcDbRegAppTableRecord
  2
ACAD
 70
     0
  0
ENDTAB
  0
TABLE
  2
DIMSTYLE
  5
A
330
0
100
AcDbSymbolTable
 70
     1
100
AcDbDimStyleTable
  0
DIMSTYLE
105
27
330
A
100
AcDbSymbolTableRecord
100
AcDbDimStyleTableRecord
  2
Standard
 70
     0
178
     0
340
11
  0
ENDTAB
  0
TABLE
  2
BLOCK_RECORD
  5
1
330
0
100
AcDbSymbolTable
 70
     2
  0
BLOCK_RECORD
  5
1F
330
1
100
AcDbSymbolTableRecord
100
AcDbBlockTableRecord
  2
*Model_Space
340
22
 70
     0
280
     1
281
     0
  0
BLOCK_RECORD
  5
1B
330
1
100
AcDbSymbolTableRecord
100
AcDbBlockTableRecord
  2
*Paper_Space
340
1E
 70
     0
280
     1
281
     0
  0
BLOCK_RECORD
  5
23
330
1
100
AcDbSymbolTableRecord
100
AcDbBlockTableRecord
  2
*Paper_Space0
340
26
 70
     0
280
     1
281
     0
  0
BLOCK_RECORD
  5
41
330
1
100
AcDbSymbolTableRecord
100
AcDbBlockTableRecord
  2
block 2
340
0
102
{BLKREFS
331
42
102
}
 70
     0
280
     1
281
     0
  0
ENDTAB
  0
ENDSEC
  0
SECTION
  2
BLOCKS
  0
BLOCK
  5
20
330
1F
100
AcDbEntity
  8
0
100
AcDbBlockBegin
  2
*Model_Space
 70
     0
 10
0.0
 20
0.0
 30
0.0
  3
*Model_Space
  1

  0
ENDBLK
  5
21
330
1F
100
AcDbEntity
  8
0
100
AcDbBlockEnd
  0
BLOCK
  5
1C
330
1B
100
AcDbEntity
 67
     1
  8
0
100
AcDbBlockBegin
  2
*Paper_Space
 70
     0
 10
0.0
 20
0.0
 30
0.0
  3
*Paper_Space
  1

  0
ENDBLK
  5
1D
330
1B
100
AcDbEntity
 67
     1
  8
0
100
AcDbBlockEnd
  0
BLOCK
  5
24
330
23
100
AcDbEntity
  8
0
100
AcDbBlockBegin
  2
*Paper_Space0
 70
     0
 10
0.0
 20
0.0
 30
0.0
  3
*Paper_Space0
  1

  0
ENDBLK
  5
25
330
23
100
AcDbEntity
  8
0
100
AcDbBlockEnd
  0
BLOCK
  5
43
330
41
100
AcDbEntity
  8
0
100
AcDbBlockBegin
  2
block 2
 70
     0
 10
0.0
 20
0.0
 30
0.0
  3
block 2
  1

  0
SPLINE
  5
45
330
41
100
AcDbEntity
  8
Layer 1
370
     0
100
AcDbSpline
210
0.0
220
0.0
230
1.0
 70
    11
 71
     3
 72
    17
 73
    13
 74
     0
 42
0.0000000001
 43
0.0000000001
 12
1.0
 22
0.0
 32
0.0
 13
1.0
 23
0.0
 33
0.0
 40
0.0
 40
0.0
 40
0.0
 40
0.0
 40
1.0
 40
1.0
 40
1.0
 40
2.0
 40
2.0
 40
2.0
 40
3.0
 40
3.0
 40
3.0
 40
4.0
 40
4.0
 40
4.0
 40
4.0
 10
0.8472222222222222
 20
8.554950419399473
 30
0.0
 10
3.16568480597602
 20
8.554950419399473
 30
0.0
 10
5.484147389729817
 20
8.554950419399473
 30
0.0
 10
7.804083082411024
 20
8.554950419399473
 30
0.0
 10
7.804083082411024
 20
6.242300457424587
 30
0.0
 10
7.804083082411024
 20
3.929044087727864
 30
0.0
 10
7.804083082411024
 20
1.613449096679688
 30
0.0
 10
5.486113230387369
 20
1.613449096679688
 30
0.0
 10
3.166667726304796
 20
1.613449096679688
 30
0.0
 10
0.8472222222222222
 20
1.613449096679688
 30
0.0
 10
0.8472222222222222
 20
3.925876617431641
 30
0.0
 10
0.8472222222222222
 20
6.240110821194119
 30
0.0
 10
0.8472222222222222
 20
8.554950419399473
 30
0.0
  0
SPLINE
  5
46
330
41
100
AcDbEntity
  8
Layer 1
370
     0
100
AcDbSpline
210
0.0
220
0.0
230
1.0
 70
    11
 71
     3
 72
    38
 73
    34
 74
     0
 42
0.0000000001
 43
0.0000000001
 12
1.0
 22
0.0
 32
0.0
 13
1.0
 23
0.0
 33
0.0
 40
0.0
 40
0.0
 40
0.0
 40
0.0
 40
1.0
 40
1.0
 40
1.0
 40
2.0
 40
2.0
 40
2.0
 40
3.0
 40
3.0
 40
3.0
 40
4.0
 40
4.0
 40
4.0
 40
5.0
 40
5.0
 40
5.0
 40
6.0
 40
6.0
 40
6.0
 40
7.0
 40
7.0
 40
7.0
 40
8.0
 40
8.0
 40
8.0
 40
9.0
 40
9.0
 40
9.0
 40
10.0
 40
10.0
 40
10.0
 40
11.0
 40
11.0
 40
11.0
 40
11.0
 10
3.813687218560113
 20
6.282253265380859
 30
0.0
 10
3.807363722059462
 20
6.275614844428168
 30
0.0
 10
3.799790700276692
 20
6.269784715440538
 30
0.0
 10
3.794898139105903
 20
6.262220806545681
 30
0.0
 10
3.639231363932292
 20
6.021556006537543
 30
0.0
 10
3.483737733629015
 20
5.780778672960069
 30
0.0
 10
3.328671137491862
 20
5.539727105034722
 30
0.0
 10
3.321944766574436
 20
5.529270807902018
 30
0.0
 10
3.319505055745442
 20
5.516057120429145
 30
0.0
 10
3.314885669284397
 20
5.503635406494141
 30
0.0
 10
3.987941318088108
 20
5.503635406494141
 30
0.0
 10
4.656419118245442
 20
5.503635406494141
 30
0.0
 10
5.336114247639974
 20
5.503635406494141
 30
0.0
 10
5.261076609293619
 20
5.619379891289605
 30
0.0
 10
5.192796919080946
 20
5.726047939724392
 30
0.0
 10
5.123146480984158
 20
5.831813388400607
 30
0.0
 10
5.024151272243923
 20
5.982139587402344
 30
0.0
 10
4.92414813571506
 20
6.131802241007486
 30
0.0
 10
4.824564192030165
 20
6.281740612453884
 30
0.0
 10
4.819021436903212
 20
6.294333351982964
 30
0.0
 10
4.814966837565104
 20
6.307863023546006
 30
0.0
 10
4.807715521918403
 20
6.319380230373806
 30
0.0
 10
4.65390862358941
 20
6.563679801093207
 30
0.0
 10
4.499815622965494
 20
6.80779923333062
 30
0.0
 10
4.345401763916016
 20
7.051715321011013
 30
0.0
 10
4.33860248989529
 20
7.062455813090006
 30
0.0
 10
4.328231811523438
 20
7.070935673183865
 30
0.0
 10
4.314741558498806
 20
7.085705439249674
 30
0.0
 10
4.254591412014431
 20
6.990803718566895
 30
0.0
 10
4.197358025444879
 20
6.901891708374023
 30
0.0
 10
4.141520182291666
 20
6.812111536661783
 30
0.0
 10
4.031832165188259
 20
6.635747273763021
 30
0.0
 10
3.922920227050781
 20
6.458900451660156
 30
0.0
 10
3.813687218560113
 20
6.282253265380859
 30
0.0
  0
SPLINE
  5
47
330
41
100
AcDbEntity
  8
Layer 1
370
     0
100
AcDbSpline
210
0.0
220
0.0
230
1.0
 70
    11
 71
     3
 72
   104
 73
   100
 74
     0
 42
0.0000000001
 43
0.0000000001
 12
1.0
 22
0.0
 32
0.0
 13
1.0
 23
0.0
 33
0.0
 40
0.0
 40
0.0
 40
0.0
 40
0.0
 40
1.0
 40
1.0
 40
1.0
 40
2.0
 40
2.0
 40
2.0
 40
3.0
 40
3.0
 40
3.0
 40
4.0
 40
4.0
 40
4.0
 40
5.0
 40
5.0
 40
5.0
 40
6.0
 40
6.0
 40
6.0
 40
7.0
 40
7.0
 40
7.0
 40
8.0
 40
8.0
 40
8.0
 40
9.0
 40
9.0
 40
9.0
 40
10.0
 40
10.0
 40
10.0
 40
11.0
 40
11.0
 40
11.0
 40
12.0
 40
12.0
 40
12.0
 40
13.0
 40
13.0
 40
13.0
 40
14.0
 40
14.0
 40
14.0
 40
15.0
 40
15.0
 40
15.0
 40
16.0
 40
16.0
 40
16.0
 40
17.0
 40
17.0
 40
17.0
 40
18.0
 40
18.0
 40
18.0
 40
19.0
 40
19.0
 40
19.0
 40
20.0
 40
20.0
 40
20.0
 40
21.0
 40
21.0
 40
21.0
 40
22.0
 40
22.0
 40
22.0
 40
23.0
 40
23.0
 40
23.0
 40
24.0
 40
24.0
 40
24.0
 40
25.0
 40
25.0
 40
25.0
 40
26.0
 40
26.0
 40
26.0
 40
27.0
 40
27.0
 40
27.0
 40
28.0
 40
28.0
 40
28.0
 40
29.0
 40
29.0
 40
29.0
 40
30.0
 40
30.0
 40
30.0
 40
31.0
 40
31.0
 40
31.0
 40
32.0
 40
32.0
 40
32.0
 40
33.0
 40
33.0
 40
33.0
 40
33.0
 10
5.704348670111762
 20
5.771759880913629
 30
0.0
 10
5.727952745225694
 20
5.777428944905599
 30
0.0
 10
5.747728559705946
 20
5.783735911051432
 30
0.0
 10
5.767994774712457
 20
5.786819246080186
 30
0.0
 10
6.323244306776258
 20
5.871295928955078
 30
0.0
 10
6.8784302605523
 20
5.9562136332194
 30
0.0
 10
7.434037102593315
 20
6.038281970553927
 30
0.0
 10
7.481927235921224
 20
6.045355902777778
 30
0.0
 10
7.501117282443576
 20
6.066337161593967
 30
0.0
 10
7.512468973795572
 20
6.108849419487847
 30
0.0
 10
7.572070651584201
 20
6.332054138183594
 30
0.0
 10
7.633387247721354
 20
6.554800457424587
 30
0.0
 10
7.693501366509331
 20
6.777869542439778
 30
0.0
 10
7.698359171549479
 20
6.795896106296115
 30
0.0
 10
7.698645697699653
 20
6.815154393513997
 30
0.0
 10
7.702358669704861
 20
6.843932681613498
 30
0.0
 10
7.001146528455946
 20
6.577511893378364
 30
0.0
 10
6.311119079589844
 20
6.315340465969509
 30
0.0
 10
5.621342976888021
 20
6.053264829847548
 30
0.0
 10
5.5207642449273
 20
6.23441653781467
 30
0.0
 10
5.407797495524088
 20
6.393556806776258
 30
0.0
 10
5.240672641330295
 20
6.50799560546875
 30
0.0
 10
5.246841854519314
 20
6.477345360649956
 30
0.0
 10
5.260665469699435
 20
6.451828214857313
 30
0.0
 10
5.273529476589626
 20
6.425836351182725
 30
0.0
 10
5.3445192972819
 20
6.282396740383572
 30
0.0
 10
5.409307267930772
 20
6.136931737263997
 30
0.0
 10
5.420696682400173
 20
5.974026362101236
 30
0.0
 10
5.436697642008463
 20
5.745143466525607
 30
0.0
 10
5.423566182454427
 20
5.521180682712131
 30
0.0
 10
5.318756951226129
 20
5.310428407457139
 30
0.0
 10
5.276259104410807
 20
5.224972407023111
 30
0.0
 10
5.214781019422743
 20
5.165531582302517
 30
0.0
 10
5.122879876030816
 20
5.136351903279622
 30
0.0
 10
5.070168813069661
 20
5.119615342881944
 30
0.0
 10
5.016952090793185
 20
5.101610819498697
 30
0.0
 10
4.968067169189453
 20
5.076262156168619
 30
0.0
 10
4.85624016655816
 20
5.018275790744357
 30
0.0
 10
4.814532385932075
 20
4.920683966742621
 30
0.0
 10
4.828234354654947
 20
4.798655192057291
 30
0.0
 10
4.841139475504557
 20
4.683721754286024
 30
0.0
 10
4.886429680718316
 20
4.588275485568576
 30
0.0
 10
5.004624684651692
 20
4.54830339219835
 30
0.0
 10
5.037387847900391
 20
4.537222968207465
 30
0.0
 10
5.051366594102647
 20
4.523434533013238
 30
0.0
 10
5.057535807291666
 20
4.48858896891276
 30
0.0
 10
5.088552686903212
 20
4.313402811686197
 30
0.0
 10
5.121804555257161
 20
4.138580746120876
 30
0.0
 10
5.1568603515625
 20
3.964150746663411
 30
0.0
 10
5.197645823160807
 20
3.761207580566406
 30
0.0
 10
5.16297361585829
 20
3.788936191134983
 30
0.0
 10
5.370023515489366
 20
3.805424160427517
 30
0.0
 10
5.463078392876519
 20
3.812834845648871
 30
0.0
 10
5.55531989203559
 20
3.8304566277398
 30
0.0
 10
5.652604844835069
 20
3.844100528293186
 30
0.0
 10
5.640199873182508
 20
3.88047366672092
 30
0.0
 10
5.632765028211805
 20
3.904701656765408
 30
0.0
 10
5.623751746283637
 20
3.928327348497179
 30
0.0
 10
5.534790886773004
 20
4.161513434516059
 30
0.0
 10
5.445601569281684
 20
4.394613054063585
 30
0.0
 10
5.356408013237847
 20
4.627710554334852
 30
0.0
 10
5.312193128797743
 20
4.743261125352647
 30
0.0
 10
5.312128278944227
 20
4.743236541748047
 30
0.0
 10
5.418162027994791
 20
4.82335705227322
 30
0.0
 10
5.668458302815755
 20
4.54534912109375
 30
0.0
 10
5.918991936577691
 20
4.267077975802951
 30
0.0
 10
6.173606872558594
 20
3.984273274739583
 30
0.0
 10
6.311643812391493
 20
4.110406239827474
 30
0.0
 10
6.445313347710503
 20
4.232548183865017
 30
0.0
 10
6.584258609347873
 20
4.359511481391059
 30
0.0
 10
6.551054636637369
 20
4.386408064100477
 30
0.0
 10
6.52883063422309
 20
4.406111399332682
 30
0.0
 10
6.504930284288194
 20
4.423511505126953
 30
0.0
 10
6.222452799479166
 20
4.629165649414062
 30
0.0
 10
5.939724392361111
 20
4.834474775526258
 30
0.0
 10
5.657063378228082
 20
5.039877573649088
 30
0.0
 10
5.585396236843533
 20
5.091956244574653
 30
0.0
 10
5.586847941080729
 20
5.091247982449001
 30
0.0
 10
5.642680274115668
 20
5.20468775431315
 30
0.0
 10
5.672586652967665
 20
5.265450159708658
 30
0.0
 10
5.711360931396484
 20
5.224258210923936
 30
0.0
 10
5.741879357231988
 20
5.213973787095811
 30
0.0
 10
6.125061459011501
 20
5.084846496582031
 30
0.0
 10
6.507787492540147
 20
4.954330020480685
 30
0.0
 10
6.889581044514974
 20
4.821159362792969
 30
0.0
 10
6.941442701551649
 20
4.803069644504123
 30
0.0
 10
6.967826843261719
 20
4.812664879692925
 30
0.0
 10
6.99392827351888
 20
4.859610663519965
 30
0.0
 10
7.090544806586371
 20
5.033389409383138
 30
0.0
 10
7.190568288167317
 20
5.205272674560547
 30
0.0
 10
7.288861168755425
 20
5.378124660915798
 30
0.0
 10
7.295175340440538
 20
5.389228185017903
 30
0.0
 10
7.297673967149522
 20
5.402501424153646
 30
0.0
 10
7.305070241292317
 20
5.423727883232965
 30
0.0
 10
6.770394219292534
 20
5.475098292032877
 30
0.0
 10
6.242519802517361
 20
5.525815116034614
 30
0.0
 10
5.714390648735894
 20
5.576556311713325
 30
0.0
 10
5.710880703396267
 20
5.644785351223415
 30
0.0
 10
5.7078005472819
 20
5.704655541314019
 30
0.0
 10
5.704348670111762
 20
5.771759880913629
 30
0.0
  0
SPLINE
  5
48
330
41
100
AcDbEntity
  8
Layer 1
370
     0
100
AcDbSpline
210
0.0
220
0.0
230
1.0
 70
    11
 71
     3
 72
   101
 73
    97
 74
     0
 42
0.0000000001
 43
0.0000000001
 12
1.0
 22
0.0
 32
0.0
 13
1.0
 23
0.0
 33
0.0
 40
0.0
 40
0.0
 40
0.0
 40
0.0
 40
1.0
 40
1.0
 40
1.0
 40
2.0
 40
2.0
 40
2.0
 40
3.0
 40
3.0
 40
3.0
 40
4.0
 40
4.0
 40
4.0
 40
5.0
 40
5.0
 40
5.0
 40
6.0
 40
6.0
 40
6.0
 40
7.0
 40
7.0
 40
7.0
 40
8.0
 40
8.0
 40
8.0
 40
9.0
 40
9.0
 40
9.0
 40
10.0
 40
10.0
 40
10.0
 40
11.0
 40
11.0
 40
11.0
 40
12.0
 40
12.0
 40
12.0
 40
13.0
 40
13.0
 40
13.0
 40
14.0
 40
14.0
 40
14.0
 40
15.0
 40
15.0
 40
15.0
 40
16.0
 40
16.0
 40
16.0
 40
17.0
 40
17.0
 40
17.0
 40
18.0
 40
18.0
 40
18.0
 40
19.0
 40
19.0
 40
19.0
 40
20.0
 40
20.0
 40
20.0
 40
21.0
 40
21.0
 40
21.0
 40
22.0
 40
22.0
 40
22.0
 40
23.0
 40
23.0
 40
23.0
 40
24.0
 40
24.0
 40
24.0
 40
25.0
 40
25.0
 40
25.0
 40
26.0
 40
26.0
 40
26.0
 40
27.0
 40
27.0
 40
27.0
 40
28.0
 40
28.0
 40
28.0
 40
29.0
 40
29.0
 40
29.0
 40
30.0
 40
30.0
 40
30.0
 40
31.0
 40
31.0
 40
31.0
 40
32.0
 40
32.0
 40
32.0
 40
32.0
 10
1.36504602432251
 20
5.42082871331109
 30
0.0
 10
1.483540693918864
 20
5.204996956719293
 30
0.0
 10
1.594171947903103
 20
5.003487904866536
 30
0.0
 10
1.705759843190511
 20
4.800236596001519
 30
0.0
 10
2.14039495256212
 20
4.955133650037977
 30
0.0
 10
2.56602414449056
 20
5.106821695963541
 30
0.0
 10
2.994771745469835
 20
5.259620878431532
 30
0.0
 10
3.009706709120008
 20
5.224606408013238
 30
0.0
 10
3.018954594930013
 20
5.193156984117295
 30
0.0
 10
3.035509745279948
 20
5.166194703843858
 30
0.0
 10
3.06751463148329
 20
5.114071740044488
 30
0.0
 10
3.052497016059028
 20
5.083998150295681
 30
0.0
 10
3.004584206475152
 20
5.048703299628364
 30
0.0
 10
2.721495734320746
 20
4.840167151557075
 30
0.0
 10
2.441063033209907
 20
4.628025902642144
 30
0.0
 10
2.159810596042209
 20
4.416998969184028
 30
0.0
 10
2.138336499532064
 20
4.400886959499783
 30
0.0
 10
2.11743524339464
 20
4.384012010362413
 30
0.0
 10
2.085132704840766
 20
4.358801099989149
 30
0.0
 10
2.222969267103407
 20
4.227761586507161
 30
0.0
 10
2.35388077629937
 20
4.103305816650391
 30
0.0
 10
2.487965053982205
 20
3.975833892822266
 30
0.0
 10
2.742600758870442
 20
4.267754448784722
 30
0.0
 10
2.986759609646267
 20
4.547663794623481
 30
0.0
 10
3.230798933241102
 20
4.827436235215928
 30
0.0
 10
3.305618498060438
 20
4.763854132758246
 30
0.0
 10
3.319218741522895
 20
4.702539655897352
 30
0.0
 10
3.283314598931206
 20
4.612169901529947
 30
0.0
 10
3.192968792385525
 20
4.384772406684028
 30
0.0
 10
3.116511874728733
 20
4.151854197184244
 30
0.0
 10
3.034671359592014
 20
3.92108408610026
 30
0.0
 10
3.026653925577799
 20
3.898477766248915
 30
0.0
 10
3.019911024305555
 20
3.875419192843967
 30
0.0
 10
3.009296629163954
 20
3.842352125379774
 30
0.0
 10
3.143420961168077
 20
3.82748285929362
 30
0.0
 10
3.267435073852539
 20
3.816146850585938
 30
0.0
 10
3.390666961669922
 20
3.799141777886284
 30
0.0
 10
3.461333380805121
 20
3.789390563964844
 30
0.0
 10
3.489708582560221
 20
3.816316392686632
 30
0.0
 10
3.500522825453016
 20
3.884881761338975
 30
0.0
 10
3.531108644273546
 20
4.078807830810547
 30
0.0
 10
3.567216661241319
 20
4.271859486897786
 30
0.0
 10
3.600474039713542
 20
4.46537102593316
 30
0.0
 10
3.607683393690321
 20
4.507318708631727
 30
0.0
 10
3.616456561618381
 20
4.540730794270833
 30
0.0
 10
3.667742199367947
 20
4.555152893066406
 30
0.0
 10
3.699863857693142
 20
4.564186096191406
 30
0.0
 10
3.731285095214844
 20
4.594087388780381
 30
0.0
 10
3.75190544128418
 20
4.622650146484375
 30
0.0
 10
3.882549073961046
 20
4.803612603081597
 30
0.0
 10
3.818717320760091
 20
5.019732157389322
 30
0.0
 10
3.613343132866753
 20
5.107328202989366
 30
0.0
 10
3.462093989054362
 20
5.171839184231228
 30
0.0
 10
3.323667738172743
 20
5.259179645114474
 30
0.0
 10
3.284766515096028
 20
5.430172814263238
 30
0.0
 10
3.21483039855957
 20
5.737583796183268
 30
0.0
 10
3.208246654934353
 20
6.044380187988281
 30
0.0
 10
3.348222732543945
 20
6.338929494222005
 30
0.0
 10
3.374384138319227
 20
6.393980450100369
 30
0.0
 10
3.400774849785698
 20
6.44892226325141
 30
0.0
 10
3.427059809366862
 20
6.503914515177408
 30
0.0
 10
3.420167711046007
 20
6.509265263875325
 30
0.0
 10
3.413275612725152
 20
6.514616012573242
 30
0.0
 10
3.406383726331923
 20
6.519966973198784
 30
0.0
 10
3.339029100206163
 20
6.449421352810329
 30
0.0
 10
3.266456604003906
 20
6.383048163519965
 30
0.0
 10
3.205779605441623
 20
6.307163450453016
 30
0.0
 10
3.144414477878147
 20
6.230418099297417
 30
0.0
 10
3.094827863905165
 20
6.144254684448242
 30
0.0
 10
3.038546456231011
 20
6.059916390313043
 30
0.0
 10
2.344499799940321
 20
6.317833582560221
 30
0.0
 10
1.650529172685411
 20
6.575722376505533
 30
0.0
 10
0.9464380741119385
 20
6.837372038099501
 30
0.0
 10
0.9506364795896741
 20
6.814534081353081
 30
0.0
 10
0.951603717274136
 20
6.803728633456759
 30
0.0
 10
0.954645037651062
 20
6.793542332119411
 30
0.0
 10
1.024682548311022
 20
6.558968438042534
 30
0.0
 10
1.093590497970581
 20
6.324033525254991
 30
0.0
 10
1.167372041278415
 20
6.09063975016276
 30
0.0
 10
1.174351029925876
 20
6.068563037448459
 30
0.0
 10
1.210509644614326
 20
6.044810824924045
 30
0.0
 10
1.235946416854858
 20
6.041075600518121
 30
0.0
 10
1.761741214328342
 20
5.963860617743598
 30
0.0
 10
2.288015577528212
 20
5.889919069078233
 30
0.0
 10
2.814026302761502
 20
5.81415918138292
 30
0.0
 10
2.966439988878038
 20
5.792207294040256
 30
0.0
 10
2.96461296081543
 20
5.790686925252278
 30
0.0
 10
2.950835757785373
 20
5.636701371934678
 30
0.0
 10
2.946968502468533
 20
5.593478732638888
 30
0.0
 10
2.930617650349935
 20
5.576779683430989
 30
0.0
 10
2.888261159261067
 20
5.572729958428277
 30
0.0
 10
2.501668930053711
 20
5.535768508911133
 30
0.0
 10
2.115196545918782
 20
5.497545878092447
 30
0.0
 10
1.728734970092773
 20
5.459229787190755
 30
0.0
 10
1.612053023444282
 20
5.447660870022244
 30
0.0
 10
1.495514233907064
 20
5.434648301866319
 30
0.0
 10
1.36504602432251
 20
5.42082871331109
 30
0.0
  0
SPLINE
  5
49
330
41
100
AcDbEntity
  8
Layer 1
370
     0
100
AcDbSpline
210
0.0
220
0.0
230
1.0
 70
    11
 71
     3
 72
    44
 73
    40
 74
     0
 42
0.0000000001
 43
0.0000000001
 12
1.0
 22
0.0
 32
0.0
 13
1.0
 23
0.0
 33
0.0
 40
0.0
 40
0.0
 40
0.0
 40
0.0
 40
1.0
 40
1.0
 40
1.0
 40
2.0
 40
2.0
 40
2.0
 40
3.0
 40
3.0
 40
3.0
 40
4.0
 40
4.0
 40
4.0
 40
5.0
 40
5.0
 40
5.0
 40
6.0
 40
6.0
 40
6.0
 40
7.0
 40
7.0
 40
7.0
 40
8.0
 40
8.0
 40
8.0
 40
9.0
 40
9.0
 40
9.0
 40
10.0
 40
10.0
 40
10.0
 40
11.0
 40
11.0
 40
11.0
 40
12.0
 40
12.0
 40
12.0
 40
13.0
 40
13.0
 40
13.0
 40
13.0
 10
4.824836307101779
 20
4.265512254503038
 30
0.0
 10
4.655017428927951
 20
4.603148566351996
 30
0.0
 10
4.488681369357638
 20
4.933860354953342
 30
0.0
 10
4.320590337117513
 20
5.268062167697482
 30
0.0
 10
4.155272165934244
 20
4.930232577853732
 30
0.0
 10
3.992637422349718
 20
4.597886403401692
 30
0.0
 10
3.831883960300022
 20
4.269384596082899
 30
0.0
 10
3.926214218139648
 20
4.193390316433376
 30
0.0
 10
4.030621210734049
 20
4.113574981689453
 30
0.0
 10
4.129962497287326
 20
4.027887132432726
 30
0.0
 10
4.20954852634006
 20
3.959239112006293
 30
0.0
 10
4.188510470920138
 20
3.81236097547743
 30
0.0
 10
4.096219804551867
 20
3.782399071587456
 30
0.0
 10
4.094542185465494
 20
3.630546569824219
 30
0.0
 10
4.068928612603082
 20
3.476431104871962
 30
0.0
 10
4.171128378974067
 20
3.338002522786458
 30
0.0
 10
4.212824503580729
 20
3.281525505913628
 30
0.0
 10
4.233559926350911
 20
3.209614223904079
 30
0.0
 10
4.264130486382379
 20
3.14486567179362
 30
0.0
 10
4.280270470513238
 20
3.110680898030599
 30
0.0
 10
4.297051535712348
 20
3.076799180772569
 30
0.0
 10
4.319369633992513
 20
3.03076171875
 30
0.0
 10
4.378558688693576
 20
3.1540404425727
 30
0.0
 10
4.419567532009548
 20
3.271444956461588
 30
0.0
 10
4.486637963189019
 20
3.371353997124566
 30
0.0
 10
4.578205956353082
 20
3.507754855685764
 30
0.0
 10
4.535032908121744
 20
3.650160895453559
 30
0.0
 10
4.544005923800998
 20
3.776065826416016
 30
0.0
 10
4.506370968288845
 20
3.798932817247179
 30
0.0
 10
4.463342030843099
 20
3.810587565104167
 30
0.0
 10
4.459570990668403
 20
3.829906039767795
 30
0.0
 10
4.44419182671441
 20
3.908685896131727
 30
0.0
 10
4.43070814344618
 20
3.991574605305989
 30
0.0
 10
4.513882531060113
 20
4.049134148491754
 30
0.0
 10
4.561314053005642
 20
4.081958770751953
 30
0.0
 10
4.604509565565321
 20
4.120900472005208
 30
0.0
 10
4.651910146077474
 20
4.153775956895617
 30
0.0
 10
4.708440568712022
 20
4.192984263102213
 30
0.0
 10
4.767429775661892
 20
4.228646596272786
 30
0.0
 10
4.824836307101779
 20
4.265512254503038
 30
0.0
  0
SPLINE
  5
4A
330
41
100
AcDbEntity
  8
Layer 1
370
     0
100
AcDbSpline
210
0.0
220
0.0
230
1.0
 70
    11
 71
     3
 72
    62
 73
    58
 74
     0
 42
0.0000000001
 43
0.0000000001
 12
1.0
 22
0.0
 32
0.0
 13
1.0
 23
0.0
 33
0.0
 40
0.0
 40
0.0
 40
0.0
 40
0.0
 40
1.0
 40
1.0
 40
1.0
 40
2.0
 40
2.0
 40
2.0
 40
3.0
 40
3.0
 40
3.0
 40
4.0
 40
4.0
 40
4.0
 40
5.0
 40
5.0
 40
5.0
 40
6.0
 40
6.0
 40
6.0
 40
7.0
 40
7.0
 40
7.0
 40
8.0
 40
8.0
 40
8.0
 40
9.0
 40
9.0
 40
9.0
 40
10.0
 40
10.0
 40
10.0
 40
11.0
 40
11.0
 40
11.0
 40
12.0
 40
12.0
 40
12.0
 40
13.0
 40
13.0
 40
13.0
 40
14.0
 40
14.0
 40
14.0
 40
15.0
 40
15.0
 40
15.0
 40
16.0
 40
16.0
 40
16.0
 40
17.0
 40
17.0
 40
17.0
 40
18.0
 40
18.0
 40
18.0
 40
19.0
 40
19.0
 40
19.0
 40
19.0
 10
3.822835286458333
 20
3.512946658664279
 30
0.0
 10
3.85912111070421
 20
3.56136237250434
 30
0.0
 10
3.89567396375868
 20
3.603448232014974
 30
0.0
 10
3.924469629923502
 20
3.650301191541883
 30
0.0
 10
3.95813963148329
 20
3.705084906684028
 30
0.0
 10
3.989171346028646
 20
3.76232189602322
 30
0.0
 10
4.013684590657552
 20
3.821660359700521
 30
0.0
 10
4.036545647515191
 20
3.876998901367188
 30
0.0
 10
4.030313279893663
 20
3.932301839192708
 30
0.0
 10
3.973914040459527
 20
3.968240949842665
 30
0.0
 10
3.919076283772786
 20
4.003185272216797
 30
0.0
 10
3.866622077094184
 20
3.9881591796875
 30
0.0
 10
3.820403205023871
 20
3.950219048394097
 30
0.0
 10
3.797547446356879
 20
3.931457095675998
 30
0.0
 10
3.774851693047417
 20
3.908746931287977
 30
0.0
 10
3.761393229166667
 20
3.88296381632487
 30
0.0
 10
3.712382210625542
 20
3.789070129394531
 30
0.0
 10
3.662650850084093
 20
3.695030212402344
 30
0.0
 10
3.622595045301649
 20
3.597194671630859
 30
0.0
 10
3.600903617011176
 20
3.544213612874349
 30
0.0
 10
3.576184378729926
 20
3.525330437554253
 30
0.0
 10
3.517714182535807
 20
3.525788201226128
 30
0.0
 10
3.363032235039605
 20
3.526998307969835
 30
0.0
 10
3.207921981811523
 20
3.52419916788737
 30
0.0
 10
3.05368783738878
 20
3.513147989908854
 30
0.0
 10
2.95911004808214
 20
3.506371815999349
 30
0.0
 10
2.939976586235894
 20
3.454137166341146
 30
0.0
 10
2.992319107055664
 20
3.375923156738281
 30
0.0
 10
3.003797107272678
 20
3.358772277832031
 30
0.0
 10
3.01674313015408
 20
3.341620975070529
 30
0.0
 10
3.032322777642144
 20
3.328357272677951
 30
0.0
 10
3.136041853162977
 20
3.240052964952257
 30
0.0
 10
3.240361531575521
 20
3.152444203694661
 30
0.0
 10
3.345328436957465
 20
3.065627204047309
 30
0.0
 10
3.3600099351671
 20
3.053483751085069
 30
0.0
 10
3.379299587673611
 20
3.046911451551649
 30
0.0
 10
3.413074493408203
 20
3.028896331787109
 30
0.0
 10
3.396625942654079
 20
3.082771301269531
 30
0.0
 10
3.387147267659505
 20
3.119802686903212
 30
0.0
 10
3.374102486504448
 20
3.155532836914062
 30
0.0
 10
3.308456420898438
 20
3.335336473253038
 30
0.0
 10
3.301513459947374
 20
3.359196556939019
 30
0.0
 10
3.532044092814127
 20
3.341625637478298
 30
0.0
 10
3.656665378146701
 20
3.332127041286892
 30
0.0
 10
3.65796258714464
 20
3.323607126871745
 30
0.0
 10
3.662605497572157
 20
3.199666765001085
 30
0.0
 10
3.662906222873264
 20
3.191637674967448
 30
0.0
 10
3.667670991685655
 20
3.18377685546875
 30
0.0
 10
3.675364600287543
 20
3.161056094699436
 30
0.0
 10
3.769496493869358
 20
3.217758178710938
 30
0.0
 10
3.860160827636719
 20
3.267255147298177
 30
0.0
 10
3.944863425360785
 20
3.325431399875217
 30
0.0
 10
3.991157743665907
 20
3.357227749294704
 30
0.0
 10
3.987104415893555
 20
3.405975341796875
 30
0.0
 10
3.94070922003852
 20
3.441953447129991
 30
0.0
 10
3.906414455837673
 20
3.468548668755425
 30
0.0
 10
3.866079754299587
 20
3.487355550130208
 30
0.0
 10
3.822835286458333
 20
3.512946658664279
 30
0.0
  0
SPLINE
  5
4B
330
41
100
AcDbEntity
  8
Layer 1
370
     0
100
AcDbSpline
210
0.0
220
0.0
230
1.0
 70
    11
 71
     3
 72
    62
 73
    58
 74
     0
 42
0.0000000001
 43
0.0000000001
 12
1.0
 22
0.0
 32
0.0
 13
1.0
 23
0.0
 33
0.0
 40
0.0
 40
0.0
 40
0.0
 40
0.0
 40
1.0
 40
1.0
 40
1.0
 40
2.0
 40
2.0
 40
2.0
 40
3.0
 40
3.0
 40
3.0
 40
4.0
 40
4.0
 40
4.0
 40
5.0
 40
5.0
 40
5.0
 40
6.0
 40
6.0
 40
6.0
 40
7.0
 40
7.0
 40
7.0
 40
8.0
 40
8.0
 40
8.0
 40
9.0
 40
9.0
 40
9.0
 40
10.0
 40
10.0
 40
10.0
 40
11.0
 40
11.0
 40
11.0
 40
12.0
 40
12.0
 40
12.0
 40
13.0
 40
13.0
 40
13.0
 40
14.0
 40
14.0
 40
14.0
 40
15.0
 40
15.0
 40
15.0
 40
16.0
 40
16.0
 40
16.0
 40
17.0
 40
17.0
 40
17.0
 40
18.0
 40
18.0
 40
18.0
 40
19.0
 40
19.0
 40
19.0
 40
19.0
 10
4.867798275417751
 20
3.5117064581977
 30
0.0
 10
4.839751349555121
 20
3.499730004204644
 30
0.0
 10
4.822711520724826
 20
3.492763519287109
 30
0.0
 10
4.805937449137369
 20
3.485208723280165
 30
0.0
 10
4.786980523003472
 20
3.476671854654948
 30
0.0
 10
4.767332712809244
 20
3.469149271647135
 30
0.0
 10
4.749615987141927
 20
3.458478715684679
 30
0.0
 10
4.699041578504774
 20
3.428018358018663
 30
0.0
 10
4.687081231011285
 20
3.379688686794704
 30
0.0
 10
4.73370361328125
 20
3.345989227294922
 30
0.0
 10
4.825700547960069
 20
3.279491848415798
 30
0.0
 10
4.925658755832248
 20
3.22400877210829
 30
0.0
 10
5.029443105061849
 20
3.159549289279514
 30
0.0
 10
5.037493811713325
 20
3.187909868028429
 30
0.0
 10
5.041449652777778
 20
3.196133083767361
 30
0.0
 10
5.041982014973958
 20
3.204572041829427
 30
0.0
 10
5.051017337375217
 20
3.347789340549045
 30
0.0
 10
5.056741078694661
 20
3.353743659125434
 30
0.0
 10
5.200128767225477
 20
3.359901852077908
 30
0.0
 10
5.22781499226888
 20
3.361091613769531
 30
0.0
 10
5.255730523003472
 20
3.361630333794488
 30
0.0
 10
5.283317565917969
 20
3.359534369574653
 30
0.0
 10
5.358926984998915
 20
3.353788587782118
 30
0.0
 10
5.372180514865451
 20
3.334934658474392
 30
0.0
 10
5.349511464436849
 20
3.262140485975477
 30
0.0
 10
5.326609293619791
 20
3.188595241970486
 30
0.0
 10
5.301111433241102
 20
3.115857442220052
 30
0.0
 10
5.276750776502821
 20
3.04276614718967
 30
0.0
 10
5.439720577663845
 20
3.145093705919054
 30
0.0
 10
5.59147220187717
 20
3.254380967881944
 30
0.0
 10
5.707271575927734
 20
3.403294033474392
 30
0.0
 10
5.757876502143012
 20
3.468369377983941
 30
0.0
 10
5.736490885416666
 20
3.514022403293186
 30
0.0
 10
5.653227064344618
 20
3.518171098497179
 30
0.0
 10
5.491728040907118
 20
3.526218414306641
 30
0.0
 10
5.329773796929254
 20
3.527783711751302
 30
0.0
 10
5.168038686116536
 20
3.526821560329861
 30
0.0
 10
5.119333055284288
 20
3.526532491048177
 30
0.0
 10
5.1012085808648
 20
3.543716430664062
 30
0.0
 10
5.085143195258246
 20
3.587185753716363
 30
0.0
 10
5.054050021701388
 20
3.671316782633463
 30
0.0
 10
5.021790822347005
 20
3.756832546657986
 30
0.0
 10
4.975454118516709
 20
3.832905239529079
 30
0.0
 10
4.942042032877604
 20
3.88775889078776
 30
0.0
 10
4.891142103407118
 20
3.938562605116102
 30
0.0
 10
4.836144341362847
 20
3.971000247531467
 30
0.0
 10
4.806754642062717
 20
3.988334655761719
 30
0.0
 10
4.741750081380208
 20
3.976187811957465
 30
0.0
 10
4.712074703640408
 20
3.952855004204644
 30
0.0
 10
4.685940636528863
 20
3.932306501600477
 30
0.0
 10
4.672439575195312
 20
3.875216166178385
 30
0.0
 10
4.678843604193793
 20
3.838736640082465
 30
0.0
 10
4.687642415364583
 20
3.78861575656467
 30
0.0
 10
4.716888427734375
 20
3.740566253662109
 30
0.0
 10
4.74387953016493
 20
3.695528242323133
 30
0.0
 10
4.780371771918403
 20
3.63463634914822
 30
0.0
 10
4.823040432400173
 20
3.577445560031467
 30
0.0
 10
4.867798275417751
 20
3.5117064581977
 30
0.0
  0
SPLINE
  5
4C
330
41
100
AcDbEntity
  8
Layer 1
370
     0
100
AcDbSpline
210
0.0
220
0.0
230
1.0
 70
    11
 71
     3
 72
   104
 73
   100
 74
     0
 42
0.0000000001
 43
0.0000000001
 12
1.0
 22
0.0
 32
0.0
 13
1.0
 23
0.0
 33
0.0
 40
0.0
 40
0.0
 40
0.0
 40
0.0
 40
1.0
 40
1.0
 40
1.0
 40
2.0
 40
2.0
 40
2.0
 40
3.0
 40
3.0
 40
3.0
 40
4.0
 40
4.0
 40
4.0
 40
5.0
 40
5.0
 40
5.0
 40
6.0
 40
6.0
 40
6.0
 40
7.0
 40
7.0
 40
7.0
 40
8.0
 40
8.0
 40
8.0
 40
9.0
 40
9.0
 40
9.0
 40
10.0
 40
10.0
 40
10.0
 40
11.0
 40
11.0
 40
11.0
 40
12.0
 40
12.0
 40
12.0
 40
13.0
 40
13.0
 40
13.0
 40
14.0
 40
14.0
 40
14.0
 40
15.0
 40
15.0
 40
15.0
 40
16.0
 40
16.0
 40
16.0
 40
17.0
 40
17.0
 40
17.0
 40
18.0
 40
18.0
 40
18.0
 40
19.0
 40
19.0
 40
19.0
 40
20.0
 40
20.0
 40
20.0
 40
21.0
 40
21.0
 40
21.0
 40
22.0
 40
22.0
 40
22.0
 40
23.0
 40
23.0
 40
23.0
 40
24.0
 40
24.0
 40
24.0
 40
25.0
 40
25.0
 40
25.0
 40
26.0
 40
26.0
 40
26.0
 40
27.0
 40
27.0
 40
27.0
 40
28.0
 40
28.0
 40
28.0
 40
29.0
 40
29.0
 40
29.0
 40
30.0
 40
30.0
 40
30.0
 40
31.0
 40
31.0
 40
31.0
 40
32.0
 40
32.0
 40
32.0
 40
33.0
 40
33.0
 40
33.0
 40
33.0
 10
5.704348670111762
 20
5.771759880913629
 30
0.0
 10
5.7078005472819
 20
5.704655541314019
 30
0.0
 10
5.710880703396267
 20
5.644785351223415
 30
0.0
 10
5.714390648735894
 20
5.576556311713325
 30
0.0
 10
6.242519802517361
 20
5.525815116034614
 30
0.0
 10
6.770394219292534
 20
5.475098292032877
 30
0.0
 10
7.305070241292317
 20
5.423727883232965
 30
0.0
 10
7.297673967149522
 20
5.402501424153646
 30
0.0
 10
7.295175340440538
 20
5.389228185017903
 30
0.0
 10
7.288861168755425
 20
5.378124660915798
 30
0.0
 10
7.190568288167317
 20
5.205272674560547
 30
0.0
 10
7.090544806586371
 20
5.033389409383138
 30
0.0
 10
6.99392827351888
 20
4.859610663519965
 30
0.0
 10
6.967826843261719
 20
4.812664879692925
 30
0.0
 10
6.941442701551649
 20
4.803069644504123
 30
0.0
 10
6.889581044514974
 20
4.821159362792969
 30
0.0
 10
6.507787492540147
 20
4.954330020480685
 30
0.0
 10
6.125061459011501
 20
5.084846496582031
 30
0.0
 10
5.741879357231988
 20
5.213973787095811
 30
0.0
 10
5.711360931396484
 20
5.224258210923936
 30
0.0
 10
5.672586652967665
 20
5.265450159708658
 30
0.0
 10
5.642680274115668
 20
5.20468775431315
 30
0.0
 10
5.586847941080729
 20
5.091247982449001
 30
0.0
 10
5.585396236843533
 20
5.091956244574653
 30
0.0
 10
5.657063378228082
 20
5.039877573649088
 30
0.0
 10
5.939724392361111
 20
4.834474775526258
 30
0.0
 10
6.222452799479166
 20
4.629165649414062
 30
0.0
 10
6.504930284288194
 20
4.423511505126953
 30
0.0
 10
6.52883063422309
 20
4.406111399332682
 30
0.0
 10
6.551054636637369
 20
4.386408064100477
 30
0.0
 10
6.584258609347873
 20
4.359511481391059
 30
0.0
 10
6.445313347710503
 20
4.232548183865017
 30
0.0
 10
6.311643812391493
 20
4.110406239827474
 30
0.0
 10
6.173606872558594
 20
3.984273274739583
 30
0.0
 10
5.918991936577691
 20
4.267077975802951
 30
0.0
 10
5.668458302815755
 20
4.54534912109375
 30
0.0
 10
5.418162027994791
 20
4.82335705227322
 30
0.0
 10
5.312128278944227
 20
4.743236541748047
 30
0.0
 10
5.312193128797743
 20
4.743261125352647
 30
0.0
 10
5.356408013237847
 20
4.627710554334852
 30
0.0
 10
5.445601569281684
 20
4.394613054063585
 30
0.0
 10
5.534790886773004
 20
4.161513434516059
 30
0.0
 10
5.623751746283637
 20
3.928327348497179
 30
0.0
 10
5.632765028211805
 20
3.904701656765408
 30
0.0
 10
5.640199873182508
 20
3.88047366672092
 30
0.0
 10
5.652604844835069
 20
3.844100528293186
 30
0.0
 10
5.55531989203559
 20
3.8304566277398
 30
0.0
 10
5.463078392876519
 20
3.812834845648871
 30
0.0
 10
5.370023515489366
 20
3.805424160427517
 30
0.0
 10
5.16297361585829
 20
3.788936191134983
 30
0.0
 10
5.197645823160807
 20
3.761207580566406
 30
0.0
 10
5.1568603515625
 20
3.964150746663411
 30
0.0
 10
5.121804555257161
 20
4.138580746120876
 30
0.0
 10
5.088552686903212
 20
4.313402811686197
 30
0.0
 10
5.057535807291666
 20
4.48858896891276
 30
0.0
 10
5.051366594102647
 20
4.523434533013238
 30
0.0
 10
5.037387847900391
 20
4.537222968207465
 30
0.0
 10
5.004624684651692
 20
4.54830339219835
 30
0.0
 10
4.886429680718316
 20
4.588275485568576
 30
0.0
 10
4.841139475504557
 20
4.683721754286024
 30
0.0
 10
4.828234354654947
 20
4.798655192057291
 30
0.0
 10
4.814532385932075
 20
4.920683966742621
 30
0.0
 10
4.85624016655816
 20
5.018275790744357
 30
0.0
 10
4.968067169189453
 20
5.076262156168619
 30
0.0
 10
5.016952090793185
 20
5.101610819498697
 30
0.0
 10
5.070168813069661
 20
5.119615342881944
 30
0.0
 10
5.122879876030816
 20
5.136351903279622
 30
0.0
 10
5.214781019422743
 20
5.165531582302517
 30
0.0
 10
5.276259104410807
 20
5.224972407023111
 30
0.0
 10
5.318756951226129
 20
5.310428407457139
 30
0.0
 10
5.423566182454427
 20
5.521180682712131
 30
0.0
 10
5.436697642008463
 20
5.745143466525607
 30
0.0
 10
5.420696682400173
 20
5.974026362101236
 30
0.0
 10
5.409307267930772
 20
6.136931737263997
 30
0.0
 10
5.3445192972819
 20
6.282396740383572
 30
0.0
 10
5.273529476589626
 20
6.425836351182725
 30
0.0
 10
5.260665469699435
 20
6.451828214857313
 30
0.0
 10
5.246841854519314
 20
6.477345360649956
 30
0.0
 10
5.240672641330295
 20
6.50799560546875
 30
0.0
 10
5.407797495524088
 20
6.393556806776258
 30
0.0
 10
5.5207642449273
 20
6.23441653781467
 30
0.0
 10
5.621342976888021
 20
6.053264829847548
 30
0.0
 10
6.311119079589844
 20
6.315340465969509
 30
0.0
 10
7.001146528455946
 20
6.577511893378364
 30
0.0
 10
7.702358669704861
 20
6.843932681613498
 30
0.0
 10
7.698645697699653
 20
6.815154393513997
 30
0.0
 10
7.698359171549479
 20
6.795896106296115
 30
0.0
 10
7.693501366509331
 20
6.777869542439778
 30
0.0
 10
7.633387247721354
 20
6.554800457424587
 30
0.0
 10
7.572070651584201
 20
6.332054138183594
 30
0.0
 10
7.512468973795572
 20
6.108849419487847
 30
0.0
 10
7.501117282443576
 20
6.066337161593967
 30
0.0
 10
7.481927235921224
 20
6.045355902777778
 30
0.0
 10
7.434037102593315
 20
6.038281970553927
 30
0.0
 10
6.8784302605523
 20
5.9562136332194
 30
0.0
 10
6.323244306776258
 20
5.871295928955078
 30
0.0
 10
5.767994774712457
 20
5.786819246080186
 30
0.0
 10
5.747728559705946
 20
5.783735911051432
 30
0.0
 10
5.727952745225694
 20
5.777428944905599
 30
0.0
 10
5.704348670111762
 20
5.771759880913629
 30
0.0
  0
HATCH
  5
4D
330
41
100
AcDbEntity
  8
Layer 1
 62
     7
420
 16777215
100
AcDbHatch
 10
0.0
 20
0.0
 30
0.0
210
0.0
220
0.0
230
1.0
  2
SOLID
 70
     1
 71
     0
 91
        1
 92
        1
 93
        1
 72
     4
 94
        3
 73
     0
 74
     1
 95
      104
 96
      100
 40
0.0
 40
0.0
 40
0.0
 40
0.0
 40
1.0
 40
1.0
 40
1.0
 40
2.0
 40
2.0
 40
2.0
 40
3.0
 40
3.0
 40
3.0
 40
4.0
 40
4.0
 40
4.0
 40
5.0
 40
5.0
 40
5.0
 40
6.0
 40
6.0
 40
6.0
 40
7.0
 40
7.0
 40
7.0
 40
8.0
 40
8.0
 40
8.0
 40
9.0
 40
9.0
 40
9.0
 40
10.0
 40
10.0
 40
10.0
 40
11.0
 40
11.0
 40
11.0
 40
12.0
 40
12.0
 40
12.0
 40
13.0
 40
13.0
 40
13.0
 40
14.0
 40
14.0
 40
14.0
 40
15.0
 40
15.0
 40
15.0
 40
16.0
 40
16.0
 40
16.0
 40
17.0
 40
17.0
 40
17.0
 40
18.0
 40
18.0
 40
18.0
 40
19.0
 40
19.0
 40
19.0
 40
20.0
 40
20.0
 40
20.0
 40
21.0
 40
21.0
 40
21.0
 40
22.0
 40
22.0
 40
22.0
 40
23.0
 40
23.0
 40
23.0
 40
24.0
 40
24.0
 40
24.0
 40
25.0
 40
25.0
 40
25.0
 40
26.0
 40
26.0
 40
26.0
 40
27.0
 40
27.0
 40
27.0
 40
28.0
 40
28.0
 40
28.0
 40
29.0
 40
29.0
 40
29.0
 40
30.0
 40
30.0
 40
30.0
 40
31.0
 40
31.0
 40
31.0
 40
32.0
 40
32.0
 40
32.0
 40
33.0
 40
33.0
 40
33.0
 40
33.0
 10
5.704348670111762
 20
5.771759880913629
 10
5.7078005472819
 20
5.704655541314019
 10
5.710880703396267
 20
5.644785351223415
 10
5.714390648735894
 20
5.576556311713325
 10
6.242519802517361
 20
5.525815116034614
 10
6.770394219292534
 20
5.475098292032877
 10
7.305070241292317
 20
5.423727883232965
 10
7.297673967149522
 20
5.402501424153646
 10
7.295175340440538
 20
5.389228185017903
 10
7.288861168755425
 20
5.378124660915798
 10
7.190568288167317
 20
5.205272674560547
 10
7.090544806586371
 20
5.033389409383138
 10
6.99392827351888
 20
4.859610663519965
 10
6.967826843261719
 20
4.812664879692925
 10
6.941442701551649
 20
4.803069644504123
 10
6.889581044514974
 20
4.821159362792969
 10
6.507787492540147
 20
4.954330020480685
 10
6.125061459011501
 20
5.084846496582031
 10
5.741879357231988
 20
5.213973787095811
 10
5.711360931396484
 20
5.224258210923936
 10
5.672586652967665
 20
5.265450159708658
 10
5.642680274115668
 20
5.20468775431315
 10
5.586847941080729
 20
5.091247982449001
 10
5.585396236843533
 20
5.091956244574653
 10
5.657063378228082
 20
5.039877573649088
 10
5.939724392361111
 20
4.834474775526258
 10
6.222452799479166
 20
4.629165649414062
 10
6.504930284288194
 20
4.423511505126953
 10
6.52883063422309
 20
4.406111399332682
 10
6.551054636637369
 20
4.386408064100477
 10
6.584258609347873
 20
4.359511481391059
 10
6.445313347710503
 20
4.232548183865017
 10
6.311643812391493
 20
4.110406239827474
 10
6.173606872558594
 20
3.984273274739583
 10
5.918991936577691
 20
4.267077975802951
 10
5.668458302815755
 20
4.54534912109375
 10
5.418162027994791
 20
4.82335705227322
 10
5.312128278944227
 20
4.743236541748047
 10
5.312193128797743
 20
4.743261125352647
 10
5.356408013237847
 20
4.627710554334852
 10
5.445601569281684
 20
4.394613054063585
 10
5.534790886773004
 20
4.161513434516059
 10
5.623751746283637
 20
3.928327348497179
 10
5.632765028211805
 20
3.904701656765408
 10
5.640199873182508
 20
3.88047366672092
 10
5.652604844835069
 20
3.844100528293186
 10
5.55531989203559
 20
3.8304566277398
 10
5.463078392876519
 20
3.812834845648871
 10
5.370023515489366
 20
3.805424160427517
 10
5.16297361585829
 20
3.788936191134983
 10
5.197645823160807
 20
3.761207580566406
 10
5.1568603515625
 20
3.964150746663411
 10
5.121804555257161
 20
4.138580746120876
 10
5.088552686903212
 20
4.313402811686197
 10
5.057535807291666
 20
4.48858896891276
 10
5.051366594102647
 20
4.523434533013238
 10
5.037387847900391
 20
4.537222968207465
 10
5.004624684651692
 20
4.54830339219835
 10
4.886429680718316
 20
4.588275485568576
 10
4.841139475504557
 20
4.683721754286024
 10
4.828234354654947
 20
4.798655192057291
 10
4.814532385932075
 20
4.920683966742621
 10
4.85624016655816
 20
5.018275790744357
 10
4.968067169189453
 20
5.076262156168619
 10
5.016952090793185
 20
5.101610819498697
 10
5.070168813069661
 20
5.119615342881944
 10
5.122879876030816
 20
5.136351903279622
 10
5.214781019422743
 20
5.165531582302517
 10
5.276259104410807
 20
5.224972407023111
 10
5.318756951226129
 20
5.310428407457139
 10
5.423566182454427
 20
5.521180682712131
 10
5.436697642008463
 20
5.745143466525607
 10
5.420696682400173
 20
5.974026362101236
 10
5.409307267930772
 20
6.136931737263997
 10
5.3445192972819
 20
6.282396740383572
 10
5.273529476589626
 20
6.425836351182725
 10
5.260665469699435
 20
6.451828214857313
 10
5.246841854519314
 20
6.477345360649956
 10
5.240672641330295
 20
6.50799560546875
 10
5.407797495524088
 20
6.393556806776258
 10
5.5207642449273
 20
6.23441653781467
 10
5.621342976888021
 20
6.053264829847548
 10
6.311119079589844
 20
6.315340465969509
 10
7.001146528455946
 20
6.577511893378364
 10
7.702358669704861
 20
6.843932681613498
 10
7.698645697699653
 20
6.815154393513997
 10
7.698359171549479
 20
6.795896106296115
 10
7.693501366509331
 20
6.777869542439778
 10
7.633387247721354
 20
6.554800457424587
 10
7.572070651584201
 20
6.332054138183594
 10
7.512468973795572
 20
6.108849419487847
 10
7.501117282443576
 20
6.066337161593967
 10
7.481927235921224
 20
6.045355902777778
 10
7.434037102593315
 20
6.038281970553927
 10
6.8784302605523
 20
5.9562136332194
 10
6.323244306776258
 20
5.871295928955078
 10
5.767994774712457
 20
5.786819246080186
 10
5.747728559705946
 20
5.783735911051432
 10
5.727952745225694
 20
5.777428944905599
 10
5.704348670111762
 20
5.771759880913629
 97
        0
 97
        0
 75
     2
 76
     1
 98
        0
  0
SPLINE
  5
4E
330
41
100
AcDbEntity
  8
Layer 1
370
     0
100
AcDbSpline
210
0.0
220
0.0
230
1.0
 70
    11
 71
     3
 72
   101
 73
    97
 74
     0
 42
0.0000000001
 43
0.0000000001
 12
1.0
 22
0.0
 32
0.0
 13
1.0
 23
0.0
 33
0.0
 40
0.0
 40
0.0
 40
0.0
 40
0.0
 40
1.0
 40
1.0
 40
1.0
 40
2.0
 40
2.0
 40
2.0
 40
3.0
 40
3.0
 40
3.0
 40
4.0
 40
4.0
 40
4.0
 40
5.0
 40
5.0
 40
5.0
 40
6.0
 40
6.0
 40
6.0
 40
7.0
 40
7.0
 40
7.0
 40
8.0
 40
8.0
 40
8.0
 40
9.0
 40
9.0
 40
9.0
 40
10.0
 40
10.0
 40
10.0
 40
11.0
 40
11.0
 40
11.0
 40
12.0
 40
12.0
 40
12.0
 40
13.0
 40
13.0
 40
13.0
 40
14.0
 40
14.0
 40
14.0
 40
15.0
 40
15.0
 40
15.0
 40
16.0
 40
16.0
 40
16.0
 40
17.0
 40
17.0
 40
17.0
 40
18.0
 40
18.0
 40
18.0
 40
19.0
 40
19.0
 40
19.0
 40
20.0
 40
20.0
 40
20.0
 40
21.0
 40
21.0
 40
21.0
 40
22.0
 40
22.0
 40
22.0
 40
23.0
 40
23.0
 40
23.0
 40
24.0
 40
24.0
 40
24.0
 40
25.0
 40
25.0
 40
25.0
 40
26.0
 40
26.0
 40
26.0
 40
27.0
 40
27.0
 40
27.0
 40
28.0
 40
28.0
 40
28.0
 40
29.0
 40
29.0
 40
29.0
 40
30.0
 40
30.0
 40
30.0
 40
31.0
 40
31.0
 40
31.0
 40
32.0
 40
32.0
 40
32.0
 40
32.0
 10
1.36504602432251
 20
5.42082871331109
 30
0.0
 10
1.495514233907064
 20
5.434648301866319
 30
0.0
 10
1.612053023444282
 20
5.447660870022244
 30
0.0
 10
1.728734970092773
 20
5.459229787190755
 30
0.0
 10
2.115196545918782
 20
5.497545878092447
 30
0.0
 10
2.501668930053711
 20
5.535768508911133
 30
0.0
 10
2.888261159261067
 20
5.572729958428277
 30
0.0
 10
2.930617650349935
 20
5.576779683430989
 30
0.0
 10
2.946968502468533
 20
5.593478732638888
 30
0.0
 10
2.950835757785373
 20
5.636701371934678
 30
0.0
 10
2.96461296081543
 20
5.790686925252278
 30
0.0
 10
2.966439988878038
 20
5.792207294040256
 30
0.0
 10
2.814026302761502
 20
5.81415918138292
 30
0.0
 10
2.288015577528212
 20
5.889919069078233
 30
0.0
 10
1.761741214328342
 20
5.963860617743598
 30
0.0
 10
1.235946416854858
 20
6.041075600518121
 30
0.0
 10
1.210509644614326
 20
6.044810824924045
 30
0.0
 10
1.174351029925876
 20
6.068563037448459
 30
0.0
 10
1.167372041278415
 20
6.09063975016276
 30
0.0
 10
1.093590497970581
 20
6.324033525254991
 30
0.0
 10
1.024682548311022
 20
6.558968438042534
 30
0.0
 10
0.954645037651062
 20
6.793542332119411
 30
0.0
 10
0.951603717274136
 20
6.803728633456759
 30
0.0
 10
0.9506364795896741
 20
6.814534081353081
 30
0.0
 10
0.9464380741119385
 20
6.837372038099501
 30
0.0
 10
1.650529172685411
 20
6.575722376505533
 30
0.0
 10
2.344499799940321
 20
6.317833582560221
 30
0.0
 10
3.038546456231011
 20
6.059916390313043
 30
0.0
 10
3.094827863905165
 20
6.144254684448242
 30
0.0
 10
3.144414477878147
 20
6.230418099297417
 30
0.0
 10
3.205779605441623
 20
6.307163450453016
 30
0.0
 10
3.266456604003906
 20
6.383048163519965
 30
0.0
 10
3.339029100206163
 20
6.449421352810329
 30
0.0
 10
3.406383726331923
 20
6.519966973198784
 30
0.0
 10
3.413275612725152
 20
6.514616012573242
 30
0.0
 10
3.420167711046007
 20
6.509265263875325
 30
0.0
 10
3.427059809366862
 20
6.503914515177408
 30
0.0
 10
3.400774849785698
 20
6.44892226325141
 30
0.0
 10
3.374384138319227
 20
6.393980450100369
 30
0.0
 10
3.348222732543945
 20
6.338929494222005
 30
0.0
 10
3.208246654934353
 20
6.044380187988281
 30
0.0
 10
3.21483039855957
 20
5.737583796183268
 30
0.0
 10
3.284766515096028
 20
5.430172814263238
 30
0.0
 10
3.323667738172743
 20
5.259179645114474
 30
0.0
 10
3.462093989054362
 20
5.171839184231228
 30
0.0
 10
3.613343132866753
 20
5.107328202989366
 30
0.0
 10
3.818717320760091
 20
5.019732157389322
 30
0.0
 10
3.882549073961046
 20
4.803612603081597
 30
0.0
 10
3.75190544128418
 20
4.622650146484375
 30
0.0
 10
3.731285095214844
 20
4.594087388780381
 30
0.0
 10
3.699863857693142
 20
4.564186096191406
 30
0.0
 10
3.667742199367947
 20
4.555152893066406
 30
0.0
 10
3.616456561618381
 20
4.540730794270833
 30
0.0
 10
3.607683393690321
 20
4.507318708631727
 30
0.0
 10
3.600474039713542
 20
4.46537102593316
 30
0.0
 10
3.567216661241319
 20
4.271859486897786
 30
0.0
 10
3.531108644273546
 20
4.078807830810547
 30
0.0
 10
3.500522825453016
 20
3.884881761338975
 30
0.0
 10
3.489708582560221
 20
3.816316392686632
 30
0.0
 10
3.461333380805121
 20
3.789390563964844
 30
0.0
 10
3.390666961669922
 20
3.799141777886284
 30
0.0
 10
3.267435073852539
 20
3.816146850585938
 30
0.0
 10
3.143420961168077
 20
3.82748285929362
 30
0.0
 10
3.009296629163954
 20
3.842352125379774
 30
0.0
 10
3.019911024305555
 20
3.875419192843967
 30
0.0
 10
3.026653925577799
 20
3.898477766248915
 30
0.0
 10
3.034671359592014
 20
3.92108408610026
 30
0.0
 10
3.116511874728733
 20
4.151854197184244
 30
0.0
 10
3.192968792385525
 20
4.384772406684028
 30
0.0
 10
3.283314598931206
 20
4.612169901529947
 30
0.0
 10
3.319218741522895
 20
4.702539655897352
 30
0.0
 10
3.305618498060438
 20
4.763854132758246
 30
0.0
 10
3.230798933241102
 20
4.827436235215928
 30
0.0
 10
2.986759609646267
 20
4.547663794623481
 30
0.0
 10
2.742600758870442
 20
4.267754448784722
 30
0.0
 10
2.487965053982205
 20
3.975833892822266
 30
0.0
 10
2.35388077629937
 20
4.103305816650391
 30
0.0
 10
2.222969267103407
 20
4.227761586507161
 30
0.0
 10
2.085132704840766
 20
4.358801099989149
 30
0.0
 10
2.11743524339464
 20
4.384012010362413
 30
0.0
 10
2.138336499532064
 20
4.400886959499783
 30
0.0
 10
2.159810596042209
 20
4.416998969184028
 30
0.0
 10
2.441063033209907
 20
4.628025902642144
 30
0.0
 10
2.721495734320746
 20
4.840167151557075
 30
0.0
 10
3.004584206475152
 20
5.048703299628364
 30
0.0
 10
3.052497016059028
 20
5.083998150295681
 30
0.0
 10
3.06751463148329
 20
5.114071740044488
 30
0.0
 10
3.035509745279948
 20
5.166194703843858
 30
0.0
 10
3.018954594930013
 20
5.193156984117295
 30
0.0
 10
3.009706709120008
 20
5.224606408013238
 30
0.0
 10
2.994771745469835
 20
5.259620878431532
 30
0.0
 10
2.56602414449056
 20
5.106821695963541
 30
0.0
 10
2.14039495256212
 20
4.955133650037977
 30
0.0
 10
1.705759843190511
 20
4.800236596001519
 30
0.0
 10
1.594171947903103
 20
5.003487904866536
 30
0.0
 10
1.483540693918864
 20
5.204996956719293
 30
0.0
 10
1.36504602432251
 20
5.42082871331109
 30
0.0
  0
HATCH
  5
4F
330
41
100
AcDbEntity
  8
Layer 1
 62
     7
420
 16777215
100
AcDbHatch
 10
0.0
 20
0.0
 30
0.0
210
0.0
220
0.0
230
1.0
  2
SOLID
 70
     1
 71
     0
 91
        1
 92
        1
 93
        1
 72
     4
 94
        3
 73
     0
 74
     1
 95
      101
 96
       97
 40
0.0
 40
0.0
 40
0.0
 40
0.0
 40
1.0
 40
1.0
 40
1.0
 40
2.0
 40
2.0
 40
2.0
 40
3.0
 40
3.0
 40
3.0
 40
4.0
 40
4.0
 40
4.0
 40
5.0
 40
5.0
 40
5.0
 40
6.0
 40
6.0
 40
6.0
 40
7.0
 40
7.0
 40
7.0
 40
8.0
 40
8.0
 40
8.0
 40
9.0
 40
9.0
 40
9.0
 40
10.0
 40
10.0
 40
10.0
 40
11.0
 40
11.0
 40
11.0
 40
12.0
 40
12.0
 40
12.0
 40
13.0
 40
13.0
 40
13.0
 40
14.0
 40
14.0
 40
14.0
 40
15.0
 40
15.0
 40
15.0
 40
16.0
 40
16.0
 40
16.0
 40
17.0
 40
17.0
 40
17.0
 40
18.0
 40
18.0
 40
18.0
 40
19.0
 40
19.0
 40
19.0
 40
20.0
 40
20.0
 40
20.0
 40
21.0
 40
21.0
 40
21.0
 40
22.0
 40
22.0
 40
22.0
 40
23.0
 40
23.0
 40
23.0
 40
24.0
 40
24.0
 40
24.0
 40
25.0
 40
25.0
 40
25.0
 40
26.0
 40
26.0
 40
26.0
 40
27.0
 40
27.0
 40
27.0
 40
28.0
 40
28.0
 40
28.0
 40
29.0
 40
29.0
 40
29.0
 40
30.0
 40
30.0
 40
30.0
 40
31.0
 40
31.0
 40
31.0
 40
32.0
 40
32.0
 40
32.0
 40
32.0
 10
1.36504602432251
 20
5.42082871331109
 10
1.495514233907064
 20
5.434648301866319
 10
1.612053023444282
 20
5.447660870022244
 10
1.728734970092773
 20
5.459229787190755
 10
2.115196545918782
 20
5.497545878092447
 10
2.501668930053711
 20
5.535768508911133
 10
2.888261159261067
 20
5.572729958428277
 10
2.930617650349935
 20
5.576779683430989
 10
2.946968502468533
 20
5.593478732638888
 10
2.950835757785373
 20
5.636701371934678
 10
2.96461296081543
 20
5.790686925252278
 10
2.966439988878038
 20
5.792207294040256
 10
2.814026302761502
 20
5.81415918138292
 10
2.288015577528212
 20
5.889919069078233
 10
1.761741214328342
 20
5.963860617743598
 10
1.235946416854858
 20
6.041075600518121
 10
1.210509644614326
 20
6.044810824924045
 10
1.174351029925876
 20
6.068563037448459
 10
1.167372041278415
 20
6.09063975016276
 10
1.093590497970581
 20
6.324033525254991
 10
1.024682548311022
 20
6.558968438042534
 10
0.954645037651062
 20
6.793542332119411
 10
0.951603717274136
 20
6.803728633456759
 10
0.9506364795896741
 20
6.814534081353081
 10
0.9464380741119385
 20
6.837372038099501
 10
1.650529172685411
 20
6.575722376505533
 10
2.344499799940321
 20
6.317833582560221
 10
3.038546456231011
 20
6.059916390313043
 10
3.094827863905165
 20
6.144254684448242
 10
3.144414477878147
 20
6.230418099297417
 10
3.205779605441623
 20
6.307163450453016
 10
3.266456604003906
 20
6.383048163519965
 10
3.339029100206163
 20
6.449421352810329
 10
3.406383726331923
 20
6.519966973198784
 10
3.413275612725152
 20
6.514616012573242
 10
3.420167711046007
 20
6.509265263875325
 10
3.427059809366862
 20
6.503914515177408
 10
3.400774849785698
 20
6.44892226325141
 10
3.374384138319227
 20
6.393980450100369
 10
3.348222732543945
 20
6.338929494222005
 10
3.208246654934353
 20
6.044380187988281
 10
3.21483039855957
 20
5.737583796183268
 10
3.284766515096028
 20
5.430172814263238
 10
3.323667738172743
 20
5.259179645114474
 10
3.462093989054362
 20
5.171839184231228
 10
3.613343132866753
 20
5.107328202989366
 10
3.818717320760091
 20
5.019732157389322
 10
3.882549073961046
 20
4.803612603081597
 10
3.75190544128418
 20
4.622650146484375
 10
3.731285095214844
 20
4.594087388780381
 10
3.699863857693142
 20
4.564186096191406
 10
3.667742199367947
 20
4.555152893066406
 10
3.616456561618381
 20
4.540730794270833
 10
3.607683393690321
 20
4.507318708631727
 10
3.600474039713542
 20
4.46537102593316
 10
3.567216661241319
 20
4.271859486897786
 10
3.531108644273546
 20
4.078807830810547
 10
3.500522825453016
 20
3.884881761338975
 10
3.489708582560221
 20
3.816316392686632
 10
3.461333380805121
 20
3.789390563964844
 10
3.390666961669922
 20
3.799141777886284
 10
3.267435073852539
 20
3.816146850585938
 10
3.143420961168077
 20
3.82748285929362
 10
3.009296629163954
 20
3.842352125379774
 10
3.019911024305555
 20
3.875419192843967
 10
3.026653925577799
 20
3.898477766248915
 10
3.034671359592014
 20
3.92108408610026
 10
3.116511874728733
 20
4.151854197184244
 10
3.192968792385525
 20
4.384772406684028
 10
3.283314598931206
 20
4.612169901529947
 10
3.319218741522895
 20
4.702539655897352
 10
3.305618498060438
 20
4.763854132758246
 10
3.230798933241102
 20
4.827436235215928
 10
2.986759609646267
 20
4.547663794623481
 10
2.742600758870442
 20
4.267754448784722
 10
2.487965053982205
 20
3.975833892822266
 10
2.35388077629937
 20
4.103305816650391
 10
2.222969267103407
 20
4.227761586507161
 10
2.085132704840766
 20
4.358801099989149
 10
2.11743524339464
 20
4.384012010362413
 10
2.138336499532064
 20
4.400886959499783
 10
2.159810596042209
 20
4.416998969184028
 10
2.441063033209907
 20
4.628025902642144
 10
2.721495734320746
 20
4.840167151557075
 10
3.004584206475152
 20
5.048703299628364
 10
3.052497016059028
 20
5.083998150295681
 10
3.06751463148329
 20
5.114071740044488
 10
3.035509745279948
 20
5.166194703843858
 10
3.018954594930013
 20
5.193156984117295
 10
3.009706709120008
 20
5.224606408013238
 10
2.994771745469835
 20
5.259620878431532
 10
2.56602414449056
 20
5.106821695963541
 10
2.14039495256212
 20
4.955133650037977
 10
1.705759843190511
 20
4.800236596001519
 10
1.594171947903103
 20
5.003487904866536
 10
1.483540693918864
 20
5.204996956719293
 10
1.36504602432251
 20
5.42082871331109
 97
        0
 97
        0
 75
     2
 76
     1
 98
        0
  0
SPLINE
  5
50
330
41
100
AcDbEntity
  8
Layer 1
370
     0
100
AcDbSpline
210
0.0
220
0.0
230
1.0
 70
    11
 71
     3
 72
    44
 73
    40
 74
     0
 42
0.0000000001
 43
0.0000000001
 12
1.0
 22
0.0
 32
0.0
 13
1.0
 23
0.0
 33
0.0
 40
0.0
 40
0.0
 40
0.0
 40
0.0
 40
1.0
 40
1.0
 40
1.0
 40
2.0
 40
2.0
 40
2.0
 40
3.0
 40
3.0
 40
3.0
 40
4.0
 40
4.0
 40
4.0
 40
5.0
 40
5.0
 40
5.0
 40
6.0
 40
6.0
 40
6.0
 40
7.0
 40
7.0
 40
7.0
 40
8.0
 40
8.0
 40
8.0
 40
9.0
 40
9.0
 40
9.0
 40
10.0
 40
10.0
 40
10.0
 40
11.0
 40
11.0
 40
11.0
 40
12.0
 40
12.0
 40
12.0
 40
13.0
 40
13.0
 40
13.0
 40
13.0
 10
4.824836307101779
 20
4.265512254503038
 30
0.0
 10
4.767429775661892
 20
4.228646596272786
 30
0.0
 10
4.708440568712022
 20
4.192984263102213
 30
0.0
 10
4.651910146077474
 20
4.153775956895617
 30
0.0
 10
4.604509565565321
 20
4.120900472005208
 30
0.0
 10
4.561314053005642
 20
4.081958770751953
 30
0.0
 10
4.513882531060113
 20
4.049134148491754
 30
0.0
 10
4.43070814344618
 20
3.991574605305989
 30
0.0
 10
4.44419182671441
 20
3.908685896131727
 30
0.0
 10
4.459570990668403
 20
3.829906039767795
 30
0.0
 10
4.463342030843099
 20
3.810587565104167
 30
0.0
 10
4.506370968288845
 20
3.798932817247179
 30
0.0
 10
4.544005923800998
 20
3.776065826416016
 30
0.0
 10
4.535032908121744
 20
3.650160895453559
 30
0.0
 10
4.578205956353082
 20
3.507754855685764
 30
0.0
 10
4.486637963189019
 20
3.371353997124566
 30
0.0
 10
4.419567532009548
 20
3.271444956461588
 30
0.0
 10
4.378558688693576
 20
3.1540404425727
 30
0.0
 10
4.319369633992513
 20
3.03076171875
 30
0.0
 10
4.297051535712348
 20
3.076799180772569
 30
0.0
 10
4.280270470513238
 20
3.110680898030599
 30
0.0
 10
4.264130486382379
 20
3.14486567179362
 30
0.0
 10
4.233559926350911
 20
3.209614223904079
 30
0.0
 10
4.212824503580729
 20
3.281525505913628
 30
0.0
 10
4.171128378974067
 20
3.338002522786458
 30
0.0
 10
4.068928612603082
 20
3.476431104871962
 30
0.0
 10
4.094542185465494
 20
3.630546569824219
 30
0.0
 10
4.096219804551867
 20
3.782399071587456
 30
0.0
 10
4.188510470920138
 20
3.81236097547743
 30
0.0
 10
4.20954852634006
 20
3.959239112006293
 30
0.0
 10
4.129962497287326
 20
4.027887132432726
 30
0.0
 10
4.030621210734049
 20
4.113574981689453
 30
0.0
 10
3.926214218139648
 20
4.193390316433376
 30
0.0
 10
3.831883960300022
 20
4.269384596082899
 30
0.0
 10
3.992637422349718
 20
4.597886403401692
 30
0.0
 10
4.155272165934244
 20
4.930232577853732
 30
0.0
 10
4.320590337117513
 20
5.268062167697482
 30
0.0
 10
4.488681369357638
 20
4.933860354953342
 30
0.0
 10
4.655017428927951
 20
4.603148566351996
 30
0.0
 10
4.824836307101779
 20
4.265512254503038
 30
0.0
  0
HATCH
  5
51
330
41
100
AcDbEntity
  8
Layer 1
 62
     7
420
 16777215
100
AcDbHatch
 10
0.0
 20
0.0
 30
0.0
210
0.0
220
0.0
230
1.0
  2
SOLID
 70
     1
 71
     0
 91
        1
 92
        1
 93
        1
 72
     4
 94
        3
 73
     0
 74
     1
 95
       44
 96
       40
 40
0.0
 40
0.0
 40
0.0
 40
0.0
 40
1.0
 40
1.0
 40
1.0
 40
2.0
 40
2.0
 40
2.0
 40
3.0
 40
3.0
 40
3.0
 40
4.0
 40
4.0
 40
4.0
 40
5.0
 40
5.0
 40
5.0
 40
6.0
 40
6.0
 40
6.0
 40
7.0
 40
7.0
 40
7.0
 40
8.0
 40
8.0
 40
8.0
 40
9.0
 40
9.0
 40
9.0
 40
10.0
 40
10.0
 40
10.0
 40
11.0
 40
11.0
 40
11.0
 40
12.0
 40
12.0
 40
12.0
 40
13.0
 40
13.0
 40
13.0
 40
13.0
 10
4.824836307101779
 20
4.265512254503038
 10
4.767429775661892
 20
4.228646596272786
 10
4.708440568712022
 20
4.192984263102213
 10
4.651910146077474
 20
4.153775956895617
 10
4.604509565565321
 20
4.120900472005208
 10
4.561314053005642
 20
4.081958770751953
 10
4.513882531060113
 20
4.049134148491754
 10
4.43070814344618
 20
3.991574605305989
 10
4.44419182671441
 20
3.908685896131727
 10
4.459570990668403
 20
3.829906039767795
 10
4.463342030843099
 20
3.810587565104167
 10
4.506370968288845
 20
3.798932817247179
 10
4.544005923800998
 20
3.776065826416016
 10
4.535032908121744
 20
3.650160895453559
 10
4.578205956353082
 20
3.507754855685764
 10
4.486637963189019
 20
3.371353997124566
 10
4.419567532009548
 20
3.271444956461588
 10
4.378558688693576
 20
3.1540404425727
 10
4.319369633992513
 20
3.03076171875
 10
4.297051535712348
 20
3.076799180772569
 10
4.280270470513238
 20
3.110680898030599
 10
4.264130486382379
 20
3.14486567179362
 10
4.233559926350911
 20
3.209614223904079
 10
4.212824503580729
 20
3.281525505913628
 10
4.171128378974067
 20
3.338002522786458
 10
4.068928612603082
 20
3.476431104871962
 10
4.094542185465494
 20
3.630546569824219
 10
4.096219804551867
 20
3.782399071587456
 10
4.188510470920138
 20
3.81236097547743
 10
4.20954852634006
 20
3.959239112006293
 10
4.129962497287326
 20
4.027887132432726
 10
4.030621210734049
 20
4.113574981689453
 10
3.926214218139648
 20
4.193390316433376
 10
3.831883960300022
 20
4.269384596082899
 10
3.992637422349718
 20
4.597886403401692
 10
4.155272165934244
 20
4.930232577853732
 10
4.320590337117513
 20
5.268062167697482
 10
4.488681369357638
 20
4.933860354953342
 10
4.655017428927951
 20
4.603148566351996
 10
4.824836307101779
 20
4.265512254503038
 97
        0
 97
        0
 75
     2
 76
     1
 98
        0
  0
SPLINE
  5
52
330
41
100
AcDbEntity
  8
Layer 1
370
     0
100
AcDbSpline
210
0.0
220
0.0
230
1.0
 70
    11
 71
     3
 72
    35
 73
    31
 74
     0
 42
0.0000000001
 43
0.0000000001
 12
1.0
 22
0.0
 32
0.0
 13
1.0
 23
0.0
 33
0.0
 40
0.0
 40
0.0
 40
0.0
 40
0.0
 40
1.0
 40
1.0
 40
1.0
 40
2.0
 40
2.0
 40
2.0
 40
3.0
 40
3.0
 40
3.0
 40
4.0
 40
4.0
 40
4.0
 40
5.0
 40
5.0
 40
5.0
 40
6.0
 40
6.0
 40
6.0
 40
7.0
 40
7.0
 40
7.0
 40
8.0
 40
8.0
 40
8.0
 40
9.0
 40
9.0
 40
9.0
 40
10.0
 40
10.0
 40
10.0
 40
10.0
 10
4.824575212266709
 20
6.281748453776041
 30
0.0
 10
4.92414813571506
 20
6.131802241007486
 30
0.0
 10
5.024151272243923
 20
5.982139587402344
 30
0.0
 10
5.123146480984158
 20
5.831813388400607
 30
0.0
 10
5.192796919080946
 20
5.726047939724392
 30
0.0
 10
5.261076609293619
 20
5.619379891289605
 30
0.0
 10
5.336114247639974
 20
5.503635406494141
 30
0.0
 10
4.656419118245442
 20
5.503635406494141
 30
0.0
 10
3.987941318088108
 20
5.503635406494141
 30
0.0
 10
3.314885669284397
 20
5.503635406494141
 30
0.0
 10
3.319505055745442
 20
5.516057120429145
 30
0.0
 10
3.321944766574436
 20
5.529270807902018
 30
0.0
 10
3.328671137491862
 20
5.539727105034722
 30
0.0
 10
3.483737733629015
 20
5.780778672960069
 30
0.0
 10
3.639231363932292
 20
6.021556006537543
 30
0.0
 10
3.794898139105903
 20
6.262220806545681
 30
0.0
 10
3.799790700276692
 20
6.269784715440538
 30
0.0
 10
3.807363722059462
 20
6.275614844428168
 30
0.0
 10
3.813687218560113
 20
6.282253265380859
 30
0.0
 10
3.816919326782227
 20
6.279853185017903
 30
0.0
 10
3.820151646931966
 20
6.2774535285102
 30
0.0
 10
3.823384179009331
 20
6.275054295857747
 30
0.0
 10
3.986775928073459
 20
6.022176530626084
 30
0.0
 10
4.150167465209961
 20
5.769298977322048
 30
0.0
 10
4.31913948059082
 20
5.507784949408637
 30
0.0
 10
4.488957299126519
 20
5.76996972825792
 30
0.0
 10
4.652774386935763
 20
6.022889455159505
 30
0.0
 10
4.81659189860026
 20
6.275809393988715
 30
0.0
 10
4.819251590304904
 20
6.277791129218207
 30
0.0
 10
4.821912553575303
 20
6.27977074517144
 30
0.0
 10
4.824575212266709
 20
6.281748453776041
 30
0.0
  0
HATCH
  5
53
330
41
100
AcDbEntity
  8
Layer 1
 62
     7
420
 16777215
100
AcDbHatch
 10
0.0
 20
0.0
 30
0.0
210
0.0
220
0.0
230
1.0
  2
SOLID
 70
     1
 71
     0
 91
        1
 92
        1
 93
        1
 72
     4
 94
        3
 73
     0
 74
     1
 95
       35
 96
       31
 40
0.0
 40
0.0
 40
0.0
 40
0.0
 40
1.0
 40
1.0
 40
1.0
 40
2.0
 40
2.0
 40
2.0
 40
3.0
 40
3.0
 40
3.0
 40
4.0
 40
4.0
 40
4.0
 40
5.0
 40
5.0
 40
5.0
 40
6.0
 40
6.0
 40
6.0
 40
7.0
 40
7.0
 40
7.0
 40
8.0
 40
8.0
 40
8.0
 40
9.0
 40
9.0
 40
9.0
 40
10.0
 40
10.0
 40
10.0
 40
10.0
 10
4.824575212266709
 20
6.281748453776041
 10
4.92414813571506
 20
6.131802241007486
 10
5.024151272243923
 20
5.982139587402344
 10
5.123146480984158
 20
5.831813388400607
 10
5.192796919080946
 20
5.726047939724392
 10
5.261076609293619
 20
5.619379891289605
 10
5.336114247639974
 20
5.503635406494141
 10
4.656419118245442
 20
5.503635406494141
 10
3.987941318088108
 20
5.503635406494141
 10
3.314885669284397
 20
5.503635406494141
 10
3.319505055745442
 20
5.516057120429145
 10
3.321944766574436
 20
5.529270807902018
 10
3.328671137491862
 20
5.539727105034722
 10
3.483737733629015
 20
5.780778672960069
 10
3.639231363932292
 20
6.021556006537543
 10
3.794898139105903
 20
6.262220806545681
 10
3.799790700276692
 20
6.269784715440538
 10
3.807363722059462
 20
6.275614844428168
 10
3.813687218560113
 20
6.282253265380859
 10
3.816919326782227
 20
6.279853185017903
 10
3.820151646931966
 20
6.2774535285102
 10
3.823384179009331
 20
6.275054295857747
 10
3.986775928073459
 20
6.022176530626084
 10
4.150167465209961
 20
5.769298977322048
 10
4.31913948059082
 20
5.507784949408637
 10
4.488957299126519
 20
5.76996972825792
 10
4.652774386935763
 20
6.022889455159505
 10
4.81659189860026
 20
6.275809393988715
 10
4.819251590304904
 20
6.277791129218207
 10
4.821912553575303
 20
6.27977074517144
 10
4.824575212266709
 20
6.281748453776041
 97
        0
 97
        0
 75
     2
 76
     1
 98
        0
  0
SPLINE
  5
54
330
41
100
AcDbEntity
  8
Layer 1
370
     0
100
AcDbSpline
210
0.0
220
0.0
230
1.0
 70
    11
 71
     3
 72
    32
 73
    28
 74
     0
 42
0.0000000001
 43
0.0000000001
 12
1.0
 22
0.0
 32
0.0
 13
1.0
 23
0.0
 33
0.0
 40
0.0
 40
0.0
 40
0.0
 40
0.0
 40
1.0
 40
1.0
 40
1.0
 40
2.0
 40
2.0
 40
2.0
 40
3.0
 40
3.0
 40
3.0
 40
4.0
 40
4.0
 40
4.0
 40
5.0
 40
5.0
 40
5.0
 40
6.0
 40
6.0
 40
6.0
 40
7.0
 40
7.0
 40
7.0
 40
8.0
 40
8.0
 40
8.0
 40
9.0
 40
9.0
 40
9.0
 40
9.0
 10
3.813687218560113
 20
6.282253265380859
 30
0.0
 10
3.922920227050781
 20
6.458900451660156
 30
0.0
 10
4.031832165188259
 20
6.635747273763021
 30
0.0
 10
4.141520182291666
 20
6.812111536661783
 30
0.0
 10
4.197358025444879
 20
6.901891708374023
 30
0.0
 10
4.254591412014431
 20
6.990803718566895
 30
0.0
 10
4.314741558498806
 20
7.085705439249674
 30
0.0
 10
4.328231811523438
 20
7.070935673183865
 30
0.0
 10
4.33860248989529
 20
7.062455813090006
 30
0.0
 10
4.345401763916016
 20
7.051715321011013
 30
0.0
 10
4.499815622965494
 20
6.80779923333062
 30
0.0
 10
4.65390862358941
 20
6.563679801093207
 30
0.0
 10
4.807715521918403
 20
6.319380230373806
 30
0.0
 10
4.814966837565104
 20
6.307863023546006
 30
0.0
 10
4.819021436903212
 20
6.294333351982964
 30
0.0
 10
4.824569702148438
 20
6.281744639078775
 30
0.0
 10
4.821912553575303
 20
6.27977074517144
 30
0.0
 10
4.819251590304904
 20
6.277791129218207
 30
0.0
 10
4.81659189860026
 20
6.275809393988715
 30
0.0
 10
4.676344977484809
 20
6.277175691392686
 30
0.0
 10
4.536095089382595
 20
6.279843224419487
 30
0.0
 10
4.395850711398654
 20
6.279590394761827
 30
0.0
 10
4.205026626586914
 20
6.279246436225043
 30
0.0
 10
4.014206144544813
 20
6.276672151353623
 30
0.0
 10
3.823384179009331
 20
6.275054295857747
 30
0.0
 10
3.820151646931966
 20
6.2774535285102
 30
0.0
 10
3.816919326782227
 20
6.279853185017903
 30
0.0
 10
3.813687218560113
 20
6.282253265380859
 30
0.0
  0
HATCH
  5
55
330
41
100
AcDbEntity
  8
Layer 1
 62
     7
420
 16777215
100
AcDbHatch
 10
0.0
 20
0.0
 30
0.0
210
0.0
220
0.0
230
1.0
  2
SOLID
 70
     1
 71
     0
 91
        1
 92
        1
 93
        1
 72
     4
 94
        3
 73
     0
 74
     1
 95
       32
 96
       28
 40
0.0
 40
0.0
 40
0.0
 40
0.0
 40
1.0
 40
1.0
 40
1.0
 40
2.0
 40
2.0
 40
2.0
 40
3.0
 40
3.0
 40
3.0
 40
4.0
 40
4.0
 40
4.0
 40
5.0
 40
5.0
 40
5.0
 40
6.0
 40
6.0
 40
6.0
 40
7.0
 40
7.0
 40
7.0
 40
8.0
 40
8.0
 40
8.0
 40
9.0
 40
9.0
 40
9.0
 40
9.0
 10
3.813687218560113
 20
6.282253265380859
 10
3.922920227050781
 20
6.458900451660156
 10
4.031832165188259
 20
6.635747273763021
 10
4.141520182291666
 20
6.812111536661783
 10
4.197358025444879
 20
6.901891708374023
 10
4.254591412014431
 20
6.990803718566895
 10
4.314741558498806
 20
7.085705439249674
 10
4.328231811523438
 20
7.070935673183865
 10
4.33860248989529
 20
7.062455813090006
 10
4.345401763916016
 20
7.051715321011013
 10
4.499815622965494
 20
6.80779923333062
 10
4.65390862358941
 20
6.563679801093207
 10
4.807715521918403
 20
6.319380230373806
 10
4.814966837565104
 20
6.307863023546006
 10
4.819021436903212
 20
6.294333351982964
 10
4.824569702148438
 20
6.281744639078775
 10
4.821912553575303
 20
6.27977074517144
 10
4.819251590304904
 20
6.277791129218207
 10
4.81659189860026
 20
6.275809393988715
 10
4.676344977484809
 20
6.277175691392686
 10
4.536095089382595
 20
6.279843224419487
 10
4.395850711398654
 20
6.279590394761827
 10
4.205026626586914
 20
6.279246436225043
 10
4.014206144544813
 20
6.276672151353623
 10
3.823384179009331
 20
6.275054295857747
 10
3.820151646931966
 20
6.2774535285102
 10
3.816919326782227
 20
6.279853185017903
 10
3.813687218560113
 20
6.282253265380859
 97
        0
 97
        0
 75
     2
 76
     1
 98
        0
  0
SPLINE
  5
56
330
41
100
AcDbEntity
  8
Layer 1
370
     0
100
AcDbSpline
210
0.0
220
0.0
230
1.0
 70
    11
 71
     3
 72
    62
 73
    58
 74
     0
 42
0.0000000001
 43
0.0000000001
 12
1.0
 22
0.0
 32
0.0
 13
1.0
 23
0.0
 33
0.0
 40
0.0
 40
0.0
 40
0.0
 40
0.0
 40
1.0
 40
1.0
 40
1.0
 40
2.0
 40
2.0
 40
2.0
 40
3.0
 40
3.0
 40
3.0
 40
4.0
 40
4.0
 40
4.0
 40
5.0
 40
5.0
 40
5.0
 40
6.0
 40
6.0
 40
6.0
 40
7.0
 40
7.0
 40
7.0
 40
8.0
 40
8.0
 40
8.0
 40
9.0
 40
9.0
 40
9.0
 40
10.0
 40
10.0
 40
10.0
 40
11.0
 40
11.0
 40
11.0
 40
12.0
 40
12.0
 40
12.0
 40
13.0
 40
13.0
 40
13.0
 40
14.0
 40
14.0
 40
14.0
 40
15.0
 40
15.0
 40
15.0
 40
16.0
 40
16.0
 40
16.0
 40
17.0
 40
17.0
 40
17.0
 40
18.0
 40
18.0
 40
18.0
 40
19.0
 40
19.0
 40
19.0
 40
19.0
 10
3.822835286458333
 20
3.512946658664279
 30
0.0
 10
3.866079754299587
 20
3.487355550130208
 30
0.0
 10
3.906414455837673
 20
3.468548668755425
 30
0.0
 10
3.94070922003852
 20
3.441953447129991
 30
0.0
 10
3.987104415893555
 20
3.405975341796875
 30
0.0
 10
3.991157743665907
 20
3.357227749294704
 30
0.0
 10
3.944863425360785
 20
3.325431399875217
 30
0.0
 10
3.860160827636719
 20
3.267255147298177
 30
0.0
 10
3.769496493869358
 20
3.217758178710938
 30
0.0
 10
3.675364600287543
 20
3.161056094699436
 30
0.0
 10
3.667670991685655
 20
3.18377685546875
 30
0.0
 10
3.662906222873264
 20
3.191637674967448
 30
0.0
 10
3.662605497572157
 20
3.199666765001085
 30
0.0
 10
3.65796258714464
 20
3.323607126871745
 30
0.0
 10
3.656665378146701
 20
3.332127041286892
 30
0.0
 10
3.532044092814127
 20
3.341625637478298
 30
0.0
 10
3.301513459947374
 20
3.359196556939019
 30
0.0
 10
3.308456420898438
 20
3.335336473253038
 30
0.0
 10
3.374102486504448
 20
3.155532836914062
 30
0.0
 10
3.387147267659505
 20
3.119802686903212
 30
0.0
 10
3.396625942654079
 20
3.082771301269531
 30
0.0
 10
3.413074493408203
 20
3.028896331787109
 30
0.0
 10
3.379299587673611
 20
3.046911451551649
 30
0.0
 10
3.3600099351671
 20
3.053483751085069
 30
0.0
 10
3.345328436957465
 20
3.065627204047309
 30
0.0
 10
3.240361531575521
 20
3.152444203694661
 30
0.0
 10
3.136041853162977
 20
3.240052964952257
 30
0.0
 10
3.032322777642144
 20
3.328357272677951
 30
0.0
 10
3.01674313015408
 20
3.341620975070529
 30
0.0
 10
3.003797107272678
 20
3.358772277832031
 30
0.0
 10
2.992319107055664
 20
3.375923156738281
 30
0.0
 10
2.939976586235894
 20
3.454137166341146
 30
0.0
 10
2.95911004808214
 20
3.506371815999349
 30
0.0
 10
3.05368783738878
 20
3.513147989908854
 30
0.0
 10
3.207921981811523
 20
3.52419916788737
 30
0.0
 10
3.363032235039605
 20
3.526998307969835
 30
0.0
 10
3.517714182535807
 20
3.525788201226128
 30
0.0
 10
3.576184378729926
 20
3.525330437554253
 30
0.0
 10
3.600903617011176
 20
3.544213612874349
 30
0.0
 10
3.622595045301649
 20
3.597194671630859
 30
0.0
 10
3.662650850084093
 20
3.695030212402344
 30
0.0
 10
3.712382210625542
 20
3.789070129394531
 30
0.0
 10
3.761393229166667
 20
3.88296381632487
 30
0.0
 10
3.774851693047417
 20
3.908746931287977
 30
0.0
 10
3.797547446356879
 20
3.931457095675998
 30
0.0
 10
3.820403205023871
 20
3.950219048394097
 30
0.0
 10
3.866622077094184
 20
3.9881591796875
 30
0.0
 10
3.919076283772786
 20
4.003185272216797
 30
0.0
 10
3.973914040459527
 20
3.968240949842665
 30
0.0
 10
4.030313279893663
 20
3.932301839192708
 30
0.0
 10
4.036545647515191
 20
3.876998901367188
 30
0.0
 10
4.013684590657552
 20
3.821660359700521
 30
0.0
 10
3.989171346028646
 20
3.76232189602322
 30
0.0
 10
3.95813963148329
 20
3.705084906684028
 30
0.0
 10
3.924469629923502
 20
3.650301191541883
 30
0.0
 10
3.89567396375868
 20
3.603448232014974
 30
0.0
 10
3.85912111070421
 20
3.56136237250434
 30
0.0
 10
3.822835286458333
 20
3.512946658664279
 30
0.0
  0
HATCH
  5
57
330
41
100
AcDbEntity
  8
Layer 1
 62
     7
420
 16777215
100
AcDbHatch
 10
0.0
 20
0.0
 30
0.0
210
0.0
220
0.0
230
1.0
  2
SOLID
 70
     1
 71
     0
 91
        1
 92
        1
 93
        1
 72
     4
 94
        3
 73
     0
 74
     1
 95
       62
 96
       58
 40
0.0
 40
0.0
 40
0.0
 40
0.0
 40
1.0
 40
1.0
 40
1.0
 40
2.0
 40
2.0
 40
2.0
 40
3.0
 40
3.0
 40
3.0
 40
4.0
 40
4.0
 40
4.0
 40
5.0
 40
5.0
 40
5.0
 40
6.0
 40
6.0
 40
6.0
 40
7.0
 40
7.0
 40
7.0
 40
8.0
 40
8.0
 40
8.0
 40
9.0
 40
9.0
 40
9.0
 40
10.0
 40
10.0
 40
10.0
 40
11.0
 40
11.0
 40
11.0
 40
12.0
 40
12.0
 40
12.0
 40
13.0
 40
13.0
 40
13.0
 40
14.0
 40
14.0
 40
14.0
 40
15.0
 40
15.0
 40
15.0
 40
16.0
 40
16.0
 40
16.0
 40
17.0
 40
17.0
 40
17.0
 40
18.0
 40
18.0
 40
18.0
 40
19.0
 40
19.0
 40
19.0
 40
19.0
 10
3.822835286458333
 20
3.512946658664279
 10
3.866079754299587
 20
3.487355550130208
 10
3.906414455837673
 20
3.468548668755425
 10
3.94070922003852
 20
3.441953447129991
 10
3.987104415893555
 20
3.405975341796875
 10
3.991157743665907
 20
3.357227749294704
 10
3.944863425360785
 20
3.325431399875217
 10
3.860160827636719
 20
3.267255147298177
 10
3.769496493869358
 20
3.217758178710938
 10
3.675364600287543
 20
3.161056094699436
 10
3.667670991685655
 20
3.18377685546875
 10
3.662906222873264
 20
3.191637674967448
 10
3.662605497572157
 20
3.199666765001085
 10
3.65796258714464
 20
3.323607126871745
 10
3.656665378146701
 20
3.332127041286892
 10
3.532044092814127
 20
3.341625637478298
 10
3.301513459947374
 20
3.359196556939019
 10
3.308456420898438
 20
3.335336473253038
 10
3.374102486504448
 20
3.155532836914062
 10
3.387147267659505
 20
3.119802686903212
 10
3.396625942654079
 20
3.082771301269531
 10
3.413074493408203
 20
3.028896331787109
 10
3.379299587673611
 20
3.046911451551649
 10
3.3600099351671
 20
3.053483751085069
 10
3.345328436957465
 20
3.065627204047309
 10
3.240361531575521
 20
3.152444203694661
 10
3.136041853162977
 20
3.240052964952257
 10
3.032322777642144
 20
3.328357272677951
 10
3.01674313015408
 20
3.341620975070529
 10
3.003797107272678
 20
3.358772277832031
 10
2.992319107055664
 20
3.375923156738281
 10
2.939976586235894
 20
3.454137166341146
 10
2.95911004808214
 20
3.506371815999349
 10
3.05368783738878
 20
3.513147989908854
 10
3.207921981811523
 20
3.52419916788737
 10
3.363032235039605
 20
3.526998307969835
 10
3.517714182535807
 20
3.525788201226128
 10
3.576184378729926
 20
3.525330437554253
 10
3.600903617011176
 20
3.544213612874349
 10
3.622595045301649
 20
3.597194671630859
 10
3.662650850084093
 20
3.695030212402344
 10
3.712382210625542
 20
3.789070129394531
 10
3.761393229166667
 20
3.88296381632487
 10
3.774851693047417
 20
3.908746931287977
 10
3.797547446356879
 20
3.931457095675998
 10
3.820403205023871
 20
3.950219048394097
 10
3.866622077094184
 20
3.9881591796875
 10
3.919076283772786
 20
4.003185272216797
 10
3.973914040459527
 20
3.968240949842665
 10
4.030313279893663
 20
3.932301839192708
 10
4.036545647515191
 20
3.876998901367188
 10
4.013684590657552
 20
3.821660359700521
 10
3.989171346028646
 20
3.76232189602322
 10
3.95813963148329
 20
3.705084906684028
 10
3.924469629923502
 20
3.650301191541883
 10
3.89567396375868
 20
3.603448232014974
 10
3.85912111070421
 20
3.56136237250434
 10
3.822835286458333
 20
3.512946658664279
 97
        0
 97
        0
 75
     2
 76
     1
 98
        0
  0
SPLINE
  5
58
330
41
100
AcDbEntity
  8
Layer 1
370
     0
100
AcDbSpline
210
0.0
220
0.0
230
1.0
 70
    11
 71
     3
 72
    62
 73
    58
 74
     0
 42
0.0000000001
 43
0.0000000001
 12
1.0
 22
0.0
 32
0.0
 13
1.0
 23
0.0
 33
0.0
 40
0.0
 40
0.0
 40
0.0
 40
0.0
 40
1.0
 40
1.0
 40
1.0
 40
2.0
 40
2.0
 40
2.0
 40
3.0
 40
3.0
 40
3.0
 40
4.0
 40
4.0
 40
4.0
 40
5.0
 40
5.0
 40
5.0
 40
6.0
 40
6.0
 40
6.0
 40
7.0
 40
7.0
 40
7.0
 40
8.0
 40
8.0
 40
8.0
 40
9.0
 40
9.0
 40
9.0
 40
10.0
 40
10.0
 40
10.0
 40
11.0
 40
11.0
 40
11.0
 40
12.0
 40
12.0
 40
12.0
 40
13.0
 40
13.0
 40
13.0
 40
14.0
 40
14.0
 40
14.0
 40
15.0
 40
15.0
 40
15.0
 40
16.0
 40
16.0
 40
16.0
 40
17.0
 40
17.0
 40
17.0
 40
18.0
 40
18.0
 40
18.0
 40
19.0
 40
19.0
 40
19.0
 40
19.0
 10
4.867798275417751
 20
3.5117064581977
 30
0.0
 10
4.823040432400173
 20
3.577445560031467
 30
0.0
 10
4.780371771918403
 20
3.63463634914822
 30
0.0
 10
4.74387953016493
 20
3.695528242323133
 30
0.0
 10
4.716888427734375
 20
3.740566253662109
 30
0.0
 10
4.687642415364583
 20
3.78861575656467
 30
0.0
 10
4.678843604193793
 20
3.838736640082465
 30
0.0
 10
4.672439575195312
 20
3.875216166178385
 30
0.0
 10
4.685940636528863
 20
3.932306501600477
 30
0.0
 10
4.712074703640408
 20
3.952855004204644
 30
0.0
 10
4.741750081380208
 20
3.976187811957465
 30
0.0
 10
4.806754642062717
 20
3.988334655761719
 30
0.0
 10
4.836144341362847
 20
3.971000247531467
 30
0.0
 10
4.891142103407118
 20
3.938562605116102
 30
0.0
 10
4.942042032877604
 20
3.88775889078776
 30
0.0
 10
4.975454118516709
 20
3.832905239529079
 30
0.0
 10
5.021790822347005
 20
3.756832546657986
 30
0.0
 10
5.054050021701388
 20
3.671316782633463
 30
0.0
 10
5.085143195258246
 20
3.587185753716363
 30
0.0
 10
5.1012085808648
 20
3.543716430664062
 30
0.0
 10
5.119333055284288
 20
3.526532491048177
 30
0.0
 10
5.168038686116536
 20
3.526821560329861
 30
0.0
 10
5.329773796929254
 20
3.527783711751302
 30
0.0
 10
5.491728040907118
 20
3.526218414306641
 30
0.0
 10
5.653227064344618
 20
3.518171098497179
 30
0.0
 10
5.736490885416666
 20
3.514022403293186
 30
0.0
 10
5.757876502143012
 20
3.468369377983941
 30
0.0
 10
5.707271575927734
 20
3.403294033474392
 30
0.0
 10
5.59147220187717
 20
3.254380967881944
 30
0.0
 10
5.439720577663845
 20
3.145093705919054
 30
0.0
 10
5.276750776502821
 20
3.04276614718967
 30
0.0
 10
5.301111433241102
 20
3.115857442220052
 30
0.0
 10
5.326609293619791
 20
3.188595241970486
 30
0.0
 10
5.349511464436849
 20
3.262140485975477
 30
0.0
 10
5.372180514865451
 20
3.334934658474392
 30
0.0
 10
5.358926984998915
 20
3.353788587782118
 30
0.0
 10
5.283317565917969
 20
3.359534369574653
 30
0.0
 10
5.255730523003472
 20
3.361630333794488
 30
0.0
 10
5.22781499226888
 20
3.361091613769531
 30
0.0
 10
5.200128767225477
 20
3.359901852077908
 30
0.0
 10
5.056741078694661
 20
3.353743659125434
 30
0.0
 10
5.051017337375217
 20
3.347789340549045
 30
0.0
 10
5.041982014973958
 20
3.204572041829427
 30
0.0
 10
5.041449652777778
 20
3.196133083767361
 30
0.0
 10
5.037493811713325
 20
3.187909868028429
 30
0.0
 10
5.029443105061849
 20
3.159549289279514
 30
0.0
 10
4.925658755832248
 20
3.22400877210829
 30
0.0
 10
4.825700547960069
 20
3.279491848415798
 30
0.0
 10
4.73370361328125
 20
3.345989227294922
 30
0.0
 10
4.687081231011285
 20
3.379688686794704
 30
0.0
 10
4.699041578504774
 20
3.428018358018663
 30
0.0
 10
4.749615987141927
 20
3.458478715684679
 30
0.0
 10
4.767332712809244
 20
3.469149271647135
 30
0.0
 10
4.786980523003472
 20
3.476671854654948
 30
0.0
 10
4.805937449137369
 20
3.485208723280165
 30
0.0
 10
4.822711520724826
 20
3.492763519287109
 30
0.0
 10
4.839751349555121
 20
3.499730004204644
 30
0.0
 10
4.867798275417751
 20
3.5117064581977
 30
0.0
  0
HATCH
  5
59
330
41
100
AcDbEntity
  8
Layer 1
 62
     7
420
 16777215
100
AcDbHatch
 10
0.0
 20
0.0
 30
0.0
210
0.0
220
0.0
230
1.0
  2
SOLID
 70
     1
 71
     0
 91
        1
 92
        1
 93
        1
 72
     4
 94
        3
 73
     0
 74
     1
 95
       62
 96
       58
 40
0.0
 40
0.0
 40
0.0
 40
0.0
 40
1.0
 40
1.0
 40
1.0
 40
2.0
 40
2.0
 40
2.0
 40
3.0
 40
3.0
 40
3.0
 40
4.0
 40
4.0
 40
4.0
 40
5.0
 40
5.0
 40
5.0
 40
6.0
 40
6.0
 40
6.0
 40
7.0
 40
7.0
 40
7.0
 40
8.0
 40
8.0
 40
8.0
 40
9.0
 40
9.0
 40
9.0
 40
10.0
 40
10.0
 40
10.0
 40
11.0
 40
11.0
 40
11.0
 40
12.0
 40
12.0
 40
12.0
 40
13.0
 40
13.0
 40
13.0
 40
14.0
 40
14.0
 40
14.0
 40
15.0
 40
15.0
 40
15.0
 40
16.0
 40
16.0
 40
16.0
 40
17.0
 40
17.0
 40
17.0
 40
18.0
 40
18.0
 40
18.0
 40
19.0
 40
19.0
 40
19.0
 40
19.0
 10
4.867798275417751
 20
3.5117064581977
 10
4.823040432400173
 20
3.577445560031467
 10
4.780371771918403
 20
3.63463634914822
 10
4.74387953016493
 20
3.695528242323133
 10
4.716888427734375
 20
3.740566253662109
 10
4.687642415364583
 20
3.78861575656467
 10
4.678843604193793
 20
3.838736640082465
 10
4.672439575195312
 20
3.875216166178385
 10
4.685940636528863
 20
3.932306501600477
 10
4.712074703640408
 20
3.952855004204644
 10
4.741750081380208
 20
3.976187811957465
 10
4.806754642062717
 20
3.988334655761719
 10
4.836144341362847
 20
3.971000247531467
 10
4.891142103407118
 20
3.938562605116102
 10
4.942042032877604
 20
3.88775889078776
 10
4.975454118516709
 20
3.832905239529079
 10
5.021790822347005
 20
3.756832546657986
 10
5.054050021701388
 20
3.671316782633463
 10
5.085143195258246
 20
3.587185753716363
 10
5.1012085808648
 20
3.543716430664062
 10
5.119333055284288
 20
3.526532491048177
 10
5.168038686116536
 20
3.526821560329861
 10
5.329773796929254
 20
3.527783711751302
 10
5.491728040907118
 20
3.526218414306641
 10
5.653227064344618
 20
3.518171098497179
 10
5.736490885416666
 20
3.514022403293186
 10
5.757876502143012
 20
3.468369377983941
 10
5.707271575927734
 20
3.403294033474392
 10
5.59147220187717
 20
3.254380967881944
 10
5.439720577663845
 20
3.145093705919054
 10
5.276750776502821
 20
3.04276614718967
 10
5.301111433241102
 20
3.115857442220052
 10
5.326609293619791
 20
3.188595241970486
 10
5.349511464436849
 20
3.262140485975477
 10
5.372180514865451
 20
3.334934658474392
 10
5.358926984998915
 20
3.353788587782118
 10
5.283317565917969
 20
3.359534369574653
 10
5.255730523003472
 20
3.361630333794488
 10
5.22781499226888
 20
3.361091613769531
 10
5.200128767225477
 20
3.359901852077908
 10
5.056741078694661
 20
3.353743659125434
 10
5.051017337375217
 20
3.347789340549045
 10
5.041982014973958
 20
3.204572041829427
 10
5.041449652777778
 20
3.196133083767361
 10
5.037493811713325
 20
3.187909868028429
 10
5.029443105061849
 20
3.159549289279514
 10
4.925658755832248
 20
3.22400877210829
 10
4.825700547960069
 20
3.279491848415798
 10
4.73370361328125
 20
3.345989227294922
 10
4.687081231011285
 20
3.379688686794704
 10
4.699041578504774
 20
3.428018358018663
 10
4.749615987141927
 20
3.458478715684679
 10
4.767332712809244
 20
3.469149271647135
 10
4.786980523003472
 20
3.476671854654948
 10
4.805937449137369
 20
3.485208723280165
 10
4.822711520724826
 20
3.492763519287109
 10
4.839751349555121
 20
3.499730004204644
 10
4.867798275417751
 20
3.5117064581977
 97
        0
 97
        0
 75
     2
 76
     1
 98
        0
  0
SPLINE
  5
5A
330
41
100
AcDbEntity
  8
Layer 1
370
     0
100
AcDbSpline
210
0.0
220
0.0
230
1.0
 70
    11
 71
     3
 72
    17
 73
    13
 74
     0
 42
0.0000000001
 43
0.0000000001
 12
1.0
 22
0.0
 32
0.0
 13
1.0
 23
0.0
 33
0.0
 40
0.0
 40
0.0
 40
0.0
 40
0.0
 40
1.0
 40
1.0
 40
1.0
 40
2.0
 40
2.0
 40
2.0
 40
3.0
 40
3.0
 40
3.0
 40
4.0
 40
4.0
 40
4.0
 40
4.0
 10
3.823384179009331
 20
6.275054295857747
 30
0.0
 10
4.014206144544813
 20
6.276672151353623
 30
0.0
 10
4.205026626586914
 20
6.279246436225043
 30
0.0
 10
4.395850711398654
 20
6.279590394761827
 30
0.0
 10
4.536095089382595
 20
6.279843224419487
 30
0.0
 10
4.676344977484809
 20
6.277175691392686
 30
0.0
 10
4.81659189860026
 20
6.275809393988715
 30
0.0
 10
4.652774386935763
 20
6.022889455159505
 30
0.0
 10
4.488957299126519
 20
5.76996972825792
 30
0.0
 10
4.31913948059082
 20
5.507784949408637
 30
0.0
 10
4.150167465209961
 20
5.769298977322048
 30
0.0
 10
3.986775928073459
 20
6.022176530626084
 30
0.0
 10
3.823384179009331
 20
6.275054295857747
 30
0.0
  0
ENDBLK
  5
44
330
41
100
AcDbEntity
  8
0
100
AcDbBlockEnd
  0
ENDSEC
  0
SECTION
  2
ENTITIES
  0
INSERT
  5
42
330
1F
100
AcDbEntity
  8
Layer 1
100
AcDbBlockReference
  2
block 2
 10
0.0
 20
0.0
 30
0.0
  0
ENDSEC
  0
SECTION
  2
OBJECTS
  0
DICTIONARY
  5
C
330
0
100
AcDbDictionary
281
     1
  3
ACAD_GROUP
350
D
  3
ACAD_LAYOUT
350
1A
  3
ACAD_MATERIAL
350
3B
  3
ACAD_MLEADERSTYLE
350
5C
  3
ACAD_MLINESTYLE
350
17
  3
ACAD_PLOTSETTINGS
350
19
  3
ACAD_PLOTSTYLENAME
350
E
  3
ACAD_TABLESTYLE
350
5B
  3
ACAD_VISUALSTYLE
350
2A
  0
SUN
  5
3F
330
29
100
AcDbSun
 90
        1
290
     0
 63
     7
421
 16777215
 40
1.0
291
     1
 91
  2455826
 92
 54000000
292
     0
 70
     2
 71
   256
280
     1
  0
DICTIONARY
  5
D
102
{ACAD_REACTORS
330
C
102
}
330
C
100
AcDbDictionary
281
     1
  0
DICTIONARY
  5
1A
102
{ACAD_REACTORS
330
C
102
}
330
C
100
AcDbDictionary
281
     1
  3
Layout1
350
1E
  3
Layout2
350
26
  3
Model
350
22
  0
DICTIONARY
  5
3B
102
{ACAD_REACTORS
330
C
102
}
330
C
100
AcDbDictionary
281
     1
  3
ByBlock
350
3D
  3
ByLayer
350
3C
  3
Global
350
3E
  0
DICTIONARY
  5
5C
102
{ACAD_REACTORS
330
C
102
}
330
C
100
AcDbDictionary
281
     1
  0
DICTIONARY
  5
17
102
{ACAD_REACTORS
330
C
102
}
330
C
100
AcDbDictionary
281
     1
  3
Standard
350
18
  0
DICTIONARY
  5
19
102
{ACAD_REACTORS
330
C
102
}
330
C
100
AcDbDictionary
281
     1
  0
ACDBDICTIONARYWDFLT
  5
E
102
{ACAD_REACTORS
330
C
102
}
330
C
100
AcDbDictionary
281
     1
  3
Normal
350
F
100
AcDbDictionaryWithDefault
340
F
  0
DICTIONARY
  5
5B
102
{ACAD_REACTORS
330
C
102
}
330
C
100
AcDbDictionary
281
     1
  0
DICTIONARY
  5
2A
102
{ACAD_REACTORS
330
C
102
}
330
C
100
AcDbDictionary
281
     1
  3
2dWireframe
350
2F
  3
3D Hidden
350
31
  3
3dWireframe
350
30
  3
Basic
350
32
  3
Brighten
350
36
  3
ColorChange
350
3A
  3
Conceptual
350
34
  3
Dim
350
35
  3
Facepattern
350
39
  3
Flat
350
2B
  3
FlatWithEdges
350
2C
  3
Gouraud
350
2D
  3
GouraudWithEdges
350
2E
  3
Linepattern
350
38
  3
Realistic
350
33
  3
Thicken
350
37
  0
LAYOUT
  5
1E
102
{ACAD_REACTORS
330
1A
102
}
330
1A
100
AcDbPlotSettings
  1

  2
none_device
  4

  6

 40
0.0
 41
0.0
 42
0.0
 43
0.0
 44
0.0
 45
0.0
 46
0.0
 47
0.0
 48
0.0
 49
0.0
140
0.0
141
0.0
142
1.0
143
1.0
 70
   688
 72
     0
 73
     0
 74
     5
  7

 75
    16
 76
     0
 77
     2
 78
   300
147
1.0
148
0.0
149
0.0
100
AcDbLayout
  1
Layout1
 70
     1
 71
     1
 10
0.0
 20
0.0
 11
12.0
 21
9.0
 12
0.0
 22
0.0
 32
0.0
 14
1.000000000000000E+20
 24
1.000000000000000E+20
 34
1.000000000000000E+20
 15
-1.000000000000000E+20
 25
-1.000000000000000E+20
 35
-1.000000000000000E+20
146
0.0
 13
0.0
 23
0.0
 33
0.0
 16
1.0
 26
0.0
 36
0.0
 17
0.0
 27
1.0
 37
0.0
 76
     0
330
1B
  0
LAYOUT
  5
26
102
{ACAD_REACTORS
330
1A
102
}
330
1A
100
AcDbPlotSettings
  1

  2
none_device
  4

  6

 40
0.0
 41
0.0
 42
0.0
 43
0.0
 44
0.0
 45
0.0
 46
0.0
 47
0.0
 48
0.0
 49
0.0
140
0.0
141
0.0
142
1.0
143
1.0
 70
   688
 72
     0
 73
     0
 74
     5
  7

 75
    16
 76
     0
 77
     2
 78
   300
147
1.0
148
0.0
149
0.0
100
AcDbLayout
  1
Layout2
 70
     1
 71
     2
 10
0.0
 20
0.0
 11
0.0
 21
0.0
 12
0.0
 22
0.0
 32
0.0
 14
0.0
 24
0.0
 34
0.0
 15
0.0
 25
0.0
 35
0.0
146
0.0
 13
0.0
 23
0.0
 33
0.0
 16
1.0
 26
0.0
 36
0.0
 17
0.0
 27
1.0
 37
0.0
 76
     0
330
23
  0
LAYOUT
  5
22
102
{ACAD_REACTORS
330
1A
102
}
330
1A
100
AcDbPlotSettings
  1

  2
none_device
  4

  6

 40
0.0
 41
0.0
 42
0.0
 43
0.0
 44
0.0
 45
0.0
 46
0.0
 47
0.0
 48
0.0
 49
0.0
140
0.0
141
0.0
142
1.0
143
1.0
 70
  1712
 72
     0
 73
     0
 74
     0
  7

 75
     0
 76
     0
 77
     2
 78
   300
147
1.0
148
0.0
149
0.0
100
AcDbLayout
  1
Model
 70
     1
 71
     0
 10
0.0
 20
0.0
 11
12.0
 21
9.0
 12
0.0
 22
0.0
 32
0.0
 14
1.000000000000000E+20
 24
1.000000000000000E+20
 34
1.000000000000000E+20
 15
-1.000000000000000E+20
 25
-1.000000000000000E+20
 35
-1.000000000000000E+20
146
0.0
 13
0.0
 23
0.0
 33
0.0
 16
1.0
 26
0.0
 36
0.0
 17
0.0
 27
1.0
 37
0.0
 76
     0
330
1F
331
29
  0
MATERIAL
  5
3D
102
{ACAD_REACTORS
330
3B
102
}
330
3B
100
AcDbMaterial
  1
ByBlock
 72
     1
 94
      127
  0
MATERIAL
  5
3C
102
{ACAD_REACTORS
330
3B
102
}
330
3B
100
AcDbMaterial
  1
ByLayer
 72
     1
 94
      127
  0
MATERIAL
  5
3E
102
{ACAD_REACTORS
330
3B
102
}
330
3B
100
AcDbMaterial
  1
Global
 72
     1
 94
      127
  0
MLINESTYLE
  5
18
102
{ACAD_REACTORS
330
17
102
}
330
17
100
AcDbMlineStyle
  2
Standard
 70
     0
  3

 62
   256
 51
90.0
 52
90.0
 71
     2
 49
0.5
 62
   256
  6
BYLAYER
 49
-0.5
 62
   256
  6
BYLAYER
  0
ACDBPLACEHOLDER
  5
F
102
{ACAD_REACTORS
330
E
102
}
330
E
  0
VISUALSTYLE
  5
2F
102
{ACAD_REACTORS
330
2A
102
}
330
2A
100
AcDbVisualStyle
  2
2dWireframe
 70
     4
177
     2
291
     0
 71
     0
176
     1
 72
     2
176
     1
 73
     0
176
     1
 90
        0
176
     1
 40
-0.6
176
     1
 41
-30.0
176
     1
 62
     5
 63
     7
421
 16777215
176
     1
 74
     1
176
     1
 91
        4
176
     1
 64
     7
176
     1
 65
   257
176
     1
 75
     1
176
     1
175
     1
176
     1
 42
1.0
176
     1
 92
        0
176
     1
 66
   257
176
     1
 43
1.0
176
     1
 76
     1
176
     1
 77
     6
176
     1
 78
     2
176
     1
 67
     7
176
     1
 79
     5
176
     1
170
     0
176
     1
171
     0
176
     1
290
     0
176
     1
 93
        1
176
     1
 44
0.0
176
     1
173
     0
176
     1
  0
VISUALSTYLE
  5
31
102
{ACAD_REACTORS
330
2A
102
}
330
2A
100
AcDbVisualStyle
  2
3D Hidden
 70
     6
177
     2
291
     0
 71
     1
176
     1
 72
     2
176
     1
 73
     2
176
     1
 90
        0
176
     1
 40
-0.6
176
     1
 41
-30.0
176
     1
 62
     5
 63
     7
421
 16777215
176
     1
 74
     2
176
     1
 91
        2
176
     1
 64
     7
176
     1
 65
   257
176
     1
 75
     2
176
     1
175
     1
176
     1
 42
40.0
176
     1
 92
        0
176
     1
 66
   257
176
     1
 43
1.0
176
     1
 76
     1
176
     1
 77
     6
176
     1
 78
     2
176
     1
 67
     7
176
     1
 79
     3
176
     1
170
     0
176
     1
171
     0
176
     1
290
     0
176
     1
 93
        1
176
     1
 44
0.0
176
     1
173
     0
176
     1
  0
VISUALSTYLE
  5
30
102
{ACAD_REACTORS
330
2A
102
}
330
2A
100
AcDbVisualStyle
  2
3dWireframe
 70
     5
177
     2
291
     0
 71
     0
176
     1
 72
     2
176
     1
 73
     0
176
     1
 90
        0
176
     1
 40
-0.6
176
     1
 41
-30.0
176
     1
 62
     5
 63
     7
421
 16777215
176
     1
 74
     1
176
     1
 91
        4
176
     1
 64
     7
176
     1
 65
   257
176
     1
 75
     1
176
     1
175
     1
176
     1
 42
1.0
176
     1
 92
        0
176
     1
 66
   257
176
     1
 43
1.0
176
     1
 76
     1
176
     1
 77
     6
176
     1
 78
     2
176
     1
 67
     7
176
     1
 79
     5
176
     1
170
     0
176
     1
171
     0
176
     1
290
     0
176
     1
 93
        1
176
     1
 44
0.0
176
     1
173
     0
176
     1
  0
VISUALSTYLE
  5
32
102
{ACAD_REACTORS
330
2A
102
}
330
2A
100
AcDbVisualStyle
  2
Basic
 70
     7
177
     2
291
     1
 71
     1
176
     1
 72
     0
176
     1
 73
     1
176
     1
 90
        0
176
     1
 40
-0.6
176
     1
 41
-30.0
176
     1
 62
     5
 63
     7
421
 16777215
176
     1
 74
     0
176
     1
 91
        4
176
     1
 64
     7
176
     1
 65
   257
176
     1
 75
     1
176
     1
175
     1
176
     1
 42
1.0
176
     1
 92
        8
176
     1
 66
     7
176
     1
 43
1.0
176
     1
 76
     1
176
     1
 77
     6
176
     1
 78
     2
176
     1
 67
     7
176
     1
 79
     5
176
     1
170
     0
176
     1
171
     0
176
     1
290
     0
176
     1
 93
        1
176
     1
 44
0.0
176
     1
173
     0
176
     1
  0
VISUALSTYLE
  5
36
102
{ACAD_REACTORS
330
2A
102
}
330
2A
100
AcDbVisualStyle
  2
Brighten
 70
    12
177
     2
291
     1
 71
     2
176
     1
 72
     2
176
     1
 73
     0
176
     1
 90
        0
176
     1
 40
-0.6
176
     1
 41
-30.0
176
     1
 62
     5
 63
     7
421
 16777215
176
     1
 74
     1
176
     1
 91
        4
176
     1
 64
     7
176
     1
 65
   257
176
     1
 75
     1
176
     1
175
     1
176
     1
 42
1.0
176
     1
 92
        8
176
     1
 66
     7
176
     1
 43
1.0
176
     1
 76
     1
176
     1
 77
     6
176
     1
 78
     2
176
     1
 67
     7
176
     1
 79
     5
176
     1
170
     0
176
     1
171
     0
176
     1
290
     0
176
     1
 93
        1
176
     1
 44
50.0
176
     1
173
     0
176
     1
  0
VISUALSTYLE
  5
3A
102
{ACAD_REACTORS
330
2A
102
}
330
2A
100
AcDbVisualStyle
  2
ColorChange
 70
    16
177
     2
291
     1
 71
     2
176
     1
 72
     2
176
     1
 73
     3
176
     1
 90
        0
176
     1
 40
-0.6
176
     1
 41
-30.0
176
     1
 62
     5
 63
     8
421
  8421504
176
     1
 74
     1
176
     1
 91
        4
176
     1
 64
     7
176
     1
 65
   257
176
     1
 75
     1
176
     1
175
     1
176
     1
 42
1.0
176
     1
 92
        8
176
     1
 66
     8
424
  8421504
176
     1
 43
1.0
176
     1
 76
     1
176
     1
 77
     6
176
     1
 78
     2
176
     1
 67
     7
176
     1
 79
     5
176
     1
170
     0
176
     1
171
     0
176
     1
290
     0
176
     1
 93
        1
176
     1
 44
0.0
176
     1
173
     0
176
     1
  0
VISUALSTYLE
  5
34
102
{ACAD_REACTORS
330
2A
102
}
330
2A
100
AcDbVisualStyle
  2
Conceptual
 70
     9
177
     2
291
     0
 71
     3
176
     1
 72
     2
176
     1
 73
     0
176
     1
 90
        0
176
     1
 40
-0.6
176
     1
 41
-30.0
176
     1
 62
     5
 63
     7
421
 16777215
176
     1
 74
     2
176
     1
 91
        2
176
     1
 64
     7
176
     1
 65
   257
176
     1
 75
     1
176
     1
175
     1
176
     1
 42
40.0
176
     1
 92
        8
176
     1
 66
     7
176
     1
 43
1.0
176
     1
 76
     1
176
     1
 77
     6
176
     1
 78
     2
176
     1
 67
     7
176
     1
 79
     3
176
     1
170
     0
176
     1
171
     0
176
     1
290
     0
176
     1
 93
        1
176
     1
 44
0.0
176
     1
173
     0
176
     1
  0
VISUALSTYLE
  5
35
102
{ACAD_REACTORS
330
2A
102
}
330
2A
100
AcDbVisualStyle
  2
Dim
 70
    11
177
     2
291
     1
 71
     2
176
     1
 72
     2
176
     1
 73
     0
176
     1
 90
        0
176
     1
 40
-0.6
176
     1
 41
-30.0
176
     1
 62
     5
 63
     7
421
 16777215
176
     1
 74
     1
176
     1
 91
        4
176
     1
 64
     7
176
     1
 65
   257
176
     1
 75
     1
176
     1
175
     1
176
     1
 42
1.0
176
     1
 92
        8
176
     1
 66
     7
176
     1
 43
1.0
176
     1
 76
     1
176
     1
 77
     6
176
     1
 78
     2
176
     1
 67
     7
176
     1
 79
     5
176
     1
170
     0
176
     1
171
     0
176
     1
290
     0
176
     1
 93
        1
176
     1
 44
-50.0
176
     1
173
     0
176
     1
  0
VISUALSTYLE
  5
39
102
{ACAD_REACTORS
330
2A
102
}
330
2A
100
AcDbVisualStyle
  2
Facepattern
 70
    15
177
     2
291
     1
 71
     2
176
     1
 72
     2
176
     1
 73
     0
176
     1
 90
        0
176
     1
 40
-0.6
176
     1
 41
-30.0
176
     1
 62
     5
 63
     7
421
 16777215
176
     1
 74
     1
176
     1
 91
        4
176
     1
 64
     7
176
     1
 65
   257
176
     1
 75
     1
176
     1
175
     1
176
     1
 42
1.0
176
     1
 92
        8
176
     1
 66
     7
176
     1
 43
1.0
176
     1
 76
     1
176
     1
 77
     6
176
     1
 78
     2
176
     1
 67
     7
176
     1
 79
     5
176
     1
170
     0
176
     1
171
     0
176
     1
290
     0
176
     1
 93
        1
176
     1
 44
0.0
176
     1
173
     0
176
     1
  0
VISUALSTYLE
  5
2B
102
{ACAD_REACTORS
330
2A
102
}
330
2A
100
AcDbVisualStyle
  2
Flat
 70
     0
177
     2
291
     1
 71
     2
176
     1
 72
     1
176
     1
 73
     1
176
     1
 90
        2
176
     1
 40
-0.6
176
     1
 41
30.0
176
     1
 62
     5
 63
     7
421
 16777215
176
     1
 74
     0
176
     1
 91
        4
176
     1
 64
     7
176
     1
 65
   257
176
     1
 75
     1
176
     1
175
     1
176
     1
 42
1.0
176
     1
 92
        8
176
     1
 66
     7
176
     1
 43
1.0
176
     1
 76
     1
176
     1
 77
     6
176
     1
 78
     2
176
     1
 67
     7
176
     1
 79
     5
176
     1
170
     0
176
     1
171
     0
176
     1
290
     0
176
     1
 93
       13
176
     1
 44
0.0
176
     1
173
     0
176
     1
  0
VISUALSTYLE
  5
2C
102
{ACAD_REACTORS
330
2A
102
}
330
2A
100
AcDbVisualStyle
  2
FlatWithEdges
 70
     1
177
     2
291
     1
 71
     2
176
     1
 72
     1
176
     1
 73
     1
176
     1
 90
        2
176
     1
 40
-0.6
176
     1
 41
30.0
176
     1
 62
     5
 63
     7
421
 16777215
176
     1
 74
     1
176
     1
 91
        4
176
     1
 64
     7
176
     1
 65
   257
176
     1
 75
     1
176
     1
175
     1
176
     1
 42
1.0
176
     1
 92
        0
176
     1
 66
   257
176
     1
 43
1.0
176
     1
 76
     1
176
     1
 77
     6
176
     1
 78
     2
176
     1
 67
     7
176
     1
 79
     5
176
     1
170
     0
176
     1
171
     0
176
     1
290
     0
176
     1
 93
       13
176
     1
 44
0.0
176
     1
173
     0
176
     1
  0
VISUALSTYLE
  5
2D
102
{ACAD_REACTORS
330
2A
102
}
330
2A
100
AcDbVisualStyle
  2
Gouraud
 70
     2
177
     2
291
     1
 71
     2
176
     1
 72
     2
176
     1
 73
     1
176
     1
 90
        2
176
     1
 40
-0.6
176
     1
 41
30.0
176
     1
 62
     5
 63
     7
421
 16777215
176
     1
 74
     0
176
     1
 91
        4
176
     1
 64
     7
176
     1
 65
   257
176
     1
 75
     1
176
     1
175
     1
176
     1
 42
1.0
176
     1
 92
        0
176
     1
 66
     7
176
     1
 43
1.0
176
     1
 76
     1
176
     1
 77
     6
176
     1
 78
     2
176
     1
 67
     7
176
     1
 79
     5
176
     1
170
     0
176
     1
171
     0
176
     1
290
     0
176
     1
 93
       13
176
     1
 44
0.0
176
     1
173
     0
176
     1
  0
VISUALSTYLE
  5
2E
102
{ACAD_REACTORS
330
2A
102
}
330
2A
100
AcDbVisualStyle
  2
GouraudWithEdges
 70
     3
177
     2
291
     1
 71
     2
176
     1
 72
     2
176
     1
 73
     1
176
     1
 90
        2
176
     1
 40
-0.6
176
     1
 41
30.0
176
     1
 62
     5
 63
     7
421
 16777215
176
     1
 74
     1
176
     1
 91
        4
176
     1
 64
     7
176
     1
 65
   257
176
     1
 75
     1
176
     1
175
     1
176
     1
 42
1.0
176
     1
 92
        0
176
     1
 66
   257
176
     1
 43
1.0
176
     1
 76
     1
176
     1
 77
     6
176
     1
 78
     2
176
     1
 67
     7
176
     1
 79
     5
176
     1
170
     0
176
     1
171
     0
176
     1
290
     0
176
     1
 93
       13
176
     1
 44
0.0
176
     1
173
     0
176
     1
  0
VISUALSTYLE
  5
38
102
{ACAD_REACTORS
330
2A
102
}
330
2A
100
AcDbVisualStyle
  2
Linepattern
 70
    14
177
     2
291
     1
 71
     2
176
     1
 72
     2
176
     1
 73
     0
176
     1
 90
        0
176
     1
 40
-0.6
176
     1
 41
-30.0
176
     1
 62
     5
 63
     7
421
 16777215
176
     1
 74
     1
176
     1
 91
        4
176
     1
 64
     7
176
     1
 65
   257
176
     1
 75
     7
176
     1
175
     7
176
     1
 42
1.0
176
     1
 92
        8
176
     1
 66
     7
176
     1
 43
1.0
176
     1
 76
     1
176
     1
 77
     6
176
     1
 78
     2
176
     1
 67
     7
176
     1
 79
     5
176
     1
170
     0
176
     1
171
     0
176
     1
290
     0
176
     1
 93
        1
176
     1
 44
0.0
176
     1
173
     0
176
     1
  0
VISUALSTYLE
  5
33
102
{ACAD_REACTORS
330
2A
102
}
330
2A
100
AcDbVisualStyle
  2
Realistic
 70
     8
177
     2
291
     0
 71
     2
176
     1
 72
     2
176
     1
 73
     0
176
     1
 90
        0
176
     1
 40
-0.6
176
     1
 41
-30.0
176
     1
 62
     5
 63
     7
421
 16777215
176
     1
 74
     1
176
     1
 91
        0
176
     1
 64
     7
176
     1
 65
   257
176
     1
 75
     1
176
     1
175
     1
176
     1
 42
1.0
176
     1
 92
        8
176
     1
 66
     8
424
  7895160
176
     1
 43
1.0
176
     1
 76
     1
176
     1
 77
     6
176
     1
 78
     2
176
     1
 67
     7
176
     1
 79
     5
176
     1
170
     0
176
     1
171
     0
176
     1
290
     0
176
     1
 93
       13
176
     1
 44
0.0
176
     1
173
     0
176
     1
  0
VISUALSTYLE
  5
37
102
{ACAD_REACTORS
330
2A
102
}
330
2A
100
AcDbVisualStyle
  2
Thicken
 70
    13
177
     2
291
     1
 71
     2
176
     1
 72
     2
176
     1
 73
     0
176
     1
 90
        0
176
     1
 40
-0.6
176
     1
 41
-30.0
176
     1
 62
     5
 63
     7
421
 16777215
176
     1
 74
     1
176
     1
 91
        4
176
     1
 64
     7
176
     1
 65
   257
176
     1
 75
     1
176
     1
175
     1
176
     1
 42
1.0
176
     1
 92
       12
176
     1
 66
     7
176
     1
 43
1.0
176
     1
 76
     1
176
     1
 77
     6
176
     1
 78
     2
176
     1
 67
     7
176
     1
 79
     5
176
     1
170
     0
176
     1
171
     0
176
     1
290
     0
176
     1
 93
        1
176
     1
 44
0.0
176
     1
173
     0
176
     1
  0
ENDSEC
  0
EOF
