  0
SECTION
  2
HEADER
  9
$ACADVER
  1
AC1009
  9
$DWGCODEPAGE
  3
ansi_1252
  9
$INSBASE
 10
0.0
 20
0.0
 30
0.0
  9
$EXTMIN
 10
0.0764829795509493
 20
0.1995584239130436
 30
0.0
  9
$EXTMAX
 10
7.423517020449046
 20
4.800441576086955
 30
0.0
  9
$LIMMIN
 10
0.0
 20
0.0
  9
$LIMMAX
 10
12.0
 20
9.0
  9
$ORTHOMODE
 70
     0
  9
$REGENMODE
 70
     1
  9
$FILLMODE
 70
     1
  9
$QTEXTMODE
 70
     0
  9
$MIRRTEXT
 70
     1
  9
$DRAGMODE
 70
     2
  9
$LTSCALE
 40
1.0
  9
$OSMODE
 70
    37
  9
$ATTMODE
 70
     1
  9
$TEXTSIZE
 40
0.2
  9
$TRACEWID
 40
0.05
  9
$TEXTSTYLE
  7
STANDARD
  9
$CLAYER
  8
0
  9
$CELTYPE
  6
BYLAYER
  9
$CECOLOR
 62
   256
  9
$DIMSCALE
 40
1.0
  9
$DIMASZ
 40
0.18
  9
$DIMEXO
 40
0.0625
  9
$DIMDLI
 40
0.38
  9
$DIMRND
 40
0.0
  9
$DIMDLE
 40
0.0
  9
$DIMEXE
 40
0.18
  9
$DIMTP
 40
0.0
  9
$DIMTM
 40
0.0
  9
$DIMTXT
 40
0.18
  9
$DIMCEN
 40
0.09
  9
$DIMTSZ
 40
0.0
  9
$DIMTOL
 70
     0
  9
$DIMLIM
 70
     0
  9
$DIMTIH
 70
     1
  9
$DIMTOH
 70
     1
  9
$DIMSE1
 70
     0
  9
$DIMSE2
 70
     0
  9
$DIMTAD
 70
     0
  9
$DIMZIN
 70
     0
  9
$DIMBLK
  1

  9
$DIMASO
 70
     1
  9
$DIMSHO
 70
     1
  9
$DIMPOST
  1

  9
$DIMAPOST
  1

  9
$DIMALT
 70
     0
  9
$DIMALTD
 70
     2
  9
$DIMALTF
 40
25.4
  9
$DIMLFAC
 40
1.0
  9
$DIMTOFL
 70
     0
  9
$DIMTVP
 40
0.0
  9
$DIMTIX
 70
     0
  9
$DIMSOXD
 70
     0
  9
$DIMSAH
 70
     0
  9
$DIMBLK1
  1

  9
$DIMBLK2
  1

  9
$DIMSTYLE
  2
STANDARD
  9
$DIMCLRD
 70
     0
  9
$DIMCLRE
 70
     0
  9
$DIMCLRT
 70
     0
  9
$DIMTFAC
 40
1.0
  9
$DIMGAP
 40
0.09
  9
$LUNITS
 70
     2
  9
$LUPREC
 70
     4
  9
$SKETCHINC
 40
0.1
  9
$FILLETRAD
 40
0.5
  9
$AUNITS
 70
     0
  9
$AUPREC
 70
     0
  9
$MENU
  1
.
  9
$ELEVATION
 40
0.0
  9
$PELEVATION
 40
0.0
  9
$THICKNESS
 40
0.0
  9
$LIMCHECK
 70
     0
  9
$CHAMFERA
 40
0.5
  9
$CHAMFERB
 40
0.5
  9
$SKPOLY
 70
     0
  9
$TDCREATE
 40
2454910.5
  9
$TDUPDATE
 40
2456072.961272812
  9
$TDINDWG
 40
0.0000000116
  9
$TDUSRTIMER
 40
0.0000000116
  9
$USRTIMER
 70
     1
  9
$ANGBASE
 50
0.0
  9
$ANGDIR
 70
     0
  9
$PDMODE
 70
     0
  9
$PDSIZE
 40
0.0
  9
$PLINEWID
 40
0.0
  9
$COORDS
 70
     1
  9
$SPLFRAME
 70
     0
  9
$SPLINETYPE
 70
     6
  9
$SPLINESEGS
 70
     8
  9
$ATTDIA
 70
     0
  9
$ATTREQ
 70
     1
  9
$HANDLING
 70
     1
  9
$HANDSEED
  5
456
  9
$SURFTAB1
 70
     6
  9
$SURFTAB2
 70
     6
  9
$SURFTYPE
 70
     6
  9
$SURFU
 70
     6
  9
$SURFV
 70
     6
  9
$UCSNAME
  2

  9
$UCSORG
 10
0.0
 20
0.0
 30
0.0
  9
$UCSXDIR
 10
1.0
 20
0.0
 30
0.0
  9
$UCSYDIR
 10
0.0
 20
1.0
 30
0.0
  9
$PUCSNAME
  2

  9
$PUCSORG
 10
0.0
 20
0.0
 30
0.0
  9
$PUCSXDIR
 10
1.0
 20
0.0
 30
0.0
  9
$PUCSYDIR
 10
0.0
 20
1.0
 30
0.0
  9
$USERI1
 70
     0
  9
$USERI2
 70
     0
  9
$USERI3
 70
     0
  9
$USERI4
 70
     0
  9
$USERI5
 70
     0
  9
$USERR1
 40
0.0
  9
$USERR2
 40
0.0
  9
$USERR3
 40
0.0
  9
$USERR4
 40
0.0
  9
$USERR5
 40
0.0
  9
$WORLDVIEW
 70
     1
  9
$SHADEDGE
 70
     3
  9
$SHADEDIF
 70
    70
  9
$TILEMODE
 70
     1
  9
$MAXACTVP
 70
    64
  9
$PLIMCHECK
 70
     0
  9
$PEXTMIN
 10
1.000000000000000E+20
 20
1.000000000000000E+20
 30
1.000000000000000E+20
  9
$PEXTMAX
 10
-1.000000000000000E+20
 20
-1.000000000000000E+20
 30
-1.000000000000000E+20
  9
$PLIMMIN
 10
0.0
 20
0.0
  9
$PLIMMAX
 10
12.0
 20
9.0
  9
$UNITMODE
 70
     0
  9
$VISRETAIN
 70
     1
  9
$PLINEGEN
 70
     0
  9
$PSLTSCALE
 70
     1
  0
ENDSEC
  0
SECTION
  2
TABLES
  0
TABLE
  2
VPORT
 70
     1
  0
VPORT
  2
*ACTIVE
 70
     0
 10
0.0
 20
0.0
 11
1.0
 21
1.0
 12
10.42990654205607
 22
4.5
 13
0.0
 23
0.0
 14
0.5
 24
0.5
 15
0.5
 25
0.5
 16
0.0
 26
0.0
 36
1.0
 17
0.0
 27
0.0
 37
0.0
 40
9.0
 41
1.972972972850329
 42
50.0
 43
0.0
 44
0.0
 50
0.0
 51
0.0
 71
     0
 72
   100
 73
     1
 74
     3
 75
     0
 76
     0
 77
     0
 78
     0
  0
ENDTAB
  0
TABLE
  2
LTYPE
 70
     2
  0
LTYPE
  2
CONTINUOUS
 70
     0
  3
Solid line
 72
    65
 73
     0
 40
0.0
  0
LTYPE
  2
CONTINUOUS2
 70
     0
  3
Solid Line
 72
    65
 73
     0
 40
0.0
  0
ENDTAB
  0
TABLE
  2
LAYER
 70
     2
  0
LAYER
  2
0
 70
     0
 62
     7
  6
CONTINUOUS
  0
LAYER
  2
LAYER_1
 70
     0
 62
    18
  6
CONTINUOUS
  0
ENDTAB
  0
TABLE
  2
STYLE
 70
     1
  0
STYLE
  2
STANDARD
 70
     0
 40
0.0
 41
1.0
 50
0.0
 71
     0
 42
0.2
  3
txt
  4

  0
ENDTAB
  0
TABLE
  2
VIEW
 70
     0
  0
ENDTAB
  0
TABLE
  2
UCS
 70
     0
  0
ENDTAB
  0
TABLE
  2
APPID
 70
     1
  0
APPID
  2
ACAD
 70
     0
  0
ENDTAB
  0
TABLE
  2
DIMSTYLE
 70
     1
  0
DIMSTYLE
  2
STANDARD
 70
     0
  3

  4

  5

  6

  7

 40
1.0
 41
0.18
 42
0.0625
 43
0.38
 44
0.18
 45
0.0
 46
0.0
 47
0.0
 48
0.0
140
0.18
141
0.09
142
0.0
143
25.4
144
1.0
145
0.0
146
1.0
147
0.09
 71
     0
 72
     0
 73
     1
 74
     1
 75
     0
 76
     0
 77
     0
 78
     0
170
     0
171
     2
172
     0
173
     0
174
     0
175
     0
176
     0
177
     0
178
     0
  0
ENDTAB
  0
ENDSEC
  0
SECTION
  2
BLOCKS
  0
BLOCK
  8
0
  2
$MODEL_SPACE
 70
     0
 10
0.0
 20
0.0
 30
0.0
  3
$MODEL_SPACE
  1

  0
ENDBLK
  5
21
  8
0
  0
BLOCK
 67
     1
  8
0
  2
$PAPER_SPACE
 70
     0
 10
0.0
 20
0.0
 30
0.0
  3
$PAPER_SPACE
  1

  0
ENDBLK
  5
1D
 67
     1
  8
0
  0
ENDSEC
  0
SECTION
  2
ENTITIES
  0
POLYLINE
  5
41
  8
LAYER_1
 66
     1
 10
0.0
 20
0.0
 30
0.0
 70
     1
  0
VERTEX
  5
4D
  8
LAYER_1
 10
0.0764829795509493
 20
0.1995584239130436
 30
0.0
  0
VERTEX
  5
4E
  8
LAYER_1
 10
7.423517020449046
 20
0.1995584239130436
 30
0.0
  0
VERTEX
  5
4F
  8
LAYER_1
 10
7.423517020449046
 20
4.800441576086955
 30
0.0
  0
VERTEX
  5
50
  8
LAYER_1
 10
0.0764829795509493
 20
4.800441576086955
 30
0.0
  0
SEQEND
  5
51
  8
LAYER_1
  0
POLYLINE
  5
42
  8
LAYER_1
 66
     1
 10
0.0
 20
0.0
 30
0.0
 70
     1
  0
VERTEX
  5
52
  8
LAYER_1
 10
2.6641851806767
 20
2.032856468641785
 30
0.0
  0
VERTEX
  5
53
  8
LAYER_1
 10
2.028123233774046
 20
3.548343194305502
 30
0.0
  0
VERTEX
  5
54
  8
LAYER_1
 10
1.375468366517408
 20
2.032856468641785
 30
0.0
  0
SEQEND
  5
55
  8
LAYER_1
  0
POLYLINE
  5
43
  8
LAYER_1
 66
     1
 10
0.0
 20
0.0
 30
0.0
 70
     1
  0
VERTEX
  5
56
  8
LAYER_1
 10
2.741618808995284
 20
1.82821045094267
 30
0.0
  0
VERTEX
  5
57
  8
LAYER_1
 10
1.289738278021833
 20
1.82821045094267
 30
0.0
  0
VERTEX
  5
58
  8
LAYER_1
 10
1.035313499260771
 20
1.236396291650634
 30
0.0
  0
VERTEX
  5
59
  8
LAYER_1
 10
1.023927471882452
 20
1.20951921753559
 30
0.0
  0
VERTEX
  5
5A
  8
LAYER_1
 10
1.013276026915638
 20
1.183506358022316
 30
0.0
  0
VERTEX
  5
5B
  8
LAYER_1
 10
1.003359164360329
 20
1.158357713110811
 30
0.0
  0
VERTEX
  5
5C
  8
LAYER_1
 10
0.9941768842165233
 20
1.134073282801077
 30
0.0
  0
VERTEX
  5
5D
  8
LAYER_1
 10
0.9857291864842224
 20
1.110653067093112
 30
0.0
  0
VERTEX
  5
5E
  8
LAYER_1
 10
0.9780160711634258
 20
1.088097065986918
 30
0.0
  0
VERTEX
  5
5F
  8
LAYER_1
 10
0.9710375382541336
 20
1.066405279482493
 30
0.0
  0
VERTEX
  5
60
  8
LAYER_1
 10
0.964793587756346
 20
1.045577707579838
 30
0.0
  0
VERTEX
  5
61
  8
LAYER_1
 10
0.9592842196700628
 20
1.025614350278953
 30
0.0
  0
VERTEX
  5
62
  8
LAYER_1
 10
0.954509433995284
 20
1.006515207579838
 30
0.0
  0
VERTEX
  5
63
  8
LAYER_1
 10
0.9504692307320096
 20
0.9882802794824929
 30
0.0
  0
VERTEX
  5
64
  8
LAYER_1
 10
0.9471636098802397
 20
0.9709095659869176
 30
0.0
  0
VERTEX
  5
65
  8
LAYER_1
 10
0.9445925714399743
 20
0.9544030670931123
 30
0.0
  0
VERTEX
  5
66
  8
LAYER_1
 10
0.9427561154112132
 20
0.9387607828010769
 30
0.0
  0
VERTEX
  5
67
  8
LAYER_1
 10
0.9416542417939566
 20
0.9239827131108115
 30
0.0
  0
VERTEX
  5
68
  8
LAYER_1
 10
0.9412869505882043
 20
0.910068858022316
 30
0.0
  0
VERTEX
  5
69
  8
LAYER_1
 10
0.941605629722607
 20
0.8994336170792849
 30
0.0
  0
VERTEX
  5
6A
  8
LAYER_1
 10
0.9425616671258149
 20
0.8889604163740858
 30
0.0
  0
VERTEX
  5
6B
  8
LAYER_1
 10
0.9441550627978281
 20
0.8786492559067185
 30
0.0
  0
VERTEX
  5
6C
  8
LAYER_1
 10
0.9463858167386467
 20
0.8685001356771832
 30
0.0
  0
VERTEX
  5
6D
  8
LAYER_1
 10
0.9492539289482707
 20
0.8585130556854796
 30
0.0
  0
VERTEX
  5
6E
  8
LAYER_1
 10
0.9527593994267
 20
0.8486880159316079
 30
0.0
  0
VERTEX
  5
6F
  8
LAYER_1
 10
0.9569022281739344
 20
0.839025016415568
 30
0.0
  0
VERTEX
  5
70
  8
LAYER_1
 10
0.9616824151899743
 20
0.8295240571373601
 30
0.0
  0
VERTEX
  5
71
  8
LAYER_1
 10
0.9670999604748195
 20
0.820185138096984
 30
0.0
  0
VERTEX
  5
72
  8
LAYER_1
 10
0.9731548640284701
 20
0.8110082592944398
 30
0.0
  0
VERTEX
  5
73
  8
LAYER_1
 10
0.9798471258509258
 20
0.8019934207297273
 30
0.0
  0
VERTEX
  5
74
  8
LAYER_1
 10
0.987176745942187
 20
0.7931406224028468
 30
0.0
  0
VERTEX
  5
75
  8
LAYER_1
 10
0.9951437243022534
 20
0.784449864313798
 30
0.0
  0
VERTEX
  5
76
  8
LAYER_1
 10
1.003748060931125
 20
0.7759211464625813
 30
0.0
  0
VERTEX
  5
77
  8
LAYER_1
 10
1.012989755828802
 20
0.7675544688491964
 30
0.0
  0
VERTEX
  5
78
  8
LAYER_1
 10
1.022868808995284
 20
0.7593498314736432
 30
0.0
  0
VERTEX
  5
79
  8
LAYER_1
 10
1.033806525048935
 20
0.751404458478621
 30
0.0
  0
VERTEX
  5
7A
  8
LAYER_1
 10
1.046224208608116
 20
0.743815574006829
 30
0.0
  0
VERTEX
  5
7B
  8
LAYER_1
 10
1.060121859672829
 20
0.7365831780582671
 30
0.0
  0
VERTEX
  5
7C
  8
LAYER_1
 10
1.075499478243072
 20
0.7297072706329353
 30
0.0
  0
VERTEX
  5
7D
  8
LAYER_1
 10
1.092357064318846
 20
0.7231878517308336
 30
0.0
  0
VERTEX
  5
7E
  8
LAYER_1
 10
1.110694617900152
 20
0.7170249213519617
 30
0.0
  0
VERTEX
  5
7F
  8
LAYER_1
 10
1.130512138986988
 20
0.7112184794963201
 30
0.0
  0
VERTEX
  5
80
  8
LAYER_1
 10
1.151809627579355
 20
0.7057685261639086
 30
0.0
  0
VERTEX
  5
81
  8
LAYER_1
 10
1.174587083677253
 20
0.7006750613547272
 30
0.0
  0
VERTEX
  5
82
  8
LAYER_1
 10
1.198844507280682
 20
0.6959380850687759
 30
0.0
  0
VERTEX
  5
83
  8
LAYER_1
 10
1.224581898389642
 20
0.6915575973060547
 30
0.0
  0
VERTEX
  5
84
  8
LAYER_1
 10
1.251799257004133
 20
0.6875335980665636
 30
0.0
  0
VERTEX
  5
85
  8
LAYER_1
 10
1.280496583124155
 20
0.6838660873503025
 30
0.0
  0
VERTEX
  5
86
  8
LAYER_1
 10
1.310673876749709
 20
0.6805550651572715
 30
0.0
  0
VERTEX
  5
87
  8
LAYER_1
 10
1.342331137880793
 20
0.6776005314874707
 30
0.0
  0
VERTEX
  5
88
  8
LAYER_1
 10
1.375468366517408
 20
0.6750024863408998
 30
0.0
  0
VERTEX
  5
89
  8
LAYER_1
 10
1.375468366517408
 20
0.5726794774913423
 30
0.0
  0
VERTEX
  5
8A
  8
LAYER_1
 10
0.1946055346590013
 20
0.5726794774913423
 30
0.0
  0
VERTEX
  5
8B
  8
LAYER_1
 10
0.1946055346590013
 20
0.6750024863408998
 30
0.0
  0
VERTEX
  5
8C
  8
LAYER_1
 10
0.2233406701678508
 20
0.6802849980942185
 30
0.0
  0
VERTEX
  5
8D
  8
LAYER_1
 10
0.2507794837740455
 20
0.6857619581329353
 30
0.0
  0
VERTEX
  5
8E
  8
LAYER_1
 10
0.2769219754775852
 20
0.6914333664570503
 30
0.0
  0
VERTEX
  5
8F
  8
LAYER_1
 10
0.3017681452784702
 20
0.6972992230665637
 30
0.0
  0
VERTEX
  5
90
  8
LAYER_1
 10
0.3253179931767002
 20
0.7033595279614752
 30
0.0
  0
VERTEX
  5
91
  8
LAYER_1
 10
0.3475715191722755
 20
0.7096142811417849
 30
0.0
  0
VERTEX
  5
92
  8
LAYER_1
 10
0.3685287232651958
 20
0.716063482607493
 30
0.0
  0
VERTEX
  5
93
  8
LAYER_1
 10
0.3881896054554612
 20
0.7227071323585991
 30
0.0
  0
VERTEX
  5
94
  8
LAYER_1
 10
0.4065541657430718
 20
0.7295452303951035
 30
0.0
  0
VERTEX
  5
95
  8
LAYER_1
 10
0.4236224041280277
 20
0.7365777767170061
 30
0.0
  0
VERTEX
  5
96
  8
LAYER_1
 10
0.4393943206103285
 20
0.743804771324307
 30
0.0
  0
VERTEX
  5
97
  8
LAYER_1
 10
0.4538699151899744
 20
0.7512262142170061
 30
0.0
  0
VERTEX
  5
98
  8
LAYER_1
 10
0.4670491878669656
 20
0.7588421053951035
 30
0.0
  0
VERTEX
  5
99
  8
LAYER_1
 10
0.4789321386413019
 20
0.7666524448585991
 30
0.0
  0
VERTEX
  5
9A
  8
LAYER_1
 10
0.4895187675129833
 20
0.7746572326074929
 30
0.0
  0
VERTEX
  5
9B
  8
LAYER_1
 10
0.4988090744820098
 20
0.7828564686417848
 30
0.0
  0
VERTEX
  5
9C
  8
LAYER_1
 10
0.5076537707969988
 20
0.7914202952111985
 30
0.0
  0
VERTEX
  5
9D
  8
LAYER_1
 10
0.5165578818658594
 20
0.8005188545654573
 30
0.0
  0
VERTEX
  5
9E
  8
LAYER_1
 10
0.5255214076885917
 20
0.8101521467045614
 30
0.0
  0
VERTEX
  5
9F
  8
LAYER_1
 10
0.5345443482651957
 20
0.8203201716285106
 30
0.0
  0
VERTEX
  5
A0
  8
LAYER_1
 10
0.5527684736800187
 20
0.8422604198309442
 30
0.0
  0
VERTEX
  5
A1
  8
LAYER_1
 10
0.5712302581103285
 20
0.8663395991727584
 30
0.0
  0
VERTEX
  5
A2
  8
LAYER_1
 10
0.5899297015561249
 20
0.892557709653953
 30
0.0
  0
VERTEX
  5
A3
  8
LAYER_1
 10
0.6088668040174081
 20
0.9209147512745283
 30
0.0
  0
VERTEX
  5
A4
  8
LAYER_1
 10
0.628041565494178
 20
0.951410724034484
 30
0.0
  0
VERTEX
  5
A5
  8
LAYER_1
 10
0.6474539859864347
 20
0.9840456279338202
 30
0.0
  0
VERTEX
  5
A6
  8
LAYER_1
 10
0.667104065494178
 20
1.018819462972537
 30
0.0
  0
VERTEX
  5
A7
  8
LAYER_1
 10
0.6869918040174081
 20
1.055732229150634
 30
0.0
  0
VERTEX
  5
A8
  8
LAYER_1
 10
0.7071172015561249
 20
1.094783926468112
 30
0.0
  0
VERTEX
  5
A9
  8
LAYER_1
 10
0.7274802581103285
 20
1.13597455492497
 30
0.0
  0
VERTEX
  5
AA
  8
LAYER_1
 10
0.7480809736800187
 20
1.179304114521209
 30
0.0
  0
VERTEX
  5
AB
  8
LAYER_1
 10
0.7689193482651957
 20
1.224772605256829
 30
0.0
  0
VERTEX
  5
AC
  8
LAYER_1
 10
0.7899953818658594
 20
1.272380027131829
 30
0.0
  0
VERTEX
  5
AD
  8
LAYER_1
 10
0.8113090744820098
 20
1.32212638014621
 30
0.0
  0
VERTEX
  5
AE
  8
LAYER_1
 10
2.130446242623603
 20
4.408409565986918
 30
0.0
  0
VERTEX
  5
AF
  8
LAYER_1
 10
2.227238278021832
 20
4.408409565986918
 30
0.0
  0
VERTEX
  5
B0
  8
LAYER_1
 10
3.532548012535107
 20
1.288940539438245
 30
0.0
  0
VERTEX
  5
B1
  8
LAYER_1
 10
3.552138677288979
 20
1.242958921282824
 30
0.0
  0
VERTEX
  5
B2
  8
LAYER_1
 10
3.571502485709886
 20
1.19904061548913
 30
0.0
  0
VERTEX
  5
B3
  8
LAYER_1
 10
3.590639437797829
 20
1.157185622057161
 30
0.0
  0
VERTEX
  5
B4
  8
LAYER_1
 10
3.609549533552806
 20
1.117393940986918
 30
0.0
  0
VERTEX
  5
B5
  8
LAYER_1
 10
3.628232772974819
 20
1.0796655722784
 30
0.0
  0
VERTEX
  5
B6
  8
LAYER_1
 10
3.646689156063868
 20
1.044000515931608
 30
0.0
  0
VERTEX
  5
B7
  8
LAYER_1
 10
3.664918682819952
 20
1.010398771946541
 30
0.0
  0
VERTEX
  5
B8
  8
LAYER_1
 10
3.682921353243072
 20
0.9788603403232007
 30
0.0
  0
VERTEX
  5
B9
  8
LAYER_1
 10
3.700697167333226
 20
0.9493852210615856
 30
0.0
  0
VERTEX
  5
BA
  8
LAYER_1
 10
3.718246125090417
 20
0.9219734141616962
 30
0.0
  0
VERTEX
  5
BB
  8
LAYER_1
 10
3.735568226514642
 20
0.8966249196235324
 30
0.0
  0
VERTEX
  5
BC
  8
LAYER_1
 10
3.752663471605903
 20
0.8733397374470944
 30
0.0
  0
VERTEX
  5
BD
  8
LAYER_1
 10
3.769531860364199
 20
0.8521178676323821
 30
0.0
  0
VERTEX
  5
BE
  8
LAYER_1
 10
3.786173392789531
 20
0.8329593101793955
 30
0.0
  0
VERTEX
  5
BF
  8
LAYER_1
 10
3.794409087877335
 20
0.8241537735885492
 30
0.0
  0
VERTEX
  5
C0
  8
LAYER_1
 10
3.802588068881898
 20
0.8158640650881345
 30
0.0
  0
VERTEX
  5
C1
  8
LAYER_1
 10
3.810710335803219
 20
0.8080901846781511
 30
0.0
  0
VERTEX
  5
C2
  8
LAYER_1
 10
3.8187758886413
 20
0.8008321323585991
 30
0.0
  0
VERTEX
  5
C3
  8
LAYER_1
 10
3.835244578146278
 20
0.7872153510394619
 30
0.0
  0
VERTEX
  5
C4
  8
LAYER_1
 10
3.852501863475371
 20
0.7743655601793956
 30
0.0
  0
VERTEX
  5
C5
  8
LAYER_1
 10
3.870547744628579
 20
0.7622827597784001
 30
0.0
  0
VERTEX
  5
C6
  8
LAYER_1
 10
3.889382221605903
 20
0.7509669498364753
 30
0.0
  0
VERTEX
  5
C7
  8
LAYER_1
 10
3.909005294407341
 20
0.7404181303536213
 30
0.0
  0
VERTEX
  5
C8
  8
LAYER_1
 10
3.929416963032894
 20
0.730636301329838
 30
0.0
  0
VERTEX
  5
C9
  8
LAYER_1
 10
3.950617227482562
 20
0.7216214627651256
 30
0.0
  0
VERTEX
  5
CA
  8
LAYER_1
 10
3.972606087756346
 20
0.713373614659484
 30
0.0
  0
VERTEX
  5
CB
  8
LAYER_1
 10
3.995383543854244
 20
0.7058927570129132
 30
0.0
  0
VERTEX
  5
CC
  8
LAYER_1
 10
4.018949595776258
 20
0.6991788898254132
 30
0.0
  0
VERTEX
  5
CD
  8
LAYER_1
 10
4.043304243522387
 20
0.693232013096984
 30
0.0
  0
VERTEX
  5
CE
  8
LAYER_1
 10
4.06844748709263
 20
0.6880521268276255
 30
0.0
  0
VERTEX
  5
CF
  8
LAYER_1
 10
4.094379326486989
 20
0.6836392310173379
 30
0.0
  0
VERTEX
  5
D0
  8
LAYER_1
 10
4.121099761705462
 20
0.6799933256661211
 30
0.0
  0
VERTEX
  5
D1
  8
LAYER_1
 10
4.148608792748051
 20
0.6771144107739752
 30
0.0
  0
VERTEX
  5
D2
  8
LAYER_1
 10
4.176906419614754
 20
0.6750024863408998
 30
0.0
  0
VERTEX
  5
D3
  8
LAYER_1
 10
4.176906419614754
 20
0.5726794774913423
 30
0.0
  0
VERTEX
  5
D4
  8
LAYER_1
 10
2.697371021384664
 20
0.5726794774913423
 30
0.0
  0
VERTEX
  5
D5
  8
LAYER_1
 10
2.697371021384664
 20
0.6750024863408998
 30
0.0
  0
VERTEX
  5
D6
  8
LAYER_1
 10
2.724804433649598
 20
0.676590480671652
 30
0.0
  0
VERTEX
  5
D7
  8
LAYER_1
 10
2.751103564249708
 20
0.6785889769382449
 30
0.0
  0
VERTEX
  5
D8
  8
LAYER_1
 10
2.776268413184996
 20
0.6809979751406785
 30
0.0
  0
VERTEX
  5
D9
  8
LAYER_1
 10
2.800298980455461
 20
0.683817475278953
 30
0.0
  0
VERTEX
  5
DA
  8
LAYER_1
 10
2.823195266061103
 20
0.687047477353068
 30
0.0
  0
VERTEX
  5
DB
  8
LAYER_1
 10
2.844957270001921
 20
0.6906879813630238
 30
0.0
  0
VERTEX
  5
DC
  8
LAYER_1
 10
2.865584992277917
 20
0.6947389873088202
 30
0.0
  0
VERTEX
  5
DD
  8
LAYER_1
 10
2.885078432889089
 20
0.6992004951904573
 30
0.0
  0
VERTEX
  5
DE
  8
LAYER_1
 10
2.903437591835439
 20
0.7040725050079353
 30
0.0
  0
VERTEX
  5
DF
  8
LAYER_1
 10
2.920662469116965
 20
0.7093550167612539
 30
0.0
  0
VERTEX
  5
E0
  8
LAYER_1
 10
2.936753064733669
 20
0.7150480304504132
 30
0.0
  0
VERTEX
  5
E1
  8
LAYER_1
 10
2.95170937868555
 20
0.7211515460754132
 30
0.0
  0
VERTEX
  5
E2
  8
LAYER_1
 10
2.965531410972607
 20
0.7276655636362539
 30
0.0
  0
VERTEX
  5
E3
  8
LAYER_1
 10
2.978219161594841
 20
0.7345900831329353
 30
0.0
  0
VERTEX
  5
E4
  8
LAYER_1
 10
2.989772630552253
 20
0.7419251045654576
 30
0.0
  0
VERTEX
  5
E5
  8
LAYER_1
 10
3.000191817844841
 20
0.7496706279338202
 30
0.0
  0
VERTEX
  5
E6
  8
LAYER_1
 10
3.009735987853138
 20
0.7577294290953245
 30
0.0
  0
VERTEX
  5
E7
  8
LAYER_1
 10
3.018664404957673
 20
0.7660042839072715
 30
0.0
  0
VERTEX
  5
E8
  8
LAYER_1
 10
3.026977069158447
 20
0.7744951923696608
 30
0.0
  0
VERTEX
  5
E9
  8
LAYER_1
 10
3.034673980455461
 20
0.7832021544824928
 30
0.0
  0
VERTEX
  5
EA
  8
LAYER_1
 10
3.041755138848713
 20
0.792125170245767
 30
0.0
  0
VERTEX
  5
EB
  8
LAYER_1
 10
3.048220544338204
 20
0.8012642396594839
 30
0.0
  0
VERTEX
  5
EC
  8
LAYER_1
 10
3.054070196923934
 20
0.8106193627236431
 30
0.0
  0
VERTEX
  5
ED
  8
LAYER_1
 10
3.059304096605903
 20
0.8201905394382449
 30
0.0
  0
VERTEX
  5
EE
  8
LAYER_1
 10
3.063922243384111
 20
0.8299777698032891
 30
0.0
  0
VERTEX
  5
EF
  8
LAYER_1
 10
3.067924637258558
 20
0.8399810538187759
 30
0.0
  0
VERTEX
  5
F0
  8
LAYER_1
 10
3.071311278229244
 20
0.8502003914847049
 30
0.0
  0
VERTEX
  5
F1
  8
LAYER_1
 10
3.074082166296169
 20
0.8606357828010767
 30
0.0
  0
VERTEX
  5
F2
  8
LAYER_1
 10
3.076237301459332
 20
0.8712872277678907
 30
0.0
  0
VERTEX
  5
F3
  8
LAYER_1
 10
3.077776683718735
 20
0.8821547263851474
 30
0.0
  0
VERTEX
  5
F4
  8
LAYER_1
 10
3.078700313074376
 20
0.8932382786528463
 30
0.0
  0
VERTEX
  5
F5
  8
LAYER_1
 10
3.079008189526257
 20
0.9045378845709878
 30
0.0
  0
VERTEX
  5
F6
  8
LAYER_1
 10
3.078576082225372
 20
0.9202989983707668
 30
0.0
  0
VERTEX
  5
F7
  8
LAYER_1
 10
3.077279760322717
 20
0.9371619857878022
 30
0.0
  0
VERTEX
  5
F8
  8
LAYER_1
 10
3.075119223818293
 20
0.9551268468220944
 30
0.0
  0
VERTEX
  5
F9
  8
LAYER_1
 10
3.072094472712098
 20
0.9741935814736431
 30
0.0
  0
VERTEX
  5
FA
  8
LAYER_1
 10
3.068205507004134
 20
0.9943621897424484
 30
0.0
  0
VERTEX
  5
FB
  8
LAYER_1
 10
3.063452326694399
 20
1.01563267162851
 30
0.0
  0
VERTEX
  5
FC
  8
LAYER_1
 10
3.057834931782895
 20
1.038005027131829
 30
0.0
  0
VERTEX
  5
FD
  8
LAYER_1
 10
3.05135332226962
 20
1.061479256252404
 30
0.0
  0
VERTEX
  5
FE
  8
LAYER_1
 10
3.044007498154576
 20
1.086055358990236
 30
0.0
  0
VERTEX
  5
FF
  8
LAYER_1
 10
3.035797459437762
 20
1.111733335345324
 30
0.0
  0
VERTEX
  5
100
  8
LAYER_1
 10
3.026723206119178
 20
1.13851318531767
 30
0.0
  0
VERTEX
  5
101
  8
LAYER_1
 10
3.016784738198824
 20
1.166394908907271
 30
0.0
  0
VERTEX
  5
102
  8
LAYER_1
 10
3.005982055676701
 20
1.19537850611413
 30
0.0
  0
VERTEX
  5
103
  8
LAYER_1
 10
2.994315158552807
 20
1.225463976938245
 30
0.0
  0
VERTEX
  5
104
  8
LAYER_1
 10
2.981784046827143
 20
1.256651321379616
 30
0.0
  0
VERTEX
  5
105
  8
LAYER_1
 10
2.968388720499709
 20
1.288940539438245
 30
0.0
  0
SEQEND
  5
106
  8
LAYER_1
  0
POLYLINE
  5
44
  8
LAYER_1
 66
     1
 10
0.0
 20
0.0
 30
0.0
 70
     1
  0
VERTEX
  5
107
  8
LAYER_1
 10
7.346917065232736
 20
4.417865044247788
 30
0.0
  0
VERTEX
  5
108
  8
LAYER_1
 10
7.346917065232736
 20
4.31554203539823
 30
0.0
  0
VERTEX
  5
109
  8
LAYER_1
 10
7.322405778590037
 20
4.310832065818585
 30
0.0
  0
VERTEX
  5
10A
  8
LAYER_1
 10
7.298650679723888
 20
4.305689988938054
 30
0.0
  0
VERTEX
  5
10B
  8
LAYER_1
 10
7.275651768634287
 20
4.300115804756638
 30
0.0
  0
VERTEX
  5
10C
  8
LAYER_1
 10
7.253409045321234
 20
4.294109513274337
 30
0.0
  0
VERTEX
  5
10D
  8
LAYER_1
 10
7.231922509784729
 20
4.28767111449115
 30
0.0
  0
VERTEX
  5
10E
  8
LAYER_1
 10
7.211192162024774
 20
4.28080060840708
 30
0.0
  0
VERTEX
  5
10F
  8
LAYER_1
 10
7.191218002041366
 20
4.273497995022124
 30
0.0
  0
VERTEX
  5
110
  8
LAYER_1
 10
7.172000029834509
 20
4.265763274336283
 30
0.0
  0
VERTEX
  5
111
  8
LAYER_1
 10
7.153538245404198
 20
4.257596446349558
 30
0.0
  0
VERTEX
  5
112
  8
LAYER_1
 10
7.135832648750437
 20
4.248997511061948
 30
0.0
  0
VERTEX
  5
113
  8
LAYER_1
 10
7.118883239873224
 20
4.239966468473451
 30
0.0
  0
VERTEX
  5
114
  8
LAYER_1
 10
7.102690018772561
 20
4.230503318584071
 30
0.0
  0
VERTEX
  5
115
  8
LAYER_1
 10
7.087252985448446
 20
4.220608061393806
 30
0.0
  0
VERTEX
  5
116
  8
LAYER_1
 10
7.072572139900879
 20
4.210280696902656
 30
0.0
  0
VERTEX
  5
117
  8
LAYER_1
 10
7.05864748212986
 20
4.19952122511062
 30
0.0
  0
VERTEX
  5
118
  8
LAYER_1
 10
7.045479012135392
 20
4.188329646017698
 30
0.0
  0
VERTEX
  5
119
  8
LAYER_1
 10
7.027287294768136
 20
4.170829300331858
 30
0.0
  0
VERTEX
  5
11A
  8
LAYER_1
 10
7.00935484178141
 20
4.152205475663716
 30
0.0
  0
VERTEX
  5
11B
  8
LAYER_1
 10
6.991681653175215
 20
4.132458172013274
 30
0.0
  0
VERTEX
  5
11C
  8
LAYER_1
 10
6.974267728949552
 20
4.111587389380531
 30
0.0
  0
VERTEX
  5
11D
  8
LAYER_1
 10
6.957113069104419
 20
4.089593127765486
 30
0.0
  0
VERTEX
  5
11E
  8
LAYER_1
 10
6.940217673639816
 20
4.066475387168142
 30
0.0
  0
VERTEX
  5
11F
  8
LAYER_1
 10
6.923581542555747
 20
4.042234167588496
 30
0.0
  0
VERTEX
  5
120
  8
LAYER_1
 10
6.907204675852206
 20
4.016869469026549
 30
0.0
  0
VERTEX
  5
121
  8
LAYER_1
 10
6.891087073529198
 20
3.990381291482301
 30
0.0
  0
VERTEX
  5
122
  8
LAYER_1
 10
6.875228735586719
 20
3.962769634955752
 30
0.0
  0
VERTEX
  5
123
  8
LAYER_1
 10
6.859629662024773
 20
3.934034499446903
 30
0.0
  0
VERTEX
  5
124
  8
LAYER_1
 10
6.844289852843357
 20
3.904175884955752
 30
0.0
  0
VERTEX
  5
125
  8
LAYER_1
 10
6.829209308042472
 20
3.8731937914823
 30
0.0
  0
VERTEX
  5
126
  8
LAYER_1
 10
6.814388027622118
 20
3.841088219026548
 30
0.0
  0
VERTEX
  5
127
  8
LAYER_1
 10
6.799826011582295
 20
3.807859167588495
 30
0.0
  0
VERTEX
  5
128
  8
LAYER_1
 10
6.785523259923004
 20
3.773506637168141
 30
0.0
  0
VERTEX
  5
129
  8
LAYER_1
 10
5.477448038684063
 20
0.5821349557522125
 30
0.0
  0
VERTEX
  5
12A
  8
LAYER_1
 10
5.375125029834507
 20
0.5821349557522125
 30
0.0
  0
VERTEX
  5
12B
  8
LAYER_1
 10
3.970257773197364
 20
3.814988938053098
 30
0.0
  0
VERTEX
  5
12C
  8
LAYER_1
 10
3.944288124414178
 20
3.874187638274337
 30
0.0
  0
VERTEX
  5
12D
  8
LAYER_1
 10
3.920306169215063
 20
3.927336836283186
 30
0.0
  0
VERTEX
  5
12E
  8
LAYER_1
 10
3.898311907600019
 20
3.974436532079647
 30
0.0
  0
VERTEX
  5
12F
  8
LAYER_1
 10
3.878305339569045
 20
4.015486725663718
 30
0.0
  0
VERTEX
  5
130
  8
LAYER_1
 10
3.860286465122142
 20
4.050487417035399
 30
0.0
  0
VERTEX
  5
131
  8
LAYER_1
 10
3.84425528425931
 20
4.079438606194691
 30
0.0
  0
VERTEX
  5
132
  8
LAYER_1
 10
3.836985078921921
 20
4.091645637444691
 30
0.0
  0
VERTEX
  5
133
  8
LAYER_1
 10
3.830211796980549
 20
4.102340293141593
 30
0.0
  0
VERTEX
  5
134
  8
LAYER_1
 10
3.823935438435195
 20
4.111522573285398
 30
0.0
  0
VERTEX
  5
135
  8
LAYER_1
 10
3.818156003285859
 20
4.119192477876106
 30
0.0
  0
VERTEX
  5
136
  8
LAYER_1
 10
3.809389626419155
 20
4.129762902724003
 30
0.0
  0
VERTEX
  5
137
  8
LAYER_1
 10
3.800374787854443
 20
4.140041655143804
 30
0.0
  0
VERTEX
  5
138
  8
LAYER_1
 10
3.791111487591722
 20
4.150028735135509
 30
0.0
  0
VERTEX
  5
139
  8
LAYER_1
 10
3.781599725630991
 20
4.159724142699115
 30
0.0
  0
VERTEX
  5
13A
  8
LAYER_1
 10
3.771839501972252
 20
4.169127877834624
 30
0.0
  0
VERTEX
  5
13B
  8
LAYER_1
 10
3.761830816615504
 20
4.178239940542035
 30
0.0
  0
VERTEX
  5
13C
  8
LAYER_1
 10
3.751573669560748
 20
4.18706033082135
 30
0.0
  0
VERTEX
  5
13D
  8
LAYER_1
 10
3.741068060807982
 20
4.195589048672566
 30
0.0
  0
VERTEX
  5
13E
  8
LAYER_1
 10
3.730313990357208
 20
4.203826094095685
 30
0.0
  0
VERTEX
  5
13F
  8
LAYER_1
 10
3.719311458208425
 20
4.211771467090707
 30
0.0
  0
VERTEX
  5
140
  8
LAYER_1
 10
3.708060464361633
 20
4.219425167657632
 30
0.0
  0
VERTEX
  5
141
  8
LAYER_1
 10
3.696561008816833
 20
4.22678719579646
 30
0.0
  0
VERTEX
  5
142
  8
LAYER_1
 10
3.684813091574023
 20
4.23385755150719
 30
0.0
  0
VERTEX
  5
143
  8
LAYER_1
 10
3.672816712633205
 20
4.240636234789822
 30
0.0
  0
VERTEX
  5
144
  8
LAYER_1
 10
3.660571871994377
 20
4.247123245644357
 30
0.0
  0
VERTEX
  5
145
  8
LAYER_1
 10
3.648078569657541
 20
4.253318584070795
 30
0.0
  0
VERTEX
  5
146
  8
LAYER_1
 10
3.635185568067386
 20
4.259233052751657
 30
0.0
  0
VERTEX
  5
147
  8
LAYER_1
 10
3.621741629668603
 20
4.264877454369468
 30
0.0
  0
VERTEX
  5
148
  8
LAYER_1
 10
3.607746754461191
 20
4.270251788924225
 30
0.0
  0
VERTEX
  5
149
  8
LAYER_1
 10
3.593200942445152
 20
4.275356056415928
 30
0.0
  0
VERTEX
  5
14A
  8
LAYER_1
 10
3.578104193620483
 20
4.28019025684458
 30
0.0
  0
VERTEX
  5
14B
  8
LAYER_1
 10
3.562456507987187
 20
4.284754390210177
 30
0.0
  0
VERTEX
  5
14C
  8
LAYER_1
 10
3.546257885545262
 20
4.289048456512721
 30
0.0
  0
VERTEX
  5
14D
  8
LAYER_1
 10
3.529508326294708
 20
4.293072455752212
 30
0.0
  0
VERTEX
  5
14E
  8
LAYER_1
 10
3.512207830235527
 20
4.29682638792865
 30
0.0
  0
VERTEX
  5
14F
  8
LAYER_1
 10
3.494356397367717
 20
4.300310253042036
 30
0.0
  0
VERTEX
  5
150
  8
LAYER_1
 10
3.475954027691279
 20
4.303524051092367
 30
0.0
  0
VERTEX
  5
151
  8
LAYER_1
 10
3.457000721206212
 20
4.306467782079646
 30
0.0
  0
VERTEX
  5
152
  8
LAYER_1
 10
3.437496477912518
 20
4.309141446003872
 30
0.0
  0
VERTEX
  5
153
  8
LAYER_1
 10
3.417441297810194
 20
4.311545042865044
 30
0.0
  0
VERTEX
  5
154
  8
LAYER_1
 10
3.396835180899243
 20
4.313678572663163
 30
0.0
  0
VERTEX
  5
155
  8
LAYER_1
 10
3.375678127179663
 20
4.31554203539823
 30
0.0
  0
VERTEX
  5
156
  8
LAYER_1
 10
3.375678127179663
 20
4.417865044247788
 30
0.0
  0
VERTEX
  5
157
  8
LAYER_1
 10
4.907757773197343
 20
4.417865044247788
 30
0.0
  0
VERTEX
  5
158
  8
LAYER_1
 10
4.907757773197343
 20
4.31554203539823
 30
0.0
  0
VERTEX
  5
159
  8
LAYER_1
 10
4.875976281217255
 20
4.312279625276548
 30
0.0
  0
VERTEX
  5
15A
  8
LAYER_1
 10
4.845620743330088
 20
4.308714740044247
 30
0.0
  0
VERTEX
  5
15B
  8
LAYER_1
 10
4.816691159535839
 20
4.304847379701327
 30
0.0
  0
VERTEX
  5
15C
  8
LAYER_1
 10
4.789187529834513
 20
4.300677544247788
 30
0.0
  0
VERTEX
  5
15D
  8
LAYER_1
 10
4.763109854226107
 20
4.296205233683628
 30
0.0
  0
VERTEX
  5
15E
  8
LAYER_1
 10
4.738458132710621
 20
4.29143044800885
 30
0.0
  0
VERTEX
  5
15F
  8
LAYER_1
 10
4.715232365288055
 20
4.286353187223451
 30
0.0
  0
VERTEX
  5
160
  8
LAYER_1
 10
4.693432551958409
 20
4.280973451327434
 30
0.0
  0
VERTEX
  5
161
  8
LAYER_1
 10
4.673058692721684
 20
4.275291240320795
 30
0.0
  0
VERTEX
  5
162
  8
LAYER_1
 10
4.65411078757788
 20
4.26930655420354
 30
0.0
  0
VERTEX
  5
163
  8
LAYER_1
 10
4.636588836526994
 20
4.263019392975663
 30
0.0
  0
VERTEX
  5
164
  8
LAYER_1
 10
4.62049283956903
 20
4.256429756637168
 30
0.0
  0
VERTEX
  5
165
  8
LAYER_1
 10
4.605822796703986
 20
4.249537645188052
 30
0.0
  0
VERTEX
  5
166
  8
LAYER_1
 10
4.592578707931863
 20
4.242343058628318
 30
0.0
  0
VERTEX
  5
167
  8
LAYER_1
 10
4.58076057325266
 20
4.234845996957964
 30
0.0
  0
VERTEX
  5
168
  8
LAYER_1
 10
4.570368392666377
 20
4.22704646017699
 30
0.0
  0
VERTEX
  5
169
  8
LAYER_1
 10
4.560991664237173
 20
4.21895525096792
 30
0.0
  0
VERTEX
  5
16A
  8
LAYER_1
 10
4.55221988602921
 20
4.210583172013274
 30
0.0
  0
VERTEX
  5
16B
  8
LAYER_1
 10
4.544053058042484
 20
4.201930223313052
 30
0.0
  0
VERTEX
  5
16C
  8
LAYER_1
 10
4.536491180276998
 20
4.192996404867256
 30
0.0
  0
VERTEX
  5
16D
  8
LAYER_1
 10
4.52953425273275
 20
4.183781716675885
 30
0.0
  0
VERTEX
  5
16E
  8
LAYER_1
 10
4.523182275409741
 20
4.174286158738937
 30
0.0
  0
VERTEX
  5
16F
  8
LAYER_1
 10
4.517435248307971
 20
4.164509731056416
 30
0.0
  0
VERTEX
  5
170
  8
LAYER_1
 10
4.512293171427441
 20
4.154452433628318
 30
0.0
  0
VERTEX
  5
171
  8
LAYER_1
 10
4.507756044768149
 20
4.144114266454645
 30
0.0
  0
VERTEX
  5
172
  8
LAYER_1
 10
4.503823868330096
 20
4.133495229535397
 30
0.0
  0
VERTEX
  5
173
  8
LAYER_1
 10
4.500496642113282
 20
4.122595322870575
 30
0.0
  0
VERTEX
  5
174
  8
LAYER_1
 10
4.497774366117707
 20
4.111414546460176
 30
0.0
  0
VERTEX
  5
175
  8
LAYER_1
 10
4.495657040343371
 20
4.099952900304202
 30
0.0
  0
VERTEX
  5
176
  8
LAYER_1
 10
4.494144664790274
 20
4.088210384402653
 30
0.0
  0
VERTEX
  5
177
  8
LAYER_1
 10
4.493237239458415
 20
4.07618699875553
 30
0.0
  0
VERTEX
  5
178
  8
LAYER_1
 10
4.492934764347796
 20
4.063882743362831
 30
0.0
  0
VERTEX
  5
179
  8
LAYER_1
 10
4.493431687743813
 20
4.045993501106194
 30
0.0
  0
VERTEX
  5
17A
  8
LAYER_1
 10
4.494922457931867
 20
4.026894358407079
 30
0.0
  0
VERTEX
  5
17B
  8
LAYER_1
 10
4.497407074911955
 20
4.006585315265486
 30
0.0
  0
VERTEX
  5
17C
  8
LAYER_1
 10
4.500885538684079
 20
3.985066371681416
 30
0.0
  0
VERTEX
  5
17D
  8
LAYER_1
 10
4.505357849248238
 20
3.962337527654867
 30
0.0
  0
VERTEX
  5
17E
  8
LAYER_1
 10
4.510824006604432
 20
3.938398783185841
 30
0.0
  0
VERTEX
  5
17F
  8
LAYER_1
 10
4.517284010752661
 20
3.913250138274337
 30
0.0
  0
VERTEX
  5
180
  8
LAYER_1
 10
4.524737861692927
 20
3.886891592920354
 30
0.0
  0
VERTEX
  5
181
  8
LAYER_1
 10
4.533185559425227
 20
3.859323147123894
 30
0.0
  0
VERTEX
  5
182
  8
LAYER_1
 10
4.542627103949563
 20
3.830544800884956
 30
0.0
  0
VERTEX
  5
183
  8
LAYER_1
 10
4.553062495265934
 20
3.80055655420354
 30
0.0
  0
VERTEX
  5
184
  8
LAYER_1
 10
4.564491733374341
 20
3.769358407079646
 30
0.0
  0
VERTEX
  5
185
  8
LAYER_1
 10
4.576914818274783
 20
3.736950359513274
 30
0.0
  0
VERTEX
  5
186
  8
LAYER_1
 10
4.590331749967262
 20
3.703332411504425
 30
0.0
  0
VERTEX
  5
187
  8
LAYER_1
 10
4.604742528451775
 20
3.668504563053097
 30
0.0
  0
VERTEX
  5
188
  8
LAYER_1
 10
4.620147153728323
 20
3.632466814159292
 30
0.0
  0
VERTEX
  5
189
  8
LAYER_1
 10
5.574240074082292
 20
1.433904867256637
 30
0.0
  0
VERTEX
  5
18A
  8
LAYER_1
 10
6.459195826294684
 20
3.604811946902655
 30
0.0
  0
VERTEX
  5
18B
  8
LAYER_1
 10
6.474935334729418
 20
3.644144513965708
 30
0.0
  0
VERTEX
  5
18C
  8
LAYER_1
 10
6.489659391007072
 20
3.68194310011062
 30
0.0
  0
VERTEX
  5
18D
  8
LAYER_1
 10
6.503367995127647
 20
3.71820770533739
 30
0.0
  0
VERTEX
  5
18E
  8
LAYER_1
 10
6.516061147091142
 20
3.752938329646017
 30
0.0
  0
VERTEX
  5
18F
  8
LAYER_1
 10
6.527738846897558
 20
3.786134973036504
 30
0.0
  0
VERTEX
  5
190
  8
LAYER_1
 10
6.538401094546893
 20
3.817797635508849
 30
0.0
  0
VERTEX
  5
191
  8
LAYER_1
 10
6.54804789003915
 20
3.847926317063053
 30
0.0
  0
VERTEX
  5
192
  8
LAYER_1
 10
6.556679233374328
 20
3.876521017699115
 30
0.0
  0
VERTEX
  5
193
  8
LAYER_1
 10
6.564295124552425
 20
3.903581737417035
 30
0.0
  0
VERTEX
  5
194
  8
LAYER_1
 10
6.570895563573442
 20
3.929108476216814
 30
0.0
  0
VERTEX
  5
195
  8
LAYER_1
 10
6.576480550437381
 20
3.953101234098451
 30
0.0
  0
VERTEX
  5
196
  8
LAYER_1
 10
6.581050085144239
 20
3.975560011061947
 30
0.0
  0
VERTEX
  5
197
  8
LAYER_1
 10
6.584604167694017
 20
3.996484807107302
 30
0.0
  0
VERTEX
  5
198
  8
LAYER_1
 10
6.587142798086716
 20
4.015875622234514
 30
0.0
  0
VERTEX
  5
199
  8
LAYER_1
 10
6.588665976322336
 20
4.033732456443586
 30
0.0
  0
VERTEX
  5
19A
  8
LAYER_1
 10
6.589173702400876
 20
4.050055309734515
 30
0.0
  0
VERTEX
  5
19B
  8
LAYER_1
 10
6.588860424607734
 20
4.06005319240874
 30
0.0
  0
VERTEX
  5
19C
  8
LAYER_1
 10
6.587920591228309
 20
4.069997061670354
 30
0.0
  0
VERTEX
  5
19D
  8
LAYER_1
 10
6.586354202262601
 20
4.079886917519358
 30
0.0
  0
VERTEX
  5
19E
  8
LAYER_1
 10
6.58416125771061
 20
4.089722759955752
 30
0.0
  0
VERTEX
  5
19F
  8
LAYER_1
 10
6.581341757572336
 20
4.099504588979535
 30
0.0
  0
VERTEX
  5
1A0
  8
LAYER_1
 10
6.57789570184778
 20
4.109232404590706
 30
0.0
  0
VERTEX
  5
1A1
  8
LAYER_1
 10
6.573823090536939
 20
4.118906206789268
 30
0.0
  0
VERTEX
  5
1A2
  8
LAYER_1
 10
6.569123923639815
 20
4.128525995575219
 30
0.0
  0
VERTEX
  5
1A3
  8
LAYER_1
 10
6.563798201156407
 20
4.138091770948559
 30
0.0
  0
VERTEX
  5
1A4
  8
LAYER_1
 10
6.557845923086719
 20
4.14760353290929
 30
0.0
  0
VERTEX
  5
1A5
  8
LAYER_1
 10
6.551267089430745
 20
4.15706128145741
 30
0.0
  0
VERTEX
  5
1A6
  8
LAYER_1
 10
6.544061700188488
 20
4.166465016592919
 30
0.0
  0
VERTEX
  5
1A7
  8
LAYER_1
 10
6.536229755359948
 20
4.175814738315816
 30
0.0
  0
VERTEX
  5
1A8
  8
LAYER_1
 10
6.527771254945126
 20
4.185110446626105
 30
0.0
  0
VERTEX
  5
1A9
  8
LAYER_1
 10
6.518686198944019
 20
4.194352141523782
 30
0.0
  0
VERTEX
  5
1AA
  8
LAYER_1
 10
6.508974587356629
 20
4.203539823008849
 30
0.0
  0
VERTEX
  5
1AB
  8
LAYER_1
 10
6.498517590675213
 20
4.212533056208517
 30
0.0
  0
VERTEX
  5
1AC
  8
LAYER_1
 10
6.487196379392028
 20
4.22119140625
 30
0.0
  0
VERTEX
  5
1AD
  8
LAYER_1
 10
6.475010953507072
 20
4.229514873133295
 30
0.0
  0
VERTEX
  5
1AE
  8
LAYER_1
 10
6.461961313020347
 20
4.237503456858406
 30
0.0
  0
VERTEX
  5
1AF
  8
LAYER_1
 10
6.448047457931852
 20
4.24515715742533
 30
0.0
  0
VERTEX
  5
1B0
  8
LAYER_1
 10
6.433269388241587
 20
4.25247597483407
 30
0.0
  0
VERTEX
  5
1B1
  8
LAYER_1
 10
6.417627103949551
 20
4.259459909084622
 30
0.0
  0
VERTEX
  5
1B2
  8
LAYER_1
 10
6.401120605055746
 20
4.266108960176989
 30
0.0
  0
VERTEX
  5
1B3
  8
LAYER_1
 10
6.383749891560171
 20
4.272423128111171
 30
0.0
  0
VERTEX
  5
1B4
  8
LAYER_1
 10
6.365514963462826
 20
4.278402412887167
 30
0.0
  0
VERTEX
  5
1B5
  8
LAYER_1
 10
6.346415820763711
 20
4.284046814504976
 30
0.0
  0
VERTEX
  5
1B6
  8
LAYER_1
 10
6.326452463462825
 20
4.289356332964601
 30
0.0
  0
VERTEX
  5
1B7
  8
LAYER_1
 10
6.30562489156017
 20
4.294330968266039
 30
0.0
  0
VERTEX
  5
1B8
  8
LAYER_1
 10
6.283933105055746
 20
4.298970720409292
 30
0.0
  0
VERTEX
  5
1B9
  8
LAYER_1
 10
6.261377103949551
 20
4.303275589394358
 30
0.0
  0
VERTEX
  5
1BA
  8
LAYER_1
 10
6.237956888241586
 20
4.307245575221239
 30
0.0
  0
VERTEX
  5
1BB
  8
LAYER_1
 10
6.219289852843357
 20
4.310702433628318
 30
0.0
  0
VERTEX
  5
1BC
  8
LAYER_1
 10
6.190943613905302
 20
4.31554203539823
 30
0.0
  0
VERTEX
  5
1BD
  8
LAYER_1
 10
6.190943613905302
 20
4.417865044247788
 30
0.0
  0
SEQEND
  5
1BE
  8
LAYER_1
  0
POLYLINE
  5
45
  8
LAYER_1
 66
     1
 10
0.0
 20
0.0
 30
0.0
 70
     1
  0
VERTEX
  5
1BF
  8
LAYER_1
 10
3.380442588929434
 20
2.237225734188303
 30
0.0
  0
VERTEX
  5
1C0
  8
LAYER_1
 10
3.381292943521126
 20
2.246425987128009
 30
0.0
  0
VERTEX
  5
1C1
  8
LAYER_1
 10
3.382731259367266
 20
2.256503856581928
 30
0.0
  0
VERTEX
  5
1C2
  8
LAYER_1
 10
3.384734224093921
 20
2.267389395745347
 30
0.0
  0
VERTEX
  5
1C3
  8
LAYER_1
 10
3.387278525327161
 20
2.279012657813551
 30
0.0
  0
VERTEX
  5
1C4
  8
LAYER_1
 10
3.390340850693055
 20
2.291303695981828
 30
0.0
  0
VERTEX
  5
1C5
  8
LAYER_1
 10
3.393897887817672
 20
2.304192563445463
 30
0.0
  0
VERTEX
  5
1C6
  8
LAYER_1
 10
3.402402847847354
 20
2.331483999039954
 30
0.0
  0
VERTEX
  5
1C7
  8
LAYER_1
 10
3.412606906424759
 20
2.360327390159316
 30
0.0
  0
VERTEX
  5
1C8
  8
LAYER_1
 10
3.424323564558442
 20
2.390163162365837
 30
0.0
  0
VERTEX
  5
1C9
  8
LAYER_1
 10
3.437366323256956
 20
2.420431741221811
 30
0.0
  0
VERTEX
  5
1CA
  8
LAYER_1
 10
3.451548683528855
 20
2.450573552289526
 30
0.0
  0
VERTEX
  5
1CB
  8
LAYER_1
 10
3.491590410030711
 20
2.527125442780977
 30
0.0
  0
VERTEX
  5
1CC
  8
LAYER_1
 10
3.507095107325362
 20
2.552060363584189
 30
0.0
  0
VERTEX
  5
1CD
  8
LAYER_1
 10
3.527431484932163
 20
2.582755127845811
 30
0.0
  0
VERTEX
  5
1CE
  8
LAYER_1
 10
3.551781984595765
 20
2.618003292220909
 30
0.0
  0
VERTEX
  5
1CF
  8
LAYER_1
 10
3.579329048060818
 20
2.656598413364546
 30
0.0
  0
VERTEX
  5
1D0
  8
LAYER_1
 10
3.595787700318102
 20
2.679727286801002
 30
0.0
  0
VERTEX
  5
1D1
  8
LAYER_1
 10
3.610976453108199
 20
2.701927138731043
 30
0.0
  0
VERTEX
  5
1D2
  8
LAYER_1
 10
3.624923046695979
 20
2.723262620155623
 30
0.0
  0
VERTEX
  5
1D3
  8
LAYER_1
 10
3.63765522134631
 20
2.743798382075697
 30
0.0
  0
VERTEX
  5
1D4
  8
LAYER_1
 10
3.649200717324059
 20
2.76359907549222
 30
0.0
  0
VERTEX
  5
1D5
  8
LAYER_1
 10
3.659587274894096
 20
2.782729351406148
 30
0.0
  0
VERTEX
  5
1D6
  8
LAYER_1
 10
3.668842634321288
 20
2.801253860818435
 30
0.0
  0
VERTEX
  5
1D7
  8
LAYER_1
 10
3.676994535870504
 20
2.819237254730037
 30
0.0
  0
VERTEX
  5
1D8
  8
LAYER_1
 10
3.684070719806612
 20
2.836744184141908
 30
0.0
  0
VERTEX
  5
1D9
  8
LAYER_1
 10
3.690098926394481
 20
2.853839300055005
 30
0.0
  0
VERTEX
  5
1DA
  8
LAYER_1
 10
3.695106895898979
 20
2.87058725347028
 30
0.0
  0
VERTEX
  5
1DB
  8
LAYER_1
 10
3.699122368584974
 20
2.887052695388691
 30
0.0
  0
VERTEX
  5
1DC
  8
LAYER_1
 10
3.702173084717336
 20
2.903300276811192
 30
0.0
  0
VERTEX
  5
1DD
  8
LAYER_1
 10
3.70428678456093
 20
2.919394648738737
 30
0.0
  0
VERTEX
  5
1DE
  8
LAYER_1
 10
3.705491208380627
 20
2.935400462172283
 30
0.0
  0
VERTEX
  5
1DF
  8
LAYER_1
 10
3.705814096441295
 20
2.951382368112784
 30
0.0
  0
VERTEX
  5
1E0
  8
LAYER_1
 10
3.705532433485556
 20
2.962509398316296
 30
0.0
  0
VERTEX
  5
1E1
  8
LAYER_1
 10
3.704837814655957
 20
2.973629563476312
 30
0.0
  0
VERTEX
  5
1E2
  8
LAYER_1
 10
3.703728932372624
 20
2.984747149735585
 30
0.0
  0
VERTEX
  5
1E3
  8
LAYER_1
 10
3.70220447905568
 20
2.995866443236868
 30
0.0
  0
VERTEX
  5
1E4
  8
LAYER_1
 10
3.700263147125248
 20
3.006991730122915
 30
0.0
  0
VERTEX
  5
1E5
  8
LAYER_1
 10
3.697903629001452
 20
3.018127296536478
 30
0.0
  0
VERTEX
  5
1E6
  8
LAYER_1
 10
3.695124617104416
 20
3.029277428620311
 30
0.0
  0
VERTEX
  5
1E7
  8
LAYER_1
 10
3.691924803854264
 20
3.040446412517166
 30
0.0
  0
VERTEX
  5
1E8
  8
LAYER_1
 10
3.688302881671119
 20
3.051638534369797
 30
0.0
  0
VERTEX
  5
1E9
  8
LAYER_1
 10
3.684257542975104
 20
3.062858080320957
 30
0.0
  0
VERTEX
  5
1EA
  8
LAYER_1
 10
3.679787480186343
 20
3.074109336513399
 30
0.0
  0
VERTEX
  5
1EB
  8
LAYER_1
 10
3.674891385724961
 20
3.085396589089877
 30
0.0
  0
VERTEX
  5
1EC
  8
LAYER_1
 10
3.66956795201108
 20
3.096724124193142
 30
0.0
  0
VERTEX
  5
1ED
  8
LAYER_1
 10
3.663815871464824
 20
3.108096227965949
 30
0.0
  0
VERTEX
  5
1EE
  8
LAYER_1
 10
3.657633836506318
 20
3.11951718655105
 30
0.0
  0
VERTEX
  5
1EF
  8
LAYER_1
 10
3.651020539555684
 20
3.130991286091198
 30
0.0
  0
VERTEX
  5
1F0
  8
LAYER_1
 10
3.638390145521671
 20
3.151282223470024
 30
0.0
  0
VERTEX
  5
1F1
  8
LAYER_1
 10
3.625296374779967
 20
3.17039217506435
 30
0.0
  0
VERTEX
  5
1F2
  8
LAYER_1
 10
3.611741144744833
 20
3.188319779690619
 30
0.0
  0
VERTEX
  5
1F3
  8
LAYER_1
 10
3.597726372830533
 20
3.205063676165277
 30
0.0
  0
VERTEX
  5
1F4
  8
LAYER_1
 10
3.583253976451329
 20
3.220622503304765
 30
0.0
  0
VERTEX
  5
1F5
  8
LAYER_1
 10
3.568325873021482
 20
3.234994899925529
 30
0.0
  0
VERTEX
  5
1F6
  8
LAYER_1
 10
3.552943979955257
 20
3.248179504844013
 30
0.0
  0
VERTEX
  5
1F7
  8
LAYER_1
 10
3.545083461500459
 20
3.254325960045039
 30
0.0
  0
VERTEX
  5
1F8
  8
LAYER_1
 10
3.537110214666915
 20
3.26017495687666
 30
0.0
  0
VERTEX
  5
1F9
  8
LAYER_1
 10
3.529024479131407
 20
3.265726325190933
 30
0.0
  0
VERTEX
  5
1FA
  8
LAYER_1
 10
3.520826494570718
 20
3.270979894839914
 30
0.0
  0
VERTEX
  5
1FB
  8
LAYER_1
 10
3.512516500661631
 20
3.275935495675657
 30
0.0
  0
VERTEX
  5
1FC
  8
LAYER_1
 10
3.504094737080929
 20
3.280592957550219
 30
0.0
  0
VERTEX
  5
1FD
  8
LAYER_1
 10
3.495561443505394
 20
3.284952110315655
 30
0.0
  0
VERTEX
  5
1FE
  8
LAYER_1
 10
3.48691685961181
 20
3.28901278382402
 30
0.0
  0
VERTEX
  5
1FF
  8
LAYER_1
 10
3.478161225076959
 20
3.292774807927369
 30
0.0
  0
VERTEX
  5
200
  8
LAYER_1
 10
3.469294779577624
 20
3.296238012477759
 30
0.0
  0
VERTEX
  5
201
  8
LAYER_1
 10
3.460317762790588
 20
3.299402227327245
 30
0.0
  0
VERTEX
  5
202
  8
LAYER_1
 10
3.451230414392635
 20
3.302267282327882
 30
0.0
  0
VERTEX
  5
203
  8
LAYER_1
 10
3.442032974060545
 20
3.304833007331725
 30
0.0
  0
VERTEX
  5
204
  8
LAYER_1
 10
3.432725681471102
 20
3.307099232190831
 30
0.0
  0
VERTEX
  5
205
  8
LAYER_1
 10
3.42330877630109
 20
3.309065786757255
 30
0.0
  0
VERTEX
  5
206
  8
LAYER_1
 10
3.41378249822729
 20
3.310732500883052
 30
0.0
  0
VERTEX
  5
207
  8
LAYER_1
 10
3.404147086926486
 20
3.312099204420278
 30
0.0
  0
VERTEX
  5
208
  8
LAYER_1
 10
3.394402782075461
 20
3.313165727220988
 30
0.0
  0
VERTEX
  5
209
  8
LAYER_1
 10
3.376301045193142
 20
3.314362659349848
 30
0.0
  0
VERTEX
  5
20A
  8
LAYER_1
 10
3.359018434062507
 20
3.314443657890576
 30
0.0
  0
VERTEX
  5
20B
  8
LAYER_1
 10
3.350602360311288
 20
3.314051112596086
 30
0.0
  0
VERTEX
  5
20C
  8
LAYER_1
 10
3.342292739586652
 20
3.313362100541398
 30
0.0
  0
VERTEX
  5
20D
  8
LAYER_1
 10
3.334056795751486
 20
3.312370793938787
 30
0.0
  0
VERTEX
  5
20E
  8
LAYER_1
 10
3.325861752668676
 20
3.311071365000534
 30
0.0
  0
VERTEX
  5
20F
  8
LAYER_1
 10
3.317674834201111
 20
3.309457985938915
 30
0.0
  0
VERTEX
  5
210
  8
LAYER_1
 10
3.309463264211678
 20
3.307524828966209
 30
0.0
  0
VERTEX
  5
211
  8
LAYER_1
 10
3.292835065118757
 20
3.302675870136646
 30
0.0
  0
VERTEX
  5
212
  8
LAYER_1
 10
3.27571494629301
 20
3.296477866210068
 30
0.0
  0
VERTEX
  5
213
  8
LAYER_1
 10
3.257840698637536
 20
3.2888841948847
 30
0.0
  0
VERTEX
  5
214
  8
LAYER_1
 10
3.241868131199699
 20
3.281311658098473
 30
0.0
  0
VERTEX
  5
215
  8
LAYER_1
 10
3.227518485019714
 20
3.273736138166745
 30
0.0
  0
VERTEX
  5
216
  8
LAYER_1
 10
3.214456001364916
 20
3.265910261774645
 30
0.0
  0
VERTEX
  5
217
  8
LAYER_1
 10
3.202344921502643
 20
3.257586655607306
 30
0.0
  0
VERTEX
  5
218
  8
LAYER_1
 10
3.19084948670023
 20
3.248517946349858
 30
0.0
  0
VERTEX
  5
219
  8
LAYER_1
 10
3.179633938225016
 20
3.238456760687432
 30
0.0
  0
VERTEX
  5
21A
  8
LAYER_1
 10
3.168362517344334
 20
3.227155725305158
 30
0.0
  0
VERTEX
  5
21B
  8
LAYER_1
 10
3.156699465325523
 20
3.214367466888169
 30
0.0
  0
VERTEX
  5
21C
  8
LAYER_1
 10
3.148110877545872
 20
3.204073191187715
 30
0.0
  0
VERTEX
  5
21D
  8
LAYER_1
 10
3.139882550892968
 20
3.193153267909837
 30
0.0
  0
VERTEX
  5
21E
  8
LAYER_1
 10
3.132033278952054
 20
3.181655543205571
 30
0.0
  0
VERTEX
  5
21F
  8
LAYER_1
 10
3.124581855308374
 20
3.169627863225954
 30
0.0
  0
VERTEX
  5
220
  8
LAYER_1
 10
3.117547073547168
 20
3.157118074122022
 30
0.0
  0
VERTEX
  5
221
  8
LAYER_1
 10
3.11094772725368
 20
3.144174022044809
 30
0.0
  0
VERTEX
  5
222
  8
LAYER_1
 10
3.104802610013152
 20
3.130843553145354
 30
0.0
  0
VERTEX
  5
223
  8
LAYER_1
 10
3.099130515410826
 20
3.11717451357469
 30
0.0
  0
VERTEX
  5
224
  8
LAYER_1
 10
3.093950237031944
 20
3.103214749483856
 30
0.0
  0
VERTEX
  5
225
  8
LAYER_1
 10
3.08928056846175
 20
3.089012107023885
 30
0.0
  0
VERTEX
  5
226
  8
LAYER_1
 10
3.085140303285486
 20
3.074614432345816
 30
0.0
  0
VERTEX
  5
227
  8
LAYER_1
 10
3.081548235088393
 20
3.060069571600683
 30
0.0
  0
VERTEX
  5
228
  8
LAYER_1
 10
3.078523157455714
 20
3.045425370939523
 30
0.0
  0
VERTEX
  5
229
  8
LAYER_1
 10
3.076083863972693
 20
3.030729676513372
 30
0.0
  0
VERTEX
  5
22A
  8
LAYER_1
 10
3.07424914822457
 20
3.016030334473267
 30
0.0
  0
VERTEX
  5
22B
  8
LAYER_1
 10
3.07303780379659
 20
3.001375190970241
 30
0.0
  0
VERTEX
  5
22C
  8
LAYER_1
 10
3.071473719613346
 20
2.984319508922654
 30
0.0
  0
VERTEX
  5
22D
  8
LAYER_1
 10
3.070580843705805
 20
2.97894933515368
 30
0.0
  0
VERTEX
  5
22E
  8
LAYER_1
 10
3.069757588027549
 20
2.976761137717717
 30
0.0
  0
VERTEX
  5
22F
  8
LAYER_1
 10
3.067402981871056
 20
2.977919440790171
 30
0.0
  0
VERTEX
  5
230
  8
LAYER_1
 10
3.062340587334664
 20
2.981661025831248
 30
0.0
  0
VERTEX
  5
231
  8
LAYER_1
 10
3.055314835707063
 20
2.987401927390489
 30
0.0
  0
VERTEX
  5
232
  8
LAYER_1
 10
3.047070158276944
 20
2.994558180017434
 30
0.0
  0
VERTEX
  5
233
  8
LAYER_1
 10
3.032165458012309
 20
3.007230187229594
 30
0.0
  0
VERTEX
  5
234
  8
LAYER_1
 10
3.016841119655802
 20
3.019069105739506
 30
0.0
  0
VERTEX
  5
235
  8
LAYER_1
 10
3.001135581585241
 20
3.03006125715941
 30
0.0
  0
VERTEX
  5
236
  8
LAYER_1
 10
2.985087282178442
 20
3.040192963101544
 30
0.0
  0
VERTEX
  5
237
  8
LAYER_1
 10
2.968734659813224
 20
3.049450545178147
 30
0.0
  0
VERTEX
  5
238
  8
LAYER_1
 10
2.952116152867402
 20
3.057820325001458
 30
0.0
  0
VERTEX
  5
239
  8
LAYER_1
 10
2.935270199718796
 20
3.065288624183716
 30
0.0
  0
VERTEX
  5
23A
  8
LAYER_1
 10
2.918235238745221
 20
3.071841764337159
 30
0.0
  0
VERTEX
  5
23B
  8
LAYER_1
 10
2.901049708324496
 20
3.077466067074027
 30
0.0
  0
VERTEX
  5
23C
  8
LAYER_1
 10
2.883752046834438
 20
3.08214785400656
 30
0.0
  0
VERTEX
  5
23D
  8
LAYER_1
 10
2.866380692652863
 20
3.085873446746994
 30
0.0
  0
VERTEX
  5
23E
  8
LAYER_1
 10
2.84897408415759
 20
3.08862916690757
 30
0.0
  0
VERTEX
  5
23F
  8
LAYER_1
 10
2.831570659726436
 20
3.090401336100526
 30
0.0
  0
VERTEX
  5
240
  8
LAYER_1
 10
2.814208857737218
 20
3.091176275938102
 30
0.0
  0
VERTEX
  5
241
  8
LAYER_1
 10
2.796927116567752
 20
3.090940308032535
 30
0.0
  0
VERTEX
  5
242
  8
LAYER_1
 10
2.779763874595857
 20
3.089679753996065
 30
0.0
  0
VERTEX
  5
243
  8
LAYER_1
 10
2.767924146804629
 20
3.088112892193257
 30
0.0
  0
VERTEX
  5
244
  8
LAYER_1
 10
2.755961395928188
 20
3.085876920966029
 30
0.0
  0
VERTEX
  5
245
  8
LAYER_1
 10
2.743929689523312
 20
3.082999738256929
 30
0.0
  0
VERTEX
  5
246
  8
LAYER_1
 10
2.731883095146774
 20
3.079509242008506
 30
0.0
  0
VERTEX
  5
247
  8
LAYER_1
 10
2.719875680355351
 20
3.075433330163309
 30
0.0
  0
VERTEX
  5
248
  8
LAYER_1
 10
2.707961512705817
 20
3.070799900663885
 30
0.0
  0
VERTEX
  5
249
  8
LAYER_1
 10
2.69619465975495
 20
3.065636851452784
 30
0.0
  0
VERTEX
  5
24A
  8
LAYER_1
 10
2.684629189059522
 20
3.059972080472554
 30
0.0
  0
VERTEX
  5
24B
  8
LAYER_1
 10
2.67331916817631
 20
3.053833485665744
 30
0.0
  0
VERTEX
  5
24C
  8
LAYER_1
 10
2.662318664662091
 20
3.047248964974903
 30
0.0
  0
VERTEX
  5
24D
  8
LAYER_1
 10
2.651681746073637
 20
3.040246416342578
 30
0.0
  0
VERTEX
  5
24E
  8
LAYER_1
 10
2.641462479967726
 20
3.032853737711319
 30
0.0
  0
VERTEX
  5
24F
  8
LAYER_1
 10
2.631714933901133
 20
3.025098827023674
 30
0.0
  0
VERTEX
  5
250
  8
LAYER_1
 10
2.622493175430631
 20
3.017009582222193
 30
0.0
  0
VERTEX
  5
251
  8
LAYER_1
 10
2.613851272112998
 20
3.008613901249422
 30
0.0
  0
VERTEX
  5
252
  8
LAYER_1
 10
2.605843291505009
 20
2.999939682047911
 30
0.0
  0
VERTEX
  5
253
  8
LAYER_1
 10
2.598642556438408
 20
2.991343570848907
 30
0.0
  0
VERTEX
  5
254
  8
LAYER_1
 10
2.591808941582029
 20
2.982504435785551
 30
0.0
  0
VERTEX
  5
255
  8
LAYER_1
 10
2.585343160359267
 20
2.973428116506009
 30
0.0
  0
VERTEX
  5
256
  8
LAYER_1
 10
2.57924592619352
 20
2.964120452658449
 30
0.0
  0
VERTEX
  5
257
  8
LAYER_1
 10
2.573517952508183
 20
2.954587283891039
 30
0.0
  0
VERTEX
  5
258
  8
LAYER_1
 10
2.568159952726652
 20
2.944834449851946
 30
0.0
  0
VERTEX
  5
259
  8
LAYER_1
 10
2.563172640272325
 20
2.934867790189339
 30
0.0
  0
VERTEX
  5
25A
  8
LAYER_1
 10
2.558556728568596
 20
2.924693144551384
 30
0.0
  0
VERTEX
  5
25B
  8
LAYER_1
 10
2.554312931038864
 20
2.91431635258625
 30
0.0
  0
VERTEX
  5
25C
  8
LAYER_1
 10
2.550441961106523
 20
2.903743253942105
 30
0.0
  0
VERTEX
  5
25D
  8
LAYER_1
 10
2.546944532194969
 20
2.892979688267115
 30
0.0
  0
VERTEX
  5
25E
  8
LAYER_1
 10
2.543821357727601
 20
2.882031495209449
 30
0.0
  0
VERTEX
  5
25F
  8
LAYER_1
 10
2.541073151127812
 20
2.870904514417274
 30
0.0
  0
VERTEX
  5
260
  8
LAYER_1
 10
2.538700625819001
 20
2.859604585538758
 30
0.0
  0
VERTEX
  5
261
  8
LAYER_1
 10
2.536704495224563
 20
2.848137548222069
 30
0.0
  0
VERTEX
  5
262
  8
LAYER_1
 10
2.535085472767895
 20
2.836509242115375
 30
0.0
  0
VERTEX
  5
263
  8
LAYER_1
 10
2.533844271872392
 20
2.824725506866843
 30
0.0
  0
VERTEX
  5
264
  8
LAYER_1
 10
2.532981605961452
 20
2.812792182124641
 30
0.0
  0
VERTEX
  5
265
  8
LAYER_1
 10
2.53249818845847
 20
2.800715107536936
 30
0.0
  0
VERTEX
  5
266
  8
LAYER_1
 10
2.532394732786842
 20
2.788500122751897
 30
0.0
  0
VERTEX
  5
267
  8
LAYER_1
 10
2.532671952369966
 20
2.77615306741769
 30
0.0
  0
VERTEX
  5
268
  8
LAYER_1
 10
2.533330560631236
 20
2.763679781182484
 30
0.0
  0
VERTEX
  5
269
  8
LAYER_1
 10
2.53437127099405
 20
2.751086103694447
 30
0.0
  0
VERTEX
  5
26A
  8
LAYER_1
 10
2.535794796881805
 20
2.738377874601746
 30
0.0
  0
VERTEX
  5
26B
  8
LAYER_1
 10
2.537601851717895
 20
2.725560933552548
 30
0.0
  0
VERTEX
  5
26C
  8
LAYER_1
 10
2.539793148925718
 20
2.712641120195022
 30
0.0
  0
VERTEX
  5
26D
  8
LAYER_1
 10
2.542369401928669
 20
2.699624274177336
 30
0.0
  0
VERTEX
  5
26E
  8
LAYER_1
 10
2.545331324150145
 20
2.686516235147656
 30
0.0
  0
VERTEX
  5
26F
  8
LAYER_1
 10
2.548679629013543
 20
2.673322842754152
 30
0.0
  0
VERTEX
  5
270
  8
LAYER_1
 10
2.552415029942258
 20
2.660049936644989
 30
0.0
  0
VERTEX
  5
271
  8
LAYER_1
 10
2.556538240359687
 20
2.646703356468336
 30
0.0
  0
VERTEX
  5
272
  8
LAYER_1
 10
2.561049973689227
 20
2.633288941872362
 30
0.0
  0
VERTEX
  5
273
  8
LAYER_1
 10
2.567684662536878
 20
2.61564603394618
 30
0.0
  0
VERTEX
  5
274
  8
LAYER_1
 10
2.57498756814414
 20
2.598730615580232
 30
0.0
  0
VERTEX
  5
275
  8
LAYER_1
 10
2.582966950610131
 20
2.582534043383622
 30
0.0
  0
VERTEX
  5
276
  8
LAYER_1
 10
2.591631070033966
 20
2.567047673965452
 30
0.0
  0
VERTEX
  5
277
  8
LAYER_1
 10
2.60098818651476
 20
2.552262863934827
 30
0.0
  0
VERTEX
  5
278
  8
LAYER_1
 10
2.611046560151629
 20
2.538170969900851
 30
0.0
  0
VERTEX
  5
279
  8
LAYER_1
 10
2.621814451043688
 20
2.524763348472628
 30
0.0
  0
VERTEX
  5
27A
  8
LAYER_1
 10
2.633300119290054
 20
2.512031356259261
 30
0.0
  0
VERTEX
  5
27B
  8
LAYER_1
 10
2.645511824989841
 20
2.499966349869854
 30
0.0
  0
VERTEX
  5
27C
  8
LAYER_1
 10
2.658457828242165
 20
2.488559685913511
 30
0.0
  0
VERTEX
  5
27D
  8
LAYER_1
 10
2.672146389146143
 20
2.477802720999337
 30
0.0
  0
VERTEX
  5
27E
  8
LAYER_1
 10
2.686585767800889
 20
2.467686811736435
 30
0.0
  0
VERTEX
  5
27F
  8
LAYER_1
 10
2.701784224305519
 20
2.458203314733908
 30
0.0
  0
VERTEX
  5
280
  8
LAYER_1
 10
2.717750018759149
 20
2.44934358660086
 30
0.0
  0
VERTEX
  5
281
  8
LAYER_1
 10
2.734491411260895
 20
2.441098983946396
 30
0.0
  0
VERTEX
  5
282
  8
LAYER_1
 10
2.752016661909872
 20
2.433460863379619
 30
0.0
  0
VERTEX
  5
283
  8
LAYER_1
 10
2.803457327877801
 20
2.413868130636365
 30
0.0
  0
VERTEX
  5
284
  8
LAYER_1
 10
2.815747772949931
 20
2.410479247136376
 30
0.0
  0
VERTEX
  5
285
  8
LAYER_1
 10
2.831594180191747
 20
2.406630556177318
 30
0.0
  0
VERTEX
  5
286
  8
LAYER_1
 10
2.871685565066909
 20
2.398012289004019
 30
0.0
  0
VERTEX
  5
287
  8
LAYER_1
 10
2.91919285026824
 20
2.388930403360514
 30
0.0
  0
VERTEX
  5
288
  8
LAYER_1
 10
2.96957740356069
 20
2.380301973490844
 30
0.0
  0
VERTEX
  5
289
  8
LAYER_1
 10
3.07357720730905
 20
2.36135856882916
 30
0.0
  0
VERTEX
  5
28A
  8
LAYER_1
 10
3.093299775827291
 20
2.356656542566989
 30
0.0
  0
VERTEX
  5
28B
  8
LAYER_1
 10
3.113264375687234
 20
2.351325887961159
 30
0.0
  0
VERTEX
  5
28C
  8
LAYER_1
 10
3.133361364795288
 20
2.345414542627837
 30
0.0
  0
VERTEX
  5
28D
  8
LAYER_1
 10
3.153481101057861
 20
2.338970444183191
 30
0.0
  0
VERTEX
  5
28E
  8
LAYER_1
 10
3.173513942381361
 20
2.332041530243391
 30
0.0
  0
VERTEX
  5
28F
  8
LAYER_1
 10
3.193350246672197
 20
2.324675738424605
 30
0.0
  0
VERTEX
  5
290
  8
LAYER_1
 10
3.212880371836778
 20
2.316921006343002
 30
0.0
  0
VERTEX
  5
291
  8
LAYER_1
 10
3.231994675781513
 20
2.30882527161475
 30
0.0
  0
VERTEX
  5
292
  8
LAYER_1
 10
3.250583516412809
 20
2.300436471856017
 30
0.0
  0
VERTEX
  5
293
  8
LAYER_1
 10
3.268537251637076
 20
2.291802544682973
 30
0.0
  0
VERTEX
  5
294
  8
LAYER_1
 10
3.285746239360722
 20
2.282971427711785
 30
0.0
  0
VERTEX
  5
295
  8
LAYER_1
 10
3.302100837490155
 20
2.273991058558622
 30
0.0
  0
VERTEX
  5
296
  8
LAYER_1
 10
3.317491403931784
 20
2.264909374839654
 30
0.0
  0
VERTEX
  5
297
  8
LAYER_1
 10
3.331808296592019
 20
2.255774314171047
 30
0.0
  0
VERTEX
  5
298
  8
LAYER_1
 10
3.344941873377266
 20
2.246633814168971
 30
0.0
  0
VERTEX
  5
299
  8
LAYER_1
 10
3.356782492193935
 20
2.237535812449595
 30
0.0
  0
VERTEX
  5
29A
  8
LAYER_1
 10
3.3793133417185
 20
2.219239130434783
 30
0.0
  0
SEQEND
  5
29B
  8
LAYER_1
  0
POLYLINE
  5
46
  8
LAYER_1
 66
     1
 10
0.0
 20
0.0
 30
0.0
 70
     1
  0
VERTEX
  5
29C
  8
LAYER_1
 10
4.406249403632339
 20
2.246681212449172
 30
0.0
  0
VERTEX
  5
29D
  8
LAYER_1
 10
4.407099758224032
 20
2.255881465388879
 30
0.0
  0
VERTEX
  5
29E
  8
LAYER_1
 10
4.408538074070171
 20
2.265959334842798
 30
0.0
  0
VERTEX
  5
29F
  8
LAYER_1
 10
4.410541038796826
 20
2.276844874006217
 30
0.0
  0
VERTEX
  5
2A0
  8
LAYER_1
 10
4.413085340030066
 20
2.288468136074421
 30
0.0
  0
VERTEX
  5
2A1
  8
LAYER_1
 10
4.416147665395961
 20
2.300759174242698
 30
0.0
  0
VERTEX
  5
2A2
  8
LAYER_1
 10
4.419704702520578
 20
2.313648041706333
 30
0.0
  0
VERTEX
  5
2A3
  8
LAYER_1
 10
4.428209662550259
 20
2.340939477300824
 30
0.0
  0
VERTEX
  5
2A4
  8
LAYER_1
 10
4.438413721127665
 20
2.369782868420185
 30
0.0
  0
VERTEX
  5
2A5
  8
LAYER_1
 10
4.450130379261347
 20
2.399618640626707
 30
0.0
  0
VERTEX
  5
2A6
  8
LAYER_1
 10
4.463173137959862
 20
2.42988721948268
 30
0.0
  0
VERTEX
  5
2A7
  8
LAYER_1
 10
4.477355498231759
 20
2.460029030550396
 30
0.0
  0
VERTEX
  5
2A8
  8
LAYER_1
 10
4.517397224733616
 20
2.536580921041846
 30
0.0
  0
VERTEX
  5
2A9
  8
LAYER_1
 10
4.532901922028267
 20
2.561515841845059
 30
0.0
  0
VERTEX
  5
2AA
  8
LAYER_1
 10
4.553238299635068
 20
2.592210606106681
 30
0.0
  0
VERTEX
  5
2AB
  8
LAYER_1
 10
4.57758879929867
 20
2.627458770481779
 30
0.0
  0
VERTEX
  5
2AC
  8
LAYER_1
 10
4.605135862763722
 20
2.666053891625416
 30
0.0
  0
VERTEX
  5
2AD
  8
LAYER_1
 10
4.621594515021007
 20
2.689182765061872
 30
0.0
  0
VERTEX
  5
2AE
  8
LAYER_1
 10
4.636783267811104
 20
2.711382616991913
 30
0.0
  0
VERTEX
  5
2AF
  8
LAYER_1
 10
4.650729861398884
 20
2.732718098416493
 30
0.0
  0
VERTEX
  5
2B0
  8
LAYER_1
 10
4.663462036049214
 20
2.753253860336567
 30
0.0
  0
VERTEX
  5
2B1
  8
LAYER_1
 10
4.675007532026964
 20
2.77305455375309
 30
0.0
  0
VERTEX
  5
2B2
  8
LAYER_1
 10
4.685394089597001
 20
2.792184829667018
 30
0.0
  0
VERTEX
  5
2B3
  8
LAYER_1
 10
4.694649449024192
 20
2.810709339079305
 30
0.0
  0
VERTEX
  5
2B4
  8
LAYER_1
 10
4.702801350573409
 20
2.828692732990907
 30
0.0
  0
VERTEX
  5
2B5
  8
LAYER_1
 10
4.709877534509516
 20
2.846199662402778
 30
0.0
  0
VERTEX
  5
2B6
  8
LAYER_1
 10
4.715905741097385
 20
2.863294778315874
 30
0.0
  0
VERTEX
  5
2B7
  8
LAYER_1
 10
4.720913710601884
 20
2.88004273173115
 30
0.0
  0
VERTEX
  5
2B8
  8
LAYER_1
 10
4.724929183287879
 20
2.89650817364956
 30
0.0
  0
VERTEX
  5
2B9
  8
LAYER_1
 10
4.727979899420241
 20
2.912755755072061
 30
0.0
  0
VERTEX
  5
2BA
  8
LAYER_1
 10
4.730093599263835
 20
2.928850126999607
 30
0.0
  0
VERTEX
  5
2BB
  8
LAYER_1
 10
4.731298023083532
 20
2.944855940433153
 30
0.0
  0
VERTEX
  5
2BC
  8
LAYER_1
 10
4.7316209111442
 20
2.960837846373654
 30
0.0
  0
VERTEX
  5
2BD
  8
LAYER_1
 10
4.731339248188459
 20
2.971964876577165
 30
0.0
  0
VERTEX
  5
2BE
  8
LAYER_1
 10
4.730644629358861
 20
2.983085041737181
 30
0.0
  0
VERTEX
  5
2BF
  8
LAYER_1
 10
4.729535747075529
 20
2.994202627996455
 30
0.0
  0
VERTEX
  5
2C0
  8
LAYER_1
 10
4.728011293758584
 20
3.005321921497738
 30
0.0
  0
VERTEX
  5
2C1
  8
LAYER_1
 10
4.726069961828152
 20
3.016447208383785
 30
0.0
  0
VERTEX
  5
2C2
  8
LAYER_1
 10
4.723710443704356
 20
3.027582774797348
 30
0.0
  0
VERTEX
  5
2C3
  8
LAYER_1
 10
4.720931431807321
 20
3.03873290688118
 30
0.0
  0
VERTEX
  5
2C4
  8
LAYER_1
 10
4.717731618557169
 20
3.049901890778036
 30
0.0
  0
VERTEX
  5
2C5
  8
LAYER_1
 10
4.714109696374023
 20
3.061094012630667
 30
0.0
  0
VERTEX
  5
2C6
  8
LAYER_1
 10
4.710064357678008
 20
3.072313558581827
 30
0.0
  0
VERTEX
  5
2C7
  8
LAYER_1
 10
4.705594294889249
 20
3.083564814774269
 30
0.0
  0
VERTEX
  5
2C8
  8
LAYER_1
 10
4.700698200427865
 20
3.094852067350747
 30
0.0
  0
VERTEX
  5
2C9
  8
LAYER_1
 10
4.695374766713984
 20
3.106179602454012
 30
0.0
  0
VERTEX
  5
2CA
  8
LAYER_1
 10
4.689622686167729
 20
3.117551706226819
 30
0.0
  0
VERTEX
  5
2CB
  8
LAYER_1
 10
4.683440651209223
 20
3.128972664811919
 30
0.0
  0
VERTEX
  5
2CC
  8
LAYER_1
 10
4.676827354258588
 20
3.140446764352068
 30
0.0
  0
VERTEX
  5
2CD
  8
LAYER_1
 10
4.664196960224576
 20
3.160737701730894
 30
0.0
  0
VERTEX
  5
2CE
  8
LAYER_1
 10
4.651103189482872
 20
3.179847653325219
 30
0.0
  0
VERTEX
  5
2CF
  8
LAYER_1
 10
4.63754795944774
 20
3.197775257951489
 30
0.0
  0
VERTEX
  5
2D0
  8
LAYER_1
 10
4.62353318753344
 20
3.214519154426146
 30
0.0
  0
VERTEX
  5
2D1
  8
LAYER_1
 10
4.609060791154235
 20
3.230077981565635
 30
0.0
  0
VERTEX
  5
2D2
  8
LAYER_1
 10
4.594132687724389
 20
3.244450378186399
 30
0.0
  0
VERTEX
  5
2D3
  8
LAYER_1
 10
4.578750794658163
 20
3.257634983104882
 30
0.0
  0
VERTEX
  5
2D4
  8
LAYER_1
 10
4.570890276203365
 20
3.263781438305908
 30
0.0
  0
VERTEX
  5
2D5
  8
LAYER_1
 10
4.56291702936982
 20
3.269630435137529
 30
0.0
  0
VERTEX
  5
2D6
  8
LAYER_1
 10
4.554831293834312
 20
3.275181803451802
 30
0.0
  0
VERTEX
  5
2D7
  8
LAYER_1
 10
4.546633309273623
 20
3.280435373100783
 30
0.0
  0
VERTEX
  5
2D8
  8
LAYER_1
 10
4.538323315364535
 20
3.285390973936527
 30
0.0
  0
VERTEX
  5
2D9
  8
LAYER_1
 10
4.529901551783833
 20
3.290048435811088
 30
0.0
  0
VERTEX
  5
2DA
  8
LAYER_1
 10
4.5213682582083
 20
3.294407588576524
 30
0.0
  0
VERTEX
  5
2DB
  8
LAYER_1
 10
4.512723674314715
 20
3.298468262084889
 30
0.0
  0
VERTEX
  5
2DC
  8
LAYER_1
 10
4.503968039779864
 20
3.302230286188239
 30
0.0
  0
VERTEX
  5
2DD
  8
LAYER_1
 10
4.495101594280529
 20
3.305693490738629
 30
0.0
  0
VERTEX
  5
2DE
  8
LAYER_1
 10
4.486124577493493
 20
3.308857705588115
 30
0.0
  0
VERTEX
  5
2DF
  8
LAYER_1
 10
4.477037229095539
 20
3.311722760588752
 30
0.0
  0
VERTEX
  5
2E0
  8
LAYER_1
 10
4.467839788763449
 20
3.314288485592595
 30
0.0
  0
VERTEX
  5
2E1
  8
LAYER_1
 10
4.458532496174007
 20
3.316554710451701
 30
0.0
  0
VERTEX
  5
2E2
  8
LAYER_1
 10
4.449115591003995
 20
3.318521265018125
 30
0.0
  0
VERTEX
  5
2E3
  8
LAYER_1
 10
4.439589312930195
 20
3.320187979143922
 30
0.0
  0
VERTEX
  5
2E4
  8
LAYER_1
 10
4.429953901629391
 20
3.321554682681147
 30
0.0
  0
VERTEX
  5
2E5
  8
LAYER_1
 10
4.420209596778365
 20
3.322621205481857
 30
0.0
  0
VERTEX
  5
2E6
  8
LAYER_1
 10
4.402107859896048
 20
3.323818137610717
 30
0.0
  0
VERTEX
  5
2E7
  8
LAYER_1
 10
4.384825248765412
 20
3.323899136151446
 30
0.0
  0
VERTEX
  5
2E8
  8
LAYER_1
 10
4.376409175014194
 20
3.323506590856956
 30
0.0
  0
VERTEX
  5
2E9
  8
LAYER_1
 10
4.368099554289557
 20
3.322817578802267
 30
0.0
  0
VERTEX
  5
2EA
  8
LAYER_1
 10
4.35986361045439
 20
3.321826272199656
 30
0.0
  0
VERTEX
  5
2EB
  8
LAYER_1
 10
4.351668567371581
 20
3.320526843261403
 30
0.0
  0
VERTEX
  5
2EC
  8
LAYER_1
 10
4.343481648904016
 20
3.318913464199784
 30
0.0
  0
VERTEX
  5
2ED
  8
LAYER_1
 10
4.335270078914584
 20
3.316980307227078
 30
0.0
  0
VERTEX
  5
2EE
  8
LAYER_1
 10
4.318641879821662
 20
3.312131348397515
 30
0.0
  0
VERTEX
  5
2EF
  8
LAYER_1
 10
4.301521760995914
 20
3.305933344470938
 30
0.0
  0
VERTEX
  5
2F0
  8
LAYER_1
 10
4.283647513340441
 20
3.29833967314557
 30
0.0
  0
VERTEX
  5
2F1
  8
LAYER_1
 10
4.267674945902604
 20
3.290767136359343
 30
0.0
  0
VERTEX
  5
2F2
  8
LAYER_1
 10
4.253325299722619
 20
3.283191616427614
 30
0.0
  0
VERTEX
  5
2F3
  8
LAYER_1
 10
4.240262816067822
 20
3.275365740035515
 30
0.0
  0
VERTEX
  5
2F4
  8
LAYER_1
 10
4.228151736205549
 20
3.267042133868176
 30
0.0
  0
VERTEX
  5
2F5
  8
LAYER_1
 10
4.216656301403136
 20
3.257973424610728
 30
0.0
  0
VERTEX
  5
2F6
  8
LAYER_1
 10
4.20544075292792
 20
3.247912238948301
 30
0.0
  0
VERTEX
  5
2F7
  8
LAYER_1
 10
4.194169332047238
 20
3.236611203566028
 30
0.0
  0
VERTEX
  5
2F8
  8
LAYER_1
 10
4.182506280028428
 20
3.223822945149038
 30
0.0
  0
VERTEX
  5
2F9
  8
LAYER_1
 10
4.173917692248777
 20
3.213528669448584
 30
0.0
  0
VERTEX
  5
2FA
  8
LAYER_1
 10
4.165689365595873
 20
3.202608746170707
 30
0.0
  0
VERTEX
  5
2FB
  8
LAYER_1
 10
4.15784009365496
 20
3.191111021466441
 30
0.0
  0
VERTEX
  5
2FC
  8
LAYER_1
 10
4.15038867001128
 20
3.179083341486824
 30
0.0
  0
VERTEX
  5
2FD
  8
LAYER_1
 10
4.143353888250074
 20
3.166573552382891
 30
0.0
  0
VERTEX
  5
2FE
  8
LAYER_1
 10
4.136754541956586
 20
3.153629500305679
 30
0.0
  0
VERTEX
  5
2FF
  8
LAYER_1
 10
4.130609424716058
 20
3.140299031406223
 30
0.0
  0
VERTEX
  5
300
  8
LAYER_1
 10
4.124937330113731
 20
3.12662999183556
 30
0.0
  0
VERTEX
  5
301
  8
LAYER_1
 10
4.119757051734849
 20
3.112670227744725
 30
0.0
  0
VERTEX
  5
302
  8
LAYER_1
 10
4.115087383164655
 20
3.098467585284755
 30
0.0
  0
VERTEX
  5
303
  8
LAYER_1
 10
4.110947117988392
 20
3.084069910606686
 30
0.0
  0
VERTEX
  5
304
  8
LAYER_1
 10
4.107355049791298
 20
3.069525049861553
 30
0.0
  0
VERTEX
  5
305
  8
LAYER_1
 10
4.10432997215862
 20
3.054880849200393
 30
0.0
  0
VERTEX
  5
306
  8
LAYER_1
 10
4.101890678675598
 20
3.040185154774242
 30
0.0
  0
VERTEX
  5
307
  8
LAYER_1
 10
4.100055962927476
 20
3.025485812734136
 30
0.0
  0
VERTEX
  5
308
  8
LAYER_1
 10
4.098844618499495
 20
3.010830669231111
 30
0.0
  0
VERTEX
  5
309
  8
LAYER_1
 10
4.097280534316251
 20
2.993774987183524
 30
0.0
  0
VERTEX
  5
30A
  8
LAYER_1
 10
4.096387658408711
 20
2.98840481341455
 30
0.0
  0
VERTEX
  5
30B
  8
LAYER_1
 10
4.095564402730453
 20
2.986216615978586
 30
0.0
  0
VERTEX
  5
30C
  8
LAYER_1
 10
4.093209796573961
 20
2.987374919051041
 30
0.0
  0
VERTEX
  5
30D
  8
LAYER_1
 10
4.088147402037569
 20
2.991116504092118
 30
0.0
  0
VERTEX
  5
30E
  8
LAYER_1
 10
4.081121650409967
 20
2.996857405651359
 30
0.0
  0
VERTEX
  5
30F
  8
LAYER_1
 10
4.072876972979849
 20
3.004013658278303
 30
0.0
  0
VERTEX
  5
310
  8
LAYER_1
 10
4.057972272715213
 20
3.016685665490463
 30
0.0
  0
VERTEX
  5
311
  8
LAYER_1
 10
4.042647934358707
 20
3.028524584000376
 30
0.0
  0
VERTEX
  5
312
  8
LAYER_1
 10
4.026942396288145
 20
3.039516735420279
 30
0.0
  0
VERTEX
  5
313
  8
LAYER_1
 10
4.010894096881346
 20
3.049648441362413
 30
0.0
  0
VERTEX
  5
314
  8
LAYER_1
 10
3.994541474516128
 20
3.058906023439016
 30
0.0
  0
VERTEX
  5
315
  8
LAYER_1
 10
3.977922967570307
 20
3.067275803262327
 30
0.0
  0
VERTEX
  5
316
  8
LAYER_1
 10
3.961077014421701
 20
3.074744102444585
 30
0.0
  0
VERTEX
  5
317
  8
LAYER_1
 10
3.944042053448126
 20
3.081297242598029
 30
0.0
  0
VERTEX
  5
318
  8
LAYER_1
 10
3.926856523027402
 20
3.086921545334897
 30
0.0
  0
VERTEX
  5
319
  8
LAYER_1
 10
3.909558861537343
 20
3.09160333226743
 30
0.0
  0
VERTEX
  5
31A
  8
LAYER_1
 10
3.892187507355769
 20
3.095328925007863
 30
0.0
  0
VERTEX
  5
31B
  8
LAYER_1
 10
3.874780898860495
 20
3.09808464516844
 30
0.0
  0
VERTEX
  5
31C
  8
LAYER_1
 10
3.857377474429341
 20
3.099856814361396
 30
0.0
  0
VERTEX
  5
31D
  8
LAYER_1
 10
3.840015672440122
 20
3.100631754198971
 30
0.0
  0
VERTEX
  5
31E
  8
LAYER_1
 10
3.822733931270657
 20
3.100395786293404
 30
0.0
  0
VERTEX
  5
31F
  8
LAYER_1
 10
3.805570689298762
 20
3.099135232256935
 30
0.0
  0
VERTEX
  5
320
  8
LAYER_1
 10
3.793730961507533
 20
3.097568370454127
 30
0.0
  0
VERTEX
  5
321
  8
LAYER_1
 10
3.781768210631093
 20
3.095332399226899
 30
0.0
  0
VERTEX
  5
322
  8
LAYER_1
 10
3.769736504226216
 20
3.092455216517799
 30
0.0
  0
VERTEX
  5
323
  8
LAYER_1
 10
3.757689909849678
 20
3.088964720269375
 30
0.0
  0
VERTEX
  5
324
  8
LAYER_1
 10
3.745682495058255
 20
3.084888808424178
 30
0.0
  0
VERTEX
  5
325
  8
LAYER_1
 10
3.733768327408722
 20
3.080255378924754
 30
0.0
  0
VERTEX
  5
326
  8
LAYER_1
 10
3.722001474457855
 20
3.075092329713653
 30
0.0
  0
VERTEX
  5
327
  8
LAYER_1
 10
3.710436003762427
 20
3.069427558733424
 30
0.0
  0
VERTEX
  5
328
  8
LAYER_1
 10
3.699125982879216
 20
3.063288963926614
 30
0.0
  0
VERTEX
  5
329
  8
LAYER_1
 10
3.688125479364996
 20
3.056704443235772
 30
0.0
  0
VERTEX
  5
32A
  8
LAYER_1
 10
3.677488560776542
 20
3.049701894603448
 30
0.0
  0
VERTEX
  5
32B
  8
LAYER_1
 10
3.667269294670631
 20
3.042309215972189
 30
0.0
  0
VERTEX
  5
32C
  8
LAYER_1
 10
3.657521748604037
 20
3.034554305284544
 30
0.0
  0
VERTEX
  5
32D
  8
LAYER_1
 10
3.648299990133536
 20
3.026465060483062
 30
0.0
  0
VERTEX
  5
32E
  8
LAYER_1
 10
3.639658086815903
 20
3.018069379510291
 30
0.0
  0
VERTEX
  5
32F
  8
LAYER_1
 10
3.631650106207914
 20
3.00939516030878
 30
0.0
  0
VERTEX
  5
330
  8
LAYER_1
 10
3.624449371141313
 20
3.000799049109776
 30
0.0
  0
VERTEX
  5
331
  8
LAYER_1
 10
3.617615756284933
 20
2.99195991404642
 30
0.0
  0
VERTEX
  5
332
  8
LAYER_1
 10
3.611149975062172
 20
2.982883594766879
 30
0.0
  0
VERTEX
  5
333
  8
LAYER_1
 10
3.605052740896425
 20
2.973575930919319
 30
0.0
  0
VERTEX
  5
334
  8
LAYER_1
 10
3.599324767211088
 20
2.964042762151909
 30
0.0
  0
VERTEX
  5
335
  8
LAYER_1
 10
3.593966767429557
 20
2.954289928112816
 30
0.0
  0
VERTEX
  5
336
  8
LAYER_1
 10
3.58897945497523
 20
2.944323268450209
 30
0.0
  0
VERTEX
  5
337
  8
LAYER_1
 10
3.584363543271501
 20
2.934148622812254
 30
0.0
  0
VERTEX
  5
338
  8
LAYER_1
 10
3.580119745741768
 20
2.92377183084712
 30
0.0
  0
VERTEX
  5
339
  8
LAYER_1
 10
3.576248775809427
 20
2.913198732202975
 30
0.0
  0
VERTEX
  5
33A
  8
LAYER_1
 10
3.572751346897874
 20
2.902435166527985
 30
0.0
  0
VERTEX
  5
33B
  8
LAYER_1
 10
3.569628172430505
 20
2.891486973470319
 30
0.0
  0
VERTEX
  5
33C
  8
LAYER_1
 10
3.566879965830717
 20
2.880359992678144
 30
0.0
  0
VERTEX
  5
33D
  8
LAYER_1
 10
3.564507440521906
 20
2.869060063799628
 30
0.0
  0
VERTEX
  5
33E
  8
LAYER_1
 10
3.562511309927468
 20
2.857593026482939
 30
0.0
  0
VERTEX
  5
33F
  8
LAYER_1
 10
3.5608922874708
 20
2.845964720376244
 30
0.0
  0
VERTEX
  5
340
  8
LAYER_1
 10
3.559651086575297
 20
2.834180985127712
 30
0.0
  0
VERTEX
  5
341
  8
LAYER_1
 10
3.558788420664356
 20
2.82224766038551
 30
0.0
  0
VERTEX
  5
342
  8
LAYER_1
 10
3.558305003161374
 20
2.810170585797805
 30
0.0
  0
VERTEX
  5
343
  8
LAYER_1
 10
3.558201547489746
 20
2.797955601012766
 30
0.0
  0
VERTEX
  5
344
  8
LAYER_1
 10
3.55847876707287
 20
2.785608545678559
 30
0.0
  0
VERTEX
  5
345
  8
LAYER_1
 10
3.55913737533414
 20
2.773135259443353
 30
0.0
  0
VERTEX
  5
346
  8
LAYER_1
 10
3.560178085696955
 20
2.760541581955316
 30
0.0
  0
VERTEX
  5
347
  8
LAYER_1
 10
3.56160161158471
 20
2.747833352862615
 30
0.0
  0
VERTEX
  5
348
  8
LAYER_1
 10
3.5634086664208
 20
2.735016411813417
 30
0.0
  0
VERTEX
  5
349
  8
LAYER_1
 10
3.565599963628623
 20
2.722096598455892
 30
0.0
  0
VERTEX
  5
34A
  8
LAYER_1
 10
3.568176216631574
 20
2.709079752438206
 30
0.0
  0
VERTEX
  5
34B
  8
LAYER_1
 10
3.57113813885305
 20
2.695971713408526
 30
0.0
  0
VERTEX
  5
34C
  8
LAYER_1
 10
3.574486443716448
 20
2.682778321015022
 30
0.0
  0
VERTEX
  5
34D
  8
LAYER_1
 10
3.578221844645164
 20
2.669505414905859
 30
0.0
  0
VERTEX
  5
34E
  8
LAYER_1
 10
3.582345055062592
 20
2.656158834729206
 30
0.0
  0
VERTEX
  5
34F
  8
LAYER_1
 10
3.586856788392132
 20
2.642744420133231
 30
0.0
  0
VERTEX
  5
350
  8
LAYER_1
 10
3.593491477239782
 20
2.62510151220705
 30
0.0
  0
VERTEX
  5
351
  8
LAYER_1
 10
3.600794382847045
 20
2.608186093841102
 30
0.0
  0
VERTEX
  5
352
  8
LAYER_1
 10
3.608773765313036
 20
2.591989521644492
 30
0.0
  0
VERTEX
  5
353
  8
LAYER_1
 10
3.617437884736871
 20
2.576503152226322
 30
0.0
  0
VERTEX
  5
354
  8
LAYER_1
 10
3.626795001217666
 20
2.561718342195697
 30
0.0
  0
VERTEX
  5
355
  8
LAYER_1
 10
3.636853374854534
 20
2.547626448161721
 30
0.0
  0
VERTEX
  5
356
  8
LAYER_1
 10
3.647621265746594
 20
2.534218826733498
 30
0.0
  0
VERTEX
  5
357
  8
LAYER_1
 10
3.659106933992959
 20
2.521486834520131
 30
0.0
  0
VERTEX
  5
358
  8
LAYER_1
 10
3.671318639692746
 20
2.509421828130724
 30
0.0
  0
VERTEX
  5
359
  8
LAYER_1
 10
3.684264642945071
 20
2.498015164174381
 30
0.0
  0
VERTEX
  5
35A
  8
LAYER_1
 10
3.697953203849048
 20
2.487258199260207
 30
0.0
  0
VERTEX
  5
35B
  8
LAYER_1
 10
3.712392582503794
 20
2.477142289997304
 30
0.0
  0
VERTEX
  5
35C
  8
LAYER_1
 10
3.727591039008425
 20
2.467658792994778
 30
0.0
  0
VERTEX
  5
35D
  8
LAYER_1
 10
3.743556833462055
 20
2.45879906486173
 30
0.0
  0
VERTEX
  5
35E
  8
LAYER_1
 10
3.760298225963801
 20
2.450554462207266
 30
0.0
  0
VERTEX
  5
35F
  8
LAYER_1
 10
3.777823476612777
 20
2.442916341640489
 30
0.0
  0
VERTEX
  5
360
  8
LAYER_1
 10
3.829264142580706
 20
2.423323608897235
 30
0.0
  0
VERTEX
  5
361
  8
LAYER_1
 10
3.841554587652836
 20
2.419934725397246
 30
0.0
  0
VERTEX
  5
362
  8
LAYER_1
 10
3.857400994894652
 20
2.416086034438188
 30
0.0
  0
VERTEX
  5
363
  8
LAYER_1
 10
3.897492379769814
 20
2.407467767264889
 30
0.0
  0
VERTEX
  5
364
  8
LAYER_1
 10
3.944999664971145
 20
2.398385881621383
 30
0.0
  0
VERTEX
  5
365
  8
LAYER_1
 10
3.995384218263595
 20
2.389757451751713
 30
0.0
  0
VERTEX
  5
366
  8
LAYER_1
 10
4.099384022011956
 20
2.37081404709003
 30
0.0
  0
VERTEX
  5
367
  8
LAYER_1
 10
4.119106590530196
 20
2.366112020827859
 30
0.0
  0
VERTEX
  5
368
  8
LAYER_1
 10
4.139071190390139
 20
2.360781366222029
 30
0.0
  0
VERTEX
  5
369
  8
LAYER_1
 10
4.159168179498193
 20
2.354870020888707
 30
0.0
  0
VERTEX
  5
36A
  8
LAYER_1
 10
4.179287915760765
 20
2.348425922444061
 30
0.0
  0
VERTEX
  5
36B
  8
LAYER_1
 10
4.199320757084266
 20
2.341497008504261
 30
0.0
  0
VERTEX
  5
36C
  8
LAYER_1
 10
4.219157061375101
 20
2.334131216685475
 30
0.0
  0
VERTEX
  5
36D
  8
LAYER_1
 10
4.238687186539684
 20
2.326376484603872
 30
0.0
  0
VERTEX
  5
36E
  8
LAYER_1
 10
4.257801490484418
 20
2.318280749875619
 30
0.0
  0
VERTEX
  5
36F
  8
LAYER_1
 10
4.276390331115715
 20
2.309891950116887
 30
0.0
  0
VERTEX
  5
370
  8
LAYER_1
 10
4.294344066339981
 20
2.301258022943842
 30
0.0
  0
VERTEX
  5
371
  8
LAYER_1
 10
4.311553054063627
 20
2.292426905972655
 30
0.0
  0
VERTEX
  5
372
  8
LAYER_1
 10
4.32790765219306
 20
2.283446536819492
 30
0.0
  0
VERTEX
  5
373
  8
LAYER_1
 10
4.34329821863469
 20
2.274364853100523
 30
0.0
  0
VERTEX
  5
374
  8
LAYER_1
 10
4.357615111294924
 20
2.265229792431917
 30
0.0
  0
VERTEX
  5
375
  8
LAYER_1
 10
4.37074868808017
 20
2.256089292429841
 30
0.0
  0
VERTEX
  5
376
  8
LAYER_1
 10
4.38258930689684
 20
2.246991290710465
 30
0.0
  0
VERTEX
  5
377
  8
LAYER_1
 10
4.405120156421406
 20
2.228694608695653
 30
0.0
  0
SEQEND
  5
378
  8
LAYER_1
  0
POLYLINE
  5
47
  8
LAYER_1
 66
     1
 10
0.0
 20
0.0
 30
0.0
 70
     1
  0
VERTEX
  5
379
  8
LAYER_1
 10
1.093551928360984
 20
3.488557112577954
 30
0.0
  0
VERTEX
  5
37A
  8
LAYER_1
 10
1.094402282952677
 20
3.497757365517661
 30
0.0
  0
VERTEX
  5
37B
  8
LAYER_1
 10
1.095840598798816
 20
3.50783523497158
 30
0.0
  0
VERTEX
  5
37C
  8
LAYER_1
 10
1.097843563525471
 20
3.518720774134999
 30
0.0
  0
VERTEX
  5
37D
  8
LAYER_1
 10
1.100387864758711
 20
3.530344036203203
 30
0.0
  0
VERTEX
  5
37E
  8
LAYER_1
 10
1.103450190124605
 20
3.542635074371479
 30
0.0
  0
VERTEX
  5
37F
  8
LAYER_1
 10
1.107007227249223
 20
3.555523941835115
 30
0.0
  0
VERTEX
  5
380
  8
LAYER_1
 10
1.115512187278905
 20
3.582815377429606
 30
0.0
  0
VERTEX
  5
381
  8
LAYER_1
 10
1.12571624585631
 20
3.611658768548967
 30
0.0
  0
VERTEX
  5
382
  8
LAYER_1
 10
1.137432903989993
 20
3.641494540755489
 30
0.0
  0
VERTEX
  5
383
  8
LAYER_1
 10
1.150475662688507
 20
3.671763119611462
 30
0.0
  0
VERTEX
  5
384
  8
LAYER_1
 10
1.164658022960405
 20
3.701904930679178
 30
0.0
  0
VERTEX
  5
385
  8
LAYER_1
 10
1.204699749462262
 20
3.778456821170628
 30
0.0
  0
VERTEX
  5
386
  8
LAYER_1
 10
1.220204446756912
 20
3.80339174197384
 30
0.0
  0
VERTEX
  5
387
  8
LAYER_1
 10
1.240540824363713
 20
3.834086506235463
 30
0.0
  0
VERTEX
  5
388
  8
LAYER_1
 10
1.264891324027316
 20
3.86933467061056
 30
0.0
  0
VERTEX
  5
389
  8
LAYER_1
 10
1.292438387492369
 20
3.907929791754198
 30
0.0
  0
VERTEX
  5
38A
  8
LAYER_1
 10
1.308897039749652
 20
3.931058665190654
 30
0.0
  0
VERTEX
  5
38B
  8
LAYER_1
 10
1.32408579253975
 20
3.953258517120695
 30
0.0
  0
VERTEX
  5
38C
  8
LAYER_1
 10
1.33803238612753
 20
3.974593998545275
 30
0.0
  0
VERTEX
  5
38D
  8
LAYER_1
 10
1.35076456077786
 20
3.995129760465348
 30
0.0
  0
VERTEX
  5
38E
  8
LAYER_1
 10
1.362310056755609
 20
4.014930453881871
 30
0.0
  0
VERTEX
  5
38F
  8
LAYER_1
 10
1.372696614325646
 20
4.034060729795799
 30
0.0
  0
VERTEX
  5
390
  8
LAYER_1
 10
1.381951973752838
 20
4.052585239208087
 30
0.0
  0
VERTEX
  5
391
  8
LAYER_1
 10
1.390103875302054
 20
4.070568633119688
 30
0.0
  0
VERTEX
  5
392
  8
LAYER_1
 10
1.397180059238163
 20
4.088075562531559
 30
0.0
  0
VERTEX
  5
393
  8
LAYER_1
 10
1.403208265826032
 20
4.105170678444655
 30
0.0
  0
VERTEX
  5
394
  8
LAYER_1
 10
1.40821623533053
 20
4.121918631859931
 30
0.0
  0
VERTEX
  5
395
  8
LAYER_1
 10
1.412231708016525
 20
4.138384073778342
 30
0.0
  0
VERTEX
  5
396
  8
LAYER_1
 10
1.415282424148886
 20
4.154631655200843
 30
0.0
  0
VERTEX
  5
397
  8
LAYER_1
 10
1.417396123992481
 20
4.170726027128389
 30
0.0
  0
VERTEX
  5
398
  8
LAYER_1
 10
1.418600547812178
 20
4.186731840561936
 30
0.0
  0
VERTEX
  5
399
  8
LAYER_1
 10
1.418923435872846
 20
4.202713746502436
 30
0.0
  0
VERTEX
  5
39A
  8
LAYER_1
 10
1.418641772917106
 20
4.213840776705947
 30
0.0
  0
VERTEX
  5
39B
  8
LAYER_1
 10
1.417947154087508
 20
4.224960941865963
 30
0.0
  0
VERTEX
  5
39C
  8
LAYER_1
 10
1.416838271804175
 20
4.236078528125236
 30
0.0
  0
VERTEX
  5
39D
  8
LAYER_1
 10
1.415313818487231
 20
4.24719782162652
 30
0.0
  0
VERTEX
  5
39E
  8
LAYER_1
 10
1.413372486556799
 20
4.258323108512567
 30
0.0
  0
VERTEX
  5
39F
  8
LAYER_1
 10
1.411012968433003
 20
4.269458674926129
 30
0.0
  0
VERTEX
  5
3A0
  8
LAYER_1
 10
1.408233956535967
 20
4.280608807009962
 30
0.0
  0
VERTEX
  5
3A1
  8
LAYER_1
 10
1.405034143285815
 20
4.291777790906818
 30
0.0
  0
VERTEX
  5
3A2
  8
LAYER_1
 10
1.401412221102669
 20
4.302969912759449
 30
0.0
  0
VERTEX
  5
3A3
  8
LAYER_1
 10
1.397366882406654
 20
4.314189458710609
 30
0.0
  0
VERTEX
  5
3A4
  8
LAYER_1
 10
1.392896819617894
 20
4.325440714903051
 30
0.0
  0
VERTEX
  5
3A5
  8
LAYER_1
 10
1.388000725156511
 20
4.336727967479528
 30
0.0
  0
VERTEX
  5
3A6
  8
LAYER_1
 10
1.382677291442631
 20
4.348055502582794
 30
0.0
  0
VERTEX
  5
3A7
  8
LAYER_1
 10
1.376925210896375
 20
4.359427606355601
 30
0.0
  0
VERTEX
  5
3A8
  8
LAYER_1
 10
1.370743175937868
 20
4.370848564940701
 30
0.0
  0
VERTEX
  5
3A9
  8
LAYER_1
 10
1.364129878987234
 20
4.382322664480849
 30
0.0
  0
VERTEX
  5
3AA
  8
LAYER_1
 10
1.351499484953222
 20
4.402613601859676
 30
0.0
  0
VERTEX
  5
3AB
  8
LAYER_1
 10
1.338405714211518
 20
4.421723553454001
 30
0.0
  0
VERTEX
  5
3AC
  8
LAYER_1
 10
1.324850484176384
 20
4.43965115808027
 30
0.0
  0
VERTEX
  5
3AD
  8
LAYER_1
 10
1.310835712262084
 20
4.456395054554927
 30
0.0
  0
VERTEX
  5
3AE
  8
LAYER_1
 10
1.29636331588288
 20
4.471953881694416
 30
0.0
  0
VERTEX
  5
3AF
  8
LAYER_1
 10
1.281435212453034
 20
4.486326278315181
 30
0.0
  0
VERTEX
  5
3B0
  8
LAYER_1
 10
1.266053319386808
 20
4.499510883233665
 30
0.0
  0
VERTEX
  5
3B1
  8
LAYER_1
 10
1.25819280093201
 20
4.505657338434689
 30
0.0
  0
VERTEX
  5
3B2
  8
LAYER_1
 10
1.250219554098465
 20
4.511506335266311
 30
0.0
  0
VERTEX
  5
3B3
  8
LAYER_1
 10
1.242133818562957
 20
4.517057703580585
 30
0.0
  0
VERTEX
  5
3B4
  8
LAYER_1
 10
1.233935834002268
 20
4.522311273229565
 30
0.0
  0
VERTEX
  5
3B5
  8
LAYER_1
 10
1.225625840093181
 20
4.527266874065309
 30
0.0
  0
VERTEX
  5
3B6
  8
LAYER_1
 10
1.217204076512479
 20
4.531924335939871
 30
0.0
  0
VERTEX
  5
3B7
  8
LAYER_1
 10
1.208670782936945
 20
4.536283488705307
 30
0.0
  0
VERTEX
  5
3B8
  8
LAYER_1
 10
1.200026199043361
 20
4.540344162213671
 30
0.0
  0
VERTEX
  5
3B9
  8
LAYER_1
 10
1.19127056450851
 20
4.544106186317021
 30
0.0
  0
VERTEX
  5
3BA
  8
LAYER_1
 10
1.182404119009175
 20
4.547569390867411
 30
0.0
  0
VERTEX
  5
3BB
  8
LAYER_1
 10
1.173427102222139
 20
4.550733605716896
 30
0.0
  0
VERTEX
  5
3BC
  8
LAYER_1
 10
1.164339753824185
 20
4.553598660717534
 30
0.0
  0
VERTEX
  5
3BD
  8
LAYER_1
 10
1.155142313492095
 20
4.556164385721377
 30
0.0
  0
VERTEX
  5
3BE
  8
LAYER_1
 10
1.145835020902653
 20
4.558430610580483
 30
0.0
  0
VERTEX
  5
3BF
  8
LAYER_1
 10
1.13641811573264
 20
4.560397165146908
 30
0.0
  0
VERTEX
  5
3C0
  8
LAYER_1
 10
1.126891837658841
 20
4.562063879272705
 30
0.0
  0
VERTEX
  5
3C1
  8
LAYER_1
 10
1.117256426358037
 20
4.56343058280993
 30
0.0
  0
VERTEX
  5
3C2
  8
LAYER_1
 10
1.107512121507011
 20
4.56449710561064
 30
0.0
  0
VERTEX
  5
3C3
  8
LAYER_1
 10
1.089410384624693
 20
4.5656940377395
 30
0.0
  0
VERTEX
  5
3C4
  8
LAYER_1
 10
1.072127773494058
 20
4.565775036280229
 30
0.0
  0
VERTEX
  5
3C5
  8
LAYER_1
 10
1.063711699742839
 20
4.565382490985739
 30
0.0
  0
VERTEX
  5
3C6
  8
LAYER_1
 10
1.055402079018203
 20
4.56469347893105
 30
0.0
  0
VERTEX
  5
3C7
  8
LAYER_1
 10
1.047166135183036
 20
4.563702172328439
 30
0.0
  0
VERTEX
  5
3C8
  8
LAYER_1
 10
1.038971092100227
 20
4.562402743390185
 30
0.0
  0
VERTEX
  5
3C9
  8
LAYER_1
 10
1.030784173632662
 20
4.560789364328567
 30
0.0
  0
VERTEX
  5
3CA
  8
LAYER_1
 10
1.022572603643229
 20
4.558856207355861
 30
0.0
  0
VERTEX
  5
3CB
  8
LAYER_1
 10
1.005944404550307
 20
4.554007248526299
 30
0.0
  0
VERTEX
  5
3CC
  8
LAYER_1
 10
0.9888242857245602
 20
4.547809244599721
 30
0.0
  0
VERTEX
  5
3CD
  8
LAYER_1
 10
0.9709500380690868
 20
4.540215573274352
 30
0.0
  0
VERTEX
  5
3CE
  8
LAYER_1
 10
0.9549774706312499
 20
4.532643036488125
 30
0.0
  0
VERTEX
  5
3CF
  8
LAYER_1
 10
0.9406278244512645
 20
4.525067516556396
 30
0.0
  0
VERTEX
  5
3D0
  8
LAYER_1
 10
0.9275653407964669
 20
4.517241640164297
 30
0.0
  0
VERTEX
  5
3D1
  8
LAYER_1
 10
0.9154542609341938
 20
4.508918033996958
 30
0.0
  0
VERTEX
  5
3D2
  8
LAYER_1
 10
0.9039588261317815
 20
4.499849324739509
 30
0.0
  0
VERTEX
  5
3D3
  8
LAYER_1
 10
0.8927432776565665
 20
4.489788139077083
 30
0.0
  0
VERTEX
  5
3D4
  8
LAYER_1
 10
0.881471856775885
 20
4.47848710369481
 30
0.0
  0
VERTEX
  5
3D5
  8
LAYER_1
 10
0.8698088047570738
 20
4.465698845277821
 30
0.0
  0
VERTEX
  5
3D6
  8
LAYER_1
 10
0.8612202169774223
 20
4.455404569577366
 30
0.0
  0
VERTEX
  5
3D7
  8
LAYER_1
 10
0.8529918903245186
 20
4.444484646299489
 30
0.0
  0
VERTEX
  5
3D8
  8
LAYER_1
 10
0.8451426183836052
 20
4.432986921595223
 30
0.0
  0
VERTEX
  5
3D9
  8
LAYER_1
 10
0.8376911947399244
 20
4.420959241615606
 30
0.0
  0
VERTEX
  5
3DA
  8
LAYER_1
 10
0.8306564129787186
 20
4.408449452511673
 30
0.0
  0
VERTEX
  5
3DB
  8
LAYER_1
 10
0.8240570666852305
 20
4.395505400434461
 30
0.0
  0
VERTEX
  5
3DC
  8
LAYER_1
 10
0.8179119494447022
 20
4.382174931535006
 30
0.0
  0
VERTEX
  5
3DD
  8
LAYER_1
 10
0.8122398548423762
 20
4.368505891964341
 30
0.0
  0
VERTEX
  5
3DE
  8
LAYER_1
 10
0.8070595764634949
 20
4.354546127873506
 30
0.0
  0
VERTEX
  5
3DF
  8
LAYER_1
 10
0.8023899078933008
 20
4.340343485413537
 30
0.0
  0
VERTEX
  5
3E0
  8
LAYER_1
 10
0.798249642717036
 20
4.325945810735467
 30
0.0
  0
VERTEX
  5
3E1
  8
LAYER_1
 10
0.7946575745199433
 20
4.311400949990334
 30
0.0
  0
VERTEX
  5
3E2
  8
LAYER_1
 10
0.791632496887265
 20
4.296756749329175
 30
0.0
  0
VERTEX
  5
3E3
  8
LAYER_1
 10
0.7891932034042434
 20
4.282061054903023
 30
0.0
  0
VERTEX
  5
3E4
  8
LAYER_1
 10
0.787358487656121
 20
4.267361712862918
 30
0.0
  0
VERTEX
  5
3E5
  8
LAYER_1
 10
0.7861471432281402
 20
4.252706569359892
 30
0.0
  0
VERTEX
  5
3E6
  8
LAYER_1
 10
0.7845830590448969
 20
4.235650887312305
 30
0.0
  0
VERTEX
  5
3E7
  8
LAYER_1
 10
0.7836901831373564
 20
4.230280713543332
 30
0.0
  0
VERTEX
  5
3E8
  8
LAYER_1
 10
0.7828669274590991
 20
4.228092516107369
 30
0.0
  0
VERTEX
  5
3E9
  8
LAYER_1
 10
0.7805123213026071
 20
4.229250819179823
 30
0.0
  0
VERTEX
  5
3EA
  8
LAYER_1
 10
0.7754499267662145
 20
4.2329924042209
 30
0.0
  0
VERTEX
  5
3EB
  8
LAYER_1
 10
0.7684241751386133
 20
4.238733305780141
 30
0.0
  0
VERTEX
  5
3EC
  8
LAYER_1
 10
0.7601794977084948
 20
4.245889558407086
 30
0.0
  0
VERTEX
  5
3ED
  8
LAYER_1
 10
0.7452747974438598
 20
4.258561565619246
 30
0.0
  0
VERTEX
  5
3EE
  8
LAYER_1
 10
0.7299504590873529
 20
4.270400484129159
 30
0.0
  0
VERTEX
  5
3EF
  8
LAYER_1
 10
0.7142449210167916
 20
4.281392635549063
 30
0.0
  0
VERTEX
  5
3F0
  8
LAYER_1
 10
0.6981966216099929
 20
4.291524341491197
 30
0.0
  0
VERTEX
  5
3F1
  8
LAYER_1
 10
0.6818439992447742
 20
4.3007819235678
 30
0.0
  0
VERTEX
  5
3F2
  8
LAYER_1
 10
0.6652254922989531
 20
4.309151703391111
 30
0.0
  0
VERTEX
  5
3F3
  8
LAYER_1
 10
0.6483795391503466
 20
4.316620002573368
 30
0.0
  0
VERTEX
  5
3F4
  8
LAYER_1
 10
0.6313445781767721
 20
4.323173142726811
 30
0.0
  0
VERTEX
  5
3F5
  8
LAYER_1
 10
0.6141590477560471
 20
4.32879744546368
 30
0.0
  0
VERTEX
  5
3F6
  8
LAYER_1
 10
0.5968613862659886
 20
4.333479232396211
 30
0.0
  0
VERTEX
  5
3F7
  8
LAYER_1
 10
0.5794900320844142
 20
4.337204825136646
 30
0.0
  0
VERTEX
  5
3F8
  8
LAYER_1
 10
0.562083423589141
 20
4.339960545297222
 30
0.0
  0
VERTEX
  5
3F9
  8
LAYER_1
 10
0.5446799991579865
 20
4.341732714490178
 30
0.0
  0
VERTEX
  5
3FA
  8
LAYER_1
 10
0.527318197168768
 20
4.342507654327752
 30
0.0
  0
VERTEX
  5
3FB
  8
LAYER_1
 10
0.5100364559993029
 20
4.342271686422186
 30
0.0
  0
VERTEX
  5
3FC
  8
LAYER_1
 10
0.4928732140274081
 20
4.341011132385717
 30
0.0
  0
VERTEX
  5
3FD
  8
LAYER_1
 10
0.4810334862361791
 20
4.339444270582908
 30
0.0
  0
VERTEX
  5
3FE
  8
LAYER_1
 10
0.4690707353597386
 20
4.33720829935568
 30
0.0
  0
VERTEX
  5
3FF
  8
LAYER_1
 10
0.4570390289548619
 20
4.33433111664658
 30
0.0
  0
VERTEX
  5
400
  8
LAYER_1
 10
0.4449924345783244
 20
4.330840620398157
 30
0.0
  0
VERTEX
  5
401
  8
LAYER_1
 10
0.4329850197869013
 20
4.326764708552958
 30
0.0
  0
VERTEX
  5
402
  8
LAYER_1
 10
0.4210708521373681
 20
4.322131279053536
 30
0.0
  0
VERTEX
  5
403
  8
LAYER_1
 10
0.4093039991865002
 20
4.316968229842435
 30
0.0
  0
VERTEX
  5
404
  8
LAYER_1
 10
0.3977385284910729
 20
4.311303458862206
 30
0.0
  0
VERTEX
  5
405
  8
LAYER_1
 10
0.3864285076078615
 20
4.305164864055396
 30
0.0
  0
VERTEX
  5
406
  8
LAYER_1
 10
0.3754280040936415
 20
4.298580343364554
 30
0.0
  0
VERTEX
  5
407
  8
LAYER_1
 10
0.3647910855051881
 20
4.29157779473223
 30
0.0
  0
VERTEX
  5
408
  8
LAYER_1
 10
0.3545718193992768
 20
4.284185116100971
 30
0.0
  0
VERTEX
  5
409
  8
LAYER_1
 10
0.344824273332683
 20
4.276430205413327
 30
0.0
  0
VERTEX
  5
40A
  8
LAYER_1
 10
0.3356025148621818
 20
4.268340960611845
 30
0.0
  0
VERTEX
  5
40B
  8
LAYER_1
 10
0.3269606115445488
 20
4.259945279639074
 30
0.0
  0
VERTEX
  5
40C
  8
LAYER_1
 10
0.3189526309365593
 20
4.251271060437562
 30
0.0
  0
VERTEX
  5
40D
  8
LAYER_1
 10
0.3117518958699587
 20
4.242674949238559
 30
0.0
  0
VERTEX
  5
40E
  8
LAYER_1
 10
0.3049182810135794
 20
4.233835814175203
 30
0.0
  0
VERTEX
  5
40F
  8
LAYER_1
 10
0.2984524997908179
 20
4.224759494895661
 30
0.0
  0
VERTEX
  5
410
  8
LAYER_1
 10
0.2923552656250705
 20
4.215451831048101
 30
0.0
  0
VERTEX
  5
411
  8
LAYER_1
 10
0.2866272919397334
 20
4.205918662280691
 30
0.0
  0
VERTEX
  5
412
  8
LAYER_1
 10
0.2812692921582029
 20
4.196165828241599
 30
0.0
  0
VERTEX
  5
413
  8
LAYER_1
 10
0.2762819797038753
 20
4.186199168578991
 30
0.0
  0
VERTEX
  5
414
  8
LAYER_1
 10
0.2716660680001469
 20
4.176024522941036
 30
0.0
  0
VERTEX
  5
415
  8
LAYER_1
 10
0.2674222704704139
 20
4.165647730975903
 30
0.0
  0
VERTEX
  5
416
  8
LAYER_1
 10
0.2635513005380727
 20
4.155074632331757
 30
0.0
  0
VERTEX
  5
417
  8
LAYER_1
 10
0.2600538716265197
 20
4.144311066656767
 30
0.0
  0
VERTEX
  5
418
  8
LAYER_1
 10
0.256930697159151
 20
4.133362873599101
 30
0.0
  0
VERTEX
  5
419
  8
LAYER_1
 10
0.2541824905593628
 20
4.122235892806927
 30
0.0
  0
VERTEX
  5
41A
  8
LAYER_1
 10
0.2518099652505518
 20
4.11093596392841
 30
0.0
  0
VERTEX
  5
41B
  8
LAYER_1
 10
0.2498138346561138
 20
4.099468926611721
 30
0.0
  0
VERTEX
  5
41C
  8
LAYER_1
 10
0.2481948121994454
 20
4.087840620505027
 30
0.0
  0
VERTEX
  5
41D
  8
LAYER_1
 10
0.2469536113039428
 20
4.076056885256495
 30
0.0
  0
VERTEX
  5
41E
  8
LAYER_1
 10
0.2460909453930023
 20
4.064123560514293
 30
0.0
  0
VERTEX
  5
41F
  8
LAYER_1
 10
0.2456075278900202
 20
4.052046485926589
 30
0.0
  0
VERTEX
  5
420
  8
LAYER_1
 10
0.2455040722183928
 20
4.039831501141548
 30
0.0
  0
VERTEX
  5
421
  8
LAYER_1
 10
0.2457812918015163
 20
4.027484445807342
 30
0.0
  0
VERTEX
  5
422
  8
LAYER_1
 10
0.246439900062787
 20
4.015011159572136
 30
0.0
  0
VERTEX
  5
423
  8
LAYER_1
 10
0.2474806104256013
 20
4.002417482084099
 30
0.0
  0
VERTEX
  5
424
  8
LAYER_1
 10
0.2489041363133555
 20
3.989709252991398
 30
0.0
  0
VERTEX
  5
425
  8
LAYER_1
 10
0.2507111911494457
 20
3.9768923119422
 30
0.0
  0
VERTEX
  5
426
  8
LAYER_1
 10
0.2529024883572685
 20
3.963972498584674
 30
0.0
  0
VERTEX
  5
427
  8
LAYER_1
 10
0.2554787413602199
 20
3.950955652566988
 30
0.0
  0
VERTEX
  5
428
  8
LAYER_1
 10
0.2584406635816962
 20
3.937847613537308
 30
0.0
  0
VERTEX
  5
429
  8
LAYER_1
 10
0.2617889684450939
 20
3.924654221143803
 30
0.0
  0
VERTEX
  5
42A
  8
LAYER_1
 10
0.2655243693738091
 20
3.911381315034641
 30
0.0
  0
VERTEX
  5
42B
  8
LAYER_1
 10
0.2696475797912381
 20
3.898034734857988
 30
0.0
  0
VERTEX
  5
42C
  8
LAYER_1
 10
0.2741593131207773
 20
3.884620320262013
 30
0.0
  0
VERTEX
  5
42D
  8
LAYER_1
 10
0.280794001968428
 20
3.866977412335832
 30
0.0
  0
VERTEX
  5
42E
  8
LAYER_1
 10
0.2880969075756911
 20
3.850061993969884
 30
0.0
  0
VERTEX
  5
42F
  8
LAYER_1
 10
0.2960762900416821
 20
3.833865421773273
 30
0.0
  0
VERTEX
  5
430
  8
LAYER_1
 10
0.3047404094655168
 20
3.818379052355104
 30
0.0
  0
VERTEX
  5
431
  8
LAYER_1
 10
0.3140975259463107
 20
3.803594242324479
 30
0.0
  0
VERTEX
  5
432
  8
LAYER_1
 10
0.3241558995831796
 20
3.789502348290503
 30
0.0
  0
VERTEX
  5
433
  8
LAYER_1
 10
0.3349237904752389
 20
3.776094726862279
 30
0.0
  0
VERTEX
  5
434
  8
LAYER_1
 10
0.3464094587216043
 20
3.763362734648912
 30
0.0
  0
VERTEX
  5
435
  8
LAYER_1
 10
0.3586211644213916
 20
3.751297728259506
 30
0.0
  0
VERTEX
  5
436
  8
LAYER_1
 10
0.3715671676737161
 20
3.739891064303163
 30
0.0
  0
VERTEX
  5
437
  8
LAYER_1
 10
0.3852557285776936
 20
3.729134099388989
 30
0.0
  0
VERTEX
  5
438
  8
LAYER_1
 10
0.3996951072324398
 20
3.719018190126086
 30
0.0
  0
VERTEX
  5
439
  8
LAYER_1
 10
0.4148935637370702
 20
3.709534693123559
 30
0.0
  0
VERTEX
  5
43A
  8
LAYER_1
 10
0.4308593581907005
 20
3.700674964990512
 30
0.0
  0
VERTEX
  5
43B
  8
LAYER_1
 10
0.4476007506924463
 20
3.692430362336047
 30
0.0
  0
VERTEX
  5
43C
  8
LAYER_1
 10
0.4651260013414231
 20
3.684792241769271
 30
0.0
  0
VERTEX
  5
43D
  8
LAYER_1
 10
0.5165666673093514
 20
3.665199509026017
 30
0.0
  0
VERTEX
  5
43E
  8
LAYER_1
 10
0.5288571123814818
 20
3.661810625526027
 30
0.0
  0
VERTEX
  5
43F
  8
LAYER_1
 10
0.5447035196232974
 20
3.65796193456697
 30
0.0
  0
VERTEX
  5
440
  8
LAYER_1
 10
0.5847949044984599
 20
3.649343667393671
 30
0.0
  0
VERTEX
  5
441
  8
LAYER_1
 10
0.6323021896997906
 20
3.640261781750166
 30
0.0
  0
VERTEX
  5
442
  8
LAYER_1
 10
0.682686742992241
 20
3.631633351880495
 30
0.0
  0
VERTEX
  5
443
  8
LAYER_1
 10
0.7866865467406008
 20
3.612689947218812
 30
0.0
  0
VERTEX
  5
444
  8
LAYER_1
 10
0.8064091152588418
 20
3.607987920956641
 30
0.0
  0
VERTEX
  5
445
  8
LAYER_1
 10
0.8263737151187849
 20
3.602657266350811
 30
0.0
  0
VERTEX
  5
446
  8
LAYER_1
 10
0.8464707042268383
 20
3.596745921017488
 30
0.0
  0
VERTEX
  5
447
  8
LAYER_1
 10
0.866590440489411
 20
3.590301822572843
 30
0.0
  0
VERTEX
  5
448
  8
LAYER_1
 10
0.8866232818129114
 20
3.583372908633043
 30
0.0
  0
VERTEX
  5
449
  8
LAYER_1
 10
0.9064595861037479
 20
3.576007116814257
 30
0.0
  0
VERTEX
  5
44A
  8
LAYER_1
 10
0.9259897112683291
 20
3.568252384732653
 30
0.0
  0
VERTEX
  5
44B
  8
LAYER_1
 10
0.9451040152130635
 20
3.560156650004402
 30
0.0
  0
VERTEX
  5
44C
  8
LAYER_1
 10
0.9636928558443598
 20
3.551767850245669
 30
0.0
  0
VERTEX
  5
44D
  8
LAYER_1
 10
0.9816465910686267
 20
3.543133923072625
 30
0.0
  0
VERTEX
  5
44E
  8
LAYER_1
 10
0.9988555787922725
 20
3.534302806101437
 30
0.0
  0
VERTEX
  5
44F
  8
LAYER_1
 10
1.015210176921706
 20
3.525322436948274
 30
0.0
  0
VERTEX
  5
450
  8
LAYER_1
 10
1.030600743363336
 20
3.516240753229305
 30
0.0
  0
VERTEX
  5
451
  8
LAYER_1
 10
1.044917636023569
 20
3.507105692560699
 30
0.0
  0
VERTEX
  5
452
  8
LAYER_1
 10
1.058051212808817
 20
3.497965192558623
 30
0.0
  0
VERTEX
  5
453
  8
LAYER_1
 10
1.069891831625486
 20
3.488867190839247
 30
0.0
  0
VERTEX
  5
454
  8
LAYER_1
 10
1.092422681150051
 20
3.470570508824435
 30
0.0
  0
SEQEND
  5
455
  8
LAYER_1
  0
ENDSEC
  0
EOF
