  0
SECTION
  2
HEADER
  9
$ACADVER
  1
AC1009
  9
$DWGCODEPAGE
  3
ansi_1252
  9
$INSBASE
 10
0.0
 20
0.0
 30
0.0
  9
$EXTMIN
 10
0.5
 20
0.4281752977384494
 30
0.0
  9
$EXTMAX
 10
5.5
 20
5.428175297738451
 30
0.0
  9
$LIMMIN
 10
0.0
 20
0.0
  9
$LIMMAX
 10
12.0
 20
9.0
  9
$ORTHOMODE
 70
     0
  9
$REGENMODE
 70
     1
  9
$FILLMODE
 70
     1
  9
$QTEXTMODE
 70
     0
  9
$MIRRTEXT
 70
     1
  9
$DRAGMODE
 70
     2
  9
$LTSCALE
 40
1.0
  9
$OSMODE
 70
    37
  9
$ATTMODE
 70
     1
  9
$TEXTSIZE
 40
0.2
  9
$TRACEWID
 40
0.05
  9
$TEXTSTYLE
  7
STANDARD
  9
$CLAYER
  8
0
  9
$CELTYPE
  6
BYLAYER
  9
$CECOLOR
 62
   256
  9
$DIMSCALE
 40
1.0
  9
$DIMASZ
 40
0.18
  9
$DIMEXO
 40
0.0625
  9
$DIMDLI
 40
0.38
  9
$DIMRND
 40
0.0
  9
$DIMDLE
 40
0.0
  9
$DIMEXE
 40
0.18
  9
$DIMTP
 40
0.0
  9
$DIMTM
 40
0.0
  9
$DIMTXT
 40
0.18
  9
$DIMCEN
 40
0.09
  9
$DIMTSZ
 40
0.0
  9
$DIMTOL
 70
     0
  9
$DIMLIM
 70
     0
  9
$DIMTIH
 70
     1
  9
$DIMTOH
 70
     1
  9
$DIMSE1
 70
     0
  9
$DIMSE2
 70
     0
  9
$DIMTAD
 70
     0
  9
$DIMZIN
 70
     0
  9
$DIMBLK
  1

  9
$DIMASO
 70
     1
  9
$DIMSHO
 70
     1
  9
$DIMPOST
  1

  9
$DIMAPOST
  1

  9
$DIMALT
 70
     0
  9
$DIMALTD
 70
     2
  9
$DIMALTF
 40
25.4
  9
$DIMLFAC
 40
1.0
  9
$DIMTOFL
 70
     0
  9
$DIMTVP
 40
0.0
  9
$DIMTIX
 70
     0
  9
$DIMSOXD
 70
     0
  9
$DIMSAH
 70
     0
  9
$DIMBLK1
  1

  9
$DIMBLK2
  1

  9
$DIMSTYLE
  2
STANDARD
  9
$DIMCLRD
 70
     0
  9
$DIMCLRE
 70
     0
  9
$DIMCLRT
 70
     0
  9
$DIMTFAC
 40
1.0
  9
$DIMGAP
 40
0.09
  9
$LUNITS
 70
     2
  9
$LUPREC
 70
     4
  9
$SKETCHINC
 40
0.1
  9
$FILLETRAD
 40
0.5
  9
$AUNITS
 70
     0
  9
$AUPREC
 70
     0
  9
$MENU
  1
.
  9
$ELEVATION
 40
0.0
  9
$PELEVATION
 40
0.0
  9
$THICKNESS
 40
0.0
  9
$LIMCHECK
 70
     0
  9
$CHAMFERA
 40
0.0
  9
$CHAMFERB
 40
0.0
  9
$SKPOLY
 70
     0
  9
$TDCREATE
 40
2454910.5
  9
$TDUPDATE
 40
2456529.842967859
  9
$TDINDWG
 40
0.0000000116
  9
$TDUSRTIMER
 40
0.0000000116
  9
$USRTIMER
 70
     1
  9
$ANGBASE
 50
0.0
  9
$ANGDIR
 70
     0
  9
$PDMODE
 70
     0
  9
$PDSIZE
 40
0.0
  9
$PLINEWID
 40
0.0
  9
$COORDS
 70
     1
  9
$SPLFRAME
 70
     0
  9
$SPLINETYPE
 70
     6
  9
$SPLINESEGS
 70
     8
  9
$ATTDIA
 70
     0
  9
$ATTREQ
 70
     1
  9
$HANDLING
 70
     1
  9
$HANDSEED
  5
C1
  9
$SURFTAB1
 70
     6
  9
$SURFTAB2
 70
     6
  9
$SURFTYPE
 70
     6
  9
$SURFU
 70
     6
  9
$SURFV
 70
     6
  9
$UCSNAME
  2

  9
$UCSORG
 10
0.0
 20
0.0
 30
0.0
  9
$UCSXDIR
 10
1.0
 20
0.0
 30
0.0
  9
$UCSYDIR
 10
0.0
 20
1.0
 30
0.0
  9
$PUCSNAME
  2

  9
$PUCSORG
 10
0.0
 20
0.0
 30
0.0
  9
$PUCSXDIR
 10
1.0
 20
0.0
 30
0.0
  9
$PUCSYDIR
 10
0.0
 20
1.0
 30
0.0
  9
$USERI1
 70
     0
  9
$USERI2
 70
     0
  9
$USERI3
 70
     0
  9
$USERI4
 70
     0
  9
$USERI5
 70
     0
  9
$USERR1
 40
0.0
  9
$USERR2
 40
0.0
  9
$USERR3
 40
0.0
  9
$USERR4
 40
0.0
  9
$USERR5
 40
0.0
  9
$WORLDVIEW
 70
     1
  9
$SHADEDGE
 70
     3
  9
$SHADEDIF
 70
    70
  9
$TILEMODE
 70
     1
  9
$MAXACTVP
 70
    64
  9
$PLIMCHECK
 70
     0
  9
$PEXTMIN
 10
1.000000000000000E+20
 20
1.000000000000000E+20
 30
1.000000000000000E+20
  9
$PEXTMAX
 10
-1.000000000000000E+20
 20
-1.000000000000000E+20
 30
-1.000000000000000E+20
  9
$PLIMMIN
 10
0.0
 20
0.0
  9
$PLIMMAX
 10
12.0
 20
9.0
  9
$UNITMODE
 70
     0
  9
$VISRETAIN
 70
     1
  9
$PLINEGEN
 70
     0
  9
$PSLTSCALE
 70
     1
  0
ENDSEC
  0
SECTION
  2
TABLES
  0
TABLE
  2
VPORT
 70
     1
  0
VPORT
  2
*ACTIVE
 70
     0
 10
0.0
 20
0.0
 11
1.0
 21
1.0
 12
10.42990654205607
 22
4.5
 13
0.0
 23
0.0
 14
0.5
 24
0.5
 15
0.5
 25
0.5
 16
0.0
 26
0.0
 36
1.0
 17
0.0
 27
0.0
 37
0.0
 40
9.0
 41
1.972972972850329
 42
50.0
 43
0.0
 44
0.0
 50
0.0
 51
0.0
 71
     0
 72
   100
 73
     1
 74
     3
 75
     0
 76
     0
 77
     0
 78
     0
  0
ENDTAB
  0
TABLE
  2
LTYPE
 70
     2
  0
LTYPE
  2
CONTINUOUS
 70
     0
  3
Solid line
 72
    65
 73
     0
 40
0.0
  0
LTYPE
  2
CONTINUOUS2
 70
     0
  3
Solid Line
 72
    65
 73
     0
 40
0.0
  0
ENDTAB
  0
TABLE
  2
LAYER
 70
     2
  0
LAYER
  2
0
 70
     0
 62
     7
  6
CONTINUOUS
  0
LAYER
  2
DEFAULT
 70
     0
 62
    96
  6
CONTINUOUS
  0
ENDTAB
  0
TABLE
  2
STYLE
 70
     1
  0
STYLE
  2
STANDARD
 70
     0
 40
0.0
 41
1.0
 50
0.0
 71
     0
 42
0.2
  3
txt
  4

  0
ENDTAB
  0
TABLE
  2
VIEW
 70
     0
  0
ENDTAB
  0
TABLE
  2
UCS
 70
     0
  0
ENDTAB
  0
TABLE
  2
APPID
 70
     1
  0
APPID
  2
ACAD
 70
     0
  0
ENDTAB
  0
TABLE
  2
DIMSTYLE
 70
     1
  0
DIMSTYLE
  2
STANDARD
 70
     0
  3

  4

  5

  6

  7

 40
1.0
 41
0.18
 42
0.0625
 43
0.38
 44
0.18
 45
0.0
 46
0.0
 47
0.0
 48
0.0
140
0.18
141
0.09
142
0.0
143
25.4
144
1.0
145
0.0
146
1.0
147
0.09
 71
     0
 72
     0
 73
     1
 74
     1
 75
     0
 76
     0
 77
     0
 78
     0
170
     0
171
     2
172
     0
173
     0
174
     0
175
     0
176
     0
177
     0
178
     0
  0
ENDTAB
  0
ENDSEC
  0
SECTION
  2
BLOCKS
  0
BLOCK
  8
0
  2
$MODEL_SPACE
 70
     0
 10
0.0
 20
0.0
 30
0.0
  3
$MODEL_SPACE
  1

  0
ENDBLK
  5
21
  8
0
  0
BLOCK
 67
     1
  8
0
  2
$PAPER_SPACE
 70
     0
 10
0.0
 20
0.0
 30
0.0
  3
$PAPER_SPACE
  1

  0
ENDBLK
  5
1D
 67
     1
  8
0
  0
ENDSEC
  0
SECTION
  2
ENTITIES
  0
POLYLINE
  5
6C
  8
DEFAULT
 66
     1
 10
0.0
 20
0.0
 30
0.0
 70
     1
  0
VERTEX
  5
74
  8
DEFAULT
 10
1.000038342955936
 20
0.4281752977384503
 30
0.0
  0
VERTEX
  5
75
  8
DEFAULT
 10
5.5
 20
0.4281752977384503
 30
0.0
  0
VERTEX
  5
76
  8
DEFAULT
 10
5.5
 20
2.92819365206535
 30
0.0
  0
VERTEX
  5
77
  8
DEFAULT
 10
5.499470930054978
 20
2.979745304651684
 30
0.0
  0
VERTEX
  5
78
  8
DEFAULT
 10
5.497889002957278
 20
3.031125546247988
 30
0.0
  0
VERTEX
  5
79
  8
DEFAULT
 10
5.495262142812944
 20
3.082321277668647
 30
0.0
  0
VERTEX
  5
7A
  8
DEFAULT
 10
5.491598273728023
 20
3.133319399728046
 30
0.0
  0
VERTEX
  5
7B
  8
DEFAULT
 10
5.48690531980856
 20
3.184106813240567
 30
0.0
  0
VERTEX
  5
7C
  8
DEFAULT
 10
5.481191205160601
 20
3.234670419020597
 30
0.0
  0
VERTEX
  5
7D
  8
DEFAULT
 10
5.474463853890193
 20
3.28499711788252
 30
0.0
  0
VERTEX
  5
7E
  8
DEFAULT
 10
5.466731190103381
 20
3.335073810640721
 30
0.0
  0
VERTEX
  5
7F
  8
DEFAULT
 10
5.45800113790621
 20
3.384887398109583
 30
0.0
  0
VERTEX
  5
80
  8
DEFAULT
 10
5.448281621404728
 20
3.434424781103492
 30
0.0
  0
VERTEX
  5
81
  8
DEFAULT
 10
5.437580564704978
 20
3.483672860436831
 30
0.0
  0
VERTEX
  5
82
  8
DEFAULT
 10
5.425905891913009
 20
3.532618536923986
 30
0.0
  0
VERTEX
  5
83
  8
DEFAULT
 10
5.413265527134865
 20
3.581248711379342
 30
0.0
  0
VERTEX
  5
84
  8
DEFAULT
 10
5.39966739447659
 20
3.629550284617281
 30
0.0
  0
VERTEX
  5
85
  8
DEFAULT
 10
5.385119418044232
 20
3.67751015745219
 30
0.0
  0
VERTEX
  5
86
  8
DEFAULT
 10
5.369629521943837
 20
3.725115230698453
 30
0.0
  0
VERTEX
  5
87
  8
DEFAULT
 10
5.353205630281451
 20
3.772352405170453
 30
0.0
  0
VERTEX
  5
88
  8
DEFAULT
 10
5.335855667163118
 20
3.819208581682576
 30
0.0
  0
VERTEX
  5
89
  8
DEFAULT
 10
5.317587556694886
 20
3.865670661049207
 30
0.0
  0
VERTEX
  5
8A
  8
DEFAULT
 10
5.2984092229828
 20
3.911725544084729
 30
0.0
  0
VERTEX
  5
8B
  8
DEFAULT
 10
5.278328590132905
 20
3.957360131603528
 30
0.0
  0
VERTEX
  5
8C
  8
DEFAULT
 10
5.257353582251248
 20
4.002561324419988
 30
0.0
  0
VERTEX
  5
8D
  8
DEFAULT
 10
5.235492123443874
 20
4.047316023348492
 30
0.0
  0
VERTEX
  5
8E
  8
DEFAULT
 10
5.212752137816829
 20
4.091611129203427
 30
0.0
  0
VERTEX
  5
8F
  8
DEFAULT
 10
5.189141549476159
 20
4.135433542799176
 30
0.0
  0
VERTEX
  5
90
  8
DEFAULT
 10
5.16466828252791
 20
4.178770164950125
 30
0.0
  0
VERTEX
  5
91
  8
DEFAULT
 10
5.139340261078128
 20
4.221607896470656
 30
0.0
  0
VERTEX
  5
92
  8
DEFAULT
 10
5.113165409232858
 20
4.263933638175157
 30
0.0
  0
VERTEX
  5
93
  8
DEFAULT
 10
5.086151651098147
 20
4.305734290878009
 30
0.0
  0
VERTEX
  5
94
  8
DEFAULT
 10
5.058306910780039
 20
4.346996755393599
 30
0.0
  0
VERTEX
  5
95
  8
DEFAULT
 10
5.029639112384582
 20
4.38770793253631
 30
0.0
  0
VERTEX
  5
96
  8
DEFAULT
 10
5.00015618001782
 20
4.427854723120528
 30
0.0
  0
VERTEX
  5
97
  8
DEFAULT
 10
5.000038342955937
 20
5.428175297738451
 30
0.0
  0
VERTEX
  5
98
  8
DEFAULT
 10
1.000038342955936
 20
5.42817529773845
 30
0.0
  0
VERTEX
  5
99
  8
DEFAULT
 10
0.5
 20
5.42817529773845
 30
0.0
  0
VERTEX
  5
9A
  8
DEFAULT
 10
0.5
 20
2.92819365206481
 30
0.0
  0
VERTEX
  5
9B
  8
DEFAULT
 10
0.5005210762011718
 20
2.877107378708284
 30
0.0
  0
VERTEX
  5
9C
  8
DEFAULT
 10
0.5020800591299117
 20
2.826154185286049
 30
0.0
  0
VERTEX
  5
9D
  8
DEFAULT
 10
0.5046705802740568
 20
2.775347997796187
 30
0.0
  0
VERTEX
  5
9E
  8
DEFAULT
 10
0.5082862711214442
 20
2.724702742236782
 30
0.0
  0
VERTEX
  5
9F
  8
DEFAULT
 10
0.5129207631599113
 20
2.674232344605918
 30
0.0
  0
VERTEX
  5
A0
  8
DEFAULT
 10
0.5185676878772952
 20
2.623950730901676
 30
0.0
  0
VERTEX
  5
A1
  8
DEFAULT
 10
0.5252206767614334
 20
2.573871827122141
 30
0.0
  0
VERTEX
  5
A2
  8
DEFAULT
 10
0.5328733613001628
 20
2.524009559265395
 30
0.0
  0
VERTEX
  5
A3
  8
DEFAULT
 10
0.5415193729813208
 20
2.474377853329521
 30
0.0
  0
VERTEX
  5
A4
  8
DEFAULT
 10
0.5511523432927447
 20
2.424990635312604
 30
0.0
  0
VERTEX
  5
A5
  8
DEFAULT
 10
0.5617659037222715
 20
2.375861831212725
 30
0.0
  0
VERTEX
  5
A6
  8
DEFAULT
 10
0.5733536857577387
 20
2.327005367027969
 30
0.0
  0
VERTEX
  5
A7
  8
DEFAULT
 10
0.5859093208869834
 20
2.278435168756418
 30
0.0
  0
VERTEX
  5
A8
  8
DEFAULT
 10
0.5994264405978429
 20
2.230165162396156
 30
0.0
  0
VERTEX
  5
A9
  8
DEFAULT
 10
0.6138986763781542
 20
2.182209273945265
 30
0.0
  0
VERTEX
  5
AA
  8
DEFAULT
 10
0.6293196597157549
 20
2.134581429401829
 30
0.0
  0
VERTEX
  5
AB
  8
DEFAULT
 10
0.6456830220984819
 20
2.087295554763931
 30
0.0
  0
VERTEX
  5
AC
  8
DEFAULT
 10
0.6629823950141726
 20
2.040365576029653
 30
0.0
  0
VERTEX
  5
AD
  8
DEFAULT
 10
0.6812114099506642
 20
1.99380541919708
 30
0.0
  0
VERTEX
  5
AE
  8
DEFAULT
 10
0.700363698395794
 20
1.947629010264295
 30
0.0
  0
VERTEX
  5
AF
  8
DEFAULT
 10
0.7204328918373992
 20
1.901850275229381
 30
0.0
  0
VERTEX
  5
B0
  8
DEFAULT
 10
0.741412621763317
 20
1.85648314009042
 30
0.0
  0
VERTEX
  5
B1
  8
DEFAULT
 10
0.7632965196613845
 20
1.811541530845496
 30
0.0
  0
VERTEX
  5
B2
  8
DEFAULT
 10
0.7860782170194391
 20
1.767039373492692
 30
0.0
  0
VERTEX
  5
B3
  8
DEFAULT
 10
0.8097513453253182
 20
1.722990594030091
 30
0.0
  0
VERTEX
  5
B4
  8
DEFAULT
 10
0.8343095360668586
 20
1.679409118455777
 30
0.0
  0
VERTEX
  5
B5
  8
DEFAULT
 10
0.8597464207318979
 20
1.636308872767832
 30
0.0
  0
VERTEX
  5
B6
  8
DEFAULT
 10
0.8860556308082732
 20
1.59370378296434
 30
0.0
  0
VERTEX
  5
B7
  8
DEFAULT
 10
0.9132307977838217
 20
1.551607775043384
 30
0.0
  0
VERTEX
  5
B8
  8
DEFAULT
 10
0.9412655531463807
 20
1.510034775003047
 30
0.0
  0
VERTEX
  5
B9
  8
DEFAULT
 10
0.9701535283837874
 20
1.468998708841413
 30
0.0
  0
VERTEX
  5
BA
  8
DEFAULT
 10
0.9998883549838791
 20
1.428513502556563
 30
0.0
  0
VERTEX
  5
BB
  8
DEFAULT
 10
1.000038342955936
 20
0.4281752977384499
 30
0.0
  0
VERTEX
  5
BC
  8
DEFAULT
 10
5.000038342955936
 20
0.4281752977384494
 30
0.0
  0
VERTEX
  5
BD
  8
DEFAULT
 10
5.000038342955936
 20
0.4281752977384503
 30
0.0
  0
SEQEND
  5
C0
  8
DEFAULT
  0
ENDSEC
  0
EOF
