  0
SECTION
  2
HEADER
  9
$ACADVER
  1
AC1009
  9
$DWGCODEPAGE
  3
ansi_1252
  9
$INSBASE
 10
0.0
 20
0.0
 30
0.0
  9
$EXTMIN
 10
0.4999999999999996
 20
0.4281752977384494
 30
0.0
  9
$EXTMAX
 10
5.5
 20
10.07182470226155
 30
0.0
  9
$LIMMIN
 10
0.0
 20
0.0
  9
$LIMMAX
 10
12.0
 20
9.0
  9
$ORTHOMODE
 70
     0
  9
$REGENMODE
 70
     1
  9
$FILLMODE
 70
     1
  9
$QTEXTMODE
 70
     0
  9
$MIRRTEXT
 70
     1
  9
$DRAGMODE
 70
     2
  9
$LTSCALE
 40
1.0
  9
$OSMODE
 70
    37
  9
$ATTMODE
 70
     1
  9
$TEXTSIZE
 40
0.2
  9
$TRACEWID
 40
0.05
  9
$TEXTSTYLE
  7
STANDARD
  9
$CLAYER
  8
0
  9
$CELTYPE
  6
BYLAYER
  9
$CECOLOR
 62
   256
  9
$DIMSCALE
 40
1.0
  9
$DIMASZ
 40
0.18
  9
$DIMEXO
 40
0.0625
  9
$DIMDLI
 40
0.38
  9
$DIMRND
 40
0.0
  9
$DIMDLE
 40
0.0
  9
$DIMEXE
 40
0.18
  9
$DIMTP
 40
0.0
  9
$DIMTM
 40
0.0
  9
$DIMTXT
 40
0.18
  9
$DIMCEN
 40
0.09
  9
$DIMTSZ
 40
0.0
  9
$DIMTOL
 70
     0
  9
$DIMLIM
 70
     0
  9
$DIMTIH
 70
     1
  9
$DIMTOH
 70
     1
  9
$DIMSE1
 70
     0
  9
$DIMSE2
 70
     0
  9
$DIMTAD
 70
     0
  9
$DIMZIN
 70
     0
  9
$DIMBLK
  1

  9
$DIMASO
 70
     1
  9
$DIMSHO
 70
     1
  9
$DIMPOST
  1

  9
$DIMAPOST
  1

  9
$DIMALT
 70
     0
  9
$DIMALTD
 70
     2
  9
$DIMALTF
 40
25.4
  9
$DIMLFAC
 40
1.0
  9
$DIMTOFL
 70
     0
  9
$DIMTVP
 40
0.0
  9
$DIMTIX
 70
     0
  9
$DIMSOXD
 70
     0
  9
$DIMSAH
 70
     0
  9
$DIMBLK1
  1

  9
$DIMBLK2
  1

  9
$DIMSTYLE
  2
STANDARD
  9
$DIMCLRD
 70
     0
  9
$DIMCLRE
 70
     0
  9
$DIMCLRT
 70
     0
  9
$DIMTFAC
 40
1.0
  9
$DIMGAP
 40
0.09
  9
$LUNITS
 70
     2
  9
$LUPREC
 70
     4
  9
$SKETCHINC
 40
0.1
  9
$FILLETRAD
 40
0.5
  9
$AUNITS
 70
     0
  9
$AUPREC
 70
     0
  9
$MENU
  1
.
  9
$ELEVATION
 40
0.0
  9
$PELEVATION
 40
0.0
  9
$THICKNESS
 40
0.0
  9
$LIMCHECK
 70
     0
  9
$CHAMFERA
 40
0.0
  9
$CHAMFERB
 40
0.0
  9
$SKPOLY
 70
     0
  9
$TDCREATE
 40
2454910.5
  9
$TDUPDATE
 40
2456545.487813241
  9
$TDINDWG
 40
0.0000000116
  9
$TDUSRTIMER
 40
0.0000000116
  9
$USRTIMER
 70
     1
  9
$ANGBASE
 50
0.0
  9
$ANGDIR
 70
     0
  9
$PDMODE
 70
     0
  9
$PDSIZE
 40
0.0
  9
$PLINEWID
 40
0.0
  9
$COORDS
 70
     1
  9
$SPLFRAME
 70
     0
  9
$SPLINETYPE
 70
     6
  9
$SPLINESEGS
 70
     8
  9
$ATTDIA
 70
     0
  9
$ATTREQ
 70
     1
  9
$HANDLING
 70
     1
  9
$HANDSEED
  5
169
  9
$SURFTAB1
 70
     6
  9
$SURFTAB2
 70
     6
  9
$SURFTYPE
 70
     6
  9
$SURFU
 70
     6
  9
$SURFV
 70
     6
  9
$UCSNAME
  2

  9
$UCSORG
 10
0.0
 20
0.0
 30
0.0
  9
$UCSXDIR
 10
1.0
 20
0.0
 30
0.0
  9
$UCSYDIR
 10
0.0
 20
1.0
 30
0.0
  9
$PUCSNAME
  2

  9
$PUCSORG
 10
0.0
 20
0.0
 30
0.0
  9
$PUCSXDIR
 10
1.0
 20
0.0
 30
0.0
  9
$PUCSYDIR
 10
0.0
 20
1.0
 30
0.0
  9
$USERI1
 70
     0
  9
$USERI2
 70
     0
  9
$USERI3
 70
     0
  9
$USERI4
 70
     0
  9
$USERI5
 70
     0
  9
$USERR1
 40
0.0
  9
$USERR2
 40
0.0
  9
$USERR3
 40
0.0
  9
$USERR4
 40
0.0
  9
$USERR5
 40
0.0
  9
$WORLDVIEW
 70
     1
  9
$SHADEDGE
 70
     3
  9
$SHADEDIF
 70
    70
  9
$TILEMODE
 70
     1
  9
$MAXACTVP
 70
    64
  9
$PLIMCHECK
 70
     0
  9
$PEXTMIN
 10
1.000000000000000E+20
 20
1.000000000000000E+20
 30
1.000000000000000E+20
  9
$PEXTMAX
 10
-1.000000000000000E+20
 20
-1.000000000000000E+20
 30
-1.000000000000000E+20
  9
$PLIMMIN
 10
0.0
 20
0.0
  9
$PLIMMAX
 10
12.0
 20
9.0
  9
$UNITMODE
 70
     0
  9
$VISRETAIN
 70
     1
  9
$PLINEGEN
 70
     0
  9
$PSLTSCALE
 70
     1
  0
ENDSEC
  0
SECTION
  2
TABLES
  0
TABLE
  2
VPORT
 70
     1
  0
VPORT
  2
*ACTIVE
 70
     0
 10
0.0
 20
0.0
 11
1.0
 21
1.0
 12
10.42990654205607
 22
4.5
 13
0.0
 23
0.0
 14
0.5
 24
0.5
 15
0.5
 25
0.5
 16
0.0
 26
0.0
 36
1.0
 17
0.0
 27
0.0
 37
0.0
 40
9.0
 41
1.972972972850329
 42
50.0
 43
0.0
 44
0.0
 50
0.0
 51
0.0
 71
     0
 72
   100
 73
     1
 74
     3
 75
     0
 76
     0
 77
     0
 78
     0
  0
ENDTAB
  0
TABLE
  2
LTYPE
 70
     2
  0
LTYPE
  2
CONTINUOUS
 70
     0
  3
Solid line
 72
    65
 73
     0
 40
0.0
  0
LTYPE
  2
CONTINUOUS2
 70
     0
  3
Solid Line
 72
    65
 73
     0
 40
0.0
  0
ENDTAB
  0
TABLE
  2
LAYER
 70
     2
  0
LAYER
  2
0
 70
     0
 62
     7
  6
CONTINUOUS
  0
LAYER
  2
DEFAULT
 70
     0
 62
    96
  6
CONTINUOUS
  0
ENDTAB
  0
TABLE
  2
STYLE
 70
     1
  0
STYLE
  2
STANDARD
 70
     0
 40
0.0
 41
1.0
 50
0.0
 71
     0
 42
0.2
  3
txt
  4

  0
ENDTAB
  0
TABLE
  2
VIEW
 70
     0
  0
ENDTAB
  0
TABLE
  2
UCS
 70
     0
  0
ENDTAB
  0
TABLE
  2
APPID
 70
     1
  0
APPID
  2
ACAD
 70
     0
  0
ENDTAB
  0
TABLE
  2
DIMSTYLE
 70
     1
  0
DIMSTYLE
  2
STANDARD
 70
     0
  3

  4

  5

  6

  7

 40
1.0
 41
0.18
 42
0.0625
 43
0.38
 44
0.18
 45
0.0
 46
0.0
 47
0.0
 48
0.0
140
0.18
141
0.09
142
0.0
143
25.4
144
1.0
145
0.0
146
1.0
147
0.09
 71
     0
 72
     0
 73
     1
 74
     1
 75
     0
 76
     0
 77
     0
 78
     0
170
     0
171
     2
172
     0
173
     0
174
     0
175
     0
176
     0
177
     0
178
     0
  0
ENDTAB
  0
ENDSEC
  0
SECTION
  2
BLOCKS
  0
BLOCK
  8
0
  2
$MODEL_SPACE
 70
     0
 10
0.0
 20
0.0
 30
0.0
  3
$MODEL_SPACE
  1

  0
ENDBLK
  5
21
  8
0
  0
BLOCK
 67
     1
  8
0
  2
$PAPER_SPACE
 70
     0
 10
0.0
 20
0.0
 30
0.0
  3
$PAPER_SPACE
  1

  0
ENDBLK
  5
1D
 67
     1
  8
0
  0
ENDSEC
  0
SECTION
  2
ENTITIES
  0
POLYLINE
  5
6C
  8
DEFAULT
 66
     1
 10
0.0
 20
0.0
 30
0.0
  0
VERTEX
  5
7B
  8
DEFAULT
 10
1.030800023254947
 20
3.277608846275837
 30
0.0
  0
VERTEX
  5
7C
  8
DEFAULT
 10
1.03005225149918
 20
3.273368021912126
 30
0.0
  0
SEQEND
  5
161
  8
DEFAULT
  0
POLYLINE
  5
6D
  8
DEFAULT
 66
     1
 10
0.0
 20
0.0
 30
0.0
  0
VERTEX
  5
7D
  8
DEFAULT
 10
1.030052251499141
 20
3.273368021911902
 30
0.0
  0
VERTEX
  5
7E
  8
DEFAULT
 10
1.030800023254947
 20
3.277608846275837
 30
0.0
  0
SEQEND
  5
162
  8
DEFAULT
  0
POLYLINE
  5
6E
  8
DEFAULT
 66
     1
 10
0.0
 20
0.0
 30
0.0
 70
     1
  0
VERTEX
  5
7F
  8
DEFAULT
 10
1.5
 20
2.928193652065157
 30
0.0
 42
-0.4142135623730951
  0
VERTEX
  5
80
  8
DEFAULT
 10
3.000000000000001
 20
4.428193652065156
 30
0.0
 42
-0.4142135623730951
  0
VERTEX
  5
81
  8
DEFAULT
 10
4.5
 20
2.928193652065156
 30
0.0
 42
-0.4142135623730951
  0
VERTEX
  5
82
  8
DEFAULT
 10
3.000000000000001
 20
1.428193652065157
 30
0.0
 42
-0.4142135623730951
  0
SEQEND
  5
163
  8
DEFAULT
  0
POLYLINE
  5
6F
  8
DEFAULT
 66
     1
 10
0.0
 20
0.0
 30
0.0
 70
     1
  0
VERTEX
  5
83
  8
DEFAULT
 10
3.000000000000002
 20
4.928193652065158
 30
0.0
 42
-0.4142135623730951
  0
VERTEX
  5
84
  8
DEFAULT
 10
5.000000000000003
 20
2.928193652065158
 30
0.0
 42
-0.4142135623730951
  0
VERTEX
  5
85
  8
DEFAULT
 10
3.000000000000002
 20
0.9281936520651528
 30
0.0
 42
-0.4142135623730951
  0
VERTEX
  5
86
  8
DEFAULT
 10
1.0
 20
2.928193652065158
 30
0.0
 42
-0.4142135623730951
  0
SEQEND
  5
164
  8
DEFAULT
  0
POLYLINE
  5
70
  8
DEFAULT
 66
     1
 10
0.0
 20
0.0
 30
0.0
 70
     1
  0
VERTEX
  5
87
  8
DEFAULT
 10
4.322620259051257
 20
6.571704575802969
 30
0.0
  0
VERTEX
  5
88
  8
DEFAULT
 10
4.28826492642929
 20
6.54208942709207
 30
0.0
  0
VERTEX
  5
89
  8
DEFAULT
 10
4.253301331756109
 20
6.513305986183774
 30
0.0
  0
VERTEX
  5
8A
  8
DEFAULT
 10
4.217745291233783
 20
6.485361365540808
 30
0.0
  0
VERTEX
  5
8B
  8
DEFAULT
 10
4.181612621064378
 20
6.458262677625897
 30
0.0
  0
VERTEX
  5
8C
  8
DEFAULT
 10
4.144919137449962
 20
6.432017034901765
 30
0.0
  0
VERTEX
  5
8D
  8
DEFAULT
 10
4.107680656592601
 20
6.406631549831138
 30
0.0
  0
VERTEX
  5
8E
  8
DEFAULT
 10
4.069912994694365
 20
6.38211333487674
 30
0.0
  0
VERTEX
  5
8F
  8
DEFAULT
 10
4.031631967957317
 20
6.358469502501296
 30
0.0
  0
VERTEX
  5
90
  8
DEFAULT
 10
3.992853392583527
 20
6.335707165167531
 30
0.0
  0
VERTEX
  5
91
  8
DEFAULT
 10
3.953593084775061
 20
6.31383343533817
 30
0.0
  0
VERTEX
  5
92
  8
DEFAULT
 10
3.913866860733988
 20
6.292855425475937
 30
0.0
  0
VERTEX
  5
93
  8
DEFAULT
 10
3.873690536662373
 20
6.272780248043558
 30
0.0
  0
VERTEX
  5
94
  8
DEFAULT
 10
3.833079928762285
 20
6.253615015503758
 30
0.0
  0
VERTEX
  5
95
  8
DEFAULT
 10
3.792050853235791
 20
6.235366840319261
 30
0.0
  0
VERTEX
  5
96
  8
DEFAULT
 10
3.750619126284957
 20
6.218042834952792
 30
0.0
  0
VERTEX
  5
97
  8
DEFAULT
 10
3.708800564111851
 20
6.201650111867076
 30
0.0
  0
VERTEX
  5
98
  8
DEFAULT
 10
3.666610982918539
 20
6.186195783524839
 30
0.0
  0
VERTEX
  5
99
  8
DEFAULT
 10
3.624066198907091
 20
6.171686962388804
 30
0.0
  0
VERTEX
  5
9A
  8
DEFAULT
 10
3.581182028279572
 20
6.158130760921696
 30
0.0
  0
VERTEX
  5
9B
  8
DEFAULT
 10
3.53797428723805
 20
6.145534291586241
 30
0.0
  0
VERTEX
  5
9C
  8
DEFAULT
 10
3.494458791984592
 20
6.133904666845164
 30
0.0
  0
VERTEX
  5
9D
  8
DEFAULT
 10
3.450651358721265
 20
6.12324899916119
 30
0.0
  0
VERTEX
  5
9E
  8
DEFAULT
 10
3.406567803650137
 20
6.113574400997043
 30
0.0
  0
VERTEX
  5
9F
  8
DEFAULT
 10
3.362223942973274
 20
6.104887984815447
 30
0.0
  0
VERTEX
  5
A0
  8
DEFAULT
 10
3.317635592892745
 20
6.097196863079128
 30
0.0
  0
VERTEX
  5
A1
  8
DEFAULT
 10
3.272818569610615
 20
6.090508148250811
 30
0.0
  0
VERTEX
  5
A2
  8
DEFAULT
 10
3.227788689328952
 20
6.084828952793221
 30
0.0
  0
VERTEX
  5
A3
  8
DEFAULT
 10
3.182561768249824
 20
6.080166389169083
 30
0.0
  0
VERTEX
  5
A4
  8
DEFAULT
 10
3.137153622575299
 20
6.076527569841121
 30
0.0
  0
VERTEX
  5
A5
  8
DEFAULT
 10
3.091580068507441
 20
6.07391960727206
 30
0.0
  0
VERTEX
  5
A6
  8
DEFAULT
 10
3.045856922248321
 20
6.072349613924628
 30
0.0
  0
VERTEX
  5
A7
  8
DEFAULT
 10
3.000000000000003
 20
6.071824702261544
 30
0.0
  0
VERTEX
  5
A8
  8
DEFAULT
 10
2.952596219815288
 20
6.072375458697232
 30
0.0
  0
VERTEX
  5
A9
  8
DEFAULT
 10
2.905462838020127
 20
6.074019645344483
 30
0.0
  0
VERTEX
  5
AA
  8
DEFAULT
 10
2.858612036984777
 20
6.076745138213569
 30
0.0
  0
VERTEX
  5
AB
  8
DEFAULT
 10
2.812055999079495
 20
6.08053981331477
 30
0.0
  0
VERTEX
  5
AC
  8
DEFAULT
 10
2.765806906674538
 20
6.085391546658362
 30
0.0
  0
VERTEX
  5
AD
  8
DEFAULT
 10
2.719876942140163
 20
6.091288214254618
 30
0.0
  0
VERTEX
  5
AE
  8
DEFAULT
 10
2.674278287846628
 20
6.098217692113819
 30
0.0
  0
VERTEX
  5
AF
  8
DEFAULT
 10
2.62902312616419
 20
6.106167856246238
 30
0.0
  0
VERTEX
  5
B0
  8
DEFAULT
 10
2.584123639463106
 20
6.115126582662152
 30
0.0
  0
VERTEX
  5
B1
  8
DEFAULT
 10
2.539592010113632
 20
6.125081747371839
 30
0.0
  0
VERTEX
  5
B2
  8
DEFAULT
 10
2.495440420486027
 20
6.136021226385573
 30
0.0
  0
VERTEX
  5
B3
  8
DEFAULT
 10
2.451681052950546
 20
6.147932895713632
 30
0.0
  0
VERTEX
  5
B4
  8
DEFAULT
 10
2.408326089877448
 20
6.160804631366291
 30
0.0
  0
VERTEX
  5
B5
  8
DEFAULT
 10
2.365387713636989
 20
6.174624309353829
 30
0.0
  0
VERTEX
  5
B6
  8
DEFAULT
 10
2.322878106599427
 20
6.18937980568652
 30
0.0
  0
VERTEX
  5
B7
  8
DEFAULT
 10
2.280809451135018
 20
6.205058996374641
 30
0.0
  0
VERTEX
  5
B8
  8
DEFAULT
 10
2.239193929614021
 20
6.221649757428468
 30
0.0
  0
VERTEX
  5
B9
  8
DEFAULT
 10
2.198043724406691
 20
6.239139964858277
 30
0.0
  0
VERTEX
  5
BA
  8
DEFAULT
 10
2.157371017883287
 20
6.257517494674345
 30
0.0
  0
VERTEX
  5
BB
  8
DEFAULT
 10
2.117187992414065
 20
6.276770222886948
 30
0.0
  0
VERTEX
  5
BC
  8
DEFAULT
 10
2.077506830369282
 20
6.296886025506362
 30
0.0
  0
VERTEX
  5
BD
  8
DEFAULT
 10
2.038339714119195
 20
6.317852778542866
 30
0.0
  0
VERTEX
  5
BE
  8
DEFAULT
 10
1.999698826034063
 20
6.339658358006733
 30
0.0
  0
VERTEX
  5
BF
  8
DEFAULT
 10
1.961596348484141
 20
6.36229063990824
 30
0.0
  0
VERTEX
  5
C0
  8
DEFAULT
 10
1.924044463839687
 20
6.385737500257664
 30
0.0
  0
VERTEX
  5
C1
  8
DEFAULT
 10
1.887055354470959
 20
6.409986815065281
 30
0.0
  0
VERTEX
  5
C2
  8
DEFAULT
 10
1.850641202748212
 20
6.435026460341368
 30
0.0
  0
VERTEX
  5
C3
  8
DEFAULT
 10
1.814814191041705
 20
6.460844312096202
 30
0.0
  0
VERTEX
  5
C4
  8
DEFAULT
 10
1.779586501721695
 20
6.487428246340058
 30
0.0
  0
VERTEX
  5
C5
  8
DEFAULT
 10
1.744970317158438
 20
6.514766139083212
 30
0.0
  0
VERTEX
  5
C6
  8
DEFAULT
 10
1.710977819722191
 20
6.542845866335941
 30
0.0
  0
VERTEX
  5
C7
  8
DEFAULT
 10
1.677621191783213
 20
6.57165530410852
 30
0.0
  0
VERTEX
  5
C8
  8
DEFAULT
 10
0.4999999999999996
 20
6.571824702261549
 30
0.0
  0
VERTEX
  5
C9
  8
DEFAULT
 10
0.5000000000000031
 20
9.571824702261548
 30
0.0
  0
VERTEX
  5
CA
  8
DEFAULT
 10
1.677571845188678
 20
9.571943935365983
 30
0.0
  0
VERTEX
  5
CB
  8
DEFAULT
 10
1.711277434693803
 20
9.601015424963581
 30
0.0
  0
VERTEX
  5
CC
  8
DEFAULT
 10
1.745613113995569
 20
9.629324230109699
 30
0.0
  0
VERTEX
  5
CD
  8
DEFAULT
 10
1.78056503727775
 20
9.656859843664758
 30
0.0
  0
VERTEX
  5
CE
  8
DEFAULT
 10
1.816119358724118
 20
9.683611758489189
 30
0.0
  0
VERTEX
  5
CF
  8
DEFAULT
 10
1.852262232518446
 20
9.709569467443412
 30
0.0
  0
VERTEX
  5
D0
  8
DEFAULT
 10
1.888979812844507
 20
9.73472246338785
 30
0.0
  0
VERTEX
  5
D1
  8
DEFAULT
 10
1.926258253886074
 20
9.759060239182933
 30
0.0
  0
VERTEX
  5
D2
  8
DEFAULT
 10
1.964083709826919
 20
9.782572287689081
 30
0.0
  0
VERTEX
  5
D3
  8
DEFAULT
 10
2.002442334850815
 20
9.805248101766722
 30
0.0
  0
VERTEX
  5
D4
  8
DEFAULT
 10
2.041320283141535
 20
9.827077174276283
 30
0.0
  0
VERTEX
  5
D5
  8
DEFAULT
 10
2.080703708882852
 20
9.848048998078184
 30
0.0
  0
VERTEX
  5
D6
  8
DEFAULT
 10
2.120578766258538
 20
9.868153066032853
 30
0.0
  0
VERTEX
  5
D7
  8
DEFAULT
 10
2.160931609452367
 20
9.887378871000713
 30
0.0
  0
VERTEX
  5
D8
  8
DEFAULT
 10
2.201748392648111
 20
9.90571590584219
 30
0.0
  0
VERTEX
  5
D9
  8
DEFAULT
 10
2.243015270029543
 20
9.923153663417708
 30
0.0
  0
VERTEX
  5
DA
  8
DEFAULT
 10
2.284718395780437
 20
9.939681636587693
 30
0.0
  0
VERTEX
  5
DB
  8
DEFAULT
 10
2.326843924084564
 20
9.955289318212568
 30
0.0
  0
VERTEX
  5
DC
  8
DEFAULT
 10
2.369378009125697
 20
9.969966201152761
 30
0.0
  0
VERTEX
  5
DD
  8
DEFAULT
 10
2.412306805087609
 20
9.983701778268694
 30
0.0
  0
VERTEX
  5
DE
  8
DEFAULT
 10
2.455616466154074
 20
9.996485542420793
 30
0.0
  0
VERTEX
  5
DF
  8
DEFAULT
 10
2.499293146508863
 20
10.00830698646948
 30
0.0
  0
VERTEX
  5
E0
  8
DEFAULT
 10
2.54332300033575
 20
10.01915560327519
 30
0.0
  0
VERTEX
  5
E1
  8
DEFAULT
 10
2.587692181818507
 20
10.02902088569833
 30
0.0
  0
VERTEX
  5
E2
  8
DEFAULT
 10
2.632386845140908
 20
10.03789232659934
 30
0.0
  0
VERTEX
  5
E3
  8
DEFAULT
 10
2.677393144486725
 20
10.04575941883864
 30
0.0
  0
VERTEX
  5
E4
  8
DEFAULT
 10
2.72269723403973
 20
10.05261165527666
 30
0.0
  0
VERTEX
  5
E5
  8
DEFAULT
 10
2.768285267983697
 20
10.05843852877381
 30
0.0
  0
VERTEX
  5
E6
  8
DEFAULT
 10
2.814143400502399
 20
10.06322953219053
 30
0.0
  0
VERTEX
  5
E7
  8
DEFAULT
 10
2.860257785779607
 20
10.06697415838724
 30
0.0
  0
VERTEX
  5
E8
  8
DEFAULT
 10
2.906614577999096
 20
10.06966190022436
 30
0.0
  0
VERTEX
  5
E9
  8
DEFAULT
 10
2.953199931344638
 20
10.07128225056233
 30
0.0
  0
VERTEX
  5
EA
  8
DEFAULT
 10
3.000000000000005
 20
10.07182470226155
 30
0.0
  0
VERTEX
  5
EB
  8
DEFAULT
 10
3.047403784745183
 20
10.07127394582586
 30
0.0
  0
VERTEX
  5
EC
  8
DEFAULT
 10
3.094537198463613
 20
10.06962975917861
 30
0.0
  0
VERTEX
  5
ED
  8
DEFAULT
 10
3.141388086147842
 20
10.06690426630953
 30
0.0
  0
VERTEX
  5
EE
  8
DEFAULT
 10
3.187944292790419
 20
10.06310959120833
 30
0.0
  0
VERTEX
  5
EF
  8
DEFAULT
 10
3.234193663383892
 20
10.05825785786474
 30
0.0
  0
VERTEX
  5
F0
  8
DEFAULT
 10
3.280124042920809
 20
10.05236119026848
 30
0.0
  0
VERTEX
  5
F1
  8
DEFAULT
 10
3.325723276393718
 20
10.04543171240928
 30
0.0
  0
VERTEX
  5
F2
  8
DEFAULT
 10
3.370979208795168
 20
10.03748154827686
 30
0.0
  0
VERTEX
  5
F3
  8
DEFAULT
 10
3.415879685117705
 20
10.02852282186095
 30
0.0
  0
VERTEX
  5
F4
  8
DEFAULT
 10
3.46041255035388
 20
10.01856765715127
 30
0.0
  0
VERTEX
  5
F5
  8
DEFAULT
 10
3.504565649496239
 20
10.00762817813753
 30
0.0
  0
VERTEX
  5
F6
  8
DEFAULT
 10
3.548326827537331
 20
9.995716508809476
 30
0.0
  0
VERTEX
  5
F7
  8
DEFAULT
 10
3.591683929469704
 20
9.982844773156819
 30
0.0
  0
VERTEX
  5
F8
  8
DEFAULT
 10
3.634624800285905
 20
9.969025095169282
 30
0.0
  0
VERTEX
  5
F9
  8
DEFAULT
 10
3.677137284978484
 20
9.954269598836593
 30
0.0
  0
VERTEX
  5
FA
  8
DEFAULT
 10
3.719209228539988
 20
9.938590408148475
 30
0.0
  0
VERTEX
  5
FB
  8
DEFAULT
 10
3.760828475962966
 20
9.92199964709465
 30
0.0
  0
VERTEX
  5
FC
  8
DEFAULT
 10
3.801982872239966
 20
9.904509439664842
 30
0.0
  0
VERTEX
  5
FD
  8
DEFAULT
 10
3.842660262363535
 20
9.886131909848777
 30
0.0
  0
VERTEX
  5
FE
  8
DEFAULT
 10
3.882848491326222
 20
9.866879181636175
 30
0.0
  0
VERTEX
  5
FF
  8
DEFAULT
 10
3.922535404120574
 20
9.846763379016762
 30
0.0
  0
VERTEX
  5
100
  8
DEFAULT
 10
3.961708845739142
 20
9.825796625980262
 30
0.0
  0
VERTEX
  5
101
  8
DEFAULT
 10
4.000356661174471
 20
9.803991046516396
 30
0.0
  0
VERTEX
  5
102
  8
DEFAULT
 10
4.03846669541911
 20
9.78135876461489
 30
0.0
  0
VERTEX
  5
103
  8
DEFAULT
 10
4.076026793465608
 20
9.757911904265466
 30
0.0
  0
VERTEX
  5
104
  8
DEFAULT
 10
4.113024800306513
 20
9.73366258945785
 30
0.0
  0
VERTEX
  5
105
  8
DEFAULT
 10
4.149448560934372
 20
9.708622944181764
 30
0.0
  0
VERTEX
  5
106
  8
DEFAULT
 10
4.185285920341734
 20
9.682805092426932
 30
0.0
  0
VERTEX
  5
107
  8
DEFAULT
 10
4.220524723521147
 20
9.656221158183076
 30
0.0
  0
VERTEX
  5
108
  8
DEFAULT
 10
4.255152815465159
 20
9.628883265439924
 30
0.0
  0
VERTEX
  5
109
  8
DEFAULT
 10
4.289158041166319
 20
9.600803538187197
 30
0.0
  0
VERTEX
  5
10A
  8
DEFAULT
 10
4.322528245617173
 20
9.571994100414617
 30
0.0
  0
VERTEX
  5
10B
  8
DEFAULT
 10
5.5
 20
9.571824702261546
 30
0.0
  0
VERTEX
  5
10C
  8
DEFAULT
 10
5.5
 20
6.571824702261549
 30
0.0
  0
SEQEND
  5
165
  8
DEFAULT
  0
POLYLINE
  5
71
  8
DEFAULT
 66
     1
 10
0.0
 20
0.0
 30
0.0
 70
     1
  0
VERTEX
  5
10D
  8
DEFAULT
 10
3.000000000000004
 20
9.38432470226155
 30
0.0
 42
0.4142135623730951
  0
VERTEX
  5
10E
  8
DEFAULT
 10
1.687500000000004
 20
8.07182470226155
 30
0.0
 42
0.4142135623730951
  0
VERTEX
  5
10F
  8
DEFAULT
 10
3.000000000000004
 20
6.75932470226155
 30
0.0
 42
0.4142135623730951
  0
VERTEX
  5
110
  8
DEFAULT
 10
4.312500000000004
 20
8.07182470226155
 30
0.0
 42
0.4142135623730951
  0
SEQEND
  5
166
  8
DEFAULT
  0
POLYLINE
  5
72
  8
DEFAULT
 66
     1
 10
0.0
 20
0.0
 30
0.0
 70
     1
  0
VERTEX
  5
111
  8
DEFAULT
 10
3.000000000000004
 20
9.50932470226155
 30
0.0
 42
0.4142135623730951
  0
VERTEX
  5
112
  8
DEFAULT
 10
1.562500000000004
 20
8.07182470226155
 30
0.0
 42
0.4142135623730951
  0
VERTEX
  5
113
  8
DEFAULT
 10
3.000000000000004
 20
6.63432470226155
 30
0.0
 42
0.4142135623730951
  0
VERTEX
  5
114
  8
DEFAULT
 10
4.437500000000004
 20
8.07182470226155
 30
0.0
 42
0.4142135623730951
  0
SEQEND
  5
167
  8
DEFAULT
  0
POLYLINE
  5
73
  8
DEFAULT
 66
     1
 10
0.0
 20
0.0
 30
0.0
 70
     1
  0
VERTEX
  5
115
  8
DEFAULT
 10
1.000038342955936
 20
0.4281752977384503
 30
0.0
  0
VERTEX
  5
116
  8
DEFAULT
 10
5.5
 20
0.4281752977384503
 30
0.0
  0
VERTEX
  5
117
  8
DEFAULT
 10
5.5
 20
2.92819365206535
 30
0.0
  0
VERTEX
  5
118
  8
DEFAULT
 10
5.499470930054978
 20
2.979745304651684
 30
0.0
  0
VERTEX
  5
119
  8
DEFAULT
 10
5.497889002957278
 20
3.031125546247988
 30
0.0
  0
VERTEX
  5
11A
  8
DEFAULT
 10
5.495262142812944
 20
3.082321277668647
 30
0.0
  0
VERTEX
  5
11B
  8
DEFAULT
 10
5.491598273728023
 20
3.133319399728046
 30
0.0
  0
VERTEX
  5
11C
  8
DEFAULT
 10
5.48690531980856
 20
3.184106813240567
 30
0.0
  0
VERTEX
  5
11D
  8
DEFAULT
 10
5.481191205160601
 20
3.234670419020597
 30
0.0
  0
VERTEX
  5
11E
  8
DEFAULT
 10
5.474463853890193
 20
3.28499711788252
 30
0.0
  0
VERTEX
  5
11F
  8
DEFAULT
 10
5.466731190103381
 20
3.335073810640721
 30
0.0
  0
VERTEX
  5
120
  8
DEFAULT
 10
5.45800113790621
 20
3.384887398109583
 30
0.0
  0
VERTEX
  5
121
  8
DEFAULT
 10
5.448281621404728
 20
3.434424781103492
 30
0.0
  0
VERTEX
  5
122
  8
DEFAULT
 10
5.437580564704978
 20
3.483672860436831
 30
0.0
  0
VERTEX
  5
123
  8
DEFAULT
 10
5.425905891913009
 20
3.532618536923986
 30
0.0
  0
VERTEX
  5
124
  8
DEFAULT
 10
5.413265527134865
 20
3.581248711379342
 30
0.0
  0
VERTEX
  5
125
  8
DEFAULT
 10
5.39966739447659
 20
3.629550284617281
 30
0.0
  0
VERTEX
  5
126
  8
DEFAULT
 10
5.385119418044232
 20
3.67751015745219
 30
0.0
  0
VERTEX
  5
127
  8
DEFAULT
 10
5.369629521943837
 20
3.725115230698453
 30
0.0
  0
VERTEX
  5
128
  8
DEFAULT
 10
5.353205630281451
 20
3.772352405170453
 30
0.0
  0
VERTEX
  5
129
  8
DEFAULT
 10
5.335855667163118
 20
3.819208581682576
 30
0.0
  0
VERTEX
  5
12A
  8
DEFAULT
 10
5.317587556694886
 20
3.865670661049207
 30
0.0
  0
VERTEX
  5
12B
  8
DEFAULT
 10
5.2984092229828
 20
3.911725544084729
 30
0.0
  0
VERTEX
  5
12C
  8
DEFAULT
 10
5.278328590132905
 20
3.957360131603528
 30
0.0
  0
VERTEX
  5
12D
  8
DEFAULT
 10
5.257353582251248
 20
4.002561324419988
 30
0.0
  0
VERTEX
  5
12E
  8
DEFAULT
 10
5.235492123443874
 20
4.047316023348492
 30
0.0
  0
VERTEX
  5
12F
  8
DEFAULT
 10
5.212752137816829
 20
4.091611129203427
 30
0.0
  0
VERTEX
  5
130
  8
DEFAULT
 10
5.189141549476159
 20
4.135433542799176
 30
0.0
  0
VERTEX
  5
131
  8
DEFAULT
 10
5.16466828252791
 20
4.178770164950125
 30
0.0
  0
VERTEX
  5
132
  8
DEFAULT
 10
5.139340261078128
 20
4.221607896470656
 30
0.0
  0
VERTEX
  5
133
  8
DEFAULT
 10
5.113165409232858
 20
4.263933638175157
 30
0.0
  0
VERTEX
  5
134
  8
DEFAULT
 10
5.086151651098147
 20
4.305734290878009
 30
0.0
  0
VERTEX
  5
135
  8
DEFAULT
 10
5.058306910780039
 20
4.346996755393599
 30
0.0
  0
VERTEX
  5
136
  8
DEFAULT
 10
5.029639112384582
 20
4.38770793253631
 30
0.0
  0
VERTEX
  5
137
  8
DEFAULT
 10
5.00015618001782
 20
4.427854723120528
 30
0.0
  0
VERTEX
  5
138
  8
DEFAULT
 10
5.000038342955937
 20
5.428175297738451
 30
0.0
  0
VERTEX
  5
139
  8
DEFAULT
 10
1.000038342955936
 20
5.42817529773845
 30
0.0
  0
VERTEX
  5
13A
  8
DEFAULT
 10
0.5
 20
5.42817529773845
 30
0.0
  0
VERTEX
  5
13B
  8
DEFAULT
 10
0.5
 20
2.92819365206481
 30
0.0
  0
VERTEX
  5
13C
  8
DEFAULT
 10
0.5005210762011718
 20
2.877107378708284
 30
0.0
  0
VERTEX
  5
13D
  8
DEFAULT
 10
0.5020800591299117
 20
2.826154185286049
 30
0.0
  0
VERTEX
  5
13E
  8
DEFAULT
 10
0.5046705802740568
 20
2.775347997796187
 30
0.0
  0
VERTEX
  5
13F
  8
DEFAULT
 10
0.5082862711214442
 20
2.724702742236782
 30
0.0
  0
VERTEX
  5
140
  8
DEFAULT
 10
0.5129207631599113
 20
2.674232344605918
 30
0.0
  0
VERTEX
  5
141
  8
DEFAULT
 10
0.5185676878772952
 20
2.623950730901676
 30
0.0
  0
VERTEX
  5
142
  8
DEFAULT
 10
0.5252206767614334
 20
2.573871827122141
 30
0.0
  0
VERTEX
  5
143
  8
DEFAULT
 10
0.5328733613001628
 20
2.524009559265395
 30
0.0
  0
VERTEX
  5
144
  8
DEFAULT
 10
0.5415193729813208
 20
2.474377853329521
 30
0.0
  0
VERTEX
  5
145
  8
DEFAULT
 10
0.5511523432927447
 20
2.424990635312604
 30
0.0
  0
VERTEX
  5
146
  8
DEFAULT
 10
0.5617659037222715
 20
2.375861831212725
 30
0.0
  0
VERTEX
  5
147
  8
DEFAULT
 10
0.5733536857577387
 20
2.327005367027969
 30
0.0
  0
VERTEX
  5
148
  8
DEFAULT
 10
0.5859093208869834
 20
2.278435168756418
 30
0.0
  0
VERTEX
  5
149
  8
DEFAULT
 10
0.5994264405978429
 20
2.230165162396156
 30
0.0
  0
VERTEX
  5
14A
  8
DEFAULT
 10
0.6138986763781542
 20
2.182209273945265
 30
0.0
  0
VERTEX
  5
14B
  8
DEFAULT
 10
0.6293196597157549
 20
2.134581429401829
 30
0.0
  0
VERTEX
  5
14C
  8
DEFAULT
 10
0.6456830220984819
 20
2.087295554763931
 30
0.0
  0
VERTEX
  5
14D
  8
DEFAULT
 10
0.6629823950141726
 20
2.040365576029653
 30
0.0
  0
VERTEX
  5
14E
  8
DEFAULT
 10
0.6812114099506642
 20
1.99380541919708
 30
0.0
  0
VERTEX
  5
14F
  8
DEFAULT
 10
0.700363698395794
 20
1.947629010264295
 30
0.0
  0
VERTEX
  5
150
  8
DEFAULT
 10
0.7204328918373992
 20
1.901850275229381
 30
0.0
  0
VERTEX
  5
151
  8
DEFAULT
 10
0.741412621763317
 20
1.85648314009042
 30
0.0
  0
VERTEX
  5
152
  8
DEFAULT
 10
0.7632965196613845
 20
1.811541530845496
 30
0.0
  0
VERTEX
  5
153
  8
DEFAULT
 10
0.7860782170194391
 20
1.767039373492692
 30
0.0
  0
VERTEX
  5
154
  8
DEFAULT
 10
0.8097513453253182
 20
1.722990594030091
 30
0.0
  0
VERTEX
  5
155
  8
DEFAULT
 10
0.8343095360668586
 20
1.679409118455777
 30
0.0
  0
VERTEX
  5
156
  8
DEFAULT
 10
0.8597464207318979
 20
1.636308872767832
 30
0.0
  0
VERTEX
  5
157
  8
DEFAULT
 10
0.8860556308082732
 20
1.59370378296434
 30
0.0
  0
VERTEX
  5
158
  8
DEFAULT
 10
0.9132307977838217
 20
1.551607775043384
 30
0.0
  0
VERTEX
  5
159
  8
DEFAULT
 10
0.9412655531463807
 20
1.510034775003047
 30
0.0
  0
VERTEX
  5
15A
  8
DEFAULT
 10
0.9701535283837874
 20
1.468998708841413
 30
0.0
  0
VERTEX
  5
15B
  8
DEFAULT
 10
0.9998883549838791
 20
1.428513502556563
 30
0.0
  0
VERTEX
  5
15C
  8
DEFAULT
 10
1.000038342955936
 20
0.4281752977384499
 30
0.0
  0
VERTEX
  5
15D
  8
DEFAULT
 10
5.000038342955936
 20
0.4281752977384494
 30
0.0
  0
VERTEX
  5
15E
  8
DEFAULT
 10
5.000038342955936
 20
0.4281752977384503
 30
0.0
  0
SEQEND
  5
168
  8
DEFAULT
  0
ENDSEC
  0
EOF
