  0
SECTION
  2
HEADER
  9
$ACADVER
  1
AC1018
  9
$ACADMAINTVER
 70
     0
  9
$DWGCODEPAGE
  3
ANSI_1252
  9
$INSBASE
 10
0.0
 20
0.0
 30
0.0
  9
$EXTMIN
 10
1.000000000000000E+20
 20
1.000000000000000E+20
 30
1.000000000000000E+20
  9
$EXTMAX
 10
-1.000000000000000E+20
 20
-1.000000000000000E+20
 30
-1.000000000000000E+20
  9
$LIMMIN
 10
0.0
 20
0.0
  9
$LIMMAX
 10
12.0
 20
9.0
  9
$ORTHOMODE
 70
     0
  9
$REGENMODE
 70
     1
  9
$FILLMODE
 70
     1
  9
$QTEXTMODE
 70
     0
  9
$MIRRTEXT
 70
     1
  9
$LTSCALE
 40
1.0
  9
$ATTMODE
 70
     1
  9
$TEXTSIZE
 40
0.2
  9
$TRACEWID
 40
0.05
  9
$TEXTSTYLE
  7
Standard
  9
$CLAYER
  8
0
  9
$CELTYPE
  6
ByLayer
  9
$CECOLOR
 62
   256
  9
$CELTSCALE
 40
1.0
  9
$DISPSILH
 70
     0
  9
$DIMSCALE
 40
1.0
  9
$DIMASZ
 40
0.18
  9
$DIMEXO
 40
0.0625
  9
$DIMDLI
 40
0.38
  9
$DIMRND
 40
0.0
  9
$DIMDLE
 40
0.0
  9
$DIMEXE
 40
0.18
  9
$DIMTP
 40
0.0
  9
$DIMTM
 40
0.0
  9
$DIMTXT
 40
0.18
  9
$DIMCEN
 40
0.09
  9
$DIMTSZ
 40
0.0
  9
$DIMTOL
 70
     0
  9
$DIMLIM
 70
     0
  9
$DIMTIH
 70
     1
  9
$DIMTOH
 70
     1
  9
$DIMSE1
 70
     0
  9
$DIMSE2
 70
     0
  9
$DIMTAD
 70
     0
  9
$DIMZIN
 70
     0
  9
$DIMBLK
  1

  9
$DIMASO
 70
     1
  9
$DIMSHO
 70
     1
  9
$DIMPOST
  1

  9
$DIMAPOST
  1

  9
$DIMALT
 70
     0
  9
$DIMALTD
 70
     2
  9
$DIMALTF
 40
25.4
  9
$DIMLFAC
 40
1.0
  9
$DIMTOFL
 70
     0
  9
$DIMTVP
 40
0.0
  9
$DIMTIX
 70
     0
  9
$DIMSOXD
 70
     0
  9
$DIMSAH
 70
     0
  9
$DIMBLK1
  1

  9
$DIMBLK2
  1

  9
$DIMSTYLE
  2
Standard
  9
$DIMCLRD
 70
     0
  9
$DIMCLRE
 70
     0
  9
$DIMCLRT
 70
     0
  9
$DIMTFAC
 40
1.0
  9
$DIMGAP
 40
0.09
  9
$DIMJUST
 70
     0
  9
$DIMSD1
 70
     0
  9
$DIMSD2
 70
     0
  9
$DIMTOLJ
 70
     1
  9
$DIMTZIN
 70
     0
  9
$DIMALTZ
 70
     0
  9
$DIMALTTZ
 70
     0
  9
$DIMUPT
 70
     0
  9
$DIMDEC
 70
     4
  9
$DIMTDEC
 70
     4
  9
$DIMALTU
 70
     2
  9
$DIMALTTD
 70
     2
  9
$DIMTXSTY
  7
Standard
  9
$DIMAUNIT
 70
     0
  9
$DIMADEC
 70
     0
  9
$DIMALTRND
 40
0.0
  9
$DIMAZIN
 70
     0
  9
$DIMDSEP
 70
    46
  9
$DIMATFIT
 70
     3
  9
$DIMFRAC
 70
     0
  9
$DIMLDRBLK
  1

  9
$DIMLUNIT
 70
     2
  9
$DIMLWD
 70
    -2
  9
$DIMLWE
 70
    -2
  9
$DIMTMOVE
 70
     0
  9
$LUNITS
 70
     2
  9
$LUPREC
 70
     4
  9
$SKETCHINC
 40
0.1
  9
$FILLETRAD
 40
0.5
  9
$AUNITS
 70
     0
  9
$AUPREC
 70
     0
  9
$MENU
  1
.
  9
$ELEVATION
 40
0.0
  9
$PELEVATION
 40
0.0
  9
$THICKNESS
 40
0.0
  9
$LIMCHECK
 70
     0
  9
$CHAMFERA
 40
0.5
  9
$CHAMFERB
 40
0.5
  9
$CHAMFERC
 40
1.0
  9
$CHAMFERD
 40
0.0
  9
$SKPOLY
 70
     0
  9
$TDCREATE
 40
2456550.638413947
  9
$TDUCREATE
 40
2456550.930080614
  9
$TDUPDATE
 40
2456550.638413958
  9
$TDUUPDATE
 40
2456550.930080625
  9
$TDINDWG
 40
0.0000000116
  9
$TDUSRTIMER
 40
0.0000000116
  9
$USRTIMER
 70
     1
  9
$ANGBASE
 50
0.0
  9
$ANGDIR
 70
     0
  9
$PDMODE
 70
     0
  9
$PDSIZE
 40
0.0
  9
$PLINEWID
 40
0.0
  9
$SPLFRAME
 70
     0
  9
$SPLINETYPE
 70
     6
  9
$SPLINESEGS
 70
     8
  9
$HANDSEED
  5
4E
  9
$SURFTAB1
 70
     6
  9
$SURFTAB2
 70
     6
  9
$SURFTYPE
 70
     6
  9
$SURFU
 70
     6
  9
$SURFV
 70
     6
  9
$UCSBASE
  2

  9
$UCSNAME
  2

  9
$UCSORG
 10
0.0
 20
0.0
 30
0.0
  9
$UCSXDIR
 10
1.0
 20
0.0
 30
0.0
  9
$UCSYDIR
 10
0.0
 20
1.0
 30
0.0
  9
$UCSORTHOREF
  2

  9
$UCSORTHOVIEW
 70
     0
  9
$UCSORGTOP
 10
0.0
 20
0.0
 30
0.0
  9
$UCSORGBOTTOM
 10
0.0
 20
0.0
 30
0.0
  9
$UCSORGLEFT
 10
0.0
 20
0.0
 30
0.0
  9
$UCSORGRIGHT
 10
0.0
 20
0.0
 30
0.0
  9
$UCSORGFRONT
 10
0.0
 20
0.0
 30
0.0
  9
$UCSORGBACK
 10
0.0
 20
0.0
 30
0.0
  9
$PUCSBASE
  2

  9
$PUCSNAME
  2

  9
$PUCSORG
 10
0.0
 20
0.0
 30
0.0
  9
$PUCSXDIR
 10
1.0
 20
0.0
 30
0.0
  9
$PUCSYDIR
 10
0.0
 20
1.0
 30
0.0
  9
$PUCSORTHOREF
  2

  9
$PUCSORTHOVIEW
 70
     0
  9
$PUCSORGTOP
 10
0.0
 20
0.0
 30
0.0
  9
$PUCSORGBOTTOM
 10
0.0
 20
0.0
 30
0.0
  9
$PUCSORGLEFT
 10
0.0
 20
0.0
 30
0.0
  9
$PUCSORGRIGHT
 10
0.0
 20
0.0
 30
0.0
  9
$PUCSORGFRONT
 10
0.0
 20
0.0
 30
0.0
  9
$PUCSORGBACK
 10
0.0
 20
0.0
 30
0.0
  9
$USERI1
 70
     0
  9
$USERI2
 70
     0
  9
$USERI3
 70
     0
  9
$USERI4
 70
     0
  9
$USERI5
 70
     0
  9
$USERR1
 40
0.0
  9
$USERR2
 40
0.0
  9
$USERR3
 40
0.0
  9
$USERR4
 40
0.0
  9
$USERR5
 40
0.0
  9
$WORLDVIEW
 70
     1
  9
$SHADEDGE
 70
     3
  9
$SHADEDIF
 70
    70
  9
$TILEMODE
 70
     1
  9
$MAXACTVP
 70
    64
  9
$PINSBASE
 10
0.0
 20
0.0
 30
0.0
  9
$PLIMCHECK
 70
     0
  9
$PEXTMIN
 10
1.000000000000000E+20
 20
1.000000000000000E+20
 30
1.000000000000000E+20
  9
$PEXTMAX
 10
-1.000000000000000E+20
 20
-1.000000000000000E+20
 30
-1.000000000000000E+20
  9
$PLIMMIN
 10
0.0
 20
0.0
  9
$PLIMMAX
 10
12.0
 20
9.0
  9
$UNITMODE
 70
     0
  9
$VISRETAIN
 70
     1
  9
$PLINEGEN
 70
     0
  9
$PSLTSCALE
 70
     1
  9
$TREEDEPTH
 70
  3020
  9
$CMLSTYLE
  2
Standard
  9
$CMLJUST
 70
     0
  9
$CMLSCALE
 40
1.0
  9
$PROXYGRAPHICS
 70
     1
  9
$MEASUREMENT
 70
     0
  9
$CELWEIGHT
370
    -1
  9
$ENDCAPS
280
     0
  9
$JOINSTYLE
280
     0
  9
$LWDISPLAY
290
     1
  9
$INSUNITS
 70
     1
  9
$HYPERLINKBASE
  1

  9
$STYLESHEET
  1

  9
$XEDIT
290
     1
  9
$CEPSNTYPE
380
     0
  9
$PSTYLEMODE
290
     1
  9
$FINGERPRINTGUID
  2
{DE790FE8-CBB2-4242-BA0E-BAC7648484AA}
  9
$VERSIONGUID
  2
{FAEB1C32-E019-11D5-929B-00C0DF256EC4}
  9
$EXTNAMES
290
     1
  9
$PSVPSCALE
 40
0.0
  9
$OLESTARTUP
290
     0
  9
$SORTENTS
280
   127
  9
$INDEXCTL
280
     0
  9
$HIDETEXT
280
     1
  9
$XCLIPFRAME
290
     0
  9
$HALOGAP
280
     0
  9
$OBSCOLOR
 70
   257
  9
$OBSLTYPE
280
     0
  9
$INTERSECTIONDISPLAY
280
     0
  9
$INTERSECTIONCOLOR
 70
   257
  9
$DIMASSOC
280
     2
  9
$PROJECTNAME
  1

  0
ENDSEC
  0
SECTION
  2
CLASSES
  0
CLASS
  1
ACDBDICTIONARYWDFLT
  2
AcDbDictionaryWithDefault
  3
ObjectDBX Classes
 90
        0
 91
        3
280
     0
281
     0
  0
CLASS
  1
VISUALSTYLE
  2
AcDbVisualStyle
  3
ObjectDBX Classes
 90
     4095
 91
        3
280
     0
281
     0
  0
ENDSEC
  0
SECTION
  2
TABLES
  0
TABLE
  2
VPORT
  5
8
330
0
100
AcDbSymbolTable
 70
     1
  0
VPORT
  5
29
330
8
100
AcDbSymbolTableRecord
100
AcDbViewportTableRecord
  2
*Active
 70
     0
 10
0.0
 20
0.0
 11
1.0
 21
1.0
 12
0.0
 22
0.0
 13
0.0
 23
0.0
 14
0.5
 24
0.5
 15
0.5
 25
0.5
 16
0.0
 26
0.0
 36
1.0
 17
1.5
 27
-3.5
 37
0.0
 40
7.0
 41
0.4285714285714285
 42
50.0
 43
0.0
 44
0.0
 50
0.0
 51
0.0
 71
     0
 72
   100
 73
     1
 74
     3
 75
     0
 76
     0
 77
     0
 78
     0
281
     0
 65
     1
110
0.0
120
0.0
130
0.0
111
1.0
121
0.0
131
0.0
112
0.0
122
1.0
132
0.0
 79
     0
146
0.0
  0
ENDTAB
  0
TABLE
  2
LTYPE
  5
5
330
0
100
AcDbSymbolTable
 70
     1
  0
LTYPE
  5
14
330
5
100
AcDbSymbolTableRecord
100
AcDbLinetypeTableRecord
  2
ByBlock
 70
     0
  3

 72
    65
 73
     0
 40
0.0
  0
LTYPE
  5
15
330
5
100
AcDbSymbolTableRecord
100
AcDbLinetypeTableRecord
  2
ByLayer
 70
     0
  3

 72
    65
 73
     0
 40
0.0
  0
LTYPE
  5
16
330
5
100
AcDbSymbolTableRecord
100
AcDbLinetypeTableRecord
  2
Continuous
 70
     0
  3
Solid line
 72
    65
 73
     0
 40
0.0
  0
ENDTAB
  0
TABLE
  2
LAYER
  5
2
330
0
100
AcDbSymbolTable
 70
     2
  0
LAYER
  5
10
330
2
100
AcDbSymbolTableRecord
100
AcDbLayerTableRecord
  2
0
 70
     0
 62
     7
  6
Continuous
370
    -3
390
F
  0
LAYER
  5
3B
330
2
100
AcDbSymbolTableRecord
100
AcDbLayerTableRecord
  2
Layer 1
 70
     0
 62
     7
  6
Continuous
370
    -3
390
F
  0
ENDTAB
  0
TABLE
  2
STYLE
  5
3
330
0
100
AcDbSymbolTable
 70
     1
  0
STYLE
  5
11
330
3
100
AcDbSymbolTableRecord
100
AcDbTextStyleTableRecord
  2
Standard
 70
     0
 40
0.0
 41
1.0
 50
0.0
 71
     0
 42
0.2
  3
txt
  4

  0
ENDTAB
  0
TABLE
  2
VIEW
  5
6
330
0
100
AcDbSymbolTable
 70
     0
  0
ENDTAB
  0
TABLE
  2
UCS
  5
7
330
0
100
AcDbSymbolTable
 70
     0
  0
ENDTAB
  0
TABLE
  2
APPID
  5
9
330
0
100
AcDbSymbolTable
 70
     1
  0
APPID
  5
12
330
9
100
AcDbSymbolTableRecord
100
AcDbRegAppTableRecord
  2
ACAD
 70
     0
  0
ENDTAB
  0
TABLE
  2
DIMSTYLE
  5
A
330
0
100
AcDbSymbolTable
 70
     1
100
AcDbDimStyleTable
  0
DIMSTYLE
105
27
330
A
100
AcDbSymbolTableRecord
100
AcDbDimStyleTableRecord
  2
Standard
 70
     0
340
11
  0
ENDTAB
  0
TABLE
  2
BLOCK_RECORD
  5
1
330
0
100
AcDbSymbolTable
 70
     2
  0
BLOCK_RECORD
  5
1F
330
1
100
AcDbSymbolTableRecord
100
AcDbBlockTableRecord
  2
*Model_Space
340
22
  0
BLOCK_RECORD
  5
1B
330
1
100
AcDbSymbolTableRecord
100
AcDbBlockTableRecord
  2
*Paper_Space
340
1E
  0
BLOCK_RECORD
  5
23
330
1
100
AcDbSymbolTableRecord
100
AcDbBlockTableRecord
  2
*Paper_Space0
340
26
  0
BLOCK_RECORD
  5
3D
330
1
100
AcDbSymbolTableRecord
100
AcDbBlockTableRecord
  2
block 2
340
0
102
{BLKREFS
331
3E
102
}
  0
ENDTAB
  0
ENDSEC
  0
SECTION
  2
BLOCKS
  0
BLOCK
  5
20
330
1F
100
AcDbEntity
  8
0
100
AcDbBlockBegin
  2
*Model_Space
 70
     0
 71
     0
 10
0.0
 20
0.0
 30
0.0
  3
*Model_Space
  1

  0
ENDBLK
  5
21
330
1F
100
AcDbEntity
  8
0
100
AcDbBlockEnd
  0
BLOCK
  5
1C
330
1B
100
AcDbEntity
 67
     1
  8
0
100
AcDbBlockBegin
  2
*Paper_Space
 70
     0
 71
     0
 10
0.0
 20
0.0
 30
0.0
  3
*Paper_Space
  1

  0
ENDBLK
  5
1D
330
1B
100
AcDbEntity
 67
     1
  8
0
100
AcDbBlockEnd
  0
BLOCK
  5
24
330
23
100
AcDbEntity
  8
0
100
AcDbBlockBegin
  2
*Paper_Space0
 70
     0
 71
     0
 10
0.0
 20
0.0
 30
0.0
  3
*Paper_Space0
  1

  0
ENDBLK
  5
25
330
23
100
AcDbEntity
  8
0
100
AcDbBlockEnd
  0
BLOCK
  5
3F
330
3D
100
AcDbEntity
  8
0
100
AcDbBlockBegin
  2
block 2
 70
     0
 71
     0
 10
0.0
 20
0.0
 30
0.0
  3
block 2
  1

  0
SPLINE
  5
41
330
3D
100
AcDbEntity
  8
Layer 1
370
     0
100
AcDbSpline
210
0.0
220
0.0
230
1.0
 70
    11
 71
     3
 72
    77
 73
    73
 74
     0
 42
0.0000000001
 43
0.0000000001
 40
0.0
 40
0.0
 40
0.0
 40
0.0
 40
1.0
 40
1.0
 40
1.0
 40
2.0
 40
2.0
 40
2.0
 40
3.0
 40
3.0
 40
3.0
 40
4.0
 40
4.0
 40
4.0
 40
5.0
 40
5.0
 40
5.0
 40
6.0
 40
6.0
 40
6.0
 40
7.0
 40
7.0
 40
7.0
 40
8.0
 40
8.0
 40
8.0
 40
9.0
 40
9.0
 40
9.0
 40
10.0
 40
10.0
 40
10.0
 40
11.0
 40
11.0
 40
11.0
 40
12.0
 40
12.0
 40
12.0
 40
13.0
 40
13.0
 40
13.0
 40
14.0
 40
14.0
 40
14.0
 40
15.0
 40
15.0
 40
15.0
 40
16.0
 40
16.0
 40
16.0
 40
17.0
 40
17.0
 40
17.0
 40
18.0
 40
18.0
 40
18.0
 40
19.0
 40
19.0
 40
19.0
 40
20.0
 40
20.0
 40
20.0
 40
21.0
 40
21.0
 40
21.0
 40
22.0
 40
22.0
 40
22.0
 40
23.0
 40
23.0
 40
23.0
 40
24.0
 40
24.0
 40
24.0
 40
24.0
 10
1.299397786458333
 20
-1.480027940538194
 30
0.0
 10
1.275777180989583
 20
-1.481452094184028
 30
0.0
 10
1.252027723524306
 20
-1.485175238715278
 30
0.0
 10
1.22857666015625
 20
-1.483778211805556
 30
0.0
 10
1.1898193359375
 20
-1.481479220920139
 30
0.0
 10
1.150838216145833
 20
-1.479905870225694
 30
0.0
 10
1.112711588541667
 20
-1.470669216579861
 30
0.0
 10
1.087809244791667
 20
-1.464633517795139
 30
0.0
 10
1.061394585503472
 20
-1.463270399305556
 30
0.0
 10
1.037618001302083
 20
-1.454508463541667
 30
0.0
 10
0.9861246744791666
 20
-1.435533311631944
 30
0.0
 10
0.9310641818576388
 20
-1.4227294921875
 30
0.0
 10
0.8937784830729166
 20
-1.376173231336806
 30
0.0
 10
0.8745456271701388
 20
-1.352159288194444
 30
0.0
 10
0.859280056423611
 20
-1.32916259765625
 30
0.0
 10
0.85504150390625
 20
-1.296529134114583
 30
0.0
 10
0.8509385850694444
 20
-1.264892578125
 30
0.0
 10
0.8492499457465277
 20
-1.234415690104167
 30
0.0
 10
0.8585747612847222
 20
-1.204725477430556
 30
0.0
 10
0.8707817925347222
 20
-1.165852864583333
 30
0.0
 10
0.8940294053819444
 20
-1.134290907118056
 30
0.0
 10
0.931640625
 20
-1.115220811631944
 30
0.0
 10
0.9480658637152777
 20
-1.106892903645833
 30
0.0
 10
0.9645250108506944
 20
-1.098558213975694
 30
0.0
 10
0.9805094401041666
 20
-1.089430067274306
 30
0.0
 10
1.010335286458333
 20
-1.072408040364583
 30
0.0
 10
1.043226453993056
 20
-1.065599229600694
 30
0.0
 10
1.076368543836806
 20
-1.059414333767361
 30
0.0
 10
1.07830810546875
 20
-1.059054904513889
 30
0.0
 10
1.080518934461806
 20
-1.059529622395833
 30
0.0
 10
1.082261827256944
 20
-1.058803982204861
 30
0.0
 10
1.117967393663194
 20
-1.044026692708333
 30
0.0
 10
1.1561279296875
 20
-1.047444661458333
 30
0.0
 10
1.193284776475694
 20
-1.044657389322917
 30
0.0
 10
1.222066243489583
 20
-1.042500813802083
 30
0.0
 10
1.251186794704861
 20
-1.043674045138889
 30
0.0
 10
1.280097113715278
 20
-1.044833713107639
 30
0.0
 10
1.298475477430556
 20
-1.045572916666667
 30
0.0
 10
1.316745334201389
 20
-1.049004448784722
 30
0.0
 10
1.335055881076389
 20
-1.051235622829861
 30
0.0
 10
1.390068901909722
 20
-1.057949490017361
 30
0.0
 10
1.442125108506944
 20
-1.072821723090278
 30
0.0
 10
1.488301595052083
 20
-1.104987250434028
 30
0.0
 10
1.5072021484375
 20
-1.118150499131944
 30
0.0
 10
1.527275933159722
 20
-1.129631890190972
 30
0.0
 10
1.546183268229167
 20
-1.142788357204861
 30
0.0
 10
1.554606119791667
 20
-1.148654513888889
 30
0.0
 10
1.562174479166667
 20
-1.156155056423611
 30
0.0
 10
1.568874782986111
 20
-1.163994683159722
 30
0.0
 10
1.577433268229167
 20
-1.173997667100694
 30
0.0
 10
1.585720486111111
 20
-1.18450927734375
 30
0.0
 10
1.592258029513889
 20
-1.195882161458333
 30
0.0
 10
1.598036024305555
 20
-1.2059326171875
 30
0.0
 10
1.602403428819444
 20
-1.2171630859375
 30
0.0
 10
1.605333116319444
 20
-1.228413899739583
 30
0.0
 10
1.609456380208333
 20
-1.244181315104167
 30
0.0
 10
1.6119384765625
 20
-1.260396321614583
 30
0.0
 10
1.614529079861111
 20
-1.276516384548611
 30
0.0
 10
1.6153564453125
 20
-1.2816162109375
 30
0.0
 10
1.615776909722222
 20
-1.287638346354167
 30
0.0
 10
1.613878038194444
 20
-1.292182074652778
 30
0.0
 10
1.591552734375
 20
-1.3453369140625
 30
0.0
 10
1.567572699652778
 20
-1.396219889322917
 30
0.0
 10
1.514431423611111
 20
-1.428243001302083
 30
0.0
 10
1.465874565972222
 20
-1.45751953125
 30
0.0
 10
1.413099500868056
 20
-1.468546549479167
 30
0.0
 10
1.358669704861111
 20
-1.476169162326389
 30
0.0
 10
1.339063856336806
 20
-1.478922526041667
 30
0.0
 10
1.319288465711806
 20
-1.48052978515625
 30
0.0
 10
1.299594455295139
 20
-1.482666015625
 30
0.0
 10
1.299533420138889
 20
-1.481784396701389
 30
0.0
 10
1.299458821614583
 20
-1.480902777777778
 30
0.0
 10
1.299397786458333
 20
-1.480027940538194
 30
0.0
  0
SPLINE
  5
42
330
3D
100
AcDbEntity
  8
Layer 1
370
     0
100
AcDbSpline
210
0.0
220
0.0
230
1.0
 70
    11
 71
     3
 72
    74
 73
    70
 74
     0
 42
0.0000000001
 43
0.0000000001
 40
0.0
 40
0.0
 40
0.0
 40
0.0
 40
1.0
 40
1.0
 40
1.0
 40
2.0
 40
2.0
 40
2.0
 40
3.0
 40
3.0
 40
3.0
 40
4.0
 40
4.0
 40
4.0
 40
5.0
 40
5.0
 40
5.0
 40
6.0
 40
6.0
 40
6.0
 40
7.0
 40
7.0
 40
7.0
 40
8.0
 40
8.0
 40
8.0
 40
9.0
 40
9.0
 40
9.0
 40
10.0
 40
10.0
 40
10.0
 40
11.0
 40
11.0
 40
11.0
 40
12.0
 40
12.0
 40
12.0
 40
13.0
 40
13.0
 40
13.0
 40
14.0
 40
14.0
 40
14.0
 40
15.0
 40
15.0
 40
15.0
 40
16.0
 40
16.0
 40
16.0
 40
17.0
 40
17.0
 40
17.0
 40
18.0
 40
18.0
 40
18.0
 40
19.0
 40
19.0
 40
19.0
 40
20.0
 40
20.0
 40
20.0
 40
21.0
 40
21.0
 40
21.0
 40
22.0
 40
22.0
 40
22.0
 40
23.0
 40
23.0
 40
23.0
 40
23.0
 10
1.280856662326389
 20
-1.459174262152778
 30
0.0
 10
1.281012641059028
 20
-1.460578070746528
 30
0.0
 10
1.281168619791667
 20
-1.461981879340278
 30
0.0
 10
1.281331380208333
 20
-1.463385687934028
 30
0.0
 10
1.296908908420139
 20
-1.461785210503472
 30
0.0
 10
1.312798394097222
 20
-1.461615668402778
 30
0.0
 10
1.328009711371528
 20
-1.458306206597222
 30
0.0
 10
1.365871853298611
 20
-1.450059678819444
 30
0.0
 10
1.403272840711806
 20
-1.439615885416667
 30
0.0
 10
1.441168891059028
 20
-1.431559244791667
 30
0.0
 10
1.466200086805556
 20
-1.426235622829861
 30
0.0
 10
1.48907470703125
 20
-1.415574815538194
 30
0.0
 10
1.508443196614583
 20
-1.400566948784722
 30
0.0
 10
1.542399088541667
 20
-1.374267578125
 30
0.0
 10
1.565077039930555
 20
-1.339382595486111
 30
0.0
 10
1.578640407986111
 20
-1.297702365451389
 30
0.0
 10
1.586235894097222
 20
-1.274366590711806
 30
0.0
 10
1.58203125
 20
-1.251641167534722
 30
0.0
 10
1.579874674479167
 20
-1.229756673177083
 30
0.0
 10
1.578097873263889
 20
-1.211581759982639
 30
0.0
 10
1.565592447916667
 20
-1.193345811631944
 30
0.0
 10
1.554524739583333
 20
-1.17742919921875
 30
0.0
 10
1.530707465277778
 20
-1.143181694878472
 30
0.0
 10
1.493211534288194
 20
-1.126051161024306
 30
0.0
 10
1.457973904079861
 20
-1.106960720486111
 30
0.0
 10
1.423868815104167
 20
-1.088487413194444
 30
0.0
 10
1.385701497395833
 20
-1.082411024305556
 30
0.0
 10
1.348042805989583
 20
-1.075080023871528
 30
0.0
 10
1.296535915798611
 20
-1.065049913194444
 30
0.0
 10
1.24456787109375
 20
-1.065416124131944
 30
0.0
 10
1.192450629340278
 20
-1.0654296875
 30
0.0
 10
1.155192057291667
 20
-1.065443250868056
 30
0.0
 10
1.118889702690972
 20
-1.071431477864583
 30
0.0
 10
1.082763671875
 20
-1.078843858506944
 30
0.0
 10
1.056396484375
 20
-1.084255642361111
 30
0.0
 10
1.029730902777778
 20
-1.089877658420139
 30
0.0
 10
1.004591200086806
 20
-1.099168565538194
 30
0.0
 10
0.9819742838541666
 20
-1.107530381944444
 30
0.0
 10
0.9615614149305555
 20
-1.121670193142361
 30
0.0
 10
0.939602322048611
 20
-1.132066514756944
 30
0.0
 10
0.9181857638888888
 20
-1.1422119140625
 30
0.0
 10
0.9032796223958333
 20
-1.159233940972222
 30
0.0
 10
0.8936292860243055
 20
-1.179206000434028
 30
0.0
 10
0.8692423502604166
 20
-1.229668511284722
 30
0.0
 10
0.8595445421006944
 20
-1.282063802083333
 30
0.0
 10
0.8860677083333333
 20
-1.335137261284722
 30
0.0
 10
0.8917575412326388
 20
-1.346530490451389
 30
0.0
 10
0.9014214409722222
 20
-1.35601806640625
 30
0.0
 10
0.9097086588541666
 20
-1.366000705295139
 30
0.0
 10
0.9134385850694444
 20
-1.370496961805556
 30
0.0
 10
0.9205118815104166
 20
-1.373291015625
 30
0.0
 10
0.9222140842013888
 20
-1.378187391493056
 30
0.0
 10
0.9274631076388888
 20
-1.393269856770833
 30
0.0
 10
0.9398600260416666
 20
-1.39874267578125
 30
0.0
 10
0.9526435004340277
 20
-1.404140896267361
 30
0.0
 10
0.9653727213541666
 20
-1.409518771701389
 30
0.0
 10
0.9781358506944444
 20
-1.414896647135417
 30
0.0
 10
0.9911634657118055
 20
-1.419501410590278
 30
0.0
 10
1.00787353515625
 20
-1.4254150390625
 30
0.0
 10
1.024509006076389
 20
-1.432325575086806
 30
0.0
 10
1.041788736979167
 20
-1.435689290364583
 30
0.0
 10
1.087476942274306
 20
-1.444593641493056
 30
0.0
 10
1.133449978298611
 20
-1.452067057291667
 30
0.0
 10
1.179402669270833
 20
-1.459567599826389
 30
0.0
 10
1.196173773871528
 20
-1.462307400173611
 30
0.0
 10
1.21319580078125
 20
-1.465094672309028
 30
0.0
 10
1.230095757378472
 20
-1.465006510416667
 30
0.0
 10
1.247022840711806
 20
-1.464911566840278
 30
0.0
 10
1.263936360677083
 20
-1.461263020833333
 30
0.0
 10
1.280856662326389
 20
-1.459174262152778
 30
0.0
  0
HATCH
  5
43
330
3D
100
AcDbEntity
  8
Layer 1
 62
     7
420
 16777215
100
AcDbHatch
 10
0.0
 20
0.0
 30
0.0
210
0.0
220
0.0
230
1.0
  2
SOLID
 70
     1
 71
     0
 91
        2
 92
        1
 93
        1
 72
     4
 94
        3
 73
     0
 74
     1
 95
       77
 96
       73
 40
0.0
 40
0.0
 40
0.0
 40
0.0
 40
1.0
 40
1.0
 40
1.0
 40
2.0
 40
2.0
 40
2.0
 40
3.0
 40
3.0
 40
3.0
 40
4.0
 40
4.0
 40
4.0
 40
5.0
 40
5.0
 40
5.0
 40
6.0
 40
6.0
 40
6.0
 40
7.0
 40
7.0
 40
7.0
 40
8.0
 40
8.0
 40
8.0
 40
9.0
 40
9.0
 40
9.0
 40
10.0
 40
10.0
 40
10.0
 40
11.0
 40
11.0
 40
11.0
 40
12.0
 40
12.0
 40
12.0
 40
13.0
 40
13.0
 40
13.0
 40
14.0
 40
14.0
 40
14.0
 40
15.0
 40
15.0
 40
15.0
 40
16.0
 40
16.0
 40
16.0
 40
17.0
 40
17.0
 40
17.0
 40
18.0
 40
18.0
 40
18.0
 40
19.0
 40
19.0
 40
19.0
 40
20.0
 40
20.0
 40
20.0
 40
21.0
 40
21.0
 40
21.0
 40
22.0
 40
22.0
 40
22.0
 40
23.0
 40
23.0
 40
23.0
 40
24.0
 40
24.0
 40
24.0
 40
24.0
 10
1.299397786458333
 20
-1.480027940538194
 10
1.275777180989583
 20
-1.481452094184028
 10
1.252027723524306
 20
-1.485175238715278
 10
1.22857666015625
 20
-1.483778211805556
 10
1.1898193359375
 20
-1.481479220920139
 10
1.150838216145833
 20
-1.479905870225694
 10
1.112711588541667
 20
-1.470669216579861
 10
1.087809244791667
 20
-1.464633517795139
 10
1.061394585503472
 20
-1.463270399305556
 10
1.037618001302083
 20
-1.454508463541667
 10
0.9861246744791666
 20
-1.435533311631944
 10
0.9310641818576388
 20
-1.4227294921875
 10
0.8937784830729166
 20
-1.376173231336806
 10
0.8745456271701388
 20
-1.352159288194444
 10
0.859280056423611
 20
-1.32916259765625
 10
0.85504150390625
 20
-1.296529134114583
 10
0.8509385850694444
 20
-1.264892578125
 10
0.8492499457465277
 20
-1.234415690104167
 10
0.8585747612847222
 20
-1.204725477430556
 10
0.8707817925347222
 20
-1.165852864583333
 10
0.8940294053819444
 20
-1.134290907118056
 10
0.931640625
 20
-1.115220811631944
 10
0.9480658637152777
 20
-1.106892903645833
 10
0.9645250108506944
 20
-1.098558213975694
 10
0.9805094401041666
 20
-1.089430067274306
 10
1.010335286458333
 20
-1.072408040364583
 10
1.043226453993056
 20
-1.065599229600694
 10
1.076368543836806
 20
-1.059414333767361
 10
1.07830810546875
 20
-1.059054904513889
 10
1.080518934461806
 20
-1.059529622395833
 10
1.082261827256944
 20
-1.058803982204861
 10
1.117967393663194
 20
-1.044026692708333
 10
1.1561279296875
 20
-1.047444661458333
 10
1.193284776475694
 20
-1.044657389322917
 10
1.222066243489583
 20
-1.042500813802083
 10
1.251186794704861
 20
-1.043674045138889
 10
1.280097113715278
 20
-1.044833713107639
 10
1.298475477430556
 20
-1.045572916666667
 10
1.316745334201389
 20
-1.049004448784722
 10
1.335055881076389
 20
-1.051235622829861
 10
1.390068901909722
 20
-1.057949490017361
 10
1.442125108506944
 20
-1.072821723090278
 10
1.488301595052083
 20
-1.104987250434028
 10
1.5072021484375
 20
-1.118150499131944
 10
1.527275933159722
 20
-1.129631890190972
 10
1.546183268229167
 20
-1.142788357204861
 10
1.554606119791667
 20
-1.148654513888889
 10
1.562174479166667
 20
-1.156155056423611
 10
1.568874782986111
 20
-1.163994683159722
 10
1.577433268229167
 20
-1.173997667100694
 10
1.585720486111111
 20
-1.18450927734375
 10
1.592258029513889
 20
-1.195882161458333
 10
1.598036024305555
 20
-1.2059326171875
 10
1.602403428819444
 20
-1.2171630859375
 10
1.605333116319444
 20
-1.228413899739583
 10
1.609456380208333
 20
-1.244181315104167
 10
1.6119384765625
 20
-1.260396321614583
 10
1.614529079861111
 20
-1.276516384548611
 10
1.6153564453125
 20
-1.2816162109375
 10
1.615776909722222
 20
-1.287638346354167
 10
1.613878038194444
 20
-1.292182074652778
 10
1.591552734375
 20
-1.3453369140625
 10
1.567572699652778
 20
-1.396219889322917
 10
1.514431423611111
 20
-1.428243001302083
 10
1.465874565972222
 20
-1.45751953125
 10
1.413099500868056
 20
-1.468546549479167
 10
1.358669704861111
 20
-1.476169162326389
 10
1.339063856336806
 20
-1.478922526041667
 10
1.319288465711806
 20
-1.48052978515625
 10
1.299594455295139
 20
-1.482666015625
 10
1.299533420138889
 20
-1.481784396701389
 10
1.299458821614583
 20
-1.480902777777778
 10
1.299397786458333
 20
-1.480027940538194
 97
        0
 92
        1
 93
        1
 72
     4
 94
        3
 73
     0
 74
     1
 95
       74
 96
       70
 40
0.0
 40
0.0
 40
0.0
 40
0.0
 40
1.0
 40
1.0
 40
1.0
 40
2.0
 40
2.0
 40
2.0
 40
3.0
 40
3.0
 40
3.0
 40
4.0
 40
4.0
 40
4.0
 40
5.0
 40
5.0
 40
5.0
 40
6.0
 40
6.0
 40
6.0
 40
7.0
 40
7.0
 40
7.0
 40
8.0
 40
8.0
 40
8.0
 40
9.0
 40
9.0
 40
9.0
 40
10.0
 40
10.0
 40
10.0
 40
11.0
 40
11.0
 40
11.0
 40
12.0
 40
12.0
 40
12.0
 40
13.0
 40
13.0
 40
13.0
 40
14.0
 40
14.0
 40
14.0
 40
15.0
 40
15.0
 40
15.0
 40
16.0
 40
16.0
 40
16.0
 40
17.0
 40
17.0
 40
17.0
 40
18.0
 40
18.0
 40
18.0
 40
19.0
 40
19.0
 40
19.0
 40
20.0
 40
20.0
 40
20.0
 40
21.0
 40
21.0
 40
21.0
 40
22.0
 40
22.0
 40
22.0
 40
23.0
 40
23.0
 40
23.0
 40
23.0
 10
1.280856662326389
 20
-1.459174262152778
 10
1.281012641059028
 20
-1.460578070746528
 10
1.281168619791667
 20
-1.461981879340278
 10
1.281331380208333
 20
-1.463385687934028
 10
1.296908908420139
 20
-1.461785210503472
 10
1.312798394097222
 20
-1.461615668402778
 10
1.328009711371528
 20
-1.458306206597222
 10
1.365871853298611
 20
-1.450059678819444
 10
1.403272840711806
 20
-1.439615885416667
 10
1.441168891059028
 20
-1.431559244791667
 10
1.466200086805556
 20
-1.426235622829861
 10
1.48907470703125
 20
-1.415574815538194
 10
1.508443196614583
 20
-1.400566948784722
 10
1.542399088541667
 20
-1.374267578125
 10
1.565077039930555
 20
-1.339382595486111
 10
1.578640407986111
 20
-1.297702365451389
 10
1.586235894097222
 20
-1.274366590711806
 10
1.58203125
 20
-1.251641167534722
 10
1.579874674479167
 20
-1.229756673177083
 10
1.578097873263889
 20
-1.211581759982639
 10
1.565592447916667
 20
-1.193345811631944
 10
1.554524739583333
 20
-1.17742919921875
 10
1.530707465277778
 20
-1.143181694878472
 10
1.493211534288194
 20
-1.126051161024306
 10
1.457973904079861
 20
-1.106960720486111
 10
1.423868815104167
 20
-1.088487413194444
 10
1.385701497395833
 20
-1.082411024305556
 10
1.348042805989583
 20
-1.075080023871528
 10
1.296535915798611
 20
-1.065049913194444
 10
1.24456787109375
 20
-1.065416124131944
 10
1.192450629340278
 20
-1.0654296875
 10
1.155192057291667
 20
-1.065443250868056
 10
1.118889702690972
 20
-1.071431477864583
 10
1.082763671875
 20
-1.078843858506944
 10
1.056396484375
 20
-1.084255642361111
 10
1.029730902777778
 20
-1.089877658420139
 10
1.004591200086806
 20
-1.099168565538194
 10
0.9819742838541666
 20
-1.107530381944444
 10
0.9615614149305555
 20
-1.121670193142361
 10
0.939602322048611
 20
-1.132066514756944
 10
0.9181857638888888
 20
-1.1422119140625
 10
0.9032796223958333
 20
-1.159233940972222
 10
0.8936292860243055
 20
-1.179206000434028
 10
0.8692423502604166
 20
-1.229668511284722
 10
0.8595445421006944
 20
-1.282063802083333
 10
0.8860677083333333
 20
-1.335137261284722
 10
0.8917575412326388
 20
-1.346530490451389
 10
0.9014214409722222
 20
-1.35601806640625
 10
0.9097086588541666
 20
-1.366000705295139
 10
0.9134385850694444
 20
-1.370496961805556
 10
0.9205118815104166
 20
-1.373291015625
 10
0.9222140842013888
 20
-1.378187391493056
 10
0.9274631076388888
 20
-1.393269856770833
 10
0.9398600260416666
 20
-1.39874267578125
 10
0.9526435004340277
 20
-1.404140896267361
 10
0.9653727213541666
 20
-1.409518771701389
 10
0.9781358506944444
 20
-1.414896647135417
 10
0.9911634657118055
 20
-1.419501410590278
 10
1.00787353515625
 20
-1.4254150390625
 10
1.024509006076389
 20
-1.432325575086806
 10
1.041788736979167
 20
-1.435689290364583
 10
1.087476942274306
 20
-1.444593641493056
 10
1.133449978298611
 20
-1.452067057291667
 10
1.179402669270833
 20
-1.459567599826389
 10
1.196173773871528
 20
-1.462307400173611
 10
1.21319580078125
 20
-1.465094672309028
 10
1.230095757378472
 20
-1.465006510416667
 10
1.247022840711806
 20
-1.464911566840278
 10
1.263936360677083
 20
-1.461263020833333
 10
1.280856662326389
 20
-1.459174262152778
 97
        0
 75
     0
 76
     1
 98
        0
  0
SPLINE
  5
44
330
3D
100
AcDbEntity
  8
Layer 1
370
     0
100
AcDbSpline
210
0.0
220
0.0
230
1.0
 70
    11
 71
     3
 72
    32
 73
    28
 74
     0
 42
0.0000000001
 43
0.0000000001
 40
0.0
 40
0.0
 40
0.0
 40
0.0
 40
1.0
 40
1.0
 40
1.0
 40
2.0
 40
2.0
 40
2.0
 40
3.0
 40
3.0
 40
3.0
 40
4.0
 40
4.0
 40
4.0
 40
5.0
 40
5.0
 40
5.0
 40
6.0
 40
6.0
 40
6.0
 40
7.0
 40
7.0
 40
7.0
 40
8.0
 40
8.0
 40
8.0
 40
9.0
 40
9.0
 40
9.0
 40
9.0
 10
1.504252115885417
 20
-0.881740993923611
 30
0.0
 10
1.50714111328125
 20
-0.8292032877604166
 30
0.0
 10
1.506462944878472
 20
-0.7721421983506944
 30
0.0
 10
1.528537326388889
 20
-0.7183634440104166
 30
0.0
 10
1.533284505208333
 20
-0.7067938910590278
 30
0.0
 10
1.537190755208333
 20
-0.6945665147569444
 30
0.0
 10
1.543863932291667
 20
-0.684170193142361
 30
0.0
 10
1.565266927083333
 20
-0.65081787109375
 30
0.0
 10
1.605916341145833
 20
-0.6527574327256944
 30
0.0
 10
1.6256103515625
 20
-0.6872626410590278
 30
0.0
 10
1.6361083984375
 20
-0.7056613498263888
 30
0.0
 10
1.63916015625
 20
-0.7259860568576388
 30
0.0
 10
1.639404296875
 20
-0.7464124891493055
 30
0.0
 10
1.639892578125
 20
-0.7871636284722222
 30
0.0
 10
1.640760633680555
 20
-0.8280775282118055
 30
0.0
 10
1.637830946180555
 20
-0.8686659071180555
 30
0.0
 10
1.635145399305555
 20
-0.9060397677951388
 30
0.0
 10
1.628078884548611
 20
-0.9430745442708333
 30
0.0
 10
1.611409505208333
 20
-0.977566189236111
 30
0.0
 10
1.596177842881944
 20
-1.009060329861111
 30
0.0
 10
1.556125217013889
 20
-1.014723036024306
 30
0.0
 10
1.532877604166667
 20
-0.9880303276909722
 30
0.0
 10
1.510769314236111
 20
-0.9626397026909722
 30
0.0
 10
1.504903157552083
 20
-0.9319932725694444
 30
0.0
 10
1.504265679253472
 20
-0.899658203125
 30
0.0
 10
1.504177517361111
 20
-0.8950398763020833
 30
0.0
 10
1.504252115885417
 20
-0.8904147677951388
 30
0.0
 10
1.504252115885417
 20
-0.881740993923611
 30
0.0
  0
SPLINE
  5
45
330
3D
100
AcDbEntity
  8
Layer 1
370
     0
100
AcDbSpline
210
0.0
220
0.0
230
1.0
 70
    11
 71
     3
 72
    23
 73
    19
 74
     0
 42
0.0000000001
 43
0.0000000001
 40
0.0
 40
0.0
 40
0.0
 40
0.0
 40
1.0
 40
1.0
 40
1.0
 40
2.0
 40
2.0
 40
2.0
 40
3.0
 40
3.0
 40
3.0
 40
4.0
 40
4.0
 40
4.0
 40
5.0
 40
5.0
 40
5.0
 40
6.0
 40
6.0
 40
6.0
 40
6.0
 10
1.605672200520833
 20
-0.7233683268229166
 30
0.0
 10
1.606553819444444
 20
-0.7063462999131944
 30
0.0
 10
1.6029052734375
 20
-0.696316189236111
 30
0.0
 10
1.591389973958333
 20
-0.6905856662326388
 30
0.0
 10
1.581190321180555
 20
-0.6855061848958333
 30
0.0
 10
1.5679931640625
 20
-0.6875
 30
0.0
 10
1.560560438368055
 20
-0.6963094075520833
 30
0.0
 10
1.549207899305556
 20
-0.7097507052951388
 30
0.0
 10
1.544976128472222
 20
-0.7251722547743055
 30
0.0
 10
1.551527235243056
 20
-0.7423231336805555
 30
0.0
 10
1.5552978515625
 20
-0.7522176106770833
 30
0.0
 10
1.561659071180555
 20
-0.7595553927951388
 30
0.0
 10
1.573065863715278
 20
-0.7598944769965278
 30
0.0
 10
1.584513346354167
 20
-0.7602267795138888
 30
0.0
 10
1.594129774305555
 20
-0.7556898328993055
 30
0.0
 10
1.598917643229167
 20
-0.7450697157118055
 30
0.0
 10
1.602647569444444
 20
-0.7367960611979166
 30
0.0
 10
1.604397243923611
 20
-0.727627224392361
 30
0.0
 10
1.605672200520833
 20
-0.7233683268229166
 30
0.0
  0
HATCH
  5
46
330
3D
100
AcDbEntity
  8
Layer 1
 62
     7
420
 16777215
100
AcDbHatch
 10
0.0
 20
0.0
 30
0.0
210
0.0
220
0.0
230
1.0
  2
SOLID
 70
     1
 71
     0
 91
        2
 92
        1
 93
        1
 72
     4
 94
        3
 73
     0
 74
     1
 95
       32
 96
       28
 40
0.0
 40
0.0
 40
0.0
 40
0.0
 40
1.0
 40
1.0
 40
1.0
 40
2.0
 40
2.0
 40
2.0
 40
3.0
 40
3.0
 40
3.0
 40
4.0
 40
4.0
 40
4.0
 40
5.0
 40
5.0
 40
5.0
 40
6.0
 40
6.0
 40
6.0
 40
7.0
 40
7.0
 40
7.0
 40
8.0
 40
8.0
 40
8.0
 40
9.0
 40
9.0
 40
9.0
 40
9.0
 10
1.504252115885417
 20
-0.881740993923611
 10
1.50714111328125
 20
-0.8292032877604166
 10
1.506462944878472
 20
-0.7721421983506944
 10
1.528537326388889
 20
-0.7183634440104166
 10
1.533284505208333
 20
-0.7067938910590278
 10
1.537190755208333
 20
-0.6945665147569444
 10
1.543863932291667
 20
-0.684170193142361
 10
1.565266927083333
 20
-0.65081787109375
 10
1.605916341145833
 20
-0.6527574327256944
 10
1.6256103515625
 20
-0.6872626410590278
 10
1.6361083984375
 20
-0.7056613498263888
 10
1.63916015625
 20
-0.7259860568576388
 10
1.639404296875
 20
-0.7464124891493055
 10
1.639892578125
 20
-0.7871636284722222
 10
1.640760633680555
 20
-0.8280775282118055
 10
1.637830946180555
 20
-0.8686659071180555
 10
1.635145399305555
 20
-0.9060397677951388
 10
1.628078884548611
 20
-0.9430745442708333
 10
1.611409505208333
 20
-0.977566189236111
 10
1.596177842881944
 20
-1.009060329861111
 10
1.556125217013889
 20
-1.014723036024306
 10
1.532877604166667
 20
-0.9880303276909722
 10
1.510769314236111
 20
-0.9626397026909722
 10
1.504903157552083
 20
-0.9319932725694444
 10
1.504265679253472
 20
-0.899658203125
 10
1.504177517361111
 20
-0.8950398763020833
 10
1.504252115885417
 20
-0.8904147677951388
 10
1.504252115885417
 20
-0.881740993923611
 97
        0
 92
        1
 93
        1
 72
     4
 94
        3
 73
     0
 74
     1
 95
       23
 96
       19
 40
0.0
 40
0.0
 40
0.0
 40
0.0
 40
1.0
 40
1.0
 40
1.0
 40
2.0
 40
2.0
 40
2.0
 40
3.0
 40
3.0
 40
3.0
 40
4.0
 40
4.0
 40
4.0
 40
5.0
 40
5.0
 40
5.0
 40
6.0
 40
6.0
 40
6.0
 40
6.0
 10
1.605672200520833
 20
-0.7233683268229166
 10
1.606553819444444
 20
-0.7063462999131944
 10
1.6029052734375
 20
-0.696316189236111
 10
1.591389973958333
 20
-0.6905856662326388
 10
1.581190321180555
 20
-0.6855061848958333
 10
1.5679931640625
 20
-0.6875
 10
1.560560438368055
 20
-0.6963094075520833
 10
1.549207899305556
 20
-0.7097507052951388
 10
1.544976128472222
 20
-0.7251722547743055
 10
1.551527235243056
 20
-0.7423231336805555
 10
1.5552978515625
 20
-0.7522176106770833
 10
1.561659071180555
 20
-0.7595553927951388
 10
1.573065863715278
 20
-0.7598944769965278
 10
1.584513346354167
 20
-0.7602267795138888
 10
1.594129774305555
 20
-0.7556898328993055
 10
1.598917643229167
 20
-0.7450697157118055
 10
1.602647569444444
 20
-0.7367960611979166
 10
1.604397243923611
 20
-0.727627224392361
 10
1.605672200520833
 20
-0.7233683268229166
 97
        0
 75
     0
 76
     1
 98
        0
  0
SPLINE
  5
47
330
3D
100
AcDbEntity
  8
Layer 1
370
     0
100
AcDbSpline
210
0.0
220
0.0
230
1.0
 70
    11
 71
     3
 72
    35
 73
    31
 74
     0
 42
0.0000000001
 43
0.0000000001
 40
0.0
 40
0.0
 40
0.0
 40
0.0
 40
1.0
 40
1.0
 40
1.0
 40
2.0
 40
2.0
 40
2.0
 40
3.0
 40
3.0
 40
3.0
 40
4.0
 40
4.0
 40
4.0
 40
5.0
 40
5.0
 40
5.0
 40
6.0
 40
6.0
 40
6.0
 40
7.0
 40
7.0
 40
7.0
 40
8.0
 40
8.0
 40
8.0
 40
9.0
 40
9.0
 40
9.0
 40
10.0
 40
10.0
 40
10.0
 40
10.0
 10
0.9607476128472222
 20
-0.8625352647569444
 30
0.0
 10
0.9603407118055555
 20
-0.8233710394965277
 30
0.0
 10
0.9664238823784722
 20
-0.785610622829861
 30
0.0
 10
0.9788004557291666
 20
-0.7480265299479166
 30
0.0
 10
0.9879964192708333
 20
-0.7200927734375
 30
0.0
 10
1.000766330295139
 20
-0.6944512261284722
 30
0.0
 10
1.014817979600694
 20
-0.669216579861111
 30
0.0
 10
1.024529351128472
 20
-0.6517673068576388
 30
0.0
 10
1.046332465277778
 20
-0.6461113823784722
 30
0.0
 10
1.062757703993056
 20
-0.6569010416666666
 30
0.0
 10
1.069593641493056
 20
-0.6613905164930555
 30
0.0
 10
1.076633029513889
 20
-0.6706882052951388
 30
0.0
 10
1.077440049913194
 20
-0.6784396701388888
 30
0.0
 10
1.086249457465278
 20
-0.7630547417534722
 30
0.0
 10
1.08154296875
 20
-0.8470798068576388
 30
0.0
 10
1.062452528211806
 20
-0.9300672743055555
 30
0.0
 10
1.059821234809028
 20
-0.9415079752604166
 30
0.0
 10
1.055426703559028
 20
-0.9529215494791666
 30
0.0
 10
1.049777560763889
 20
-0.9632093641493055
 30
0.0
 10
1.039076063368056
 20
-0.982666015625
 30
0.0
 10
1.017096625434028
 20
-0.9805230034722222
 30
0.0
 10
0.99951171875
 20
-0.9850531684027777
 30
0.0
 10
0.9945475260416666
 20
-0.986328125
 30
0.0
 10
0.9841105143229166
 20
-0.9755588107638888
 30
0.0
 10
0.9797498914930555
 20
-0.96820068359375
 30
0.0
 10
0.9674479166666666
 20
-0.947475857204861
 30
0.0
 10
0.962185329861111
 20
-0.9241672092013888
 30
0.0
 10
0.9608629014756944
 20
-0.9001803927951388
 30
0.0
 10
0.9601779513888888
 20
-0.8876681857638888
 30
0.0
 10
0.9607476128472222
 20
-0.875088161892361
 30
0.0
 10
0.9607476128472222
 20
-0.8625352647569444
 30
0.0
  0
SPLINE
  5
48
330
3D
100
AcDbEntity
  8
Layer 1
370
     0
100
AcDbSpline
210
0.0
220
0.0
230
1.0
 70
    11
 71
     3
 72
    20
 73
    16
 74
     0
 42
0.0000000001
 43
0.0000000001
 40
0.0
 40
0.0
 40
0.0
 40
0.0
 40
1.0
 40
1.0
 40
1.0
 40
2.0
 40
2.0
 40
2.0
 40
3.0
 40
3.0
 40
3.0
 40
4.0
 40
4.0
 40
4.0
 40
5.0
 40
5.0
 40
5.0
 40
5.0
 10
1.062940809461806
 20
-0.7084486219618055
 30
0.0
 10
1.062106662326389
 20
-0.7044745551215278
 30
0.0
 10
1.061537000868056
 20
-0.6991441514756944
 30
0.0
 10
1.059848361545139
 20
-0.6941867404513888
 30
0.0
 10
1.055582682291667
 20
-0.681667751736111
 30
0.0
 10
1.043409559461806
 20
-0.6762017144097222
 30
0.0
 10
1.031243218315972
 20
-0.6808810763888888
 30
0.0
 10
1.011854383680556
 20
-0.6883341471354166
 30
0.0
 10
1.000576443142361
 20
-0.7237277560763888
 30
0.0
 10
1.012213812934028
 20
-0.740566677517361
 30
0.0
 10
1.019883897569444
 20
-0.7516547309027778
 30
0.0
 10
1.035495334201389
 20
-0.75469970703125
 30
0.0
 10
1.045057508680556
 20
-0.746120876736111
 30
0.0
 10
1.05572509765625
 20
-0.736538357204861
 30
0.0
 10
1.062242296006944
 20
-0.7244669596354166
 30
0.0
 10
1.062940809461806
 20
-0.7084486219618055
 30
0.0
  0
HATCH
  5
49
330
3D
100
AcDbEntity
  8
Layer 1
 62
     7
420
 16777215
100
AcDbHatch
 10
0.0
 20
0.0
 30
0.0
210
0.0
220
0.0
230
1.0
  2
SOLID
 70
     1
 71
     0
 91
        2
 92
        1
 93
        1
 72
     4
 94
        3
 73
     0
 74
     1
 95
       35
 96
       31
 40
0.0
 40
0.0
 40
0.0
 40
0.0
 40
1.0
 40
1.0
 40
1.0
 40
2.0
 40
2.0
 40
2.0
 40
3.0
 40
3.0
 40
3.0
 40
4.0
 40
4.0
 40
4.0
 40
5.0
 40
5.0
 40
5.0
 40
6.0
 40
6.0
 40
6.0
 40
7.0
 40
7.0
 40
7.0
 40
8.0
 40
8.0
 40
8.0
 40
9.0
 40
9.0
 40
9.0
 40
10.0
 40
10.0
 40
10.0
 40
10.0
 10
0.9607476128472222
 20
-0.8625352647569444
 10
0.9603407118055555
 20
-0.8233710394965277
 10
0.9664238823784722
 20
-0.785610622829861
 10
0.9788004557291666
 20
-0.7480265299479166
 10
0.9879964192708333
 20
-0.7200927734375
 10
1.000766330295139
 20
-0.6944512261284722
 10
1.014817979600694
 20
-0.669216579861111
 10
1.024529351128472
 20
-0.6517673068576388
 10
1.046332465277778
 20
-0.6461113823784722
 10
1.062757703993056
 20
-0.6569010416666666
 10
1.069593641493056
 20
-0.6613905164930555
 10
1.076633029513889
 20
-0.6706882052951388
 10
1.077440049913194
 20
-0.6784396701388888
 10
1.086249457465278
 20
-0.7630547417534722
 10
1.08154296875
 20
-0.8470798068576388
 10
1.062452528211806
 20
-0.9300672743055555
 10
1.059821234809028
 20
-0.9415079752604166
 10
1.055426703559028
 20
-0.9529215494791666
 10
1.049777560763889
 20
-0.9632093641493055
 10
1.039076063368056
 20
-0.982666015625
 10
1.017096625434028
 20
-0.9805230034722222
 10
0.99951171875
 20
-0.9850531684027777
 10
0.9945475260416666
 20
-0.986328125
 10
0.9841105143229166
 20
-0.9755588107638888
 10
0.9797498914930555
 20
-0.96820068359375
 10
0.9674479166666666
 20
-0.947475857204861
 10
0.962185329861111
 20
-0.9241672092013888
 10
0.9608629014756944
 20
-0.9001803927951388
 10
0.9601779513888888
 20
-0.8876681857638888
 10
0.9607476128472222
 20
-0.875088161892361
 10
0.9607476128472222
 20
-0.8625352647569444
 97
        0
 92
        1
 93
        1
 72
     4
 94
        3
 73
     0
 74
     1
 95
       20
 96
       16
 40
0.0
 40
0.0
 40
0.0
 40
0.0
 40
1.0
 40
1.0
 40
1.0
 40
2.0
 40
2.0
 40
2.0
 40
3.0
 40
3.0
 40
3.0
 40
4.0
 40
4.0
 40
4.0
 40
5.0
 40
5.0
 40
5.0
 40
5.0
 10
1.062940809461806
 20
-0.7084486219618055
 10
1.062106662326389
 20
-0.7044745551215278
 10
1.061537000868056
 20
-0.6991441514756944
 10
1.059848361545139
 20
-0.6941867404513888
 10
1.055582682291667
 20
-0.681667751736111
 10
1.043409559461806
 20
-0.6762017144097222
 10
1.031243218315972
 20
-0.6808810763888888
 10
1.011854383680556
 20
-0.6883341471354166
 10
1.000576443142361
 20
-0.7237277560763888
 10
1.012213812934028
 20
-0.740566677517361
 10
1.019883897569444
 20
-0.7516547309027778
 10
1.035495334201389
 20
-0.75469970703125
 10
1.045057508680556
 20
-0.746120876736111
 10
1.05572509765625
 20
-0.736538357204861
 10
1.062242296006944
 20
-0.7244669596354166
 10
1.062940809461806
 20
-0.7084486219618055
 97
        0
 75
     0
 76
     1
 98
        0
  0
SPLINE
  5
4A
330
3D
100
AcDbEntity
  8
Layer 1
370
     0
100
AcDbSpline
210
0.0
220
0.0
230
1.0
 70
    11
 71
     3
 72
    74
 73
    70
 74
     0
 42
0.0000000001
 43
0.0000000001
 40
0.0
 40
0.0
 40
0.0
 40
0.0
 40
1.0
 40
1.0
 40
1.0
 40
2.0
 40
2.0
 40
2.0
 40
3.0
 40
3.0
 40
3.0
 40
4.0
 40
4.0
 40
4.0
 40
5.0
 40
5.0
 40
5.0
 40
6.0
 40
6.0
 40
6.0
 40
7.0
 40
7.0
 40
7.0
 40
8.0
 40
8.0
 40
8.0
 40
9.0
 40
9.0
 40
9.0
 40
10.0
 40
10.0
 40
10.0
 40
11.0
 40
11.0
 40
11.0
 40
12.0
 40
12.0
 40
12.0
 40
13.0
 40
13.0
 40
13.0
 40
14.0
 40
14.0
 40
14.0
 40
15.0
 40
15.0
 40
15.0
 40
16.0
 40
16.0
 40
16.0
 40
17.0
 40
17.0
 40
17.0
 40
18.0
 40
18.0
 40
18.0
 40
19.0
 40
19.0
 40
19.0
 40
20.0
 40
20.0
 40
20.0
 40
21.0
 40
21.0
 40
21.0
 40
22.0
 40
22.0
 40
22.0
 40
23.0
 40
23.0
 40
23.0
 40
23.0
 10
1.280856662326389
 20
-1.459174262152778
 30
0.0
 10
1.263936360677083
 20
-1.461263020833333
 30
0.0
 10
1.247022840711806
 20
-1.464911566840278
 30
0.0
 10
1.230095757378472
 20
-1.465006510416667
 30
0.0
 10
1.21319580078125
 20
-1.465094672309028
 30
0.0
 10
1.196173773871528
 20
-1.462307400173611
 30
0.0
 10
1.179402669270833
 20
-1.459567599826389
 30
0.0
 10
1.133449978298611
 20
-1.452067057291667
 30
0.0
 10
1.087476942274306
 20
-1.444593641493056
 30
0.0
 10
1.041788736979167
 20
-1.435689290364583
 30
0.0
 10
1.024509006076389
 20
-1.432325575086806
 30
0.0
 10
1.00787353515625
 20
-1.4254150390625
 30
0.0
 10
0.9911634657118055
 20
-1.419501410590278
 30
0.0
 10
0.9781358506944444
 20
-1.414896647135417
 30
0.0
 10
0.9653727213541666
 20
-1.409518771701389
 30
0.0
 10
0.9526435004340277
 20
-1.404140896267361
 30
0.0
 10
0.9398600260416666
 20
-1.39874267578125
 30
0.0
 10
0.9274631076388888
 20
-1.393269856770833
 30
0.0
 10
0.9222140842013888
 20
-1.378187391493056
 30
0.0
 10
0.9205118815104166
 20
-1.373291015625
 30
0.0
 10
0.9134385850694444
 20
-1.370496961805556
 30
0.0
 10
0.9097086588541666
 20
-1.366000705295139
 30
0.0
 10
0.9014214409722222
 20
-1.35601806640625
 30
0.0
 10
0.8917575412326388
 20
-1.346530490451389
 30
0.0
 10
0.8860677083333333
 20
-1.335137261284722
 30
0.0
 10
0.8595445421006944
 20
-1.282063802083333
 30
0.0
 10
0.8692423502604166
 20
-1.229668511284722
 30
0.0
 10
0.8936292860243055
 20
-1.179206000434028
 30
0.0
 10
0.9032796223958333
 20
-1.159233940972222
 30
0.0
 10
0.9181857638888888
 20
-1.1422119140625
 30
0.0
 10
0.939602322048611
 20
-1.132066514756944
 30
0.0
 10
0.9615614149305555
 20
-1.121670193142361
 30
0.0
 10
0.9819742838541666
 20
-1.107530381944444
 30
0.0
 10
1.004591200086806
 20
-1.099168565538194
 30
0.0
 10
1.029730902777778
 20
-1.089877658420139
 30
0.0
 10
1.056396484375
 20
-1.084255642361111
 30
0.0
 10
1.082763671875
 20
-1.078843858506944
 30
0.0
 10
1.118889702690972
 20
-1.071431477864583
 30
0.0
 10
1.155192057291667
 20
-1.065443250868056
 30
0.0
 10
1.192450629340278
 20
-1.0654296875
 30
0.0
 10
1.24456787109375
 20
-1.065416124131944
 30
0.0
 10
1.296535915798611
 20
-1.065049913194444
 30
0.0
 10
1.348042805989583
 20
-1.075080023871528
 30
0.0
 10
1.385701497395833
 20
-1.082411024305556
 30
0.0
 10
1.423868815104167
 20
-1.088487413194444
 30
0.0
 10
1.457973904079861
 20
-1.106960720486111
 30
0.0
 10
1.493211534288194
 20
-1.126051161024306
 30
0.0
 10
1.530707465277778
 20
-1.143181694878472
 30
0.0
 10
1.554524739583333
 20
-1.17742919921875
 30
0.0
 10
1.565592447916667
 20
-1.193345811631944
 30
0.0
 10
1.578097873263889
 20
-1.211581759982639
 30
0.0
 10
1.579874674479167
 20
-1.229756673177083
 30
0.0
 10
1.58203125
 20
-1.251641167534722
 30
0.0
 10
1.586235894097222
 20
-1.274366590711806
 30
0.0
 10
1.578640407986111
 20
-1.297702365451389
 30
0.0
 10
1.565077039930555
 20
-1.339382595486111
 30
0.0
 10
1.542399088541667
 20
-1.374267578125
 30
0.0
 10
1.508443196614583
 20
-1.400566948784722
 30
0.0
 10
1.48907470703125
 20
-1.415574815538194
 30
0.0
 10
1.466200086805556
 20
-1.426235622829861
 30
0.0
 10
1.441168891059028
 20
-1.431559244791667
 30
0.0
 10
1.403272840711806
 20
-1.439615885416667
 30
0.0
 10
1.365871853298611
 20
-1.450059678819444
 30
0.0
 10
1.328009711371528
 20
-1.458306206597222
 30
0.0
 10
1.312798394097222
 20
-1.461615668402778
 30
0.0
 10
1.296908908420139
 20
-1.461785210503472
 30
0.0
 10
1.281331380208333
 20
-1.463385687934028
 30
0.0
 10
1.281168619791667
 20
-1.461981879340278
 30
0.0
 10
1.281012641059028
 20
-1.460578070746528
 30
0.0
 10
1.280856662326389
 20
-1.459174262152778
 30
0.0
  0
SPLINE
  5
4B
330
3D
100
AcDbEntity
  8
Layer 1
370
     0
100
AcDbSpline
210
0.0
220
0.0
230
1.0
 70
    11
 71
     3
 72
    23
 73
    19
 74
     0
 42
0.0000000001
 43
0.0000000001
 40
0.0
 40
0.0
 40
0.0
 40
0.0
 40
1.0
 40
1.0
 40
1.0
 40
2.0
 40
2.0
 40
2.0
 40
3.0
 40
3.0
 40
3.0
 40
4.0
 40
4.0
 40
4.0
 40
5.0
 40
5.0
 40
5.0
 40
6.0
 40
6.0
 40
6.0
 40
6.0
 10
1.605672200520833
 20
-0.7233683268229166
 30
0.0
 10
1.604397243923611
 20
-0.727627224392361
 30
0.0
 10
1.602647569444444
 20
-0.7367960611979166
 30
0.0
 10
1.598917643229167
 20
-0.7450697157118055
 30
0.0
 10
1.594129774305555
 20
-0.7556898328993055
 30
0.0
 10
1.584513346354167
 20
-0.7602267795138888
 30
0.0
 10
1.573065863715278
 20
-0.7598944769965278
 30
0.0
 10
1.561659071180555
 20
-0.7595553927951388
 30
0.0
 10
1.5552978515625
 20
-0.7522176106770833
 30
0.0
 10
1.551527235243056
 20
-0.7423231336805555
 30
0.0
 10
1.544976128472222
 20
-0.7251722547743055
 30
0.0
 10
1.549207899305556
 20
-0.7097507052951388
 30
0.0
 10
1.560560438368055
 20
-0.6963094075520833
 30
0.0
 10
1.5679931640625
 20
-0.6875
 30
0.0
 10
1.581190321180555
 20
-0.6855061848958333
 30
0.0
 10
1.591389973958333
 20
-0.6905856662326388
 30
0.0
 10
1.6029052734375
 20
-0.696316189236111
 30
0.0
 10
1.606553819444444
 20
-0.7063462999131944
 30
0.0
 10
1.605672200520833
 20
-0.7233683268229166
 30
0.0
  0
SPLINE
  5
4C
330
3D
100
AcDbEntity
  8
Layer 1
370
     0
100
AcDbSpline
210
0.0
220
0.0
230
1.0
 70
    11
 71
     3
 72
    20
 73
    16
 74
     0
 42
0.0000000001
 43
0.0000000001
 40
0.0
 40
0.0
 40
0.0
 40
0.0
 40
1.0
 40
1.0
 40
1.0
 40
2.0
 40
2.0
 40
2.0
 40
3.0
 40
3.0
 40
3.0
 40
4.0
 40
4.0
 40
4.0
 40
5.0
 40
5.0
 40
5.0
 40
5.0
 10
1.062940809461806
 20
-0.7084486219618055
 30
0.0
 10
1.062242296006944
 20
-0.7244669596354166
 30
0.0
 10
1.05572509765625
 20
-0.736538357204861
 30
0.0
 10
1.045057508680556
 20
-0.746120876736111
 30
0.0
 10
1.035495334201389
 20
-0.75469970703125
 30
0.0
 10
1.019883897569444
 20
-0.7516547309027778
 30
0.0
 10
1.012213812934028
 20
-0.740566677517361
 30
0.0
 10
1.000576443142361
 20
-0.7237277560763888
 30
0.0
 10
1.011854383680556
 20
-0.6883341471354166
 30
0.0
 10
1.031243218315972
 20
-0.6808810763888888
 30
0.0
 10
1.043409559461806
 20
-0.6762017144097222
 30
0.0
 10
1.055582682291667
 20
-0.681667751736111
 30
0.0
 10
1.059848361545139
 20
-0.6941867404513888
 30
0.0
 10
1.061537000868056
 20
-0.6991441514756944
 30
0.0
 10
1.062106662326389
 20
-0.7044745551215278
 30
0.0
 10
1.062940809461806
 20
-0.7084486219618055
 30
0.0
  0
ENDBLK
  5
40
330
3D
100
AcDbEntity
  8
0
100
AcDbBlockEnd
  0
ENDSEC
  0
SECTION
  2
ENTITIES
  0
SPLINE
  5
3C
330
1F
100
AcDbEntity
  8
Layer 1
 62
   250
420
  2301728
370
    35
100
AcDbSpline
210
0.0
220
0.0
230
1.0
 70
    11
 71
     3
 72
    20
 73
    16
 74
     0
 42
0.0000000001
 43
0.0000000001
 40
0.0
 40
0.0
 40
0.0
 40
0.0
 40
1.0
 40
1.0
 40
1.0
 40
2.0
 40
2.0
 40
2.0
 40
3.0
 40
3.0
 40
3.0
 40
4.0
 40
4.0
 40
4.0
 40
5.0
 40
5.0
 40
5.0
 40
5.0
 10
1.5
 20
-0.25
 30
0.0
 10
0.9477132161458333
 20
-0.25
 30
0.0
 10
0.5
 20
-0.6977132161458333
 30
0.0
 10
0.5
 20
-1.25
 30
0.0
 10
0.5
 20
-1.25
 30
0.0
 10
0.5
 20
-6.25
 30
0.0
 10
0.5
 20
-6.25
 30
0.0
 10
0.5
 20
-6.25
 30
0.0
 10
2.5
 20
-6.25
 30
0.0
 10
2.5
 20
-6.25
 30
0.0
 10
2.5
 20
-6.25
 30
0.0
 10
2.5
 20
-1.25
 30
0.0
 10
2.5
 20
-1.25
 30
0.0
 10
2.5
 20
-0.6977132161458333
 30
0.0
 10
2.052286783854167
 20
-0.25
 30
0.0
 10
1.5
 20
-0.25
 30
0.0
  0
INSERT
  5
3E
330
1F
100
AcDbEntity
  8
Layer 1
100
AcDbBlockReference
  2
block 2
 10
0.0
 20
0.0
 30
0.0
  0
ENDSEC
  0
SECTION
  2
OBJECTS
  0
DICTIONARY
  5
C
330
0
100
AcDbDictionary
281
     1
  3
ACAD_GROUP
350
D
  3
ACAD_LAYOUT
350
1A
  3
ACAD_MLINESTYLE
350
17
  3
ACAD_PLOTSETTINGS
350
19
  3
ACAD_PLOTSTYLENAME
350
E
  3
ACAD_TABLESTYLE
350
4D
  3
ACAD_VISUALSTYLE
350
2A
  0
DICTIONARY
  5
D
102
{ACAD_REACTORS
330
C
102
}
330
C
100
AcDbDictionary
281
     1
  0
DICTIONARY
  5
1A
102
{ACAD_REACTORS
330
C
102
}
330
C
100
AcDbDictionary
281
     1
  3
Layout1
350
1E
  3
Layout2
350
26
  3
Model
350
22
  0
DICTIONARY
  5
17
102
{ACAD_REACTORS
330
C
102
}
330
C
100
AcDbDictionary
281
     1
  3
Standard
350
18
  0
DICTIONARY
  5
19
102
{ACAD_REACTORS
330
C
102
}
330
C
100
AcDbDictionary
281
     1
  0
ACDBDICTIONARYWDFLT
  5
E
102
{ACAD_REACTORS
330
C
102
}
330
C
100
AcDbDictionary
281
     1
  3
Normal
350
F
100
AcDbDictionaryWithDefault
340
F
  0
DICTIONARY
  5
4D
102
{ACAD_REACTORS
330
C
102
}
330
C
100
AcDbDictionary
281
     1
  0
DICTIONARY
  5
2A
102
{ACAD_REACTORS
330
C
102
}
330
C
100
AcDbDictionary
281
     1
  3
2dWireframe
350
2F
  3
3D Hidden
350
31
  3
3dWireframe
350
30
  3
Basic
350
32
  3
Brighten
350
36
  3
ColorChange
350
3A
  3
Conceptual
350
34
  3
Dim
350
35
  3
Facepattern
350
39
  3
Flat
350
2B
  3
FlatWithEdges
350
2C
  3
Gouraud
350
2D
  3
GouraudWithEdges
350
2E
  3
Linepattern
350
38
  3
Realistic
350
33
  3
Thicken
350
37
  0
LAYOUT
  5
1E
102
{ACAD_REACTORS
330
1A
102
}
330
1A
100
AcDbPlotSettings
  1

  2
none_device
  4

  6

 40
0.0
 41
0.0
 42
0.0
 43
0.0
 44
0.0
 45
0.0
 46
0.0
 47
0.0
 48
0.0
 49
0.0
140
0.0
141
0.0
142
1.0
143
1.0
 70
   688
 72
     0
 73
     0
 74
     5
  7

 75
    16
 76
     0
 77
     2
 78
   300
147
1.0
148
0.0
149
0.0
100
AcDbLayout
  1
Layout1
 70
     1
 71
     1
 10
0.0
 20
0.0
 11
12.0
 21
9.0
 12
0.0
 22
0.0
 32
0.0
 14
1.000000000000000E+20
 24
1.000000000000000E+20
 34
1.000000000000000E+20
 15
-1.000000000000000E+20
 25
-1.000000000000000E+20
 35
-1.000000000000000E+20
146
0.0
 13
0.0
 23
0.0
 33
0.0
 16
1.0
 26
0.0
 36
0.0
 17
0.0
 27
1.0
 37
0.0
 76
     0
330
1B
  0
LAYOUT
  5
26
102
{ACAD_REACTORS
330
1A
102
}
330
1A
100
AcDbPlotSettings
  1

  2
none_device
  4

  6

 40
0.0
 41
0.0
 42
0.0
 43
0.0
 44
0.0
 45
0.0
 46
0.0
 47
0.0
 48
0.0
 49
0.0
140
0.0
141
0.0
142
1.0
143
1.0
 70
   688
 72
     0
 73
     0
 74
     5
  7

 75
    16
 76
     0
 77
     2
 78
   300
147
1.0
148
0.0
149
0.0
100
AcDbLayout
  1
Layout2
 70
     1
 71
     2
 10
0.0
 20
0.0
 11
0.0
 21
0.0
 12
0.0
 22
0.0
 32
0.0
 14
0.0
 24
0.0
 34
0.0
 15
0.0
 25
0.0
 35
0.0
146
0.0
 13
0.0
 23
0.0
 33
0.0
 16
1.0
 26
0.0
 36
0.0
 17
0.0
 27
1.0
 37
0.0
 76
     0
330
23
  0
LAYOUT
  5
22
102
{ACAD_REACTORS
330
1A
102
}
330
1A
100
AcDbPlotSettings
  1

  2
none_device
  4

  6

 40
0.0
 41
0.0
 42
0.0
 43
0.0
 44
0.0
 45
0.0
 46
0.0
 47
0.0
 48
0.0
 49
0.0
140
0.0
141
0.0
142
1.0
143
1.0
 70
  1712
 72
     0
 73
     0
 74
     0
  7

 75
     0
 76
     0
 77
     2
 78
   300
147
1.0
148
0.0
149
0.0
100
AcDbLayout
  1
Model
 70
     1
 71
     0
 10
0.0
 20
0.0
 11
12.0
 21
9.0
 12
0.0
 22
0.0
 32
0.0
 14
1.000000000000000E+20
 24
1.000000000000000E+20
 34
1.000000000000000E+20
 15
-1.000000000000000E+20
 25
-1.000000000000000E+20
 35
-1.000000000000000E+20
146
0.0
 13
0.0
 23
0.0
 33
0.0
 16
1.0
 26
0.0
 36
0.0
 17
0.0
 27
1.0
 37
0.0
 76
     0
330
1F
331
29
  0
MLINESTYLE
  5
18
102
{ACAD_REACTORS
330
17
102
}
330
17
100
AcDbMlineStyle
  2
Standard
 70
     0
  3

 62
   256
 51
90.0
 52
90.0
 71
     2
 49
0.5
 62
   256
  6
BYLAYER
 49
-0.5
 62
   256
  6
BYLAYER
  0
ACDBPLACEHOLDER
  5
F
102
{ACAD_REACTORS
330
E
102
}
330
E
  0
VISUALSTYLE
  5
2F
102
{ACAD_REACTORS
330
2A
102
}
330
2A
100
AcDbVisualStyle
  2
2dWireframe
 70
     4
 71
     0
 72
     2
 73
     0
 90
        0
 40
-0.6
 41
-30.0
 62
     5
 63
     7
421
 16777215
 74
     1
 91
        4
 64
     7
 65
   257
 75
     1
175
     1
 42
1.0
 92
        0
 66
   257
 43
1.0
 76
     1
 77
     6
 78
     2
 67
     7
 79
     5
170
     0
171
     0
290
     0
174
     0
 93
        1
 44
0.0
173
     0
291
     0
 45
0.0
1001
ACAD
1000
AcDbSavedByObjectVersion
1070
     0
  0
VISUALSTYLE
  5
31
102
{ACAD_REACTORS
330
2A
102
}
330
2A
100
AcDbVisualStyle
  2
3D Hidden
 70
     6
 71
     1
 72
     2
 73
     2
 90
        0
 40
-0.6
 41
-30.0
 62
     5
 63
     7
421
 16777215
 74
     2
 91
        2
 64
     7
 65
   257
 75
     2
175
     1
 42
40.0
 92
        0
 66
   257
 43
1.0
 76
     1
 77
     6
 78
     2
 67
     7
 79
     3
170
     0
171
     0
290
     0
174
     0
 93
        1
 44
0.0
173
     0
291
     0
 45
0.0
1001
ACAD
1000
AcDbSavedByObjectVersion
1070
     0
  0
VISUALSTYLE
  5
30
102
{ACAD_REACTORS
330
2A
102
}
330
2A
100
AcDbVisualStyle
  2
3dWireframe
 70
     5
 71
     0
 72
     2
 73
     0
 90
        0
 40
-0.6
 41
-30.0
 62
     5
 63
     7
421
 16777215
 74
     1
 91
        4
 64
     7
 65
   257
 75
     1
175
     1
 42
1.0
 92
        0
 66
   257
 43
1.0
 76
     1
 77
     6
 78
     2
 67
     7
 79
     5
170
     0
171
     0
290
     0
174
     0
 93
        1
 44
0.0
173
     0
291
     0
 45
0.0
1001
ACAD
1000
AcDbSavedByObjectVersion
1070
     0
  0
VISUALSTYLE
  5
32
102
{ACAD_REACTORS
330
2A
102
}
330
2A
100
AcDbVisualStyle
  2
Basic
 70
     7
 71
     1
 72
     0
 73
     1
 90
        0
 40
-0.6
 41
-30.0
 62
     5
 63
     7
421
 16777215
 74
     0
 91
        4
 64
     7
 65
   257
 75
     1
175
     1
 42
1.0
 92
        8
 66
     7
 43
1.0
 76
     1
 77
     6
 78
     2
 67
     7
 79
     5
170
     0
171
     0
290
     0
174
     0
 93
        1
 44
0.0
173
     0
291
     1
 45
0.0
1001
ACAD
1000
AcDbSavedByObjectVersion
1070
     0
  0
VISUALSTYLE
  5
36
102
{ACAD_REACTORS
330
2A
102
}
330
2A
100
AcDbVisualStyle
  2
Brighten
 70
    12
 71
     2
 72
     2
 73
     0
 90
        0
 40
-0.6
 41
-30.0
 62
     5
 63
     7
421
 16777215
 74
     1
 91
        4
 64
     7
 65
   257
 75
     1
175
     1
 42
1.0
 92
        8
 66
     7
 43
1.0
 76
     1
 77
     6
 78
     2
 67
     7
 79
     5
170
     0
171
     0
290
     0
174
     0
 93
        1
 44
50.0
173
     0
291
     1
 45
0.0
1001
ACAD
1000
AcDbSavedByObjectVersion
1070
     0
  0
VISUALSTYLE
  5
3A
102
{ACAD_REACTORS
330
2A
102
}
330
2A
100
AcDbVisualStyle
  2
ColorChange
 70
    16
 71
     2
 72
     2
 73
     3
 90
        0
 40
-0.6
 41
-30.0
 62
     5
 63
     8
421
  8421504
 74
     1
 91
        4
 64
     7
 65
   257
 75
     1
175
     1
 42
1.0
 92
        8
 66
     8
424
  8421504
 43
1.0
 76
     1
 77
     6
 78
     2
 67
     7
 79
     5
170
     0
171
     0
290
     0
174
     0
 93
        1
 44
0.0
173
     0
291
     1
 45
0.0
1001
ACAD
1000
AcDbSavedByObjectVersion
1070
     0
  0
VISUALSTYLE
  5
34
102
{ACAD_REACTORS
330
2A
102
}
330
2A
100
AcDbVisualStyle
  2
Conceptual
 70
     9
 71
     3
 72
     2
 73
     0
 90
        0
 40
-0.6
 41
-30.0
 62
     5
 63
     7
421
 16777215
 74
     2
 91
        2
 64
     7
 65
   257
 75
     1
175
     1
 42
40.0
 92
        8
 66
     7
 43
1.0
 76
     1
 77
     6
 78
     2
 67
     7
 79
     3
170
     0
171
     0
290
     0
174
     0
 93
        1
 44
0.0
173
     0
291
     0
 45
0.0
1001
ACAD
1000
AcDbSavedByObjectVersion
1070
     0
  0
VISUALSTYLE
  5
35
102
{ACAD_REACTORS
330
2A
102
}
330
2A
100
AcDbVisualStyle
  2
Dim
 70
    11
 71
     2
 72
     2
 73
     0
 90
        0
 40
-0.6
 41
-30.0
 62
     5
 63
     7
421
 16777215
 74
     1
 91
        4
 64
     7
 65
   257
 75
     1
175
     1
 42
1.0
 92
        8
 66
     7
 43
1.0
 76
     1
 77
     6
 78
     2
 67
     7
 79
     5
170
     0
171
     0
290
     0
174
     0
 93
        1
 44
-50.0
173
     0
291
     1
 45
0.0
1001
ACAD
1000
AcDbSavedByObjectVersion
1070
     0
  0
VISUALSTYLE
  5
39
102
{ACAD_REACTORS
330
2A
102
}
330
2A
100
AcDbVisualStyle
  2
Facepattern
 70
    15
 71
     2
 72
     2
 73
     0
 90
        0
 40
-0.6
 41
-30.0
 62
     5
 63
     7
421
 16777215
 74
     1
 91
        4
 64
     7
 65
   257
 75
     1
175
     1
 42
1.0
 92
        8
 66
     7
 43
1.0
 76
     1
 77
     6
 78
     2
 67
     7
 79
     5
170
     0
171
     0
290
     0
174
     0
 93
        1
 44
0.0
173
     0
291
     1
 45
0.0
1001
ACAD
1000
AcDbSavedByObjectVersion
1070
     0
  0
VISUALSTYLE
  5
2B
102
{ACAD_REACTORS
330
2A
102
}
330
2A
100
AcDbVisualStyle
  2
Flat
 70
     0
 71
     2
 72
     1
 73
     1
 90
        2
 40
-0.6
 41
30.0
 62
     5
 63
     7
421
 16777215
 74
     0
 91
        4
 64
     7
 65
   257
 75
     1
175
     1
 42
1.0
 92
        8
 66
     7
 43
1.0
 76
     1
 77
     6
 78
     2
 67
     7
 79
     5
170
     0
171
     0
290
     0
174
     0
 93
       13
 44
0.0
173
     0
291
     1
 45
0.0
1001
ACAD
1000
AcDbSavedByObjectVersion
1070
     0
  0
VISUALSTYLE
  5
2C
102
{ACAD_REACTORS
330
2A
102
}
330
2A
100
AcDbVisualStyle
  2
FlatWithEdges
 70
     1
 71
     2
 72
     1
 73
     1
 90
        2
 40
-0.6
 41
30.0
 62
     5
 63
     7
421
 16777215
 74
     1
 91
        4
 64
     7
 65
   257
 75
     1
175
     1
 42
1.0
 92
        0
 66
   257
 43
1.0
 76
     1
 77
     6
 78
     2
 67
     7
 79
     5
170
     0
171
     0
290
     0
174
     0
 93
       13
 44
0.0
173
     0
291
     1
 45
0.0
1001
ACAD
1000
AcDbSavedByObjectVersion
1070
     0
  0
VISUALSTYLE
  5
2D
102
{ACAD_REACTORS
330
2A
102
}
330
2A
100
AcDbVisualStyle
  2
Gouraud
 70
     2
 71
     2
 72
     2
 73
     1
 90
        2
 40
-0.6
 41
30.0
 62
     5
 63
     7
421
 16777215
 74
     0
 91
        4
 64
     7
 65
   257
 75
     1
175
     1
 42
1.0
 92
        0
 66
     7
 43
1.0
 76
     1
 77
     6
 78
     2
 67
     7
 79
     5
170
     0
171
     0
290
     0
174
     0
 93
       13
 44
0.0
173
     0
291
     1
 45
0.0
1001
ACAD
1000
AcDbSavedByObjectVersion
1070
     0
  0
VISUALSTYLE
  5
2E
102
{ACAD_REACTORS
330
2A
102
}
330
2A
100
AcDbVisualStyle
  2
GouraudWithEdges
 70
     3
 71
     2
 72
     2
 73
     1
 90
        2
 40
-0.6
 41
30.0
 62
     5
 63
     7
421
 16777215
 74
     1
 91
        4
 64
     7
 65
   257
 75
     1
175
     1
 42
1.0
 92
        0
 66
   257
 43
1.0
 76
     1
 77
     6
 78
     2
 67
     7
 79
     5
170
     0
171
     0
290
     0
174
     0
 93
       13
 44
0.0
173
     0
291
     1
 45
0.0
1001
ACAD
1000
AcDbSavedByObjectVersion
1070
     0
  0
VISUALSTYLE
  5
38
102
{ACAD_REACTORS
330
2A
102
}
330
2A
100
AcDbVisualStyle
  2
Linepattern
 70
    14
 71
     2
 72
     2
 73
     0
 90
        0
 40
-0.6
 41
-30.0
 62
     5
 63
     7
421
 16777215
 74
     1
 91
        4
 64
     7
 65
   257
 75
     7
175
     7
 42
1.0
 92
        8
 66
     7
 43
1.0
 76
     1
 77
     6
 78
     2
 67
     7
 79
     5
170
     0
171
     0
290
     0
174
     0
 93
        1
 44
0.0
173
     0
291
     1
 45
0.0
1001
ACAD
1000
AcDbSavedByObjectVersion
1070
     0
  0
VISUALSTYLE
  5
33
102
{ACAD_REACTORS
330
2A
102
}
330
2A
100
AcDbVisualStyle
  2
Realistic
 70
     8
 71
     2
 72
     2
 73
     0
 90
        0
 40
-0.6
 41
-30.0
 62
     5
 63
     7
421
 16777215
 74
     1
 91
        0
 64
     7
 65
   257
 75
     1
175
     1
 42
1.0
 92
        8
 66
     8
424
  7895160
 43
1.0
 76
     1
 77
     6
 78
     2
 67
     7
 79
     5
170
     0
171
     0
290
     0
174
     0
 93
       13
 44
0.0
173
     0
291
     0
 45
0.0
1001
ACAD
1000
AcDbSavedByObjectVersion
1070
     0
  0
VISUALSTYLE
  5
37
102
{ACAD_REACTORS
330
2A
102
}
330
2A
100
AcDbVisualStyle
  2
Thicken
 70
    13
 71
     2
 72
     2
 73
     0
 90
        0
 40
-0.6
 41
-30.0
 62
     5
 63
     7
421
 16777215
 74
     1
 91
        4
 64
     7
 65
   257
 75
     1
175
     1
 42
1.0
 92
       12
 66
     7
 43
1.0
 76
     1
 77
     6
 78
     2
 67
     7
 79
     5
170
     0
171
     0
290
     0
174
     0
 93
        1
 44
0.0
173
     0
291
     1
 45
0.0
1001
ACAD
1000
AcDbSavedByObjectVersion
1070
     0
  0
ENDSEC
  0
EOF
