  0
SECTION
  2
HEADER
  9
$ACADVER
  1
AC1018
  9
$ACADMAINTVER
 70
     0
  9
$DWGCODEPAGE
  3
ANSI_1252
  9
$INSBASE
 10
0.0
 20
0.0
 30
0.0
  9
$EXTMIN
 10
1.000000000000000E+20
 20
1.000000000000000E+20
 30
1.000000000000000E+20
  9
$EXTMAX
 10
-1.000000000000000E+20
 20
-1.000000000000000E+20
 30
-1.000000000000000E+20
  9
$LIMMIN
 10
0.0
 20
0.0
  9
$LIMMAX
 10
12.0
 20
9.0
  9
$ORTHOMODE
 70
     0
  9
$REGENMODE
 70
     1
  9
$FILLMODE
 70
     1
  9
$QTEXTMODE
 70
     0
  9
$MIRRTEXT
 70
     1
  9
$LTSCALE
 40
1.0
  9
$ATTMODE
 70
     1
  9
$TEXTSIZE
 40
0.2
  9
$TRACEWID
 40
0.05
  9
$TEXTSTYLE
  7
Standard
  9
$CLAYER
  8
0
  9
$CELTYPE
  6
ByLayer
  9
$CECOLOR
 62
   256
  9
$CELTSCALE
 40
1.0
  9
$DISPSILH
 70
     0
  9
$DIMSCALE
 40
1.0
  9
$DIMASZ
 40
0.18
  9
$DIMEXO
 40
0.0625
  9
$DIMDLI
 40
0.38
  9
$DIMRND
 40
0.0
  9
$DIMDLE
 40
0.0
  9
$DIMEXE
 40
0.18
  9
$DIMTP
 40
0.0
  9
$DIMTM
 40
0.0
  9
$DIMTXT
 40
0.18
  9
$DIMCEN
 40
0.09
  9
$DIMTSZ
 40
0.0
  9
$DIMTOL
 70
     0
  9
$DIMLIM
 70
     0
  9
$DIMTIH
 70
     1
  9
$DIMTOH
 70
     1
  9
$DIMSE1
 70
     0
  9
$DIMSE2
 70
     0
  9
$DIMTAD
 70
     0
  9
$DIMZIN
 70
     0
  9
$DIMBLK
  1

  9
$DIMASO
 70
     1
  9
$DIMSHO
 70
     1
  9
$DIMPOST
  1

  9
$DIMAPOST
  1

  9
$DIMALT
 70
     0
  9
$DIMALTD
 70
     2
  9
$DIMALTF
 40
25.4
  9
$DIMLFAC
 40
1.0
  9
$DIMTOFL
 70
     0
  9
$DIMTVP
 40
0.0
  9
$DIMTIX
 70
     0
  9
$DIMSOXD
 70
     0
  9
$DIMSAH
 70
     0
  9
$DIMBLK1
  1

  9
$DIMBLK2
  1

  9
$DIMSTYLE
  2
Standard
  9
$DIMCLRD
 70
     0
  9
$DIMCLRE
 70
     0
  9
$DIMCLRT
 70
     0
  9
$DIMTFAC
 40
1.0
  9
$DIMGAP
 40
0.09
  9
$DIMJUST
 70
     0
  9
$DIMSD1
 70
     0
  9
$DIMSD2
 70
     0
  9
$DIMTOLJ
 70
     1
  9
$DIMTZIN
 70
     0
  9
$DIMALTZ
 70
     0
  9
$DIMALTTZ
 70
     0
  9
$DIMUPT
 70
     0
  9
$DIMDEC
 70
     4
  9
$DIMTDEC
 70
     4
  9
$DIMALTU
 70
     2
  9
$DIMALTTD
 70
     2
  9
$DIMTXSTY
  7
Standard
  9
$DIMAUNIT
 70
     0
  9
$DIMADEC
 70
     0
  9
$DIMALTRND
 40
0.0
  9
$DIMAZIN
 70
     0
  9
$DIMDSEP
 70
    46
  9
$DIMATFIT
 70
     3
  9
$DIMFRAC
 70
     0
  9
$DIMLDRBLK
  1

  9
$DIMLUNIT
 70
     2
  9
$DIMLWD
 70
    -2
  9
$DIMLWE
 70
    -2
  9
$DIMTMOVE
 70
     0
  9
$LUNITS
 70
     2
  9
$LUPREC
 70
     4
  9
$SKETCHINC
 40
0.1
  9
$FILLETRAD
 40
0.5
  9
$AUNITS
 70
     0
  9
$AUPREC
 70
     0
  9
$MENU
  1
.
  9
$ELEVATION
 40
0.0
  9
$PELEVATION
 40
0.0
  9
$THICKNESS
 40
0.0
  9
$LIMCHECK
 70
     0
  9
$CHAMFERA
 40
0.5
  9
$CHAMFERB
 40
0.5
  9
$CHAMFERC
 40
1.0
  9
$CHAMFERD
 40
0.0
  9
$SKPOLY
 70
     0
  9
$TDCREATE
 40
2456550.673942894
  9
$TDUCREATE
 40
2456550.96560956
  9
$TDUPDATE
 40
2456550.673942905
  9
$TDUUPDATE
 40
2456550.965609572
  9
$TDINDWG
 40
0.0000000116
  9
$TDUSRTIMER
 40
0.0000000116
  9
$USRTIMER
 70
     1
  9
$ANGBASE
 50
0.0
  9
$ANGDIR
 70
     0
  9
$PDMODE
 70
     0
  9
$PDSIZE
 40
0.0
  9
$PLINEWID
 40
0.0
  9
$SPLFRAME
 70
     0
  9
$SPLINETYPE
 70
     6
  9
$SPLINESEGS
 70
     8
  9
$HANDSEED
  5
71
  9
$SURFTAB1
 70
     6
  9
$SURFTAB2
 70
     6
  9
$SURFTYPE
 70
     6
  9
$SURFU
 70
     6
  9
$SURFV
 70
     6
  9
$UCSBASE
  2

  9
$UCSNAME
  2

  9
$UCSORG
 10
0.0
 20
0.0
 30
0.0
  9
$UCSXDIR
 10
1.0
 20
0.0
 30
0.0
  9
$UCSYDIR
 10
0.0
 20
1.0
 30
0.0
  9
$UCSORTHOREF
  2

  9
$UCSORTHOVIEW
 70
     0
  9
$UCSORGTOP
 10
0.0
 20
0.0
 30
0.0
  9
$UCSORGBOTTOM
 10
0.0
 20
0.0
 30
0.0
  9
$UCSORGLEFT
 10
0.0
 20
0.0
 30
0.0
  9
$UCSORGRIGHT
 10
0.0
 20
0.0
 30
0.0
  9
$UCSORGFRONT
 10
0.0
 20
0.0
 30
0.0
  9
$UCSORGBACK
 10
0.0
 20
0.0
 30
0.0
  9
$PUCSBASE
  2

  9
$PUCSNAME
  2

  9
$PUCSORG
 10
0.0
 20
0.0
 30
0.0
  9
$PUCSXDIR
 10
1.0
 20
0.0
 30
0.0
  9
$PUCSYDIR
 10
0.0
 20
1.0
 30
0.0
  9
$PUCSORTHOREF
  2

  9
$PUCSORTHOVIEW
 70
     0
  9
$PUCSORGTOP
 10
0.0
 20
0.0
 30
0.0
  9
$PUCSORGBOTTOM
 10
0.0
 20
0.0
 30
0.0
  9
$PUCSORGLEFT
 10
0.0
 20
0.0
 30
0.0
  9
$PUCSORGRIGHT
 10
0.0
 20
0.0
 30
0.0
  9
$PUCSORGFRONT
 10
0.0
 20
0.0
 30
0.0
  9
$PUCSORGBACK
 10
0.0
 20
0.0
 30
0.0
  9
$USERI1
 70
     0
  9
$USERI2
 70
     0
  9
$USERI3
 70
     0
  9
$USERI4
 70
     0
  9
$USERI5
 70
     0
  9
$USERR1
 40
0.0
  9
$USERR2
 40
0.0
  9
$USERR3
 40
0.0
  9
$USERR4
 40
0.0
  9
$USERR5
 40
0.0
  9
$WORLDVIEW
 70
     1
  9
$SHADEDGE
 70
     3
  9
$SHADEDIF
 70
    70
  9
$TILEMODE
 70
     1
  9
$MAXACTVP
 70
    64
  9
$PINSBASE
 10
0.0
 20
0.0
 30
0.0
  9
$PLIMCHECK
 70
     0
  9
$PEXTMIN
 10
1.000000000000000E+20
 20
1.000000000000000E+20
 30
1.000000000000000E+20
  9
$PEXTMAX
 10
-1.000000000000000E+20
 20
-1.000000000000000E+20
 30
-1.000000000000000E+20
  9
$PLIMMIN
 10
0.0
 20
0.0
  9
$PLIMMAX
 10
12.0
 20
9.0
  9
$UNITMODE
 70
     0
  9
$VISRETAIN
 70
     1
  9
$PLINEGEN
 70
     0
  9
$PSLTSCALE
 70
     1
  9
$TREEDEPTH
 70
  3020
  9
$CMLSTYLE
  2
Standard
  9
$CMLJUST
 70
     0
  9
$CMLSCALE
 40
1.0
  9
$PROXYGRAPHICS
 70
     1
  9
$MEASUREMENT
 70
     0
  9
$CELWEIGHT
370
    -1
  9
$ENDCAPS
280
     0
  9
$JOINSTYLE
280
     0
  9
$LWDISPLAY
290
     1
  9
$INSUNITS
 70
     1
  9
$HYPERLINKBASE
  1

  9
$STYLESHEET
  1

  9
$XEDIT
290
     1
  9
$CEPSNTYPE
380
     0
  9
$PSTYLEMODE
290
     1
  9
$FINGERPRINTGUID
  2
{1FAFD79D-06A0-4BCD-8987-DA1FD8C07126}
  9
$VERSIONGUID
  2
{FAEB1C32-E019-11D5-929B-00C0DF256EC4}
  9
$EXTNAMES
290
     1
  9
$PSVPSCALE
 40
0.0
  9
$OLESTARTUP
290
     0
  9
$SORTENTS
280
   127
  9
$INDEXCTL
280
     0
  9
$HIDETEXT
280
     1
  9
$XCLIPFRAME
290
     0
  9
$HALOGAP
280
     0
  9
$OBSCOLOR
 70
   257
  9
$OBSLTYPE
280
     0
  9
$INTERSECTIONDISPLAY
280
     0
  9
$INTERSECTIONCOLOR
 70
   257
  9
$DIMASSOC
280
     2
  9
$PROJECTNAME
  1

  0
ENDSEC
  0
SECTION
  2
CLASSES
  0
CLASS
  1
ACDBDICTIONARYWDFLT
  2
AcDbDictionaryWithDefault
  3
ObjectDBX Classes
 90
        0
 91
        3
280
     0
281
     0
  0
CLASS
  1
VISUALSTYLE
  2
AcDbVisualStyle
  3
ObjectDBX Classes
 90
     4095
 91
        3
280
     0
281
     0
  0
ENDSEC
  0
SECTION
  2
TABLES
  0
TABLE
  2
VPORT
  5
8
330
0
100
AcDbSymbolTable
 70
     1
  0
VPORT
  5
29
330
8
100
AcDbSymbolTableRecord
100
AcDbViewportTableRecord
  2
*Active
 70
     0
 10
0.0
 20
0.0
 11
1.0
 21
1.0
 12
0.0
 22
0.0
 13
0.0
 23
0.0
 14
0.5
 24
0.5
 15
0.5
 25
0.5
 16
0.0
 26
0.0
 36
1.0
 17
1.5
 27
-3.5
 37
0.0
 40
7.0
 41
0.4285714285714285
 42
50.0
 43
0.0
 44
0.0
 50
0.0
 51
0.0
 71
     0
 72
   100
 73
     1
 74
     3
 75
     0
 76
     0
 77
     0
 78
     0
281
     0
 65
     1
110
0.0
120
0.0
130
0.0
111
1.0
121
0.0
131
0.0
112
0.0
122
1.0
132
0.0
 79
     0
146
0.0
  0
ENDTAB
  0
TABLE
  2
LTYPE
  5
5
330
0
100
AcDbSymbolTable
 70
     1
  0
LTYPE
  5
14
330
5
100
AcDbSymbolTableRecord
100
AcDbLinetypeTableRecord
  2
ByBlock
 70
     0
  3

 72
    65
 73
     0
 40
0.0
  0
LTYPE
  5
15
330
5
100
AcDbSymbolTableRecord
100
AcDbLinetypeTableRecord
  2
ByLayer
 70
     0
  3

 72
    65
 73
     0
 40
0.0
  0
LTYPE
  5
16
330
5
100
AcDbSymbolTableRecord
100
AcDbLinetypeTableRecord
  2
Continuous
 70
     0
  3
Solid line
 72
    65
 73
     0
 40
0.0
  0
ENDTAB
  0
TABLE
  2
LAYER
  5
2
330
0
100
AcDbSymbolTable
 70
     2
  0
LAYER
  5
10
330
2
100
AcDbSymbolTableRecord
100
AcDbLayerTableRecord
  2
0
 70
     0
 62
     7
  6
Continuous
370
    -3
390
F
  0
LAYER
  5
3B
330
2
100
AcDbSymbolTableRecord
100
AcDbLayerTableRecord
  2
Layer 1
 70
     0
 62
     7
  6
Continuous
370
    -3
390
F
  0
ENDTAB
  0
TABLE
  2
STYLE
  5
3
330
0
100
AcDbSymbolTable
 70
     1
  0
STYLE
  5
11
330
3
100
AcDbSymbolTableRecord
100
AcDbTextStyleTableRecord
  2
Standard
 70
     0
 40
0.0
 41
1.0
 50
0.0
 71
     0
 42
0.2
  3
txt
  4

  0
ENDTAB
  0
TABLE
  2
VIEW
  5
6
330
0
100
AcDbSymbolTable
 70
     0
  0
ENDTAB
  0
TABLE
  2
UCS
  5
7
330
0
100
AcDbSymbolTable
 70
     0
  0
ENDTAB
  0
TABLE
  2
APPID
  5
9
330
0
100
AcDbSymbolTable
 70
     1
  0
APPID
  5
12
330
9
100
AcDbSymbolTableRecord
100
AcDbRegAppTableRecord
  2
ACAD
 70
     0
  0
ENDTAB
  0
TABLE
  2
DIMSTYLE
  5
A
330
0
100
AcDbSymbolTable
 70
     1
100
AcDbDimStyleTable
  0
DIMSTYLE
105
27
330
A
100
AcDbSymbolTableRecord
100
AcDbDimStyleTableRecord
  2
Standard
 70
     0
340
11
  0
ENDTAB
  0
TABLE
  2
BLOCK_RECORD
  5
1
330
0
100
AcDbSymbolTable
 70
     2
  0
BLOCK_RECORD
  5
1F
330
1
100
AcDbSymbolTableRecord
100
AcDbBlockTableRecord
  2
*Model_Space
340
22
  0
BLOCK_RECORD
  5
1B
330
1
100
AcDbSymbolTableRecord
100
AcDbBlockTableRecord
  2
*Paper_Space
340
1E
  0
BLOCK_RECORD
  5
23
330
1
100
AcDbSymbolTableRecord
100
AcDbBlockTableRecord
  2
*Paper_Space0
340
26
  0
BLOCK_RECORD
  5
51
330
1
100
AcDbSymbolTableRecord
100
AcDbBlockTableRecord
  2
block 2
340
0
102
{BLKREFS
331
52
102
}
  0
ENDTAB
  0
ENDSEC
  0
SECTION
  2
BLOCKS
  0
BLOCK
  5
20
330
1F
100
AcDbEntity
  8
0
100
AcDbBlockBegin
  2
*Model_Space
 70
     0
 71
     0
 10
0.0
 20
0.0
 30
0.0
  3
*Model_Space
  1

  0
ENDBLK
  5
21
330
1F
100
AcDbEntity
  8
0
100
AcDbBlockEnd
  0
BLOCK
  5
1C
330
1B
100
AcDbEntity
 67
     1
  8
0
100
AcDbBlockBegin
  2
*Paper_Space
 70
     0
 71
     0
 10
0.0
 20
0.0
 30
0.0
  3
*Paper_Space
  1

  0
ENDBLK
  5
1D
330
1B
100
AcDbEntity
 67
     1
  8
0
100
AcDbBlockEnd
  0
BLOCK
  5
24
330
23
100
AcDbEntity
  8
0
100
AcDbBlockBegin
  2
*Paper_Space0
 70
     0
 71
     0
 10
0.0
 20
0.0
 30
0.0
  3
*Paper_Space0
  1

  0
ENDBLK
  5
25
330
23
100
AcDbEntity
  8
0
100
AcDbBlockEnd
  0
BLOCK
  5
53
330
51
100
AcDbEntity
  8
0
100
AcDbBlockBegin
  2
block 2
 70
     0
 71
     0
 10
0.0
 20
0.0
 30
0.0
  3
block 2
  1

  0
SPLINE
  5
55
330
51
100
AcDbEntity
  8
Layer 1
370
     0
100
AcDbSpline
210
0.0
220
0.0
230
1.0
 70
    11
 71
     3
 72
    17
 73
    13
 74
     0
 42
0.0000000001
 43
0.0000000001
 40
0.0
 40
0.0
 40
0.0
 40
0.0
 40
1.0
 40
1.0
 40
1.0
 40
2.0
 40
2.0
 40
2.0
 40
3.0
 40
3.0
 40
3.0
 40
4.0
 40
4.0
 40
4.0
 40
4.0
 10
0.0117594401041667
 20
-4.597222222222222
 30
0.0
 10
-1.259575737847222
 20
-4.597222222222222
 30
0.0
 10
-2.53216552734375
 20
-4.597222222222222
 30
0.0
 10
-3.805162217881944
 20
-4.597222222222222
 30
0.0
 10
-3.805162217881944
 20
-3.204569498697917
 30
0.0
 10
-3.805162217881944
 20
-1.811923556857639
 30
0.0
 10
-3.805162217881944
 20
-0.41796875
 30
0.0
 10
-2.533827039930555
 20
-0.41796875
 30
0.0
 10
-1.262098524305556
 20
-0.41796875
 30
0.0
 10
0.0117594401041667
 20
-0.41796875
 30
0.0
 10
0.0117594401041667
 20
-1.8101806640625
 30
0.0
 10
0.0117594401041667
 20
-3.203701443142361
 30
0.0
 10
0.0117594401041667
 20
-4.597222222222222
 30
0.0
  0
SPLINE
  5
56
330
51
100
AcDbEntity
  8
Layer 1
370
     0
100
AcDbSpline
210
0.0
220
0.0
230
1.0
 70
    11
 71
     3
 72
   323
 73
   319
 74
     0
 42
0.0000000001
 43
0.0000000001
 40
0.0
 40
0.0
 40
0.0
 40
0.0
 40
1.0
 40
1.0
 40
1.0
 40
2.0
 40
2.0
 40
2.0
 40
3.0
 40
3.0
 40
3.0
 40
4.0
 40
4.0
 40
4.0
 40
5.0
 40
5.0
 40
5.0
 40
6.0
 40
6.0
 40
6.0
 40
7.0
 40
7.0
 40
7.0
 40
8.0
 40
8.0
 40
8.0
 40
9.0
 40
9.0
 40
9.0
 40
10.0
 40
10.0
 40
10.0
 40
11.0
 40
11.0
 40
11.0
 40
12.0
 40
12.0
 40
12.0
 40
13.0
 40
13.0
 40
13.0
 40
14.0
 40
14.0
 40
14.0
 40
15.0
 40
15.0
 40
15.0
 40
16.0
 40
16.0
 40
16.0
 40
17.0
 40
17.0
 40
17.0
 40
18.0
 40
18.0
 40
18.0
 40
19.0
 40
19.0
 40
19.0
 40
20.0
 40
20.0
 40
20.0
 40
21.0
 40
21.0
 40
21.0
 40
22.0
 40
22.0
 40
22.0
 40
23.0
 40
23.0
 40
23.0
 40
24.0
 40
24.0
 40
24.0
 40
25.0
 40
25.0
 40
25.0
 40
26.0
 40
26.0
 40
26.0
 40
27.0
 40
27.0
 40
27.0
 40
28.0
 40
28.0
 40
28.0
 40
29.0
 40
29.0
 40
29.0
 40
30.0
 40
30.0
 40
30.0
 40
31.0
 40
31.0
 40
31.0
 40
32.0
 40
32.0
 40
32.0
 40
33.0
 40
33.0
 40
33.0
 40
34.0
 40
34.0
 40
34.0
 40
35.0
 40
35.0
 40
35.0
 40
36.0
 40
36.0
 40
36.0
 40
37.0
 40
37.0
 40
37.0
 40
38.0
 40
38.0
 40
38.0
 40
39.0
 40
39.0
 40
39.0
 40
40.0
 40
40.0
 40
40.0
 40
41.0
 40
41.0
 40
41.0
 40
42.0
 40
42.0
 40
42.0
 40
43.0
 40
43.0
 40
43.0
 40
44.0
 40
44.0
 40
44.0
 40
45.0
 40
45.0
 40
45.0
 40
46.0
 40
46.0
 40
46.0
 40
47.0
 40
47.0
 40
47.0
 40
48.0
 40
48.0
 40
48.0
 40
49.0
 40
49.0
 40
49.0
 40
50.0
 40
50.0
 40
50.0
 40
51.0
 40
51.0
 40
51.0
 40
52.0
 40
52.0
 40
52.0
 40
53.0
 40
53.0
 40
53.0
 40
54.0
 40
54.0
 40
54.0
 40
55.0
 40
55.0
 40
55.0
 40
56.0
 40
56.0
 40
56.0
 40
57.0
 40
57.0
 40
57.0
 40
58.0
 40
58.0
 40
58.0
 40
59.0
 40
59.0
 40
59.0
 40
60.0
 40
60.0
 40
60.0
 40
61.0
 40
61.0
 40
61.0
 40
62.0
 40
62.0
 40
62.0
 40
63.0
 40
63.0
 40
63.0
 40
64.0
 40
64.0
 40
64.0
 40
65.0
 40
65.0
 40
65.0
 40
66.0
 40
66.0
 40
66.0
 40
67.0
 40
67.0
 40
67.0
 40
68.0
 40
68.0
 40
68.0
 40
69.0
 40
69.0
 40
69.0
 40
70.0
 40
70.0
 40
70.0
 40
71.0
 40
71.0
 40
71.0
 40
72.0
 40
72.0
 40
72.0
 40
73.0
 40
73.0
 40
73.0
 40
74.0
 40
74.0
 40
74.0
 40
75.0
 40
75.0
 40
75.0
 40
76.0
 40
76.0
 40
76.0
 40
77.0
 40
77.0
 40
77.0
 40
78.0
 40
78.0
 40
78.0
 40
79.0
 40
79.0
 40
79.0
 40
80.0
 40
80.0
 40
80.0
 40
81.0
 40
81.0
 40
81.0
 40
82.0
 40
82.0
 40
82.0
 40
83.0
 40
83.0
 40
83.0
 40
84.0
 40
84.0
 40
84.0
 40
85.0
 40
85.0
 40
85.0
 40
86.0
 40
86.0
 40
86.0
 40
87.0
 40
87.0
 40
87.0
 40
88.0
 40
88.0
 40
88.0
 40
89.0
 40
89.0
 40
89.0
 40
90.0
 40
90.0
 40
90.0
 40
91.0
 40
91.0
 40
91.0
 40
92.0
 40
92.0
 40
92.0
 40
93.0
 40
93.0
 40
93.0
 40
94.0
 40
94.0
 40
94.0
 40
95.0
 40
95.0
 40
95.0
 40
96.0
 40
96.0
 40
96.0
 40
97.0
 40
97.0
 40
97.0
 40
98.0
 40
98.0
 40
98.0
 40
99.0
 40
99.0
 40
99.0
 40
100.0
 40
100.0
 40
100.0
 40
101.0
 40
101.0
 40
101.0
 40
102.0
 40
102.0
 40
102.0
 40
103.0
 40
103.0
 40
103.0
 40
104.0
 40
104.0
 40
104.0
 40
105.0
 40
105.0
 40
105.0
 40
106.0
 40
106.0
 40
106.0
 40
106.0
 10
-2.016886393229167
 20
-4.016357421875
 30
0.0
 10
-1.960788302951389
 20
-4.027506510416666
 30
0.0
 10
-1.896077473958333
 20
-4.024915907118055
 30
0.0
 10
-1.850789388020833
 20
-4.053317599826388
 30
0.0
 10
-1.795600043402778
 20
-4.087917751736111
 30
0.0
 10
-1.743259006076389
 20
-4.098253038194445
 30
0.0
 10
-1.681844075520833
 20
-4.099677191840278
 30
0.0
 10
-1.631578233506944
 20
-4.100857204861111
 30
0.0
 10
-1.581678602430555
 20
-4.114610460069445
 30
0.0
 10
-1.531453450520833
 20
-4.121731228298611
 30
0.0
 10
-1.499796549479167
 20
-4.126220703125
 30
0.0
 10
-1.467461480034722
 20
-4.133734809027778
 30
0.0
 10
-1.436143663194444
 20
-4.131157769097222
 30
0.0
 10
-1.368082682291667
 20
-4.125583224826388
 30
0.0
 10
-1.342841254340278
 20
-4.0760498046875
 30
0.0
 10
-1.371405707465278
 20
-4.013983832465278
 30
0.0
 10
-1.396280924479167
 20
-3.959920247395833
 30
0.0
 10
-1.442857530381944
 20
-3.942287868923611
 30
0.0
 10
-1.496242947048611
 20
-3.925767686631944
 30
0.0
 10
-1.531806098090278
 20
-3.914767795138889
 30
0.0
 10
-1.571194118923611
 20
-3.888102213541667
 30
0.0
 10
-1.587972005208333
 20
-3.857123480902778
 30
0.0
 10
-1.595526801215278
 20
-3.843180338541667
 30
0.0
 10
-1.553168402777778
 20
-3.800672743055555
 30
0.0
 10
-1.531073676215278
 20
-3.773030598958333
 30
0.0
 10
-1.522962782118056
 20
-3.762912326388889
 30
0.0
 10
-1.508721245659722
 20
-3.756306966145833
 30
0.0
 10
-1.495998806423611
 20
-3.75146484375
 30
0.0
 10
-1.422512478298611
 20
-3.723470052083333
 30
0.0
 10
-1.350260416666667
 20
-3.689358181423611
 30
0.0
 10
-1.274251302083333
 20
-3.672064887152778
 30
0.0
 10
-1.234049479166667
 20
-3.662909613715278
 30
0.0
 10
-1.182820638020833
 20
-3.674587673611111
 30
0.0
 10
-1.14404296875
 20
-3.692789713541667
 30
0.0
 10
-1.072889539930556
 20
-3.7261962890625
 30
0.0
 10
-0.9347873263888888
 20
-3.670505099826389
 30
0.0
 10
-0.9183213975694444
 20
-3.593790690104167
 30
0.0
 10
-0.8884955512152777
 20
-3.454861111111111
 30
0.0
 10
-0.7822808159722222
 20
-3.407931857638889
 30
0.0
 10
-0.6583251953125
 20
-3.478888617621528
 30
0.0
 10
-0.5567491319444444
 20
-3.537027994791667
 30
0.0
 10
-0.4400770399305555
 20
-3.530843098958333
 30
0.0
 10
-0.3606770833333333
 20
-3.46307373046875
 30
0.0
 10
-0.2508816189236111
 20
-3.369371202256944
 30
0.0
 10
-0.2110595703125
 20
-3.245279947916667
 30
0.0
 10
-0.2538791232638889
 20
-3.131056043836805
 30
0.0
 10
-0.2720947265625
 20
-3.082485622829861
 30
0.0
 10
-0.3006863064236111
 20
-3.072265625
 30
0.0
 10
-0.3444417317708333
 20
-3.102945963541667
 30
0.0
 10
-0.3784993489583333
 20
-3.126817491319444
 30
0.0
 10
-0.4132215711805555
 20
-3.15045166015625
 30
0.0
 10
-0.4500732421875
 20
-3.169487847222222
 30
0.0
 10
-0.5584716796875
 20
-3.225497775607639
 30
0.0
 10
-0.6322835286458333
 20
-3.183729383680555
 30
0.0
 10
-0.6422119140625
 20
-3.062852647569444
 30
0.0
 10
-0.6440972222222222
 20
-3.039876302083333
 30
0.0
 10
-0.6395806206597222
 20
-3.013617621527778
 30
0.0
 10
-0.6492241753472222
 20
-2.994520399305555
 30
0.0
 10
-0.6932373046875
 20
-2.907280815972222
 30
0.0
 10
-0.6642252604166666
 20
-2.834648980034722
 30
0.0
 10
-0.6147596571180555
 20
-2.76129150390625
 30
0.0
 10
-0.6014539930555555
 20
-2.741556803385417
 30
0.0
 10
-0.5922580295138888
 20
-2.703084309895833
 30
0.0
 10
-0.6025526258680555
 20
-2.686292860243055
 30
0.0
 10
-0.6392415364583333
 20
-2.626369900173611
 30
0.0
 10
-0.6184624565972222
 20
-2.584974500868055
 30
0.0
 10
-0.5795220269097222
 20
-2.537000868055555
 30
0.0
 10
-0.5374077690972222
 20
-2.485093858506944
 30
0.0
 10
-0.4849175347222222
 20
-2.477559407552083
 30
0.0
 10
-0.4301486545138888
 20
-2.493279351128472
 30
0.0
 10
-0.3869900173611111
 20
-2.505669487847222
 30
0.0
 10
-0.3462592230902777
 20
-2.53118896484375
 30
0.0
 10
-0.3085666232638889
 20
-2.556905110677083
 30
0.0
 10
-0.24609375
 20
-2.599521213107639
 30
0.0
 10
-0.1634114583333333
 20
-2.604410807291667
 30
0.0
 10
-0.1008978949652778
 20
-2.563164605034722
 30
0.0
 10
-0.0440945095486111
 20
-2.525675455729167
 30
0.0
 10
-0.0205349392361111
 20
-2.437730577256944
 30
0.0
 10
-0.0508761935763889
 20
-2.370049370659722
 30
0.0
 10
-0.0842420789930556
 20
-2.295620388454861
 30
0.0
 10
-0.1360677083333333
 20
-2.324734157986111
 30
0.0
 10
-0.1908365885416667
 20
-2.342441134982639
 30
0.0
 10
-0.2829318576388889
 20
-2.372205946180555
 30
0.0
 10
-0.335693359375
 20
-2.337870279947917
 30
0.0
 10
-0.3584255642361111
 20
-2.243631998697917
 30
0.0
 10
-0.36376953125
 20
-2.221503363715278
 30
0.0
 10
-0.3683403862847222
 20
-2.195746527777778
 30
0.0
 10
-0.3824462890625
 20
-2.179755316840278
 30
0.0
 10
-0.4511176215277777
 20
-2.101908365885417
 30
0.0
 10
-0.5202365451388888
 20
-2.024068196614583
 30
0.0
 10
-0.5944959852430555
 20
-1.951673719618055
 30
0.0
 10
-0.6471896701388888
 20
-1.900316026475694
 30
0.0
 10
-0.680202907986111
 20
-1.910719129774305
 30
0.0
 10
-0.7391899956597222
 20
-1.955478244357639
 30
0.0
 10
-0.7893608940972222
 20
-1.993564181857639
 30
0.0
 10
-0.8479953342013888
 20
-2.022752549913194
 30
0.0
 10
-0.9068332248263888
 20
-2.045756022135417
 30
0.0
 10
-0.9238145616319444
 20
-2.052395290798611
 30
0.0
 10
-0.9752604166666666
 20
-2.024034288194444
 30
0.0
 10
-0.9752604166666666
 20
-2.011725531684028
 30
0.0
 10
-0.975246853298611
 20
-1.958855523003472
 30
0.0
 10
-0.9708794487847222
 20
-1.902330186631944
 30
0.0
 10
-0.9510904947916666
 20
-1.8541259765625
 30
0.0
 10
-0.9301079644097222
 20
-1.803053114149305
 30
0.0
 10
-0.8800998263888888
 20
-1.818956163194444
 30
0.0
 10
-0.8354899088541666
 20
-1.829847547743055
 30
0.0
 10
-0.7698432074652778
 20
-1.845872667100694
 30
0.0
 10
-0.6819390190972222
 20
-1.804341634114583
 30
0.0
 10
-0.664794921875
 20
-1.75390625
 30
0.0
 10
-0.647488064236111
 20
-1.703016493055555
 30
0.0
 10
-0.6826036241319444
 20
-1.6383056640625
 30
0.0
 10
-0.7487521701388888
 20
-1.60284423828125
 30
0.0
 10
-0.8016764322916666
 20
-1.574462890625
 30
0.0
 10
-0.858547634548611
 20
-1.552469889322917
 30
0.0
 10
-0.9085693359375
 20
-1.519822862413194
 30
0.0
 10
-1.023790147569444
 20
-1.444613986545139
 30
0.0
 10
-1.025349934895833
 20
-1.425279405381944
 30
0.0
 10
-0.9414198133680555
 20
-1.321390787760417
 30
0.0
 10
-0.9015570746527777
 20
-1.272040473090278
 30
0.0
 10
-0.9210611979166666
 20
-1.217305501302083
 30
0.0
 10
-0.9850938585069444
 20
-1.21234130859375
 30
0.0
 10
-1.016940646701389
 20
-1.209865993923611
 30
0.0
 10
-1.056599934895833
 20
-1.217536078559028
 30
0.0
 10
-1.081570095486111
 20
-1.23583984375
 30
0.0
 10
-1.130276150173611
 20
-1.271538628472222
 30
0.0
 10
-1.174370659722222
 20
-1.272291395399306
 30
0.0
 10
-1.222520616319444
 20
-1.24261474609375
 30
0.0
 10
-1.267876519097222
 20
-1.214667426215278
 30
0.0
 10
-1.308186848958333
 20
-1.212992350260417
 30
0.0
 10
-1.3453369140625
 20
-1.257480197482639
 30
0.0
 10
-1.373725043402778
 20
-1.291497124565972
 30
0.0
 10
-1.405598958333333
 20
-1.295640733506944
 30
0.0
 10
-1.450208875868056
 20
-1.279032389322917
 30
0.0
 10
-1.478773328993056
 20
-1.268398708767361
 30
0.0
 10
-1.521701388888889
 20
-1.276875813802083
 30
0.0
 10
-1.550740559895833
 20
-1.291537814670139
 30
0.0
 10
-1.595553927951389
 20
-1.314168294270833
 30
0.0
 10
-1.630615234375
 20
-1.357462565104167
 30
0.0
 10
-1.67626953125
 20
-1.376566569010417
 30
0.0
 10
-1.707546657986111
 20
-1.389655219184028
 30
0.0
 10
-1.762532552083333
 20
-1.390346950954861
 30
0.0
 10
-1.783393012152778
 20
-1.37109375
 30
0.0
 10
-1.802734375
 20
-1.353244357638889
 30
0.0
 10
-1.803005642361111
 20
-1.296576605902778
 30
0.0
 10
-1.790378146701389
 20
-1.265719943576389
 30
0.0
 10
-1.755669487847222
 20
-1.180921766493056
 30
0.0
 10
-1.701958550347222
 20
-1.162821451822917
 30
0.0
 10
-1.588053385416667
 20
-1.18206787109375
 30
0.0
 10
-1.500393337673611
 20
-1.196879069010417
 30
0.0
 10
-1.429375542534722
 20
-1.173936631944444
 30
0.0
 10
-1.411485460069444
 20
-1.125020345052083
 30
0.0
 10
-1.365152994791667
 20
-0.9983113606770833
 30
0.0
 10
-1.408379448784722
 20
-0.9034830729166666
 30
0.0
 10
-1.537339952256944
 20
-0.8637424045138888
 30
0.0
 10
-1.57763671875
 20
-0.8513251410590277
 30
0.0
 10
-1.624186197916667
 20
-0.8608194986979166
 30
0.0
 10
-1.666544596354167
 20
-0.8530680338541666
 30
0.0
 10
-1.699476453993055
 20
-0.8470526801215277
 30
0.0
 10
-1.738321940104167
 20
-0.837856716579861
 30
0.0
 10
-1.760457356770833
 20
-0.8158908420138888
 30
0.0
 10
-1.80419921875
 20
-0.772488064236111
 30
0.0
 10
-1.849745008680555
 20
-0.7645738389756944
 30
0.0
 10
-1.897637261284722
 20
-0.7942301432291666
 30
0.0
 10
-2.001993815104167
 20
-0.8588663736979166
 30
0.0
 10
-2.116360134548611
 20
-0.914794921875
 30
0.0
 10
-2.157036675347222
 20
-1.046183268229167
 30
0.0
 10
-2.162394205729167
 20
-1.063496907552083
 30
0.0
 10
-2.174913194444444
 20
-1.078511555989583
 30
0.0
 10
-2.183349609375
 20
-1.094977484809028
 30
0.0
 10
-2.21044921875
 20
-1.147901746961806
 30
0.0
 10
-2.249077690972222
 20
-1.179538302951389
 30
0.0
 10
-2.312269422743055
 20
-1.185743543836806
 30
0.0
 10
-2.394775390625
 20
-1.19384765625
 30
0.0
 10
-2.414876302083333
 20
-1.224853515625
 30
0.0
 10
-2.389329698350694
 20
-1.301201714409722
 30
0.0
 10
-2.3607177734375
 20
-1.386725531684028
 30
0.0
 10
-2.377970377604167
 20
-1.458095974392361
 30
0.0
 10
-2.448784722222222
 20
-1.510762532552083
 30
0.0
 10
-2.471238878038194
 20
-1.5274658203125
 30
0.0
 10
-2.508253309461805
 20
-1.52459716796875
 30
0.0
 10
-2.538601345486111
 20
-1.530680338541667
 30
0.0
 10
-2.538899739583333
 20
-1.49859619140625
 30
0.0
 10
-2.550930447048611
 20
-1.459994845920139
 30
0.0
 10
-2.537380642361111
 20
-1.43560791015625
 30
0.0
 10
-2.489834255642361
 20
-1.350043402777778
 30
0.0
 10
-2.486660427517361
 20
-1.352383083767361
 30
0.0
 10
-2.577928331163194
 20
-1.320319281684028
 30
0.0
 10
-2.612019856770833
 20
-1.308336046006944
 30
0.0
 10
-2.643866644965278
 20
-1.294474283854167
 30
0.0
 10
-2.666917588975694
 20
-1.338873969184028
 30
0.0
 10
-2.671535915798611
 20
-1.347757975260417
 30
0.0
 10
-2.689771864149305
 20
-1.356201171875
 30
0.0
 10
-2.700005425347222
 20
-1.354498969184028
 30
0.0
 10
-2.780727810329861
 20
-1.341050889756944
 30
0.0
 10
-2.860846625434028
 20
-1.324028862847222
 30
0.0
 10
-2.941555447048611
 20
-1.310479058159722
 30
0.0
 10
-2.969957139756944
 20
-1.305711534288194
 30
0.0
 10
-2.999640570746528
 20
-1.305006239149306
 30
0.0
 10
-3.028428819444444
 20
-1.306979709201389
 30
0.0
 10
-3.069139268663194
 20
-1.309760199652778
 30
0.0
 10
-3.109449598524305
 20
-1.319980197482639
 30
0.0
 10
-3.150126139322917
 20
-1.321336534288194
 30
0.0
 10
-3.284532335069444
 20
-1.325819227430556
 30
0.0
 10
-3.4208984375
 20
-1.370266384548611
 30
0.0
 10
-3.472676595052083
 20
-1.485358344184028
 30
0.0
 10
-3.537245008680555
 20
-1.628872341579861
 30
0.0
 10
-3.560356987847222
 20
-1.79510498046875
 30
0.0
 10
-3.5386962890625
 20
-1.958916558159722
 30
0.0
 10
-3.536092122395833
 20
-1.978651258680555
 30
0.0
 10
-3.528367784288194
 20
-2.004794650607639
 30
0.0
 10
-3.513990614149305
 20
-2.0142822265625
 30
0.0
 10
-3.490078396267361
 20
-2.030069986979167
 30
0.0
 10
-3.456434461805555
 20
-2.046780056423611
 30
0.0
 10
-3.431172688802083
 20
-2.041720920138889
 30
0.0
 10
-3.371148003472222
 20
-2.029703776041667
 30
0.0
 10
-3.340616861979167
 20
-2.044521755642361
 30
0.0
 10
-3.349005805121528
 20
-2.105075412326389
 30
0.0
 10
-3.354051378038194
 20
-2.141452365451389
 30
0.0
 10
-3.379645453559028
 20
-2.174811469184028
 30
0.0
 10
-3.394856770833333
 20
-2.21002197265625
 30
0.0
 10
-3.406134711371528
 20
-2.236138237847222
 30
0.0
 10
-3.42913818359375
 20
-2.266486273871528
 30
0.0
 10
-3.423441569010417
 20
-2.289008246527778
 30
0.0
 10
-3.401285807291667
 20
-2.376532660590278
 30
0.0
 10
-3.37249755859375
 20
-2.462381998697917
 30
0.0
 10
-3.281887478298611
 20
-2.508633083767361
 30
0.0
 10
-3.234212239583333
 20
-2.532972547743055
 30
0.0
 10
-3.224175347222222
 20
-2.569505479600694
 30
0.0
 10
-3.258015950520833
 20
-2.617112901475694
 30
0.0
 10
-3.299038357204861
 20
-2.674831814236111
 30
0.0
 10
-3.3349609375
 20
-2.736151801215278
 30
0.0
 10
-3.374823676215278
 20
-2.79473876953125
 30
0.0
 10
-3.388712565104167
 20
-2.815151638454861
 30
0.0
 10
-3.404737684461805
 20
-2.836737738715278
 30
0.0
 10
-3.424953884548611
 20
-2.849772135416667
 30
0.0
 10
-3.52130126953125
 20
-2.911872016059028
 30
0.0
 10
-3.5299072265625
 20
-2.955417209201389
 30
0.0
 10
-3.4686279296875
 20
-3.055087619357639
 30
0.0
 10
-3.436143663194444
 20
-3.107916937934028
 30
0.0
 10
-3.377387152777778
 20
-3.14947509765625
 30
0.0
 10
-3.392666286892361
 20
-3.226460774739583
 30
0.0
 10
-3.394999186197917
 20
-3.238206651475694
 30
0.0
 10
-3.365403917100694
 20
-3.262600368923611
 30
0.0
 10
-3.346137152777778
 20
-3.271206325954861
 30
0.0
 10
-3.274678548177083
 20
-3.303114149305555
 30
0.0
 10
-3.205973307291667
 20
-3.271633572048611
 30
0.0
 10
-3.180609809027778
 20
-3.196295844184028
 30
0.0
 10
-3.169630262586805
 20
-3.163682725694444
 30
0.0
 10
-3.168063693576389
 20
-3.127848307291667
 30
0.0
 10
-3.156514485677083
 20
-3.095513237847222
 30
0.0
 10
-3.149603949652778
 20
-3.076171875
 30
0.0
 10
-3.132297092013889
 20
-3.047437879774305
 30
0.0
 10
-3.118489583333333
 20
-3.046759711371528
 30
0.0
 10
-3.098225911458333
 20
-3.045762803819444
 30
0.0
 10
-3.070326063368055
 20
-3.061041937934028
 30
0.0
 10
-3.057176378038194
 20
-3.078206380208333
 30
0.0
 10
-2.995741102430555
 20
-3.158393012152778
 30
0.0
 10
-3.019721137152778
 20
-3.244866265190972
 30
0.0
 10
-3.108161078559028
 20
-3.294508192274305
 30
0.0
 10
-3.129767523871528
 20
-3.306640625
 30
0.0
 10
-3.155402289496528
 20
-3.337076822916667
 30
0.0
 10
-3.154758029513889
 20
-3.358357747395833
 30
0.0
 10
-3.153130425347222
 20
-3.412333170572917
 30
0.0
 10
-3.076551649305555
 20
-3.463399251302083
 30
0.0
 10
-3.022508409288194
 20
-3.447855631510417
 30
0.0
 10
-2.969916449652778
 20
-3.432732476128472
 30
0.0
 10
-2.9439697265625
 20
-3.451517740885417
 30
0.0
 10
-2.927293565538194
 20
-3.498012966579861
 30
0.0
 10
-2.920294867621528
 20
-3.517523871527778
 30
0.0
 10
-2.910590277777778
 20
-3.536214192708333
 30
0.0
 10
-2.900689019097222
 20
-3.554497612847222
 30
0.0
 10
-2.869730631510417
 20
-3.611667209201389
 30
0.0
 10
-2.831807454427083
 20
-3.613484700520833
 30
0.0
 10
-2.788560655381944
 20
-3.565619574652778
 30
0.0
 10
-2.770189073350694
 20
-3.5452880859375
 30
0.0
 10
-2.742255316840278
 20
-3.533610026041667
 30
0.0
 10
-2.718668619791667
 20
-3.517985026041667
 30
0.0
 10
-2.709194607204861
 20
-3.5469970703125
 30
0.0
 10
-2.694437662760417
 20
-3.575466579861111
 30
0.0
 10
-2.691474066840278
 20
-3.605116102430555
 30
0.0
 10
-2.686848958333333
 20
-3.651462131076389
 30
0.0
 10
-2.721360948350694
 20
-3.6656494140625
 30
0.0
 10
-2.760260687934028
 20
-3.6766357421875
 30
0.0
 10
-2.890692816840278
 20
-3.713487413194444
 30
0.0
 10
-2.893419053819444
 20
-3.720377604166667
 30
0.0
 10
-2.903795030381944
 20
-3.857883029513889
 30
0.0
 10
-2.907023111979167
 20
-3.900634765625
 30
0.0
 10
-2.911234537760417
 20
-3.948961046006944
 30
0.0
 10
-2.932868109809028
 20
-3.983561197916667
 30
0.0
 10
-2.988538953993055
 20
-4.072618272569445
 30
0.0
 10
-2.988755967881944
 20
-4.096747504340278
 30
0.0
 10
-2.890652126736111
 20
-4.140936957465278
 30
0.0
 10
-2.815517849392361
 20
-4.174791124131945
 30
0.0
 10
-2.73504638671875
 20
-4.196926540798611
 30
0.0
 10
-2.656650119357639
 20
-4.223388671875
 30
0.0
 10
-2.579691569010417
 20
-4.249348958333333
 30
0.0
 10
-2.534125434027778
 20
-4.215833875868055
 30
0.0
 10
-2.535319010416667
 20
-4.135091145833333
 30
0.0
 10
-2.535997178819444
 20
-4.089463975694445
 30
0.0
 10
-2.546915690104167
 20
-4.051527235243055
 30
0.0
 10
-2.588351779513889
 20
-4.021647135416666
 30
0.0
 10
-2.612603081597222
 20
-4.004163953993055
 30
0.0
 10
-2.629245334201389
 20
-3.971815321180555
 30
0.0
 10
-2.641432020399305
 20
-3.942830403645833
 30
0.0
 10
-2.6650390625
 20
-3.886705186631944
 30
0.0
 10
-2.631205240885417
 20
-3.846828884548611
 30
0.0
 10
-2.570970323350694
 20
-3.8551025390625
 30
0.0
 10
-2.518717447916667
 20
-3.862277560763889
 30
0.0
 10
-2.479817708333333
 20
-3.919135199652778
 30
0.0
 10
-2.481092664930555
 20
-3.985392252604167
 30
0.0
 10
-2.481845431857639
 20
-4.024522569444445
 30
0.0
 10
-2.487826877170139
 20
-4.064900716145833
 30
0.0
 10
-2.480482313368055
 20
-4.102579752604166
 30
0.0
 10
-2.460611979166667
 20
-4.204427083333333
 30
0.0
 10
-2.404507107204861
 20
-4.220947265625
 30
0.0
 10
-2.328192816840278
 20
-4.150431315104166
 30
0.0
 10
-2.240587022569444
 20
-4.069471571180555
 30
0.0
 10
-2.146091037326389
 20
-4.006334092881945
 30
0.0
 10
-2.016886393229167
 20
-4.016357421875
 30
0.0
  0
SPLINE
  5
57
330
51
100
AcDbEntity
  8
Layer 1
370
     0
100
AcDbSpline
210
0.0
220
0.0
230
1.0
 70
    11
 71
     3
 72
    32
 73
    28
 74
     0
 42
0.0000000001
 43
0.0000000001
 40
0.0
 40
0.0
 40
0.0
 40
0.0
 40
1.0
 40
1.0
 40
1.0
 40
2.0
 40
2.0
 40
2.0
 40
3.0
 40
3.0
 40
3.0
 40
4.0
 40
4.0
 40
4.0
 40
5.0
 40
5.0
 40
5.0
 40
6.0
 40
6.0
 40
6.0
 40
7.0
 40
7.0
 40
7.0
 40
8.0
 40
8.0
 40
8.0
 40
9.0
 40
9.0
 40
9.0
 40
9.0
 10
-0.6829969618055555
 20
-1.197597927517361
 30
0.0
 10
-0.7089979383680555
 20
-1.197597927517361
 30
0.0
 10
-0.7205810546875
 20
-1.197170681423611
 30
0.0
 10
-0.7321234809027778
 20
-1.197665744357639
 30
0.0
 10
-0.820461697048611
 20
-1.20147705078125
 30
0.0
 10
-0.8518880208333333
 20
-1.234517415364583
 30
0.0
 10
-0.8681233723958333
 20
-1.340291341145833
 30
0.0
 10
-0.8800726996527777
 20
-1.418097601996528
 30
0.0
 10
-0.8554009331597222
 20
-1.457472059461806
 30
0.0
 10
-0.77197265625
 20
-1.482340494791667
 30
0.0
 10
-0.737087673611111
 20
-1.49273681640625
 30
0.0
 10
-0.6973876953125
 20
-1.4881591796875
 30
0.0
 10
-0.6634521484375
 20
-1.500352647569444
 30
0.0
 10
-0.6270751953125
 20
-1.513427734375
 30
0.0
 10
-0.5932074652777778
 20
-1.535868326822917
 30
0.0
 10
-0.5614691840277778
 20
-1.558688693576389
 30
0.0
 10
-0.537990993923611
 20
-1.575568305121528
 30
0.0
 10
-0.519680447048611
 20
-1.599602593315972
 30
0.0
 10
-0.4990641276041666
 20
-1.620449490017361
 30
0.0
 10
-0.4751383463541666
 20
-1.595140245225694
 30
0.0
 10
-0.4378255208333333
 20
-1.573567708333333
 30
0.0
 10
-0.4295247395833333
 20
-1.54388427734375
 30
0.0
 10
-0.3855387369791666
 20
-1.386508517795139
 30
0.0
 10
-0.4027913411458333
 20
-1.220567491319444
 30
0.0
 10
-0.6351453993055555
 20
-1.201226128472222
 30
0.0
 10
-0.6558702256944444
 20
-1.199503580729167
 30
0.0
 10
-0.6766221788194444
 20
-1.198079427083333
 30
0.0
 10
-0.6829969618055555
 20
-1.197597927517361
 30
0.0
  0
SPLINE
  5
58
330
51
100
AcDbEntity
  8
Layer 1
370
     0
100
AcDbSpline
210
0.0
220
0.0
230
1.0
 70
    11
 71
     3
 72
    17
 73
    13
 74
     0
 42
0.0000000001
 43
0.0000000001
 40
0.0
 40
0.0
 40
0.0
 40
0.0
 40
1.0
 40
1.0
 40
1.0
 40
2.0
 40
2.0
 40
2.0
 40
3.0
 40
3.0
 40
3.0
 40
4.0
 40
4.0
 40
4.0
 40
4.0
 10
-1.142293294270833
 20
-4.110120985243055
 30
0.0
 10
-1.050876193576389
 20
-4.1103515625
 30
0.0
 10
-0.991726345486111
 20
-4.05419921875
 30
0.0
 10
-0.9914143880208333
 20
-3.966891818576389
 30
0.0
 10
-0.9909532335069444
 20
-3.837375217013889
 30
0.0
 10
-1.036417643229167
 20
-3.785970052083333
 30
0.0
 10
-1.153049045138889
 20
-3.784125434027778
 30
0.0
 10
-1.240302191840278
 20
-3.782769097222222
 30
0.0
 10
-1.326388888888889
 20
-3.841227213541667
 30
0.0
 10
-1.319783528645833
 20
-3.9052734375
 30
0.0
 10
-1.308878580729167
 20
-4.010999891493055
 30
0.0
 10
-1.266276041666667
 20
-4.117770724826388
 30
0.0
 10
-1.142293294270833
 20
-4.110120985243055
 30
0.0
  0
SPLINE
  5
59
330
51
100
AcDbEntity
  8
Layer 1
370
     0
100
AcDbSpline
210
0.0
220
0.0
230
1.0
 70
    11
 71
     3
 72
    20
 73
    16
 74
     0
 42
0.0000000001
 43
0.0000000001
 40
0.0
 40
0.0
 40
0.0
 40
0.0
 40
1.0
 40
1.0
 40
1.0
 40
2.0
 40
2.0
 40
2.0
 40
3.0
 40
3.0
 40
3.0
 40
4.0
 40
4.0
 40
4.0
 40
5.0
 40
5.0
 40
5.0
 40
5.0
 10
-0.2983127170138889
 20
-2.969095865885417
 30
0.0
 10
-0.2070583767361111
 20
-2.968668619791667
 30
0.0
 10
-0.1397840711805556
 20
-2.886155870225694
 30
0.0
 10
-0.1632351345486111
 20
-2.794833713107639
 30
0.0
 10
-0.1713595920138889
 20
-2.763176812065972
 30
0.0
 10
-0.1944037543402778
 20
-2.721388075086805
 30
0.0
 10
-0.2209065755208333
 20
-2.711351182725694
 30
0.0
 10
-0.2737630208333333
 20
-2.691338433159722
 30
0.0
 10
-0.3335503472222222
 20
-2.688747829861111
 30
0.0
 10
-0.3908013237847222
 20
-2.681532118055555
 30
0.0
 10
-0.437255859375
 20
-2.675672743055555
 30
0.0
 10
-0.4682888454861111
 20
-2.691718207465278
 30
0.0
 10
-0.4847547743055555
 20
-2.741597493489583
 30
0.0
 10
-0.5268147786458333
 20
-2.868977864583333
 30
0.0
 10
-0.4459906684027777
 20
-2.96978759765625
 30
0.0
 10
-0.2983127170138889
 20
-2.969095865885417
 30
0.0
  0
SPLINE
  5
5A
330
51
100
AcDbEntity
  8
Layer 1
370
     0
100
AcDbSpline
210
0.0
220
0.0
230
1.0
 70
    11
 71
     3
 72
    23
 73
    19
 74
     0
 42
0.0000000001
 43
0.0000000001
 40
0.0
 40
0.0
 40
0.0
 40
0.0
 40
1.0
 40
1.0
 40
1.0
 40
2.0
 40
2.0
 40
2.0
 40
3.0
 40
3.0
 40
3.0
 40
4.0
 40
4.0
 40
4.0
 40
5.0
 40
5.0
 40
5.0
 40
6.0
 40
6.0
 40
6.0
 40
6.0
 10
-0.2385932074652778
 20
-1.842508951822917
 30
0.0
 10
-0.2359619140625
 20
-1.746724446614583
 30
0.0
 10
-0.3264295789930555
 20
-1.669725206163194
 30
0.0
 10
-0.4008382161458333
 20
-1.70013427734375
 30
0.0
 10
-0.4290771484375
 20
-1.711663140190972
 30
0.0
 10
-0.4550645616319444
 20
-1.75872802734375
 30
0.0
 10
-0.4588216145833333
 20
-1.792202419704861
 30
0.0
 10
-0.4631076388888888
 20
-1.830532497829861
 30
0.0
 10
-0.4400363498263888
 20
-1.871446397569444
 30
0.0
 10
-0.4315728081597222
 20
-1.911810980902778
 30
0.0
 10
-0.4214952256944444
 20
-1.959832085503472
 30
0.0
 10
-0.3929443359375
 20
-1.981424967447917
 30
0.0
 10
-0.3449164496527777
 20
-1.98382568359375
 30
0.0
 10
-0.2950575086805555
 20
-1.986321343315972
 30
0.0
 10
-0.2669542100694444
 20
-1.959581163194444
 30
0.0
 10
-0.2529703776041666
 20
-1.916795518663194
 30
0.0
 10
-0.2437879774305556
 20
-1.888705783420139
 30
0.0
 10
-0.2414957682291667
 20
-1.858357747395833
 30
0.0
 10
-0.2385932074652778
 20
-1.842508951822917
 30
0.0
  0
SPLINE
  5
5B
330
51
100
AcDbEntity
  8
Layer 1
370
     0
100
AcDbSpline
210
0.0
220
0.0
230
1.0
 70
    11
 71
     3
 72
    23
 73
    19
 74
     0
 42
0.0000000001
 43
0.0000000001
 40
0.0
 40
0.0
 40
0.0
 40
0.0
 40
1.0
 40
1.0
 40
1.0
 40
2.0
 40
2.0
 40
2.0
 40
3.0
 40
3.0
 40
3.0
 40
4.0
 40
4.0
 40
4.0
 40
5.0
 40
5.0
 40
5.0
 40
6.0
 40
6.0
 40
6.0
 40
6.0
 10
-3.643378363715278
 20
-2.144741482204861
 30
0.0
 10
-3.712870279947917
 20
-2.145345052083333
 30
0.0
 10
-3.758402506510417
 20
-2.192803276909722
 30
0.0
 10
-3.758409288194444
 20
-2.248758951822917
 30
0.0
 10
-3.758416069878472
 20
-2.312208387586805
 30
0.0
 10
-3.703728569878472
 20
-2.397508409288194
 30
0.0
 10
-3.660834418402778
 20
-2.390428331163194
 30
0.0
 10
-3.643276638454861
 20
-2.387532552083333
 30
0.0
 10
-3.625434027777778
 20
-2.353515625
 30
0.0
 10
-3.617974175347222
 20
-2.330349392361111
 30
0.0
 10
-3.608154296875
 20
-2.299858940972222
 30
0.0
 10
-3.608839246961805
 20
-2.26605224609375
 30
0.0
 10
-3.604234483506944
 20
-2.233778211805555
 30
0.0
 10
-3.601542154947917
 20
-2.214959038628472
 30
0.0
 10
-3.588290744357639
 20
-2.190205891927083
 30
0.0
 10
-3.595872667100694
 20
-2.179043240017361
 30
0.0
 10
-3.608391655815972
 20
-2.160610622829861
 30
0.0
 10
-3.633924696180555
 20
-2.151021321614583
 30
0.0
 10
-3.643378363715278
 20
-2.144741482204861
 30
0.0
  0
SPLINE
  5
5C
330
51
100
AcDbEntity
  8
Layer 1
370
     0
100
AcDbSpline
210
0.0
220
0.0
230
1.0
 70
    11
 71
     3
 72
   323
 73
   319
 74
     0
 42
0.0000000001
 43
0.0000000001
 40
0.0
 40
0.0
 40
0.0
 40
0.0
 40
1.0
 40
1.0
 40
1.0
 40
2.0
 40
2.0
 40
2.0
 40
3.0
 40
3.0
 40
3.0
 40
4.0
 40
4.0
 40
4.0
 40
5.0
 40
5.0
 40
5.0
 40
6.0
 40
6.0
 40
6.0
 40
7.0
 40
7.0
 40
7.0
 40
8.0
 40
8.0
 40
8.0
 40
9.0
 40
9.0
 40
9.0
 40
10.0
 40
10.0
 40
10.0
 40
11.0
 40
11.0
 40
11.0
 40
12.0
 40
12.0
 40
12.0
 40
13.0
 40
13.0
 40
13.0
 40
14.0
 40
14.0
 40
14.0
 40
15.0
 40
15.0
 40
15.0
 40
16.0
 40
16.0
 40
16.0
 40
17.0
 40
17.0
 40
17.0
 40
18.0
 40
18.0
 40
18.0
 40
19.0
 40
19.0
 40
19.0
 40
20.0
 40
20.0
 40
20.0
 40
21.0
 40
21.0
 40
21.0
 40
22.0
 40
22.0
 40
22.0
 40
23.0
 40
23.0
 40
23.0
 40
24.0
 40
24.0
 40
24.0
 40
25.0
 40
25.0
 40
25.0
 40
26.0
 40
26.0
 40
26.0
 40
27.0
 40
27.0
 40
27.0
 40
28.0
 40
28.0
 40
28.0
 40
29.0
 40
29.0
 40
29.0
 40
30.0
 40
30.0
 40
30.0
 40
31.0
 40
31.0
 40
31.0
 40
32.0
 40
32.0
 40
32.0
 40
33.0
 40
33.0
 40
33.0
 40
34.0
 40
34.0
 40
34.0
 40
35.0
 40
35.0
 40
35.0
 40
36.0
 40
36.0
 40
36.0
 40
37.0
 40
37.0
 40
37.0
 40
38.0
 40
38.0
 40
38.0
 40
39.0
 40
39.0
 40
39.0
 40
40.0
 40
40.0
 40
40.0
 40
41.0
 40
41.0
 40
41.0
 40
42.0
 40
42.0
 40
42.0
 40
43.0
 40
43.0
 40
43.0
 40
44.0
 40
44.0
 40
44.0
 40
45.0
 40
45.0
 40
45.0
 40
46.0
 40
46.0
 40
46.0
 40
47.0
 40
47.0
 40
47.0
 40
48.0
 40
48.0
 40
48.0
 40
49.0
 40
49.0
 40
49.0
 40
50.0
 40
50.0
 40
50.0
 40
51.0
 40
51.0
 40
51.0
 40
52.0
 40
52.0
 40
52.0
 40
53.0
 40
53.0
 40
53.0
 40
54.0
 40
54.0
 40
54.0
 40
55.0
 40
55.0
 40
55.0
 40
56.0
 40
56.0
 40
56.0
 40
57.0
 40
57.0
 40
57.0
 40
58.0
 40
58.0
 40
58.0
 40
59.0
 40
59.0
 40
59.0
 40
60.0
 40
60.0
 40
60.0
 40
61.0
 40
61.0
 40
61.0
 40
62.0
 40
62.0
 40
62.0
 40
63.0
 40
63.0
 40
63.0
 40
64.0
 40
64.0
 40
64.0
 40
65.0
 40
65.0
 40
65.0
 40
66.0
 40
66.0
 40
66.0
 40
67.0
 40
67.0
 40
67.0
 40
68.0
 40
68.0
 40
68.0
 40
69.0
 40
69.0
 40
69.0
 40
70.0
 40
70.0
 40
70.0
 40
71.0
 40
71.0
 40
71.0
 40
72.0
 40
72.0
 40
72.0
 40
73.0
 40
73.0
 40
73.0
 40
74.0
 40
74.0
 40
74.0
 40
75.0
 40
75.0
 40
75.0
 40
76.0
 40
76.0
 40
76.0
 40
77.0
 40
77.0
 40
77.0
 40
78.0
 40
78.0
 40
78.0
 40
79.0
 40
79.0
 40
79.0
 40
80.0
 40
80.0
 40
80.0
 40
81.0
 40
81.0
 40
81.0
 40
82.0
 40
82.0
 40
82.0
 40
83.0
 40
83.0
 40
83.0
 40
84.0
 40
84.0
 40
84.0
 40
85.0
 40
85.0
 40
85.0
 40
86.0
 40
86.0
 40
86.0
 40
87.0
 40
87.0
 40
87.0
 40
88.0
 40
88.0
 40
88.0
 40
89.0
 40
89.0
 40
89.0
 40
90.0
 40
90.0
 40
90.0
 40
91.0
 40
91.0
 40
91.0
 40
92.0
 40
92.0
 40
92.0
 40
93.0
 40
93.0
 40
93.0
 40
94.0
 40
94.0
 40
94.0
 40
95.0
 40
95.0
 40
95.0
 40
96.0
 40
96.0
 40
96.0
 40
97.0
 40
97.0
 40
97.0
 40
98.0
 40
98.0
 40
98.0
 40
99.0
 40
99.0
 40
99.0
 40
100.0
 40
100.0
 40
100.0
 40
101.0
 40
101.0
 40
101.0
 40
102.0
 40
102.0
 40
102.0
 40
103.0
 40
103.0
 40
103.0
 40
104.0
 40
104.0
 40
104.0
 40
105.0
 40
105.0
 40
105.0
 40
106.0
 40
106.0
 40
106.0
 40
106.0
 10
-2.016886393229167
 20
-4.016357421875
 30
0.0
 10
-2.146091037326389
 20
-4.006334092881945
 30
0.0
 10
-2.240587022569444
 20
-4.069471571180555
 30
0.0
 10
-2.328192816840278
 20
-4.150431315104166
 30
0.0
 10
-2.404507107204861
 20
-4.220947265625
 30
0.0
 10
-2.460611979166667
 20
-4.204427083333333
 30
0.0
 10
-2.480482313368055
 20
-4.102579752604166
 30
0.0
 10
-2.487826877170139
 20
-4.064900716145833
 30
0.0
 10
-2.481845431857639
 20
-4.024522569444445
 30
0.0
 10
-2.481092664930555
 20
-3.985392252604167
 30
0.0
 10
-2.479817708333333
 20
-3.919135199652778
 30
0.0
 10
-2.518717447916667
 20
-3.862277560763889
 30
0.0
 10
-2.570970323350694
 20
-3.8551025390625
 30
0.0
 10
-2.631205240885417
 20
-3.846828884548611
 30
0.0
 10
-2.6650390625
 20
-3.886705186631944
 30
0.0
 10
-2.641432020399305
 20
-3.942830403645833
 30
0.0
 10
-2.629245334201389
 20
-3.971815321180555
 30
0.0
 10
-2.612603081597222
 20
-4.004163953993055
 30
0.0
 10
-2.588351779513889
 20
-4.021647135416666
 30
0.0
 10
-2.546915690104167
 20
-4.051527235243055
 30
0.0
 10
-2.535997178819444
 20
-4.089463975694445
 30
0.0
 10
-2.535319010416667
 20
-4.135091145833333
 30
0.0
 10
-2.534125434027778
 20
-4.215833875868055
 30
0.0
 10
-2.579691569010417
 20
-4.249348958333333
 30
0.0
 10
-2.656650119357639
 20
-4.223388671875
 30
0.0
 10
-2.73504638671875
 20
-4.196926540798611
 30
0.0
 10
-2.815517849392361
 20
-4.174791124131945
 30
0.0
 10
-2.890652126736111
 20
-4.140936957465278
 30
0.0
 10
-2.988755967881944
 20
-4.096747504340278
 30
0.0
 10
-2.988538953993055
 20
-4.072618272569445
 30
0.0
 10
-2.932868109809028
 20
-3.983561197916667
 30
0.0
 10
-2.911234537760417
 20
-3.948961046006944
 30
0.0
 10
-2.907023111979167
 20
-3.900634765625
 30
0.0
 10
-2.903795030381944
 20
-3.857883029513889
 30
0.0
 10
-2.893419053819444
 20
-3.720377604166667
 30
0.0
 10
-2.890692816840278
 20
-3.713487413194444
 30
0.0
 10
-2.760260687934028
 20
-3.6766357421875
 30
0.0
 10
-2.721360948350694
 20
-3.6656494140625
 30
0.0
 10
-2.686848958333333
 20
-3.651462131076389
 30
0.0
 10
-2.691474066840278
 20
-3.605116102430555
 30
0.0
 10
-2.694437662760417
 20
-3.575466579861111
 30
0.0
 10
-2.709194607204861
 20
-3.5469970703125
 30
0.0
 10
-2.718668619791667
 20
-3.517985026041667
 30
0.0
 10
-2.742255316840278
 20
-3.533610026041667
 30
0.0
 10
-2.770189073350694
 20
-3.5452880859375
 30
0.0
 10
-2.788560655381944
 20
-3.565619574652778
 30
0.0
 10
-2.831807454427083
 20
-3.613484700520833
 30
0.0
 10
-2.869730631510417
 20
-3.611667209201389
 30
0.0
 10
-2.900689019097222
 20
-3.554497612847222
 30
0.0
 10
-2.910590277777778
 20
-3.536214192708333
 30
0.0
 10
-2.920294867621528
 20
-3.517523871527778
 30
0.0
 10
-2.927293565538194
 20
-3.498012966579861
 30
0.0
 10
-2.9439697265625
 20
-3.451517740885417
 30
0.0
 10
-2.969916449652778
 20
-3.432732476128472
 30
0.0
 10
-3.022508409288194
 20
-3.447855631510417
 30
0.0
 10
-3.076551649305555
 20
-3.463399251302083
 30
0.0
 10
-3.153130425347222
 20
-3.412333170572917
 30
0.0
 10
-3.154758029513889
 20
-3.358357747395833
 30
0.0
 10
-3.155402289496528
 20
-3.337076822916667
 30
0.0
 10
-3.129767523871528
 20
-3.306640625
 30
0.0
 10
-3.108161078559028
 20
-3.294508192274305
 30
0.0
 10
-3.019721137152778
 20
-3.244866265190972
 30
0.0
 10
-2.995741102430555
 20
-3.158393012152778
 30
0.0
 10
-3.057176378038194
 20
-3.078206380208333
 30
0.0
 10
-3.070326063368055
 20
-3.061041937934028
 30
0.0
 10
-3.098225911458333
 20
-3.045762803819444
 30
0.0
 10
-3.118489583333333
 20
-3.046759711371528
 30
0.0
 10
-3.132297092013889
 20
-3.047437879774305
 30
0.0
 10
-3.149603949652778
 20
-3.076171875
 30
0.0
 10
-3.156514485677083
 20
-3.095513237847222
 30
0.0
 10
-3.168063693576389
 20
-3.127848307291667
 30
0.0
 10
-3.169630262586805
 20
-3.163682725694444
 30
0.0
 10
-3.180609809027778
 20
-3.196295844184028
 30
0.0
 10
-3.205973307291667
 20
-3.271633572048611
 30
0.0
 10
-3.274678548177083
 20
-3.303114149305555
 30
0.0
 10
-3.346137152777778
 20
-3.271206325954861
 30
0.0
 10
-3.365403917100694
 20
-3.262600368923611
 30
0.0
 10
-3.394999186197917
 20
-3.238206651475694
 30
0.0
 10
-3.392666286892361
 20
-3.226460774739583
 30
0.0
 10
-3.377387152777778
 20
-3.14947509765625
 30
0.0
 10
-3.436143663194444
 20
-3.107916937934028
 30
0.0
 10
-3.4686279296875
 20
-3.055087619357639
 30
0.0
 10
-3.5299072265625
 20
-2.955417209201389
 30
0.0
 10
-3.52130126953125
 20
-2.911872016059028
 30
0.0
 10
-3.424953884548611
 20
-2.849772135416667
 30
0.0
 10
-3.404737684461805
 20
-2.836737738715278
 30
0.0
 10
-3.388712565104167
 20
-2.815151638454861
 30
0.0
 10
-3.374823676215278
 20
-2.79473876953125
 30
0.0
 10
-3.3349609375
 20
-2.736151801215278
 30
0.0
 10
-3.299038357204861
 20
-2.674831814236111
 30
0.0
 10
-3.258015950520833
 20
-2.617112901475694
 30
0.0
 10
-3.224175347222222
 20
-2.569505479600694
 30
0.0
 10
-3.234212239583333
 20
-2.532972547743055
 30
0.0
 10
-3.281887478298611
 20
-2.508633083767361
 30
0.0
 10
-3.37249755859375
 20
-2.462381998697917
 30
0.0
 10
-3.401285807291667
 20
-2.376532660590278
 30
0.0
 10
-3.423441569010417
 20
-2.289008246527778
 30
0.0
 10
-3.42913818359375
 20
-2.266486273871528
 30
0.0
 10
-3.406134711371528
 20
-2.236138237847222
 30
0.0
 10
-3.394856770833333
 20
-2.21002197265625
 30
0.0
 10
-3.379645453559028
 20
-2.174811469184028
 30
0.0
 10
-3.354051378038194
 20
-2.141452365451389
 30
0.0
 10
-3.349005805121528
 20
-2.105075412326389
 30
0.0
 10
-3.340616861979167
 20
-2.044521755642361
 30
0.0
 10
-3.371148003472222
 20
-2.029703776041667
 30
0.0
 10
-3.431172688802083
 20
-2.041720920138889
 30
0.0
 10
-3.456434461805555
 20
-2.046780056423611
 30
0.0
 10
-3.490078396267361
 20
-2.030069986979167
 30
0.0
 10
-3.513990614149305
 20
-2.0142822265625
 30
0.0
 10
-3.528367784288194
 20
-2.004794650607639
 30
0.0
 10
-3.536092122395833
 20
-1.978651258680555
 30
0.0
 10
-3.5386962890625
 20
-1.958916558159722
 30
0.0
 10
-3.560356987847222
 20
-1.79510498046875
 30
0.0
 10
-3.537245008680555
 20
-1.628872341579861
 30
0.0
 10
-3.472676595052083
 20
-1.485358344184028
 30
0.0
 10
-3.4208984375
 20
-1.370266384548611
 30
0.0
 10
-3.284532335069444
 20
-1.325819227430556
 30
0.0
 10
-3.150126139322917
 20
-1.321336534288194
 30
0.0
 10
-3.109449598524305
 20
-1.319980197482639
 30
0.0
 10
-3.069139268663194
 20
-1.309760199652778
 30
0.0
 10
-3.028428819444444
 20
-1.306979709201389
 30
0.0
 10
-2.999640570746528
 20
-1.305006239149306
 30
0.0
 10
-2.969957139756944
 20
-1.305711534288194
 30
0.0
 10
-2.941555447048611
 20
-1.310479058159722
 30
0.0
 10
-2.860846625434028
 20
-1.324028862847222
 30
0.0
 10
-2.780727810329861
 20
-1.341050889756944
 30
0.0
 10
-2.700005425347222
 20
-1.354498969184028
 30
0.0
 10
-2.689771864149305
 20
-1.356201171875
 30
0.0
 10
-2.671535915798611
 20
-1.347757975260417
 30
0.0
 10
-2.666917588975694
 20
-1.338873969184028
 30
0.0
 10
-2.643866644965278
 20
-1.294474283854167
 30
0.0
 10
-2.612019856770833
 20
-1.308336046006944
 30
0.0
 10
-2.577928331163194
 20
-1.320319281684028
 30
0.0
 10
-2.486660427517361
 20
-1.352383083767361
 30
0.0
 10
-2.489834255642361
 20
-1.350043402777778
 30
0.0
 10
-2.537380642361111
 20
-1.43560791015625
 30
0.0
 10
-2.550930447048611
 20
-1.459994845920139
 30
0.0
 10
-2.538899739583333
 20
-1.49859619140625
 30
0.0
 10
-2.538601345486111
 20
-1.530680338541667
 30
0.0
 10
-2.508253309461805
 20
-1.52459716796875
 30
0.0
 10
-2.471238878038194
 20
-1.5274658203125
 30
0.0
 10
-2.448784722222222
 20
-1.510762532552083
 30
0.0
 10
-2.377970377604167
 20
-1.458095974392361
 30
0.0
 10
-2.3607177734375
 20
-1.386725531684028
 30
0.0
 10
-2.389329698350694
 20
-1.301201714409722
 30
0.0
 10
-2.414876302083333
 20
-1.224853515625
 30
0.0
 10
-2.394775390625
 20
-1.19384765625
 30
0.0
 10
-2.312269422743055
 20
-1.185743543836806
 30
0.0
 10
-2.249077690972222
 20
-1.179538302951389
 30
0.0
 10
-2.21044921875
 20
-1.147901746961806
 30
0.0
 10
-2.183349609375
 20
-1.094977484809028
 30
0.0
 10
-2.174913194444444
 20
-1.078511555989583
 30
0.0
 10
-2.162394205729167
 20
-1.063496907552083
 30
0.0
 10
-2.157036675347222
 20
-1.046183268229167
 30
0.0
 10
-2.116360134548611
 20
-0.914794921875
 30
0.0
 10
-2.001993815104167
 20
-0.8588663736979166
 30
0.0
 10
-1.897637261284722
 20
-0.7942301432291666
 30
0.0
 10
-1.849745008680555
 20
-0.7645738389756944
 30
0.0
 10
-1.80419921875
 20
-0.772488064236111
 30
0.0
 10
-1.760457356770833
 20
-0.8158908420138888
 30
0.0
 10
-1.738321940104167
 20
-0.837856716579861
 30
0.0
 10
-1.699476453993055
 20
-0.8470526801215277
 30
0.0
 10
-1.666544596354167
 20
-0.8530680338541666
 30
0.0
 10
-1.624186197916667
 20
-0.8608194986979166
 30
0.0
 10
-1.57763671875
 20
-0.8513251410590277
 30
0.0
 10
-1.537339952256944
 20
-0.8637424045138888
 30
0.0
 10
-1.408379448784722
 20
-0.9034830729166666
 30
0.0
 10
-1.365152994791667
 20
-0.9983113606770833
 30
0.0
 10
-1.411485460069444
 20
-1.125020345052083
 30
0.0
 10
-1.429375542534722
 20
-1.173936631944444
 30
0.0
 10
-1.500393337673611
 20
-1.196879069010417
 30
0.0
 10
-1.588053385416667
 20
-1.18206787109375
 30
0.0
 10
-1.701958550347222
 20
-1.162821451822917
 30
0.0
 10
-1.755669487847222
 20
-1.180921766493056
 30
0.0
 10
-1.790378146701389
 20
-1.265719943576389
 30
0.0
 10
-1.803005642361111
 20
-1.296576605902778
 30
0.0
 10
-1.802734375
 20
-1.353244357638889
 30
0.0
 10
-1.783393012152778
 20
-1.37109375
 30
0.0
 10
-1.762532552083333
 20
-1.390346950954861
 30
0.0
 10
-1.707546657986111
 20
-1.389655219184028
 30
0.0
 10
-1.67626953125
 20
-1.376566569010417
 30
0.0
 10
-1.630615234375
 20
-1.357462565104167
 30
0.0
 10
-1.595553927951389
 20
-1.314168294270833
 30
0.0
 10
-1.550740559895833
 20
-1.291537814670139
 30
0.0
 10
-1.521701388888889
 20
-1.276875813802083
 30
0.0
 10
-1.478773328993056
 20
-1.268398708767361
 30
0.0
 10
-1.450208875868056
 20
-1.279032389322917
 30
0.0
 10
-1.405598958333333
 20
-1.295640733506944
 30
0.0
 10
-1.373725043402778
 20
-1.291497124565972
 30
0.0
 10
-1.3453369140625
 20
-1.257480197482639
 30
0.0
 10
-1.308186848958333
 20
-1.212992350260417
 30
0.0
 10
-1.267876519097222
 20
-1.214667426215278
 30
0.0
 10
-1.222520616319444
 20
-1.24261474609375
 30
0.0
 10
-1.174370659722222
 20
-1.272291395399306
 30
0.0
 10
-1.130276150173611
 20
-1.271538628472222
 30
0.0
 10
-1.081570095486111
 20
-1.23583984375
 30
0.0
 10
-1.056599934895833
 20
-1.217536078559028
 30
0.0
 10
-1.016940646701389
 20
-1.209865993923611
 30
0.0
 10
-0.9850938585069444
 20
-1.21234130859375
 30
0.0
 10
-0.9210611979166666
 20
-1.217305501302083
 30
0.0
 10
-0.9015570746527777
 20
-1.272040473090278
 30
0.0
 10
-0.9414198133680555
 20
-1.321390787760417
 30
0.0
 10
-1.025349934895833
 20
-1.425279405381944
 30
0.0
 10
-1.023790147569444
 20
-1.444613986545139
 30
0.0
 10
-0.9085693359375
 20
-1.519822862413194
 30
0.0
 10
-0.858547634548611
 20
-1.552469889322917
 30
0.0
 10
-0.8016764322916666
 20
-1.574462890625
 30
0.0
 10
-0.7487521701388888
 20
-1.60284423828125
 30
0.0
 10
-0.6826036241319444
 20
-1.6383056640625
 30
0.0
 10
-0.647488064236111
 20
-1.703016493055555
 30
0.0
 10
-0.664794921875
 20
-1.75390625
 30
0.0
 10
-0.6819390190972222
 20
-1.804341634114583
 30
0.0
 10
-0.7698432074652778
 20
-1.845872667100694
 30
0.0
 10
-0.8354899088541666
 20
-1.829847547743055
 30
0.0
 10
-0.8800998263888888
 20
-1.818956163194444
 30
0.0
 10
-0.9301079644097222
 20
-1.803053114149305
 30
0.0
 10
-0.9510904947916666
 20
-1.8541259765625
 30
0.0
 10
-0.9708794487847222
 20
-1.902330186631944
 30
0.0
 10
-0.975246853298611
 20
-1.958855523003472
 30
0.0
 10
-0.9752604166666666
 20
-2.011725531684028
 30
0.0
 10
-0.9752604166666666
 20
-2.024034288194444
 30
0.0
 10
-0.9238145616319444
 20
-2.052395290798611
 30
0.0
 10
-0.9068332248263888
 20
-2.045756022135417
 30
0.0
 10
-0.8479953342013888
 20
-2.022752549913194
 30
0.0
 10
-0.7893608940972222
 20
-1.993564181857639
 30
0.0
 10
-0.7391899956597222
 20
-1.955478244357639
 30
0.0
 10
-0.680202907986111
 20
-1.910719129774305
 30
0.0
 10
-0.6471896701388888
 20
-1.900316026475694
 30
0.0
 10
-0.5944959852430555
 20
-1.951673719618055
 30
0.0
 10
-0.5202365451388888
 20
-2.024068196614583
 30
0.0
 10
-0.4511176215277777
 20
-2.101908365885417
 30
0.0
 10
-0.3824462890625
 20
-2.179755316840278
 30
0.0
 10
-0.3683403862847222
 20
-2.195746527777778
 30
0.0
 10
-0.36376953125
 20
-2.221503363715278
 30
0.0
 10
-0.3584255642361111
 20
-2.243631998697917
 30
0.0
 10
-0.335693359375
 20
-2.337870279947917
 30
0.0
 10
-0.2829318576388889
 20
-2.372205946180555
 30
0.0
 10
-0.1908365885416667
 20
-2.342441134982639
 30
0.0
 10
-0.1360677083333333
 20
-2.324734157986111
 30
0.0
 10
-0.0842420789930556
 20
-2.295620388454861
 30
0.0
 10
-0.0508761935763889
 20
-2.370049370659722
 30
0.0
 10
-0.0205349392361111
 20
-2.437730577256944
 30
0.0
 10
-0.0440945095486111
 20
-2.525675455729167
 30
0.0
 10
-0.1008978949652778
 20
-2.563164605034722
 30
0.0
 10
-0.1634114583333333
 20
-2.604410807291667
 30
0.0
 10
-0.24609375
 20
-2.599521213107639
 30
0.0
 10
-0.3085666232638889
 20
-2.556905110677083
 30
0.0
 10
-0.3462592230902777
 20
-2.53118896484375
 30
0.0
 10
-0.3869900173611111
 20
-2.505669487847222
 30
0.0
 10
-0.4301486545138888
 20
-2.493279351128472
 30
0.0
 10
-0.4849175347222222
 20
-2.477559407552083
 30
0.0
 10
-0.5374077690972222
 20
-2.485093858506944
 30
0.0
 10
-0.5795220269097222
 20
-2.537000868055555
 30
0.0
 10
-0.6184624565972222
 20
-2.584974500868055
 30
0.0
 10
-0.6392415364583333
 20
-2.626369900173611
 30
0.0
 10
-0.6025526258680555
 20
-2.686292860243055
 30
0.0
 10
-0.5922580295138888
 20
-2.703084309895833
 30
0.0
 10
-0.6014539930555555
 20
-2.741556803385417
 30
0.0
 10
-0.6147596571180555
 20
-2.76129150390625
 30
0.0
 10
-0.6642252604166666
 20
-2.834648980034722
 30
0.0
 10
-0.6932373046875
 20
-2.907280815972222
 30
0.0
 10
-0.6492241753472222
 20
-2.994520399305555
 30
0.0
 10
-0.6395806206597222
 20
-3.013617621527778
 30
0.0
 10
-0.6440972222222222
 20
-3.039876302083333
 30
0.0
 10
-0.6422119140625
 20
-3.062852647569444
 30
0.0
 10
-0.6322835286458333
 20
-3.183729383680555
 30
0.0
 10
-0.5584716796875
 20
-3.225497775607639
 30
0.0
 10
-0.4500732421875
 20
-3.169487847222222
 30
0.0
 10
-0.4132215711805555
 20
-3.15045166015625
 30
0.0
 10
-0.3784993489583333
 20
-3.126817491319444
 30
0.0
 10
-0.3444417317708333
 20
-3.102945963541667
 30
0.0
 10
-0.3006863064236111
 20
-3.072265625
 30
0.0
 10
-0.2720947265625
 20
-3.082485622829861
 30
0.0
 10
-0.2538791232638889
 20
-3.131056043836805
 30
0.0
 10
-0.2110595703125
 20
-3.245279947916667
 30
0.0
 10
-0.2508816189236111
 20
-3.369371202256944
 30
0.0
 10
-0.3606770833333333
 20
-3.46307373046875
 30
0.0
 10
-0.4400770399305555
 20
-3.530843098958333
 30
0.0
 10
-0.5567491319444444
 20
-3.537027994791667
 30
0.0
 10
-0.6583251953125
 20
-3.478888617621528
 30
0.0
 10
-0.7822808159722222
 20
-3.407931857638889
 30
0.0
 10
-0.8884955512152777
 20
-3.454861111111111
 30
0.0
 10
-0.9183213975694444
 20
-3.593790690104167
 30
0.0
 10
-0.9347873263888888
 20
-3.670505099826389
 30
0.0
 10
-1.072889539930556
 20
-3.7261962890625
 30
0.0
 10
-1.14404296875
 20
-3.692789713541667
 30
0.0
 10
-1.182820638020833
 20
-3.674587673611111
 30
0.0
 10
-1.234049479166667
 20
-3.662909613715278
 30
0.0
 10
-1.274251302083333
 20
-3.672064887152778
 30
0.0
 10
-1.350260416666667
 20
-3.689358181423611
 30
0.0
 10
-1.422512478298611
 20
-3.723470052083333
 30
0.0
 10
-1.495998806423611
 20
-3.75146484375
 30
0.0
 10
-1.508721245659722
 20
-3.756306966145833
 30
0.0
 10
-1.522962782118056
 20
-3.762912326388889
 30
0.0
 10
-1.531073676215278
 20
-3.773030598958333
 30
0.0
 10
-1.553168402777778
 20
-3.800672743055555
 30
0.0
 10
-1.595526801215278
 20
-3.843180338541667
 30
0.0
 10
-1.587972005208333
 20
-3.857123480902778
 30
0.0
 10
-1.571194118923611
 20
-3.888102213541667
 30
0.0
 10
-1.531806098090278
 20
-3.914767795138889
 30
0.0
 10
-1.496242947048611
 20
-3.925767686631944
 30
0.0
 10
-1.442857530381944
 20
-3.942287868923611
 30
0.0
 10
-1.396280924479167
 20
-3.959920247395833
 30
0.0
 10
-1.371405707465278
 20
-4.013983832465278
 30
0.0
 10
-1.342841254340278
 20
-4.0760498046875
 30
0.0
 10
-1.368082682291667
 20
-4.125583224826388
 30
0.0
 10
-1.436143663194444
 20
-4.131157769097222
 30
0.0
 10
-1.467461480034722
 20
-4.133734809027778
 30
0.0
 10
-1.499796549479167
 20
-4.126220703125
 30
0.0
 10
-1.531453450520833
 20
-4.121731228298611
 30
0.0
 10
-1.581678602430555
 20
-4.114610460069445
 30
0.0
 10
-1.631578233506944
 20
-4.100857204861111
 30
0.0
 10
-1.681844075520833
 20
-4.099677191840278
 30
0.0
 10
-1.743259006076389
 20
-4.098253038194445
 30
0.0
 10
-1.795600043402778
 20
-4.087917751736111
 30
0.0
 10
-1.850789388020833
 20
-4.053317599826388
 30
0.0
 10
-1.896077473958333
 20
-4.024915907118055
 30
0.0
 10
-1.960788302951389
 20
-4.027506510416666
 30
0.0
 10
-2.016886393229167
 20
-4.016357421875
 30
0.0
  0
SPLINE
  5
5D
330
51
100
AcDbEntity
  8
Layer 1
370
     0
100
AcDbSpline
210
0.0
220
0.0
230
1.0
 70
    11
 71
     3
 72
    23
 73
    19
 74
     0
 42
0.0000000001
 43
0.0000000001
 40
0.0
 40
0.0
 40
0.0
 40
0.0
 40
1.0
 40
1.0
 40
1.0
 40
2.0
 40
2.0
 40
2.0
 40
3.0
 40
3.0
 40
3.0
 40
4.0
 40
4.0
 40
4.0
 40
5.0
 40
5.0
 40
5.0
 40
6.0
 40
6.0
 40
6.0
 40
6.0
 10
-1.308132595486111
 20
-1.896443684895833
 30
0.0
 10
-1.353366427951389
 20
-1.936455620659722
 30
0.0
 10
-1.391737196180556
 20
-1.969448513454861
 30
0.0
 10
-1.4290771484375
 20
-2.003580729166667
 30
0.0
 10
-1.655965169270833
 20
-2.210971408420139
 30
0.0
 10
-1.882025824652778
 20
-2.419264051649305
 30
0.0
 10
-2.10986328125
 20
-2.625590006510417
 30
0.0
 10
-2.150580512152778
 20
-2.662455240885417
 30
0.0
 10
-2.156141493055555
 20
-2.698750813802083
 30
0.0
 10
-2.137261284722222
 20
-2.74822998046875
 30
0.0
 10
-2.102511935763889
 20
-2.839328342013889
 30
0.0
 10
-2.038465711805555
 20
-2.896464029947917
 30
0.0
 10
-1.948147243923611
 20
-2.927558051215278
 30
0.0
 10
-1.609361436631944
 20
-3.044175889756944
 30
0.0
 10
-1.237765842013889
 20
-2.813090006510417
 30
0.0
 10
-1.169474283854167
 20
-2.444831000434028
 30
0.0
 10
-1.132256401909722
 20
-2.244127061631944
 30
0.0
 10
-1.1796875
 20
-2.066304524739583
 30
0.0
 10
-1.308132595486111
 20
-1.896443684895833
 30
0.0
  0
SPLINE
  5
5E
330
51
100
AcDbEntity
  8
Layer 1
370
     0
100
AcDbSpline
210
0.0
220
0.0
230
1.0
 70
    11
 71
     3
 72
    26
 73
    22
 74
     0
 42
0.0000000001
 43
0.0000000001
 40
0.0
 40
0.0
 40
0.0
 40
0.0
 40
1.0
 40
1.0
 40
1.0
 40
2.0
 40
2.0
 40
2.0
 40
3.0
 40
3.0
 40
3.0
 40
4.0
 40
4.0
 40
4.0
 40
5.0
 40
5.0
 40
5.0
 40
6.0
 40
6.0
 40
6.0
 40
7.0
 40
7.0
 40
7.0
 40
7.0
 10
-2.976209852430555
 20
-1.965121799045139
 30
0.0
 10
-3.041347927517361
 20
-2.192837185329861
 30
0.0
 10
-3.072550455729167
 20
-2.404920789930555
 30
0.0
 10
-3.0438232421875
 20
-2.624125162760417
 30
0.0
 10
-3.026089138454861
 20
-2.759487575954861
 30
0.0
 10
-2.956224229600694
 20
-2.860059950086805
 30
0.0
 10
-2.848700629340278
 20
-2.938517252604167
 30
0.0
 10
-2.721381293402778
 20
-3.031412760416667
 30
0.0
 10
-2.574924045138889
 20
-2.991434733072917
 30
0.0
 10
-2.516106499565972
 20
-2.846761067708333
 30
0.0
 10
-2.503987630208333
 20
-2.816948784722222
 30
0.0
 10
-2.490634494357639
 20
-2.785841200086805
 30
0.0
 10
-2.488077799479167
 20
-2.754489474826389
 30
0.0
 10
-2.485941569010417
 20
-2.728278266059028
 30
0.0
 10
-2.491651746961805
 20
-2.696024576822917
 30
0.0
 10
-2.506117078993055
 20
-2.674763997395833
 30
0.0
 10
-2.585428873697917
 20
-2.558213975694444
 30
0.0
 10
-2.671312120225694
 20
-2.44610595703125
 30
0.0
 10
-2.749477810329861
 20
-2.328837076822917
 30
0.0
 10
-2.825005425347222
 20
-2.215521918402778
 30
0.0
 10
-2.8939208984375
 20
-2.097798665364583
 30
0.0
 10
-2.976209852430555
 20
-1.965121799045139
 30
0.0
  0
SPLINE
  5
5F
330
51
100
AcDbEntity
  8
Layer 1
370
     0
100
AcDbSpline
210
0.0
220
0.0
230
1.0
 70
    11
 71
     3
 72
    17
 73
    13
 74
     0
 42
0.0000000001
 43
0.0000000001
 40
0.0
 40
0.0
 40
0.0
 40
0.0
 40
1.0
 40
1.0
 40
1.0
 40
2.0
 40
2.0
 40
2.0
 40
3.0
 40
3.0
 40
3.0
 40
4.0
 40
4.0
 40
4.0
 40
4.0
 10
-1.705403645833333
 20
-3.185397677951389
 30
0.0
 10
-1.678141276041667
 20
-3.242038302951389
 30
0.0
 10
-1.654188368055555
 20
-3.291768391927083
 30
0.0
 10
-1.6302490234375
 20
-3.341505262586805
 30
0.0
 10
-1.624579535590278
 20
-3.340806749131944
 30
0.0
 10
-1.618923611111111
 20
-3.340115017361111
 30
0.0
 10
-1.613254123263889
 20
-3.33941650390625
 30
0.0
 10
-1.602688259548611
 20
-3.281405978732639
 30
0.0
 10
-1.592122395833333
 20
-3.223395453559028
 30
0.0
 10
-1.579535590277778
 20
-3.154310438368055
 30
0.0
 10
-1.627699110243055
 20
-3.166205512152778
 30
0.0
 10
-1.662000868055555
 20
-3.174675835503472
 30
0.0
 10
-1.705403645833333
 20
-3.185397677951389
 30
0.0
  0
SPLINE
  5
60
330
51
100
AcDbEntity
  8
Layer 1
370
     0
100
AcDbSpline
210
0.0
220
0.0
230
1.0
 70
    11
 71
     3
 72
    17
 73
    13
 74
     0
 42
0.0000000001
 43
0.0000000001
 40
0.0
 40
0.0
 40
0.0
 40
0.0
 40
1.0
 40
1.0
 40
1.0
 40
2.0
 40
2.0
 40
2.0
 40
3.0
 40
3.0
 40
3.0
 40
4.0
 40
4.0
 40
4.0
 40
4.0
 10
-2.754123263888889
 20
-3.096883138020833
 30
0.0
 10
-2.742289225260417
 20
-3.148179796006944
 30
0.0
 10
-2.733784993489583
 20
-3.185045030381944
 30
0.0
 10
-2.72528076171875
 20
-3.221903483072917
 30
0.0
 10
-2.719760470920139
 20
-3.221605088975694
 30
0.0
 10
-2.714240180121528
 20
-3.221306694878472
 30
0.0
 10
-2.708713107638889
 20
-3.221001519097222
 30
0.0
 10
-2.69317626953125
 20
-3.18890380859375
 30
0.0
 10
-2.677632649739583
 20
-3.156806098090278
 30
0.0
 10
-2.660081651475694
 20
-3.120551215277778
 30
0.0
 10
-2.691609700520833
 20
-3.112616644965278
 30
0.0
 10
-2.715582953559028
 20
-3.106587727864583
 30
0.0
 10
-2.754123263888889
 20
-3.096883138020833
 30
0.0
  0
HATCH
  5
61
330
51
100
AcDbEntity
  8
Layer 1
 62
     7
420
 16777215
100
AcDbHatch
 10
0.0
 20
0.0
 30
0.0
210
0.0
220
0.0
230
1.0
  2
SOLID
 70
     1
 71
     0
 91
        5
 92
        1
 93
        1
 72
     4
 94
        3
 73
     0
 74
     1
 95
      323
 96
      319
 40
0.0
 40
0.0
 40
0.0
 40
0.0
 40
1.0
 40
1.0
 40
1.0
 40
2.0
 40
2.0
 40
2.0
 40
3.0
 40
3.0
 40
3.0
 40
4.0
 40
4.0
 40
4.0
 40
5.0
 40
5.0
 40
5.0
 40
6.0
 40
6.0
 40
6.0
 40
7.0
 40
7.0
 40
7.0
 40
8.0
 40
8.0
 40
8.0
 40
9.0
 40
9.0
 40
9.0
 40
10.0
 40
10.0
 40
10.0
 40
11.0
 40
11.0
 40
11.0
 40
12.0
 40
12.0
 40
12.0
 40
13.0
 40
13.0
 40
13.0
 40
14.0
 40
14.0
 40
14.0
 40
15.0
 40
15.0
 40
15.0
 40
16.0
 40
16.0
 40
16.0
 40
17.0
 40
17.0
 40
17.0
 40
18.0
 40
18.0
 40
18.0
 40
19.0
 40
19.0
 40
19.0
 40
20.0
 40
20.0
 40
20.0
 40
21.0
 40
21.0
 40
21.0
 40
22.0
 40
22.0
 40
22.0
 40
23.0
 40
23.0
 40
23.0
 40
24.0
 40
24.0
 40
24.0
 40
25.0
 40
25.0
 40
25.0
 40
26.0
 40
26.0
 40
26.0
 40
27.0
 40
27.0
 40
27.0
 40
28.0
 40
28.0
 40
28.0
 40
29.0
 40
29.0
 40
29.0
 40
30.0
 40
30.0
 40
30.0
 40
31.0
 40
31.0
 40
31.0
 40
32.0
 40
32.0
 40
32.0
 40
33.0
 40
33.0
 40
33.0
 40
34.0
 40
34.0
 40
34.0
 40
35.0
 40
35.0
 40
35.0
 40
36.0
 40
36.0
 40
36.0
 40
37.0
 40
37.0
 40
37.0
 40
38.0
 40
38.0
 40
38.0
 40
39.0
 40
39.0
 40
39.0
 40
40.0
 40
40.0
 40
40.0
 40
41.0
 40
41.0
 40
41.0
 40
42.0
 40
42.0
 40
42.0
 40
43.0
 40
43.0
 40
43.0
 40
44.0
 40
44.0
 40
44.0
 40
45.0
 40
45.0
 40
45.0
 40
46.0
 40
46.0
 40
46.0
 40
47.0
 40
47.0
 40
47.0
 40
48.0
 40
48.0
 40
48.0
 40
49.0
 40
49.0
 40
49.0
 40
50.0
 40
50.0
 40
50.0
 40
51.0
 40
51.0
 40
51.0
 40
52.0
 40
52.0
 40
52.0
 40
53.0
 40
53.0
 40
53.0
 40
54.0
 40
54.0
 40
54.0
 40
55.0
 40
55.0
 40
55.0
 40
56.0
 40
56.0
 40
56.0
 40
57.0
 40
57.0
 40
57.0
 40
58.0
 40
58.0
 40
58.0
 40
59.0
 40
59.0
 40
59.0
 40
60.0
 40
60.0
 40
60.0
 40
61.0
 40
61.0
 40
61.0
 40
62.0
 40
62.0
 40
62.0
 40
63.0
 40
63.0
 40
63.0
 40
64.0
 40
64.0
 40
64.0
 40
65.0
 40
65.0
 40
65.0
 40
66.0
 40
66.0
 40
66.0
 40
67.0
 40
67.0
 40
67.0
 40
68.0
 40
68.0
 40
68.0
 40
69.0
 40
69.0
 40
69.0
 40
70.0
 40
70.0
 40
70.0
 40
71.0
 40
71.0
 40
71.0
 40
72.0
 40
72.0
 40
72.0
 40
73.0
 40
73.0
 40
73.0
 40
74.0
 40
74.0
 40
74.0
 40
75.0
 40
75.0
 40
75.0
 40
76.0
 40
76.0
 40
76.0
 40
77.0
 40
77.0
 40
77.0
 40
78.0
 40
78.0
 40
78.0
 40
79.0
 40
79.0
 40
79.0
 40
80.0
 40
80.0
 40
80.0
 40
81.0
 40
81.0
 40
81.0
 40
82.0
 40
82.0
 40
82.0
 40
83.0
 40
83.0
 40
83.0
 40
84.0
 40
84.0
 40
84.0
 40
85.0
 40
85.0
 40
85.0
 40
86.0
 40
86.0
 40
86.0
 40
87.0
 40
87.0
 40
87.0
 40
88.0
 40
88.0
 40
88.0
 40
89.0
 40
89.0
 40
89.0
 40
90.0
 40
90.0
 40
90.0
 40
91.0
 40
91.0
 40
91.0
 40
92.0
 40
92.0
 40
92.0
 40
93.0
 40
93.0
 40
93.0
 40
94.0
 40
94.0
 40
94.0
 40
95.0
 40
95.0
 40
95.0
 40
96.0
 40
96.0
 40
96.0
 40
97.0
 40
97.0
 40
97.0
 40
98.0
 40
98.0
 40
98.0
 40
99.0
 40
99.0
 40
99.0
 40
100.0
 40
100.0
 40
100.0
 40
101.0
 40
101.0
 40
101.0
 40
102.0
 40
102.0
 40
102.0
 40
103.0
 40
103.0
 40
103.0
 40
104.0
 40
104.0
 40
104.0
 40
105.0
 40
105.0
 40
105.0
 40
106.0
 40
106.0
 40
106.0
 40
106.0
 10
-2.016886393229167
 20
-4.016357421875
 10
-2.146091037326389
 20
-4.006334092881945
 10
-2.240587022569444
 20
-4.069471571180555
 10
-2.328192816840278
 20
-4.150431315104166
 10
-2.404507107204861
 20
-4.220947265625
 10
-2.460611979166667
 20
-4.204427083333333
 10
-2.480482313368055
 20
-4.102579752604166
 10
-2.487826877170139
 20
-4.064900716145833
 10
-2.481845431857639
 20
-4.024522569444445
 10
-2.481092664930555
 20
-3.985392252604167
 10
-2.479817708333333
 20
-3.919135199652778
 10
-2.518717447916667
 20
-3.862277560763889
 10
-2.570970323350694
 20
-3.8551025390625
 10
-2.631205240885417
 20
-3.846828884548611
 10
-2.6650390625
 20
-3.886705186631944
 10
-2.641432020399305
 20
-3.942830403645833
 10
-2.629245334201389
 20
-3.971815321180555
 10
-2.612603081597222
 20
-4.004163953993055
 10
-2.588351779513889
 20
-4.021647135416666
 10
-2.546915690104167
 20
-4.051527235243055
 10
-2.535997178819444
 20
-4.089463975694445
 10
-2.535319010416667
 20
-4.135091145833333
 10
-2.534125434027778
 20
-4.215833875868055
 10
-2.579691569010417
 20
-4.249348958333333
 10
-2.656650119357639
 20
-4.223388671875
 10
-2.73504638671875
 20
-4.196926540798611
 10
-2.815517849392361
 20
-4.174791124131945
 10
-2.890652126736111
 20
-4.140936957465278
 10
-2.988755967881944
 20
-4.096747504340278
 10
-2.988538953993055
 20
-4.072618272569445
 10
-2.932868109809028
 20
-3.983561197916667
 10
-2.911234537760417
 20
-3.948961046006944
 10
-2.907023111979167
 20
-3.900634765625
 10
-2.903795030381944
 20
-3.857883029513889
 10
-2.893419053819444
 20
-3.720377604166667
 10
-2.890692816840278
 20
-3.713487413194444
 10
-2.760260687934028
 20
-3.6766357421875
 10
-2.721360948350694
 20
-3.6656494140625
 10
-2.686848958333333
 20
-3.651462131076389
 10
-2.691474066840278
 20
-3.605116102430555
 10
-2.694437662760417
 20
-3.575466579861111
 10
-2.709194607204861
 20
-3.5469970703125
 10
-2.718668619791667
 20
-3.517985026041667
 10
-2.742255316840278
 20
-3.533610026041667
 10
-2.770189073350694
 20
-3.5452880859375
 10
-2.788560655381944
 20
-3.565619574652778
 10
-2.831807454427083
 20
-3.613484700520833
 10
-2.869730631510417
 20
-3.611667209201389
 10
-2.900689019097222
 20
-3.554497612847222
 10
-2.910590277777778
 20
-3.536214192708333
 10
-2.920294867621528
 20
-3.517523871527778
 10
-2.927293565538194
 20
-3.498012966579861
 10
-2.9439697265625
 20
-3.451517740885417
 10
-2.969916449652778
 20
-3.432732476128472
 10
-3.022508409288194
 20
-3.447855631510417
 10
-3.076551649305555
 20
-3.463399251302083
 10
-3.153130425347222
 20
-3.412333170572917
 10
-3.154758029513889
 20
-3.358357747395833
 10
-3.155402289496528
 20
-3.337076822916667
 10
-3.129767523871528
 20
-3.306640625
 10
-3.108161078559028
 20
-3.294508192274305
 10
-3.019721137152778
 20
-3.244866265190972
 10
-2.995741102430555
 20
-3.158393012152778
 10
-3.057176378038194
 20
-3.078206380208333
 10
-3.070326063368055
 20
-3.061041937934028
 10
-3.098225911458333
 20
-3.045762803819444
 10
-3.118489583333333
 20
-3.046759711371528
 10
-3.132297092013889
 20
-3.047437879774305
 10
-3.149603949652778
 20
-3.076171875
 10
-3.156514485677083
 20
-3.095513237847222
 10
-3.168063693576389
 20
-3.127848307291667
 10
-3.169630262586805
 20
-3.163682725694444
 10
-3.180609809027778
 20
-3.196295844184028
 10
-3.205973307291667
 20
-3.271633572048611
 10
-3.274678548177083
 20
-3.303114149305555
 10
-3.346137152777778
 20
-3.271206325954861
 10
-3.365403917100694
 20
-3.262600368923611
 10
-3.394999186197917
 20
-3.238206651475694
 10
-3.392666286892361
 20
-3.226460774739583
 10
-3.377387152777778
 20
-3.14947509765625
 10
-3.436143663194444
 20
-3.107916937934028
 10
-3.4686279296875
 20
-3.055087619357639
 10
-3.5299072265625
 20
-2.955417209201389
 10
-3.52130126953125
 20
-2.911872016059028
 10
-3.424953884548611
 20
-2.849772135416667
 10
-3.404737684461805
 20
-2.836737738715278
 10
-3.388712565104167
 20
-2.815151638454861
 10
-3.374823676215278
 20
-2.79473876953125
 10
-3.3349609375
 20
-2.736151801215278
 10
-3.299038357204861
 20
-2.674831814236111
 10
-3.258015950520833
 20
-2.617112901475694
 10
-3.224175347222222
 20
-2.569505479600694
 10
-3.234212239583333
 20
-2.532972547743055
 10
-3.281887478298611
 20
-2.508633083767361
 10
-3.37249755859375
 20
-2.462381998697917
 10
-3.401285807291667
 20
-2.376532660590278
 10
-3.423441569010417
 20
-2.289008246527778
 10
-3.42913818359375
 20
-2.266486273871528
 10
-3.406134711371528
 20
-2.236138237847222
 10
-3.394856770833333
 20
-2.21002197265625
 10
-3.379645453559028
 20
-2.174811469184028
 10
-3.354051378038194
 20
-2.141452365451389
 10
-3.349005805121528
 20
-2.105075412326389
 10
-3.340616861979167
 20
-2.044521755642361
 10
-3.371148003472222
 20
-2.029703776041667
 10
-3.431172688802083
 20
-2.041720920138889
 10
-3.456434461805555
 20
-2.046780056423611
 10
-3.490078396267361
 20
-2.030069986979167
 10
-3.513990614149305
 20
-2.0142822265625
 10
-3.528367784288194
 20
-2.004794650607639
 10
-3.536092122395833
 20
-1.978651258680555
 10
-3.5386962890625
 20
-1.958916558159722
 10
-3.560356987847222
 20
-1.79510498046875
 10
-3.537245008680555
 20
-1.628872341579861
 10
-3.472676595052083
 20
-1.485358344184028
 10
-3.4208984375
 20
-1.370266384548611
 10
-3.284532335069444
 20
-1.325819227430556
 10
-3.150126139322917
 20
-1.321336534288194
 10
-3.109449598524305
 20
-1.319980197482639
 10
-3.069139268663194
 20
-1.309760199652778
 10
-3.028428819444444
 20
-1.306979709201389
 10
-2.999640570746528
 20
-1.305006239149306
 10
-2.969957139756944
 20
-1.305711534288194
 10
-2.941555447048611
 20
-1.310479058159722
 10
-2.860846625434028
 20
-1.324028862847222
 10
-2.780727810329861
 20
-1.341050889756944
 10
-2.700005425347222
 20
-1.354498969184028
 10
-2.689771864149305
 20
-1.356201171875
 10
-2.671535915798611
 20
-1.347757975260417
 10
-2.666917588975694
 20
-1.338873969184028
 10
-2.643866644965278
 20
-1.294474283854167
 10
-2.612019856770833
 20
-1.308336046006944
 10
-2.577928331163194
 20
-1.320319281684028
 10
-2.486660427517361
 20
-1.352383083767361
 10
-2.489834255642361
 20
-1.350043402777778
 10
-2.537380642361111
 20
-1.43560791015625
 10
-2.550930447048611
 20
-1.459994845920139
 10
-2.538899739583333
 20
-1.49859619140625
 10
-2.538601345486111
 20
-1.530680338541667
 10
-2.508253309461805
 20
-1.52459716796875
 10
-2.471238878038194
 20
-1.5274658203125
 10
-2.448784722222222
 20
-1.510762532552083
 10
-2.377970377604167
 20
-1.458095974392361
 10
-2.3607177734375
 20
-1.386725531684028
 10
-2.389329698350694
 20
-1.301201714409722
 10
-2.414876302083333
 20
-1.224853515625
 10
-2.394775390625
 20
-1.19384765625
 10
-2.312269422743055
 20
-1.185743543836806
 10
-2.249077690972222
 20
-1.179538302951389
 10
-2.21044921875
 20
-1.147901746961806
 10
-2.183349609375
 20
-1.094977484809028
 10
-2.174913194444444
 20
-1.078511555989583
 10
-2.162394205729167
 20
-1.063496907552083
 10
-2.157036675347222
 20
-1.046183268229167
 10
-2.116360134548611
 20
-0.914794921875
 10
-2.001993815104167
 20
-0.8588663736979166
 10
-1.897637261284722
 20
-0.7942301432291666
 10
-1.849745008680555
 20
-0.7645738389756944
 10
-1.80419921875
 20
-0.772488064236111
 10
-1.760457356770833
 20
-0.8158908420138888
 10
-1.738321940104167
 20
-0.837856716579861
 10
-1.699476453993055
 20
-0.8470526801215277
 10
-1.666544596354167
 20
-0.8530680338541666
 10
-1.624186197916667
 20
-0.8608194986979166
 10
-1.57763671875
 20
-0.8513251410590277
 10
-1.537339952256944
 20
-0.8637424045138888
 10
-1.408379448784722
 20
-0.9034830729166666
 10
-1.365152994791667
 20
-0.9983113606770833
 10
-1.411485460069444
 20
-1.125020345052083
 10
-1.429375542534722
 20
-1.173936631944444
 10
-1.500393337673611
 20
-1.196879069010417
 10
-1.588053385416667
 20
-1.18206787109375
 10
-1.701958550347222
 20
-1.162821451822917
 10
-1.755669487847222
 20
-1.180921766493056
 10
-1.790378146701389
 20
-1.265719943576389
 10
-1.803005642361111
 20
-1.296576605902778
 10
-1.802734375
 20
-1.353244357638889
 10
-1.783393012152778
 20
-1.37109375
 10
-1.762532552083333
 20
-1.390346950954861
 10
-1.707546657986111
 20
-1.389655219184028
 10
-1.67626953125
 20
-1.376566569010417
 10
-1.630615234375
 20
-1.357462565104167
 10
-1.595553927951389
 20
-1.314168294270833
 10
-1.550740559895833
 20
-1.291537814670139
 10
-1.521701388888889
 20
-1.276875813802083
 10
-1.478773328993056
 20
-1.268398708767361
 10
-1.450208875868056
 20
-1.279032389322917
 10
-1.405598958333333
 20
-1.295640733506944
 10
-1.373725043402778
 20
-1.291497124565972
 10
-1.3453369140625
 20
-1.257480197482639
 10
-1.308186848958333
 20
-1.212992350260417
 10
-1.267876519097222
 20
-1.214667426215278
 10
-1.222520616319444
 20
-1.24261474609375
 10
-1.174370659722222
 20
-1.272291395399306
 10
-1.130276150173611
 20
-1.271538628472222
 10
-1.081570095486111
 20
-1.23583984375
 10
-1.056599934895833
 20
-1.217536078559028
 10
-1.016940646701389
 20
-1.209865993923611
 10
-0.9850938585069444
 20
-1.21234130859375
 10
-0.9210611979166666
 20
-1.217305501302083
 10
-0.9015570746527777
 20
-1.272040473090278
 10
-0.9414198133680555
 20
-1.321390787760417
 10
-1.025349934895833
 20
-1.425279405381944
 10
-1.023790147569444
 20
-1.444613986545139
 10
-0.9085693359375
 20
-1.519822862413194
 10
-0.858547634548611
 20
-1.552469889322917
 10
-0.8016764322916666
 20
-1.574462890625
 10
-0.7487521701388888
 20
-1.60284423828125
 10
-0.6826036241319444
 20
-1.6383056640625
 10
-0.647488064236111
 20
-1.703016493055555
 10
-0.664794921875
 20
-1.75390625
 10
-0.6819390190972222
 20
-1.804341634114583
 10
-0.7698432074652778
 20
-1.845872667100694
 10
-0.8354899088541666
 20
-1.829847547743055
 10
-0.8800998263888888
 20
-1.818956163194444
 10
-0.9301079644097222
 20
-1.803053114149305
 10
-0.9510904947916666
 20
-1.8541259765625
 10
-0.9708794487847222
 20
-1.902330186631944
 10
-0.975246853298611
 20
-1.958855523003472
 10
-0.9752604166666666
 20
-2.011725531684028
 10
-0.9752604166666666
 20
-2.024034288194444
 10
-0.9238145616319444
 20
-2.052395290798611
 10
-0.9068332248263888
 20
-2.045756022135417
 10
-0.8479953342013888
 20
-2.022752549913194
 10
-0.7893608940972222
 20
-1.993564181857639
 10
-0.7391899956597222
 20
-1.955478244357639
 10
-0.680202907986111
 20
-1.910719129774305
 10
-0.6471896701388888
 20
-1.900316026475694
 10
-0.5944959852430555
 20
-1.951673719618055
 10
-0.5202365451388888
 20
-2.024068196614583
 10
-0.4511176215277777
 20
-2.101908365885417
 10
-0.3824462890625
 20
-2.179755316840278
 10
-0.3683403862847222
 20
-2.195746527777778
 10
-0.36376953125
 20
-2.221503363715278
 10
-0.3584255642361111
 20
-2.243631998697917
 10
-0.335693359375
 20
-2.337870279947917
 10
-0.2829318576388889
 20
-2.372205946180555
 10
-0.1908365885416667
 20
-2.342441134982639
 10
-0.1360677083333333
 20
-2.324734157986111
 10
-0.0842420789930556
 20
-2.295620388454861
 10
-0.0508761935763889
 20
-2.370049370659722
 10
-0.0205349392361111
 20
-2.437730577256944
 10
-0.0440945095486111
 20
-2.525675455729167
 10
-0.1008978949652778
 20
-2.563164605034722
 10
-0.1634114583333333
 20
-2.604410807291667
 10
-0.24609375
 20
-2.599521213107639
 10
-0.3085666232638889
 20
-2.556905110677083
 10
-0.3462592230902777
 20
-2.53118896484375
 10
-0.3869900173611111
 20
-2.505669487847222
 10
-0.4301486545138888
 20
-2.493279351128472
 10
-0.4849175347222222
 20
-2.477559407552083
 10
-0.5374077690972222
 20
-2.485093858506944
 10
-0.5795220269097222
 20
-2.537000868055555
 10
-0.6184624565972222
 20
-2.584974500868055
 10
-0.6392415364583333
 20
-2.626369900173611
 10
-0.6025526258680555
 20
-2.686292860243055
 10
-0.5922580295138888
 20
-2.703084309895833
 10
-0.6014539930555555
 20
-2.741556803385417
 10
-0.6147596571180555
 20
-2.76129150390625
 10
-0.6642252604166666
 20
-2.834648980034722
 10
-0.6932373046875
 20
-2.907280815972222
 10
-0.6492241753472222
 20
-2.994520399305555
 10
-0.6395806206597222
 20
-3.013617621527778
 10
-0.6440972222222222
 20
-3.039876302083333
 10
-0.6422119140625
 20
-3.062852647569444
 10
-0.6322835286458333
 20
-3.183729383680555
 10
-0.5584716796875
 20
-3.225497775607639
 10
-0.4500732421875
 20
-3.169487847222222
 10
-0.4132215711805555
 20
-3.15045166015625
 10
-0.3784993489583333
 20
-3.126817491319444
 10
-0.3444417317708333
 20
-3.102945963541667
 10
-0.3006863064236111
 20
-3.072265625
 10
-0.2720947265625
 20
-3.082485622829861
 10
-0.2538791232638889
 20
-3.131056043836805
 10
-0.2110595703125
 20
-3.245279947916667
 10
-0.2508816189236111
 20
-3.369371202256944
 10
-0.3606770833333333
 20
-3.46307373046875
 10
-0.4400770399305555
 20
-3.530843098958333
 10
-0.5567491319444444
 20
-3.537027994791667
 10
-0.6583251953125
 20
-3.478888617621528
 10
-0.7822808159722222
 20
-3.407931857638889
 10
-0.8884955512152777
 20
-3.454861111111111
 10
-0.9183213975694444
 20
-3.593790690104167
 10
-0.9347873263888888
 20
-3.670505099826389
 10
-1.072889539930556
 20
-3.7261962890625
 10
-1.14404296875
 20
-3.692789713541667
 10
-1.182820638020833
 20
-3.674587673611111
 10
-1.234049479166667
 20
-3.662909613715278
 10
-1.274251302083333
 20
-3.672064887152778
 10
-1.350260416666667
 20
-3.689358181423611
 10
-1.422512478298611
 20
-3.723470052083333
 10
-1.495998806423611
 20
-3.75146484375
 10
-1.508721245659722
 20
-3.756306966145833
 10
-1.522962782118056
 20
-3.762912326388889
 10
-1.531073676215278
 20
-3.773030598958333
 10
-1.553168402777778
 20
-3.800672743055555
 10
-1.595526801215278
 20
-3.843180338541667
 10
-1.587972005208333
 20
-3.857123480902778
 10
-1.571194118923611
 20
-3.888102213541667
 10
-1.531806098090278
 20
-3.914767795138889
 10
-1.496242947048611
 20
-3.925767686631944
 10
-1.442857530381944
 20
-3.942287868923611
 10
-1.396280924479167
 20
-3.959920247395833
 10
-1.371405707465278
 20
-4.013983832465278
 10
-1.342841254340278
 20
-4.0760498046875
 10
-1.368082682291667
 20
-4.125583224826388
 10
-1.436143663194444
 20
-4.131157769097222
 10
-1.467461480034722
 20
-4.133734809027778
 10
-1.499796549479167
 20
-4.126220703125
 10
-1.531453450520833
 20
-4.121731228298611
 10
-1.581678602430555
 20
-4.114610460069445
 10
-1.631578233506944
 20
-4.100857204861111
 10
-1.681844075520833
 20
-4.099677191840278
 10
-1.743259006076389
 20
-4.098253038194445
 10
-1.795600043402778
 20
-4.087917751736111
 10
-1.850789388020833
 20
-4.053317599826388
 10
-1.896077473958333
 20
-4.024915907118055
 10
-1.960788302951389
 20
-4.027506510416666
 10
-2.016886393229167
 20
-4.016357421875
 97
        0
 92
        1
 93
        1
 72
     4
 94
        3
 73
     0
 74
     1
 95
       23
 96
       19
 40
0.0
 40
0.0
 40
0.0
 40
0.0
 40
1.0
 40
1.0
 40
1.0
 40
2.0
 40
2.0
 40
2.0
 40
3.0
 40
3.0
 40
3.0
 40
4.0
 40
4.0
 40
4.0
 40
5.0
 40
5.0
 40
5.0
 40
6.0
 40
6.0
 40
6.0
 40
6.0
 10
-1.308132595486111
 20
-1.896443684895833
 10
-1.353366427951389
 20
-1.936455620659722
 10
-1.391737196180556
 20
-1.969448513454861
 10
-1.4290771484375
 20
-2.003580729166667
 10
-1.655965169270833
 20
-2.210971408420139
 10
-1.882025824652778
 20
-2.419264051649305
 10
-2.10986328125
 20
-2.625590006510417
 10
-2.150580512152778
 20
-2.662455240885417
 10
-2.156141493055555
 20
-2.698750813802083
 10
-2.137261284722222
 20
-2.74822998046875
 10
-2.102511935763889
 20
-2.839328342013889
 10
-2.038465711805555
 20
-2.896464029947917
 10
-1.948147243923611
 20
-2.927558051215278
 10
-1.609361436631944
 20
-3.044175889756944
 10
-1.237765842013889
 20
-2.813090006510417
 10
-1.169474283854167
 20
-2.444831000434028
 10
-1.132256401909722
 20
-2.244127061631944
 10
-1.1796875
 20
-2.066304524739583
 10
-1.308132595486111
 20
-1.896443684895833
 97
        0
 92
        1
 93
        1
 72
     4
 94
        3
 73
     0
 74
     1
 95
       26
 96
       22
 40
0.0
 40
0.0
 40
0.0
 40
0.0
 40
1.0
 40
1.0
 40
1.0
 40
2.0
 40
2.0
 40
2.0
 40
3.0
 40
3.0
 40
3.0
 40
4.0
 40
4.0
 40
4.0
 40
5.0
 40
5.0
 40
5.0
 40
6.0
 40
6.0
 40
6.0
 40
7.0
 40
7.0
 40
7.0
 40
7.0
 10
-2.976209852430555
 20
-1.965121799045139
 10
-3.041347927517361
 20
-2.192837185329861
 10
-3.072550455729167
 20
-2.404920789930555
 10
-3.0438232421875
 20
-2.624125162760417
 10
-3.026089138454861
 20
-2.759487575954861
 10
-2.956224229600694
 20
-2.860059950086805
 10
-2.848700629340278
 20
-2.938517252604167
 10
-2.721381293402778
 20
-3.031412760416667
 10
-2.574924045138889
 20
-2.991434733072917
 10
-2.516106499565972
 20
-2.846761067708333
 10
-2.503987630208333
 20
-2.816948784722222
 10
-2.490634494357639
 20
-2.785841200086805
 10
-2.488077799479167
 20
-2.754489474826389
 10
-2.485941569010417
 20
-2.728278266059028
 10
-2.491651746961805
 20
-2.696024576822917
 10
-2.506117078993055
 20
-2.674763997395833
 10
-2.585428873697917
 20
-2.558213975694444
 10
-2.671312120225694
 20
-2.44610595703125
 10
-2.749477810329861
 20
-2.328837076822917
 10
-2.825005425347222
 20
-2.215521918402778
 10
-2.8939208984375
 20
-2.097798665364583
 10
-2.976209852430555
 20
-1.965121799045139
 97
        0
 92
        1
 93
        1
 72
     4
 94
        3
 73
     0
 74
     1
 95
       17
 96
       13
 40
0.0
 40
0.0
 40
0.0
 40
0.0
 40
1.0
 40
1.0
 40
1.0
 40
2.0
 40
2.0
 40
2.0
 40
3.0
 40
3.0
 40
3.0
 40
4.0
 40
4.0
 40
4.0
 40
4.0
 10
-1.705403645833333
 20
-3.185397677951389
 10
-1.678141276041667
 20
-3.242038302951389
 10
-1.654188368055555
 20
-3.291768391927083
 10
-1.6302490234375
 20
-3.341505262586805
 10
-1.624579535590278
 20
-3.340806749131944
 10
-1.618923611111111
 20
-3.340115017361111
 10
-1.613254123263889
 20
-3.33941650390625
 10
-1.602688259548611
 20
-3.281405978732639
 10
-1.592122395833333
 20
-3.223395453559028
 10
-1.579535590277778
 20
-3.154310438368055
 10
-1.627699110243055
 20
-3.166205512152778
 10
-1.662000868055555
 20
-3.174675835503472
 10
-1.705403645833333
 20
-3.185397677951389
 97
        0
 92
        1
 93
        1
 72
     4
 94
        3
 73
     0
 74
     1
 95
       17
 96
       13
 40
0.0
 40
0.0
 40
0.0
 40
0.0
 40
1.0
 40
1.0
 40
1.0
 40
2.0
 40
2.0
 40
2.0
 40
3.0
 40
3.0
 40
3.0
 40
4.0
 40
4.0
 40
4.0
 40
4.0
 10
-2.754123263888889
 20
-3.096883138020833
 10
-2.742289225260417
 20
-3.148179796006944
 10
-2.733784993489583
 20
-3.185045030381944
 10
-2.72528076171875
 20
-3.221903483072917
 10
-2.719760470920139
 20
-3.221605088975694
 10
-2.714240180121528
 20
-3.221306694878472
 10
-2.708713107638889
 20
-3.221001519097222
 10
-2.69317626953125
 20
-3.18890380859375
 10
-2.677632649739583
 20
-3.156806098090278
 10
-2.660081651475694
 20
-3.120551215277778
 10
-2.691609700520833
 20
-3.112616644965278
 10
-2.715582953559028
 20
-3.106587727864583
 10
-2.754123263888889
 20
-3.096883138020833
 97
        0
 75
     0
 76
     1
 98
        0
  0
SPLINE
  5
62
330
51
100
AcDbEntity
  8
Layer 1
370
     0
100
AcDbSpline
210
0.0
220
0.0
230
1.0
 70
    11
 71
     3
 72
    32
 73
    28
 74
     0
 42
0.0000000001
 43
0.0000000001
 40
0.0
 40
0.0
 40
0.0
 40
0.0
 40
1.0
 40
1.0
 40
1.0
 40
2.0
 40
2.0
 40
2.0
 40
3.0
 40
3.0
 40
3.0
 40
4.0
 40
4.0
 40
4.0
 40
5.0
 40
5.0
 40
5.0
 40
6.0
 40
6.0
 40
6.0
 40
7.0
 40
7.0
 40
7.0
 40
8.0
 40
8.0
 40
8.0
 40
9.0
 40
9.0
 40
9.0
 40
9.0
 10
-0.6829969618055555
 20
-1.197597927517361
 30
0.0
 10
-0.6766221788194444
 20
-1.198079427083333
 30
0.0
 10
-0.6558702256944444
 20
-1.199503580729167
 30
0.0
 10
-0.6351453993055555
 20
-1.201226128472222
 30
0.0
 10
-0.4027913411458333
 20
-1.220567491319444
 30
0.0
 10
-0.3855387369791666
 20
-1.386508517795139
 30
0.0
 10
-0.4295247395833333
 20
-1.54388427734375
 30
0.0
 10
-0.4378255208333333
 20
-1.573567708333333
 30
0.0
 10
-0.4751383463541666
 20
-1.595140245225694
 30
0.0
 10
-0.4990641276041666
 20
-1.620449490017361
 30
0.0
 10
-0.519680447048611
 20
-1.599602593315972
 30
0.0
 10
-0.537990993923611
 20
-1.575568305121528
 30
0.0
 10
-0.5614691840277778
 20
-1.558688693576389
 30
0.0
 10
-0.5932074652777778
 20
-1.535868326822917
 30
0.0
 10
-0.6270751953125
 20
-1.513427734375
 30
0.0
 10
-0.6634521484375
 20
-1.500352647569444
 30
0.0
 10
-0.6973876953125
 20
-1.4881591796875
 30
0.0
 10
-0.737087673611111
 20
-1.49273681640625
 30
0.0
 10
-0.77197265625
 20
-1.482340494791667
 30
0.0
 10
-0.8554009331597222
 20
-1.457472059461806
 30
0.0
 10
-0.8800726996527777
 20
-1.418097601996528
 30
0.0
 10
-0.8681233723958333
 20
-1.340291341145833
 30
0.0
 10
-0.8518880208333333
 20
-1.234517415364583
 30
0.0
 10
-0.820461697048611
 20
-1.20147705078125
 30
0.0
 10
-0.7321234809027778
 20
-1.197665744357639
 30
0.0
 10
-0.7205810546875
 20
-1.197170681423611
 30
0.0
 10
-0.7089979383680555
 20
-1.197597927517361
 30
0.0
 10
-0.6829969618055555
 20
-1.197597927517361
 30
0.0
  0
HATCH
  5
63
330
51
100
AcDbEntity
  8
Layer 1
 62
     7
420
 16777215
100
AcDbHatch
 10
0.0
 20
0.0
 30
0.0
210
0.0
220
0.0
230
1.0
  2
SOLID
 70
     1
 71
     0
 91
        1
 92
        1
 93
        1
 72
     4
 94
        3
 73
     0
 74
     1
 95
       32
 96
       28
 40
0.0
 40
0.0
 40
0.0
 40
0.0
 40
1.0
 40
1.0
 40
1.0
 40
2.0
 40
2.0
 40
2.0
 40
3.0
 40
3.0
 40
3.0
 40
4.0
 40
4.0
 40
4.0
 40
5.0
 40
5.0
 40
5.0
 40
6.0
 40
6.0
 40
6.0
 40
7.0
 40
7.0
 40
7.0
 40
8.0
 40
8.0
 40
8.0
 40
9.0
 40
9.0
 40
9.0
 40
9.0
 10
-0.6829969618055555
 20
-1.197597927517361
 10
-0.6766221788194444
 20
-1.198079427083333
 10
-0.6558702256944444
 20
-1.199503580729167
 10
-0.6351453993055555
 20
-1.201226128472222
 10
-0.4027913411458333
 20
-1.220567491319444
 10
-0.3855387369791666
 20
-1.386508517795139
 10
-0.4295247395833333
 20
-1.54388427734375
 10
-0.4378255208333333
 20
-1.573567708333333
 10
-0.4751383463541666
 20
-1.595140245225694
 10
-0.4990641276041666
 20
-1.620449490017361
 10
-0.519680447048611
 20
-1.599602593315972
 10
-0.537990993923611
 20
-1.575568305121528
 10
-0.5614691840277778
 20
-1.558688693576389
 10
-0.5932074652777778
 20
-1.535868326822917
 10
-0.6270751953125
 20
-1.513427734375
 10
-0.6634521484375
 20
-1.500352647569444
 10
-0.6973876953125
 20
-1.4881591796875
 10
-0.737087673611111
 20
-1.49273681640625
 10
-0.77197265625
 20
-1.482340494791667
 10
-0.8554009331597222
 20
-1.457472059461806
 10
-0.8800726996527777
 20
-1.418097601996528
 10
-0.8681233723958333
 20
-1.340291341145833
 10
-0.8518880208333333
 20
-1.234517415364583
 10
-0.820461697048611
 20
-1.20147705078125
 10
-0.7321234809027778
 20
-1.197665744357639
 10
-0.7205810546875
 20
-1.197170681423611
 10
-0.7089979383680555
 20
-1.197597927517361
 10
-0.6829969618055555
 20
-1.197597927517361
 97
        0
 75
     0
 76
     1
 98
        0
  0
SPLINE
  5
64
330
51
100
AcDbEntity
  8
Layer 1
370
     0
100
AcDbSpline
210
0.0
220
0.0
230
1.0
 70
    11
 71
     3
 72
    17
 73
    13
 74
     0
 42
0.0000000001
 43
0.0000000001
 40
0.0
 40
0.0
 40
0.0
 40
0.0
 40
1.0
 40
1.0
 40
1.0
 40
2.0
 40
2.0
 40
2.0
 40
3.0
 40
3.0
 40
3.0
 40
4.0
 40
4.0
 40
4.0
 40
4.0
 10
-1.142293294270833
 20
-4.110120985243055
 30
0.0
 10
-1.266276041666667
 20
-4.117770724826388
 30
0.0
 10
-1.308878580729167
 20
-4.010999891493055
 30
0.0
 10
-1.319783528645833
 20
-3.9052734375
 30
0.0
 10
-1.326388888888889
 20
-3.841227213541667
 30
0.0
 10
-1.240302191840278
 20
-3.782769097222222
 30
0.0
 10
-1.153049045138889
 20
-3.784125434027778
 30
0.0
 10
-1.036417643229167
 20
-3.785970052083333
 30
0.0
 10
-0.9909532335069444
 20
-3.837375217013889
 30
0.0
 10
-0.9914143880208333
 20
-3.966891818576389
 30
0.0
 10
-0.991726345486111
 20
-4.05419921875
 30
0.0
 10
-1.050876193576389
 20
-4.1103515625
 30
0.0
 10
-1.142293294270833
 20
-4.110120985243055
 30
0.0
  0
HATCH
  5
65
330
51
100
AcDbEntity
  8
Layer 1
 62
     7
420
 16777215
100
AcDbHatch
 10
0.0
 20
0.0
 30
0.0
210
0.0
220
0.0
230
1.0
  2
SOLID
 70
     1
 71
     0
 91
        1
 92
        1
 93
        1
 72
     4
 94
        3
 73
     0
 74
     1
 95
       17
 96
       13
 40
0.0
 40
0.0
 40
0.0
 40
0.0
 40
1.0
 40
1.0
 40
1.0
 40
2.0
 40
2.0
 40
2.0
 40
3.0
 40
3.0
 40
3.0
 40
4.0
 40
4.0
 40
4.0
 40
4.0
 10
-1.142293294270833
 20
-4.110120985243055
 10
-1.266276041666667
 20
-4.117770724826388
 10
-1.308878580729167
 20
-4.010999891493055
 10
-1.319783528645833
 20
-3.9052734375
 10
-1.326388888888889
 20
-3.841227213541667
 10
-1.240302191840278
 20
-3.782769097222222
 10
-1.153049045138889
 20
-3.784125434027778
 10
-1.036417643229167
 20
-3.785970052083333
 10
-0.9909532335069444
 20
-3.837375217013889
 10
-0.9914143880208333
 20
-3.966891818576389
 10
-0.991726345486111
 20
-4.05419921875
 10
-1.050876193576389
 20
-4.1103515625
 10
-1.142293294270833
 20
-4.110120985243055
 97
        0
 75
     0
 76
     1
 98
        0
  0
SPLINE
  5
66
330
51
100
AcDbEntity
  8
Layer 1
370
     0
100
AcDbSpline
210
0.0
220
0.0
230
1.0
 70
    11
 71
     3
 72
    20
 73
    16
 74
     0
 42
0.0000000001
 43
0.0000000001
 40
0.0
 40
0.0
 40
0.0
 40
0.0
 40
1.0
 40
1.0
 40
1.0
 40
2.0
 40
2.0
 40
2.0
 40
3.0
 40
3.0
 40
3.0
 40
4.0
 40
4.0
 40
4.0
 40
5.0
 40
5.0
 40
5.0
 40
5.0
 10
-0.2983127170138889
 20
-2.969095865885417
 30
0.0
 10
-0.4459906684027777
 20
-2.96978759765625
 30
0.0
 10
-0.5268147786458333
 20
-2.868977864583333
 30
0.0
 10
-0.4847547743055555
 20
-2.741597493489583
 30
0.0
 10
-0.4682888454861111
 20
-2.691718207465278
 30
0.0
 10
-0.437255859375
 20
-2.675672743055555
 30
0.0
 10
-0.3908013237847222
 20
-2.681532118055555
 30
0.0
 10
-0.3335503472222222
 20
-2.688747829861111
 30
0.0
 10
-0.2737630208333333
 20
-2.691338433159722
 30
0.0
 10
-0.2209065755208333
 20
-2.711351182725694
 30
0.0
 10
-0.1944037543402778
 20
-2.721388075086805
 30
0.0
 10
-0.1713595920138889
 20
-2.763176812065972
 30
0.0
 10
-0.1632351345486111
 20
-2.794833713107639
 30
0.0
 10
-0.1397840711805556
 20
-2.886155870225694
 30
0.0
 10
-0.2070583767361111
 20
-2.968668619791667
 30
0.0
 10
-0.2983127170138889
 20
-2.969095865885417
 30
0.0
  0
HATCH
  5
67
330
51
100
AcDbEntity
  8
Layer 1
 62
     7
420
 16777215
100
AcDbHatch
 10
0.0
 20
0.0
 30
0.0
210
0.0
220
0.0
230
1.0
  2
SOLID
 70
     1
 71
     0
 91
        1
 92
        1
 93
        1
 72
     4
 94
        3
 73
     0
 74
     1
 95
       20
 96
       16
 40
0.0
 40
0.0
 40
0.0
 40
0.0
 40
1.0
 40
1.0
 40
1.0
 40
2.0
 40
2.0
 40
2.0
 40
3.0
 40
3.0
 40
3.0
 40
4.0
 40
4.0
 40
4.0
 40
5.0
 40
5.0
 40
5.0
 40
5.0
 10
-0.2983127170138889
 20
-2.969095865885417
 10
-0.4459906684027777
 20
-2.96978759765625
 10
-0.5268147786458333
 20
-2.868977864583333
 10
-0.4847547743055555
 20
-2.741597493489583
 10
-0.4682888454861111
 20
-2.691718207465278
 10
-0.437255859375
 20
-2.675672743055555
 10
-0.3908013237847222
 20
-2.681532118055555
 10
-0.3335503472222222
 20
-2.688747829861111
 10
-0.2737630208333333
 20
-2.691338433159722
 10
-0.2209065755208333
 20
-2.711351182725694
 10
-0.1944037543402778
 20
-2.721388075086805
 10
-0.1713595920138889
 20
-2.763176812065972
 10
-0.1632351345486111
 20
-2.794833713107639
 10
-0.1397840711805556
 20
-2.886155870225694
 10
-0.2070583767361111
 20
-2.968668619791667
 10
-0.2983127170138889
 20
-2.969095865885417
 97
        0
 75
     0
 76
     1
 98
        0
  0
SPLINE
  5
68
330
51
100
AcDbEntity
  8
Layer 1
370
     0
100
AcDbSpline
210
0.0
220
0.0
230
1.0
 70
    11
 71
     3
 72
    23
 73
    19
 74
     0
 42
0.0000000001
 43
0.0000000001
 40
0.0
 40
0.0
 40
0.0
 40
0.0
 40
1.0
 40
1.0
 40
1.0
 40
2.0
 40
2.0
 40
2.0
 40
3.0
 40
3.0
 40
3.0
 40
4.0
 40
4.0
 40
4.0
 40
5.0
 40
5.0
 40
5.0
 40
6.0
 40
6.0
 40
6.0
 40
6.0
 10
-0.2385932074652778
 20
-1.842508951822917
 30
0.0
 10
-0.2414957682291667
 20
-1.858357747395833
 30
0.0
 10
-0.2437879774305556
 20
-1.888705783420139
 30
0.0
 10
-0.2529703776041666
 20
-1.916795518663194
 30
0.0
 10
-0.2669542100694444
 20
-1.959581163194444
 30
0.0
 10
-0.2950575086805555
 20
-1.986321343315972
 30
0.0
 10
-0.3449164496527777
 20
-1.98382568359375
 30
0.0
 10
-0.3929443359375
 20
-1.981424967447917
 30
0.0
 10
-0.4214952256944444
 20
-1.959832085503472
 30
0.0
 10
-0.4315728081597222
 20
-1.911810980902778
 30
0.0
 10
-0.4400363498263888
 20
-1.871446397569444
 30
0.0
 10
-0.4631076388888888
 20
-1.830532497829861
 30
0.0
 10
-0.4588216145833333
 20
-1.792202419704861
 30
0.0
 10
-0.4550645616319444
 20
-1.75872802734375
 30
0.0
 10
-0.4290771484375
 20
-1.711663140190972
 30
0.0
 10
-0.4008382161458333
 20
-1.70013427734375
 30
0.0
 10
-0.3264295789930555
 20
-1.669725206163194
 30
0.0
 10
-0.2359619140625
 20
-1.746724446614583
 30
0.0
 10
-0.2385932074652778
 20
-1.842508951822917
 30
0.0
  0
HATCH
  5
69
330
51
100
AcDbEntity
  8
Layer 1
 62
     7
420
 16777215
100
AcDbHatch
 10
0.0
 20
0.0
 30
0.0
210
0.0
220
0.0
230
1.0
  2
SOLID
 70
     1
 71
     0
 91
        1
 92
        1
 93
        1
 72
     4
 94
        3
 73
     0
 74
     1
 95
       23
 96
       19
 40
0.0
 40
0.0
 40
0.0
 40
0.0
 40
1.0
 40
1.0
 40
1.0
 40
2.0
 40
2.0
 40
2.0
 40
3.0
 40
3.0
 40
3.0
 40
4.0
 40
4.0
 40
4.0
 40
5.0
 40
5.0
 40
5.0
 40
6.0
 40
6.0
 40
6.0
 40
6.0
 10
-0.2385932074652778
 20
-1.842508951822917
 10
-0.2414957682291667
 20
-1.858357747395833
 10
-0.2437879774305556
 20
-1.888705783420139
 10
-0.2529703776041666
 20
-1.916795518663194
 10
-0.2669542100694444
 20
-1.959581163194444
 10
-0.2950575086805555
 20
-1.986321343315972
 10
-0.3449164496527777
 20
-1.98382568359375
 10
-0.3929443359375
 20
-1.981424967447917
 10
-0.4214952256944444
 20
-1.959832085503472
 10
-0.4315728081597222
 20
-1.911810980902778
 10
-0.4400363498263888
 20
-1.871446397569444
 10
-0.4631076388888888
 20
-1.830532497829861
 10
-0.4588216145833333
 20
-1.792202419704861
 10
-0.4550645616319444
 20
-1.75872802734375
 10
-0.4290771484375
 20
-1.711663140190972
 10
-0.4008382161458333
 20
-1.70013427734375
 10
-0.3264295789930555
 20
-1.669725206163194
 10
-0.2359619140625
 20
-1.746724446614583
 10
-0.2385932074652778
 20
-1.842508951822917
 97
        0
 75
     0
 76
     1
 98
        0
  0
SPLINE
  5
6A
330
51
100
AcDbEntity
  8
Layer 1
370
     0
100
AcDbSpline
210
0.0
220
0.0
230
1.0
 70
    11
 71
     3
 72
    23
 73
    19
 74
     0
 42
0.0000000001
 43
0.0000000001
 40
0.0
 40
0.0
 40
0.0
 40
0.0
 40
1.0
 40
1.0
 40
1.0
 40
2.0
 40
2.0
 40
2.0
 40
3.0
 40
3.0
 40
3.0
 40
4.0
 40
4.0
 40
4.0
 40
5.0
 40
5.0
 40
5.0
 40
6.0
 40
6.0
 40
6.0
 40
6.0
 10
-3.643378363715278
 20
-2.144741482204861
 30
0.0
 10
-3.633924696180555
 20
-2.151021321614583
 30
0.0
 10
-3.608391655815972
 20
-2.160610622829861
 30
0.0
 10
-3.595872667100694
 20
-2.179043240017361
 30
0.0
 10
-3.588290744357639
 20
-2.190205891927083
 30
0.0
 10
-3.601542154947917
 20
-2.214959038628472
 30
0.0
 10
-3.604234483506944
 20
-2.233778211805555
 30
0.0
 10
-3.608839246961805
 20
-2.26605224609375
 30
0.0
 10
-3.608154296875
 20
-2.299858940972222
 30
0.0
 10
-3.617974175347222
 20
-2.330349392361111
 30
0.0
 10
-3.625434027777778
 20
-2.353515625
 30
0.0
 10
-3.643276638454861
 20
-2.387532552083333
 30
0.0
 10
-3.660834418402778
 20
-2.390428331163194
 30
0.0
 10
-3.703728569878472
 20
-2.397508409288194
 30
0.0
 10
-3.758416069878472
 20
-2.312208387586805
 30
0.0
 10
-3.758409288194444
 20
-2.248758951822917
 30
0.0
 10
-3.758402506510417
 20
-2.192803276909722
 30
0.0
 10
-3.712870279947917
 20
-2.145345052083333
 30
0.0
 10
-3.643378363715278
 20
-2.144741482204861
 30
0.0
  0
HATCH
  5
6B
330
51
100
AcDbEntity
  8
Layer 1
 62
     7
420
 16777215
100
AcDbHatch
 10
0.0
 20
0.0
 30
0.0
210
0.0
220
0.0
230
1.0
  2
SOLID
 70
     1
 71
     0
 91
        1
 92
        1
 93
        1
 72
     4
 94
        3
 73
     0
 74
     1
 95
       23
 96
       19
 40
0.0
 40
0.0
 40
0.0
 40
0.0
 40
1.0
 40
1.0
 40
1.0
 40
2.0
 40
2.0
 40
2.0
 40
3.0
 40
3.0
 40
3.0
 40
4.0
 40
4.0
 40
4.0
 40
5.0
 40
5.0
 40
5.0
 40
6.0
 40
6.0
 40
6.0
 40
6.0
 10
-3.643378363715278
 20
-2.144741482204861
 10
-3.633924696180555
 20
-2.151021321614583
 10
-3.608391655815972
 20
-2.160610622829861
 10
-3.595872667100694
 20
-2.179043240017361
 10
-3.588290744357639
 20
-2.190205891927083
 10
-3.601542154947917
 20
-2.214959038628472
 10
-3.604234483506944
 20
-2.233778211805555
 10
-3.608839246961805
 20
-2.26605224609375
 10
-3.608154296875
 20
-2.299858940972222
 10
-3.617974175347222
 20
-2.330349392361111
 10
-3.625434027777778
 20
-2.353515625
 10
-3.643276638454861
 20
-2.387532552083333
 10
-3.660834418402778
 20
-2.390428331163194
 10
-3.703728569878472
 20
-2.397508409288194
 10
-3.758416069878472
 20
-2.312208387586805
 10
-3.758409288194444
 20
-2.248758951822917
 10
-3.758402506510417
 20
-2.192803276909722
 10
-3.712870279947917
 20
-2.145345052083333
 10
-3.643378363715278
 20
-2.144741482204861
 97
        0
 75
     0
 76
     1
 98
        0
  0
SPLINE
  5
6C
330
51
100
AcDbEntity
  8
Layer 1
370
     0
100
AcDbSpline
210
0.0
220
0.0
230
1.0
 70
    11
 71
     3
 72
    23
 73
    19
 74
     0
 42
0.0000000001
 43
0.0000000001
 40
0.0
 40
0.0
 40
0.0
 40
0.0
 40
1.0
 40
1.0
 40
1.0
 40
2.0
 40
2.0
 40
2.0
 40
3.0
 40
3.0
 40
3.0
 40
4.0
 40
4.0
 40
4.0
 40
5.0
 40
5.0
 40
5.0
 40
6.0
 40
6.0
 40
6.0
 40
6.0
 10
-1.308132595486111
 20
-1.896443684895833
 30
0.0
 10
-1.1796875
 20
-2.066304524739583
 30
0.0
 10
-1.132256401909722
 20
-2.244127061631944
 30
0.0
 10
-1.169474283854167
 20
-2.444831000434028
 30
0.0
 10
-1.237765842013889
 20
-2.813090006510417
 30
0.0
 10
-1.609361436631944
 20
-3.044175889756944
 30
0.0
 10
-1.948147243923611
 20
-2.927558051215278
 30
0.0
 10
-2.038465711805555
 20
-2.896464029947917
 30
0.0
 10
-2.102511935763889
 20
-2.839328342013889
 30
0.0
 10
-2.137261284722222
 20
-2.74822998046875
 30
0.0
 10
-2.156141493055555
 20
-2.698750813802083
 30
0.0
 10
-2.150580512152778
 20
-2.662455240885417
 30
0.0
 10
-2.10986328125
 20
-2.625590006510417
 30
0.0
 10
-1.882025824652778
 20
-2.419264051649305
 30
0.0
 10
-1.655965169270833
 20
-2.210971408420139
 30
0.0
 10
-1.4290771484375
 20
-2.003580729166667
 30
0.0
 10
-1.391737196180556
 20
-1.969448513454861
 30
0.0
 10
-1.353366427951389
 20
-1.936455620659722
 30
0.0
 10
-1.308132595486111
 20
-1.896443684895833
 30
0.0
  0
SPLINE
  5
6D
330
51
100
AcDbEntity
  8
Layer 1
370
     0
100
AcDbSpline
210
0.0
220
0.0
230
1.0
 70
    11
 71
     3
 72
    26
 73
    22
 74
     0
 42
0.0000000001
 43
0.0000000001
 40
0.0
 40
0.0
 40
0.0
 40
0.0
 40
1.0
 40
1.0
 40
1.0
 40
2.0
 40
2.0
 40
2.0
 40
3.0
 40
3.0
 40
3.0
 40
4.0
 40
4.0
 40
4.0
 40
5.0
 40
5.0
 40
5.0
 40
6.0
 40
6.0
 40
6.0
 40
7.0
 40
7.0
 40
7.0
 40
7.0
 10
-2.976209852430555
 20
-1.965121799045139
 30
0.0
 10
-2.8939208984375
 20
-2.097798665364583
 30
0.0
 10
-2.825005425347222
 20
-2.215521918402778
 30
0.0
 10
-2.749477810329861
 20
-2.328837076822917
 30
0.0
 10
-2.671312120225694
 20
-2.44610595703125
 30
0.0
 10
-2.585428873697917
 20
-2.558213975694444
 30
0.0
 10
-2.506117078993055
 20
-2.674763997395833
 30
0.0
 10
-2.491651746961805
 20
-2.696024576822917
 30
0.0
 10
-2.485941569010417
 20
-2.728278266059028
 30
0.0
 10
-2.488077799479167
 20
-2.754489474826389
 30
0.0
 10
-2.490634494357639
 20
-2.785841200086805
 30
0.0
 10
-2.503987630208333
 20
-2.816948784722222
 30
0.0
 10
-2.516106499565972
 20
-2.846761067708333
 30
0.0
 10
-2.574924045138889
 20
-2.991434733072917
 30
0.0
 10
-2.721381293402778
 20
-3.031412760416667
 30
0.0
 10
-2.848700629340278
 20
-2.938517252604167
 30
0.0
 10
-2.956224229600694
 20
-2.860059950086805
 30
0.0
 10
-3.026089138454861
 20
-2.759487575954861
 30
0.0
 10
-3.0438232421875
 20
-2.624125162760417
 30
0.0
 10
-3.072550455729167
 20
-2.404920789930555
 30
0.0
 10
-3.041347927517361
 20
-2.192837185329861
 30
0.0
 10
-2.976209852430555
 20
-1.965121799045139
 30
0.0
  0
SPLINE
  5
6E
330
51
100
AcDbEntity
  8
Layer 1
370
     0
100
AcDbSpline
210
0.0
220
0.0
230
1.0
 70
    11
 71
     3
 72
    17
 73
    13
 74
     0
 42
0.0000000001
 43
0.0000000001
 40
0.0
 40
0.0
 40
0.0
 40
0.0
 40
1.0
 40
1.0
 40
1.0
 40
2.0
 40
2.0
 40
2.0
 40
3.0
 40
3.0
 40
3.0
 40
4.0
 40
4.0
 40
4.0
 40
4.0
 10
-1.705403645833333
 20
-3.185397677951389
 30
0.0
 10
-1.662000868055555
 20
-3.174675835503472
 30
0.0
 10
-1.627699110243055
 20
-3.166205512152778
 30
0.0
 10
-1.579535590277778
 20
-3.154310438368055
 30
0.0
 10
-1.592122395833333
 20
-3.223395453559028
 30
0.0
 10
-1.602688259548611
 20
-3.281405978732639
 30
0.0
 10
-1.613254123263889
 20
-3.33941650390625
 30
0.0
 10
-1.618923611111111
 20
-3.340115017361111
 30
0.0
 10
-1.624579535590278
 20
-3.340806749131944
 30
0.0
 10
-1.6302490234375
 20
-3.341505262586805
 30
0.0
 10
-1.654188368055555
 20
-3.291768391927083
 30
0.0
 10
-1.678141276041667
 20
-3.242038302951389
 30
0.0
 10
-1.705403645833333
 20
-3.185397677951389
 30
0.0
  0
SPLINE
  5
6F
330
51
100
AcDbEntity
  8
Layer 1
370
     0
100
AcDbSpline
210
0.0
220
0.0
230
1.0
 70
    11
 71
     3
 72
    17
 73
    13
 74
     0
 42
0.0000000001
 43
0.0000000001
 40
0.0
 40
0.0
 40
0.0
 40
0.0
 40
1.0
 40
1.0
 40
1.0
 40
2.0
 40
2.0
 40
2.0
 40
3.0
 40
3.0
 40
3.0
 40
4.0
 40
4.0
 40
4.0
 40
4.0
 10
-2.754123263888889
 20
-3.096883138020833
 30
0.0
 10
-2.715582953559028
 20
-3.106587727864583
 30
0.0
 10
-2.691609700520833
 20
-3.112616644965278
 30
0.0
 10
-2.660081651475694
 20
-3.120551215277778
 30
0.0
 10
-2.677632649739583
 20
-3.156806098090278
 30
0.0
 10
-2.69317626953125
 20
-3.18890380859375
 30
0.0
 10
-2.708713107638889
 20
-3.221001519097222
 30
0.0
 10
-2.714240180121528
 20
-3.221306694878472
 30
0.0
 10
-2.719760470920139
 20
-3.221605088975694
 30
0.0
 10
-2.72528076171875
 20
-3.221903483072917
 30
0.0
 10
-2.733784993489583
 20
-3.185045030381944
 30
0.0
 10
-2.742289225260417
 20
-3.148179796006944
 30
0.0
 10
-2.754123263888889
 20
-3.096883138020833
 30
0.0
  0
ENDBLK
  5
54
330
51
100
AcDbEntity
  8
0
100
AcDbBlockEnd
  0
ENDSEC
  0
SECTION
  2
ENTITIES
  0
SPLINE
  5
3C
330
1F
100
AcDbEntity
  8
Layer 1
 62
   250
420
  2301728
370
    35
100
AcDbSpline
210
0.0
220
0.0
230
1.0
 70
    11
 71
     3
 72
    20
 73
    16
 74
     0
 42
0.0000000001
 43
0.0000000001
 40
0.0
 40
0.0
 40
0.0
 40
0.0
 40
1.0
 40
1.0
 40
1.0
 40
2.0
 40
2.0
 40
2.0
 40
3.0
 40
3.0
 40
3.0
 40
4.0
 40
4.0
 40
4.0
 40
5.0
 40
5.0
 40
5.0
 40
5.0
 10
1.5
 20
-0.25
 30
0.0
 10
0.9477132161458333
 20
-0.25
 30
0.0
 10
0.5
 20
-0.6977132161458333
 30
0.0
 10
0.5
 20
-1.25
 30
0.0
 10
0.5
 20
-1.25
 30
0.0
 10
0.5
 20
-6.25
 30
0.0
 10
0.5
 20
-6.25
 30
0.0
 10
0.5
 20
-6.25
 30
0.0
 10
2.5
 20
-6.25
 30
0.0
 10
2.5
 20
-6.25
 30
0.0
 10
2.5
 20
-6.25
 30
0.0
 10
2.5
 20
-1.25
 30
0.0
 10
2.5
 20
-1.25
 30
0.0
 10
2.5
 20
-0.6977132161458333
 30
0.0
 10
2.052286783854167
 20
-0.25
 30
0.0
 10
1.5
 20
-0.25
 30
0.0
  0
SPLINE
  5
3D
330
1F
100
AcDbEntity
  8
Layer 1
370
     0
100
AcDbSpline
210
0.0
220
0.0
230
1.0
 70
    11
 71
     3
 72
    17
 73
    13
 74
     0
 42
0.0000000001
 43
0.0000000001
 40
0.0
 40
0.0
 40
0.0
 40
0.0
 40
1.0
 40
1.0
 40
1.0
 40
2.0
 40
2.0
 40
2.0
 40
3.0
 40
3.0
 40
3.0
 40
4.0
 40
4.0
 40
4.0
 40
4.0
 10
-0.3194444444444444
 20
-3.291666666666667
 30
0.0
 10
-0.3194444444444444
 20
-1.902777777777778
 30
0.0
 10
-0.3194444444444444
 20
-0.5138888888888888
 30
0.0
 10
-0.3194444444444444
 20
0.875
 30
0.0
 10
0.953701443142361
 20
0.875
 30
0.0
 10
2.226847330729167
 20
0.875
 30
0.0
 10
3.5
 20
0.875
 30
0.0
 10
3.5
 20
-0.5138888888888888
 30
0.0
 10
3.5
 20
-1.902777777777778
 30
0.0
 10
3.5
 20
-3.291666666666667
 30
0.0
 10
2.226847330729167
 20
-3.291666666666667
 30
0.0
 10
0.953701443142361
 20
-3.291666666666667
 30
0.0
 10
-0.3194444444444444
 20
-3.291666666666667
 30
0.0
  0
SPLINE
  5
3E
330
1F
100
AcDbEntity
  8
Layer 1
370
     0
100
AcDbSpline
210
0.0
220
0.0
230
1.0
 70
    11
 71
     3
 72
    50
 73
    46
 74
     0
 42
0.0000000001
 43
0.0000000001
 40
0.0
 40
0.0
 40
0.0
 40
0.0
 40
1.0
 40
1.0
 40
1.0
 40
2.0
 40
2.0
 40
2.0
 40
3.0
 40
3.0
 40
3.0
 40
4.0
 40
4.0
 40
4.0
 40
5.0
 40
5.0
 40
5.0
 40
6.0
 40
6.0
 40
6.0
 40
7.0
 40
7.0
 40
7.0
 40
8.0
 40
8.0
 40
8.0
 40
9.0
 40
9.0
 40
9.0
 40
10.0
 40
10.0
 40
10.0
 40
11.0
 40
11.0
 40
11.0
 40
12.0
 40
12.0
 40
12.0
 40
13.0
 40
13.0
 40
13.0
 40
14.0
 40
14.0
 40
14.0
 40
15.0
 40
15.0
 40
15.0
 40
15.0
 10
0.4533352322048611
 20
-0.4912651909722222
 30
0.0
 10
0.4448988172743055
 20
-0.4954698350694444
 30
0.0
 10
0.43646240234375
 20
-0.4996744791666666
 30
0.0
 10
0.4280259874131944
 20
-0.5038791232638888
 30
0.0
 10
0.4315660264756944
 20
-0.5195719401041666
 30
0.0
 10
0.4303249782986111
 20
-0.5391913519965278
 30
0.0
 10
0.4394599066840277
 20
-0.5502658420138888
 30
0.0
 10
0.4817233615451388
 20
-0.6015353732638888
 30
0.0
 10
0.4699164496527777
 20
-0.6521945529513888
 30
0.0
 10
0.4534573025173611
 20
-0.7105441623263888
 30
0.0
 10
0.4012112087673611
 20
-0.8957451714409722
 30
0.0
 10
0.3669501410590277
 20
-1.084811740451389
 30
0.0
 10
0.3979356553819444
 20
-1.277642144097222
 30
0.0
 10
0.4135470920138888
 20
-1.374776204427083
 30
0.0
 10
0.4448988172743055
 20
-1.469333224826389
 30
0.0
 10
0.4679090711805555
 20
-1.565341525607639
 30
0.0
 10
0.5255330403645833
 20
-1.805799696180555
 30
0.0
 10
0.6463080512152778
 20
-2.004503038194444
 30
0.0
 10
0.8512912326388888
 20
-2.147732204861111
 30
0.0
 10
1.097764756944444
 20
-2.319932725694444
 30
0.0
 10
1.371663411458333
 20
-2.352511935763889
 30
0.0
 10
1.658840603298611
 20
-2.296929253472222
 30
0.0
 10
2.487019856770833
 20
-2.1365966796875
 30
0.0
 10
2.736545138888889
 20
-1.1925048828125
 30
0.0
 10
2.278944227430555
 20
-0.6299235026041666
 30
0.0
 10
2.260538736979167
 20
-0.6072862413194444
 30
0.0
 10
2.241278754340278
 20
-0.5853407118055555
 30
0.0
 10
2.226182725694444
 20
-0.5675184461805555
 30
0.0
 10
2.242268880208333
 20
-0.5388929578993056
 30
0.0
 10
2.254896375868055
 20
-0.516445583767361
 30
0.0
 10
2.273912217881944
 20
-0.4826253255208333
 30
0.0
 10
2.218668619791667
 20
-0.4903089735243055
 30
0.0
 10
2.194552951388889
 20
-0.5409138997395833
 30
0.0
 10
2.142116970486111
 20
-0.4953409830729166
 30
0.0
 10
1.969618055555555
 20
-0.3454047309027777
 30
0.0
 10
1.764607747395833
 20
-0.2718844943576389
 30
0.0
 10
1.535291883680556
 20
-0.2560153537326389
 30
0.0
 10
1.1923828125
 20
-0.2322862413194444
 30
0.0
 10
0.9107666015625
 20
-0.3465169270833333
 30
0.0
 10
0.6896565755208333
 20
-0.6093885633680555
 30
0.0
 10
0.6592542860243055
 20
-0.6455281575520833
 30
0.0
 10
0.6314425998263888
 20
-0.683837890625
 30
0.0
 10
0.5993448893229166
 20
-0.7251112196180555
 30
0.0
 10
0.547878689236111
 20
-0.6426798502604166
 30
0.0
 10
0.5006103515625
 20
-0.5669759114583333
 30
0.0
 10
0.4533352322048611
 20
-0.4912651909722222
 30
0.0
  0
SPLINE
  5
3F
330
1F
100
AcDbEntity
  8
Layer 1
370
     0
100
AcDbSpline
210
0.0
220
0.0
230
1.0
 70
    11
 71
     3
 72
    50
 73
    46
 74
     0
 42
0.0000000001
 43
0.0000000001
 40
0.0
 40
0.0
 40
0.0
 40
0.0
 40
1.0
 40
1.0
 40
1.0
 40
2.0
 40
2.0
 40
2.0
 40
3.0
 40
3.0
 40
3.0
 40
4.0
 40
4.0
 40
4.0
 40
5.0
 40
5.0
 40
5.0
 40
6.0
 40
6.0
 40
6.0
 40
7.0
 40
7.0
 40
7.0
 40
8.0
 40
8.0
 40
8.0
 40
9.0
 40
9.0
 40
9.0
 40
10.0
 40
10.0
 40
10.0
 40
11.0
 40
11.0
 40
11.0
 40
12.0
 40
12.0
 40
12.0
 40
13.0
 40
13.0
 40
13.0
 40
14.0
 40
14.0
 40
14.0
 40
15.0
 40
15.0
 40
15.0
 40
15.0
 10
0.4533352322048611
 20
-0.4912651909722222
 30
0.0
 10
0.5006103515625
 20
-0.5669759114583333
 30
0.0
 10
0.547878689236111
 20
-0.6426798502604166
 30
0.0
 10
0.5993448893229166
 20
-0.7251112196180555
 30
0.0
 10
0.6314425998263888
 20
-0.683837890625
 30
0.0
 10
0.6592542860243055
 20
-0.6455281575520833
 30
0.0
 10
0.6896565755208333
 20
-0.6093885633680555
 30
0.0
 10
0.9107666015625
 20
-0.3465169270833333
 30
0.0
 10
1.1923828125
 20
-0.2322862413194444
 30
0.0
 10
1.535291883680556
 20
-0.2560153537326389
 30
0.0
 10
1.764607747395833
 20
-0.2718844943576389
 30
0.0
 10
1.969618055555555
 20
-0.3454047309027777
 30
0.0
 10
2.142116970486111
 20
-0.4953409830729166
 30
0.0
 10
2.194552951388889
 20
-0.5409138997395833
 30
0.0
 10
2.218668619791667
 20
-0.4903089735243055
 30
0.0
 10
2.273912217881944
 20
-0.4826253255208333
 30
0.0
 10
2.254896375868055
 20
-0.516445583767361
 30
0.0
 10
2.242268880208333
 20
-0.5388929578993056
 30
0.0
 10
2.226182725694444
 20
-0.5675184461805555
 30
0.0
 10
2.241278754340278
 20
-0.5853407118055555
 30
0.0
 10
2.260538736979167
 20
-0.6072862413194444
 30
0.0
 10
2.278944227430555
 20
-0.6299235026041666
 30
0.0
 10
2.736545138888889
 20
-1.1925048828125
 30
0.0
 10
2.487019856770833
 20
-2.1365966796875
 30
0.0
 10
1.658840603298611
 20
-2.296929253472222
 30
0.0
 10
1.371663411458333
 20
-2.352511935763889
 30
0.0
 10
1.097764756944444
 20
-2.319932725694444
 30
0.0
 10
0.8512912326388888
 20
-2.147732204861111
 30
0.0
 10
0.6463080512152778
 20
-2.004503038194444
 30
0.0
 10
0.5255330403645833
 20
-1.805799696180555
 30
0.0
 10
0.4679090711805555
 20
-1.565341525607639
 30
0.0
 10
0.4448988172743055
 20
-1.469333224826389
 30
0.0
 10
0.4135470920138888
 20
-1.374776204427083
 30
0.0
 10
0.3979356553819444
 20
-1.277642144097222
 30
0.0
 10
0.3669501410590277
 20
-1.084811740451389
 30
0.0
 10
0.4012112087673611
 20
-0.8957451714409722
 30
0.0
 10
0.4534573025173611
 20
-0.7105441623263888
 30
0.0
 10
0.4699164496527777
 20
-0.6521945529513888
 30
0.0
 10
0.4817233615451388
 20
-0.6015353732638888
 30
0.0
 10
0.4394599066840277
 20
-0.5502658420138888
 30
0.0
 10
0.4303249782986111
 20
-0.5391913519965278
 30
0.0
 10
0.4315660264756944
 20
-0.5195719401041666
 30
0.0
 10
0.4280259874131944
 20
-0.5038791232638888
 30
0.0
 10
0.43646240234375
 20
-0.4996744791666666
 30
0.0
 10
0.4448988172743055
 20
-0.4954698350694444
 30
0.0
 10
0.4533352322048611
 20
-0.4912651909722222
 30
0.0
  0
SPLINE
  5
40
330
1F
100
AcDbEntity
  8
Layer 1
370
     0
100
AcDbSpline
210
0.0
220
0.0
230
1.0
 70
    11
 71
     3
 72
    20
 73
    16
 74
     0
 42
0.0000000001
 43
0.0000000001
 40
0.0
 40
0.0
 40
0.0
 40
0.0
 40
1.0
 40
1.0
 40
1.0
 40
2.0
 40
2.0
 40
2.0
 40
3.0
 40
3.0
 40
3.0
 40
4.0
 40
4.0
 40
4.0
 40
5.0
 40
5.0
 40
5.0
 40
5.0
 10
2.172566731770833
 20
-0.5823906792534722
 30
0.0
 10
1.898125542534722
 20
-0.8358154296875
 30
0.0
 10
1.627780490451389
 20
-1.084140353732639
 30
0.0
 10
1.3602294921875
 20
-1.335442437065972
 30
0.0
 10
1.342149522569444
 20
-1.352423773871528
 30
0.0
 10
1.334011501736111
 20
-1.39447021484375
 30
0.0
 10
1.340169270833333
 20
-1.42034912109375
 30
0.0
 10
1.372341579861111
 20
-1.555399576822917
 30
0.0
 10
1.496636284722222
 20
-1.642605251736111
 30
0.0
 10
1.658650716145833
 20
-1.650804307725694
 30
0.0
 10
2.021755642361111
 20
-1.669182671440972
 30
0.0
 10
2.292928059895833
 20
-1.439887152777778
 30
0.0
 10
2.329806857638889
 20
-1.077806260850694
 30
0.0
 10
2.348361545138889
 20
-0.8956841362847222
 30
0.0
 10
2.297092013888889
 20
-0.7323947482638888
 30
0.0
 10
2.172566731770833
 20
-0.5823906792534722
 30
0.0
  0
SPLINE
  5
41
330
1F
100
AcDbEntity
  8
Layer 1
370
     0
100
AcDbSpline
210
0.0
220
0.0
230
1.0
 70
    11
 71
     3
 72
    29
 73
    25
 74
     0
 42
0.0000000001
 43
0.0000000001
 40
0.0
 40
0.0
 40
0.0
 40
0.0
 40
1.0
 40
1.0
 40
1.0
 40
2.0
 40
2.0
 40
2.0
 40
3.0
 40
3.0
 40
3.0
 40
4.0
 40
4.0
 40
4.0
 40
5.0
 40
5.0
 40
5.0
 40
6.0
 40
6.0
 40
6.0
 40
7.0
 40
7.0
 40
7.0
 40
8.0
 40
8.0
 40
8.0
 40
8.0
 10
0.5111897786458333
 20
-0.6564805772569444
 30
0.0
 10
0.5031602647569444
 20
-0.6760118272569444
 30
0.0
 10
0.49932861328125
 20
-0.6833631727430555
 30
0.0
 10
0.4970567491319444
 20
-0.691162109375
 30
0.0
 10
0.4403483072916666
 20
-0.8858778211805555
 30
0.0
 10
0.4150729709201388
 20
-1.084343804253472
 30
0.0
 10
0.4334581163194444
 20
-1.286695692274306
 30
0.0
 10
0.4456854926215277
 20
-1.4212646484375
 30
0.0
 10
0.5027262369791666
 20
-1.532789442274306
 30
0.0
 10
0.6116943359375
 20
-1.618096245659722
 30
0.0
 10
0.69232177734375
 20
-1.681206597222222
 30
0.0
 10
0.8035142686631944
 20
-1.703938802083333
 30
0.0
 10
0.883755154079861
 20
-1.663974338107639
 30
0.0
 10
0.936489529079861
 20
-1.637708875868055
 30
0.0
 10
1.017367892795139
 20
-1.479119194878472
 30
0.0
 10
1.010423448350694
 20
-1.412143283420139
 30
0.0
 10
1.009134928385417
 20
-1.399712456597222
 30
0.0
 10
1.000386555989583
 20
-1.387315538194444
 30
0.0
 10
0.9929334852430555
 20
-1.376369900173611
 30
0.0
 10
0.8696356879340277
 20
-1.195319281684028
 30
0.0
 10
0.745510525173611
 20
-1.014824761284722
 30
0.0
 10
0.622707790798611
 20
-0.83343505859375
 30
0.0
 10
0.5857611762152778
 20
-0.7788560655381944
 30
0.0
 10
0.5522867838541666
 20
-0.7219306098090278
 30
0.0
 10
0.5111897786458333
 20
-0.6564805772569444
 30
0.0
  0
SPLINE
  5
42
330
1F
100
AcDbEntity
  8
Layer 1
370
     0
100
AcDbSpline
210
0.0
220
0.0
230
1.0
 70
    11
 71
     3
 72
    26
 73
    22
 74
     0
 42
0.0000000001
 43
0.0000000001
 40
0.0
 40
0.0
 40
0.0
 40
0.0
 40
1.0
 40
1.0
 40
1.0
 40
2.0
 40
2.0
 40
2.0
 40
3.0
 40
3.0
 40
3.0
 40
4.0
 40
4.0
 40
4.0
 40
5.0
 40
5.0
 40
5.0
 40
6.0
 40
6.0
 40
6.0
 40
7.0
 40
7.0
 40
7.0
 40
7.0
 10
1.774251302083333
 20
-1.980875651041667
 30
0.0
 10
1.763604058159722
 20
-1.904690212673611
 30
0.0
 10
1.733357747395833
 20
-1.887925889756944
 30
0.0
 10
1.667805989583333
 20
-1.898342556423611
 30
0.0
 10
1.581922743055555
 20
-1.912000868055555
 30
0.0
 10
1.492146809895833
 20
-1.918551974826389
 30
0.0
 10
1.406019422743056
 20
-1.909478081597222
 30
0.0
 10
1.239013671875
 20
-1.891886393229167
 30
0.0
 10
1.073479546440972
 20
-1.860582139756944
 30
0.0
 10
0.9070366753472222
 20
-1.837076822916667
 30
0.0
 10
0.8907199435763888
 20
-1.834771050347222
 30
0.0
 10
0.8723212348090277
 20
-1.847222222222222
 30
0.0
 10
0.854885525173611
 20
-1.852837456597222
 30
0.0
 10
0.863186306423611
 20
-1.867445203993055
 30
0.0
 10
0.8679334852430555
 20
-1.8896484375
 30
0.0
 10
0.8803507486979166
 20
-1.895453559027778
 30
0.0
 10
0.9716593424479166
 20
-1.938096788194444
 30
0.0
 10
1.061808268229167
 20
-1.986056857638889
 30
0.0
 10
1.157416449652778
 20
-2.01611328125
 30
0.0
 10
1.365437825520833
 20
-2.081570095486111
 30
0.0
 10
1.570583767361111
 20
-2.054090711805555
 30
0.0
 10
1.774251302083333
 20
-1.980875651041667
 30
0.0
  0
SPLINE
  5
43
330
1F
100
AcDbEntity
  8
Layer 1
370
     0
100
AcDbSpline
210
0.0
220
0.0
230
1.0
 70
    11
 71
     3
 72
    17
 73
    13
 74
     0
 42
0.0000000001
 43
0.0000000001
 40
0.0
 40
0.0
 40
0.0
 40
0.0
 40
1.0
 40
1.0
 40
1.0
 40
2.0
 40
2.0
 40
2.0
 40
3.0
 40
3.0
 40
3.0
 40
4.0
 40
4.0
 40
4.0
 40
4.0
 10
1.8563232421875
 20
-2.046332465277778
 30
0.0
 10
1.862901475694444
 20
-2.0457763671875
 30
0.0
 10
1.869466145833333
 20
-2.045233832465278
 30
0.0
 10
1.876044379340278
 20
-2.044691297743055
 30
0.0
 10
1.886745876736111
 20
-1.980699327256944
 30
0.0
 10
1.8974609375
 20
-1.916707356770833
 30
0.0
 10
1.909573025173611
 20
-1.844292534722222
 30
0.0
 10
1.858127170138889
 20
-1.856689453125
 30
0.0
 10
1.820773654513889
 20
-1.865695529513889
 30
0.0
 10
1.775716145833333
 20
-1.876546223958333
 30
0.0
 10
1.804470486111111
 20
-1.9371337890625
 30
0.0
 10
1.830403645833333
 20
-1.991726345486111
 30
0.0
 10
1.8563232421875
 20
-2.046332465277778
 30
0.0
  0
SPLINE
  5
44
330
1F
100
AcDbEntity
  8
Layer 1
370
     0
100
AcDbSpline
210
0.0
220
0.0
230
1.0
 70
    11
 71
     3
 72
    14
 73
    10
 74
     0
 42
0.0000000001
 43
0.0000000001
 40
0.0
 40
0.0
 40
0.0
 40
0.0
 40
1.0
 40
1.0
 40
1.0
 40
2.0
 40
2.0
 40
2.0
 40
3.0
 40
3.0
 40
3.0
 40
3.0
 10
0.7283053927951388
 20
-1.786539713541667
 30
0.0
 10
0.740566677517361
 20
-1.842597113715278
 30
0.0
 10
0.7498575846354166
 20
-1.885091145833333
 30
0.0
 10
0.76348876953125
 20
-1.947428385416667
 30
0.0
 10
0.7927652994791666
 20
-1.890652126736111
 30
0.0
 10
0.812038845486111
 20
-1.853271484375
 30
0.0
 10
0.8333943684895833
 20
-1.811862521701389
 30
0.0
 10
0.7981431749131944
 20
-1.803358289930555
 30
0.0
 10
0.7698432074652778
 20
-1.796549479166667
 30
0.0
 10
0.7283053927951388
 20
-1.786539713541667
 30
0.0
  0
HATCH
  5
45
330
1F
100
AcDbEntity
  8
Layer 1
 62
     7
420
 16777215
100
AcDbHatch
 10
0.0
 20
0.0
 30
0.0
210
0.0
220
0.0
230
1.0
  2
SOLID
 70
     1
 71
     0
 91
        6
 92
        1
 93
        1
 72
     4
 94
        3
 73
     0
 74
     1
 95
       50
 96
       46
 40
0.0
 40
0.0
 40
0.0
 40
0.0
 40
1.0
 40
1.0
 40
1.0
 40
2.0
 40
2.0
 40
2.0
 40
3.0
 40
3.0
 40
3.0
 40
4.0
 40
4.0
 40
4.0
 40
5.0
 40
5.0
 40
5.0
 40
6.0
 40
6.0
 40
6.0
 40
7.0
 40
7.0
 40
7.0
 40
8.0
 40
8.0
 40
8.0
 40
9.0
 40
9.0
 40
9.0
 40
10.0
 40
10.0
 40
10.0
 40
11.0
 40
11.0
 40
11.0
 40
12.0
 40
12.0
 40
12.0
 40
13.0
 40
13.0
 40
13.0
 40
14.0
 40
14.0
 40
14.0
 40
15.0
 40
15.0
 40
15.0
 40
15.0
 10
0.4533352322048611
 20
-0.4912651909722222
 10
0.5006103515625
 20
-0.5669759114583333
 10
0.547878689236111
 20
-0.6426798502604166
 10
0.5993448893229166
 20
-0.7251112196180555
 10
0.6314425998263888
 20
-0.683837890625
 10
0.6592542860243055
 20
-0.6455281575520833
 10
0.6896565755208333
 20
-0.6093885633680555
 10
0.9107666015625
 20
-0.3465169270833333
 10
1.1923828125
 20
-0.2322862413194444
 10
1.535291883680556
 20
-0.2560153537326389
 10
1.764607747395833
 20
-0.2718844943576389
 10
1.969618055555555
 20
-0.3454047309027777
 10
2.142116970486111
 20
-0.4953409830729166
 10
2.194552951388889
 20
-0.5409138997395833
 10
2.218668619791667
 20
-0.4903089735243055
 10
2.273912217881944
 20
-0.4826253255208333
 10
2.254896375868055
 20
-0.516445583767361
 10
2.242268880208333
 20
-0.5388929578993056
 10
2.226182725694444
 20
-0.5675184461805555
 10
2.241278754340278
 20
-0.5853407118055555
 10
2.260538736979167
 20
-0.6072862413194444
 10
2.278944227430555
 20
-0.6299235026041666
 10
2.736545138888889
 20
-1.1925048828125
 10
2.487019856770833
 20
-2.1365966796875
 10
1.658840603298611
 20
-2.296929253472222
 10
1.371663411458333
 20
-2.352511935763889
 10
1.097764756944444
 20
-2.319932725694444
 10
0.8512912326388888
 20
-2.147732204861111
 10
0.6463080512152778
 20
-2.004503038194444
 10
0.5255330403645833
 20
-1.805799696180555
 10
0.4679090711805555
 20
-1.565341525607639
 10
0.4448988172743055
 20
-1.469333224826389
 10
0.4135470920138888
 20
-1.374776204427083
 10
0.3979356553819444
 20
-1.277642144097222
 10
0.3669501410590277
 20
-1.084811740451389
 10
0.4012112087673611
 20
-0.8957451714409722
 10
0.4534573025173611
 20
-0.7105441623263888
 10
0.4699164496527777
 20
-0.6521945529513888
 10
0.4817233615451388
 20
-0.6015353732638888
 10
0.4394599066840277
 20
-0.5502658420138888
 10
0.4303249782986111
 20
-0.5391913519965278
 10
0.4315660264756944
 20
-0.5195719401041666
 10
0.4280259874131944
 20
-0.5038791232638888
 10
0.43646240234375
 20
-0.4996744791666666
 10
0.4448988172743055
 20
-0.4954698350694444
 10
0.4533352322048611
 20
-0.4912651909722222
 97
        0
 92
        1
 93
        1
 72
     4
 94
        3
 73
     0
 74
     1
 95
       20
 96
       16
 40
0.0
 40
0.0
 40
0.0
 40
0.0
 40
1.0
 40
1.0
 40
1.0
 40
2.0
 40
2.0
 40
2.0
 40
3.0
 40
3.0
 40
3.0
 40
4.0
 40
4.0
 40
4.0
 40
5.0
 40
5.0
 40
5.0
 40
5.0
 10
2.172566731770833
 20
-0.5823906792534722
 10
1.898125542534722
 20
-0.8358154296875
 10
1.627780490451389
 20
-1.084140353732639
 10
1.3602294921875
 20
-1.335442437065972
 10
1.342149522569444
 20
-1.352423773871528
 10
1.334011501736111
 20
-1.39447021484375
 10
1.340169270833333
 20
-1.42034912109375
 10
1.372341579861111
 20
-1.555399576822917
 10
1.496636284722222
 20
-1.642605251736111
 10
1.658650716145833
 20
-1.650804307725694
 10
2.021755642361111
 20
-1.669182671440972
 10
2.292928059895833
 20
-1.439887152777778
 10
2.329806857638889
 20
-1.077806260850694
 10
2.348361545138889
 20
-0.8956841362847222
 10
2.297092013888889
 20
-0.7323947482638888
 10
2.172566731770833
 20
-0.5823906792534722
 97
        0
 92
        1
 93
        1
 72
     4
 94
        3
 73
     0
 74
     1
 95
       29
 96
       25
 40
0.0
 40
0.0
 40
0.0
 40
0.0
 40
1.0
 40
1.0
 40
1.0
 40
2.0
 40
2.0
 40
2.0
 40
3.0
 40
3.0
 40
3.0
 40
4.0
 40
4.0
 40
4.0
 40
5.0
 40
5.0
 40
5.0
 40
6.0
 40
6.0
 40
6.0
 40
7.0
 40
7.0
 40
7.0
 40
8.0
 40
8.0
 40
8.0
 40
8.0
 10
0.5111897786458333
 20
-0.6564805772569444
 10
0.5031602647569444
 20
-0.6760118272569444
 10
0.49932861328125
 20
-0.6833631727430555
 10
0.4970567491319444
 20
-0.691162109375
 10
0.4403483072916666
 20
-0.8858778211805555
 10
0.4150729709201388
 20
-1.084343804253472
 10
0.4334581163194444
 20
-1.286695692274306
 10
0.4456854926215277
 20
-1.4212646484375
 10
0.5027262369791666
 20
-1.532789442274306
 10
0.6116943359375
 20
-1.618096245659722
 10
0.69232177734375
 20
-1.681206597222222
 10
0.8035142686631944
 20
-1.703938802083333
 10
0.883755154079861
 20
-1.663974338107639
 10
0.936489529079861
 20
-1.637708875868055
 10
1.017367892795139
 20
-1.479119194878472
 10
1.010423448350694
 20
-1.412143283420139
 10
1.009134928385417
 20
-1.399712456597222
 10
1.000386555989583
 20
-1.387315538194444
 10
0.9929334852430555
 20
-1.376369900173611
 10
0.8696356879340277
 20
-1.195319281684028
 10
0.745510525173611
 20
-1.014824761284722
 10
0.622707790798611
 20
-0.83343505859375
 10
0.5857611762152778
 20
-0.7788560655381944
 10
0.5522867838541666
 20
-0.7219306098090278
 10
0.5111897786458333
 20
-0.6564805772569444
 97
        0
 92
        1
 93
        1
 72
     4
 94
        3
 73
     0
 74
     1
 95
       26
 96
       22
 40
0.0
 40
0.0
 40
0.0
 40
0.0
 40
1.0
 40
1.0
 40
1.0
 40
2.0
 40
2.0
 40
2.0
 40
3.0
 40
3.0
 40
3.0
 40
4.0
 40
4.0
 40
4.0
 40
5.0
 40
5.0
 40
5.0
 40
6.0
 40
6.0
 40
6.0
 40
7.0
 40
7.0
 40
7.0
 40
7.0
 10
1.774251302083333
 20
-1.980875651041667
 10
1.763604058159722
 20
-1.904690212673611
 10
1.733357747395833
 20
-1.887925889756944
 10
1.667805989583333
 20
-1.898342556423611
 10
1.581922743055555
 20
-1.912000868055555
 10
1.492146809895833
 20
-1.918551974826389
 10
1.406019422743056
 20
-1.909478081597222
 10
1.239013671875
 20
-1.891886393229167
 10
1.073479546440972
 20
-1.860582139756944
 10
0.9070366753472222
 20
-1.837076822916667
 10
0.8907199435763888
 20
-1.834771050347222
 10
0.8723212348090277
 20
-1.847222222222222
 10
0.854885525173611
 20
-1.852837456597222
 10
0.863186306423611
 20
-1.867445203993055
 10
0.8679334852430555
 20
-1.8896484375
 10
0.8803507486979166
 20
-1.895453559027778
 10
0.9716593424479166
 20
-1.938096788194444
 10
1.061808268229167
 20
-1.986056857638889
 10
1.157416449652778
 20
-2.01611328125
 10
1.365437825520833
 20
-2.081570095486111
 10
1.570583767361111
 20
-2.054090711805555
 10
1.774251302083333
 20
-1.980875651041667
 97
        0
 92
        1
 93
        1
 72
     4
 94
        3
 73
     0
 74
     1
 95
       17
 96
       13
 40
0.0
 40
0.0
 40
0.0
 40
0.0
 40
1.0
 40
1.0
 40
1.0
 40
2.0
 40
2.0
 40
2.0
 40
3.0
 40
3.0
 40
3.0
 40
4.0
 40
4.0
 40
4.0
 40
4.0
 10
1.8563232421875
 20
-2.046332465277778
 10
1.862901475694444
 20
-2.0457763671875
 10
1.869466145833333
 20
-2.045233832465278
 10
1.876044379340278
 20
-2.044691297743055
 10
1.886745876736111
 20
-1.980699327256944
 10
1.8974609375
 20
-1.916707356770833
 10
1.909573025173611
 20
-1.844292534722222
 10
1.858127170138889
 20
-1.856689453125
 10
1.820773654513889
 20
-1.865695529513889
 10
1.775716145833333
 20
-1.876546223958333
 10
1.804470486111111
 20
-1.9371337890625
 10
1.830403645833333
 20
-1.991726345486111
 10
1.8563232421875
 20
-2.046332465277778
 97
        0
 92
        1
 93
        1
 72
     4
 94
        3
 73
     0
 74
     1
 95
       14
 96
       10
 40
0.0
 40
0.0
 40
0.0
 40
0.0
 40
1.0
 40
1.0
 40
1.0
 40
2.0
 40
2.0
 40
2.0
 40
3.0
 40
3.0
 40
3.0
 40
3.0
 10
0.7283053927951388
 20
-1.786539713541667
 10
0.740566677517361
 20
-1.842597113715278
 10
0.7498575846354166
 20
-1.885091145833333
 10
0.76348876953125
 20
-1.947428385416667
 10
0.7927652994791666
 20
-1.890652126736111
 10
0.812038845486111
 20
-1.853271484375
 10
0.8333943684895833
 20
-1.811862521701389
 10
0.7981431749131944
 20
-1.803358289930555
 10
0.7698432074652778
 20
-1.796549479166667
 10
0.7283053927951388
 20
-1.786539713541667
 97
        0
 75
     0
 76
     1
 98
        0
  0
SPLINE
  5
46
330
1F
100
AcDbEntity
  8
Layer 1
370
     0
100
AcDbSpline
210
0.0
220
0.0
230
1.0
 70
    11
 71
     3
 72
    20
 73
    16
 74
     0
 42
0.0000000001
 43
0.0000000001
 40
0.0
 40
0.0
 40
0.0
 40
0.0
 40
1.0
 40
1.0
 40
1.0
 40
2.0
 40
2.0
 40
2.0
 40
3.0
 40
3.0
 40
3.0
 40
4.0
 40
4.0
 40
4.0
 40
5.0
 40
5.0
 40
5.0
 40
5.0
 10
2.172566731770833
 20
-0.5823906792534722
 30
0.0
 10
2.297092013888889
 20
-0.7323947482638888
 30
0.0
 10
2.348361545138889
 20
-0.8956841362847222
 30
0.0
 10
2.329806857638889
 20
-1.077806260850694
 30
0.0
 10
2.292928059895833
 20
-1.439887152777778
 30
0.0
 10
2.021755642361111
 20
-1.669182671440972
 30
0.0
 10
1.658650716145833
 20
-1.650804307725694
 30
0.0
 10
1.496636284722222
 20
-1.642605251736111
 30
0.0
 10
1.372341579861111
 20
-1.555399576822917
 30
0.0
 10
1.340169270833333
 20
-1.42034912109375
 30
0.0
 10
1.334011501736111
 20
-1.39447021484375
 30
0.0
 10
1.342149522569444
 20
-1.352423773871528
 30
0.0
 10
1.3602294921875
 20
-1.335442437065972
 30
0.0
 10
1.627780490451389
 20
-1.084140353732639
 30
0.0
 10
1.898125542534722
 20
-0.8358154296875
 30
0.0
 10
2.172566731770833
 20
-0.5823906792534722
 30
0.0
  0
SPLINE
  5
47
330
1F
100
AcDbEntity
  8
Layer 1
370
     0
100
AcDbSpline
210
0.0
220
0.0
230
1.0
 70
    11
 71
     3
 72
    29
 73
    25
 74
     0
 42
0.0000000001
 43
0.0000000001
 40
0.0
 40
0.0
 40
0.0
 40
0.0
 40
1.0
 40
1.0
 40
1.0
 40
2.0
 40
2.0
 40
2.0
 40
3.0
 40
3.0
 40
3.0
 40
4.0
 40
4.0
 40
4.0
 40
5.0
 40
5.0
 40
5.0
 40
6.0
 40
6.0
 40
6.0
 40
7.0
 40
7.0
 40
7.0
 40
8.0
 40
8.0
 40
8.0
 40
8.0
 10
0.5111897786458333
 20
-0.6564805772569444
 30
0.0
 10
0.5522867838541666
 20
-0.7219306098090278
 30
0.0
 10
0.5857611762152778
 20
-0.7788560655381944
 30
0.0
 10
0.622707790798611
 20
-0.83343505859375
 30
0.0
 10
0.745510525173611
 20
-1.014824761284722
 30
0.0
 10
0.8696356879340277
 20
-1.195319281684028
 30
0.0
 10
0.9929334852430555
 20
-1.376369900173611
 30
0.0
 10
1.000386555989583
 20
-1.387315538194444
 30
0.0
 10
1.009134928385417
 20
-1.399712456597222
 30
0.0
 10
1.010423448350694
 20
-1.412143283420139
 30
0.0
 10
1.017367892795139
 20
-1.479119194878472
 30
0.0
 10
0.936489529079861
 20
-1.637708875868055
 30
0.0
 10
0.883755154079861
 20
-1.663974338107639
 30
0.0
 10
0.8035142686631944
 20
-1.703938802083333
 30
0.0
 10
0.69232177734375
 20
-1.681206597222222
 30
0.0
 10
0.6116943359375
 20
-1.618096245659722
 30
0.0
 10
0.5027262369791666
 20
-1.532789442274306
 30
0.0
 10
0.4456854926215277
 20
-1.4212646484375
 30
0.0
 10
0.4334581163194444
 20
-1.286695692274306
 30
0.0
 10
0.4150729709201388
 20
-1.084343804253472
 30
0.0
 10
0.4403483072916666
 20
-0.8858778211805555
 30
0.0
 10
0.4970567491319444
 20
-0.691162109375
 30
0.0
 10
0.49932861328125
 20
-0.6833631727430555
 30
0.0
 10
0.5031602647569444
 20
-0.6760118272569444
 30
0.0
 10
0.5111897786458333
 20
-0.6564805772569444
 30
0.0
  0
SPLINE
  5
48
330
1F
100
AcDbEntity
  8
Layer 1
370
     0
100
AcDbSpline
210
0.0
220
0.0
230
1.0
 70
    11
 71
     3
 72
    26
 73
    22
 74
     0
 42
0.0000000001
 43
0.0000000001
 40
0.0
 40
0.0
 40
0.0
 40
0.0
 40
1.0
 40
1.0
 40
1.0
 40
2.0
 40
2.0
 40
2.0
 40
3.0
 40
3.0
 40
3.0
 40
4.0
 40
4.0
 40
4.0
 40
5.0
 40
5.0
 40
5.0
 40
6.0
 40
6.0
 40
6.0
 40
7.0
 40
7.0
 40
7.0
 40
7.0
 10
1.774251302083333
 20
-1.980875651041667
 30
0.0
 10
1.570583767361111
 20
-2.054090711805555
 30
0.0
 10
1.365437825520833
 20
-2.081570095486111
 30
0.0
 10
1.157416449652778
 20
-2.01611328125
 30
0.0
 10
1.061808268229167
 20
-1.986056857638889
 30
0.0
 10
0.9716593424479166
 20
-1.938096788194444
 30
0.0
 10
0.8803507486979166
 20
-1.895453559027778
 30
0.0
 10
0.8679334852430555
 20
-1.8896484375
 30
0.0
 10
0.863186306423611
 20
-1.867445203993055
 30
0.0
 10
0.854885525173611
 20
-1.852837456597222
 30
0.0
 10
0.8723212348090277
 20
-1.847222222222222
 30
0.0
 10
0.8907199435763888
 20
-1.834771050347222
 30
0.0
 10
0.9070366753472222
 20
-1.837076822916667
 30
0.0
 10
1.073479546440972
 20
-1.860582139756944
 30
0.0
 10
1.239013671875
 20
-1.891886393229167
 30
0.0
 10
1.406019422743056
 20
-1.909478081597222
 30
0.0
 10
1.492146809895833
 20
-1.918551974826389
 30
0.0
 10
1.581922743055555
 20
-1.912000868055555
 30
0.0
 10
1.667805989583333
 20
-1.898342556423611
 30
0.0
 10
1.733357747395833
 20
-1.887925889756944
 30
0.0
 10
1.763604058159722
 20
-1.904690212673611
 30
0.0
 10
1.774251302083333
 20
-1.980875651041667
 30
0.0
  0
SPLINE
  5
49
330
1F
100
AcDbEntity
  8
Layer 1
370
     0
100
AcDbSpline
210
0.0
220
0.0
230
1.0
 70
    11
 71
     3
 72
    17
 73
    13
 74
     0
 42
0.0000000001
 43
0.0000000001
 40
0.0
 40
0.0
 40
0.0
 40
0.0
 40
1.0
 40
1.0
 40
1.0
 40
2.0
 40
2.0
 40
2.0
 40
3.0
 40
3.0
 40
3.0
 40
4.0
 40
4.0
 40
4.0
 40
4.0
 10
1.8563232421875
 20
-2.046332465277778
 30
0.0
 10
1.830403645833333
 20
-1.991726345486111
 30
0.0
 10
1.804470486111111
 20
-1.9371337890625
 30
0.0
 10
1.775716145833333
 20
-1.876546223958333
 30
0.0
 10
1.820773654513889
 20
-1.865695529513889
 30
0.0
 10
1.858127170138889
 20
-1.856689453125
 30
0.0
 10
1.909573025173611
 20
-1.844292534722222
 30
0.0
 10
1.8974609375
 20
-1.916707356770833
 30
0.0
 10
1.886745876736111
 20
-1.980699327256944
 30
0.0
 10
1.876044379340278
 20
-2.044691297743055
 30
0.0
 10
1.869466145833333
 20
-2.045233832465278
 30
0.0
 10
1.862901475694444
 20
-2.0457763671875
 30
0.0
 10
1.8563232421875
 20
-2.046332465277778
 30
0.0
  0
SPLINE
  5
4A
330
1F
100
AcDbEntity
  8
Layer 1
370
     0
100
AcDbSpline
210
0.0
220
0.0
230
1.0
 70
    11
 71
     3
 72
    14
 73
    10
 74
     0
 42
0.0000000001
 43
0.0000000001
 40
0.0
 40
0.0
 40
0.0
 40
0.0
 40
1.0
 40
1.0
 40
1.0
 40
2.0
 40
2.0
 40
2.0
 40
3.0
 40
3.0
 40
3.0
 40
3.0
 10
0.7283053927951388
 20
-1.786539713541667
 30
0.0
 10
0.7698432074652778
 20
-1.796549479166667
 30
0.0
 10
0.7981431749131944
 20
-1.803358289930555
 30
0.0
 10
0.8333943684895833
 20
-1.811862521701389
 30
0.0
 10
0.812038845486111
 20
-1.853271484375
 30
0.0
 10
0.7927652994791666
 20
-1.890652126736111
 30
0.0
 10
0.76348876953125
 20
-1.947428385416667
 30
0.0
 10
0.7498575846354166
 20
-1.885091145833333
 30
0.0
 10
0.740566677517361
 20
-1.842597113715278
 30
0.0
 10
0.7283053927951388
 20
-1.786539713541667
 30
0.0
  0
SPLINE
  5
4B
330
1F
100
AcDbEntity
  8
Layer 1
 62
     7
420
 16777215
370
    70
100
AcDbSpline
210
0.0
220
0.0
230
1.0
 70
     8
 71
     3
 72
     8
 73
     4
 74
     0
 42
0.0000000001
 43
0.0000000001
 40
0.0
 40
0.0
 40
0.0
 40
0.0
 40
1.0
 40
1.0
 40
1.0
 40
1.0
 10
2.180555555555555
 20
-0.5625
 30
0.0
 10
2.231486002604167
 20
-0.6365763346354166
 30
0.0
 10
2.282402886284722
 20
-0.7106458875868055
 30
0.0
 10
2.333333333333333
 20
-0.7847222222222222
 30
0.0
  0
SPLINE
  5
4C
330
1F
100
AcDbEntity
  8
Layer 1
 62
     7
420
 16777215
370
    70
100
AcDbSpline
210
0.0
220
0.0
230
1.0
 70
     8
 71
     3
 72
    14
 73
    10
 74
     0
 42
0.0000000001
 43
0.0000000001
 40
0.0
 40
0.0
 40
0.0
 40
0.0
 40
1.0
 40
1.0
 40
1.0
 40
2.0
 40
2.0
 40
2.0
 40
3.0
 40
3.0
 40
3.0
 40
3.0
 10
0.4444444444444444
 20
-0.5069444444444444
 30
0.0
 10
0.504238552517361
 20
-0.5809868706597222
 30
0.0
 10
0.4940728081597222
 20
-0.6558905707465278
 30
0.0
 10
0.4680650499131944
 20
-0.7438761393229166
 30
0.0
 10
0.4078911675347222
 20
-0.9474080403645833
 30
0.0
 10
0.3849351671006944
 20
-1.157477484809028
 30
0.0
 10
0.4323866102430555
 20
-1.367641872829861
 30
0.0
 10
0.4486490885416666
 20
-1.439683702256944
 30
0.0
 10
0.4861111111111111
 20
-1.506944444444444
 30
0.0
 10
0.5138888888888888
 20
-1.576388888888889
 30
0.0
  0
SPLINE
  5
4D
330
1F
100
AcDbEntity
  8
Layer 1
 62
     7
420
 16777215
370
    70
100
AcDbSpline
210
0.0
220
0.0
230
1.0
 70
     8
 71
     3
 72
    11
 73
     7
 74
     0
 42
0.0000000001
 43
0.0000000001
 40
0.0
 40
0.0
 40
0.0
 40
0.0
 40
1.0
 40
1.0
 40
1.0
 40
2.0
 40
2.0
 40
2.0
 40
2.0
 10
0.5138888888888888
 20
-0.6388888888888888
 30
0.0
 10
0.5370347764756944
 20
-0.6712985568576388
 30
0.0
 10
0.55841064453125
 20
-0.7052137586805555
 30
0.0
 10
0.5841471354166666
 20
-0.7354193793402778
 30
0.0
 10
0.5955335828993055
 20
-0.7487860785590278
 30
0.0
 10
0.6157430013020833
 20
-0.7546318901909722
 30
0.0
 10
0.6319444444444444
 20
-0.7638888888888888
 30
0.0
  0
SPLINE
  5
4E
330
1F
100
AcDbEntity
  8
Layer 1
 62
     7
420
 16777215
370
    70
100
AcDbSpline
210
0.0
220
0.0
230
1.0
 70
     8
 71
     3
 72
     8
 73
     4
 74
     0
 42
0.0000000001
 43
0.0000000001
 40
0.0
 40
0.0
 40
0.0
 40
0.0
 40
1.0
 40
1.0
 40
1.0
 40
1.0
 10
2.25
 20
-0.4930555555555555
 30
0.0
 10
2.226250542534722
 20
-0.5321723090277778
 30
0.0
 10
2.197333441840278
 20
-0.5626966688368055
 30
0.0
 10
2.145833333333333
 20
-0.5555555555555556
 30
0.0
  0
SPLINE
  5
4F
330
1F
100
AcDbEntity
  8
Layer 1
 62
     7
420
 16777215
370
    70
100
AcDbSpline
210
0.0
220
0.0
230
1.0
 70
     8
 71
     3
 72
     8
 73
     4
 74
     0
 42
0.0000000001
 43
0.0000000001
 40
0.0
 40
0.0
 40
0.0
 40
0.0
 40
1.0
 40
1.0
 40
1.0
 40
1.0
 10
1.75
 20
-1.840277777777778
 30
0.0
 10
1.766208224826389
 20
-1.898139105902778
 30
0.0
 10
1.782402886284722
 20
-1.956027560763889
 30
0.0
 10
1.798611111111111
 20
-2.013888888888889
 30
0.0
  0
SPLINE
  5
50
330
1F
100
AcDbEntity
  8
Layer 1
 62
     7
420
 16777215
370
    70
100
AcDbSpline
210
0.0
220
0.0
230
1.0
 70
     8
 71
     3
 72
     8
 73
     4
 74
     0
 42
0.0000000001
 43
0.0000000001
 40
0.0
 40
0.0
 40
0.0
 40
0.0
 40
1.0
 40
1.0
 40
1.0
 40
1.0
 10
0.861111111111111
 20
-1.770833333333333
 30
0.0
 10
0.8518541124131944
 20
-1.817138671875
 30
0.0
 10
0.84259033203125
 20
-1.863416883680555
 30
0.0
 10
0.8333333333333333
 20
-1.909722222222222
 30
0.0
  0
INSERT
  5
52
330
1F
100
AcDbEntity
  8
Layer 1
100
AcDbBlockReference
  2
block 2
 10
0.0
 20
0.0
 30
0.0
  0
ENDSEC
  0
SECTION
  2
OBJECTS
  0
DICTIONARY
  5
C
330
0
100
AcDbDictionary
281
     1
  3
ACAD_GROUP
350
D
  3
ACAD_LAYOUT
350
1A
  3
ACAD_MLINESTYLE
350
17
  3
ACAD_PLOTSETTINGS
350
19
  3
ACAD_PLOTSTYLENAME
350
E
  3
ACAD_TABLESTYLE
350
70
  3
ACAD_VISUALSTYLE
350
2A
  0
DICTIONARY
  5
D
102
{ACAD_REACTORS
330
C
102
}
330
C
100
AcDbDictionary
281
     1
  0
DICTIONARY
  5
1A
102
{ACAD_REACTORS
330
C
102
}
330
C
100
AcDbDictionary
281
     1
  3
Layout1
350
1E
  3
Layout2
350
26
  3
Model
350
22
  0
DICTIONARY
  5
17
102
{ACAD_REACTORS
330
C
102
}
330
C
100
AcDbDictionary
281
     1
  3
Standard
350
18
  0
DICTIONARY
  5
19
102
{ACAD_REACTORS
330
C
102
}
330
C
100
AcDbDictionary
281
     1
  0
ACDBDICTIONARYWDFLT
  5
E
102
{ACAD_REACTORS
330
C
102
}
330
C
100
AcDbDictionary
281
     1
  3
Normal
350
F
100
AcDbDictionaryWithDefault
340
F
  0
DICTIONARY
  5
70
102
{ACAD_REACTORS
330
C
102
}
330
C
100
AcDbDictionary
281
     1
  0
DICTIONARY
  5
2A
102
{ACAD_REACTORS
330
C
102
}
330
C
100
AcDbDictionary
281
     1
  3
2dWireframe
350
2F
  3
3D Hidden
350
31
  3
3dWireframe
350
30
  3
Basic
350
32
  3
Brighten
350
36
  3
ColorChange
350
3A
  3
Conceptual
350
34
  3
Dim
350
35
  3
Facepattern
350
39
  3
Flat
350
2B
  3
FlatWithEdges
350
2C
  3
Gouraud
350
2D
  3
GouraudWithEdges
350
2E
  3
Linepattern
350
38
  3
Realistic
350
33
  3
Thicken
350
37
  0
LAYOUT
  5
1E
102
{ACAD_REACTORS
330
1A
102
}
330
1A
100
AcDbPlotSettings
  1

  2
none_device
  4

  6

 40
0.0
 41
0.0
 42
0.0
 43
0.0
 44
0.0
 45
0.0
 46
0.0
 47
0.0
 48
0.0
 49
0.0
140
0.0
141
0.0
142
1.0
143
1.0
 70
   688
 72
     0
 73
     0
 74
     5
  7

 75
    16
 76
     0
 77
     2
 78
   300
147
1.0
148
0.0
149
0.0
100
AcDbLayout
  1
Layout1
 70
     1
 71
     1
 10
0.0
 20
0.0
 11
12.0
 21
9.0
 12
0.0
 22
0.0
 32
0.0
 14
1.000000000000000E+20
 24
1.000000000000000E+20
 34
1.000000000000000E+20
 15
-1.000000000000000E+20
 25
-1.000000000000000E+20
 35
-1.000000000000000E+20
146
0.0
 13
0.0
 23
0.0
 33
0.0
 16
1.0
 26
0.0
 36
0.0
 17
0.0
 27
1.0
 37
0.0
 76
     0
330
1B
  0
LAYOUT
  5
26
102
{ACAD_REACTORS
330
1A
102
}
330
1A
100
AcDbPlotSettings
  1

  2
none_device
  4

  6

 40
0.0
 41
0.0
 42
0.0
 43
0.0
 44
0.0
 45
0.0
 46
0.0
 47
0.0
 48
0.0
 49
0.0
140
0.0
141
0.0
142
1.0
143
1.0
 70
   688
 72
     0
 73
     0
 74
     5
  7

 75
    16
 76
     0
 77
     2
 78
   300
147
1.0
148
0.0
149
0.0
100
AcDbLayout
  1
Layout2
 70
     1
 71
     2
 10
0.0
 20
0.0
 11
0.0
 21
0.0
 12
0.0
 22
0.0
 32
0.0
 14
0.0
 24
0.0
 34
0.0
 15
0.0
 25
0.0
 35
0.0
146
0.0
 13
0.0
 23
0.0
 33
0.0
 16
1.0
 26
0.0
 36
0.0
 17
0.0
 27
1.0
 37
0.0
 76
     0
330
23
  0
LAYOUT
  5
22
102
{ACAD_REACTORS
330
1A
102
}
330
1A
100
AcDbPlotSettings
  1

  2
none_device
  4

  6

 40
0.0
 41
0.0
 42
0.0
 43
0.0
 44
0.0
 45
0.0
 46
0.0
 47
0.0
 48
0.0
 49
0.0
140
0.0
141
0.0
142
1.0
143
1.0
 70
  1712
 72
     0
 73
     0
 74
     0
  7

 75
     0
 76
     0
 77
     2
 78
   300
147
1.0
148
0.0
149
0.0
100
AcDbLayout
  1
Model
 70
     1
 71
     0
 10
0.0
 20
0.0
 11
12.0
 21
9.0
 12
0.0
 22
0.0
 32
0.0
 14
1.000000000000000E+20
 24
1.000000000000000E+20
 34
1.000000000000000E+20
 15
-1.000000000000000E+20
 25
-1.000000000000000E+20
 35
-1.000000000000000E+20
146
0.0
 13
0.0
 23
0.0
 33
0.0
 16
1.0
 26
0.0
 36
0.0
 17
0.0
 27
1.0
 37
0.0
 76
     0
330
1F
331
29
  0
MLINESTYLE
  5
18
102
{ACAD_REACTORS
330
17
102
}
330
17
100
AcDbMlineStyle
  2
Standard
 70
     0
  3

 62
   256
 51
90.0
 52
90.0
 71
     2
 49
0.5
 62
   256
  6
BYLAYER
 49
-0.5
 62
   256
  6
BYLAYER
  0
ACDBPLACEHOLDER
  5
F
102
{ACAD_REACTORS
330
E
102
}
330
E
  0
VISUALSTYLE
  5
2F
102
{ACAD_REACTORS
330
2A
102
}
330
2A
100
AcDbVisualStyle
  2
2dWireframe
 70
     4
 71
     0
 72
     2
 73
     0
 90
        0
 40
-0.6
 41
-30.0
 62
     5
 63
     7
421
 16777215
 74
     1
 91
        4
 64
     7
 65
   257
 75
     1
175
     1
 42
1.0
 92
        0
 66
   257
 43
1.0
 76
     1
 77
     6
 78
     2
 67
     7
 79
     5
170
     0
171
     0
290
     0
174
     0
 93
        1
 44
0.0
173
     0
291
     0
 45
0.0
1001
ACAD
1000
AcDbSavedByObjectVersion
1070
     0
  0
VISUALSTYLE
  5
31
102
{ACAD_REACTORS
330
2A
102
}
330
2A
100
AcDbVisualStyle
  2
3D Hidden
 70
     6
 71
     1
 72
     2
 73
     2
 90
        0
 40
-0.6
 41
-30.0
 62
     5
 63
     7
421
 16777215
 74
     2
 91
        2
 64
     7
 65
   257
 75
     2
175
     1
 42
40.0
 92
        0
 66
   257
 43
1.0
 76
     1
 77
     6
 78
     2
 67
     7
 79
     3
170
     0
171
     0
290
     0
174
     0
 93
        1
 44
0.0
173
     0
291
     0
 45
0.0
1001
ACAD
1000
AcDbSavedByObjectVersion
1070
     0
  0
VISUALSTYLE
  5
30
102
{ACAD_REACTORS
330
2A
102
}
330
2A
100
AcDbVisualStyle
  2
3dWireframe
 70
     5
 71
     0
 72
     2
 73
     0
 90
        0
 40
-0.6
 41
-30.0
 62
     5
 63
     7
421
 16777215
 74
     1
 91
        4
 64
     7
 65
   257
 75
     1
175
     1
 42
1.0
 92
        0
 66
   257
 43
1.0
 76
     1
 77
     6
 78
     2
 67
     7
 79
     5
170
     0
171
     0
290
     0
174
     0
 93
        1
 44
0.0
173
     0
291
     0
 45
0.0
1001
ACAD
1000
AcDbSavedByObjectVersion
1070
     0
  0
VISUALSTYLE
  5
32
102
{ACAD_REACTORS
330
2A
102
}
330
2A
100
AcDbVisualStyle
  2
Basic
 70
     7
 71
     1
 72
     0
 73
     1
 90
        0
 40
-0.6
 41
-30.0
 62
     5
 63
     7
421
 16777215
 74
     0
 91
        4
 64
     7
 65
   257
 75
     1
175
     1
 42
1.0
 92
        8
 66
     7
 43
1.0
 76
     1
 77
     6
 78
     2
 67
     7
 79
     5
170
     0
171
     0
290
     0
174
     0
 93
        1
 44
0.0
173
     0
291
     1
 45
0.0
1001
ACAD
1000
AcDbSavedByObjectVersion
1070
     0
  0
VISUALSTYLE
  5
36
102
{ACAD_REACTORS
330
2A
102
}
330
2A
100
AcDbVisualStyle
  2
Brighten
 70
    12
 71
     2
 72
     2
 73
     0
 90
        0
 40
-0.6
 41
-30.0
 62
     5
 63
     7
421
 16777215
 74
     1
 91
        4
 64
     7
 65
   257
 75
     1
175
     1
 42
1.0
 92
        8
 66
     7
 43
1.0
 76
     1
 77
     6
 78
     2
 67
     7
 79
     5
170
     0
171
     0
290
     0
174
     0
 93
        1
 44
50.0
173
     0
291
     1
 45
0.0
1001
ACAD
1000
AcDbSavedByObjectVersion
1070
     0
  0
VISUALSTYLE
  5
3A
102
{ACAD_REACTORS
330
2A
102
}
330
2A
100
AcDbVisualStyle
  2
ColorChange
 70
    16
 71
     2
 72
     2
 73
     3
 90
        0
 40
-0.6
 41
-30.0
 62
     5
 63
     8
421
  8421504
 74
     1
 91
        4
 64
     7
 65
   257
 75
     1
175
     1
 42
1.0
 92
        8
 66
     8
424
  8421504
 43
1.0
 76
     1
 77
     6
 78
     2
 67
     7
 79
     5
170
     0
171
     0
290
     0
174
     0
 93
        1
 44
0.0
173
     0
291
     1
 45
0.0
1001
ACAD
1000
AcDbSavedByObjectVersion
1070
     0
  0
VISUALSTYLE
  5
34
102
{ACAD_REACTORS
330
2A
102
}
330
2A
100
AcDbVisualStyle
  2
Conceptual
 70
     9
 71
     3
 72
     2
 73
     0
 90
        0
 40
-0.6
 41
-30.0
 62
     5
 63
     7
421
 16777215
 74
     2
 91
        2
 64
     7
 65
   257
 75
     1
175
     1
 42
40.0
 92
        8
 66
     7
 43
1.0
 76
     1
 77
     6
 78
     2
 67
     7
 79
     3
170
     0
171
     0
290
     0
174
     0
 93
        1
 44
0.0
173
     0
291
     0
 45
0.0
1001
ACAD
1000
AcDbSavedByObjectVersion
1070
     0
  0
VISUALSTYLE
  5
35
102
{ACAD_REACTORS
330
2A
102
}
330
2A
100
AcDbVisualStyle
  2
Dim
 70
    11
 71
     2
 72
     2
 73
     0
 90
        0
 40
-0.6
 41
-30.0
 62
     5
 63
     7
421
 16777215
 74
     1
 91
        4
 64
     7
 65
   257
 75
     1
175
     1
 42
1.0
 92
        8
 66
     7
 43
1.0
 76
     1
 77
     6
 78
     2
 67
     7
 79
     5
170
     0
171
     0
290
     0
174
     0
 93
        1
 44
-50.0
173
     0
291
     1
 45
0.0
1001
ACAD
1000
AcDbSavedByObjectVersion
1070
     0
  0
VISUALSTYLE
  5
39
102
{ACAD_REACTORS
330
2A
102
}
330
2A
100
AcDbVisualStyle
  2
Facepattern
 70
    15
 71
     2
 72
     2
 73
     0
 90
        0
 40
-0.6
 41
-30.0
 62
     5
 63
     7
421
 16777215
 74
     1
 91
        4
 64
     7
 65
   257
 75
     1
175
     1
 42
1.0
 92
        8
 66
     7
 43
1.0
 76
     1
 77
     6
 78
     2
 67
     7
 79
     5
170
     0
171
     0
290
     0
174
     0
 93
        1
 44
0.0
173
     0
291
     1
 45
0.0
1001
ACAD
1000
AcDbSavedByObjectVersion
1070
     0
  0
VISUALSTYLE
  5
2B
102
{ACAD_REACTORS
330
2A
102
}
330
2A
100
AcDbVisualStyle
  2
Flat
 70
     0
 71
     2
 72
     1
 73
     1
 90
        2
 40
-0.6
 41
30.0
 62
     5
 63
     7
421
 16777215
 74
     0
 91
        4
 64
     7
 65
   257
 75
     1
175
     1
 42
1.0
 92
        8
 66
     7
 43
1.0
 76
     1
 77
     6
 78
     2
 67
     7
 79
     5
170
     0
171
     0
290
     0
174
     0
 93
       13
 44
0.0
173
     0
291
     1
 45
0.0
1001
ACAD
1000
AcDbSavedByObjectVersion
1070
     0
  0
VISUALSTYLE
  5
2C
102
{ACAD_REACTORS
330
2A
102
}
330
2A
100
AcDbVisualStyle
  2
FlatWithEdges
 70
     1
 71
     2
 72
     1
 73
     1
 90
        2
 40
-0.6
 41
30.0
 62
     5
 63
     7
421
 16777215
 74
     1
 91
        4
 64
     7
 65
   257
 75
     1
175
     1
 42
1.0
 92
        0
 66
   257
 43
1.0
 76
     1
 77
     6
 78
     2
 67
     7
 79
     5
170
     0
171
     0
290
     0
174
     0
 93
       13
 44
0.0
173
     0
291
     1
 45
0.0
1001
ACAD
1000
AcDbSavedByObjectVersion
1070
     0
  0
VISUALSTYLE
  5
2D
102
{ACAD_REACTORS
330
2A
102
}
330
2A
100
AcDbVisualStyle
  2
Gouraud
 70
     2
 71
     2
 72
     2
 73
     1
 90
        2
 40
-0.6
 41
30.0
 62
     5
 63
     7
421
 16777215
 74
     0
 91
        4
 64
     7
 65
   257
 75
     1
175
     1
 42
1.0
 92
        0
 66
     7
 43
1.0
 76
     1
 77
     6
 78
     2
 67
     7
 79
     5
170
     0
171
     0
290
     0
174
     0
 93
       13
 44
0.0
173
     0
291
     1
 45
0.0
1001
ACAD
1000
AcDbSavedByObjectVersion
1070
     0
  0
VISUALSTYLE
  5
2E
102
{ACAD_REACTORS
330
2A
102
}
330
2A
100
AcDbVisualStyle
  2
GouraudWithEdges
 70
     3
 71
     2
 72
     2
 73
     1
 90
        2
 40
-0.6
 41
30.0
 62
     5
 63
     7
421
 16777215
 74
     1
 91
        4
 64
     7
 65
   257
 75
     1
175
     1
 42
1.0
 92
        0
 66
   257
 43
1.0
 76
     1
 77
     6
 78
     2
 67
     7
 79
     5
170
     0
171
     0
290
     0
174
     0
 93
       13
 44
0.0
173
     0
291
     1
 45
0.0
1001
ACAD
1000
AcDbSavedByObjectVersion
1070
     0
  0
VISUALSTYLE
  5
38
102
{ACAD_REACTORS
330
2A
102
}
330
2A
100
AcDbVisualStyle
  2
Linepattern
 70
    14
 71
     2
 72
     2
 73
     0
 90
        0
 40
-0.6
 41
-30.0
 62
     5
 63
     7
421
 16777215
 74
     1
 91
        4
 64
     7
 65
   257
 75
     7
175
     7
 42
1.0
 92
        8
 66
     7
 43
1.0
 76
     1
 77
     6
 78
     2
 67
     7
 79
     5
170
     0
171
     0
290
     0
174
     0
 93
        1
 44
0.0
173
     0
291
     1
 45
0.0
1001
ACAD
1000
AcDbSavedByObjectVersion
1070
     0
  0
VISUALSTYLE
  5
33
102
{ACAD_REACTORS
330
2A
102
}
330
2A
100
AcDbVisualStyle
  2
Realistic
 70
     8
 71
     2
 72
     2
 73
     0
 90
        0
 40
-0.6
 41
-30.0
 62
     5
 63
     7
421
 16777215
 74
     1
 91
        0
 64
     7
 65
   257
 75
     1
175
     1
 42
1.0
 92
        8
 66
     8
424
  7895160
 43
1.0
 76
     1
 77
     6
 78
     2
 67
     7
 79
     5
170
     0
171
     0
290
     0
174
     0
 93
       13
 44
0.0
173
     0
291
     0
 45
0.0
1001
ACAD
1000
AcDbSavedByObjectVersion
1070
     0
  0
VISUALSTYLE
  5
37
102
{ACAD_REACTORS
330
2A
102
}
330
2A
100
AcDbVisualStyle
  2
Thicken
 70
    13
 71
     2
 72
     2
 73
     0
 90
        0
 40
-0.6
 41
-30.0
 62
     5
 63
     7
421
 16777215
 74
     1
 91
        4
 64
     7
 65
   257
 75
     1
175
     1
 42
1.0
 92
       12
 66
     7
 43
1.0
 76
     1
 77
     6
 78
     2
 67
     7
 79
     5
170
     0
171
     0
290
     0
174
     0
 93
        1
 44
0.0
173
     0
291
     1
 45
0.0
1001
ACAD
1000
AcDbSavedByObjectVersion
1070
     0
  0
ENDSEC
  0
EOF
