  0
SECTION
  2
HEADER
  9
$ACADVER
  1
AC1018
  9
$ACADMAINTVER
 70
     0
  9
$DWGCODEPAGE
  3
ANSI_1252
  9
$INSBASE
 10
0.0
 20
0.0
 30
0.0
  9
$EXTMIN
 10
1.000000000000000E+20
 20
1.000000000000000E+20
 30
1.000000000000000E+20
  9
$EXTMAX
 10
-1.000000000000000E+20
 20
-1.000000000000000E+20
 30
-1.000000000000000E+20
  9
$LIMMIN
 10
0.0
 20
0.0
  9
$LIMMAX
 10
12.0
 20
9.0
  9
$ORTHOMODE
 70
     0
  9
$REGENMODE
 70
     1
  9
$FILLMODE
 70
     1
  9
$QTEXTMODE
 70
     0
  9
$MIRRTEXT
 70
     1
  9
$LTSCALE
 40
1.0
  9
$ATTMODE
 70
     1
  9
$TEXTSIZE
 40
0.2
  9
$TRACEWID
 40
0.05
  9
$TEXTSTYLE
  7
Standard
  9
$CLAYER
  8
0
  9
$CELTYPE
  6
ByLayer
  9
$CECOLOR
 62
   256
  9
$CELTSCALE
 40
1.0
  9
$DISPSILH
 70
     0
  9
$DIMSCALE
 40
1.0
  9
$DIMASZ
 40
0.18
  9
$DIMEXO
 40
0.0625
  9
$DIMDLI
 40
0.38
  9
$DIMRND
 40
0.0
  9
$DIMDLE
 40
0.0
  9
$DIMEXE
 40
0.18
  9
$DIMTP
 40
0.0
  9
$DIMTM
 40
0.0
  9
$DIMTXT
 40
0.18
  9
$DIMCEN
 40
0.09
  9
$DIMTSZ
 40
0.0
  9
$DIMTOL
 70
     0
  9
$DIMLIM
 70
     0
  9
$DIMTIH
 70
     1
  9
$DIMTOH
 70
     1
  9
$DIMSE1
 70
     0
  9
$DIMSE2
 70
     0
  9
$DIMTAD
 70
     0
  9
$DIMZIN
 70
     0
  9
$DIMBLK
  1

  9
$DIMASO
 70
     1
  9
$DIMSHO
 70
     1
  9
$DIMPOST
  1

  9
$DIMAPOST
  1

  9
$DIMALT
 70
     0
  9
$DIMALTD
 70
     2
  9
$DIMALTF
 40
25.4
  9
$DIMLFAC
 40
1.0
  9
$DIMTOFL
 70
     0
  9
$DIMTVP
 40
0.0
  9
$DIMTIX
 70
     0
  9
$DIMSOXD
 70
     0
  9
$DIMSAH
 70
     0
  9
$DIMBLK1
  1

  9
$DIMBLK2
  1

  9
$DIMSTYLE
  2
Standard
  9
$DIMCLRD
 70
     0
  9
$DIMCLRE
 70
     0
  9
$DIMCLRT
 70
     0
  9
$DIMTFAC
 40
1.0
  9
$DIMGAP
 40
0.09
  9
$DIMJUST
 70
     0
  9
$DIMSD1
 70
     0
  9
$DIMSD2
 70
     0
  9
$DIMTOLJ
 70
     1
  9
$DIMTZIN
 70
     0
  9
$DIMALTZ
 70
     0
  9
$DIMALTTZ
 70
     0
  9
$DIMUPT
 70
     0
  9
$DIMDEC
 70
     4
  9
$DIMTDEC
 70
     4
  9
$DIMALTU
 70
     2
  9
$DIMALTTD
 70
     2
  9
$DIMTXSTY
  7
Standard
  9
$DIMAUNIT
 70
     0
  9
$DIMADEC
 70
     0
  9
$DIMALTRND
 40
0.0
  9
$DIMAZIN
 70
     0
  9
$DIMDSEP
 70
    46
  9
$DIMATFIT
 70
     3
  9
$DIMFRAC
 70
     0
  9
$DIMLDRBLK
  1

  9
$DIMLUNIT
 70
     2
  9
$DIMLWD
 70
    -2
  9
$DIMLWE
 70
    -2
  9
$DIMTMOVE
 70
     0
  9
$LUNITS
 70
     2
  9
$LUPREC
 70
     4
  9
$SKETCHINC
 40
0.1
  9
$FILLETRAD
 40
0.5
  9
$AUNITS
 70
     0
  9
$AUPREC
 70
     0
  9
$MENU
  1
.
  9
$ELEVATION
 40
0.0
  9
$PELEVATION
 40
0.0
  9
$THICKNESS
 40
0.0
  9
$LIMCHECK
 70
     0
  9
$CHAMFERA
 40
0.5
  9
$CHAMFERB
 40
0.5
  9
$CHAMFERC
 40
1.0
  9
$CHAMFERD
 40
0.0
  9
$SKPOLY
 70
     0
  9
$TDCREATE
 40
2456550.674422211
  9
$TDUCREATE
 40
2456550.966088878
  9
$TDUPDATE
 40
2456550.674422222
  9
$TDUUPDATE
 40
2456550.966088889
  9
$TDINDWG
 40
0.0000000116
  9
$TDUSRTIMER
 40
0.0000000116
  9
$USRTIMER
 70
     1
  9
$ANGBASE
 50
0.0
  9
$ANGDIR
 70
     0
  9
$PDMODE
 70
     0
  9
$PDSIZE
 40
0.0
  9
$PLINEWID
 40
0.0
  9
$SPLFRAME
 70
     0
  9
$SPLINETYPE
 70
     6
  9
$SPLINESEGS
 70
     8
  9
$HANDSEED
  5
6D
  9
$SURFTAB1
 70
     6
  9
$SURFTAB2
 70
     6
  9
$SURFTYPE
 70
     6
  9
$SURFU
 70
     6
  9
$SURFV
 70
     6
  9
$UCSBASE
  2

  9
$UCSNAME
  2

  9
$UCSORG
 10
0.0
 20
0.0
 30
0.0
  9
$UCSXDIR
 10
1.0
 20
0.0
 30
0.0
  9
$UCSYDIR
 10
0.0
 20
1.0
 30
0.0
  9
$UCSORTHOREF
  2

  9
$UCSORTHOVIEW
 70
     0
  9
$UCSORGTOP
 10
0.0
 20
0.0
 30
0.0
  9
$UCSORGBOTTOM
 10
0.0
 20
0.0
 30
0.0
  9
$UCSORGLEFT
 10
0.0
 20
0.0
 30
0.0
  9
$UCSORGRIGHT
 10
0.0
 20
0.0
 30
0.0
  9
$UCSORGFRONT
 10
0.0
 20
0.0
 30
0.0
  9
$UCSORGBACK
 10
0.0
 20
0.0
 30
0.0
  9
$PUCSBASE
  2

  9
$PUCSNAME
  2

  9
$PUCSORG
 10
0.0
 20
0.0
 30
0.0
  9
$PUCSXDIR
 10
1.0
 20
0.0
 30
0.0
  9
$PUCSYDIR
 10
0.0
 20
1.0
 30
0.0
  9
$PUCSORTHOREF
  2

  9
$PUCSORTHOVIEW
 70
     0
  9
$PUCSORGTOP
 10
0.0
 20
0.0
 30
0.0
  9
$PUCSORGBOTTOM
 10
0.0
 20
0.0
 30
0.0
  9
$PUCSORGLEFT
 10
0.0
 20
0.0
 30
0.0
  9
$PUCSORGRIGHT
 10
0.0
 20
0.0
 30
0.0
  9
$PUCSORGFRONT
 10
0.0
 20
0.0
 30
0.0
  9
$PUCSORGBACK
 10
0.0
 20
0.0
 30
0.0
  9
$USERI1
 70
     0
  9
$USERI2
 70
     0
  9
$USERI3
 70
     0
  9
$USERI4
 70
     0
  9
$USERI5
 70
     0
  9
$USERR1
 40
0.0
  9
$USERR2
 40
0.0
  9
$USERR3
 40
0.0
  9
$USERR4
 40
0.0
  9
$USERR5
 40
0.0
  9
$WORLDVIEW
 70
     1
  9
$SHADEDGE
 70
     3
  9
$SHADEDIF
 70
    70
  9
$TILEMODE
 70
     1
  9
$MAXACTVP
 70
    64
  9
$PINSBASE
 10
0.0
 20
0.0
 30
0.0
  9
$PLIMCHECK
 70
     0
  9
$PEXTMIN
 10
1.000000000000000E+20
 20
1.000000000000000E+20
 30
1.000000000000000E+20
  9
$PEXTMAX
 10
-1.000000000000000E+20
 20
-1.000000000000000E+20
 30
-1.000000000000000E+20
  9
$PLIMMIN
 10
0.0
 20
0.0
  9
$PLIMMAX
 10
12.0
 20
9.0
  9
$UNITMODE
 70
     0
  9
$VISRETAIN
 70
     1
  9
$PLINEGEN
 70
     0
  9
$PSLTSCALE
 70
     1
  9
$TREEDEPTH
 70
  3020
  9
$CMLSTYLE
  2
Standard
  9
$CMLJUST
 70
     0
  9
$CMLSCALE
 40
1.0
  9
$PROXYGRAPHICS
 70
     1
  9
$MEASUREMENT
 70
     0
  9
$CELWEIGHT
370
    -1
  9
$ENDCAPS
280
     0
  9
$JOINSTYLE
280
     0
  9
$LWDISPLAY
290
     1
  9
$INSUNITS
 70
     1
  9
$HYPERLINKBASE
  1

  9
$STYLESHEET
  1

  9
$XEDIT
290
     1
  9
$CEPSNTYPE
380
     0
  9
$PSTYLEMODE
290
     1
  9
$FINGERPRINTGUID
  2
{5D1FA392-2CC9-44C6-85A8-87E171183636}
  9
$VERSIONGUID
  2
{FAEB1C32-E019-11D5-929B-00C0DF256EC4}
  9
$EXTNAMES
290
     1
  9
$PSVPSCALE
 40
0.0
  9
$OLESTARTUP
290
     0
  9
$SORTENTS
280
   127
  9
$INDEXCTL
280
     0
  9
$HIDETEXT
280
     1
  9
$XCLIPFRAME
290
     0
  9
$HALOGAP
280
     0
  9
$OBSCOLOR
 70
   257
  9
$OBSLTYPE
280
     0
  9
$INTERSECTIONDISPLAY
280
     0
  9
$INTERSECTIONCOLOR
 70
   257
  9
$DIMASSOC
280
     2
  9
$PROJECTNAME
  1

  0
ENDSEC
  0
SECTION
  2
CLASSES
  0
CLASS
  1
ACDBDICTIONARYWDFLT
  2
AcDbDictionaryWithDefault
  3
ObjectDBX Classes
 90
        0
 91
        3
280
     0
281
     0
  0
CLASS
  1
VISUALSTYLE
  2
AcDbVisualStyle
  3
ObjectDBX Classes
 90
     4095
 91
        3
280
     0
281
     0
  0
ENDSEC
  0
SECTION
  2
TABLES
  0
TABLE
  2
VPORT
  5
8
330
0
100
AcDbSymbolTable
 70
     1
  0
VPORT
  5
29
330
8
100
AcDbSymbolTableRecord
100
AcDbViewportTableRecord
  2
*Active
 70
     0
 10
0.0
 20
0.0
 11
1.0
 21
1.0
 12
0.0
 22
0.0
 13
0.0
 23
0.0
 14
0.5
 24
0.5
 15
0.5
 25
0.5
 16
0.0
 26
0.0
 36
1.0
 17
1.5
 27
-3.5
 37
0.0
 40
7.0
 41
0.4285714285714285
 42
50.0
 43
0.0
 44
0.0
 50
0.0
 51
0.0
 71
     0
 72
   100
 73
     1
 74
     3
 75
     0
 76
     0
 77
     0
 78
     0
281
     0
 65
     1
110
0.0
120
0.0
130
0.0
111
1.0
121
0.0
131
0.0
112
0.0
122
1.0
132
0.0
 79
     0
146
0.0
  0
ENDTAB
  0
TABLE
  2
LTYPE
  5
5
330
0
100
AcDbSymbolTable
 70
     1
  0
LTYPE
  5
14
330
5
100
AcDbSymbolTableRecord
100
AcDbLinetypeTableRecord
  2
ByBlock
 70
     0
  3

 72
    65
 73
     0
 40
0.0
  0
LTYPE
  5
15
330
5
100
AcDbSymbolTableRecord
100
AcDbLinetypeTableRecord
  2
ByLayer
 70
     0
  3

 72
    65
 73
     0
 40
0.0
  0
LTYPE
  5
16
330
5
100
AcDbSymbolTableRecord
100
AcDbLinetypeTableRecord
  2
Continuous
 70
     0
  3
Solid line
 72
    65
 73
     0
 40
0.0
  0
ENDTAB
  0
TABLE
  2
LAYER
  5
2
330
0
100
AcDbSymbolTable
 70
     2
  0
LAYER
  5
10
330
2
100
AcDbSymbolTableRecord
100
AcDbLayerTableRecord
  2
0
 70
     0
 62
     7
  6
Continuous
370
    -3
390
F
  0
LAYER
  5
3B
330
2
100
AcDbSymbolTableRecord
100
AcDbLayerTableRecord
  2
Layer 1
 70
     0
 62
     7
  6
Continuous
370
    -3
390
F
  0
ENDTAB
  0
TABLE
  2
STYLE
  5
3
330
0
100
AcDbSymbolTable
 70
     1
  0
STYLE
  5
11
330
3
100
AcDbSymbolTableRecord
100
AcDbTextStyleTableRecord
  2
Standard
 70
     0
 40
0.0
 41
1.0
 50
0.0
 71
     0
 42
0.2
  3
txt
  4

  0
ENDTAB
  0
TABLE
  2
VIEW
  5
6
330
0
100
AcDbSymbolTable
 70
     0
  0
ENDTAB
  0
TABLE
  2
UCS
  5
7
330
0
100
AcDbSymbolTable
 70
     0
  0
ENDTAB
  0
TABLE
  2
APPID
  5
9
330
0
100
AcDbSymbolTable
 70
     1
  0
APPID
  5
12
330
9
100
AcDbSymbolTableRecord
100
AcDbRegAppTableRecord
  2
ACAD
 70
     0
  0
ENDTAB
  0
TABLE
  2
DIMSTYLE
  5
A
330
0
100
AcDbSymbolTable
 70
     1
100
AcDbDimStyleTable
  0
DIMSTYLE
105
27
330
A
100
AcDbSymbolTableRecord
100
AcDbDimStyleTableRecord
  2
Standard
 70
     0
340
11
  0
ENDTAB
  0
TABLE
  2
BLOCK_RECORD
  5
1
330
0
100
AcDbSymbolTable
 70
     1
  0
BLOCK_RECORD
  5
1F
330
1
100
AcDbSymbolTableRecord
100
AcDbBlockTableRecord
  2
*Model_Space
340
22
  0
BLOCK_RECORD
  5
1B
330
1
100
AcDbSymbolTableRecord
100
AcDbBlockTableRecord
  2
*Paper_Space
340
1E
  0
BLOCK_RECORD
  5
23
330
1
100
AcDbSymbolTableRecord
100
AcDbBlockTableRecord
  2
*Paper_Space0
340
26
  0
ENDTAB
  0
ENDSEC
  0
SECTION
  2
BLOCKS
  0
BLOCK
  5
20
330
1F
100
AcDbEntity
  8
0
100
AcDbBlockBegin
  2
*Model_Space
 70
     0
 71
     0
 10
0.0
 20
0.0
 30
0.0
  3
*Model_Space
  1

  0
ENDBLK
  5
21
330
1F
100
AcDbEntity
  8
0
100
AcDbBlockEnd
  0
BLOCK
  5
1C
330
1B
100
AcDbEntity
 67
     1
  8
0
100
AcDbBlockBegin
  2
*Paper_Space
 70
     0
 71
     0
 10
0.0
 20
0.0
 30
0.0
  3
*Paper_Space
  1

  0
ENDBLK
  5
1D
330
1B
100
AcDbEntity
 67
     1
  8
0
100
AcDbBlockEnd
  0
BLOCK
  5
24
330
23
100
AcDbEntity
  8
0
100
AcDbBlockBegin
  2
*Paper_Space0
 70
     0
 71
     0
 10
0.0
 20
0.0
 30
0.0
  3
*Paper_Space0
  1

  0
ENDBLK
  5
25
330
23
100
AcDbEntity
  8
0
100
AcDbBlockEnd
  0
ENDSEC
  0
SECTION
  2
ENTITIES
  0
SPLINE
  5
3C
330
1F
100
AcDbEntity
  8
Layer 1
 62
   250
420
  2301728
370
    35
100
AcDbSpline
210
0.0
220
0.0
230
1.0
 70
    11
 71
     3
 72
    20
 73
    16
 74
     0
 42
0.0000000001
 43
0.0000000001
 40
0.0
 40
0.0
 40
0.0
 40
0.0
 40
1.0
 40
1.0
 40
1.0
 40
2.0
 40
2.0
 40
2.0
 40
3.0
 40
3.0
 40
3.0
 40
4.0
 40
4.0
 40
4.0
 40
5.0
 40
5.0
 40
5.0
 40
5.0
 10
1.5
 20
-0.25
 30
0.0
 10
0.9477132161458333
 20
-0.25
 30
0.0
 10
0.5
 20
-0.6977132161458333
 30
0.0
 10
0.5
 20
-1.25
 30
0.0
 10
0.5
 20
-1.25
 30
0.0
 10
0.5
 20
-6.25
 30
0.0
 10
0.5
 20
-6.25
 30
0.0
 10
0.5
 20
-6.25
 30
0.0
 10
2.5
 20
-6.25
 30
0.0
 10
2.5
 20
-6.25
 30
0.0
 10
2.5
 20
-6.25
 30
0.0
 10
2.5
 20
-1.25
 30
0.0
 10
2.5
 20
-1.25
 30
0.0
 10
2.5
 20
-0.6977132161458333
 30
0.0
 10
2.052286783854167
 20
-0.25
 30
0.0
 10
1.5
 20
-0.25
 30
0.0
  0
SPLINE
  5
3D
330
1F
100
AcDbEntity
  8
Layer 1
370
     0
100
AcDbSpline
210
0.0
220
0.0
230
1.0
 70
    11
 71
     3
 72
    17
 73
    13
 74
     0
 42
0.0000000001
 43
0.0000000001
 40
0.0
 40
0.0
 40
0.0
 40
0.0
 40
1.0
 40
1.0
 40
1.0
 40
2.0
 40
2.0
 40
2.0
 40
3.0
 40
3.0
 40
3.0
 40
4.0
 40
4.0
 40
4.0
 40
4.0
 10
-0.3194444444444444
 20
-3.291666666666667
 30
0.0
 10
-0.3194444444444444
 20
-1.902777777777778
 30
0.0
 10
-0.3194444444444444
 20
-0.5138888888888888
 30
0.0
 10
-0.3194444444444444
 20
0.875
 30
0.0
 10
0.953701443142361
 20
0.875
 30
0.0
 10
2.226847330729167
 20
0.875
 30
0.0
 10
3.5
 20
0.875
 30
0.0
 10
3.5
 20
-0.5138888888888888
 30
0.0
 10
3.5
 20
-1.902777777777778
 30
0.0
 10
3.5
 20
-3.291666666666667
 30
0.0
 10
2.226847330729167
 20
-3.291666666666667
 30
0.0
 10
0.953701443142361
 20
-3.291666666666667
 30
0.0
 10
-0.3194444444444444
 20
-3.291666666666667
 30
0.0
  0
SPLINE
  5
3E
330
1F
100
AcDbEntity
  8
Layer 1
370
     0
100
AcDbSpline
210
0.0
220
0.0
230
1.0
 70
    11
 71
     3
 72
    50
 73
    46
 74
     0
 42
0.0000000001
 43
0.0000000001
 40
0.0
 40
0.0
 40
0.0
 40
0.0
 40
1.0
 40
1.0
 40
1.0
 40
2.0
 40
2.0
 40
2.0
 40
3.0
 40
3.0
 40
3.0
 40
4.0
 40
4.0
 40
4.0
 40
5.0
 40
5.0
 40
5.0
 40
6.0
 40
6.0
 40
6.0
 40
7.0
 40
7.0
 40
7.0
 40
8.0
 40
8.0
 40
8.0
 40
9.0
 40
9.0
 40
9.0
 40
10.0
 40
10.0
 40
10.0
 40
11.0
 40
11.0
 40
11.0
 40
12.0
 40
12.0
 40
12.0
 40
13.0
 40
13.0
 40
13.0
 40
14.0
 40
14.0
 40
14.0
 40
15.0
 40
15.0
 40
15.0
 40
15.0
 10
0.4533352322048611
 20
-0.4912651909722222
 30
0.0
 10
0.4448988172743055
 20
-0.4954698350694444
 30
0.0
 10
0.43646240234375
 20
-0.4996744791666666
 30
0.0
 10
0.4280259874131944
 20
-0.5038791232638888
 30
0.0
 10
0.4315660264756944
 20
-0.5195719401041666
 30
0.0
 10
0.4303249782986111
 20
-0.5391913519965278
 30
0.0
 10
0.4394599066840277
 20
-0.5502658420138888
 30
0.0
 10
0.4817233615451388
 20
-0.6015353732638888
 30
0.0
 10
0.4699164496527777
 20
-0.6521945529513888
 30
0.0
 10
0.4534573025173611
 20
-0.7105441623263888
 30
0.0
 10
0.4012112087673611
 20
-0.8957451714409722
 30
0.0
 10
0.3669501410590277
 20
-1.084811740451389
 30
0.0
 10
0.3979356553819444
 20
-1.277642144097222
 30
0.0
 10
0.4135470920138888
 20
-1.374776204427083
 30
0.0
 10
0.4448988172743055
 20
-1.469333224826389
 30
0.0
 10
0.4679090711805555
 20
-1.565341525607639
 30
0.0
 10
0.5255330403645833
 20
-1.805799696180555
 30
0.0
 10
0.6463080512152778
 20
-2.004503038194444
 30
0.0
 10
0.8512912326388888
 20
-2.147732204861111
 30
0.0
 10
1.097764756944444
 20
-2.319932725694444
 30
0.0
 10
1.371663411458333
 20
-2.352511935763889
 30
0.0
 10
1.658840603298611
 20
-2.296929253472222
 30
0.0
 10
2.487019856770833
 20
-2.1365966796875
 30
0.0
 10
2.736545138888889
 20
-1.1925048828125
 30
0.0
 10
2.278944227430555
 20
-0.6299235026041666
 30
0.0
 10
2.260538736979167
 20
-0.6072862413194444
 30
0.0
 10
2.241278754340278
 20
-0.5853407118055555
 30
0.0
 10
2.226182725694444
 20
-0.5675184461805555
 30
0.0
 10
2.242268880208333
 20
-0.5388929578993056
 30
0.0
 10
2.254896375868055
 20
-0.516445583767361
 30
0.0
 10
2.273912217881944
 20
-0.4826253255208333
 30
0.0
 10
2.218668619791667
 20
-0.4903089735243055
 30
0.0
 10
2.194552951388889
 20
-0.5409138997395833
 30
0.0
 10
2.142116970486111
 20
-0.4953409830729166
 30
0.0
 10
1.969618055555555
 20
-0.3454047309027777
 30
0.0
 10
1.764607747395833
 20
-0.2718844943576389
 30
0.0
 10
1.535291883680556
 20
-0.2560153537326389
 30
0.0
 10
1.1923828125
 20
-0.2322862413194444
 30
0.0
 10
0.9107666015625
 20
-0.3465169270833333
 30
0.0
 10
0.6896565755208333
 20
-0.6093885633680555
 30
0.0
 10
0.6592542860243055
 20
-0.6455281575520833
 30
0.0
 10
0.6314425998263888
 20
-0.683837890625
 30
0.0
 10
0.5993448893229166
 20
-0.7251112196180555
 30
0.0
 10
0.547878689236111
 20
-0.6426798502604166
 30
0.0
 10
0.5006103515625
 20
-0.5669759114583333
 30
0.0
 10
0.4533352322048611
 20
-0.4912651909722222
 30
0.0
  0
SPLINE
  5
3F
330
1F
100
AcDbEntity
  8
Layer 1
370
     0
100
AcDbSpline
210
0.0
220
0.0
230
1.0
 70
    11
 71
     3
 72
    50
 73
    46
 74
     0
 42
0.0000000001
 43
0.0000000001
 40
0.0
 40
0.0
 40
0.0
 40
0.0
 40
1.0
 40
1.0
 40
1.0
 40
2.0
 40
2.0
 40
2.0
 40
3.0
 40
3.0
 40
3.0
 40
4.0
 40
4.0
 40
4.0
 40
5.0
 40
5.0
 40
5.0
 40
6.0
 40
6.0
 40
6.0
 40
7.0
 40
7.0
 40
7.0
 40
8.0
 40
8.0
 40
8.0
 40
9.0
 40
9.0
 40
9.0
 40
10.0
 40
10.0
 40
10.0
 40
11.0
 40
11.0
 40
11.0
 40
12.0
 40
12.0
 40
12.0
 40
13.0
 40
13.0
 40
13.0
 40
14.0
 40
14.0
 40
14.0
 40
15.0
 40
15.0
 40
15.0
 40
15.0
 10
0.4533352322048611
 20
-0.4912651909722222
 30
0.0
 10
0.5006103515625
 20
-0.5669759114583333
 30
0.0
 10
0.547878689236111
 20
-0.6426798502604166
 30
0.0
 10
0.5993448893229166
 20
-0.7251112196180555
 30
0.0
 10
0.6314425998263888
 20
-0.683837890625
 30
0.0
 10
0.6592542860243055
 20
-0.6455281575520833
 30
0.0
 10
0.6896565755208333
 20
-0.6093885633680555
 30
0.0
 10
0.9107666015625
 20
-0.3465169270833333
 30
0.0
 10
1.1923828125
 20
-0.2322862413194444
 30
0.0
 10
1.535291883680556
 20
-0.2560153537326389
 30
0.0
 10
1.764607747395833
 20
-0.2718844943576389
 30
0.0
 10
1.969618055555555
 20
-0.3454047309027777
 30
0.0
 10
2.142116970486111
 20
-0.4953409830729166
 30
0.0
 10
2.194552951388889
 20
-0.5409138997395833
 30
0.0
 10
2.218668619791667
 20
-0.4903089735243055
 30
0.0
 10
2.273912217881944
 20
-0.4826253255208333
 30
0.0
 10
2.254896375868055
 20
-0.516445583767361
 30
0.0
 10
2.242268880208333
 20
-0.5388929578993056
 30
0.0
 10
2.226182725694444
 20
-0.5675184461805555
 30
0.0
 10
2.241278754340278
 20
-0.5853407118055555
 30
0.0
 10
2.260538736979167
 20
-0.6072862413194444
 30
0.0
 10
2.278944227430555
 20
-0.6299235026041666
 30
0.0
 10
2.736545138888889
 20
-1.1925048828125
 30
0.0
 10
2.487019856770833
 20
-2.1365966796875
 30
0.0
 10
1.658840603298611
 20
-2.296929253472222
 30
0.0
 10
1.371663411458333
 20
-2.352511935763889
 30
0.0
 10
1.097764756944444
 20
-2.319932725694444
 30
0.0
 10
0.8512912326388888
 20
-2.147732204861111
 30
0.0
 10
0.6463080512152778
 20
-2.004503038194444
 30
0.0
 10
0.5255330403645833
 20
-1.805799696180555
 30
0.0
 10
0.4679090711805555
 20
-1.565341525607639
 30
0.0
 10
0.4448988172743055
 20
-1.469333224826389
 30
0.0
 10
0.4135470920138888
 20
-1.374776204427083
 30
0.0
 10
0.3979356553819444
 20
-1.277642144097222
 30
0.0
 10
0.3669501410590277
 20
-1.084811740451389
 30
0.0
 10
0.4012112087673611
 20
-0.8957451714409722
 30
0.0
 10
0.4534573025173611
 20
-0.7105441623263888
 30
0.0
 10
0.4699164496527777
 20
-0.6521945529513888
 30
0.0
 10
0.4817233615451388
 20
-0.6015353732638888
 30
0.0
 10
0.4394599066840277
 20
-0.5502658420138888
 30
0.0
 10
0.4303249782986111
 20
-0.5391913519965278
 30
0.0
 10
0.4315660264756944
 20
-0.5195719401041666
 30
0.0
 10
0.4280259874131944
 20
-0.5038791232638888
 30
0.0
 10
0.43646240234375
 20
-0.4996744791666666
 30
0.0
 10
0.4448988172743055
 20
-0.4954698350694444
 30
0.0
 10
0.4533352322048611
 20
-0.4912651909722222
 30
0.0
  0
SPLINE
  5
40
330
1F
100
AcDbEntity
  8
Layer 1
370
     0
100
AcDbSpline
210
0.0
220
0.0
230
1.0
 70
    11
 71
     3
 72
    20
 73
    16
 74
     0
 42
0.0000000001
 43
0.0000000001
 40
0.0
 40
0.0
 40
0.0
 40
0.0
 40
1.0
 40
1.0
 40
1.0
 40
2.0
 40
2.0
 40
2.0
 40
3.0
 40
3.0
 40
3.0
 40
4.0
 40
4.0
 40
4.0
 40
5.0
 40
5.0
 40
5.0
 40
5.0
 10
2.172566731770833
 20
-0.5823906792534722
 30
0.0
 10
1.898125542534722
 20
-0.8358154296875
 30
0.0
 10
1.627780490451389
 20
-1.084140353732639
 30
0.0
 10
1.3602294921875
 20
-1.335442437065972
 30
0.0
 10
1.342149522569444
 20
-1.352423773871528
 30
0.0
 10
1.334011501736111
 20
-1.39447021484375
 30
0.0
 10
1.340169270833333
 20
-1.42034912109375
 30
0.0
 10
1.372341579861111
 20
-1.555399576822917
 30
0.0
 10
1.496636284722222
 20
-1.642605251736111
 30
0.0
 10
1.658650716145833
 20
-1.650804307725694
 30
0.0
 10
2.021755642361111
 20
-1.669182671440972
 30
0.0
 10
2.292928059895833
 20
-1.439887152777778
 30
0.0
 10
2.329806857638889
 20
-1.077806260850694
 30
0.0
 10
2.348361545138889
 20
-0.8956841362847222
 30
0.0
 10
2.297092013888889
 20
-0.7323947482638888
 30
0.0
 10
2.172566731770833
 20
-0.5823906792534722
 30
0.0
  0
SPLINE
  5
41
330
1F
100
AcDbEntity
  8
Layer 1
370
     0
100
AcDbSpline
210
0.0
220
0.0
230
1.0
 70
    11
 71
     3
 72
    29
 73
    25
 74
     0
 42
0.0000000001
 43
0.0000000001
 40
0.0
 40
0.0
 40
0.0
 40
0.0
 40
1.0
 40
1.0
 40
1.0
 40
2.0
 40
2.0
 40
2.0
 40
3.0
 40
3.0
 40
3.0
 40
4.0
 40
4.0
 40
4.0
 40
5.0
 40
5.0
 40
5.0
 40
6.0
 40
6.0
 40
6.0
 40
7.0
 40
7.0
 40
7.0
 40
8.0
 40
8.0
 40
8.0
 40
8.0
 10
0.5111897786458333
 20
-0.6564805772569444
 30
0.0
 10
0.5031602647569444
 20
-0.6760118272569444
 30
0.0
 10
0.49932861328125
 20
-0.6833631727430555
 30
0.0
 10
0.4970567491319444
 20
-0.691162109375
 30
0.0
 10
0.4403483072916666
 20
-0.8858778211805555
 30
0.0
 10
0.4150729709201388
 20
-1.084343804253472
 30
0.0
 10
0.4334581163194444
 20
-1.286695692274306
 30
0.0
 10
0.4456854926215277
 20
-1.4212646484375
 30
0.0
 10
0.5027262369791666
 20
-1.532789442274306
 30
0.0
 10
0.6116943359375
 20
-1.618096245659722
 30
0.0
 10
0.69232177734375
 20
-1.681206597222222
 30
0.0
 10
0.8035142686631944
 20
-1.703938802083333
 30
0.0
 10
0.883755154079861
 20
-1.663974338107639
 30
0.0
 10
0.936489529079861
 20
-1.637708875868055
 30
0.0
 10
1.017367892795139
 20
-1.479119194878472
 30
0.0
 10
1.010423448350694
 20
-1.412143283420139
 30
0.0
 10
1.009134928385417
 20
-1.399712456597222
 30
0.0
 10
1.000386555989583
 20
-1.387315538194444
 30
0.0
 10
0.9929334852430555
 20
-1.376369900173611
 30
0.0
 10
0.8696356879340277
 20
-1.195319281684028
 30
0.0
 10
0.745510525173611
 20
-1.014824761284722
 30
0.0
 10
0.622707790798611
 20
-0.83343505859375
 30
0.0
 10
0.5857611762152778
 20
-0.7788560655381944
 30
0.0
 10
0.5522867838541666
 20
-0.7219306098090278
 30
0.0
 10
0.5111897786458333
 20
-0.6564805772569444
 30
0.0
  0
SPLINE
  5
42
330
1F
100
AcDbEntity
  8
Layer 1
370
     0
100
AcDbSpline
210
0.0
220
0.0
230
1.0
 70
    11
 71
     3
 72
    26
 73
    22
 74
     0
 42
0.0000000001
 43
0.0000000001
 40
0.0
 40
0.0
 40
0.0
 40
0.0
 40
1.0
 40
1.0
 40
1.0
 40
2.0
 40
2.0
 40
2.0
 40
3.0
 40
3.0
 40
3.0
 40
4.0
 40
4.0
 40
4.0
 40
5.0
 40
5.0
 40
5.0
 40
6.0
 40
6.0
 40
6.0
 40
7.0
 40
7.0
 40
7.0
 40
7.0
 10
1.774251302083333
 20
-1.980875651041667
 30
0.0
 10
1.763604058159722
 20
-1.904690212673611
 30
0.0
 10
1.733357747395833
 20
-1.887925889756944
 30
0.0
 10
1.667805989583333
 20
-1.898342556423611
 30
0.0
 10
1.581922743055555
 20
-1.912000868055555
 30
0.0
 10
1.492146809895833
 20
-1.918551974826389
 30
0.0
 10
1.406019422743056
 20
-1.909478081597222
 30
0.0
 10
1.239013671875
 20
-1.891886393229167
 30
0.0
 10
1.073479546440972
 20
-1.860582139756944
 30
0.0
 10
0.9070366753472222
 20
-1.837076822916667
 30
0.0
 10
0.8907199435763888
 20
-1.834771050347222
 30
0.0
 10
0.8723212348090277
 20
-1.847222222222222
 30
0.0
 10
0.854885525173611
 20
-1.852837456597222
 30
0.0
 10
0.863186306423611
 20
-1.867445203993055
 30
0.0
 10
0.8679334852430555
 20
-1.8896484375
 30
0.0
 10
0.8803507486979166
 20
-1.895453559027778
 30
0.0
 10
0.9716593424479166
 20
-1.938096788194444
 30
0.0
 10
1.061808268229167
 20
-1.986056857638889
 30
0.0
 10
1.157416449652778
 20
-2.01611328125
 30
0.0
 10
1.365437825520833
 20
-2.081570095486111
 30
0.0
 10
1.570583767361111
 20
-2.054090711805555
 30
0.0
 10
1.774251302083333
 20
-1.980875651041667
 30
0.0
  0
SPLINE
  5
43
330
1F
100
AcDbEntity
  8
Layer 1
370
     0
100
AcDbSpline
210
0.0
220
0.0
230
1.0
 70
    11
 71
     3
 72
    17
 73
    13
 74
     0
 42
0.0000000001
 43
0.0000000001
 40
0.0
 40
0.0
 40
0.0
 40
0.0
 40
1.0
 40
1.0
 40
1.0
 40
2.0
 40
2.0
 40
2.0
 40
3.0
 40
3.0
 40
3.0
 40
4.0
 40
4.0
 40
4.0
 40
4.0
 10
1.8563232421875
 20
-2.046332465277778
 30
0.0
 10
1.862901475694444
 20
-2.0457763671875
 30
0.0
 10
1.869466145833333
 20
-2.045233832465278
 30
0.0
 10
1.876044379340278
 20
-2.044691297743055
 30
0.0
 10
1.886745876736111
 20
-1.980699327256944
 30
0.0
 10
1.8974609375
 20
-1.916707356770833
 30
0.0
 10
1.909573025173611
 20
-1.844292534722222
 30
0.0
 10
1.858127170138889
 20
-1.856689453125
 30
0.0
 10
1.820773654513889
 20
-1.865695529513889
 30
0.0
 10
1.775716145833333
 20
-1.876546223958333
 30
0.0
 10
1.804470486111111
 20
-1.9371337890625
 30
0.0
 10
1.830403645833333
 20
-1.991726345486111
 30
0.0
 10
1.8563232421875
 20
-2.046332465277778
 30
0.0
  0
SPLINE
  5
44
330
1F
100
AcDbEntity
  8
Layer 1
370
     0
100
AcDbSpline
210
0.0
220
0.0
230
1.0
 70
    11
 71
     3
 72
    14
 73
    10
 74
     0
 42
0.0000000001
 43
0.0000000001
 40
0.0
 40
0.0
 40
0.0
 40
0.0
 40
1.0
 40
1.0
 40
1.0
 40
2.0
 40
2.0
 40
2.0
 40
3.0
 40
3.0
 40
3.0
 40
3.0
 10
0.7283053927951388
 20
-1.786539713541667
 30
0.0
 10
0.740566677517361
 20
-1.842597113715278
 30
0.0
 10
0.7498575846354166
 20
-1.885091145833333
 30
0.0
 10
0.76348876953125
 20
-1.947428385416667
 30
0.0
 10
0.7927652994791666
 20
-1.890652126736111
 30
0.0
 10
0.812038845486111
 20
-1.853271484375
 30
0.0
 10
0.8333943684895833
 20
-1.811862521701389
 30
0.0
 10
0.7981431749131944
 20
-1.803358289930555
 30
0.0
 10
0.7698432074652778
 20
-1.796549479166667
 30
0.0
 10
0.7283053927951388
 20
-1.786539713541667
 30
0.0
  0
HATCH
  5
45
330
1F
100
AcDbEntity
  8
Layer 1
 62
     7
420
 16777215
100
AcDbHatch
 10
0.0
 20
0.0
 30
0.0
210
0.0
220
0.0
230
1.0
  2
SOLID
 70
     1
 71
     0
 91
        6
 92
        1
 93
        1
 72
     4
 94
        3
 73
     0
 74
     1
 95
       50
 96
       46
 40
0.0
 40
0.0
 40
0.0
 40
0.0
 40
1.0
 40
1.0
 40
1.0
 40
2.0
 40
2.0
 40
2.0
 40
3.0
 40
3.0
 40
3.0
 40
4.0
 40
4.0
 40
4.0
 40
5.0
 40
5.0
 40
5.0
 40
6.0
 40
6.0
 40
6.0
 40
7.0
 40
7.0
 40
7.0
 40
8.0
 40
8.0
 40
8.0
 40
9.0
 40
9.0
 40
9.0
 40
10.0
 40
10.0
 40
10.0
 40
11.0
 40
11.0
 40
11.0
 40
12.0
 40
12.0
 40
12.0
 40
13.0
 40
13.0
 40
13.0
 40
14.0
 40
14.0
 40
14.0
 40
15.0
 40
15.0
 40
15.0
 40
15.0
 10
0.4533352322048611
 20
-0.4912651909722222
 10
0.5006103515625
 20
-0.5669759114583333
 10
0.547878689236111
 20
-0.6426798502604166
 10
0.5993448893229166
 20
-0.7251112196180555
 10
0.6314425998263888
 20
-0.683837890625
 10
0.6592542860243055
 20
-0.6455281575520833
 10
0.6896565755208333
 20
-0.6093885633680555
 10
0.9107666015625
 20
-0.3465169270833333
 10
1.1923828125
 20
-0.2322862413194444
 10
1.535291883680556
 20
-0.2560153537326389
 10
1.764607747395833
 20
-0.2718844943576389
 10
1.969618055555555
 20
-0.3454047309027777
 10
2.142116970486111
 20
-0.4953409830729166
 10
2.194552951388889
 20
-0.5409138997395833
 10
2.218668619791667
 20
-0.4903089735243055
 10
2.273912217881944
 20
-0.4826253255208333
 10
2.254896375868055
 20
-0.516445583767361
 10
2.242268880208333
 20
-0.5388929578993056
 10
2.226182725694444
 20
-0.5675184461805555
 10
2.241278754340278
 20
-0.5853407118055555
 10
2.260538736979167
 20
-0.6072862413194444
 10
2.278944227430555
 20
-0.6299235026041666
 10
2.736545138888889
 20
-1.1925048828125
 10
2.487019856770833
 20
-2.1365966796875
 10
1.658840603298611
 20
-2.296929253472222
 10
1.371663411458333
 20
-2.352511935763889
 10
1.097764756944444
 20
-2.319932725694444
 10
0.8512912326388888
 20
-2.147732204861111
 10
0.6463080512152778
 20
-2.004503038194444
 10
0.5255330403645833
 20
-1.805799696180555
 10
0.4679090711805555
 20
-1.565341525607639
 10
0.4448988172743055
 20
-1.469333224826389
 10
0.4135470920138888
 20
-1.374776204427083
 10
0.3979356553819444
 20
-1.277642144097222
 10
0.3669501410590277
 20
-1.084811740451389
 10
0.4012112087673611
 20
-0.8957451714409722
 10
0.4534573025173611
 20
-0.7105441623263888
 10
0.4699164496527777
 20
-0.6521945529513888
 10
0.4817233615451388
 20
-0.6015353732638888
 10
0.4394599066840277
 20
-0.5502658420138888
 10
0.4303249782986111
 20
-0.5391913519965278
 10
0.4315660264756944
 20
-0.5195719401041666
 10
0.4280259874131944
 20
-0.5038791232638888
 10
0.43646240234375
 20
-0.4996744791666666
 10
0.4448988172743055
 20
-0.4954698350694444
 10
0.4533352322048611
 20
-0.4912651909722222
 97
        0
 92
        1
 93
        1
 72
     4
 94
        3
 73
     0
 74
     1
 95
       20
 96
       16
 40
0.0
 40
0.0
 40
0.0
 40
0.0
 40
1.0
 40
1.0
 40
1.0
 40
2.0
 40
2.0
 40
2.0
 40
3.0
 40
3.0
 40
3.0
 40
4.0
 40
4.0
 40
4.0
 40
5.0
 40
5.0
 40
5.0
 40
5.0
 10
2.172566731770833
 20
-0.5823906792534722
 10
1.898125542534722
 20
-0.8358154296875
 10
1.627780490451389
 20
-1.084140353732639
 10
1.3602294921875
 20
-1.335442437065972
 10
1.342149522569444
 20
-1.352423773871528
 10
1.334011501736111
 20
-1.39447021484375
 10
1.340169270833333
 20
-1.42034912109375
 10
1.372341579861111
 20
-1.555399576822917
 10
1.496636284722222
 20
-1.642605251736111
 10
1.658650716145833
 20
-1.650804307725694
 10
2.021755642361111
 20
-1.669182671440972
 10
2.292928059895833
 20
-1.439887152777778
 10
2.329806857638889
 20
-1.077806260850694
 10
2.348361545138889
 20
-0.8956841362847222
 10
2.297092013888889
 20
-0.7323947482638888
 10
2.172566731770833
 20
-0.5823906792534722
 97
        0
 92
        1
 93
        1
 72
     4
 94
        3
 73
     0
 74
     1
 95
       29
 96
       25
 40
0.0
 40
0.0
 40
0.0
 40
0.0
 40
1.0
 40
1.0
 40
1.0
 40
2.0
 40
2.0
 40
2.0
 40
3.0
 40
3.0
 40
3.0
 40
4.0
 40
4.0
 40
4.0
 40
5.0
 40
5.0
 40
5.0
 40
6.0
 40
6.0
 40
6.0
 40
7.0
 40
7.0
 40
7.0
 40
8.0
 40
8.0
 40
8.0
 40
8.0
 10
0.5111897786458333
 20
-0.6564805772569444
 10
0.5031602647569444
 20
-0.6760118272569444
 10
0.49932861328125
 20
-0.6833631727430555
 10
0.4970567491319444
 20
-0.691162109375
 10
0.4403483072916666
 20
-0.8858778211805555
 10
0.4150729709201388
 20
-1.084343804253472
 10
0.4334581163194444
 20
-1.286695692274306
 10
0.4456854926215277
 20
-1.4212646484375
 10
0.5027262369791666
 20
-1.532789442274306
 10
0.6116943359375
 20
-1.618096245659722
 10
0.69232177734375
 20
-1.681206597222222
 10
0.8035142686631944
 20
-1.703938802083333
 10
0.883755154079861
 20
-1.663974338107639
 10
0.936489529079861
 20
-1.637708875868055
 10
1.017367892795139
 20
-1.479119194878472
 10
1.010423448350694
 20
-1.412143283420139
 10
1.009134928385417
 20
-1.399712456597222
 10
1.000386555989583
 20
-1.387315538194444
 10
0.9929334852430555
 20
-1.376369900173611
 10
0.8696356879340277
 20
-1.195319281684028
 10
0.745510525173611
 20
-1.014824761284722
 10
0.622707790798611
 20
-0.83343505859375
 10
0.5857611762152778
 20
-0.7788560655381944
 10
0.5522867838541666
 20
-0.7219306098090278
 10
0.5111897786458333
 20
-0.6564805772569444
 97
        0
 92
        1
 93
        1
 72
     4
 94
        3
 73
     0
 74
     1
 95
       26
 96
       22
 40
0.0
 40
0.0
 40
0.0
 40
0.0
 40
1.0
 40
1.0
 40
1.0
 40
2.0
 40
2.0
 40
2.0
 40
3.0
 40
3.0
 40
3.0
 40
4.0
 40
4.0
 40
4.0
 40
5.0
 40
5.0
 40
5.0
 40
6.0
 40
6.0
 40
6.0
 40
7.0
 40
7.0
 40
7.0
 40
7.0
 10
1.774251302083333
 20
-1.980875651041667
 10
1.763604058159722
 20
-1.904690212673611
 10
1.733357747395833
 20
-1.887925889756944
 10
1.667805989583333
 20
-1.898342556423611
 10
1.581922743055555
 20
-1.912000868055555
 10
1.492146809895833
 20
-1.918551974826389
 10
1.406019422743056
 20
-1.909478081597222
 10
1.239013671875
 20
-1.891886393229167
 10
1.073479546440972
 20
-1.860582139756944
 10
0.9070366753472222
 20
-1.837076822916667
 10
0.8907199435763888
 20
-1.834771050347222
 10
0.8723212348090277
 20
-1.847222222222222
 10
0.854885525173611
 20
-1.852837456597222
 10
0.863186306423611
 20
-1.867445203993055
 10
0.8679334852430555
 20
-1.8896484375
 10
0.8803507486979166
 20
-1.895453559027778
 10
0.9716593424479166
 20
-1.938096788194444
 10
1.061808268229167
 20
-1.986056857638889
 10
1.157416449652778
 20
-2.01611328125
 10
1.365437825520833
 20
-2.081570095486111
 10
1.570583767361111
 20
-2.054090711805555
 10
1.774251302083333
 20
-1.980875651041667
 97
        0
 92
        1
 93
        1
 72
     4
 94
        3
 73
     0
 74
     1
 95
       17
 96
       13
 40
0.0
 40
0.0
 40
0.0
 40
0.0
 40
1.0
 40
1.0
 40
1.0
 40
2.0
 40
2.0
 40
2.0
 40
3.0
 40
3.0
 40
3.0
 40
4.0
 40
4.0
 40
4.0
 40
4.0
 10
1.8563232421875
 20
-2.046332465277778
 10
1.862901475694444
 20
-2.0457763671875
 10
1.869466145833333
 20
-2.045233832465278
 10
1.876044379340278
 20
-2.044691297743055
 10
1.886745876736111
 20
-1.980699327256944
 10
1.8974609375
 20
-1.916707356770833
 10
1.909573025173611
 20
-1.844292534722222
 10
1.858127170138889
 20
-1.856689453125
 10
1.820773654513889
 20
-1.865695529513889
 10
1.775716145833333
 20
-1.876546223958333
 10
1.804470486111111
 20
-1.9371337890625
 10
1.830403645833333
 20
-1.991726345486111
 10
1.8563232421875
 20
-2.046332465277778
 97
        0
 92
        1
 93
        1
 72
     4
 94
        3
 73
     0
 74
     1
 95
       14
 96
       10
 40
0.0
 40
0.0
 40
0.0
 40
0.0
 40
1.0
 40
1.0
 40
1.0
 40
2.0
 40
2.0
 40
2.0
 40
3.0
 40
3.0
 40
3.0
 40
3.0
 10
0.7283053927951388
 20
-1.786539713541667
 10
0.740566677517361
 20
-1.842597113715278
 10
0.7498575846354166
 20
-1.885091145833333
 10
0.76348876953125
 20
-1.947428385416667
 10
0.7927652994791666
 20
-1.890652126736111
 10
0.812038845486111
 20
-1.853271484375
 10
0.8333943684895833
 20
-1.811862521701389
 10
0.7981431749131944
 20
-1.803358289930555
 10
0.7698432074652778
 20
-1.796549479166667
 10
0.7283053927951388
 20
-1.786539713541667
 97
        0
 75
     0
 76
     1
 98
        0
  0
SPLINE
  5
46
330
1F
100
AcDbEntity
  8
Layer 1
370
     0
100
AcDbSpline
210
0.0
220
0.0
230
1.0
 70
    11
 71
     3
 72
    20
 73
    16
 74
     0
 42
0.0000000001
 43
0.0000000001
 40
0.0
 40
0.0
 40
0.0
 40
0.0
 40
1.0
 40
1.0
 40
1.0
 40
2.0
 40
2.0
 40
2.0
 40
3.0
 40
3.0
 40
3.0
 40
4.0
 40
4.0
 40
4.0
 40
5.0
 40
5.0
 40
5.0
 40
5.0
 10
2.172566731770833
 20
-0.5823906792534722
 30
0.0
 10
2.297092013888889
 20
-0.7323947482638888
 30
0.0
 10
2.348361545138889
 20
-0.8956841362847222
 30
0.0
 10
2.329806857638889
 20
-1.077806260850694
 30
0.0
 10
2.292928059895833
 20
-1.439887152777778
 30
0.0
 10
2.021755642361111
 20
-1.669182671440972
 30
0.0
 10
1.658650716145833
 20
-1.650804307725694
 30
0.0
 10
1.496636284722222
 20
-1.642605251736111
 30
0.0
 10
1.372341579861111
 20
-1.555399576822917
 30
0.0
 10
1.340169270833333
 20
-1.42034912109375
 30
0.0
 10
1.334011501736111
 20
-1.39447021484375
 30
0.0
 10
1.342149522569444
 20
-1.352423773871528
 30
0.0
 10
1.3602294921875
 20
-1.335442437065972
 30
0.0
 10
1.627780490451389
 20
-1.084140353732639
 30
0.0
 10
1.898125542534722
 20
-0.8358154296875
 30
0.0
 10
2.172566731770833
 20
-0.5823906792534722
 30
0.0
  0
SPLINE
  5
47
330
1F
100
AcDbEntity
  8
Layer 1
370
     0
100
AcDbSpline
210
0.0
220
0.0
230
1.0
 70
    11
 71
     3
 72
    29
 73
    25
 74
     0
 42
0.0000000001
 43
0.0000000001
 40
0.0
 40
0.0
 40
0.0
 40
0.0
 40
1.0
 40
1.0
 40
1.0
 40
2.0
 40
2.0
 40
2.0
 40
3.0
 40
3.0
 40
3.0
 40
4.0
 40
4.0
 40
4.0
 40
5.0
 40
5.0
 40
5.0
 40
6.0
 40
6.0
 40
6.0
 40
7.0
 40
7.0
 40
7.0
 40
8.0
 40
8.0
 40
8.0
 40
8.0
 10
0.5111897786458333
 20
-0.6564805772569444
 30
0.0
 10
0.5522867838541666
 20
-0.7219306098090278
 30
0.0
 10
0.5857611762152778
 20
-0.7788560655381944
 30
0.0
 10
0.622707790798611
 20
-0.83343505859375
 30
0.0
 10
0.745510525173611
 20
-1.014824761284722
 30
0.0
 10
0.8696356879340277
 20
-1.195319281684028
 30
0.0
 10
0.9929334852430555
 20
-1.376369900173611
 30
0.0
 10
1.000386555989583
 20
-1.387315538194444
 30
0.0
 10
1.009134928385417
 20
-1.399712456597222
 30
0.0
 10
1.010423448350694
 20
-1.412143283420139
 30
0.0
 10
1.017367892795139
 20
-1.479119194878472
 30
0.0
 10
0.936489529079861
 20
-1.637708875868055
 30
0.0
 10
0.883755154079861
 20
-1.663974338107639
 30
0.0
 10
0.8035142686631944
 20
-1.703938802083333
 30
0.0
 10
0.69232177734375
 20
-1.681206597222222
 30
0.0
 10
0.6116943359375
 20
-1.618096245659722
 30
0.0
 10
0.5027262369791666
 20
-1.532789442274306
 30
0.0
 10
0.4456854926215277
 20
-1.4212646484375
 30
0.0
 10
0.4334581163194444
 20
-1.286695692274306
 30
0.0
 10
0.4150729709201388
 20
-1.084343804253472
 30
0.0
 10
0.4403483072916666
 20
-0.8858778211805555
 30
0.0
 10
0.4970567491319444
 20
-0.691162109375
 30
0.0
 10
0.49932861328125
 20
-0.6833631727430555
 30
0.0
 10
0.5031602647569444
 20
-0.6760118272569444
 30
0.0
 10
0.5111897786458333
 20
-0.6564805772569444
 30
0.0
  0
SPLINE
  5
48
330
1F
100
AcDbEntity
  8
Layer 1
370
     0
100
AcDbSpline
210
0.0
220
0.0
230
1.0
 70
    11
 71
     3
 72
    26
 73
    22
 74
     0
 42
0.0000000001
 43
0.0000000001
 40
0.0
 40
0.0
 40
0.0
 40
0.0
 40
1.0
 40
1.0
 40
1.0
 40
2.0
 40
2.0
 40
2.0
 40
3.0
 40
3.0
 40
3.0
 40
4.0
 40
4.0
 40
4.0
 40
5.0
 40
5.0
 40
5.0
 40
6.0
 40
6.0
 40
6.0
 40
7.0
 40
7.0
 40
7.0
 40
7.0
 10
1.774251302083333
 20
-1.980875651041667
 30
0.0
 10
1.570583767361111
 20
-2.054090711805555
 30
0.0
 10
1.365437825520833
 20
-2.081570095486111
 30
0.0
 10
1.157416449652778
 20
-2.01611328125
 30
0.0
 10
1.061808268229167
 20
-1.986056857638889
 30
0.0
 10
0.9716593424479166
 20
-1.938096788194444
 30
0.0
 10
0.8803507486979166
 20
-1.895453559027778
 30
0.0
 10
0.8679334852430555
 20
-1.8896484375
 30
0.0
 10
0.863186306423611
 20
-1.867445203993055
 30
0.0
 10
0.854885525173611
 20
-1.852837456597222
 30
0.0
 10
0.8723212348090277
 20
-1.847222222222222
 30
0.0
 10
0.8907199435763888
 20
-1.834771050347222
 30
0.0
 10
0.9070366753472222
 20
-1.837076822916667
 30
0.0
 10
1.073479546440972
 20
-1.860582139756944
 30
0.0
 10
1.239013671875
 20
-1.891886393229167
 30
0.0
 10
1.406019422743056
 20
-1.909478081597222
 30
0.0
 10
1.492146809895833
 20
-1.918551974826389
 30
0.0
 10
1.581922743055555
 20
-1.912000868055555
 30
0.0
 10
1.667805989583333
 20
-1.898342556423611
 30
0.0
 10
1.733357747395833
 20
-1.887925889756944
 30
0.0
 10
1.763604058159722
 20
-1.904690212673611
 30
0.0
 10
1.774251302083333
 20
-1.980875651041667
 30
0.0
  0
SPLINE
  5
49
330
1F
100
AcDbEntity
  8
Layer 1
370
     0
100
AcDbSpline
210
0.0
220
0.0
230
1.0
 70
    11
 71
     3
 72
    17
 73
    13
 74
     0
 42
0.0000000001
 43
0.0000000001
 40
0.0
 40
0.0
 40
0.0
 40
0.0
 40
1.0
 40
1.0
 40
1.0
 40
2.0
 40
2.0
 40
2.0
 40
3.0
 40
3.0
 40
3.0
 40
4.0
 40
4.0
 40
4.0
 40
4.0
 10
1.8563232421875
 20
-2.046332465277778
 30
0.0
 10
1.830403645833333
 20
-1.991726345486111
 30
0.0
 10
1.804470486111111
 20
-1.9371337890625
 30
0.0
 10
1.775716145833333
 20
-1.876546223958333
 30
0.0
 10
1.820773654513889
 20
-1.865695529513889
 30
0.0
 10
1.858127170138889
 20
-1.856689453125
 30
0.0
 10
1.909573025173611
 20
-1.844292534722222
 30
0.0
 10
1.8974609375
 20
-1.916707356770833
 30
0.0
 10
1.886745876736111
 20
-1.980699327256944
 30
0.0
 10
1.876044379340278
 20
-2.044691297743055
 30
0.0
 10
1.869466145833333
 20
-2.045233832465278
 30
0.0
 10
1.862901475694444
 20
-2.0457763671875
 30
0.0
 10
1.8563232421875
 20
-2.046332465277778
 30
0.0
  0
SPLINE
  5
4A
330
1F
100
AcDbEntity
  8
Layer 1
370
     0
100
AcDbSpline
210
0.0
220
0.0
230
1.0
 70
    11
 71
     3
 72
    14
 73
    10
 74
     0
 42
0.0000000001
 43
0.0000000001
 40
0.0
 40
0.0
 40
0.0
 40
0.0
 40
1.0
 40
1.0
 40
1.0
 40
2.0
 40
2.0
 40
2.0
 40
3.0
 40
3.0
 40
3.0
 40
3.0
 10
0.7283053927951388
 20
-1.786539713541667
 30
0.0
 10
0.7698432074652778
 20
-1.796549479166667
 30
0.0
 10
0.7981431749131944
 20
-1.803358289930555
 30
0.0
 10
0.8333943684895833
 20
-1.811862521701389
 30
0.0
 10
0.812038845486111
 20
-1.853271484375
 30
0.0
 10
0.7927652994791666
 20
-1.890652126736111
 30
0.0
 10
0.76348876953125
 20
-1.947428385416667
 30
0.0
 10
0.7498575846354166
 20
-1.885091145833333
 30
0.0
 10
0.740566677517361
 20
-1.842597113715278
 30
0.0
 10
0.7283053927951388
 20
-1.786539713541667
 30
0.0
  0
SPLINE
  5
4B
330
1F
100
AcDbEntity
  8
Layer 1
 62
     7
420
 16777215
370
    70
100
AcDbSpline
210
0.0
220
0.0
230
1.0
 70
     8
 71
     3
 72
     8
 73
     4
 74
     0
 42
0.0000000001
 43
0.0000000001
 40
0.0
 40
0.0
 40
0.0
 40
0.0
 40
1.0
 40
1.0
 40
1.0
 40
1.0
 10
2.180555555555555
 20
-0.5625
 30
0.0
 10
2.231486002604167
 20
-0.6365763346354166
 30
0.0
 10
2.282402886284722
 20
-0.7106458875868055
 30
0.0
 10
2.333333333333333
 20
-0.7847222222222222
 30
0.0
  0
SPLINE
  5
4C
330
1F
100
AcDbEntity
  8
Layer 1
 62
     7
420
 16777215
370
    70
100
AcDbSpline
210
0.0
220
0.0
230
1.0
 70
     8
 71
     3
 72
    14
 73
    10
 74
     0
 42
0.0000000001
 43
0.0000000001
 40
0.0
 40
0.0
 40
0.0
 40
0.0
 40
1.0
 40
1.0
 40
1.0
 40
2.0
 40
2.0
 40
2.0
 40
3.0
 40
3.0
 40
3.0
 40
3.0
 10
0.4444444444444444
 20
-0.5069444444444444
 30
0.0
 10
0.504238552517361
 20
-0.5809868706597222
 30
0.0
 10
0.4940728081597222
 20
-0.6558905707465278
 30
0.0
 10
0.4680650499131944
 20
-0.7438761393229166
 30
0.0
 10
0.4078911675347222
 20
-0.9474080403645833
 30
0.0
 10
0.3849351671006944
 20
-1.157477484809028
 30
0.0
 10
0.4323866102430555
 20
-1.367641872829861
 30
0.0
 10
0.4486490885416666
 20
-1.439683702256944
 30
0.0
 10
0.4861111111111111
 20
-1.506944444444444
 30
0.0
 10
0.5138888888888888
 20
-1.576388888888889
 30
0.0
  0
SPLINE
  5
4D
330
1F
100
AcDbEntity
  8
Layer 1
 62
     7
420
 16777215
370
    70
100
AcDbSpline
210
0.0
220
0.0
230
1.0
 70
     8
 71
     3
 72
    11
 73
     7
 74
     0
 42
0.0000000001
 43
0.0000000001
 40
0.0
 40
0.0
 40
0.0
 40
0.0
 40
1.0
 40
1.0
 40
1.0
 40
2.0
 40
2.0
 40
2.0
 40
2.0
 10
0.5138888888888888
 20
-0.6388888888888888
 30
0.0
 10
0.5370347764756944
 20
-0.6712985568576388
 30
0.0
 10
0.55841064453125
 20
-0.7052137586805555
 30
0.0
 10
0.5841471354166666
 20
-0.7354193793402778
 30
0.0
 10
0.5955335828993055
 20
-0.7487860785590278
 30
0.0
 10
0.6157430013020833
 20
-0.7546318901909722
 30
0.0
 10
0.6319444444444444
 20
-0.7638888888888888
 30
0.0
  0
SPLINE
  5
4E
330
1F
100
AcDbEntity
  8
Layer 1
 62
     7
420
 16777215
370
    70
100
AcDbSpline
210
0.0
220
0.0
230
1.0
 70
     8
 71
     3
 72
     8
 73
     4
 74
     0
 42
0.0000000001
 43
0.0000000001
 40
0.0
 40
0.0
 40
0.0
 40
0.0
 40
1.0
 40
1.0
 40
1.0
 40
1.0
 10
2.25
 20
-0.4930555555555555
 30
0.0
 10
2.226250542534722
 20
-0.5321723090277778
 30
0.0
 10
2.197333441840278
 20
-0.5626966688368055
 30
0.0
 10
2.145833333333333
 20
-0.5555555555555556
 30
0.0
  0
SPLINE
  5
4F
330
1F
100
AcDbEntity
  8
Layer 1
 62
     7
420
 16777215
370
    70
100
AcDbSpline
210
0.0
220
0.0
230
1.0
 70
     8
 71
     3
 72
     8
 73
     4
 74
     0
 42
0.0000000001
 43
0.0000000001
 40
0.0
 40
0.0
 40
0.0
 40
0.0
 40
1.0
 40
1.0
 40
1.0
 40
1.0
 10
1.75
 20
-1.840277777777778
 30
0.0
 10
1.766208224826389
 20
-1.898139105902778
 30
0.0
 10
1.782402886284722
 20
-1.956027560763889
 30
0.0
 10
1.798611111111111
 20
-2.013888888888889
 30
0.0
  0
SPLINE
  5
50
330
1F
100
AcDbEntity
  8
Layer 1
 62
     7
420
 16777215
370
    70
100
AcDbSpline
210
0.0
220
0.0
230
1.0
 70
     8
 71
     3
 72
     8
 73
     4
 74
     0
 42
0.0000000001
 43
0.0000000001
 40
0.0
 40
0.0
 40
0.0
 40
0.0
 40
1.0
 40
1.0
 40
1.0
 40
1.0
 10
0.861111111111111
 20
-1.770833333333333
 30
0.0
 10
0.8518541124131944
 20
-1.817138671875
 30
0.0
 10
0.84259033203125
 20
-1.863416883680555
 30
0.0
 10
0.8333333333333333
 20
-1.909722222222222
 30
0.0
  0
SPLINE
  5
51
330
1F
100
AcDbEntity
  8
Layer 1
370
     0
100
AcDbSpline
210
0.0
220
0.0
230
1.0
 70
    11
 71
     3
 72
    17
 73
    13
 74
     0
 42
0.0000000001
 43
0.0000000001
 40
0.0
 40
0.0
 40
0.0
 40
0.0
 40
1.0
 40
1.0
 40
1.0
 40
2.0
 40
2.0
 40
2.0
 40
3.0
 40
3.0
 40
3.0
 40
4.0
 40
4.0
 40
4.0
 40
4.0
 10
-0.125
 20
-4.179253472222222
 30
0.0
 10
-1.396335177951389
 20
-4.179253472222222
 30
0.0
 10
-2.668924967447917
 20
-4.179253472222222
 30
0.0
 10
-3.941921657986111
 20
-4.179253472222222
 30
0.0
 10
-3.941921657986111
 20
-2.786600748697917
 30
0.0
 10
-3.941921657986111
 20
-1.393954806857639
 30
0.0
 10
-3.941921657986111
 20
0.0
 30
0.0
 10
-2.670586480034722
 20
0.0
 30
0.0
 10
-1.398857964409722
 20
0.0
 30
0.0
 10
-0.125
 20
0.0
 30
0.0
 10
-0.125
 20
-1.3922119140625
 30
0.0
 10
-0.125
 20
-2.785732693142361
 30
0.0
 10
-0.125
 20
-4.179253472222222
 30
0.0
  0
SPLINE
  5
52
330
1F
100
AcDbEntity
  8
Layer 1
370
     0
100
AcDbSpline
210
0.0
220
0.0
230
1.0
 70
    11
 71
     3
 72
   323
 73
   319
 74
     0
 42
0.0000000001
 43
0.0000000001
 40
0.0
 40
0.0
 40
0.0
 40
0.0
 40
1.0
 40
1.0
 40
1.0
 40
2.0
 40
2.0
 40
2.0
 40
3.0
 40
3.0
 40
3.0
 40
4.0
 40
4.0
 40
4.0
 40
5.0
 40
5.0
 40
5.0
 40
6.0
 40
6.0
 40
6.0
 40
7.0
 40
7.0
 40
7.0
 40
8.0
 40
8.0
 40
8.0
 40
9.0
 40
9.0
 40
9.0
 40
10.0
 40
10.0
 40
10.0
 40
11.0
 40
11.0
 40
11.0
 40
12.0
 40
12.0
 40
12.0
 40
13.0
 40
13.0
 40
13.0
 40
14.0
 40
14.0
 40
14.0
 40
15.0
 40
15.0
 40
15.0
 40
16.0
 40
16.0
 40
16.0
 40
17.0
 40
17.0
 40
17.0
 40
18.0
 40
18.0
 40
18.0
 40
19.0
 40
19.0
 40
19.0
 40
20.0
 40
20.0
 40
20.0
 40
21.0
 40
21.0
 40
21.0
 40
22.0
 40
22.0
 40
22.0
 40
23.0
 40
23.0
 40
23.0
 40
24.0
 40
24.0
 40
24.0
 40
25.0
 40
25.0
 40
25.0
 40
26.0
 40
26.0
 40
26.0
 40
27.0
 40
27.0
 40
27.0
 40
28.0
 40
28.0
 40
28.0
 40
29.0
 40
29.0
 40
29.0
 40
30.0
 40
30.0
 40
30.0
 40
31.0
 40
31.0
 40
31.0
 40
32.0
 40
32.0
 40
32.0
 40
33.0
 40
33.0
 40
33.0
 40
34.0
 40
34.0
 40
34.0
 40
35.0
 40
35.0
 40
35.0
 40
36.0
 40
36.0
 40
36.0
 40
37.0
 40
37.0
 40
37.0
 40
38.0
 40
38.0
 40
38.0
 40
39.0
 40
39.0
 40
39.0
 40
40.0
 40
40.0
 40
40.0
 40
41.0
 40
41.0
 40
41.0
 40
42.0
 40
42.0
 40
42.0
 40
43.0
 40
43.0
 40
43.0
 40
44.0
 40
44.0
 40
44.0
 40
45.0
 40
45.0
 40
45.0
 40
46.0
 40
46.0
 40
46.0
 40
47.0
 40
47.0
 40
47.0
 40
48.0
 40
48.0
 40
48.0
 40
49.0
 40
49.0
 40
49.0
 40
50.0
 40
50.0
 40
50.0
 40
51.0
 40
51.0
 40
51.0
 40
52.0
 40
52.0
 40
52.0
 40
53.0
 40
53.0
 40
53.0
 40
54.0
 40
54.0
 40
54.0
 40
55.0
 40
55.0
 40
55.0
 40
56.0
 40
56.0
 40
56.0
 40
57.0
 40
57.0
 40
57.0
 40
58.0
 40
58.0
 40
58.0
 40
59.0
 40
59.0
 40
59.0
 40
60.0
 40
60.0
 40
60.0
 40
61.0
 40
61.0
 40
61.0
 40
62.0
 40
62.0
 40
62.0
 40
63.0
 40
63.0
 40
63.0
 40
64.0
 40
64.0
 40
64.0
 40
65.0
 40
65.0
 40
65.0
 40
66.0
 40
66.0
 40
66.0
 40
67.0
 40
67.0
 40
67.0
 40
68.0
 40
68.0
 40
68.0
 40
69.0
 40
69.0
 40
69.0
 40
70.0
 40
70.0
 40
70.0
 40
71.0
 40
71.0
 40
71.0
 40
72.0
 40
72.0
 40
72.0
 40
73.0
 40
73.0
 40
73.0
 40
74.0
 40
74.0
 40
74.0
 40
75.0
 40
75.0
 40
75.0
 40
76.0
 40
76.0
 40
76.0
 40
77.0
 40
77.0
 40
77.0
 40
78.0
 40
78.0
 40
78.0
 40
79.0
 40
79.0
 40
79.0
 40
80.0
 40
80.0
 40
80.0
 40
81.0
 40
81.0
 40
81.0
 40
82.0
 40
82.0
 40
82.0
 40
83.0
 40
83.0
 40
83.0
 40
84.0
 40
84.0
 40
84.0
 40
85.0
 40
85.0
 40
85.0
 40
86.0
 40
86.0
 40
86.0
 40
87.0
 40
87.0
 40
87.0
 40
88.0
 40
88.0
 40
88.0
 40
89.0
 40
89.0
 40
89.0
 40
90.0
 40
90.0
 40
90.0
 40
91.0
 40
91.0
 40
91.0
 40
92.0
 40
92.0
 40
92.0
 40
93.0
 40
93.0
 40
93.0
 40
94.0
 40
94.0
 40
94.0
 40
95.0
 40
95.0
 40
95.0
 40
96.0
 40
96.0
 40
96.0
 40
97.0
 40
97.0
 40
97.0
 40
98.0
 40
98.0
 40
98.0
 40
99.0
 40
99.0
 40
99.0
 40
100.0
 40
100.0
 40
100.0
 40
101.0
 40
101.0
 40
101.0
 40
102.0
 40
102.0
 40
102.0
 40
103.0
 40
103.0
 40
103.0
 40
104.0
 40
104.0
 40
104.0
 40
105.0
 40
105.0
 40
105.0
 40
106.0
 40
106.0
 40
106.0
 40
106.0
 10
-2.153645833333333
 20
-3.598388671875
 30
0.0
 10
-2.097547743055555
 20
-3.609537760416667
 30
0.0
 10
-2.0328369140625
 20
-3.606947157118055
 30
0.0
 10
-1.987548828125
 20
-3.635348849826389
 30
0.0
 10
-1.932359483506944
 20
-3.669949001736111
 30
0.0
 10
-1.880018446180555
 20
-3.680284288194444
 30
0.0
 10
-1.818603515625
 20
-3.681708441840278
 30
0.0
 10
-1.768337673611111
 20
-3.682888454861111
 30
0.0
 10
-1.718438042534722
 20
-3.696641710069444
 30
0.0
 10
-1.668212890625
 20
-3.703762478298611
 30
0.0
 10
-1.636555989583333
 20
-3.708251953125
 30
0.0
 10
-1.604220920138889
 20
-3.715766059027778
 30
0.0
 10
-1.572903103298611
 20
-3.713189019097222
 30
0.0
 10
-1.504842122395833
 20
-3.707614474826389
 30
0.0
 10
-1.479600694444444
 20
-3.6580810546875
 30
0.0
 10
-1.508165147569444
 20
-3.596015082465278
 30
0.0
 10
-1.533040364583333
 20
-3.541951497395833
 30
0.0
 10
-1.579616970486111
 20
-3.524319118923611
 30
0.0
 10
-1.633002387152778
 20
-3.507798936631944
 30
0.0
 10
-1.668565538194444
 20
-3.496799045138889
 30
0.0
 10
-1.707953559027778
 20
-3.470133463541667
 30
0.0
 10
-1.7247314453125
 20
-3.439154730902778
 30
0.0
 10
-1.732286241319444
 20
-3.425211588541667
 30
0.0
 10
-1.689927842881944
 20
-3.382703993055555
 30
0.0
 10
-1.667833116319444
 20
-3.355061848958333
 30
0.0
 10
-1.659722222222222
 20
-3.344943576388889
 30
0.0
 10
-1.645480685763889
 20
-3.338338216145833
 30
0.0
 10
-1.632758246527778
 20
-3.33349609375
 30
0.0
 10
-1.559271918402778
 20
-3.305501302083333
 30
0.0
 10
-1.487019856770833
 20
-3.271389431423611
 30
0.0
 10
-1.4110107421875
 20
-3.254096137152778
 30
0.0
 10
-1.370808919270833
 20
-3.244940863715278
 30
0.0
 10
-1.319580078125
 20
-3.256618923611111
 30
0.0
 10
-1.280802408854167
 20
-3.274820963541667
 30
0.0
 10
-1.209648980034722
 20
-3.3082275390625
 30
0.0
 10
-1.071546766493056
 20
-3.252536349826389
 30
0.0
 10
-1.055080837673611
 20
-3.175821940104167
 30
0.0
 10
-1.025254991319444
 20
-3.036892361111111
 30
0.0
 10
-0.9190402560763888
 20
-2.989963107638889
 30
0.0
 10
-0.7950846354166666
 20
-3.060919867621528
 30
0.0
 10
-0.693508572048611
 20
-3.119059244791667
 30
0.0
 10
-0.5768364800347222
 20
-3.112874348958333
 30
0.0
 10
-0.4974365234375
 20
-3.04510498046875
 30
0.0
 10
-0.3876410590277777
 20
-2.951402452256944
 30
0.0
 10
-0.3478190104166666
 20
-2.827311197916667
 30
0.0
 10
-0.3906385633680555
 20
-2.713087293836805
 30
0.0
 10
-0.4088541666666666
 20
-2.664516872829861
 30
0.0
 10
-0.4374457465277777
 20
-2.654296875
 30
0.0
 10
-0.481201171875
 20
-2.684977213541667
 30
0.0
 10
-0.5152587890625
 20
-2.708848741319444
 30
0.0
 10
-0.5499810112847222
 20
-2.73248291015625
 30
0.0
 10
-0.5868326822916666
 20
-2.751519097222222
 30
0.0
 10
-0.6952311197916666
 20
-2.807529025607639
 30
0.0
 10
-0.76904296875
 20
-2.765760633680555
 30
0.0
 10
-0.7789713541666666
 20
-2.644883897569444
 30
0.0
 10
-0.7808566623263888
 20
-2.621907552083333
 30
0.0
 10
-0.7763400607638888
 20
-2.595648871527778
 30
0.0
 10
-0.7859836154513888
 20
-2.576551649305555
 30
0.0
 10
-0.8299967447916666
 20
-2.489312065972222
 30
0.0
 10
-0.8009847005208333
 20
-2.416680230034722
 30
0.0
 10
-0.7515190972222222
 20
-2.34332275390625
 30
0.0
 10
-0.7382134331597222
 20
-2.323588053385417
 30
0.0
 10
-0.7290174696180555
 20
-2.285115559895833
 30
0.0
 10
-0.7393120659722222
 20
-2.268324110243055
 30
0.0
 10
-0.7760009765625
 20
-2.208401150173611
 30
0.0
 10
-0.7552218967013888
 20
-2.167005750868055
 30
0.0
 10
-0.7162814670138888
 20
-2.119032118055555
 30
0.0
 10
-0.6741672092013888
 20
-2.067125108506944
 30
0.0
 10
-0.6216769748263888
 20
-2.059590657552083
 30
0.0
 10
-0.5669080946180555
 20
-2.075310601128472
 30
0.0
 10
-0.5237494574652778
 20
-2.087700737847222
 30
0.0
 10
-0.4830186631944444
 20
-2.11322021484375
 30
0.0
 10
-0.4453260633680555
 20
-2.138936360677083
 30
0.0
 10
-0.3828531901041666
 20
-2.181552463107639
 30
0.0
 10
-0.3001708984375
 20
-2.186442057291667
 30
0.0
 10
-0.2376573350694444
 20
-2.145195855034722
 30
0.0
 10
-0.1808539496527778
 20
-2.107706705729167
 30
0.0
 10
-0.1572943793402778
 20
-2.019761827256944
 30
0.0
 10
-0.1876356336805556
 20
-1.952080620659722
 30
0.0
 10
-0.2210015190972222
 20
-1.877651638454861
 30
0.0
 10
-0.2728271484375
 20
-1.906765407986111
 30
0.0
 10
-0.3275960286458333
 20
-1.924472384982639
 30
0.0
 10
-0.4196912977430555
 20
-1.954237196180555
 30
0.0
 10
-0.4724527994791666
 20
-1.919901529947917
 30
0.0
 10
-0.4951850043402777
 20
-1.825663248697917
 30
0.0
 10
-0.5005289713541666
 20
-1.803534613715278
 30
0.0
 10
-0.5050998263888888
 20
-1.777777777777778
 30
0.0
 10
-0.5192057291666666
 20
-1.761786566840278
 30
0.0
 10
-0.5878770616319444
 20
-1.683939615885417
 30
0.0
 10
-0.6569959852430555
 20
-1.606099446614583
 30
0.0
 10
-0.7312554253472222
 20
-1.533704969618056
 30
0.0
 10
-0.7839491102430555
 20
-1.482347276475694
 30
0.0
 10
-0.8169623480902777
 20
-1.492750379774306
 30
0.0
 10
-0.8759494357638888
 20
-1.537509494357639
 30
0.0
 10
-0.9261203342013888
 20
-1.575595431857639
 30
0.0
 10
-0.9847547743055555
 20
-1.604783799913194
 30
0.0
 10
-1.043592664930556
 20
-1.627787272135417
 30
0.0
 10
-1.060574001736111
 20
-1.634426540798611
 30
0.0
 10
-1.112019856770833
 20
-1.606065538194444
 30
0.0
 10
-1.112019856770833
 20
-1.593756781684028
 30
0.0
 10
-1.112006293402778
 20
-1.540886773003472
 30
0.0
 10
-1.107638888888889
 20
-1.484361436631944
 30
0.0
 10
-1.087849934895833
 20
-1.4361572265625
 30
0.0
 10
-1.066867404513889
 20
-1.385084364149306
 30
0.0
 10
-1.016859266493056
 20
-1.400987413194444
 30
0.0
 10
-0.9722493489583333
 20
-1.411878797743056
 30
0.0
 10
-0.9066026475694444
 20
-1.427903917100694
 30
0.0
 10
-0.8186984592013888
 20
-1.386372884114583
 30
0.0
 10
-0.8015543619791666
 20
-1.3359375
 30
0.0
 10
-0.7842475043402777
 20
-1.285047743055556
 30
0.0
 10
-0.819363064236111
 20
-1.2203369140625
 30
0.0
 10
-0.8855116102430555
 20
-1.18487548828125
 30
0.0
 10
-0.9384358723958333
 20
-1.156494140625
 30
0.0
 10
-0.9953070746527777
 20
-1.134501139322917
 30
0.0
 10
-1.045328776041667
 20
-1.101854112413194
 30
0.0
 10
-1.160549587673611
 20
-1.026645236545139
 30
0.0
 10
-1.162109375
 20
-1.007310655381944
 30
0.0
 10
-1.078179253472222
 20
-0.9034220377604166
 30
0.0
 10
-1.038316514756944
 20
-0.8540717230902777
 30
0.0
 10
-1.057820638020833
 20
-0.7993367513020833
 30
0.0
 10
-1.121853298611111
 20
-0.79437255859375
 30
0.0
 10
-1.153700086805556
 20
-0.791897243923611
 30
0.0
 10
-1.193359375
 20
-0.7995673285590277
 30
0.0
 10
-1.218329535590278
 20
-0.81787109375
 30
0.0
 10
-1.267035590277778
 20
-0.8535698784722222
 30
0.0
 10
-1.311130099826389
 20
-0.8543226453993055
 30
0.0
 10
-1.359280056423611
 20
-0.82464599609375
 30
0.0
 10
-1.404635959201389
 20
-0.7966986762152777
 30
0.0
 10
-1.4449462890625
 20
-0.7950236002604166
 30
0.0
 10
-1.482096354166667
 20
-0.8395114474826388
 30
0.0
 10
-1.510484483506944
 20
-0.8735283745659722
 30
0.0
 10
-1.5423583984375
 20
-0.8776719835069444
 30
0.0
 10
-1.586968315972222
 20
-0.8610636393229166
 30
0.0
 10
-1.615532769097222
 20
-0.850429958767361
 30
0.0
 10
-1.658460828993055
 20
-0.8589070638020833
 30
0.0
 10
-1.6875
 20
-0.8735690646701388
 30
0.0
 10
-1.732313368055555
 20
-0.8961995442708333
 30
0.0
 10
-1.767374674479167
 20
-0.9394938151041666
 30
0.0
 10
-1.813028971354167
 20
-0.9585978190104166
 30
0.0
 10
-1.844306098090278
 20
-0.9716864691840277
 30
0.0
 10
-1.8992919921875
 20
-0.972378200954861
 30
0.0
 10
-1.920152452256944
 20
-0.953125
 30
0.0
 10
-1.939493815104167
 20
-0.9352756076388888
 30
0.0
 10
-1.939765082465278
 20
-0.8786078559027777
 30
0.0
 10
-1.927137586805555
 20
-0.8477511935763888
 30
0.0
 10
-1.892428927951389
 20
-0.7629530164930555
 30
0.0
 10
-1.838717990451389
 20
-0.7448527018229166
 30
0.0
 10
-1.724812825520833
 20
-0.76409912109375
 30
0.0
 10
-1.637152777777778
 20
-0.7789103190104166
 30
0.0
 10
-1.566134982638889
 20
-0.7559678819444444
 30
0.0
 10
-1.548244900173611
 20
-0.7070515950520833
 30
0.0
 10
-1.501912434895833
 20
-0.5803426106770833
 30
0.0
 10
-1.545138888888889
 20
-0.4855143229166666
 30
0.0
 10
-1.674099392361111
 20
-0.4457736545138888
 30
0.0
 10
-1.714396158854167
 20
-0.4333563910590277
 30
0.0
 10
-1.760945638020833
 20
-0.4428507486979166
 30
0.0
 10
-1.803304036458333
 20
-0.4350992838541666
 30
0.0
 10
-1.836235894097222
 20
-0.4290839301215277
 30
0.0
 10
-1.875081380208333
 20
-0.4198879665798611
 30
0.0
 10
-1.897216796875
 20
-0.3979220920138888
 30
0.0
 10
-1.940958658854167
 20
-0.3545193142361111
 30
0.0
 10
-1.986504448784722
 20
-0.3466050889756944
 30
0.0
 10
-2.034396701388889
 20
-0.3762613932291666
 30
0.0
 10
-2.138753255208333
 20
-0.4408976236979166
 30
0.0
 10
-2.253119574652778
 20
-0.496826171875
 30
0.0
 10
-2.293796115451389
 20
-0.6282145182291666
 30
0.0
 10
-2.299153645833333
 20
-0.6455281575520833
 30
0.0
 10
-2.311672634548611
 20
-0.6605428059895833
 30
0.0
 10
-2.320109049479167
 20
-0.6770087348090278
 30
0.0
 10
-2.347208658854167
 20
-0.7299329969618055
 30
0.0
 10
-2.385837131076389
 20
-0.7615695529513888
 30
0.0
 10
-2.449028862847222
 20
-0.7677747938368055
 30
0.0
 10
-2.531534830729167
 20
-0.77587890625
 30
0.0
 10
-2.5516357421875
 20
-0.806884765625
 30
0.0
 10
-2.526089138454861
 20
-0.8832329644097222
 30
0.0
 10
-2.497477213541667
 20
-0.9687567816840277
 30
0.0
 10
-2.514729817708333
 20
-1.040127224392361
 30
0.0
 10
-2.585544162326389
 20
-1.092793782552083
 30
0.0
 10
-2.607998318142361
 20
-1.1094970703125
 30
0.0
 10
-2.645012749565972
 20
-1.10662841796875
 30
0.0
 10
-2.675360785590278
 20
-1.112711588541667
 30
0.0
 10
-2.6756591796875
 20
-1.08062744140625
 30
0.0
 10
-2.687689887152778
 20
-1.042026095920139
 30
0.0
 10
-2.674140082465278
 20
-1.01763916015625
 30
0.0
 10
-2.626593695746528
 20
-0.9320746527777777
 30
0.0
 10
-2.623419867621528
 20
-0.934414333767361
 30
0.0
 10
-2.714687771267361
 20
-0.9023505316840277
 30
0.0
 10
-2.748779296875
 20
-0.8903672960069444
 30
0.0
 10
-2.780626085069444
 20
-0.8765055338541666
 30
0.0
 10
-2.803677029079861
 20
-0.9209052191840277
 30
0.0
 10
-2.808295355902778
 20
-0.9297892252604166
 30
0.0
 10
-2.826531304253472
 20
-0.938232421875
 30
0.0
 10
-2.836764865451389
 20
-0.9365302191840277
 30
0.0
 10
-2.917487250434028
 20
-0.9230821397569444
 30
0.0
 10
-2.997606065538194
 20
-0.9060601128472222
 30
0.0
 10
-3.078314887152778
 20
-0.8925103081597222
 30
0.0
 10
-3.106716579861111
 20
-0.8877427842881944
 30
0.0
 10
-3.136400010850694
 20
-0.8870374891493055
 30
0.0
 10
-3.165188259548611
 20
-0.8890109592013888
 30
0.0
 10
-3.205898708767361
 20
-0.8917914496527777
 30
0.0
 10
-3.246209038628472
 20
-0.9020114474826388
 30
0.0
 10
-3.286885579427083
 20
-0.9033677842881944
 30
0.0
 10
-3.421291775173611
 20
-0.9078504774305555
 30
0.0
 10
-3.557657877604167
 20
-0.952297634548611
 30
0.0
 10
-3.60943603515625
 20
-1.067389594184028
 30
0.0
 10
-3.674004448784722
 20
-1.210903591579861
 30
0.0
 10
-3.697116427951389
 20
-1.37713623046875
 30
0.0
 10
-3.675455729166667
 20
-1.540947808159722
 30
0.0
 10
-3.6728515625
 20
-1.560682508680555
 30
0.0
 10
-3.665127224392361
 20
-1.586825900607639
 30
0.0
 10
-3.650750054253472
 20
-1.5963134765625
 30
0.0
 10
-3.626837836371528
 20
-1.612101236979167
 30
0.0
 10
-3.593193901909722
 20
-1.628811306423611
 30
0.0
 10
-3.56793212890625
 20
-1.623752170138889
 30
0.0
 10
-3.507907443576389
 20
-1.611735026041667
 30
0.0
 10
-3.477376302083333
 20
-1.626553005642361
 30
0.0
 10
-3.485765245225694
 20
-1.687106662326389
 30
0.0
 10
-3.490810818142361
 20
-1.723483615451389
 30
0.0
 10
-3.516404893663194
 20
-1.756842719184028
 30
0.0
 10
-3.5316162109375
 20
-1.79205322265625
 30
0.0
 10
-3.542894151475694
 20
-1.818169487847222
 30
0.0
 10
-3.565897623697917
 20
-1.848517523871528
 30
0.0
 10
-3.560201009114583
 20
-1.871039496527778
 30
0.0
 10
-3.538045247395833
 20
-1.958563910590278
 30
0.0
 10
-3.509256998697917
 20
-2.044413248697917
 30
0.0
 10
-3.418646918402778
 20
-2.090664333767361
 30
0.0
 10
-3.3709716796875
 20
-2.115003797743055
 30
0.0
 10
-3.360934787326389
 20
-2.151536729600694
 30
0.0
 10
-3.394775390625
 20
-2.199144151475694
 30
0.0
 10
-3.435797797309028
 20
-2.256863064236111
 30
0.0
 10
-3.471720377604167
 20
-2.318183051215278
 30
0.0
 10
-3.511583116319444
 20
-2.37677001953125
 30
0.0
 10
-3.525472005208333
 20
-2.397182888454861
 30
0.0
 10
-3.541497124565972
 20
-2.418768988715278
 30
0.0
 10
-3.561713324652778
 20
-2.431803385416667
 30
0.0
 10
-3.658060709635417
 20
-2.493903266059028
 30
0.0
 10
-3.666666666666667
 20
-2.537448459201389
 30
0.0
 10
-3.605387369791667
 20
-2.637118869357639
 30
0.0
 10
-3.572903103298611
 20
-2.689948187934028
 30
0.0
 10
-3.514146592881944
 20
-2.73150634765625
 30
0.0
 10
-3.529425726996528
 20
-2.808492024739583
 30
0.0
 10
-3.531758626302083
 20
-2.820237901475694
 30
0.0
 10
-3.502163357204861
 20
-2.844631618923611
 30
0.0
 10
-3.482896592881944
 20
-2.853237575954861
 30
0.0
 10
-3.41143798828125
 20
-2.885145399305555
 30
0.0
 10
-3.342732747395833
 20
-2.853664822048611
 30
0.0
 10
-3.317369249131944
 20
-2.778327094184028
 30
0.0
 10
-3.306389702690972
 20
-2.745713975694444
 30
0.0
 10
-3.304823133680555
 20
-2.709879557291667
 30
0.0
 10
-3.29327392578125
 20
-2.677544487847222
 30
0.0
 10
-3.286363389756944
 20
-2.658203125
 30
0.0
 10
-3.269056532118055
 20
-2.629469129774305
 30
0.0
 10
-3.2552490234375
 20
-2.628790961371528
 30
0.0
 10
-3.2349853515625
 20
-2.627794053819444
 30
0.0
 10
-3.207085503472222
 20
-2.643073187934028
 30
0.0
 10
-3.193935818142361
 20
-2.660237630208333
 30
0.0
 10
-3.132500542534722
 20
-2.740424262152778
 30
0.0
 10
-3.156480577256944
 20
-2.826897515190972
 30
0.0
 10
-3.244920518663194
 20
-2.876539442274305
 30
0.0
 10
-3.266526963975694
 20
-2.888671875
 30
0.0
 10
-3.292161729600694
 20
-2.919108072916667
 30
0.0
 10
-3.291517469618055
 20
-2.940388997395833
 30
0.0
 10
-3.289889865451389
 20
-2.994364420572917
 30
0.0
 10
-3.213311089409722
 20
-3.045430501302083
 30
0.0
 10
-3.159267849392361
 20
-3.029886881510417
 30
0.0
 10
-3.106675889756944
 20
-3.014763726128472
 30
0.0
 10
-3.080729166666667
 20
-3.033548990885417
 30
0.0
 10
-3.064053005642361
 20
-3.080044216579861
 30
0.0
 10
-3.057054307725694
 20
-3.099555121527778
 30
0.0
 10
-3.047349717881944
 20
-3.118245442708333
 30
0.0
 10
-3.037448459201389
 20
-3.136528862847222
 30
0.0
 10
-3.006490071614583
 20
-3.193698459201389
 30
0.0
 10
-2.96856689453125
 20
-3.195515950520833
 30
0.0
 10
-2.925320095486111
 20
-3.147650824652778
 30
0.0
 10
-2.906948513454861
 20
-3.1273193359375
 30
0.0
 10
-2.879014756944444
 20
-3.115641276041667
 30
0.0
 10
-2.855428059895833
 20
-3.100016276041667
 30
0.0
 10
-2.845954047309028
 20
-3.1290283203125
 30
0.0
 10
-2.831197102864583
 20
-3.157497829861111
 30
0.0
 10
-2.828233506944444
 20
-3.187147352430555
 30
0.0
 10
-2.8236083984375
 20
-3.233493381076389
 30
0.0
 10
-2.858120388454861
 20
-3.2476806640625
 30
0.0
 10
-2.897020128038194
 20
-3.2586669921875
 30
0.0
 10
-3.027452256944444
 20
-3.295518663194444
 30
0.0
 10
-3.030178493923611
 20
-3.302408854166667
 30
0.0
 10
-3.040554470486111
 20
-3.439914279513889
 30
0.0
 10
-3.043782552083333
 20
-3.482666015625
 30
0.0
 10
-3.047993977864583
 20
-3.530992296006944
 30
0.0
 10
-3.069627549913194
 20
-3.565592447916667
 30
0.0
 10
-3.125298394097222
 20
-3.654649522569444
 30
0.0
 10
-3.125515407986111
 20
-3.678778754340278
 30
0.0
 10
-3.027411566840278
 20
-3.722968207465278
 30
0.0
 10
-2.952277289496528
 20
-3.756822374131944
 30
0.0
 10
-2.871805826822917
 20
-3.778957790798611
 30
0.0
 10
-2.793409559461805
 20
-3.805419921875
 30
0.0
 10
-2.716451009114583
 20
-3.831380208333333
 30
0.0
 10
-2.670884874131944
 20
-3.797865125868055
 30
0.0
 10
-2.672078450520833
 20
-3.717122395833333
 30
0.0
 10
-2.672756618923611
 20
-3.671495225694444
 30
0.0
 10
-2.683675130208333
 20
-3.633558485243055
 30
0.0
 10
-2.725111219618055
 20
-3.603678385416667
 30
0.0
 10
-2.749362521701389
 20
-3.586195203993055
 30
0.0
 10
-2.766004774305555
 20
-3.553846571180555
 30
0.0
 10
-2.778191460503472
 20
-3.524861653645833
 30
0.0
 10
-2.801798502604167
 20
-3.468736436631944
 30
0.0
 10
-2.767964680989583
 20
-3.428860134548611
 30
0.0
 10
-2.707729763454861
 20
-3.4371337890625
 30
0.0
 10
-2.655476888020833
 20
-3.444308810763889
 30
0.0
 10
-2.6165771484375
 20
-3.501166449652778
 30
0.0
 10
-2.617852105034722
 20
-3.567423502604167
 30
0.0
 10
-2.618604871961805
 20
-3.606553819444444
 30
0.0
 10
-2.624586317274305
 20
-3.646931966145833
 30
0.0
 10
-2.617241753472222
 20
-3.684611002604167
 30
0.0
 10
-2.597371419270833
 20
-3.786458333333333
 30
0.0
 10
-2.541266547309028
 20
-3.802978515625
 30
0.0
 10
-2.464952256944444
 20
-3.732462565104167
 30
0.0
 10
-2.377346462673611
 20
-3.651502821180555
 30
0.0
 10
-2.282850477430555
 20
-3.588365342881944
 30
0.0
 10
-2.153645833333333
 20
-3.598388671875
 30
0.0
  0
SPLINE
  5
53
330
1F
100
AcDbEntity
  8
Layer 1
370
     0
100
AcDbSpline
210
0.0
220
0.0
230
1.0
 70
    11
 71
     3
 72
    32
 73
    28
 74
     0
 42
0.0000000001
 43
0.0000000001
 40
0.0
 40
0.0
 40
0.0
 40
0.0
 40
1.0
 40
1.0
 40
1.0
 40
2.0
 40
2.0
 40
2.0
 40
3.0
 40
3.0
 40
3.0
 40
4.0
 40
4.0
 40
4.0
 40
5.0
 40
5.0
 40
5.0
 40
6.0
 40
6.0
 40
6.0
 40
7.0
 40
7.0
 40
7.0
 40
8.0
 40
8.0
 40
8.0
 40
9.0
 40
9.0
 40
9.0
 40
9.0
 10
-0.8197564019097222
 20
-0.779629177517361
 30
0.0
 10
-0.8457573784722222
 20
-0.779629177517361
 30
0.0
 10
-0.8573404947916666
 20
-0.779201931423611
 30
0.0
 10
-0.8688829210069444
 20
-0.7796969943576388
 30
0.0
 10
-0.9572211371527777
 20
-0.78350830078125
 30
0.0
 10
-0.9886474609375
 20
-0.8165486653645833
 30
0.0
 10
-1.0048828125
 20
-0.9223225911458333
 30
0.0
 10
-1.016832139756944
 20
-1.000128851996528
 30
0.0
 10
-0.9921603732638888
 20
-1.039503309461806
 30
0.0
 10
-0.9087320963541666
 20
-1.064371744791667
 30
0.0
 10
-0.8738471137152777
 20
-1.07476806640625
 30
0.0
 10
-0.8341471354166666
 20
-1.0701904296875
 30
0.0
 10
-0.8002115885416666
 20
-1.082383897569444
 30
0.0
 10
-0.7638346354166666
 20
-1.095458984375
 30
0.0
 10
-0.7299669053819444
 20
-1.117899576822917
 30
0.0
 10
-0.6982286241319444
 20
-1.140719943576389
 30
0.0
 10
-0.6747504340277778
 20
-1.157599555121528
 30
0.0
 10
-0.6564398871527778
 20
-1.181633843315972
 30
0.0
 10
-0.6358235677083333
 20
-1.202480740017361
 30
0.0
 10
-0.6118977864583333
 20
-1.177171495225694
 30
0.0
 10
-0.5745849609375
 20
-1.155598958333333
 30
0.0
 10
-0.5662841796875
 20
-1.12591552734375
 30
0.0
 10
-0.5222981770833333
 20
-0.9685397677951388
 30
0.0
 10
-0.53955078125
 20
-0.8025987413194444
 30
0.0
 10
-0.7719048394097222
 20
-0.7832573784722222
 30
0.0
 10
-0.792629665798611
 20
-0.7815348307291666
 30
0.0
 10
-0.813381618923611
 20
-0.7801106770833333
 30
0.0
 10
-0.8197564019097222
 20
-0.779629177517361
 30
0.0
  0
SPLINE
  5
54
330
1F
100
AcDbEntity
  8
Layer 1
370
     0
100
AcDbSpline
210
0.0
220
0.0
230
1.0
 70
    11
 71
     3
 72
    17
 73
    13
 74
     0
 42
0.0000000001
 43
0.0000000001
 40
0.0
 40
0.0
 40
0.0
 40
0.0
 40
1.0
 40
1.0
 40
1.0
 40
2.0
 40
2.0
 40
2.0
 40
3.0
 40
3.0
 40
3.0
 40
4.0
 40
4.0
 40
4.0
 40
4.0
 10
-1.279052734375
 20
-3.692152235243055
 30
0.0
 10
-1.187635633680556
 20
-3.6923828125
 30
0.0
 10
-1.128485785590278
 20
-3.63623046875
 30
0.0
 10
-1.128173828125
 20
-3.548923068576389
 30
0.0
 10
-1.127712673611111
 20
-3.419406467013889
 30
0.0
 10
-1.173177083333333
 20
-3.368001302083333
 30
0.0
 10
-1.289808485243056
 20
-3.366156684027778
 30
0.0
 10
-1.377061631944444
 20
-3.364800347222222
 30
0.0
 10
-1.463148328993056
 20
-3.423258463541667
 30
0.0
 10
-1.45654296875
 20
-3.4873046875
 30
0.0
 10
-1.445638020833333
 20
-3.593031141493055
 30
0.0
 10
-1.403035481770833
 20
-3.699801974826389
 30
0.0
 10
-1.279052734375
 20
-3.692152235243055
 30
0.0
  0
SPLINE
  5
55
330
1F
100
AcDbEntity
  8
Layer 1
370
     0
100
AcDbSpline
210
0.0
220
0.0
230
1.0
 70
    11
 71
     3
 72
    20
 73
    16
 74
     0
 42
0.0000000001
 43
0.0000000001
 40
0.0
 40
0.0
 40
0.0
 40
0.0
 40
1.0
 40
1.0
 40
1.0
 40
2.0
 40
2.0
 40
2.0
 40
3.0
 40
3.0
 40
3.0
 40
4.0
 40
4.0
 40
4.0
 40
5.0
 40
5.0
 40
5.0
 40
5.0
 10
-0.4350721571180555
 20
-2.551127115885417
 30
0.0
 10
-0.3438178168402777
 20
-2.550699869791667
 30
0.0
 10
-0.2765435112847222
 20
-2.468187120225694
 30
0.0
 10
-0.2999945746527777
 20
-2.376864963107639
 30
0.0
 10
-0.3081190321180555
 20
-2.345208062065972
 30
0.0
 10
-0.3311631944444444
 20
-2.303419325086805
 30
0.0
 10
-0.357666015625
 20
-2.293382432725694
 30
0.0
 10
-0.4105224609375
 20
-2.273369683159722
 30
0.0
 10
-0.4703097873263888
 20
-2.270779079861111
 30
0.0
 10
-0.5275607638888888
 20
-2.263563368055555
 30
0.0
 10
-0.5740152994791666
 20
-2.257703993055555
 30
0.0
 10
-0.6050482855902778
 20
-2.273749457465278
 30
0.0
 10
-0.6215142144097222
 20
-2.323628743489583
 30
0.0
 10
-0.66357421875
 20
-2.451009114583333
 30
0.0
 10
-0.5827501085069444
 20
-2.55181884765625
 30
0.0
 10
-0.4350721571180555
 20
-2.551127115885417
 30
0.0
  0
SPLINE
  5
56
330
1F
100
AcDbEntity
  8
Layer 1
370
     0
100
AcDbSpline
210
0.0
220
0.0
230
1.0
 70
    11
 71
     3
 72
    23
 73
    19
 74
     0
 42
0.0000000001
 43
0.0000000001
 40
0.0
 40
0.0
 40
0.0
 40
0.0
 40
1.0
 40
1.0
 40
1.0
 40
2.0
 40
2.0
 40
2.0
 40
3.0
 40
3.0
 40
3.0
 40
4.0
 40
4.0
 40
4.0
 40
5.0
 40
5.0
 40
5.0
 40
6.0
 40
6.0
 40
6.0
 40
6.0
 10
-0.3753526475694444
 20
-1.424540201822917
 30
0.0
 10
-0.3727213541666666
 20
-1.328755696614583
 30
0.0
 10
-0.4631890190972222
 20
-1.251756456163194
 30
0.0
 10
-0.53759765625
 20
-1.28216552734375
 30
0.0
 10
-0.5658365885416666
 20
-1.293694390190972
 30
0.0
 10
-0.591824001736111
 20
-1.34075927734375
 30
0.0
 10
-0.5955810546875
 20
-1.374233669704861
 30
0.0
 10
-0.5998670789930555
 20
-1.412563747829861
 30
0.0
 10
-0.5767957899305555
 20
-1.453477647569444
 30
0.0
 10
-0.5683322482638888
 20
-1.493842230902778
 30
0.0
 10
-0.558254665798611
 20
-1.541863335503472
 30
0.0
 10
-0.5297037760416666
 20
-1.563456217447917
 30
0.0
 10
-0.4816758897569444
 20
-1.56585693359375
 30
0.0
 10
-0.4318169487847222
 20
-1.568352593315972
 30
0.0
 10
-0.4037136501736111
 20
-1.541612413194444
 30
0.0
 10
-0.3897298177083333
 20
-1.498826768663194
 30
0.0
 10
-0.3805474175347222
 20
-1.470737033420139
 30
0.0
 10
-0.3782552083333333
 20
-1.440388997395833
 30
0.0
 10
-0.3753526475694444
 20
-1.424540201822917
 30
0.0
  0
SPLINE
  5
57
330
1F
100
AcDbEntity
  8
Layer 1
370
     0
100
AcDbSpline
210
0.0
220
0.0
230
1.0
 70
    11
 71
     3
 72
    23
 73
    19
 74
     0
 42
0.0000000001
 43
0.0000000001
 40
0.0
 40
0.0
 40
0.0
 40
0.0
 40
1.0
 40
1.0
 40
1.0
 40
2.0
 40
2.0
 40
2.0
 40
3.0
 40
3.0
 40
3.0
 40
4.0
 40
4.0
 40
4.0
 40
5.0
 40
5.0
 40
5.0
 40
6.0
 40
6.0
 40
6.0
 40
6.0
 10
-3.780137803819444
 20
-1.726772732204861
 30
0.0
 10
-3.849629720052083
 20
-1.727376302083333
 30
0.0
 10
-3.895161946614583
 20
-1.774834526909722
 30
0.0
 10
-3.895168728298611
 20
-1.830790201822917
 30
0.0
 10
-3.895175509982639
 20
-1.894239637586805
 30
0.0
 10
-3.840488009982639
 20
-1.979539659288194
 30
0.0
 10
-3.797593858506944
 20
-1.972459581163194
 30
0.0
 10
-3.780036078559028
 20
-1.969563802083333
 30
0.0
 10
-3.762193467881944
 20
-1.935546875
 30
0.0
 10
-3.754733615451389
 20
-1.912380642361111
 30
0.0
 10
-3.744913736979167
 20
-1.881890190972222
 30
0.0
 10
-3.745598687065972
 20
-1.84808349609375
 30
0.0
 10
-3.740993923611111
 20
-1.815809461805555
 30
0.0
 10
-3.738301595052083
 20
-1.796990288628472
 30
0.0
 10
-3.725050184461805
 20
-1.772237141927083
 30
0.0
 10
-3.732632107204861
 20
-1.761074490017361
 30
0.0
 10
-3.745151095920139
 20
-1.742641872829861
 30
0.0
 10
-3.770684136284722
 20
-1.733052571614583
 30
0.0
 10
-3.780137803819444
 20
-1.726772732204861
 30
0.0
  0
SPLINE
  5
58
330
1F
100
AcDbEntity
  8
Layer 1
370
     0
100
AcDbSpline
210
0.0
220
0.0
230
1.0
 70
    11
 71
     3
 72
   323
 73
   319
 74
     0
 42
0.0000000001
 43
0.0000000001
 40
0.0
 40
0.0
 40
0.0
 40
0.0
 40
1.0
 40
1.0
 40
1.0
 40
2.0
 40
2.0
 40
2.0
 40
3.0
 40
3.0
 40
3.0
 40
4.0
 40
4.0
 40
4.0
 40
5.0
 40
5.0
 40
5.0
 40
6.0
 40
6.0
 40
6.0
 40
7.0
 40
7.0
 40
7.0
 40
8.0
 40
8.0
 40
8.0
 40
9.0
 40
9.0
 40
9.0
 40
10.0
 40
10.0
 40
10.0
 40
11.0
 40
11.0
 40
11.0
 40
12.0
 40
12.0
 40
12.0
 40
13.0
 40
13.0
 40
13.0
 40
14.0
 40
14.0
 40
14.0
 40
15.0
 40
15.0
 40
15.0
 40
16.0
 40
16.0
 40
16.0
 40
17.0
 40
17.0
 40
17.0
 40
18.0
 40
18.0
 40
18.0
 40
19.0
 40
19.0
 40
19.0
 40
20.0
 40
20.0
 40
20.0
 40
21.0
 40
21.0
 40
21.0
 40
22.0
 40
22.0
 40
22.0
 40
23.0
 40
23.0
 40
23.0
 40
24.0
 40
24.0
 40
24.0
 40
25.0
 40
25.0
 40
25.0
 40
26.0
 40
26.0
 40
26.0
 40
27.0
 40
27.0
 40
27.0
 40
28.0
 40
28.0
 40
28.0
 40
29.0
 40
29.0
 40
29.0
 40
30.0
 40
30.0
 40
30.0
 40
31.0
 40
31.0
 40
31.0
 40
32.0
 40
32.0
 40
32.0
 40
33.0
 40
33.0
 40
33.0
 40
34.0
 40
34.0
 40
34.0
 40
35.0
 40
35.0
 40
35.0
 40
36.0
 40
36.0
 40
36.0
 40
37.0
 40
37.0
 40
37.0
 40
38.0
 40
38.0
 40
38.0
 40
39.0
 40
39.0
 40
39.0
 40
40.0
 40
40.0
 40
40.0
 40
41.0
 40
41.0
 40
41.0
 40
42.0
 40
42.0
 40
42.0
 40
43.0
 40
43.0
 40
43.0
 40
44.0
 40
44.0
 40
44.0
 40
45.0
 40
45.0
 40
45.0
 40
46.0
 40
46.0
 40
46.0
 40
47.0
 40
47.0
 40
47.0
 40
48.0
 40
48.0
 40
48.0
 40
49.0
 40
49.0
 40
49.0
 40
50.0
 40
50.0
 40
50.0
 40
51.0
 40
51.0
 40
51.0
 40
52.0
 40
52.0
 40
52.0
 40
53.0
 40
53.0
 40
53.0
 40
54.0
 40
54.0
 40
54.0
 40
55.0
 40
55.0
 40
55.0
 40
56.0
 40
56.0
 40
56.0
 40
57.0
 40
57.0
 40
57.0
 40
58.0
 40
58.0
 40
58.0
 40
59.0
 40
59.0
 40
59.0
 40
60.0
 40
60.0
 40
60.0
 40
61.0
 40
61.0
 40
61.0
 40
62.0
 40
62.0
 40
62.0
 40
63.0
 40
63.0
 40
63.0
 40
64.0
 40
64.0
 40
64.0
 40
65.0
 40
65.0
 40
65.0
 40
66.0
 40
66.0
 40
66.0
 40
67.0
 40
67.0
 40
67.0
 40
68.0
 40
68.0
 40
68.0
 40
69.0
 40
69.0
 40
69.0
 40
70.0
 40
70.0
 40
70.0
 40
71.0
 40
71.0
 40
71.0
 40
72.0
 40
72.0
 40
72.0
 40
73.0
 40
73.0
 40
73.0
 40
74.0
 40
74.0
 40
74.0
 40
75.0
 40
75.0
 40
75.0
 40
76.0
 40
76.0
 40
76.0
 40
77.0
 40
77.0
 40
77.0
 40
78.0
 40
78.0
 40
78.0
 40
79.0
 40
79.0
 40
79.0
 40
80.0
 40
80.0
 40
80.0
 40
81.0
 40
81.0
 40
81.0
 40
82.0
 40
82.0
 40
82.0
 40
83.0
 40
83.0
 40
83.0
 40
84.0
 40
84.0
 40
84.0
 40
85.0
 40
85.0
 40
85.0
 40
86.0
 40
86.0
 40
86.0
 40
87.0
 40
87.0
 40
87.0
 40
88.0
 40
88.0
 40
88.0
 40
89.0
 40
89.0
 40
89.0
 40
90.0
 40
90.0
 40
90.0
 40
91.0
 40
91.0
 40
91.0
 40
92.0
 40
92.0
 40
92.0
 40
93.0
 40
93.0
 40
93.0
 40
94.0
 40
94.0
 40
94.0
 40
95.0
 40
95.0
 40
95.0
 40
96.0
 40
96.0
 40
96.0
 40
97.0
 40
97.0
 40
97.0
 40
98.0
 40
98.0
 40
98.0
 40
99.0
 40
99.0
 40
99.0
 40
100.0
 40
100.0
 40
100.0
 40
101.0
 40
101.0
 40
101.0
 40
102.0
 40
102.0
 40
102.0
 40
103.0
 40
103.0
 40
103.0
 40
104.0
 40
104.0
 40
104.0
 40
105.0
 40
105.0
 40
105.0
 40
106.0
 40
106.0
 40
106.0
 40
106.0
 10
-2.153645833333333
 20
-3.598388671875
 30
0.0
 10
-2.282850477430555
 20
-3.588365342881944
 30
0.0
 10
-2.377346462673611
 20
-3.651502821180555
 30
0.0
 10
-2.464952256944444
 20
-3.732462565104167
 30
0.0
 10
-2.541266547309028
 20
-3.802978515625
 30
0.0
 10
-2.597371419270833
 20
-3.786458333333333
 30
0.0
 10
-2.617241753472222
 20
-3.684611002604167
 30
0.0
 10
-2.624586317274305
 20
-3.646931966145833
 30
0.0
 10
-2.618604871961805
 20
-3.606553819444444
 30
0.0
 10
-2.617852105034722
 20
-3.567423502604167
 30
0.0
 10
-2.6165771484375
 20
-3.501166449652778
 30
0.0
 10
-2.655476888020833
 20
-3.444308810763889
 30
0.0
 10
-2.707729763454861
 20
-3.4371337890625
 30
0.0
 10
-2.767964680989583
 20
-3.428860134548611
 30
0.0
 10
-2.801798502604167
 20
-3.468736436631944
 30
0.0
 10
-2.778191460503472
 20
-3.524861653645833
 30
0.0
 10
-2.766004774305555
 20
-3.553846571180555
 30
0.0
 10
-2.749362521701389
 20
-3.586195203993055
 30
0.0
 10
-2.725111219618055
 20
-3.603678385416667
 30
0.0
 10
-2.683675130208333
 20
-3.633558485243055
 30
0.0
 10
-2.672756618923611
 20
-3.671495225694444
 30
0.0
 10
-2.672078450520833
 20
-3.717122395833333
 30
0.0
 10
-2.670884874131944
 20
-3.797865125868055
 30
0.0
 10
-2.716451009114583
 20
-3.831380208333333
 30
0.0
 10
-2.793409559461805
 20
-3.805419921875
 30
0.0
 10
-2.871805826822917
 20
-3.778957790798611
 30
0.0
 10
-2.952277289496528
 20
-3.756822374131944
 30
0.0
 10
-3.027411566840278
 20
-3.722968207465278
 30
0.0
 10
-3.125515407986111
 20
-3.678778754340278
 30
0.0
 10
-3.125298394097222
 20
-3.654649522569444
 30
0.0
 10
-3.069627549913194
 20
-3.565592447916667
 30
0.0
 10
-3.047993977864583
 20
-3.530992296006944
 30
0.0
 10
-3.043782552083333
 20
-3.482666015625
 30
0.0
 10
-3.040554470486111
 20
-3.439914279513889
 30
0.0
 10
-3.030178493923611
 20
-3.302408854166667
 30
0.0
 10
-3.027452256944444
 20
-3.295518663194444
 30
0.0
 10
-2.897020128038194
 20
-3.2586669921875
 30
0.0
 10
-2.858120388454861
 20
-3.2476806640625
 30
0.0
 10
-2.8236083984375
 20
-3.233493381076389
 30
0.0
 10
-2.828233506944444
 20
-3.187147352430555
 30
0.0
 10
-2.831197102864583
 20
-3.157497829861111
 30
0.0
 10
-2.845954047309028
 20
-3.1290283203125
 30
0.0
 10
-2.855428059895833
 20
-3.100016276041667
 30
0.0
 10
-2.879014756944444
 20
-3.115641276041667
 30
0.0
 10
-2.906948513454861
 20
-3.1273193359375
 30
0.0
 10
-2.925320095486111
 20
-3.147650824652778
 30
0.0
 10
-2.96856689453125
 20
-3.195515950520833
 30
0.0
 10
-3.006490071614583
 20
-3.193698459201389
 30
0.0
 10
-3.037448459201389
 20
-3.136528862847222
 30
0.0
 10
-3.047349717881944
 20
-3.118245442708333
 30
0.0
 10
-3.057054307725694
 20
-3.099555121527778
 30
0.0
 10
-3.064053005642361
 20
-3.080044216579861
 30
0.0
 10
-3.080729166666667
 20
-3.033548990885417
 30
0.0
 10
-3.106675889756944
 20
-3.014763726128472
 30
0.0
 10
-3.159267849392361
 20
-3.029886881510417
 30
0.0
 10
-3.213311089409722
 20
-3.045430501302083
 30
0.0
 10
-3.289889865451389
 20
-2.994364420572917
 30
0.0
 10
-3.291517469618055
 20
-2.940388997395833
 30
0.0
 10
-3.292161729600694
 20
-2.919108072916667
 30
0.0
 10
-3.266526963975694
 20
-2.888671875
 30
0.0
 10
-3.244920518663194
 20
-2.876539442274305
 30
0.0
 10
-3.156480577256944
 20
-2.826897515190972
 30
0.0
 10
-3.132500542534722
 20
-2.740424262152778
 30
0.0
 10
-3.193935818142361
 20
-2.660237630208333
 30
0.0
 10
-3.207085503472222
 20
-2.643073187934028
 30
0.0
 10
-3.2349853515625
 20
-2.627794053819444
 30
0.0
 10
-3.2552490234375
 20
-2.628790961371528
 30
0.0
 10
-3.269056532118055
 20
-2.629469129774305
 30
0.0
 10
-3.286363389756944
 20
-2.658203125
 30
0.0
 10
-3.29327392578125
 20
-2.677544487847222
 30
0.0
 10
-3.304823133680555
 20
-2.709879557291667
 30
0.0
 10
-3.306389702690972
 20
-2.745713975694444
 30
0.0
 10
-3.317369249131944
 20
-2.778327094184028
 30
0.0
 10
-3.342732747395833
 20
-2.853664822048611
 30
0.0
 10
-3.41143798828125
 20
-2.885145399305555
 30
0.0
 10
-3.482896592881944
 20
-2.853237575954861
 30
0.0
 10
-3.502163357204861
 20
-2.844631618923611
 30
0.0
 10
-3.531758626302083
 20
-2.820237901475694
 30
0.0
 10
-3.529425726996528
 20
-2.808492024739583
 30
0.0
 10
-3.514146592881944
 20
-2.73150634765625
 30
0.0
 10
-3.572903103298611
 20
-2.689948187934028
 30
0.0
 10
-3.605387369791667
 20
-2.637118869357639
 30
0.0
 10
-3.666666666666667
 20
-2.537448459201389
 30
0.0
 10
-3.658060709635417
 20
-2.493903266059028
 30
0.0
 10
-3.561713324652778
 20
-2.431803385416667
 30
0.0
 10
-3.541497124565972
 20
-2.418768988715278
 30
0.0
 10
-3.525472005208333
 20
-2.397182888454861
 30
0.0
 10
-3.511583116319444
 20
-2.37677001953125
 30
0.0
 10
-3.471720377604167
 20
-2.318183051215278
 30
0.0
 10
-3.435797797309028
 20
-2.256863064236111
 30
0.0
 10
-3.394775390625
 20
-2.199144151475694
 30
0.0
 10
-3.360934787326389
 20
-2.151536729600694
 30
0.0
 10
-3.3709716796875
 20
-2.115003797743055
 30
0.0
 10
-3.418646918402778
 20
-2.090664333767361
 30
0.0
 10
-3.509256998697917
 20
-2.044413248697917
 30
0.0
 10
-3.538045247395833
 20
-1.958563910590278
 30
0.0
 10
-3.560201009114583
 20
-1.871039496527778
 30
0.0
 10
-3.565897623697917
 20
-1.848517523871528
 30
0.0
 10
-3.542894151475694
 20
-1.818169487847222
 30
0.0
 10
-3.5316162109375
 20
-1.79205322265625
 30
0.0
 10
-3.516404893663194
 20
-1.756842719184028
 30
0.0
 10
-3.490810818142361
 20
-1.723483615451389
 30
0.0
 10
-3.485765245225694
 20
-1.687106662326389
 30
0.0
 10
-3.477376302083333
 20
-1.626553005642361
 30
0.0
 10
-3.507907443576389
 20
-1.611735026041667
 30
0.0
 10
-3.56793212890625
 20
-1.623752170138889
 30
0.0
 10
-3.593193901909722
 20
-1.628811306423611
 30
0.0
 10
-3.626837836371528
 20
-1.612101236979167
 30
0.0
 10
-3.650750054253472
 20
-1.5963134765625
 30
0.0
 10
-3.665127224392361
 20
-1.586825900607639
 30
0.0
 10
-3.6728515625
 20
-1.560682508680555
 30
0.0
 10
-3.675455729166667
 20
-1.540947808159722
 30
0.0
 10
-3.697116427951389
 20
-1.37713623046875
 30
0.0
 10
-3.674004448784722
 20
-1.210903591579861
 30
0.0
 10
-3.60943603515625
 20
-1.067389594184028
 30
0.0
 10
-3.557657877604167
 20
-0.952297634548611
 30
0.0
 10
-3.421291775173611
 20
-0.9078504774305555
 30
0.0
 10
-3.286885579427083
 20
-0.9033677842881944
 30
0.0
 10
-3.246209038628472
 20
-0.9020114474826388
 30
0.0
 10
-3.205898708767361
 20
-0.8917914496527777
 30
0.0
 10
-3.165188259548611
 20
-0.8890109592013888
 30
0.0
 10
-3.136400010850694
 20
-0.8870374891493055
 30
0.0
 10
-3.106716579861111
 20
-0.8877427842881944
 30
0.0
 10
-3.078314887152778
 20
-0.8925103081597222
 30
0.0
 10
-2.997606065538194
 20
-0.9060601128472222
 30
0.0
 10
-2.917487250434028
 20
-0.9230821397569444
 30
0.0
 10
-2.836764865451389
 20
-0.9365302191840277
 30
0.0
 10
-2.826531304253472
 20
-0.938232421875
 30
0.0
 10
-2.808295355902778
 20
-0.9297892252604166
 30
0.0
 10
-2.803677029079861
 20
-0.9209052191840277
 30
0.0
 10
-2.780626085069444
 20
-0.8765055338541666
 30
0.0
 10
-2.748779296875
 20
-0.8903672960069444
 30
0.0
 10
-2.714687771267361
 20
-0.9023505316840277
 30
0.0
 10
-2.623419867621528
 20
-0.934414333767361
 30
0.0
 10
-2.626593695746528
 20
-0.9320746527777777
 30
0.0
 10
-2.674140082465278
 20
-1.01763916015625
 30
0.0
 10
-2.687689887152778
 20
-1.042026095920139
 30
0.0
 10
-2.6756591796875
 20
-1.08062744140625
 30
0.0
 10
-2.675360785590278
 20
-1.112711588541667
 30
0.0
 10
-2.645012749565972
 20
-1.10662841796875
 30
0.0
 10
-2.607998318142361
 20
-1.1094970703125
 30
0.0
 10
-2.585544162326389
 20
-1.092793782552083
 30
0.0
 10
-2.514729817708333
 20
-1.040127224392361
 30
0.0
 10
-2.497477213541667
 20
-0.9687567816840277
 30
0.0
 10
-2.526089138454861
 20
-0.8832329644097222
 30
0.0
 10
-2.5516357421875
 20
-0.806884765625
 30
0.0
 10
-2.531534830729167
 20
-0.77587890625
 30
0.0
 10
-2.449028862847222
 20
-0.7677747938368055
 30
0.0
 10
-2.385837131076389
 20
-0.7615695529513888
 30
0.0
 10
-2.347208658854167
 20
-0.7299329969618055
 30
0.0
 10
-2.320109049479167
 20
-0.6770087348090278
 30
0.0
 10
-2.311672634548611
 20
-0.6605428059895833
 30
0.0
 10
-2.299153645833333
 20
-0.6455281575520833
 30
0.0
 10
-2.293796115451389
 20
-0.6282145182291666
 30
0.0
 10
-2.253119574652778
 20
-0.496826171875
 30
0.0
 10
-2.138753255208333
 20
-0.4408976236979166
 30
0.0
 10
-2.034396701388889
 20
-0.3762613932291666
 30
0.0
 10
-1.986504448784722
 20
-0.3466050889756944
 30
0.0
 10
-1.940958658854167
 20
-0.3545193142361111
 30
0.0
 10
-1.897216796875
 20
-0.3979220920138888
 30
0.0
 10
-1.875081380208333
 20
-0.4198879665798611
 30
0.0
 10
-1.836235894097222
 20
-0.4290839301215277
 30
0.0
 10
-1.803304036458333
 20
-0.4350992838541666
 30
0.0
 10
-1.760945638020833
 20
-0.4428507486979166
 30
0.0
 10
-1.714396158854167
 20
-0.4333563910590277
 30
0.0
 10
-1.674099392361111
 20
-0.4457736545138888
 30
0.0
 10
-1.545138888888889
 20
-0.4855143229166666
 30
0.0
 10
-1.501912434895833
 20
-0.5803426106770833
 30
0.0
 10
-1.548244900173611
 20
-0.7070515950520833
 30
0.0
 10
-1.566134982638889
 20
-0.7559678819444444
 30
0.0
 10
-1.637152777777778
 20
-0.7789103190104166
 30
0.0
 10
-1.724812825520833
 20
-0.76409912109375
 30
0.0
 10
-1.838717990451389
 20
-0.7448527018229166
 30
0.0
 10
-1.892428927951389
 20
-0.7629530164930555
 30
0.0
 10
-1.927137586805555
 20
-0.8477511935763888
 30
0.0
 10
-1.939765082465278
 20
-0.8786078559027777
 30
0.0
 10
-1.939493815104167
 20
-0.9352756076388888
 30
0.0
 10
-1.920152452256944
 20
-0.953125
 30
0.0
 10
-1.8992919921875
 20
-0.972378200954861
 30
0.0
 10
-1.844306098090278
 20
-0.9716864691840277
 30
0.0
 10
-1.813028971354167
 20
-0.9585978190104166
 30
0.0
 10
-1.767374674479167
 20
-0.9394938151041666
 30
0.0
 10
-1.732313368055555
 20
-0.8961995442708333
 30
0.0
 10
-1.6875
 20
-0.8735690646701388
 30
0.0
 10
-1.658460828993055
 20
-0.8589070638020833
 30
0.0
 10
-1.615532769097222
 20
-0.850429958767361
 30
0.0
 10
-1.586968315972222
 20
-0.8610636393229166
 30
0.0
 10
-1.5423583984375
 20
-0.8776719835069444
 30
0.0
 10
-1.510484483506944
 20
-0.8735283745659722
 30
0.0
 10
-1.482096354166667
 20
-0.8395114474826388
 30
0.0
 10
-1.4449462890625
 20
-0.7950236002604166
 30
0.0
 10
-1.404635959201389
 20
-0.7966986762152777
 30
0.0
 10
-1.359280056423611
 20
-0.82464599609375
 30
0.0
 10
-1.311130099826389
 20
-0.8543226453993055
 30
0.0
 10
-1.267035590277778
 20
-0.8535698784722222
 30
0.0
 10
-1.218329535590278
 20
-0.81787109375
 30
0.0
 10
-1.193359375
 20
-0.7995673285590277
 30
0.0
 10
-1.153700086805556
 20
-0.791897243923611
 30
0.0
 10
-1.121853298611111
 20
-0.79437255859375
 30
0.0
 10
-1.057820638020833
 20
-0.7993367513020833
 30
0.0
 10
-1.038316514756944
 20
-0.8540717230902777
 30
0.0
 10
-1.078179253472222
 20
-0.9034220377604166
 30
0.0
 10
-1.162109375
 20
-1.007310655381944
 30
0.0
 10
-1.160549587673611
 20
-1.026645236545139
 30
0.0
 10
-1.045328776041667
 20
-1.101854112413194
 30
0.0
 10
-0.9953070746527777
 20
-1.134501139322917
 30
0.0
 10
-0.9384358723958333
 20
-1.156494140625
 30
0.0
 10
-0.8855116102430555
 20
-1.18487548828125
 30
0.0
 10
-0.819363064236111
 20
-1.2203369140625
 30
0.0
 10
-0.7842475043402777
 20
-1.285047743055556
 30
0.0
 10
-0.8015543619791666
 20
-1.3359375
 30
0.0
 10
-0.8186984592013888
 20
-1.386372884114583
 30
0.0
 10
-0.9066026475694444
 20
-1.427903917100694
 30
0.0
 10
-0.9722493489583333
 20
-1.411878797743056
 30
0.0
 10
-1.016859266493056
 20
-1.400987413194444
 30
0.0
 10
-1.066867404513889
 20
-1.385084364149306
 30
0.0
 10
-1.087849934895833
 20
-1.4361572265625
 30
0.0
 10
-1.107638888888889
 20
-1.484361436631944
 30
0.0
 10
-1.112006293402778
 20
-1.540886773003472
 30
0.0
 10
-1.112019856770833
 20
-1.593756781684028
 30
0.0
 10
-1.112019856770833
 20
-1.606065538194444
 30
0.0
 10
-1.060574001736111
 20
-1.634426540798611
 30
0.0
 10
-1.043592664930556
 20
-1.627787272135417
 30
0.0
 10
-0.9847547743055555
 20
-1.604783799913194
 30
0.0
 10
-0.9261203342013888
 20
-1.575595431857639
 30
0.0
 10
-0.8759494357638888
 20
-1.537509494357639
 30
0.0
 10
-0.8169623480902777
 20
-1.492750379774306
 30
0.0
 10
-0.7839491102430555
 20
-1.482347276475694
 30
0.0
 10
-0.7312554253472222
 20
-1.533704969618056
 30
0.0
 10
-0.6569959852430555
 20
-1.606099446614583
 30
0.0
 10
-0.5878770616319444
 20
-1.683939615885417
 30
0.0
 10
-0.5192057291666666
 20
-1.761786566840278
 30
0.0
 10
-0.5050998263888888
 20
-1.777777777777778
 30
0.0
 10
-0.5005289713541666
 20
-1.803534613715278
 30
0.0
 10
-0.4951850043402777
 20
-1.825663248697917
 30
0.0
 10
-0.4724527994791666
 20
-1.919901529947917
 30
0.0
 10
-0.4196912977430555
 20
-1.954237196180555
 30
0.0
 10
-0.3275960286458333
 20
-1.924472384982639
 30
0.0
 10
-0.2728271484375
 20
-1.906765407986111
 30
0.0
 10
-0.2210015190972222
 20
-1.877651638454861
 30
0.0
 10
-0.1876356336805556
 20
-1.952080620659722
 30
0.0
 10
-0.1572943793402778
 20
-2.019761827256944
 30
0.0
 10
-0.1808539496527778
 20
-2.107706705729167
 30
0.0
 10
-0.2376573350694444
 20
-2.145195855034722
 30
0.0
 10
-0.3001708984375
 20
-2.186442057291667
 30
0.0
 10
-0.3828531901041666
 20
-2.181552463107639
 30
0.0
 10
-0.4453260633680555
 20
-2.138936360677083
 30
0.0
 10
-0.4830186631944444
 20
-2.11322021484375
 30
0.0
 10
-0.5237494574652778
 20
-2.087700737847222
 30
0.0
 10
-0.5669080946180555
 20
-2.075310601128472
 30
0.0
 10
-0.6216769748263888
 20
-2.059590657552083
 30
0.0
 10
-0.6741672092013888
 20
-2.067125108506944
 30
0.0
 10
-0.7162814670138888
 20
-2.119032118055555
 30
0.0
 10
-0.7552218967013888
 20
-2.167005750868055
 30
0.0
 10
-0.7760009765625
 20
-2.208401150173611
 30
0.0
 10
-0.7393120659722222
 20
-2.268324110243055
 30
0.0
 10
-0.7290174696180555
 20
-2.285115559895833
 30
0.0
 10
-0.7382134331597222
 20
-2.323588053385417
 30
0.0
 10
-0.7515190972222222
 20
-2.34332275390625
 30
0.0
 10
-0.8009847005208333
 20
-2.416680230034722
 30
0.0
 10
-0.8299967447916666
 20
-2.489312065972222
 30
0.0
 10
-0.7859836154513888
 20
-2.576551649305555
 30
0.0
 10
-0.7763400607638888
 20
-2.595648871527778
 30
0.0
 10
-0.7808566623263888
 20
-2.621907552083333
 30
0.0
 10
-0.7789713541666666
 20
-2.644883897569444
 30
0.0
 10
-0.76904296875
 20
-2.765760633680555
 30
0.0
 10
-0.6952311197916666
 20
-2.807529025607639
 30
0.0
 10
-0.5868326822916666
 20
-2.751519097222222
 30
0.0
 10
-0.5499810112847222
 20
-2.73248291015625
 30
0.0
 10
-0.5152587890625
 20
-2.708848741319444
 30
0.0
 10
-0.481201171875
 20
-2.684977213541667
 30
0.0
 10
-0.4374457465277777
 20
-2.654296875
 30
0.0
 10
-0.4088541666666666
 20
-2.664516872829861
 30
0.0
 10
-0.3906385633680555
 20
-2.713087293836805
 30
0.0
 10
-0.3478190104166666
 20
-2.827311197916667
 30
0.0
 10
-0.3876410590277777
 20
-2.951402452256944
 30
0.0
 10
-0.4974365234375
 20
-3.04510498046875
 30
0.0
 10
-0.5768364800347222
 20
-3.112874348958333
 30
0.0
 10
-0.693508572048611
 20
-3.119059244791667
 30
0.0
 10
-0.7950846354166666
 20
-3.060919867621528
 30
0.0
 10
-0.9190402560763888
 20
-2.989963107638889
 30
0.0
 10
-1.025254991319444
 20
-3.036892361111111
 30
0.0
 10
-1.055080837673611
 20
-3.175821940104167
 30
0.0
 10
-1.071546766493056
 20
-3.252536349826389
 30
0.0
 10
-1.209648980034722
 20
-3.3082275390625
 30
0.0
 10
-1.280802408854167
 20
-3.274820963541667
 30
0.0
 10
-1.319580078125
 20
-3.256618923611111
 30
0.0
 10
-1.370808919270833
 20
-3.244940863715278
 30
0.0
 10
-1.4110107421875
 20
-3.254096137152778
 30
0.0
 10
-1.487019856770833
 20
-3.271389431423611
 30
0.0
 10
-1.559271918402778
 20
-3.305501302083333
 30
0.0
 10
-1.632758246527778
 20
-3.33349609375
 30
0.0
 10
-1.645480685763889
 20
-3.338338216145833
 30
0.0
 10
-1.659722222222222
 20
-3.344943576388889
 30
0.0
 10
-1.667833116319444
 20
-3.355061848958333
 30
0.0
 10
-1.689927842881944
 20
-3.382703993055555
 30
0.0
 10
-1.732286241319444
 20
-3.425211588541667
 30
0.0
 10
-1.7247314453125
 20
-3.439154730902778
 30
0.0
 10
-1.707953559027778
 20
-3.470133463541667
 30
0.0
 10
-1.668565538194444
 20
-3.496799045138889
 30
0.0
 10
-1.633002387152778
 20
-3.507798936631944
 30
0.0
 10
-1.579616970486111
 20
-3.524319118923611
 30
0.0
 10
-1.533040364583333
 20
-3.541951497395833
 30
0.0
 10
-1.508165147569444
 20
-3.596015082465278
 30
0.0
 10
-1.479600694444444
 20
-3.6580810546875
 30
0.0
 10
-1.504842122395833
 20
-3.707614474826389
 30
0.0
 10
-1.572903103298611
 20
-3.713189019097222
 30
0.0
 10
-1.604220920138889
 20
-3.715766059027778
 30
0.0
 10
-1.636555989583333
 20
-3.708251953125
 30
0.0
 10
-1.668212890625
 20
-3.703762478298611
 30
0.0
 10
-1.718438042534722
 20
-3.696641710069444
 30
0.0
 10
-1.768337673611111
 20
-3.682888454861111
 30
0.0
 10
-1.818603515625
 20
-3.681708441840278
 30
0.0
 10
-1.880018446180555
 20
-3.680284288194444
 30
0.0
 10
-1.932359483506944
 20
-3.669949001736111
 30
0.0
 10
-1.987548828125
 20
-3.635348849826389
 30
0.0
 10
-2.0328369140625
 20
-3.606947157118055
 30
0.0
 10
-2.097547743055555
 20
-3.609537760416667
 30
0.0
 10
-2.153645833333333
 20
-3.598388671875
 30
0.0
  0
SPLINE
  5
59
330
1F
100
AcDbEntity
  8
Layer 1
370
     0
100
AcDbSpline
210
0.0
220
0.0
230
1.0
 70
    11
 71
     3
 72
    23
 73
    19
 74
     0
 42
0.0000000001
 43
0.0000000001
 40
0.0
 40
0.0
 40
0.0
 40
0.0
 40
1.0
 40
1.0
 40
1.0
 40
2.0
 40
2.0
 40
2.0
 40
3.0
 40
3.0
 40
3.0
 40
4.0
 40
4.0
 40
4.0
 40
5.0
 40
5.0
 40
5.0
 40
6.0
 40
6.0
 40
6.0
 40
6.0
 10
-1.444892035590278
 20
-1.478474934895833
 30
0.0
 10
-1.490125868055556
 20
-1.518486870659722
 30
0.0
 10
-1.528496636284722
 20
-1.551479763454861
 30
0.0
 10
-1.565836588541667
 20
-1.585611979166667
 30
0.0
 10
-1.792724609375
 20
-1.793002658420139
 30
0.0
 10
-2.018785264756944
 20
-2.001295301649305
 30
0.0
 10
-2.246622721354167
 20
-2.207621256510417
 30
0.0
 10
-2.287339952256944
 20
-2.244486490885417
 30
0.0
 10
-2.292900933159722
 20
-2.280782063802083
 30
0.0
 10
-2.274020724826389
 20
-2.33026123046875
 30
0.0
 10
-2.239271375868055
 20
-2.421359592013889
 30
0.0
 10
-2.175225151909722
 20
-2.478495279947917
 30
0.0
 10
-2.084906684027778
 20
-2.509589301215278
 30
0.0
 10
-1.746120876736111
 20
-2.626207139756944
 30
0.0
 10
-1.374525282118056
 20
-2.395121256510417
 30
0.0
 10
-1.306233723958333
 20
-2.026862250434028
 30
0.0
 10
-1.269015842013889
 20
-1.826158311631944
 30
0.0
 10
-1.316446940104167
 20
-1.648335774739583
 30
0.0
 10
-1.444892035590278
 20
-1.478474934895833
 30
0.0
  0
SPLINE
  5
5A
330
1F
100
AcDbEntity
  8
Layer 1
370
     0
100
AcDbSpline
210
0.0
220
0.0
230
1.0
 70
    11
 71
     3
 72
    26
 73
    22
 74
     0
 42
0.0000000001
 43
0.0000000001
 40
0.0
 40
0.0
 40
0.0
 40
0.0
 40
1.0
 40
1.0
 40
1.0
 40
2.0
 40
2.0
 40
2.0
 40
3.0
 40
3.0
 40
3.0
 40
4.0
 40
4.0
 40
4.0
 40
5.0
 40
5.0
 40
5.0
 40
6.0
 40
6.0
 40
6.0
 40
7.0
 40
7.0
 40
7.0
 40
7.0
 10
-3.112969292534722
 20
-1.547153049045139
 30
0.0
 10
-3.178107367621528
 20
-1.774868435329861
 30
0.0
 10
-3.209309895833333
 20
-1.986952039930555
 30
0.0
 10
-3.180582682291667
 20
-2.206156412760417
 30
0.0
 10
-3.162848578559028
 20
-2.341518825954861
 30
0.0
 10
-3.092983669704861
 20
-2.442091200086805
 30
0.0
 10
-2.985460069444444
 20
-2.520548502604167
 30
0.0
 10
-2.858140733506944
 20
-2.613444010416667
 30
0.0
 10
-2.711683485243055
 20
-2.573465983072917
 30
0.0
 10
-2.652865939670139
 20
-2.428792317708333
 30
0.0
 10
-2.6407470703125
 20
-2.398980034722222
 30
0.0
 10
-2.627393934461805
 20
-2.367872450086805
 30
0.0
 10
-2.624837239583333
 20
-2.336520724826389
 30
0.0
 10
-2.622701009114583
 20
-2.310309516059028
 30
0.0
 10
-2.628411187065972
 20
-2.278055826822917
 30
0.0
 10
-2.642876519097222
 20
-2.256795247395833
 30
0.0
 10
-2.722188313802083
 20
-2.140245225694444
 30
0.0
 10
-2.808071560329861
 20
-2.02813720703125
 30
0.0
 10
-2.886237250434028
 20
-1.910868326822917
 30
0.0
 10
-2.961764865451389
 20
-1.797553168402778
 30
0.0
 10
-3.030680338541667
 20
-1.679829915364583
 30
0.0
 10
-3.112969292534722
 20
-1.547153049045139
 30
0.0
  0
SPLINE
  5
5B
330
1F
100
AcDbEntity
  8
Layer 1
370
     0
100
AcDbSpline
210
0.0
220
0.0
230
1.0
 70
    11
 71
     3
 72
    17
 73
    13
 74
     0
 42
0.0000000001
 43
0.0000000001
 40
0.0
 40
0.0
 40
0.0
 40
0.0
 40
1.0
 40
1.0
 40
1.0
 40
2.0
 40
2.0
 40
2.0
 40
3.0
 40
3.0
 40
3.0
 40
4.0
 40
4.0
 40
4.0
 40
4.0
 10
-1.8421630859375
 20
-2.767428927951389
 30
0.0
 10
-1.814900716145833
 20
-2.824069552951389
 30
0.0
 10
-1.790947808159722
 20
-2.873799641927083
 30
0.0
 10
-1.767008463541667
 20
-2.923536512586805
 30
0.0
 10
-1.761338975694444
 20
-2.922837999131944
 30
0.0
 10
-1.755683051215278
 20
-2.922146267361111
 30
0.0
 10
-1.750013563368055
 20
-2.92144775390625
 30
0.0
 10
-1.739447699652778
 20
-2.863437228732639
 30
0.0
 10
-1.7288818359375
 20
-2.805426703559028
 30
0.0
 10
-1.716295030381944
 20
-2.736341688368055
 30
0.0
 10
-1.764458550347222
 20
-2.748236762152778
 30
0.0
 10
-1.798760308159722
 20
-2.756707085503472
 30
0.0
 10
-1.8421630859375
 20
-2.767428927951389
 30
0.0
  0
SPLINE
  5
5C
330
1F
100
AcDbEntity
  8
Layer 1
370
     0
100
AcDbSpline
210
0.0
220
0.0
230
1.0
 70
    11
 71
     3
 72
    17
 73
    13
 74
     0
 42
0.0000000001
 43
0.0000000001
 40
0.0
 40
0.0
 40
0.0
 40
0.0
 40
1.0
 40
1.0
 40
1.0
 40
2.0
 40
2.0
 40
2.0
 40
3.0
 40
3.0
 40
3.0
 40
4.0
 40
4.0
 40
4.0
 40
4.0
 10
-2.890882703993055
 20
-2.678914388020833
 30
0.0
 10
-2.879048665364583
 20
-2.730211046006944
 30
0.0
 10
-2.87054443359375
 20
-2.767076280381944
 30
0.0
 10
-2.862040201822917
 20
-2.803934733072917
 30
0.0
 10
-2.856519911024305
 20
-2.803636338975694
 30
0.0
 10
-2.850999620225694
 20
-2.803337944878472
 30
0.0
 10
-2.845472547743055
 20
-2.803032769097222
 30
0.0
 10
-2.829935709635417
 20
-2.77093505859375
 30
0.0
 10
-2.81439208984375
 20
-2.738837348090278
 30
0.0
 10
-2.796841091579861
 20
-2.702582465277778
 30
0.0
 10
-2.828369140625
 20
-2.694647894965278
 30
0.0
 10
-2.852342393663194
 20
-2.688618977864583
 30
0.0
 10
-2.890882703993055
 20
-2.678914388020833
 30
0.0
  0
HATCH
  5
5D
330
1F
100
AcDbEntity
  8
Layer 1
 62
     7
420
 16777215
100
AcDbHatch
 10
0.0
 20
0.0
 30
0.0
210
0.0
220
0.0
230
1.0
  2
SOLID
 70
     1
 71
     0
 91
        5
 92
        1
 93
        1
 72
     4
 94
        3
 73
     0
 74
     1
 95
      323
 96
      319
 40
0.0
 40
0.0
 40
0.0
 40
0.0
 40
1.0
 40
1.0
 40
1.0
 40
2.0
 40
2.0
 40
2.0
 40
3.0
 40
3.0
 40
3.0
 40
4.0
 40
4.0
 40
4.0
 40
5.0
 40
5.0
 40
5.0
 40
6.0
 40
6.0
 40
6.0
 40
7.0
 40
7.0
 40
7.0
 40
8.0
 40
8.0
 40
8.0
 40
9.0
 40
9.0
 40
9.0
 40
10.0
 40
10.0
 40
10.0
 40
11.0
 40
11.0
 40
11.0
 40
12.0
 40
12.0
 40
12.0
 40
13.0
 40
13.0
 40
13.0
 40
14.0
 40
14.0
 40
14.0
 40
15.0
 40
15.0
 40
15.0
 40
16.0
 40
16.0
 40
16.0
 40
17.0
 40
17.0
 40
17.0
 40
18.0
 40
18.0
 40
18.0
 40
19.0
 40
19.0
 40
19.0
 40
20.0
 40
20.0
 40
20.0
 40
21.0
 40
21.0
 40
21.0
 40
22.0
 40
22.0
 40
22.0
 40
23.0
 40
23.0
 40
23.0
 40
24.0
 40
24.0
 40
24.0
 40
25.0
 40
25.0
 40
25.0
 40
26.0
 40
26.0
 40
26.0
 40
27.0
 40
27.0
 40
27.0
 40
28.0
 40
28.0
 40
28.0
 40
29.0
 40
29.0
 40
29.0
 40
30.0
 40
30.0
 40
30.0
 40
31.0
 40
31.0
 40
31.0
 40
32.0
 40
32.0
 40
32.0
 40
33.0
 40
33.0
 40
33.0
 40
34.0
 40
34.0
 40
34.0
 40
35.0
 40
35.0
 40
35.0
 40
36.0
 40
36.0
 40
36.0
 40
37.0
 40
37.0
 40
37.0
 40
38.0
 40
38.0
 40
38.0
 40
39.0
 40
39.0
 40
39.0
 40
40.0
 40
40.0
 40
40.0
 40
41.0
 40
41.0
 40
41.0
 40
42.0
 40
42.0
 40
42.0
 40
43.0
 40
43.0
 40
43.0
 40
44.0
 40
44.0
 40
44.0
 40
45.0
 40
45.0
 40
45.0
 40
46.0
 40
46.0
 40
46.0
 40
47.0
 40
47.0
 40
47.0
 40
48.0
 40
48.0
 40
48.0
 40
49.0
 40
49.0
 40
49.0
 40
50.0
 40
50.0
 40
50.0
 40
51.0
 40
51.0
 40
51.0
 40
52.0
 40
52.0
 40
52.0
 40
53.0
 40
53.0
 40
53.0
 40
54.0
 40
54.0
 40
54.0
 40
55.0
 40
55.0
 40
55.0
 40
56.0
 40
56.0
 40
56.0
 40
57.0
 40
57.0
 40
57.0
 40
58.0
 40
58.0
 40
58.0
 40
59.0
 40
59.0
 40
59.0
 40
60.0
 40
60.0
 40
60.0
 40
61.0
 40
61.0
 40
61.0
 40
62.0
 40
62.0
 40
62.0
 40
63.0
 40
63.0
 40
63.0
 40
64.0
 40
64.0
 40
64.0
 40
65.0
 40
65.0
 40
65.0
 40
66.0
 40
66.0
 40
66.0
 40
67.0
 40
67.0
 40
67.0
 40
68.0
 40
68.0
 40
68.0
 40
69.0
 40
69.0
 40
69.0
 40
70.0
 40
70.0
 40
70.0
 40
71.0
 40
71.0
 40
71.0
 40
72.0
 40
72.0
 40
72.0
 40
73.0
 40
73.0
 40
73.0
 40
74.0
 40
74.0
 40
74.0
 40
75.0
 40
75.0
 40
75.0
 40
76.0
 40
76.0
 40
76.0
 40
77.0
 40
77.0
 40
77.0
 40
78.0
 40
78.0
 40
78.0
 40
79.0
 40
79.0
 40
79.0
 40
80.0
 40
80.0
 40
80.0
 40
81.0
 40
81.0
 40
81.0
 40
82.0
 40
82.0
 40
82.0
 40
83.0
 40
83.0
 40
83.0
 40
84.0
 40
84.0
 40
84.0
 40
85.0
 40
85.0
 40
85.0
 40
86.0
 40
86.0
 40
86.0
 40
87.0
 40
87.0
 40
87.0
 40
88.0
 40
88.0
 40
88.0
 40
89.0
 40
89.0
 40
89.0
 40
90.0
 40
90.0
 40
90.0
 40
91.0
 40
91.0
 40
91.0
 40
92.0
 40
92.0
 40
92.0
 40
93.0
 40
93.0
 40
93.0
 40
94.0
 40
94.0
 40
94.0
 40
95.0
 40
95.0
 40
95.0
 40
96.0
 40
96.0
 40
96.0
 40
97.0
 40
97.0
 40
97.0
 40
98.0
 40
98.0
 40
98.0
 40
99.0
 40
99.0
 40
99.0
 40
100.0
 40
100.0
 40
100.0
 40
101.0
 40
101.0
 40
101.0
 40
102.0
 40
102.0
 40
102.0
 40
103.0
 40
103.0
 40
103.0
 40
104.0
 40
104.0
 40
104.0
 40
105.0
 40
105.0
 40
105.0
 40
106.0
 40
106.0
 40
106.0
 40
106.0
 10
-2.153645833333333
 20
-3.598388671875
 10
-2.282850477430555
 20
-3.588365342881944
 10
-2.377346462673611
 20
-3.651502821180555
 10
-2.464952256944444
 20
-3.732462565104167
 10
-2.541266547309028
 20
-3.802978515625
 10
-2.597371419270833
 20
-3.786458333333333
 10
-2.617241753472222
 20
-3.684611002604167
 10
-2.624586317274305
 20
-3.646931966145833
 10
-2.618604871961805
 20
-3.606553819444444
 10
-2.617852105034722
 20
-3.567423502604167
 10
-2.6165771484375
 20
-3.501166449652778
 10
-2.655476888020833
 20
-3.444308810763889
 10
-2.707729763454861
 20
-3.4371337890625
 10
-2.767964680989583
 20
-3.428860134548611
 10
-2.801798502604167
 20
-3.468736436631944
 10
-2.778191460503472
 20
-3.524861653645833
 10
-2.766004774305555
 20
-3.553846571180555
 10
-2.749362521701389
 20
-3.586195203993055
 10
-2.725111219618055
 20
-3.603678385416667
 10
-2.683675130208333
 20
-3.633558485243055
 10
-2.672756618923611
 20
-3.671495225694444
 10
-2.672078450520833
 20
-3.717122395833333
 10
-2.670884874131944
 20
-3.797865125868055
 10
-2.716451009114583
 20
-3.831380208333333
 10
-2.793409559461805
 20
-3.805419921875
 10
-2.871805826822917
 20
-3.778957790798611
 10
-2.952277289496528
 20
-3.756822374131944
 10
-3.027411566840278
 20
-3.722968207465278
 10
-3.125515407986111
 20
-3.678778754340278
 10
-3.125298394097222
 20
-3.654649522569444
 10
-3.069627549913194
 20
-3.565592447916667
 10
-3.047993977864583
 20
-3.530992296006944
 10
-3.043782552083333
 20
-3.482666015625
 10
-3.040554470486111
 20
-3.439914279513889
 10
-3.030178493923611
 20
-3.302408854166667
 10
-3.027452256944444
 20
-3.295518663194444
 10
-2.897020128038194
 20
-3.2586669921875
 10
-2.858120388454861
 20
-3.2476806640625
 10
-2.8236083984375
 20
-3.233493381076389
 10
-2.828233506944444
 20
-3.187147352430555
 10
-2.831197102864583
 20
-3.157497829861111
 10
-2.845954047309028
 20
-3.1290283203125
 10
-2.855428059895833
 20
-3.100016276041667
 10
-2.879014756944444
 20
-3.115641276041667
 10
-2.906948513454861
 20
-3.1273193359375
 10
-2.925320095486111
 20
-3.147650824652778
 10
-2.96856689453125
 20
-3.195515950520833
 10
-3.006490071614583
 20
-3.193698459201389
 10
-3.037448459201389
 20
-3.136528862847222
 10
-3.047349717881944
 20
-3.118245442708333
 10
-3.057054307725694
 20
-3.099555121527778
 10
-3.064053005642361
 20
-3.080044216579861
 10
-3.080729166666667
 20
-3.033548990885417
 10
-3.106675889756944
 20
-3.014763726128472
 10
-3.159267849392361
 20
-3.029886881510417
 10
-3.213311089409722
 20
-3.045430501302083
 10
-3.289889865451389
 20
-2.994364420572917
 10
-3.291517469618055
 20
-2.940388997395833
 10
-3.292161729600694
 20
-2.919108072916667
 10
-3.266526963975694
 20
-2.888671875
 10
-3.244920518663194
 20
-2.876539442274305
 10
-3.156480577256944
 20
-2.826897515190972
 10
-3.132500542534722
 20
-2.740424262152778
 10
-3.193935818142361
 20
-2.660237630208333
 10
-3.207085503472222
 20
-2.643073187934028
 10
-3.2349853515625
 20
-2.627794053819444
 10
-3.2552490234375
 20
-2.628790961371528
 10
-3.269056532118055
 20
-2.629469129774305
 10
-3.286363389756944
 20
-2.658203125
 10
-3.29327392578125
 20
-2.677544487847222
 10
-3.304823133680555
 20
-2.709879557291667
 10
-3.306389702690972
 20
-2.745713975694444
 10
-3.317369249131944
 20
-2.778327094184028
 10
-3.342732747395833
 20
-2.853664822048611
 10
-3.41143798828125
 20
-2.885145399305555
 10
-3.482896592881944
 20
-2.853237575954861
 10
-3.502163357204861
 20
-2.844631618923611
 10
-3.531758626302083
 20
-2.820237901475694
 10
-3.529425726996528
 20
-2.808492024739583
 10
-3.514146592881944
 20
-2.73150634765625
 10
-3.572903103298611
 20
-2.689948187934028
 10
-3.605387369791667
 20
-2.637118869357639
 10
-3.666666666666667
 20
-2.537448459201389
 10
-3.658060709635417
 20
-2.493903266059028
 10
-3.561713324652778
 20
-2.431803385416667
 10
-3.541497124565972
 20
-2.418768988715278
 10
-3.525472005208333
 20
-2.397182888454861
 10
-3.511583116319444
 20
-2.37677001953125
 10
-3.471720377604167
 20
-2.318183051215278
 10
-3.435797797309028
 20
-2.256863064236111
 10
-3.394775390625
 20
-2.199144151475694
 10
-3.360934787326389
 20
-2.151536729600694
 10
-3.3709716796875
 20
-2.115003797743055
 10
-3.418646918402778
 20
-2.090664333767361
 10
-3.509256998697917
 20
-2.044413248697917
 10
-3.538045247395833
 20
-1.958563910590278
 10
-3.560201009114583
 20
-1.871039496527778
 10
-3.565897623697917
 20
-1.848517523871528
 10
-3.542894151475694
 20
-1.818169487847222
 10
-3.5316162109375
 20
-1.79205322265625
 10
-3.516404893663194
 20
-1.756842719184028
 10
-3.490810818142361
 20
-1.723483615451389
 10
-3.485765245225694
 20
-1.687106662326389
 10
-3.477376302083333
 20
-1.626553005642361
 10
-3.507907443576389
 20
-1.611735026041667
 10
-3.56793212890625
 20
-1.623752170138889
 10
-3.593193901909722
 20
-1.628811306423611
 10
-3.626837836371528
 20
-1.612101236979167
 10
-3.650750054253472
 20
-1.5963134765625
 10
-3.665127224392361
 20
-1.586825900607639
 10
-3.6728515625
 20
-1.560682508680555
 10
-3.675455729166667
 20
-1.540947808159722
 10
-3.697116427951389
 20
-1.37713623046875
 10
-3.674004448784722
 20
-1.210903591579861
 10
-3.60943603515625
 20
-1.067389594184028
 10
-3.557657877604167
 20
-0.952297634548611
 10
-3.421291775173611
 20
-0.9078504774305555
 10
-3.286885579427083
 20
-0.9033677842881944
 10
-3.246209038628472
 20
-0.9020114474826388
 10
-3.205898708767361
 20
-0.8917914496527777
 10
-3.165188259548611
 20
-0.8890109592013888
 10
-3.136400010850694
 20
-0.8870374891493055
 10
-3.106716579861111
 20
-0.8877427842881944
 10
-3.078314887152778
 20
-0.8925103081597222
 10
-2.997606065538194
 20
-0.9060601128472222
 10
-2.917487250434028
 20
-0.9230821397569444
 10
-2.836764865451389
 20
-0.9365302191840277
 10
-2.826531304253472
 20
-0.938232421875
 10
-2.808295355902778
 20
-0.9297892252604166
 10
-2.803677029079861
 20
-0.9209052191840277
 10
-2.780626085069444
 20
-0.8765055338541666
 10
-2.748779296875
 20
-0.8903672960069444
 10
-2.714687771267361
 20
-0.9023505316840277
 10
-2.623419867621528
 20
-0.934414333767361
 10
-2.626593695746528
 20
-0.9320746527777777
 10
-2.674140082465278
 20
-1.01763916015625
 10
-2.687689887152778
 20
-1.042026095920139
 10
-2.6756591796875
 20
-1.08062744140625
 10
-2.675360785590278
 20
-1.112711588541667
 10
-2.645012749565972
 20
-1.10662841796875
 10
-2.607998318142361
 20
-1.1094970703125
 10
-2.585544162326389
 20
-1.092793782552083
 10
-2.514729817708333
 20
-1.040127224392361
 10
-2.497477213541667
 20
-0.9687567816840277
 10
-2.526089138454861
 20
-0.8832329644097222
 10
-2.5516357421875
 20
-0.806884765625
 10
-2.531534830729167
 20
-0.77587890625
 10
-2.449028862847222
 20
-0.7677747938368055
 10
-2.385837131076389
 20
-0.7615695529513888
 10
-2.347208658854167
 20
-0.7299329969618055
 10
-2.320109049479167
 20
-0.6770087348090278
 10
-2.311672634548611
 20
-0.6605428059895833
 10
-2.299153645833333
 20
-0.6455281575520833
 10
-2.293796115451389
 20
-0.6282145182291666
 10
-2.253119574652778
 20
-0.496826171875
 10
-2.138753255208333
 20
-0.4408976236979166
 10
-2.034396701388889
 20
-0.3762613932291666
 10
-1.986504448784722
 20
-0.3466050889756944
 10
-1.940958658854167
 20
-0.3545193142361111
 10
-1.897216796875
 20
-0.3979220920138888
 10
-1.875081380208333
 20
-0.4198879665798611
 10
-1.836235894097222
 20
-0.4290839301215277
 10
-1.803304036458333
 20
-0.4350992838541666
 10
-1.760945638020833
 20
-0.4428507486979166
 10
-1.714396158854167
 20
-0.4333563910590277
 10
-1.674099392361111
 20
-0.4457736545138888
 10
-1.545138888888889
 20
-0.4855143229166666
 10
-1.501912434895833
 20
-0.5803426106770833
 10
-1.548244900173611
 20
-0.7070515950520833
 10
-1.566134982638889
 20
-0.7559678819444444
 10
-1.637152777777778
 20
-0.7789103190104166
 10
-1.724812825520833
 20
-0.76409912109375
 10
-1.838717990451389
 20
-0.7448527018229166
 10
-1.892428927951389
 20
-0.7629530164930555
 10
-1.927137586805555
 20
-0.8477511935763888
 10
-1.939765082465278
 20
-0.8786078559027777
 10
-1.939493815104167
 20
-0.9352756076388888
 10
-1.920152452256944
 20
-0.953125
 10
-1.8992919921875
 20
-0.972378200954861
 10
-1.844306098090278
 20
-0.9716864691840277
 10
-1.813028971354167
 20
-0.9585978190104166
 10
-1.767374674479167
 20
-0.9394938151041666
 10
-1.732313368055555
 20
-0.8961995442708333
 10
-1.6875
 20
-0.8735690646701388
 10
-1.658460828993055
 20
-0.8589070638020833
 10
-1.615532769097222
 20
-0.850429958767361
 10
-1.586968315972222
 20
-0.8610636393229166
 10
-1.5423583984375
 20
-0.8776719835069444
 10
-1.510484483506944
 20
-0.8735283745659722
 10
-1.482096354166667
 20
-0.8395114474826388
 10
-1.4449462890625
 20
-0.7950236002604166
 10
-1.404635959201389
 20
-0.7966986762152777
 10
-1.359280056423611
 20
-0.82464599609375
 10
-1.311130099826389
 20
-0.8543226453993055
 10
-1.267035590277778
 20
-0.8535698784722222
 10
-1.218329535590278
 20
-0.81787109375
 10
-1.193359375
 20
-0.7995673285590277
 10
-1.153700086805556
 20
-0.791897243923611
 10
-1.121853298611111
 20
-0.79437255859375
 10
-1.057820638020833
 20
-0.7993367513020833
 10
-1.038316514756944
 20
-0.8540717230902777
 10
-1.078179253472222
 20
-0.9034220377604166
 10
-1.162109375
 20
-1.007310655381944
 10
-1.160549587673611
 20
-1.026645236545139
 10
-1.045328776041667
 20
-1.101854112413194
 10
-0.9953070746527777
 20
-1.134501139322917
 10
-0.9384358723958333
 20
-1.156494140625
 10
-0.8855116102430555
 20
-1.18487548828125
 10
-0.819363064236111
 20
-1.2203369140625
 10
-0.7842475043402777
 20
-1.285047743055556
 10
-0.8015543619791666
 20
-1.3359375
 10
-0.8186984592013888
 20
-1.386372884114583
 10
-0.9066026475694444
 20
-1.427903917100694
 10
-0.9722493489583333
 20
-1.411878797743056
 10
-1.016859266493056
 20
-1.400987413194444
 10
-1.066867404513889
 20
-1.385084364149306
 10
-1.087849934895833
 20
-1.4361572265625
 10
-1.107638888888889
 20
-1.484361436631944
 10
-1.112006293402778
 20
-1.540886773003472
 10
-1.112019856770833
 20
-1.593756781684028
 10
-1.112019856770833
 20
-1.606065538194444
 10
-1.060574001736111
 20
-1.634426540798611
 10
-1.043592664930556
 20
-1.627787272135417
 10
-0.9847547743055555
 20
-1.604783799913194
 10
-0.9261203342013888
 20
-1.575595431857639
 10
-0.8759494357638888
 20
-1.537509494357639
 10
-0.8169623480902777
 20
-1.492750379774306
 10
-0.7839491102430555
 20
-1.482347276475694
 10
-0.7312554253472222
 20
-1.533704969618056
 10
-0.6569959852430555
 20
-1.606099446614583
 10
-0.5878770616319444
 20
-1.683939615885417
 10
-0.5192057291666666
 20
-1.761786566840278
 10
-0.5050998263888888
 20
-1.777777777777778
 10
-0.5005289713541666
 20
-1.803534613715278
 10
-0.4951850043402777
 20
-1.825663248697917
 10
-0.4724527994791666
 20
-1.919901529947917
 10
-0.4196912977430555
 20
-1.954237196180555
 10
-0.3275960286458333
 20
-1.924472384982639
 10
-0.2728271484375
 20
-1.906765407986111
 10
-0.2210015190972222
 20
-1.877651638454861
 10
-0.1876356336805556
 20
-1.952080620659722
 10
-0.1572943793402778
 20
-2.019761827256944
 10
-0.1808539496527778
 20
-2.107706705729167
 10
-0.2376573350694444
 20
-2.145195855034722
 10
-0.3001708984375
 20
-2.186442057291667
 10
-0.3828531901041666
 20
-2.181552463107639
 10
-0.4453260633680555
 20
-2.138936360677083
 10
-0.4830186631944444
 20
-2.11322021484375
 10
-0.5237494574652778
 20
-2.087700737847222
 10
-0.5669080946180555
 20
-2.075310601128472
 10
-0.6216769748263888
 20
-2.059590657552083
 10
-0.6741672092013888
 20
-2.067125108506944
 10
-0.7162814670138888
 20
-2.119032118055555
 10
-0.7552218967013888
 20
-2.167005750868055
 10
-0.7760009765625
 20
-2.208401150173611
 10
-0.7393120659722222
 20
-2.268324110243055
 10
-0.7290174696180555
 20
-2.285115559895833
 10
-0.7382134331597222
 20
-2.323588053385417
 10
-0.7515190972222222
 20
-2.34332275390625
 10
-0.8009847005208333
 20
-2.416680230034722
 10
-0.8299967447916666
 20
-2.489312065972222
 10
-0.7859836154513888
 20
-2.576551649305555
 10
-0.7763400607638888
 20
-2.595648871527778
 10
-0.7808566623263888
 20
-2.621907552083333
 10
-0.7789713541666666
 20
-2.644883897569444
 10
-0.76904296875
 20
-2.765760633680555
 10
-0.6952311197916666
 20
-2.807529025607639
 10
-0.5868326822916666
 20
-2.751519097222222
 10
-0.5499810112847222
 20
-2.73248291015625
 10
-0.5152587890625
 20
-2.708848741319444
 10
-0.481201171875
 20
-2.684977213541667
 10
-0.4374457465277777
 20
-2.654296875
 10
-0.4088541666666666
 20
-2.664516872829861
 10
-0.3906385633680555
 20
-2.713087293836805
 10
-0.3478190104166666
 20
-2.827311197916667
 10
-0.3876410590277777
 20
-2.951402452256944
 10
-0.4974365234375
 20
-3.04510498046875
 10
-0.5768364800347222
 20
-3.112874348958333
 10
-0.693508572048611
 20
-3.119059244791667
 10
-0.7950846354166666
 20
-3.060919867621528
 10
-0.9190402560763888
 20
-2.989963107638889
 10
-1.025254991319444
 20
-3.036892361111111
 10
-1.055080837673611
 20
-3.175821940104167
 10
-1.071546766493056
 20
-3.252536349826389
 10
-1.209648980034722
 20
-3.3082275390625
 10
-1.280802408854167
 20
-3.274820963541667
 10
-1.319580078125
 20
-3.256618923611111
 10
-1.370808919270833
 20
-3.244940863715278
 10
-1.4110107421875
 20
-3.254096137152778
 10
-1.487019856770833
 20
-3.271389431423611
 10
-1.559271918402778
 20
-3.305501302083333
 10
-1.632758246527778
 20
-3.33349609375
 10
-1.645480685763889
 20
-3.338338216145833
 10
-1.659722222222222
 20
-3.344943576388889
 10
-1.667833116319444
 20
-3.355061848958333
 10
-1.689927842881944
 20
-3.382703993055555
 10
-1.732286241319444
 20
-3.425211588541667
 10
-1.7247314453125
 20
-3.439154730902778
 10
-1.707953559027778
 20
-3.470133463541667
 10
-1.668565538194444
 20
-3.496799045138889
 10
-1.633002387152778
 20
-3.507798936631944
 10
-1.579616970486111
 20
-3.524319118923611
 10
-1.533040364583333
 20
-3.541951497395833
 10
-1.508165147569444
 20
-3.596015082465278
 10
-1.479600694444444
 20
-3.6580810546875
 10
-1.504842122395833
 20
-3.707614474826389
 10
-1.572903103298611
 20
-3.713189019097222
 10
-1.604220920138889
 20
-3.715766059027778
 10
-1.636555989583333
 20
-3.708251953125
 10
-1.668212890625
 20
-3.703762478298611
 10
-1.718438042534722
 20
-3.696641710069444
 10
-1.768337673611111
 20
-3.682888454861111
 10
-1.818603515625
 20
-3.681708441840278
 10
-1.880018446180555
 20
-3.680284288194444
 10
-1.932359483506944
 20
-3.669949001736111
 10
-1.987548828125
 20
-3.635348849826389
 10
-2.0328369140625
 20
-3.606947157118055
 10
-2.097547743055555
 20
-3.609537760416667
 10
-2.153645833333333
 20
-3.598388671875
 97
        0
 92
        1
 93
        1
 72
     4
 94
        3
 73
     0
 74
     1
 95
       23
 96
       19
 40
0.0
 40
0.0
 40
0.0
 40
0.0
 40
1.0
 40
1.0
 40
1.0
 40
2.0
 40
2.0
 40
2.0
 40
3.0
 40
3.0
 40
3.0
 40
4.0
 40
4.0
 40
4.0
 40
5.0
 40
5.0
 40
5.0
 40
6.0
 40
6.0
 40
6.0
 40
6.0
 10
-1.444892035590278
 20
-1.478474934895833
 10
-1.490125868055556
 20
-1.518486870659722
 10
-1.528496636284722
 20
-1.551479763454861
 10
-1.565836588541667
 20
-1.585611979166667
 10
-1.792724609375
 20
-1.793002658420139
 10
-2.018785264756944
 20
-2.001295301649305
 10
-2.246622721354167
 20
-2.207621256510417
 10
-2.287339952256944
 20
-2.244486490885417
 10
-2.292900933159722
 20
-2.280782063802083
 10
-2.274020724826389
 20
-2.33026123046875
 10
-2.239271375868055
 20
-2.421359592013889
 10
-2.175225151909722
 20
-2.478495279947917
 10
-2.084906684027778
 20
-2.509589301215278
 10
-1.746120876736111
 20
-2.626207139756944
 10
-1.374525282118056
 20
-2.395121256510417
 10
-1.306233723958333
 20
-2.026862250434028
 10
-1.269015842013889
 20
-1.826158311631944
 10
-1.316446940104167
 20
-1.648335774739583
 10
-1.444892035590278
 20
-1.478474934895833
 97
        0
 92
        1
 93
        1
 72
     4
 94
        3
 73
     0
 74
     1
 95
       26
 96
       22
 40
0.0
 40
0.0
 40
0.0
 40
0.0
 40
1.0
 40
1.0
 40
1.0
 40
2.0
 40
2.0
 40
2.0
 40
3.0
 40
3.0
 40
3.0
 40
4.0
 40
4.0
 40
4.0
 40
5.0
 40
5.0
 40
5.0
 40
6.0
 40
6.0
 40
6.0
 40
7.0
 40
7.0
 40
7.0
 40
7.0
 10
-3.112969292534722
 20
-1.547153049045139
 10
-3.178107367621528
 20
-1.774868435329861
 10
-3.209309895833333
 20
-1.986952039930555
 10
-3.180582682291667
 20
-2.206156412760417
 10
-3.162848578559028
 20
-2.341518825954861
 10
-3.092983669704861
 20
-2.442091200086805
 10
-2.985460069444444
 20
-2.520548502604167
 10
-2.858140733506944
 20
-2.613444010416667
 10
-2.711683485243055
 20
-2.573465983072917
 10
-2.652865939670139
 20
-2.428792317708333
 10
-2.6407470703125
 20
-2.398980034722222
 10
-2.627393934461805
 20
-2.367872450086805
 10
-2.624837239583333
 20
-2.336520724826389
 10
-2.622701009114583
 20
-2.310309516059028
 10
-2.628411187065972
 20
-2.278055826822917
 10
-2.642876519097222
 20
-2.256795247395833
 10
-2.722188313802083
 20
-2.140245225694444
 10
-2.808071560329861
 20
-2.02813720703125
 10
-2.886237250434028
 20
-1.910868326822917
 10
-2.961764865451389
 20
-1.797553168402778
 10
-3.030680338541667
 20
-1.679829915364583
 10
-3.112969292534722
 20
-1.547153049045139
 97
        0
 92
        1
 93
        1
 72
     4
 94
        3
 73
     0
 74
     1
 95
       17
 96
       13
 40
0.0
 40
0.0
 40
0.0
 40
0.0
 40
1.0
 40
1.0
 40
1.0
 40
2.0
 40
2.0
 40
2.0
 40
3.0
 40
3.0
 40
3.0
 40
4.0
 40
4.0
 40
4.0
 40
4.0
 10
-1.8421630859375
 20
-2.767428927951389
 10
-1.814900716145833
 20
-2.824069552951389
 10
-1.790947808159722
 20
-2.873799641927083
 10
-1.767008463541667
 20
-2.923536512586805
 10
-1.761338975694444
 20
-2.922837999131944
 10
-1.755683051215278
 20
-2.922146267361111
 10
-1.750013563368055
 20
-2.92144775390625
 10
-1.739447699652778
 20
-2.863437228732639
 10
-1.7288818359375
 20
-2.805426703559028
 10
-1.716295030381944
 20
-2.736341688368055
 10
-1.764458550347222
 20
-2.748236762152778
 10
-1.798760308159722
 20
-2.756707085503472
 10
-1.8421630859375
 20
-2.767428927951389
 97
        0
 92
        1
 93
        1
 72
     4
 94
        3
 73
     0
 74
     1
 95
       17
 96
       13
 40
0.0
 40
0.0
 40
0.0
 40
0.0
 40
1.0
 40
1.0
 40
1.0
 40
2.0
 40
2.0
 40
2.0
 40
3.0
 40
3.0
 40
3.0
 40
4.0
 40
4.0
 40
4.0
 40
4.0
 10
-2.890882703993055
 20
-2.678914388020833
 10
-2.879048665364583
 20
-2.730211046006944
 10
-2.87054443359375
 20
-2.767076280381944
 10
-2.862040201822917
 20
-2.803934733072917
 10
-2.856519911024305
 20
-2.803636338975694
 10
-2.850999620225694
 20
-2.803337944878472
 10
-2.845472547743055
 20
-2.803032769097222
 10
-2.829935709635417
 20
-2.77093505859375
 10
-2.81439208984375
 20
-2.738837348090278
 10
-2.796841091579861
 20
-2.702582465277778
 10
-2.828369140625
 20
-2.694647894965278
 10
-2.852342393663194
 20
-2.688618977864583
 10
-2.890882703993055
 20
-2.678914388020833
 97
        0
 75
     0
 76
     1
 98
        0
  0
SPLINE
  5
5E
330
1F
100
AcDbEntity
  8
Layer 1
370
     0
100
AcDbSpline
210
0.0
220
0.0
230
1.0
 70
    11
 71
     3
 72
    32
 73
    28
 74
     0
 42
0.0000000001
 43
0.0000000001
 40
0.0
 40
0.0
 40
0.0
 40
0.0
 40
1.0
 40
1.0
 40
1.0
 40
2.0
 40
2.0
 40
2.0
 40
3.0
 40
3.0
 40
3.0
 40
4.0
 40
4.0
 40
4.0
 40
5.0
 40
5.0
 40
5.0
 40
6.0
 40
6.0
 40
6.0
 40
7.0
 40
7.0
 40
7.0
 40
8.0
 40
8.0
 40
8.0
 40
9.0
 40
9.0
 40
9.0
 40
9.0
 10
-0.8197564019097222
 20
-0.779629177517361
 30
0.0
 10
-0.813381618923611
 20
-0.7801106770833333
 30
0.0
 10
-0.792629665798611
 20
-0.7815348307291666
 30
0.0
 10
-0.7719048394097222
 20
-0.7832573784722222
 30
0.0
 10
-0.53955078125
 20
-0.8025987413194444
 30
0.0
 10
-0.5222981770833333
 20
-0.9685397677951388
 30
0.0
 10
-0.5662841796875
 20
-1.12591552734375
 30
0.0
 10
-0.5745849609375
 20
-1.155598958333333
 30
0.0
 10
-0.6118977864583333
 20
-1.177171495225694
 30
0.0
 10
-0.6358235677083333
 20
-1.202480740017361
 30
0.0
 10
-0.6564398871527778
 20
-1.181633843315972
 30
0.0
 10
-0.6747504340277778
 20
-1.157599555121528
 30
0.0
 10
-0.6982286241319444
 20
-1.140719943576389
 30
0.0
 10
-0.7299669053819444
 20
-1.117899576822917
 30
0.0
 10
-0.7638346354166666
 20
-1.095458984375
 30
0.0
 10
-0.8002115885416666
 20
-1.082383897569444
 30
0.0
 10
-0.8341471354166666
 20
-1.0701904296875
 30
0.0
 10
-0.8738471137152777
 20
-1.07476806640625
 30
0.0
 10
-0.9087320963541666
 20
-1.064371744791667
 30
0.0
 10
-0.9921603732638888
 20
-1.039503309461806
 30
0.0
 10
-1.016832139756944
 20
-1.000128851996528
 30
0.0
 10
-1.0048828125
 20
-0.9223225911458333
 30
0.0
 10
-0.9886474609375
 20
-0.8165486653645833
 30
0.0
 10
-0.9572211371527777
 20
-0.78350830078125
 30
0.0
 10
-0.8688829210069444
 20
-0.7796969943576388
 30
0.0
 10
-0.8573404947916666
 20
-0.779201931423611
 30
0.0
 10
-0.8457573784722222
 20
-0.779629177517361
 30
0.0
 10
-0.8197564019097222
 20
-0.779629177517361
 30
0.0
  0
HATCH
  5
5F
330
1F
100
AcDbEntity
  8
Layer 1
 62
     7
420
 16777215
100
AcDbHatch
 10
0.0
 20
0.0
 30
0.0
210
0.0
220
0.0
230
1.0
  2
SOLID
 70
     1
 71
     0
 91
        1
 92
        1
 93
        1
 72
     4
 94
        3
 73
     0
 74
     1
 95
       32
 96
       28
 40
0.0
 40
0.0
 40
0.0
 40
0.0
 40
1.0
 40
1.0
 40
1.0
 40
2.0
 40
2.0
 40
2.0
 40
3.0
 40
3.0
 40
3.0
 40
4.0
 40
4.0
 40
4.0
 40
5.0
 40
5.0
 40
5.0
 40
6.0
 40
6.0
 40
6.0
 40
7.0
 40
7.0
 40
7.0
 40
8.0
 40
8.0
 40
8.0
 40
9.0
 40
9.0
 40
9.0
 40
9.0
 10
-0.8197564019097222
 20
-0.779629177517361
 10
-0.813381618923611
 20
-0.7801106770833333
 10
-0.792629665798611
 20
-0.7815348307291666
 10
-0.7719048394097222
 20
-0.7832573784722222
 10
-0.53955078125
 20
-0.8025987413194444
 10
-0.5222981770833333
 20
-0.9685397677951388
 10
-0.5662841796875
 20
-1.12591552734375
 10
-0.5745849609375
 20
-1.155598958333333
 10
-0.6118977864583333
 20
-1.177171495225694
 10
-0.6358235677083333
 20
-1.202480740017361
 10
-0.6564398871527778
 20
-1.181633843315972
 10
-0.6747504340277778
 20
-1.157599555121528
 10
-0.6982286241319444
 20
-1.140719943576389
 10
-0.7299669053819444
 20
-1.117899576822917
 10
-0.7638346354166666
 20
-1.095458984375
 10
-0.8002115885416666
 20
-1.082383897569444
 10
-0.8341471354166666
 20
-1.0701904296875
 10
-0.8738471137152777
 20
-1.07476806640625
 10
-0.9087320963541666
 20
-1.064371744791667
 10
-0.9921603732638888
 20
-1.039503309461806
 10
-1.016832139756944
 20
-1.000128851996528
 10
-1.0048828125
 20
-0.9223225911458333
 10
-0.9886474609375
 20
-0.8165486653645833
 10
-0.9572211371527777
 20
-0.78350830078125
 10
-0.8688829210069444
 20
-0.7796969943576388
 10
-0.8573404947916666
 20
-0.779201931423611
 10
-0.8457573784722222
 20
-0.779629177517361
 10
-0.8197564019097222
 20
-0.779629177517361
 97
        0
 75
     0
 76
     1
 98
        0
  0
SPLINE
  5
60
330
1F
100
AcDbEntity
  8
Layer 1
370
     0
100
AcDbSpline
210
0.0
220
0.0
230
1.0
 70
    11
 71
     3
 72
    17
 73
    13
 74
     0
 42
0.0000000001
 43
0.0000000001
 40
0.0
 40
0.0
 40
0.0
 40
0.0
 40
1.0
 40
1.0
 40
1.0
 40
2.0
 40
2.0
 40
2.0
 40
3.0
 40
3.0
 40
3.0
 40
4.0
 40
4.0
 40
4.0
 40
4.0
 10
-1.279052734375
 20
-3.692152235243055
 30
0.0
 10
-1.403035481770833
 20
-3.699801974826389
 30
0.0
 10
-1.445638020833333
 20
-3.593031141493055
 30
0.0
 10
-1.45654296875
 20
-3.4873046875
 30
0.0
 10
-1.463148328993056
 20
-3.423258463541667
 30
0.0
 10
-1.377061631944444
 20
-3.364800347222222
 30
0.0
 10
-1.289808485243056
 20
-3.366156684027778
 30
0.0
 10
-1.173177083333333
 20
-3.368001302083333
 30
0.0
 10
-1.127712673611111
 20
-3.419406467013889
 30
0.0
 10
-1.128173828125
 20
-3.548923068576389
 30
0.0
 10
-1.128485785590278
 20
-3.63623046875
 30
0.0
 10
-1.187635633680556
 20
-3.6923828125
 30
0.0
 10
-1.279052734375
 20
-3.692152235243055
 30
0.0
  0
HATCH
  5
61
330
1F
100
AcDbEntity
  8
Layer 1
 62
     7
420
 16777215
100
AcDbHatch
 10
0.0
 20
0.0
 30
0.0
210
0.0
220
0.0
230
1.0
  2
SOLID
 70
     1
 71
     0
 91
        1
 92
        1
 93
        1
 72
     4
 94
        3
 73
     0
 74
     1
 95
       17
 96
       13
 40
0.0
 40
0.0
 40
0.0
 40
0.0
 40
1.0
 40
1.0
 40
1.0
 40
2.0
 40
2.0
 40
2.0
 40
3.0
 40
3.0
 40
3.0
 40
4.0
 40
4.0
 40
4.0
 40
4.0
 10
-1.279052734375
 20
-3.692152235243055
 10
-1.403035481770833
 20
-3.699801974826389
 10
-1.445638020833333
 20
-3.593031141493055
 10
-1.45654296875
 20
-3.4873046875
 10
-1.463148328993056
 20
-3.423258463541667
 10
-1.377061631944444
 20
-3.364800347222222
 10
-1.289808485243056
 20
-3.366156684027778
 10
-1.173177083333333
 20
-3.368001302083333
 10
-1.127712673611111
 20
-3.419406467013889
 10
-1.128173828125
 20
-3.548923068576389
 10
-1.128485785590278
 20
-3.63623046875
 10
-1.187635633680556
 20
-3.6923828125
 10
-1.279052734375
 20
-3.692152235243055
 97
        0
 75
     0
 76
     1
 98
        0
  0
SPLINE
  5
62
330
1F
100
AcDbEntity
  8
Layer 1
370
     0
100
AcDbSpline
210
0.0
220
0.0
230
1.0
 70
    11
 71
     3
 72
    20
 73
    16
 74
     0
 42
0.0000000001
 43
0.0000000001
 40
0.0
 40
0.0
 40
0.0
 40
0.0
 40
1.0
 40
1.0
 40
1.0
 40
2.0
 40
2.0
 40
2.0
 40
3.0
 40
3.0
 40
3.0
 40
4.0
 40
4.0
 40
4.0
 40
5.0
 40
5.0
 40
5.0
 40
5.0
 10
-0.4350721571180555
 20
-2.551127115885417
 30
0.0
 10
-0.5827501085069444
 20
-2.55181884765625
 30
0.0
 10
-0.66357421875
 20
-2.451009114583333
 30
0.0
 10
-0.6215142144097222
 20
-2.323628743489583
 30
0.0
 10
-0.6050482855902778
 20
-2.273749457465278
 30
0.0
 10
-0.5740152994791666
 20
-2.257703993055555
 30
0.0
 10
-0.5275607638888888
 20
-2.263563368055555
 30
0.0
 10
-0.4703097873263888
 20
-2.270779079861111
 30
0.0
 10
-0.4105224609375
 20
-2.273369683159722
 30
0.0
 10
-0.357666015625
 20
-2.293382432725694
 30
0.0
 10
-0.3311631944444444
 20
-2.303419325086805
 30
0.0
 10
-0.3081190321180555
 20
-2.345208062065972
 30
0.0
 10
-0.2999945746527777
 20
-2.376864963107639
 30
0.0
 10
-0.2765435112847222
 20
-2.468187120225694
 30
0.0
 10
-0.3438178168402777
 20
-2.550699869791667
 30
0.0
 10
-0.4350721571180555
 20
-2.551127115885417
 30
0.0
  0
HATCH
  5
63
330
1F
100
AcDbEntity
  8
Layer 1
 62
     7
420
 16777215
100
AcDbHatch
 10
0.0
 20
0.0
 30
0.0
210
0.0
220
0.0
230
1.0
  2
SOLID
 70
     1
 71
     0
 91
        1
 92
        1
 93
        1
 72
     4
 94
        3
 73
     0
 74
     1
 95
       20
 96
       16
 40
0.0
 40
0.0
 40
0.0
 40
0.0
 40
1.0
 40
1.0
 40
1.0
 40
2.0
 40
2.0
 40
2.0
 40
3.0
 40
3.0
 40
3.0
 40
4.0
 40
4.0
 40
4.0
 40
5.0
 40
5.0
 40
5.0
 40
5.0
 10
-0.4350721571180555
 20
-2.551127115885417
 10
-0.5827501085069444
 20
-2.55181884765625
 10
-0.66357421875
 20
-2.451009114583333
 10
-0.6215142144097222
 20
-2.323628743489583
 10
-0.6050482855902778
 20
-2.273749457465278
 10
-0.5740152994791666
 20
-2.257703993055555
 10
-0.5275607638888888
 20
-2.263563368055555
 10
-0.4703097873263888
 20
-2.270779079861111
 10
-0.4105224609375
 20
-2.273369683159722
 10
-0.357666015625
 20
-2.293382432725694
 10
-0.3311631944444444
 20
-2.303419325086805
 10
-0.3081190321180555
 20
-2.345208062065972
 10
-0.2999945746527777
 20
-2.376864963107639
 10
-0.2765435112847222
 20
-2.468187120225694
 10
-0.3438178168402777
 20
-2.550699869791667
 10
-0.4350721571180555
 20
-2.551127115885417
 97
        0
 75
     0
 76
     1
 98
        0
  0
SPLINE
  5
64
330
1F
100
AcDbEntity
  8
Layer 1
370
     0
100
AcDbSpline
210
0.0
220
0.0
230
1.0
 70
    11
 71
     3
 72
    23
 73
    19
 74
     0
 42
0.0000000001
 43
0.0000000001
 40
0.0
 40
0.0
 40
0.0
 40
0.0
 40
1.0
 40
1.0
 40
1.0
 40
2.0
 40
2.0
 40
2.0
 40
3.0
 40
3.0
 40
3.0
 40
4.0
 40
4.0
 40
4.0
 40
5.0
 40
5.0
 40
5.0
 40
6.0
 40
6.0
 40
6.0
 40
6.0
 10
-0.3753526475694444
 20
-1.424540201822917
 30
0.0
 10
-0.3782552083333333
 20
-1.440388997395833
 30
0.0
 10
-0.3805474175347222
 20
-1.470737033420139
 30
0.0
 10
-0.3897298177083333
 20
-1.498826768663194
 30
0.0
 10
-0.4037136501736111
 20
-1.541612413194444
 30
0.0
 10
-0.4318169487847222
 20
-1.568352593315972
 30
0.0
 10
-0.4816758897569444
 20
-1.56585693359375
 30
0.0
 10
-0.5297037760416666
 20
-1.563456217447917
 30
0.0
 10
-0.558254665798611
 20
-1.541863335503472
 30
0.0
 10
-0.5683322482638888
 20
-1.493842230902778
 30
0.0
 10
-0.5767957899305555
 20
-1.453477647569444
 30
0.0
 10
-0.5998670789930555
 20
-1.412563747829861
 30
0.0
 10
-0.5955810546875
 20
-1.374233669704861
 30
0.0
 10
-0.591824001736111
 20
-1.34075927734375
 30
0.0
 10
-0.5658365885416666
 20
-1.293694390190972
 30
0.0
 10
-0.53759765625
 20
-1.28216552734375
 30
0.0
 10
-0.4631890190972222
 20
-1.251756456163194
 30
0.0
 10
-0.3727213541666666
 20
-1.328755696614583
 30
0.0
 10
-0.3753526475694444
 20
-1.424540201822917
 30
0.0
  0
HATCH
  5
65
330
1F
100
AcDbEntity
  8
Layer 1
 62
     7
420
 16777215
100
AcDbHatch
 10
0.0
 20
0.0
 30
0.0
210
0.0
220
0.0
230
1.0
  2
SOLID
 70
     1
 71
     0
 91
        1
 92
        1
 93
        1
 72
     4
 94
        3
 73
     0
 74
     1
 95
       23
 96
       19
 40
0.0
 40
0.0
 40
0.0
 40
0.0
 40
1.0
 40
1.0
 40
1.0
 40
2.0
 40
2.0
 40
2.0
 40
3.0
 40
3.0
 40
3.0
 40
4.0
 40
4.0
 40
4.0
 40
5.0
 40
5.0
 40
5.0
 40
6.0
 40
6.0
 40
6.0
 40
6.0
 10
-0.3753526475694444
 20
-1.424540201822917
 10
-0.3782552083333333
 20
-1.440388997395833
 10
-0.3805474175347222
 20
-1.470737033420139
 10
-0.3897298177083333
 20
-1.498826768663194
 10
-0.4037136501736111
 20
-1.541612413194444
 10
-0.4318169487847222
 20
-1.568352593315972
 10
-0.4816758897569444
 20
-1.56585693359375
 10
-0.5297037760416666
 20
-1.563456217447917
 10
-0.558254665798611
 20
-1.541863335503472
 10
-0.5683322482638888
 20
-1.493842230902778
 10
-0.5767957899305555
 20
-1.453477647569444
 10
-0.5998670789930555
 20
-1.412563747829861
 10
-0.5955810546875
 20
-1.374233669704861
 10
-0.591824001736111
 20
-1.34075927734375
 10
-0.5658365885416666
 20
-1.293694390190972
 10
-0.53759765625
 20
-1.28216552734375
 10
-0.4631890190972222
 20
-1.251756456163194
 10
-0.3727213541666666
 20
-1.328755696614583
 10
-0.3753526475694444
 20
-1.424540201822917
 97
        0
 75
     0
 76
     1
 98
        0
  0
SPLINE
  5
66
330
1F
100
AcDbEntity
  8
Layer 1
370
     0
100
AcDbSpline
210
0.0
220
0.0
230
1.0
 70
    11
 71
     3
 72
    23
 73
    19
 74
     0
 42
0.0000000001
 43
0.0000000001
 40
0.0
 40
0.0
 40
0.0
 40
0.0
 40
1.0
 40
1.0
 40
1.0
 40
2.0
 40
2.0
 40
2.0
 40
3.0
 40
3.0
 40
3.0
 40
4.0
 40
4.0
 40
4.0
 40
5.0
 40
5.0
 40
5.0
 40
6.0
 40
6.0
 40
6.0
 40
6.0
 10
-3.780137803819444
 20
-1.726772732204861
 30
0.0
 10
-3.770684136284722
 20
-1.733052571614583
 30
0.0
 10
-3.745151095920139
 20
-1.742641872829861
 30
0.0
 10
-3.732632107204861
 20
-1.761074490017361
 30
0.0
 10
-3.725050184461805
 20
-1.772237141927083
 30
0.0
 10
-3.738301595052083
 20
-1.796990288628472
 30
0.0
 10
-3.740993923611111
 20
-1.815809461805555
 30
0.0
 10
-3.745598687065972
 20
-1.84808349609375
 30
0.0
 10
-3.744913736979167
 20
-1.881890190972222
 30
0.0
 10
-3.754733615451389
 20
-1.912380642361111
 30
0.0
 10
-3.762193467881944
 20
-1.935546875
 30
0.0
 10
-3.780036078559028
 20
-1.969563802083333
 30
0.0
 10
-3.797593858506944
 20
-1.972459581163194
 30
0.0
 10
-3.840488009982639
 20
-1.979539659288194
 30
0.0
 10
-3.895175509982639
 20
-1.894239637586805
 30
0.0
 10
-3.895168728298611
 20
-1.830790201822917
 30
0.0
 10
-3.895161946614583
 20
-1.774834526909722
 30
0.0
 10
-3.849629720052083
 20
-1.727376302083333
 30
0.0
 10
-3.780137803819444
 20
-1.726772732204861
 30
0.0
  0
HATCH
  5
67
330
1F
100
AcDbEntity
  8
Layer 1
 62
     7
420
 16777215
100
AcDbHatch
 10
0.0
 20
0.0
 30
0.0
210
0.0
220
0.0
230
1.0
  2
SOLID
 70
     1
 71
     0
 91
        1
 92
        1
 93
        1
 72
     4
 94
        3
 73
     0
 74
     1
 95
       23
 96
       19
 40
0.0
 40
0.0
 40
0.0
 40
0.0
 40
1.0
 40
1.0
 40
1.0
 40
2.0
 40
2.0
 40
2.0
 40
3.0
 40
3.0
 40
3.0
 40
4.0
 40
4.0
 40
4.0
 40
5.0
 40
5.0
 40
5.0
 40
6.0
 40
6.0
 40
6.0
 40
6.0
 10
-3.780137803819444
 20
-1.726772732204861
 10
-3.770684136284722
 20
-1.733052571614583
 10
-3.745151095920139
 20
-1.742641872829861
 10
-3.732632107204861
 20
-1.761074490017361
 10
-3.725050184461805
 20
-1.772237141927083
 10
-3.738301595052083
 20
-1.796990288628472
 10
-3.740993923611111
 20
-1.815809461805555
 10
-3.745598687065972
 20
-1.84808349609375
 10
-3.744913736979167
 20
-1.881890190972222
 10
-3.754733615451389
 20
-1.912380642361111
 10
-3.762193467881944
 20
-1.935546875
 10
-3.780036078559028
 20
-1.969563802083333
 10
-3.797593858506944
 20
-1.972459581163194
 10
-3.840488009982639
 20
-1.979539659288194
 10
-3.895175509982639
 20
-1.894239637586805
 10
-3.895168728298611
 20
-1.830790201822917
 10
-3.895161946614583
 20
-1.774834526909722
 10
-3.849629720052083
 20
-1.727376302083333
 10
-3.780137803819444
 20
-1.726772732204861
 97
        0
 75
     0
 76
     1
 98
        0
  0
SPLINE
  5
68
330
1F
100
AcDbEntity
  8
Layer 1
370
     0
100
AcDbSpline
210
0.0
220
0.0
230
1.0
 70
    11
 71
     3
 72
    23
 73
    19
 74
     0
 42
0.0000000001
 43
0.0000000001
 40
0.0
 40
0.0
 40
0.0
 40
0.0
 40
1.0
 40
1.0
 40
1.0
 40
2.0
 40
2.0
 40
2.0
 40
3.0
 40
3.0
 40
3.0
 40
4.0
 40
4.0
 40
4.0
 40
5.0
 40
5.0
 40
5.0
 40
6.0
 40
6.0
 40
6.0
 40
6.0
 10
-1.444892035590278
 20
-1.478474934895833
 30
0.0
 10
-1.316446940104167
 20
-1.648335774739583
 30
0.0
 10
-1.269015842013889
 20
-1.826158311631944
 30
0.0
 10
-1.306233723958333
 20
-2.026862250434028
 30
0.0
 10
-1.374525282118056
 20
-2.395121256510417
 30
0.0
 10
-1.746120876736111
 20
-2.626207139756944
 30
0.0
 10
-2.084906684027778
 20
-2.509589301215278
 30
0.0
 10
-2.175225151909722
 20
-2.478495279947917
 30
0.0
 10
-2.239271375868055
 20
-2.421359592013889
 30
0.0
 10
-2.274020724826389
 20
-2.33026123046875
 30
0.0
 10
-2.292900933159722
 20
-2.280782063802083
 30
0.0
 10
-2.287339952256944
 20
-2.244486490885417
 30
0.0
 10
-2.246622721354167
 20
-2.207621256510417
 30
0.0
 10
-2.018785264756944
 20
-2.001295301649305
 30
0.0
 10
-1.792724609375
 20
-1.793002658420139
 30
0.0
 10
-1.565836588541667
 20
-1.585611979166667
 30
0.0
 10
-1.528496636284722
 20
-1.551479763454861
 30
0.0
 10
-1.490125868055556
 20
-1.518486870659722
 30
0.0
 10
-1.444892035590278
 20
-1.478474934895833
 30
0.0
  0
SPLINE
  5
69
330
1F
100
AcDbEntity
  8
Layer 1
370
     0
100
AcDbSpline
210
0.0
220
0.0
230
1.0
 70
    11
 71
     3
 72
    26
 73
    22
 74
     0
 42
0.0000000001
 43
0.0000000001
 40
0.0
 40
0.0
 40
0.0
 40
0.0
 40
1.0
 40
1.0
 40
1.0
 40
2.0
 40
2.0
 40
2.0
 40
3.0
 40
3.0
 40
3.0
 40
4.0
 40
4.0
 40
4.0
 40
5.0
 40
5.0
 40
5.0
 40
6.0
 40
6.0
 40
6.0
 40
7.0
 40
7.0
 40
7.0
 40
7.0
 10
-3.112969292534722
 20
-1.547153049045139
 30
0.0
 10
-3.030680338541667
 20
-1.679829915364583
 30
0.0
 10
-2.961764865451389
 20
-1.797553168402778
 30
0.0
 10
-2.886237250434028
 20
-1.910868326822917
 30
0.0
 10
-2.808071560329861
 20
-2.02813720703125
 30
0.0
 10
-2.722188313802083
 20
-2.140245225694444
 30
0.0
 10
-2.642876519097222
 20
-2.256795247395833
 30
0.0
 10
-2.628411187065972
 20
-2.278055826822917
 30
0.0
 10
-2.622701009114583
 20
-2.310309516059028
 30
0.0
 10
-2.624837239583333
 20
-2.336520724826389
 30
0.0
 10
-2.627393934461805
 20
-2.367872450086805
 30
0.0
 10
-2.6407470703125
 20
-2.398980034722222
 30
0.0
 10
-2.652865939670139
 20
-2.428792317708333
 30
0.0
 10
-2.711683485243055
 20
-2.573465983072917
 30
0.0
 10
-2.858140733506944
 20
-2.613444010416667
 30
0.0
 10
-2.985460069444444
 20
-2.520548502604167
 30
0.0
 10
-3.092983669704861
 20
-2.442091200086805
 30
0.0
 10
-3.162848578559028
 20
-2.341518825954861
 30
0.0
 10
-3.180582682291667
 20
-2.206156412760417
 30
0.0
 10
-3.209309895833333
 20
-1.986952039930555
 30
0.0
 10
-3.178107367621528
 20
-1.774868435329861
 30
0.0
 10
-3.112969292534722
 20
-1.547153049045139
 30
0.0
  0
SPLINE
  5
6A
330
1F
100
AcDbEntity
  8
Layer 1
370
     0
100
AcDbSpline
210
0.0
220
0.0
230
1.0
 70
    11
 71
     3
 72
    17
 73
    13
 74
     0
 42
0.0000000001
 43
0.0000000001
 40
0.0
 40
0.0
 40
0.0
 40
0.0
 40
1.0
 40
1.0
 40
1.0
 40
2.0
 40
2.0
 40
2.0
 40
3.0
 40
3.0
 40
3.0
 40
4.0
 40
4.0
 40
4.0
 40
4.0
 10
-1.8421630859375
 20
-2.767428927951389
 30
0.0
 10
-1.798760308159722
 20
-2.756707085503472
 30
0.0
 10
-1.764458550347222
 20
-2.748236762152778
 30
0.0
 10
-1.716295030381944
 20
-2.736341688368055
 30
0.0
 10
-1.7288818359375
 20
-2.805426703559028
 30
0.0
 10
-1.739447699652778
 20
-2.863437228732639
 30
0.0
 10
-1.750013563368055
 20
-2.92144775390625
 30
0.0
 10
-1.755683051215278
 20
-2.922146267361111
 30
0.0
 10
-1.761338975694444
 20
-2.922837999131944
 30
0.0
 10
-1.767008463541667
 20
-2.923536512586805
 30
0.0
 10
-1.790947808159722
 20
-2.873799641927083
 30
0.0
 10
-1.814900716145833
 20
-2.824069552951389
 30
0.0
 10
-1.8421630859375
 20
-2.767428927951389
 30
0.0
  0
SPLINE
  5
6B
330
1F
100
AcDbEntity
  8
Layer 1
370
     0
100
AcDbSpline
210
0.0
220
0.0
230
1.0
 70
    11
 71
     3
 72
    17
 73
    13
 74
     0
 42
0.0000000001
 43
0.0000000001
 40
0.0
 40
0.0
 40
0.0
 40
0.0
 40
1.0
 40
1.0
 40
1.0
 40
2.0
 40
2.0
 40
2.0
 40
3.0
 40
3.0
 40
3.0
 40
4.0
 40
4.0
 40
4.0
 40
4.0
 10
-2.890882703993055
 20
-2.678914388020833
 30
0.0
 10
-2.852342393663194
 20
-2.688618977864583
 30
0.0
 10
-2.828369140625
 20
-2.694647894965278
 30
0.0
 10
-2.796841091579861
 20
-2.702582465277778
 30
0.0
 10
-2.81439208984375
 20
-2.738837348090278
 30
0.0
 10
-2.829935709635417
 20
-2.77093505859375
 30
0.0
 10
-2.845472547743055
 20
-2.803032769097222
 30
0.0
 10
-2.850999620225694
 20
-2.803337944878472
 30
0.0
 10
-2.856519911024305
 20
-2.803636338975694
 30
0.0
 10
-2.862040201822917
 20
-2.803934733072917
 30
0.0
 10
-2.87054443359375
 20
-2.767076280381944
 30
0.0
 10
-2.879048665364583
 20
-2.730211046006944
 30
0.0
 10
-2.890882703993055
 20
-2.678914388020833
 30
0.0
  0
ENDSEC
  0
SECTION
  2
OBJECTS
  0
DICTIONARY
  5
C
330
0
100
AcDbDictionary
281
     1
  3
ACAD_GROUP
350
D
  3
ACAD_LAYOUT
350
1A
  3
ACAD_MLINESTYLE
350
17
  3
ACAD_PLOTSETTINGS
350
19
  3
ACAD_PLOTSTYLENAME
350
E
  3
ACAD_TABLESTYLE
350
6C
  3
ACAD_VISUALSTYLE
350
2A
  0
DICTIONARY
  5
D
102
{ACAD_REACTORS
330
C
102
}
330
C
100
AcDbDictionary
281
     1
  0
DICTIONARY
  5
1A
102
{ACAD_REACTORS
330
C
102
}
330
C
100
AcDbDictionary
281
     1
  3
Layout1
350
1E
  3
Layout2
350
26
  3
Model
350
22
  0
DICTIONARY
  5
17
102
{ACAD_REACTORS
330
C
102
}
330
C
100
AcDbDictionary
281
     1
  3
Standard
350
18
  0
DICTIONARY
  5
19
102
{ACAD_REACTORS
330
C
102
}
330
C
100
AcDbDictionary
281
     1
  0
ACDBDICTIONARYWDFLT
  5
E
102
{ACAD_REACTORS
330
C
102
}
330
C
100
AcDbDictionary
281
     1
  3
Normal
350
F
100
AcDbDictionaryWithDefault
340
F
  0
DICTIONARY
  5
6C
102
{ACAD_REACTORS
330
C
102
}
330
C
100
AcDbDictionary
281
     1
  0
DICTIONARY
  5
2A
102
{ACAD_REACTORS
330
C
102
}
330
C
100
AcDbDictionary
281
     1
  3
2dWireframe
350
2F
  3
3D Hidden
350
31
  3
3dWireframe
350
30
  3
Basic
350
32
  3
Brighten
350
36
  3
ColorChange
350
3A
  3
Conceptual
350
34
  3
Dim
350
35
  3
Facepattern
350
39
  3
Flat
350
2B
  3
FlatWithEdges
350
2C
  3
Gouraud
350
2D
  3
GouraudWithEdges
350
2E
  3
Linepattern
350
38
  3
Realistic
350
33
  3
Thicken
350
37
  0
LAYOUT
  5
1E
102
{ACAD_REACTORS
330
1A
102
}
330
1A
100
AcDbPlotSettings
  1

  2
none_device
  4

  6

 40
0.0
 41
0.0
 42
0.0
 43
0.0
 44
0.0
 45
0.0
 46
0.0
 47
0.0
 48
0.0
 49
0.0
140
0.0
141
0.0
142
1.0
143
1.0
 70
   688
 72
     0
 73
     0
 74
     5
  7

 75
    16
 76
     0
 77
     2
 78
   300
147
1.0
148
0.0
149
0.0
100
AcDbLayout
  1
Layout1
 70
     1
 71
     1
 10
0.0
 20
0.0
 11
12.0
 21
9.0
 12
0.0
 22
0.0
 32
0.0
 14
1.000000000000000E+20
 24
1.000000000000000E+20
 34
1.000000000000000E+20
 15
-1.000000000000000E+20
 25
-1.000000000000000E+20
 35
-1.000000000000000E+20
146
0.0
 13
0.0
 23
0.0
 33
0.0
 16
1.0
 26
0.0
 36
0.0
 17
0.0
 27
1.0
 37
0.0
 76
     0
330
1B
  0
LAYOUT
  5
26
102
{ACAD_REACTORS
330
1A
102
}
330
1A
100
AcDbPlotSettings
  1

  2
none_device
  4

  6

 40
0.0
 41
0.0
 42
0.0
 43
0.0
 44
0.0
 45
0.0
 46
0.0
 47
0.0
 48
0.0
 49
0.0
140
0.0
141
0.0
142
1.0
143
1.0
 70
   688
 72
     0
 73
     0
 74
     5
  7

 75
    16
 76
     0
 77
     2
 78
   300
147
1.0
148
0.0
149
0.0
100
AcDbLayout
  1
Layout2
 70
     1
 71
     2
 10
0.0
 20
0.0
 11
0.0
 21
0.0
 12
0.0
 22
0.0
 32
0.0
 14
0.0
 24
0.0
 34
0.0
 15
0.0
 25
0.0
 35
0.0
146
0.0
 13
0.0
 23
0.0
 33
0.0
 16
1.0
 26
0.0
 36
0.0
 17
0.0
 27
1.0
 37
0.0
 76
     0
330
23
  0
LAYOUT
  5
22
102
{ACAD_REACTORS
330
1A
102
}
330
1A
100
AcDbPlotSettings
  1

  2
none_device
  4

  6

 40
0.0
 41
0.0
 42
0.0
 43
0.0
 44
0.0
 45
0.0
 46
0.0
 47
0.0
 48
0.0
 49
0.0
140
0.0
141
0.0
142
1.0
143
1.0
 70
  1712
 72
     0
 73
     0
 74
     0
  7

 75
     0
 76
     0
 77
     2
 78
   300
147
1.0
148
0.0
149
0.0
100
AcDbLayout
  1
Model
 70
     1
 71
     0
 10
0.0
 20
0.0
 11
12.0
 21
9.0
 12
0.0
 22
0.0
 32
0.0
 14
1.000000000000000E+20
 24
1.000000000000000E+20
 34
1.000000000000000E+20
 15
-1.000000000000000E+20
 25
-1.000000000000000E+20
 35
-1.000000000000000E+20
146
0.0
 13
0.0
 23
0.0
 33
0.0
 16
1.0
 26
0.0
 36
0.0
 17
0.0
 27
1.0
 37
0.0
 76
     0
330
1F
331
29
  0
MLINESTYLE
  5
18
102
{ACAD_REACTORS
330
17
102
}
330
17
100
AcDbMlineStyle
  2
Standard
 70
     0
  3

 62
   256
 51
90.0
 52
90.0
 71
     2
 49
0.5
 62
   256
  6
BYLAYER
 49
-0.5
 62
   256
  6
BYLAYER
  0
ACDBPLACEHOLDER
  5
F
102
{ACAD_REACTORS
330
E
102
}
330
E
  0
VISUALSTYLE
  5
2F
102
{ACAD_REACTORS
330
2A
102
}
330
2A
100
AcDbVisualStyle
  2
2dWireframe
 70
     4
 71
     0
 72
     2
 73
     0
 90
        0
 40
-0.6
 41
-30.0
 62
     5
 63
     7
421
 16777215
 74
     1
 91
        4
 64
     7
 65
   257
 75
     1
175
     1
 42
1.0
 92
        0
 66
   257
 43
1.0
 76
     1
 77
     6
 78
     2
 67
     7
 79
     5
170
     0
171
     0
290
     0
174
     0
 93
        1
 44
0.0
173
     0
291
     0
 45
0.0
1001
ACAD
1000
AcDbSavedByObjectVersion
1070
     0
  0
VISUALSTYLE
  5
31
102
{ACAD_REACTORS
330
2A
102
}
330
2A
100
AcDbVisualStyle
  2
3D Hidden
 70
     6
 71
     1
 72
     2
 73
     2
 90
        0
 40
-0.6
 41
-30.0
 62
     5
 63
     7
421
 16777215
 74
     2
 91
        2
 64
     7
 65
   257
 75
     2
175
     1
 42
40.0
 92
        0
 66
   257
 43
1.0
 76
     1
 77
     6
 78
     2
 67
     7
 79
     3
170
     0
171
     0
290
     0
174
     0
 93
        1
 44
0.0
173
     0
291
     0
 45
0.0
1001
ACAD
1000
AcDbSavedByObjectVersion
1070
     0
  0
VISUALSTYLE
  5
30
102
{ACAD_REACTORS
330
2A
102
}
330
2A
100
AcDbVisualStyle
  2
3dWireframe
 70
     5
 71
     0
 72
     2
 73
     0
 90
        0
 40
-0.6
 41
-30.0
 62
     5
 63
     7
421
 16777215
 74
     1
 91
        4
 64
     7
 65
   257
 75
     1
175
     1
 42
1.0
 92
        0
 66
   257
 43
1.0
 76
     1
 77
     6
 78
     2
 67
     7
 79
     5
170
     0
171
     0
290
     0
174
     0
 93
        1
 44
0.0
173
     0
291
     0
 45
0.0
1001
ACAD
1000
AcDbSavedByObjectVersion
1070
     0
  0
VISUALSTYLE
  5
32
102
{ACAD_REACTORS
330
2A
102
}
330
2A
100
AcDbVisualStyle
  2
Basic
 70
     7
 71
     1
 72
     0
 73
     1
 90
        0
 40
-0.6
 41
-30.0
 62
     5
 63
     7
421
 16777215
 74
     0
 91
        4
 64
     7
 65
   257
 75
     1
175
     1
 42
1.0
 92
        8
 66
     7
 43
1.0
 76
     1
 77
     6
 78
     2
 67
     7
 79
     5
170
     0
171
     0
290
     0
174
     0
 93
        1
 44
0.0
173
     0
291
     1
 45
0.0
1001
ACAD
1000
AcDbSavedByObjectVersion
1070
     0
  0
VISUALSTYLE
  5
36
102
{ACAD_REACTORS
330
2A
102
}
330
2A
100
AcDbVisualStyle
  2
Brighten
 70
    12
 71
     2
 72
     2
 73
     0
 90
        0
 40
-0.6
 41
-30.0
 62
     5
 63
     7
421
 16777215
 74
     1
 91
        4
 64
     7
 65
   257
 75
     1
175
     1
 42
1.0
 92
        8
 66
     7
 43
1.0
 76
     1
 77
     6
 78
     2
 67
     7
 79
     5
170
     0
171
     0
290
     0
174
     0
 93
        1
 44
50.0
173
     0
291
     1
 45
0.0
1001
ACAD
1000
AcDbSavedByObjectVersion
1070
     0
  0
VISUALSTYLE
  5
3A
102
{ACAD_REACTORS
330
2A
102
}
330
2A
100
AcDbVisualStyle
  2
ColorChange
 70
    16
 71
     2
 72
     2
 73
     3
 90
        0
 40
-0.6
 41
-30.0
 62
     5
 63
     8
421
  8421504
 74
     1
 91
        4
 64
     7
 65
   257
 75
     1
175
     1
 42
1.0
 92
        8
 66
     8
424
  8421504
 43
1.0
 76
     1
 77
     6
 78
     2
 67
     7
 79
     5
170
     0
171
     0
290
     0
174
     0
 93
        1
 44
0.0
173
     0
291
     1
 45
0.0
1001
ACAD
1000
AcDbSavedByObjectVersion
1070
     0
  0
VISUALSTYLE
  5
34
102
{ACAD_REACTORS
330
2A
102
}
330
2A
100
AcDbVisualStyle
  2
Conceptual
 70
     9
 71
     3
 72
     2
 73
     0
 90
        0
 40
-0.6
 41
-30.0
 62
     5
 63
     7
421
 16777215
 74
     2
 91
        2
 64
     7
 65
   257
 75
     1
175
     1
 42
40.0
 92
        8
 66
     7
 43
1.0
 76
     1
 77
     6
 78
     2
 67
     7
 79
     3
170
     0
171
     0
290
     0
174
     0
 93
        1
 44
0.0
173
     0
291
     0
 45
0.0
1001
ACAD
1000
AcDbSavedByObjectVersion
1070
     0
  0
VISUALSTYLE
  5
35
102
{ACAD_REACTORS
330
2A
102
}
330
2A
100
AcDbVisualStyle
  2
Dim
 70
    11
 71
     2
 72
     2
 73
     0
 90
        0
 40
-0.6
 41
-30.0
 62
     5
 63
     7
421
 16777215
 74
     1
 91
        4
 64
     7
 65
   257
 75
     1
175
     1
 42
1.0
 92
        8
 66
     7
 43
1.0
 76
     1
 77
     6
 78
     2
 67
     7
 79
     5
170
     0
171
     0
290
     0
174
     0
 93
        1
 44
-50.0
173
     0
291
     1
 45
0.0
1001
ACAD
1000
AcDbSavedByObjectVersion
1070
     0
  0
VISUALSTYLE
  5
39
102
{ACAD_REACTORS
330
2A
102
}
330
2A
100
AcDbVisualStyle
  2
Facepattern
 70
    15
 71
     2
 72
     2
 73
     0
 90
        0
 40
-0.6
 41
-30.0
 62
     5
 63
     7
421
 16777215
 74
     1
 91
        4
 64
     7
 65
   257
 75
     1
175
     1
 42
1.0
 92
        8
 66
     7
 43
1.0
 76
     1
 77
     6
 78
     2
 67
     7
 79
     5
170
     0
171
     0
290
     0
174
     0
 93
        1
 44
0.0
173
     0
291
     1
 45
0.0
1001
ACAD
1000
AcDbSavedByObjectVersion
1070
     0
  0
VISUALSTYLE
  5
2B
102
{ACAD_REACTORS
330
2A
102
}
330
2A
100
AcDbVisualStyle
  2
Flat
 70
     0
 71
     2
 72
     1
 73
     1
 90
        2
 40
-0.6
 41
30.0
 62
     5
 63
     7
421
 16777215
 74
     0
 91
        4
 64
     7
 65
   257
 75
     1
175
     1
 42
1.0
 92
        8
 66
     7
 43
1.0
 76
     1
 77
     6
 78
     2
 67
     7
 79
     5
170
     0
171
     0
290
     0
174
     0
 93
       13
 44
0.0
173
     0
291
     1
 45
0.0
1001
ACAD
1000
AcDbSavedByObjectVersion
1070
     0
  0
VISUALSTYLE
  5
2C
102
{ACAD_REACTORS
330
2A
102
}
330
2A
100
AcDbVisualStyle
  2
FlatWithEdges
 70
     1
 71
     2
 72
     1
 73
     1
 90
        2
 40
-0.6
 41
30.0
 62
     5
 63
     7
421
 16777215
 74
     1
 91
        4
 64
     7
 65
   257
 75
     1
175
     1
 42
1.0
 92
        0
 66
   257
 43
1.0
 76
     1
 77
     6
 78
     2
 67
     7
 79
     5
170
     0
171
     0
290
     0
174
     0
 93
       13
 44
0.0
173
     0
291
     1
 45
0.0
1001
ACAD
1000
AcDbSavedByObjectVersion
1070
     0
  0
VISUALSTYLE
  5
2D
102
{ACAD_REACTORS
330
2A
102
}
330
2A
100
AcDbVisualStyle
  2
Gouraud
 70
     2
 71
     2
 72
     2
 73
     1
 90
        2
 40
-0.6
 41
30.0
 62
     5
 63
     7
421
 16777215
 74
     0
 91
        4
 64
     7
 65
   257
 75
     1
175
     1
 42
1.0
 92
        0
 66
     7
 43
1.0
 76
     1
 77
     6
 78
     2
 67
     7
 79
     5
170
     0
171
     0
290
     0
174
     0
 93
       13
 44
0.0
173
     0
291
     1
 45
0.0
1001
ACAD
1000
AcDbSavedByObjectVersion
1070
     0
  0
VISUALSTYLE
  5
2E
102
{ACAD_REACTORS
330
2A
102
}
330
2A
100
AcDbVisualStyle
  2
GouraudWithEdges
 70
     3
 71
     2
 72
     2
 73
     1
 90
        2
 40
-0.6
 41
30.0
 62
     5
 63
     7
421
 16777215
 74
     1
 91
        4
 64
     7
 65
   257
 75
     1
175
     1
 42
1.0
 92
        0
 66
   257
 43
1.0
 76
     1
 77
     6
 78
     2
 67
     7
 79
     5
170
     0
171
     0
290
     0
174
     0
 93
       13
 44
0.0
173
     0
291
     1
 45
0.0
1001
ACAD
1000
AcDbSavedByObjectVersion
1070
     0
  0
VISUALSTYLE
  5
38
102
{ACAD_REACTORS
330
2A
102
}
330
2A
100
AcDbVisualStyle
  2
Linepattern
 70
    14
 71
     2
 72
     2
 73
     0
 90
        0
 40
-0.6
 41
-30.0
 62
     5
 63
     7
421
 16777215
 74
     1
 91
        4
 64
     7
 65
   257
 75
     7
175
     7
 42
1.0
 92
        8
 66
     7
 43
1.0
 76
     1
 77
     6
 78
     2
 67
     7
 79
     5
170
     0
171
     0
290
     0
174
     0
 93
        1
 44
0.0
173
     0
291
     1
 45
0.0
1001
ACAD
1000
AcDbSavedByObjectVersion
1070
     0
  0
VISUALSTYLE
  5
33
102
{ACAD_REACTORS
330
2A
102
}
330
2A
100
AcDbVisualStyle
  2
Realistic
 70
     8
 71
     2
 72
     2
 73
     0
 90
        0
 40
-0.6
 41
-30.0
 62
     5
 63
     7
421
 16777215
 74
     1
 91
        0
 64
     7
 65
   257
 75
     1
175
     1
 42
1.0
 92
        8
 66
     8
424
  7895160
 43
1.0
 76
     1
 77
     6
 78
     2
 67
     7
 79
     5
170
     0
171
     0
290
     0
174
     0
 93
       13
 44
0.0
173
     0
291
     0
 45
0.0
1001
ACAD
1000
AcDbSavedByObjectVersion
1070
     0
  0
VISUALSTYLE
  5
37
102
{ACAD_REACTORS
330
2A
102
}
330
2A
100
AcDbVisualStyle
  2
Thicken
 70
    13
 71
     2
 72
     2
 73
     0
 90
        0
 40
-0.6
 41
-30.0
 62
     5
 63
     7
421
 16777215
 74
     1
 91
        4
 64
     7
 65
   257
 75
     1
175
     1
 42
1.0
 92
       12
 66
     7
 43
1.0
 76
     1
 77
     6
 78
     2
 67
     7
 79
     5
170
     0
171
     0
290
     0
174
     0
 93
        1
 44
0.0
173
     0
291
     1
 45
0.0
1001
ACAD
1000
AcDbSavedByObjectVersion
1070
     0
  0
ENDSEC
  0
EOF
