  0
SECTION
  2
HEADER
  9
$ACADVER
  1
AC1014
  9
$ACADMAINTVER
 70
     9
  9
$DWGCODEPAGE
  3
ANSI_1252
  9
$INSBASE
 10
0.0
 20
0.0
 30
0.0
  9
$EXTMIN
 10
1.000000000000000E+20
 20
1.000000000000000E+20
 30
1.000000000000000E+20
  9
$EXTMAX
 10
-1.000000000000000E+20
 20
-1.000000000000000E+20
 30
-1.000000000000000E+20
  9
$LIMMIN
 10
0.0
 20
0.0
  9
$LIMMAX
 10
12.0
 20
9.0
  9
$ORTHOMODE
 70
     0
  9
$REGENMODE
 70
     1
  9
$FILLMODE
 70
     1
  9
$QTEXTMODE
 70
     0
  9
$MIRRTEXT
 70
     1
  9
$DRAGMODE
 70
     2
  9
$LTSCALE
 40
1.0
  9
$OSMODE
 70
    37
  9
$ATTMODE
 70
     1
  9
$TEXTSIZE
 40
0.2
  9
$TRACEWID
 40
0.05
  9
$TEXTSTYLE
  7
STANDARD
  9
$CLAYER
  8
0
  9
$CELTYPE
  6
BYLAYER
  9
$CECOLOR
 62
   256
  9
$CELTSCALE
 40
1.0
  9
$DELOBJ
 70
     1
  9
$DISPSILH
 70
     0
  9
$DIMSCALE
 40
1.0
  9
$DIMASZ
 40
0.18
  9
$DIMEXO
 40
0.0625
  9
$DIMDLI
 40
0.38
  9
$DIMRND
 40
0.0
  9
$DIMDLE
 40
0.0
  9
$DIMEXE
 40
0.18
  9
$DIMTP
 40
0.0
  9
$DIMTM
 40
0.0
  9
$DIMTXT
 40
0.18
  9
$DIMCEN
 40
0.09
  9
$DIMTSZ
 40
0.0
  9
$DIMTOL
 70
     0
  9
$DIMLIM
 70
     0
  9
$DIMTIH
 70
     1
  9
$DIMTOH
 70
     1
  9
$DIMSE1
 70
     0
  9
$DIMSE2
 70
     0
  9
$DIMTAD
 70
     0
  9
$DIMZIN
 70
     0
  9
$DIMBLK
  1

  9
$DIMASO
 70
     1
  9
$DIMSHO
 70
     1
  9
$DIMPOST
  1

  9
$DIMAPOST
  1

  9
$DIMALT
 70
     0
  9
$DIMALTD
 70
     2
  9
$DIMALTF
 40
25.4
  9
$DIMLFAC
 40
1.0
  9
$DIMTOFL
 70
     0
  9
$DIMTVP
 40
0.0
  9
$DIMTIX
 70
     0
  9
$DIMSOXD
 70
     0
  9
$DIMSAH
 70
     0
  9
$DIMBLK1
  1

  9
$DIMBLK2
  1

  9
$DIMSTYLE
  2
STANDARD
  9
$DIMCLRD
 70
     0
  9
$DIMCLRE
 70
     0
  9
$DIMCLRT
 70
     0
  9
$DIMTFAC
 40
1.0
  9
$DIMGAP
 40
0.09
  9
$DIMJUST
 70
     0
  9
$DIMSD1
 70
     0
  9
$DIMSD2
 70
     0
  9
$DIMTOLJ
 70
     1
  9
$DIMTZIN
 70
     0
  9
$DIMALTZ
 70
     0
  9
$DIMALTTZ
 70
     0
  9
$DIMFIT
 70
     3
  9
$DIMUPT
 70
     0
  9
$DIMUNIT
 70
     2
  9
$DIMDEC
 70
     4
  9
$DIMTDEC
 70
     4
  9
$DIMALTU
 70
     2
  9
$DIMALTTD
 70
     2
  9
$DIMTXSTY
  7
STANDARD
  9
$DIMAUNIT
 70
     0
  9
$LUNITS
 70
     2
  9
$LUPREC
 70
     4
  9
$SKETCHINC
 40
0.1
  9
$FILLETRAD
 40
0.5
  9
$AUNITS
 70
     0
  9
$AUPREC
 70
     0
  9
$MENU
  1
.
  9
$ELEVATION
 40
0.0
  9
$PELEVATION
 40
0.0
  9
$THICKNESS
 40
0.0
  9
$LIMCHECK
 70
     0
  9
$CHAMFERA
 40
0.5
  9
$CHAMFERB
 40
0.5
  9
$CHAMFERC
 40
1.0
  9
$CHAMFERD
 40
0.0
  9
$SKPOLY
 70
     0
  9
$TDCREATE
 40
2456670.547467326
  9
$TDUPDATE
 40
2456670.547467338
  9
$TDINDWG
 40
0.0000000116
  9
$TDUSRTIMER
 40
0.0000000116
  9
$USRTIMER
 70
     1
  9
$ANGBASE
 50
0.0
  9
$ANGDIR
 70
     0
  9
$PDMODE
 70
     0
  9
$PDSIZE
 40
0.0
  9
$PLINEWID
 40
0.0
  9
$COORDS
 70
     1
  9
$SPLFRAME
 70
     0
  9
$SPLINETYPE
 70
     6
  9
$SPLINESEGS
 70
     8
  9
$ATTDIA
 70
     0
  9
$ATTREQ
 70
     1
  9
$HANDLING
 70
     1
  9
$HANDSEED
  5
6C
  9
$SURFTAB1
 70
     6
  9
$SURFTAB2
 70
     6
  9
$SURFTYPE
 70
     6
  9
$SURFU
 70
     6
  9
$SURFV
 70
     6
  9
$UCSNAME
  2

  9
$UCSORG
 10
0.0
 20
0.0
 30
0.0
  9
$UCSXDIR
 10
1.0
 20
0.0
 30
0.0
  9
$UCSYDIR
 10
0.0
 20
1.0
 30
0.0
  9
$PUCSNAME
  2

  9
$PUCSORG
 10
0.0
 20
0.0
 30
0.0
  9
$PUCSXDIR
 10
1.0
 20
0.0
 30
0.0
  9
$PUCSYDIR
 10
0.0
 20
1.0
 30
0.0
  9
$USERI1
 70
     0
  9
$USERI2
 70
     0
  9
$USERI3
 70
     0
  9
$USERI4
 70
     0
  9
$USERI5
 70
     0
  9
$USERR1
 40
0.0
  9
$USERR2
 40
0.0
  9
$USERR3
 40
0.0
  9
$USERR4
 40
0.0
  9
$USERR5
 40
0.0
  9
$WORLDVIEW
 70
     1
  9
$SHADEDGE
 70
     3
  9
$SHADEDIF
 70
    70
  9
$TILEMODE
 70
     1
  9
$MAXACTVP
 70
    64
  9
$PINSBASE
 10
0.0
 20
0.0
 30
0.0
  9
$PLIMCHECK
 70
     0
  9
$PEXTMIN
 10
1.000000000000000E+20
 20
1.000000000000000E+20
 30
1.000000000000000E+20
  9
$PEXTMAX
 10
-1.000000000000000E+20
 20
-1.000000000000000E+20
 30
-1.000000000000000E+20
  9
$PLIMMIN
 10
0.0
 20
0.0
  9
$PLIMMAX
 10
12.0
 20
9.0
  9
$UNITMODE
 70
     0
  9
$VISRETAIN
 70
     1
  9
$PLINEGEN
 70
     0
  9
$PSLTSCALE
 70
     1
  9
$TREEDEPTH
 70
  3020
  9
$PICKSTYLE
 70
     1
  9
$CMLSTYLE
  2
STANDARD
  9
$CMLJUST
 70
     0
  9
$CMLSCALE
 40
1.0
  9
$PROXYGRAPHICS
 70
     1
  9
$MEASUREMENT
 70
     0
  0
ENDSEC
  0
SECTION
  2
CLASSES
  0
CLASS
  1
ACDBDICTIONARYWDFLT
  2
AcDbDictionaryWithDefault
  3
ObjectDBX Classes
 90
        0
280
     0
281
     0
  0
CLASS
  1
VISUALSTYLE
  2
AcDbVisualStyle
  3
ObjectDBX Classes
 90
     4095
280
     0
281
     0
  0
CLASS
  1
XRECORD
  2
AcDbXrecord
  3
AutoCAD 2000
 90
        0
280
     0
281
     0
  0
CLASS
  1
LWPOLYLINE
  2
AcDbPolyline
  3
AutoCAD 2000
 90
        0
280
     0
281
     1
  0
CLASS
  1
HATCH
  2
AcDbHatch
  3
AutoCAD 2000
 90
        0
280
     0
281
     1
  0
CLASS
  1
ACDBPLACEHOLDER
  2
AcDbPlaceHolder
  3
ObjectDBX Classes
 90
        0
280
     0
281
     0
  0
CLASS
  1
LAYOUT
  2
AcDbLayout
  3
ObjectDBX Classes
 90
        0
280
     0
281
     0
  0
ENDSEC
  0
SECTION
  2
TABLES
  0
TABLE
  2
VPORT
  5
8
330
0
100
AcDbSymbolTable
 70
     1
  0
VPORT
  5
29
330
8
100
AcDbSymbolTableRecord
100
AcDbViewportTableRecord
  2
*ACTIVE
 70
     0
 10
0.0
 20
0.0
 11
1.0
 21
1.0
 12
0.0
 22
0.0
 13
0.0
 23
0.0
 14
0.5
 24
0.5
 15
0.5
 25
0.5
 16
0.0
 26
0.0
 36
1.0
 17
4.25
 27
-5.5
 37
0.0
 40
11.0
 41
0.7727272727272727
 42
50.0
 43
0.0
 44
0.0
 50
0.0
 51
0.0
 71
     0
 72
   100
 73
     1
 74
     3
 75
     0
 76
     0
 77
     0
 78
     0
  0
ENDTAB
  0
TABLE
  2
LTYPE
  5
5
330
0
100
AcDbSymbolTable
 70
     1
  0
LTYPE
  5
14
330
5
100
AcDbSymbolTableRecord
100
AcDbLinetypeTableRecord
  2
BYBLOCK
 70
     0
  3

 72
    65
 73
     0
 40
0.0
  0
LTYPE
  5
15
330
5
100
AcDbSymbolTableRecord
100
AcDbLinetypeTableRecord
  2
BYLAYER
 70
     0
  3

 72
    65
 73
     0
 40
0.0
  0
LTYPE
  5
16
330
5
100
AcDbSymbolTableRecord
100
AcDbLinetypeTableRecord
  2
CONTINUOUS
 70
     0
  3
Solid line
 72
    65
 73
     0
 40
0.0
  0
ENDTAB
  0
TABLE
  2
LAYER
  5
2
330
0
100
AcDbSymbolTable
 70
     2
  0
LAYER
  5
10
330
2
100
AcDbSymbolTableRecord
100
AcDbLayerTableRecord
  2
0
 70
     0
 62
     7
  6
CONTINUOUS
  0
LAYER
  5
3B
330
2
100
AcDbSymbolTableRecord
100
AcDbLayerTableRecord
  2
LAYER_1
 70
     0
 62
     7
  6
CONTINUOUS
  0
ENDTAB
  0
TABLE
  2
STYLE
  5
3
330
0
100
AcDbSymbolTable
 70
     1
  0
STYLE
  5
11
330
3
100
AcDbSymbolTableRecord
100
AcDbTextStyleTableRecord
  2
STANDARD
 70
     0
 40
0.0
 41
1.0
 50
0.0
 71
     0
 42
0.2
  3
txt
  4

  0
ENDTAB
  0
TABLE
  2
VIEW
  5
6
330
0
100
AcDbSymbolTable
 70
     0
  0
ENDTAB
  0
TABLE
  2
UCS
  5
7
330
0
100
AcDbSymbolTable
 70
     0
  0
ENDTAB
  0
TABLE
  2
APPID
  5
9
330
0
100
AcDbSymbolTable
 70
     1
  0
APPID
  5
12
330
9
100
AcDbSymbolTableRecord
100
AcDbRegAppTableRecord
  2
ACAD
 70
     0
  0
ENDTAB
  0
TABLE
  2
DIMSTYLE
  5
A
330
0
100
AcDbSymbolTable
 70
     1
  0
DIMSTYLE
105
27
330
A
100
AcDbSymbolTableRecord
100
AcDbDimStyleTableRecord
  2
STANDARD
 70
     0
  3

  4

  5

  6

  7

 40
1.0
 41
0.18
 42
0.0625
 43
0.38
 44
0.18
 45
0.0
 46
0.0
 47
0.0
 48
0.0
140
0.18
141
0.09
142
0.0
143
25.4
144
1.0
145
0.0
146
1.0
147
0.09
 71
     0
 72
     0
 73
     1
 74
     1
 75
     0
 76
     0
 77
     0
 78
     0
170
     0
171
     2
172
     0
173
     0
174
     0
175
     0
176
     0
177
     0
178
     0
270
     2
271
     4
272
     4
273
     2
274
     2
340
11
275
     0
280
     0
281
     0
282
     0
283
     1
284
     0
285
     0
286
     0
287
     3
288
     0
  0
ENDTAB
  0
TABLE
  2
BLOCK_RECORD
  5
1
330
0
100
AcDbSymbolTable
 70
     2
  0
BLOCK_RECORD
  5
1F
330
1
100
AcDbSymbolTableRecord
100
AcDbBlockTableRecord
  2
*MODEL_SPACE
  0
BLOCK_RECORD
  5
1B
330
1
100
AcDbSymbolTableRecord
100
AcDbBlockTableRecord
  2
*PAPER_SPACE
  0
BLOCK_RECORD
  5
3C
330
1
100
AcDbSymbolTableRecord
100
AcDbBlockTableRecord
  2
BLOCK_2
  0
ENDTAB
  0
ENDSEC
  0
SECTION
  2
BLOCKS
  0
BLOCK
  5
20
330
1F
100
AcDbEntity
  8
0
100
AcDbBlockBegin
  2
*MODEL_SPACE
 70
     0
 71
     0
 10
0.0
 20
0.0
 30
0.0
  3
*MODEL_SPACE
  1

  0
ENDBLK
  5
21
330
1F
100
AcDbEntity
  8
0
100
AcDbBlockEnd
  0
BLOCK
  5
1C
330
1B
100
AcDbEntity
 67
     1
  8
0
100
AcDbBlockBegin
  2
*PAPER_SPACE
 70
     0
 71
     0
 10
0.0
 20
0.0
 30
0.0
  3
*PAPER_SPACE
  1

  0
ENDBLK
  5
1D
330
1B
100
AcDbEntity
 67
     1
  8
0
100
AcDbBlockEnd
  0
BLOCK
  5
3E
330
3C
100
AcDbEntity
  8
0
100
AcDbBlockBegin
  2
BLOCK_2
 70
     0
 71
     0
 10
0.0
 20
0.0
 30
0.0
  3
BLOCK_2
  1

  0
SPLINE
  5
40
330
3C
100
AcDbEntity
  8
LAYER_1
 62
     7
100
AcDbSpline
210
0.0
220
0.0
230
1.0
 70
    11
 71
     3
 72
   233
 73
   229
 74
     0
 42
0.0000000001
 43
0.0000000001
 40
0.0
 40
0.0
 40
0.0
 40
0.0
 40
1.0
 40
1.0
 40
1.0
 40
2.0
 40
2.0
 40
2.0
 40
3.0
 40
3.0
 40
3.0
 40
4.0
 40
4.0
 40
4.0
 40
5.0
 40
5.0
 40
5.0
 40
6.0
 40
6.0
 40
6.0
 40
7.0
 40
7.0
 40
7.0
 40
8.0
 40
8.0
 40
8.0
 40
9.0
 40
9.0
 40
9.0
 40
10.0
 40
10.0
 40
10.0
 40
11.0
 40
11.0
 40
11.0
 40
12.0
 40
12.0
 40
12.0
 40
13.0
 40
13.0
 40
13.0
 40
14.0
 40
14.0
 40
14.0
 40
15.0
 40
15.0
 40
15.0
 40
16.0
 40
16.0
 40
16.0
 40
17.0
 40
17.0
 40
17.0
 40
18.0
 40
18.0
 40
18.0
 40
19.0
 40
19.0
 40
19.0
 40
20.0
 40
20.0
 40
20.0
 40
21.0
 40
21.0
 40
21.0
 40
22.0
 40
22.0
 40
22.0
 40
23.0
 40
23.0
 40
23.0
 40
24.0
 40
24.0
 40
24.0
 40
25.0
 40
25.0
 40
25.0
 40
26.0
 40
26.0
 40
26.0
 40
27.0
 40
27.0
 40
27.0
 40
28.0
 40
28.0
 40
28.0
 40
29.0
 40
29.0
 40
29.0
 40
30.0
 40
30.0
 40
30.0
 40
31.0
 40
31.0
 40
31.0
 40
32.0
 40
32.0
 40
32.0
 40
33.0
 40
33.0
 40
33.0
 40
34.0
 40
34.0
 40
34.0
 40
35.0
 40
35.0
 40
35.0
 40
36.0
 40
36.0
 40
36.0
 40
37.0
 40
37.0
 40
37.0
 40
38.0
 40
38.0
 40
38.0
 40
39.0
 40
39.0
 40
39.0
 40
40.0
 40
40.0
 40
40.0
 40
41.0
 40
41.0
 40
41.0
 40
42.0
 40
42.0
 40
42.0
 40
43.0
 40
43.0
 40
43.0
 40
44.0
 40
44.0
 40
44.0
 40
45.0
 40
45.0
 40
45.0
 40
46.0
 40
46.0
 40
46.0
 40
47.0
 40
47.0
 40
47.0
 40
48.0
 40
48.0
 40
48.0
 40
49.0
 40
49.0
 40
49.0
 40
50.0
 40
50.0
 40
50.0
 40
51.0
 40
51.0
 40
51.0
 40
52.0
 40
52.0
 40
52.0
 40
53.0
 40
53.0
 40
53.0
 40
54.0
 40
54.0
 40
54.0
 40
55.0
 40
55.0
 40
55.0
 40
56.0
 40
56.0
 40
56.0
 40
57.0
 40
57.0
 40
57.0
 40
58.0
 40
58.0
 40
58.0
 40
59.0
 40
59.0
 40
59.0
 40
60.0
 40
60.0
 40
60.0
 40
61.0
 40
61.0
 40
61.0
 40
62.0
 40
62.0
 40
62.0
 40
63.0
 40
63.0
 40
63.0
 40
64.0
 40
64.0
 40
64.0
 40
65.0
 40
65.0
 40
65.0
 40
66.0
 40
66.0
 40
66.0
 40
67.0
 40
67.0
 40
67.0
 40
68.0
 40
68.0
 40
68.0
 40
69.0
 40
69.0
 40
69.0
 40
70.0
 40
70.0
 40
70.0
 40
71.0
 40
71.0
 40
71.0
 40
72.0
 40
72.0
 40
72.0
 40
73.0
 40
73.0
 40
73.0
 40
74.0
 40
74.0
 40
74.0
 40
75.0
 40
75.0
 40
75.0
 40
76.0
 40
76.0
 40
76.0
 40
76.0
 10
3.270758734809028
 20
-5.188958062065972
 30
0.0
 10
3.32073974609375
 20
-5.238349066840278
 30
0.0
 10
3.353230794270833
 20
-5.27044677734375
 30
0.0
 10
3.382093641493055
 20
-5.2989501953125
 30
0.0
 10
3.400112575954861
 20
-5.351352267795138
 30
0.0
 10
3.391038682725694
 20
-5.394694010416666
 30
0.0
 10
3.364671495225694
 20
-5.43548583984375
 30
0.0
 10
3.360799153645833
 20
-5.44146728515625
 30
0.0
 10
3.356479220920139
 20
-5.447231716579861
 30
0.0
 10
3.353135850694444
 20
-5.453484429253472
 30
0.0
 10
3.285332573784722
 20
-5.580403645833333
 30
0.0
 10
3.241794162326389
 20
-5.712510850694444
 30
0.0
 10
3.270907931857639
 20
-5.867621527777778
 30
0.0
 10
3.318427191840278
 20
-5.840874565972222
 30
0.0
 10
3.364935980902778
 20
-5.814724392361111
 30
0.0
 10
3.408521864149305
 20
-5.790201822916666
 30
0.0
 10
3.408521864149305
 20
-5.757012261284722
 30
0.0
 10
3.408521864149305
 20
-5.733479817708333
 30
0.0
 10
3.408521864149305
 20
-5.706841362847222
 30
0.0
 10
3.373765733506944
 20
-5.7037353515625
 30
0.0
 10
3.342963324652778
 20
-5.700981987847222
 30
0.0
 10
3.293002658420139
 20
-5.696533203125
 30
0.0
 10
3.338412814670139
 20
-5.652180989583333
 30
0.0
 10
3.372158474392361
 20
-5.619181315104166
 30
0.0
 10
3.408725314670139
 20
-5.583441840277778
 30
0.0
 10
3.432854546440972
 20
-5.537353515625
 30
0.0
 10
3.383280436197917
 20
-5.471638997395833
 30
0.0
 10
3.441745334201389
 20
-5.425821940104166
 30
0.0
 10
3.529161241319444
 20
-5.456556532118055
 30
0.0
 10
3.5577392578125
 20
-5.561469184027778
 30
0.0
 10
3.652113172743055
 20
-5.573621961805555
 30
0.0
 10
3.63446044921875
 20
-5.645643446180555
 30
0.0
 10
3.573994954427083
 20
-5.638278537326388
 30
0.0
 10
3.541408962673611
 20
-5.671440972222222
 30
0.0
 10
3.541408962673611
 20
-5.683173285590278
 30
0.0
 10
3.541408962673611
 20
-5.696845160590278
 30
0.0
 10
3.541408962673611
 20
-5.712890625
 30
0.0
 10
3.5816650390625
 20
-5.740559895833333
 30
0.0
 10
3.667650010850694
 20
-5.691826714409722
 30
0.0
 10
3.670247395833333
 20
-5.793212890625
 30
0.0
 10
3.648539225260417
 20
-5.804470486111111
 30
0.0
 10
3.625657823350694
 20
-5.818956163194444
 30
0.0
 10
3.600904676649305
 20
-5.828640407986111
 30
0.0
 10
3.541598849826389
 20
-5.851888020833333
 30
0.0
 10
3.541246202256944
 20
-5.850992838541666
 30
0.0
 10
3.547159830729167
 20
-5.929443359375
 30
0.0
 10
3.577467176649305
 20
-5.933349609375
 30
0.0
 10
3.608846028645833
 20
-5.935275607638888
 30
0.0
 10
3.639065212673611
 20
-5.942220052083333
 30
0.0
 10
3.655415852864583
 20
-5.945990668402778
 30
0.0
 10
3.6697998046875
 20
-5.958360460069444
 30
0.0
 10
3.692552354600694
 20
-5.971001519097222
 30
0.0
 10
3.6883544921875
 20
-5.991889105902778
 30
0.0
 10
3.690497504340278
 20
-6.019287109375
 30
0.0
 10
3.678134494357639
 20
-6.035888671875
 30
0.0
 10
3.6351318359375
 20
-6.093532986111111
 30
0.0
 10
3.587110731336805
 20
-6.147420247395833
 30
0.0
 10
3.532857259114583
 20
-6.212470160590278
 30
0.0
 10
3.583387586805555
 20
-6.212470160590278
 30
0.0
 10
3.618537055121528
 20
-6.212470160590278
 30
0.0
 10
3.657151963975694
 20
-6.212470160590278
 30
0.0
 10
3.673936631944444
 20
-6.235609266493055
 30
0.0
 10
3.690009223090278
 20
-6.257744683159721
 30
0.0
 10
3.712002224392361
 20
-6.288045247395833
 30
0.0
 10
3.7467041015625
 20
-6.270412868923611
 30
0.0
 10
3.783053927951389
 20
-6.251939561631944
 30
0.0
 10
3.822794596354167
 20
-6.231757269965278
 30
0.0
 10
3.805141872829861
 20
-6.080702039930555
 30
0.0
 10
3.849772135416667
 20
-5.942464192708333
 30
0.0
 10
3.874403211805555
 20
-5.801296657986111
 30
0.0
 10
3.887708875868055
 20
-5.725206163194444
 30
0.0
 10
3.891547309027778
 20
-5.647365993923611
 30
0.0
 10
3.906283908420139
 20
-5.571614583333333
 30
0.0
 10
3.918768988715278
 20
-5.50750732421875
 30
0.0
 10
3.926174587673611
 20
-5.439982096354166
 30
0.0
 10
3.9698486328125
 20
-5.380330403645833
 30
0.0
 10
4.035176595052083
 20
-5.435072157118055
 30
0.0
 10
3.997002495659722
 20
-5.508226182725694
 30
0.0
 10
4.017673068576388
 20
-5.572401258680555
 30
0.0
 10
4.043355305989583
 20
-5.550618489583333
 30
0.0
 10
4.066975911458333
 20
-5.530558268229166
 30
0.0
 10
4.093234592013888
 20
-5.508293999565972
 30
0.0
 10
4.144178602430555
 20
-5.508293999565972
 30
0.0
 10
4.197428385416666
 20
-5.508293999565972
 30
0.0
 10
4.250678168402778
 20
-5.508355034722222
 30
0.0
 10
4.307644314236111
 20
-5.5748291015625
 30
0.0
 10
4.301622178819445
 20
-5.628675672743055
 30
0.0
 10
4.228000217013888
 20
-5.655653211805555
 30
0.0
 10
4.179660373263888
 20
-5.673394097222222
 30
0.0
 10
4.12646484375
 20
-5.677897135416666
 30
0.0
 10
4.075107150607638
 20
-5.688395182291666
 30
0.0
 10
4.045966254340278
 20
-5.657524956597222
 30
0.0
 10
4.022298177083333
 20
-5.632486979166666
 30
0.0
 10
3.997314453125
 20
-5.606024848090278
 30
0.0
 10
3.997314453125
 20
-5.685072157118055
 30
0.0
 10
3.997314453125
 20
-5.766276041666666
 30
0.0
 10
3.997314453125
 20
-5.850287543402778
 30
0.0
 10
4.060885959201388
 20
-5.820095486111111
 30
0.0
 10
4.119669596354166
 20
-5.792127821180555
 30
0.0
 10
4.175944010416666
 20
-5.765380859375
 30
0.0
 10
4.206732855902778
 20
-5.775472005208333
 30
0.0
 10
4.233072916666666
 20
-5.784098307291666
 30
0.0
 10
4.2611083984375
 20
-5.793267144097222
 30
0.0
 10
4.273844401041666
 20
-5.824028862847222
 30
0.0
 10
4.271253797743055
 20
-5.851155598958333
 30
0.0
 10
4.251695421006945
 20
-5.881456163194444
 30
0.0
 10
4.208930121527778
 20
-5.947862413194444
 30
0.0
 10
4.106641981336805
 20
-5.975016276041666
 30
0.0
 10
3.993292914496528
 20
-5.942247178819444
 30
0.0
 10
3.993292914496528
 20
-5.9716796875
 30
0.0
 10
3.993292914496528
 20
-5.999565972222222
 30
0.0
 10
3.993292914496528
 20
-6.027452256944444
 30
0.0
 10
3.993292914496528
 20
-6.051703559027778
 30
0.0
 10
3.993292914496528
 20
-6.075981987847222
 30
0.0
 10
3.993292914496528
 20
-6.116916232638888
 30
0.0
 10
4.025126139322916
 20
-6.101453993055555
 30
0.0
 10
4.054022894965278
 20
-6.097195095486111
 30
0.0
 10
4.062330457899305
 20
-6.081814236111111
 30
0.0
 10
4.11114501953125
 20
-5.991400824652778
 30
0.0
 10
4.187879774305555
 20
-5.993435329861111
 30
0.0
 10
4.2711181640625
 20
-6.007242838541666
 30
0.0
 10
4.295844184027778
 20
-6.042426215277778
 30
0.0
 10
4.295762803819445
 20
-6.073947482638888
 30
0.0
 10
4.277899848090278
 20
-6.109185112847222
 30
0.0
 10
4.2288818359375
 20
-6.205878363715278
 30
0.0
 10
4.186903211805555
 20
-6.3065185546875
 30
0.0
 10
4.132107204861111
 20
-6.399753146701388
 30
0.0
 10
4.095187717013888
 20
-6.462578667534721
 30
0.0
 10
4.041300455729166
 20
-6.515421549479166
 30
0.0
 10
3.988288031684028
 20
-6.581041124131944
 30
0.0
 10
4.044664171006945
 20
-6.594930013020833
 30
0.0
 10
4.097425672743055
 20
-6.615681966145833
 30
0.0
 10
4.151421440972222
 20
-6.619669596354166
 30
0.0
 10
4.281521267361111
 20
-6.629245334201388
 30
0.0
 10
4.408501519097222
 20
-6.659708658854166
 30
0.0
 10
4.538628472222222
 20
-6.672159830729166
 30
0.0
 10
4.654975043402778
 20
-6.683254665798611
 30
0.0
 10
4.760701497395833
 20
-6.663045247395833
 30
0.0
 10
4.869900173611111
 20
-6.643595377604166
 30
0.0
 10
4.976345486111111
 20
-6.624579535590278
 30
0.0
 10
5.082302517361111
 20
-6.602606879340278
 30
0.0
 10
5.187974717881944
 20
-6.579522026909721
 30
0.0
 10
5.296603732638888
 20
-6.555867513020833
 30
0.0
 10
5.404947916666666
 20
-6.530504014756944
 30
0.0
 10
5.512844509548611
 20
-6.503621419270833
 30
0.0
 10
5.68505859375
 20
-6.460706922743055
 30
0.0
 10
5.825629340277778
 20
-6.460408528645833
 30
0.0
 10
6.010715060763888
 20
-6.509426540798611
 30
0.0
 10
5.947672526041666
 20
-6.544284396701388
 30
0.0
 10
5.892266167534722
 20
-6.572170681423611
 30
0.0
 10
5.839599609375
 20
-6.604560004340278
 30
0.0
 10
5.707980685763888
 20
-6.685506184895833
 30
0.0
 10
5.572238498263888
 20
-6.7591552734375
 30
0.0
 10
5.4420166015625
 20
-6.843193901909721
 30
0.0
 10
5.345133463541666
 20
-6.905748155381944
 30
0.0
 10
5.247979058159722
 20
-6.976657443576388
 30
0.0
 10
5.129625108506944
 20
-7.0079345703125
 30
0.0
 10
5.016533745659722
 20
-7.037855360243055
 30
0.0
 10
4.902235243055555
 20
-7.040188259548611
 30
0.0
 10
4.792195638020833
 20
-7.023640950520833
 30
0.0
 10
4.668836805555555
 20
-7.005086263020833
 30
0.0
 10
4.542263454861111
 20
-6.997707790798611
 30
0.0
 10
4.422946506076388
 20
-6.947577582465278
 30
0.0
 10
4.297648111979166
 20
-6.894978841145833
 30
0.0
 10
4.1661376953125
 20
-6.856920030381944
 30
0.0
 10
4.036770290798611
 20
-6.814222547743055
 30
0.0
 10
3.728047688802083
 20
-6.712307400173611
 30
0.0
 10
3.417188856336805
 20
-6.616794162326388
 30
0.0
 10
3.100504557291667
 20
-6.543280707465278
 30
0.0
 10
2.97467041015625
 20
-6.514065212673611
 30
0.0
 10
2.847479926215278
 20
-6.535142686631944
 30
0.0
 10
2.728413899739583
 20
-6.5902099609375
 30
0.0
 10
2.687425401475694
 20
-6.609198676215278
 30
0.0
 10
2.646714952256944
 20
-6.628702799479166
 30
0.0
 10
2.614162868923611
 20
-6.644056532118055
 30
0.0
 10
2.486653645833333
 20
-6.621378580729166
 30
0.0
 10
2.501512315538194
 20
-6.5162353515625
 30
0.0
 10
2.466132269965278
 20
-6.4359130859375
 30
0.0
 10
2.595384385850694
 20
-6.358927408854166
 30
0.0
 10
2.733852810329861
 20
-6.382609049479166
 30
0.0
 10
2.872721354166667
 20
-6.377454969618055
 30
0.0
 10
2.872721354166667
 20
-6.343193901909721
 30
0.0
 10
2.872721354166667
 20
-6.308553059895833
 30
0.0
 10
2.872721354166667
 20
-6.2711181640625
 30
0.0
 10
2.739047580295139
 20
-6.196546766493055
 30
0.0
 10
2.756591796875
 20
-6.043646918402778
 30
0.0
 10
2.692464192708333
 20
-5.919325086805555
 30
0.0
 10
2.600341796875
 20
-5.881184895833333
 30
0.0
 10
2.525539822048611
 20
-5.814208984375
 30
0.0
 10
2.511922200520833
 20
-5.696560329861111
 30
0.0
 10
2.675740559895833
 20
-5.621907552083333
 30
0.0
 10
2.808336046006944
 20
-5.691826714409722
 30
0.0
 10
2.937872992621528
 20
-5.767957899305555
 30
0.0
 10
2.949747721354167
 20
-5.844428168402778
 30
0.0
 10
2.930752224392361
 20
-5.90283203125
 30
0.0
 10
2.890597873263889
 20
-5.955050998263888
 30
0.0
 10
2.863640679253472
 20
-5.990044487847222
 30
0.0
 10
2.846293131510417
 20
-6.027072482638888
 30
0.0
 10
2.858106825086805
 20
-6.079345703125
 30
0.0
 10
2.880418565538194
 20
-6.093343098958333
 30
0.0
 10
2.906405978732639
 20
-6.110785590277778
 30
0.0
 10
2.933485243055555
 20
-6.1263427734375
 30
0.0
 10
2.954745822482639
 20
-6.1385498046875
 30
0.0
 10
2.979275173611111
 20
-6.145738389756944
 30
0.0
 10
2.998996310763889
 20
-6.159844292534722
 30
0.0
 10
3.083869086371528
 20
-6.220553927951388
 30
0.0
 10
3.091376410590278
 20
-6.2874755859375
 30
0.0
 10
3.021233452690972
 20
-6.395955403645833
 30
0.0
 10
3.042039659288194
 20
-6.401624891493055
 30
0.0
 10
3.060126410590278
 20
-6.405938042534721
 30
0.0
 10
3.07781982421875
 20
-6.4114990234375
 30
0.0
 10
3.097635904947917
 20
-6.417738172743055
 30
0.0
 10
3.117106119791667
 20
-6.425116644965278
 30
0.0
 10
3.145107693142361
 20
-6.4349365234375
 30
0.0
 10
3.156087239583333
 20
-6.320244683159721
 30
0.0
 10
3.167961968315972
 20
-6.211629231770833
 30
0.0
 10
3.176520453559028
 20
-6.102783203125
 30
0.0
 10
3.185282389322917
 20
-5.991400824652778
 30
0.0
 10
3.1907958984375
 20
-5.879774305555555
 30
0.0
 10
3.197469075520833
 20
-5.772433810763888
 30
0.0
 10
3.131930881076389
 20
-5.779215494791666
 30
0.0
 10
3.074164496527778
 20
-5.785210503472222
 30
0.0
 10
3.001858181423611
 20
-5.792697482638888
 30
0.0
 10
3.038994683159722
 20
-5.675618489583333
 30
0.0
 10
3.105421278211805
 20
-5.590033637152778
 30
0.0
 10
3.149468315972222
 20
-5.493991427951388
 30
0.0
 10
3.192620171440972
 20
-5.399936252170138
 30
0.0
 10
3.226481119791667
 20
-5.30157470703125
 30
0.0
 10
3.270758734809028
 20
-5.188958062065972
 30
0.0
  0
SPLINE
  5
41
330
3C
100
AcDbEntity
  8
LAYER_1
 62
     7
100
AcDbSpline
210
0.0
220
0.0
230
1.0
 70
    11
 71
     3
 72
    35
 73
    31
 74
     0
 42
0.0000000001
 43
0.0000000001
 40
0.0
 40
0.0
 40
0.0
 40
0.0
 40
1.0
 40
1.0
 40
1.0
 40
2.0
 40
2.0
 40
2.0
 40
3.0
 40
3.0
 40
3.0
 40
4.0
 40
4.0
 40
4.0
 40
5.0
 40
5.0
 40
5.0
 40
6.0
 40
6.0
 40
6.0
 40
7.0
 40
7.0
 40
7.0
 40
8.0
 40
8.0
 40
8.0
 40
9.0
 40
9.0
 40
9.0
 40
10.0
 40
10.0
 40
10.0
 40
10.0
 10
3.92974853515625
 20
-6.377048068576388
 30
0.0
 10
3.924397786458333
 20
-6.373033311631944
 30
0.0
 10
3.919040256076389
 20
-6.3690185546875
 30
0.0
 10
3.913682725694444
 20
-6.364976671006944
 30
0.0
 10
3.860161675347222
 20
-6.388468424479166
 30
0.0
 10
3.806640625
 20
-6.411933051215278
 30
0.0
 10
3.754930284288194
 20
-6.434611002604166
 30
0.0
 10
3.716498480902778
 20
-6.3995361328125
 30
0.0
 10
3.685153537326389
 20
-6.370890299479166
 30
0.0
 10
3.654310438368055
 20
-6.342732747395833
 30
0.0
 10
3.538397894965278
 20
-6.332288953993055
 30
0.0
 10
3.425774468315972
 20
-6.392781575520833
 30
0.0
 10
3.307352701822917
 20
-6.355672200520833
 30
0.0
 10
3.307352701822917
 20
-6.325968424479166
 30
0.0
 10
3.307352701822917
 20
-6.2984619140625
 30
0.0
 10
3.307352701822917
 20
-6.271389431423611
 30
0.0
 10
3.341010199652778
 20
-6.246622721354166
 30
0.0
 10
3.386305067274305
 20
-6.234469943576388
 30
0.0
 10
3.39007568359375
 20
-6.179728190104166
 30
0.0
 10
3.350138346354167
 20
-6.170233832465278
 30
0.0
 10
3.311231825086805
 20
-6.160956488715278
 30
0.0
 10
3.268853081597222
 20
-6.150892469618055
 30
0.0
 10
3.238104926215278
 20
-6.251559787326388
 30
0.0
 10
3.320393880208333
 20
-6.348727756076388
 30
0.0
 10
3.263515896267361
 20
-6.450236002604166
 30
0.0
 10
3.4613037109375
 20
-6.483873155381944
 30
0.0
 10
3.648918999565972
 20
-6.515828450520833
 30
0.0
 10
3.843600802951389
 20
-6.549004448784721
 30
0.0
 10
3.871893988715278
 20
-6.4925537109375
 30
0.0
 10
3.90081787109375
 20
-6.434773763020833
 30
0.0
 10
3.92974853515625
 20
-6.377048068576388
 30
0.0
  0
SPLINE
  5
42
330
3C
100
AcDbEntity
  8
LAYER_1
 62
     7
100
AcDbSpline
210
0.0
220
0.0
230
1.0
 70
    11
 71
     3
 72
    17
 73
    13
 74
     0
 42
0.0000000001
 43
0.0000000001
 40
0.0
 40
0.0
 40
0.0
 40
0.0
 40
1.0
 40
1.0
 40
1.0
 40
2.0
 40
2.0
 40
2.0
 40
3.0
 40
3.0
 40
3.0
 40
4.0
 40
4.0
 40
4.0
 40
4.0
 10
3.2613525390625
 20
-5.896647135416666
 30
0.0
 10
3.266459147135417
 20
-5.963487413194444
 30
0.0
 10
3.254631890190972
 20
-6.025146484375
 30
0.0
 10
3.273980034722222
 20
-6.098958333333333
 30
0.0
 10
3.32769775390625
 20
-6.059054904513888
 30
0.0
 10
3.371799045138889
 20
-6.0263671875
 30
0.0
 10
3.414923773871528
 20
-5.994357638888888
 30
0.0
 10
3.410678439670139
 20
-5.962429470486111
 30
0.0
 10
3.407585991753472
 20
-5.939236111111111
 30
0.0
 10
3.405185275607639
 20
-5.921169704861111
 30
0.0
 10
3.356757269965278
 20
-5.912923177083333
 30
0.0
 10
3.315904405381944
 20
-5.905951605902778
 30
0.0
 10
3.2613525390625
 20
-5.896647135416666
 30
0.0
  0
SPLINE
  5
43
330
3C
100
AcDbEntity
  8
LAYER_1
 62
     7
100
AcDbSpline
210
0.0
220
0.0
230
1.0
 70
    11
 71
     3
 72
   164
 73
   160
 74
     0
 42
0.0000000001
 43
0.0000000001
 40
0.0
 40
0.0
 40
0.0
 40
0.0
 40
1.0
 40
1.0
 40
1.0
 40
2.0
 40
2.0
 40
2.0
 40
3.0
 40
3.0
 40
3.0
 40
4.0
 40
4.0
 40
4.0
 40
5.0
 40
5.0
 40
5.0
 40
6.0
 40
6.0
 40
6.0
 40
7.0
 40
7.0
 40
7.0
 40
8.0
 40
8.0
 40
8.0
 40
9.0
 40
9.0
 40
9.0
 40
10.0
 40
10.0
 40
10.0
 40
11.0
 40
11.0
 40
11.0
 40
12.0
 40
12.0
 40
12.0
 40
13.0
 40
13.0
 40
13.0
 40
14.0
 40
14.0
 40
14.0
 40
15.0
 40
15.0
 40
15.0
 40
16.0
 40
16.0
 40
16.0
 40
17.0
 40
17.0
 40
17.0
 40
18.0
 40
18.0
 40
18.0
 40
19.0
 40
19.0
 40
19.0
 40
20.0
 40
20.0
 40
20.0
 40
21.0
 40
21.0
 40
21.0
 40
22.0
 40
22.0
 40
22.0
 40
23.0
 40
23.0
 40
23.0
 40
24.0
 40
24.0
 40
24.0
 40
25.0
 40
25.0
 40
25.0
 40
26.0
 40
26.0
 40
26.0
 40
27.0
 40
27.0
 40
27.0
 40
28.0
 40
28.0
 40
28.0
 40
29.0
 40
29.0
 40
29.0
 40
30.0
 40
30.0
 40
30.0
 40
31.0
 40
31.0
 40
31.0
 40
32.0
 40
32.0
 40
32.0
 40
33.0
 40
33.0
 40
33.0
 40
34.0
 40
34.0
 40
34.0
 40
35.0
 40
35.0
 40
35.0
 40
36.0
 40
36.0
 40
36.0
 40
37.0
 40
37.0
 40
37.0
 40
38.0
 40
38.0
 40
38.0
 40
39.0
 40
39.0
 40
39.0
 40
40.0
 40
40.0
 40
40.0
 40
41.0
 40
41.0
 40
41.0
 40
42.0
 40
42.0
 40
42.0
 40
43.0
 40
43.0
 40
43.0
 40
44.0
 40
44.0
 40
44.0
 40
45.0
 40
45.0
 40
45.0
 40
46.0
 40
46.0
 40
46.0
 40
47.0
 40
47.0
 40
47.0
 40
48.0
 40
48.0
 40
48.0
 40
49.0
 40
49.0
 40
49.0
 40
50.0
 40
50.0
 40
50.0
 40
51.0
 40
51.0
 40
51.0
 40
52.0
 40
52.0
 40
52.0
 40
53.0
 40
53.0
 40
53.0
 40
53.0
 10
4.354953342013888
 20
-5.180291069878472
 30
0.0
 10
4.2852783203125
 20
-5.196370442708333
 30
0.0
 10
4.234592013888888
 20
-5.181287977430555
 30
0.0
 10
4.186292860243055
 20
-5.132744683159722
 30
0.0
 10
4.186292860243055
 20
-5.073649088541666
 30
0.0
 10
4.186292860243055
 20
-5.010294596354166
 30
0.0
 10
4.186292860243055
 20
-4.940388997395833
 30
0.0
 10
4.200534396701388
 20
-4.923414442274305
 30
0.0
 10
4.218736436631945
 20
-4.901706271701388
 30
0.0
 10
4.237006293402778
 20
-4.8800048828125
 30
0.0
 10
4.235975477430555
 20
-4.874070909288194
 30
0.0
 10
4.23486328125
 20
-4.868136935763888
 30
0.0
 10
4.233859592013888
 20
-4.862189398871528
 30
0.0
 10
4.219482421875
 20
-4.7772216796875
 30
0.0
 10
4.214369032118055
 20
-4.695610894097222
 30
0.0
 10
4.266140407986111
 20
-4.616970486111111
 30
0.0
 10
4.308485243055555
 20
-4.552639431423611
 30
0.0
 10
4.338460286458333
 20
-4.480292426215278
 30
0.0
 10
4.376668294270833
 20
-4.413079155815972
 30
0.0
 10
4.390163845486111
 20
-4.389302571614583
 30
0.0
 10
4.411756727430555
 20
-4.370151095920138
 30
0.0
 10
4.433620876736111
 20
-4.344190809461805
 30
0.0
 10
4.507853190104166
 20
-4.40435791015625
 30
0.0
 10
4.527777777777778
 20
-4.478305392795138
 30
0.0
 10
4.520589192708333
 20
-4.569919162326388
 30
0.0
 10
4.561957465277778
 20
-4.501397026909722
 30
0.0
 10
4.618910047743055
 20
-4.486619737413194
 30
0.0
 10
4.689520941840278
 20
-4.47552490234375
 30
0.0
 10
4.7515869140625
 20
-4.465772840711805
 30
0.0
 10
4.810479058159722
 20
-4.421034071180555
 30
0.0
 10
4.865261501736111
 20
-4.383673773871528
 30
0.0
 10
4.920383029513888
 20
-4.346103244357638
 30
0.0
 10
4.968709309895833
 20
-4.298570421006945
 30
0.0
 10
5.022840711805555
 20
-4.253031412760416
 30
0.0
 10
5.008707682291666
 20
-4.24285888671875
 30
0.0
 10
4.998508029513888
 20
-4.230088975694445
 30
0.0
 10
4.986124674479166
 20
-4.227457682291666
 30
0.0
 10
4.857598198784722
 20
-4.200120713975695
 30
0.0
 10
4.728759765625
 20
-4.192138671875
 30
0.0
 10
4.599650065104166
 20
-4.225613064236111
 30
0.0
 10
4.566026475694444
 20
-4.234320746527778
 30
0.0
 10
4.530409071180555
 20
-4.236185709635416
 30
0.0
 10
4.497612847222222
 20
-4.247049967447916
 30
0.0
 10
4.403428819444445
 20
-4.278238932291666
 30
0.0
 10
4.308485243055555
 20
-4.309780544704861
 30
0.0
 10
4.261935763888888
 20
-4.414462619357638
 30
0.0
 10
4.192464192708333
 20
-4.4078369140625
 30
0.0
 10
4.126017252604166
 20
-4.429226345486111
 30
0.0
 10
4.06072998046875
 20
-4.395677354600695
 30
0.0
 10
4.045050726996528
 20
-4.387620713975695
 30
0.0
 10
4.017903645833333
 20
-4.393697102864583
 30
0.0
 10
3.999131944444444
 20
-4.401116265190972
 30
0.0
 10
3.877956814236111
 20
-4.449083116319444
 30
0.0
 10
3.758884006076389
 20
-4.501132541232638
 30
0.0
 10
3.657172309027778
 20
-4.585944281684028
 30
0.0
 10
3.633470323350694
 20
-4.605692545572916
 30
0.0
 10
3.603366427951389
 20
-4.617757161458333
 30
0.0
 10
3.570895724826389
 20
-4.636427137586805
 30
0.0
 10
3.53326416015625
 20
-4.613694932725694
 30
0.0
 10
3.497531467013889
 20
-4.592115614149305
 30
0.0
 10
3.45947265625
 20
-4.569112141927083
 30
0.0
 10
3.363186306423611
 20
-4.606709798177083
 30
0.0
 10
3.349093967013889
 20
-4.625569661458333
 30
0.0
 10
3.347588433159722
 20
-4.727986653645833
 30
0.0
 10
3.346591525607639
 20
-4.795803493923611
 30
0.0
 10
3.346774631076389
 20
-4.8636474609375
 30
0.0
 10
3.346849229600694
 20
-4.931491427951388
 30
0.0
 10
3.346971299913194
 20
-5.044297960069444
 30
0.0
 10
3.315599229600694
 20
-5.077317979600694
 30
0.0
 10
3.204732259114583
 20
-5.079800075954861
 30
0.0
 10
3.194146050347222
 20
-5.080037434895833
 30
0.0
 10
3.183505588107639
 20
-5.078606499565972
 30
0.0
 10
3.174140082465278
 20
-5.078016493055555
 30
0.0
 10
3.062839084201389
 20
-5.010355631510416
 30
0.0
 10
3.058498806423611
 20
-4.8902587890625
 30
0.0
 10
3.02703857421875
 20
-4.784138997395833
 30
0.0
 10
3.0234375
 20
-4.772013346354166
 30
0.0
 10
3.027716742621528
 20
-4.755689832899305
 30
0.0
 10
3.032816569010417
 20
-4.743130154079861
 30
0.0
 10
3.0775146484375
 20
-4.632941351996528
 30
0.0
 10
3.120890299479167
 20
-4.522081163194444
 30
0.0
 10
3.170023600260417
 20
-4.413872612847222
 30
0.0
 10
3.184760199652778
 20
-4.381435818142361
 30
0.0
 10
3.216362847222222
 20
-4.356648763020833
 30
0.0
 10
3.242526584201389
 20
-4.325636121961805
 30
0.0
 10
3.324795193142361
 20
-4.389071994357638
 30
0.0
 10
3.313164605034722
 20
-4.488471137152778
 30
0.0
 10
3.366407606336805
 20
-4.575670030381944
 30
0.0
 10
3.3797607421875
 20
-4.531487358940972
 30
0.0
 10
3.388522677951389
 20
-4.502529568142361
 30
0.0
 10
3.400648328993055
 20
-4.462409125434028
 30
0.0
 10
3.593953450520833
 20
-4.401373969184028
 30
0.0
 10
3.792270236545139
 20
-4.326307508680555
 30
0.0
 10
4.021253797743055
 20
-4.2940673828125
 30
0.0
 10
3.967529296875
 20
-4.218505859375
 30
0.0
 10
3.9227294921875
 20
-4.155463324652778
 30
0.0
 10
3.877956814236111
 20
-4.092481825086805
 30
0.0
 10
3.945109049479167
 20
-4.00860595703125
 30
0.0
 10
4.021986219618055
 20
-3.951273600260417
 30
0.0
 10
4.120388454861111
 20
-3.969991048177083
 30
0.0
 10
4.240627712673611
 20
-3.992872450086805
 30
0.0
 10
4.333984375
 20
-4.061191134982638
 30
0.0
 10
4.364162868923611
 20
-4.199089898003472
 30
0.0
 10
4.637464735243055
 20
-4.127916124131945
 30
0.0
 10
4.913289388020833
 20
-4.1182861328125
 30
0.0
 10
5.211927625868055
 20
-4.17156982421875
 30
0.0
 10
5.239407009548611
 20
-4.193759494357638
 30
0.0
 10
5.290120442708333
 20
-4.227627224392361
 30
0.0
 10
5.332044813368055
 20
-4.270155164930555
 30
0.0
 10
5.402452256944444
 20
-4.341545952690972
 30
0.0
 10
5.400716145833333
 20
-4.39703369140625
 30
0.0
 10
5.332316080729166
 20
-4.475273980034722
 30
0.0
 10
5.237548828125
 20
-4.499688042534722
 30
0.0
 10
5.156751844618055
 20
-4.412095811631945
 30
0.0
 10
5.057305230034722
 20
-4.434054904513888
 30
0.0
 10
4.968166775173611
 20
-4.453742133246528
 30
0.0
 10
4.876030815972222
 20
-4.459791395399305
 30
0.0
 10
4.766370985243055
 20
-4.474358452690972
 30
0.0
 10
4.823513454861111
 20
-4.506110297309028
 30
0.0
 10
4.879625108506944
 20
-4.52410888671875
 30
0.0
 10
4.864637586805555
 20
-4.595954047309028
 30
0.0
 10
4.824774848090278
 20
-4.648790147569444
 30
0.0
 10
4.755276150173611
 20
-4.640028211805555
 30
0.0
 10
4.694186740451388
 20
-4.659294976128472
 30
0.0
 10
4.626491970486111
 20
-4.81597900390625
 30
0.0
 10
4.631551106770833
 20
-4.982272677951388
 30
0.0
 10
4.632744683159722
 20
-5.144002278645833
 30
0.0
 10
4.603651258680555
 20
-5.185472276475694
 30
0.0
 10
4.581271701388888
 20
-5.227810329861111
 30
0.0
 10
4.528238932291666
 20
-5.229295518663194
 30
0.0
 10
4.432223849826388
 20
-5.136271158854166
 30
0.0
 10
4.413492838541666
 20
-5.024319118923611
 30
0.0
 10
4.464518229166666
 20
-4.911532931857638
 30
0.0
 10
4.485080295138888
 20
-4.866075303819444
 30
0.0
 10
4.490424262152778
 20
-4.813727484809028
 30
0.0
 10
4.504448784722222
 20
-4.757588704427083
 30
0.0
 10
4.419867621527778
 20
-4.769843207465278
 30
0.0
 10
4.384060329861111
 20
-4.8424072265625
 30
0.0
 10
4.318956163194445
 20
-4.8638916015625
 30
0.0
 10
4.316121419270833
 20
-4.877739800347222
 30
0.0
 10
4.311686197916666
 20
-4.888034396701388
 30
0.0
 10
4.312662760416666
 20
-4.897793240017361
 30
0.0
 10
4.313639322916666
 20
-4.907368977864583
 30
0.0
 10
4.320068359375
 20
-4.916388617621528
 30
0.0
 10
4.324598524305555
 20
-4.926832411024305
 30
0.0
 10
4.345920138888888
 20
-4.919657389322916
 30
0.0
 10
4.365234375
 20
-4.913174099392361
 30
0.0
 10
4.387234157986111
 20
-4.905788845486111
 30
0.0
 10
4.391248914930555
 20
-4.917765299479166
 30
0.0
 10
4.396511501736111
 20
-4.927015516493055
 30
0.0
 10
4.396986219618055
 20
-4.936509874131944
 30
0.0
 10
4.397623697916666
 20
-4.95050048828125
 30
0.0
 10
4.397488064236111
 20
-4.965610080295138
 30
0.0
 10
4.393012152777778
 20
-4.978630913628472
 30
0.0
 10
4.381727430555555
 20
-5.011589898003472
 30
0.0
 10
4.363267686631945
 20
-5.042738172743055
 30
0.0
 10
4.356309678819445
 20
-5.076395670572916
 30
0.0
 10
4.3499755859375
 20
-5.107014973958333
 30
0.0
 10
4.354953342013888
 20
-5.139973958333333
 30
0.0
 10
4.354953342013888
 20
-5.180291069878472
 30
0.0
  0
SPLINE
  5
44
330
3C
100
AcDbEntity
  8
LAYER_1
 62
     7
100
AcDbSpline
210
0.0
220
0.0
230
1.0
 70
    11
 71
     3
 72
    65
 73
    61
 74
     0
 42
0.0000000001
 43
0.0000000001
 40
0.0
 40
0.0
 40
0.0
 40
0.0
 40
1.0
 40
1.0
 40
1.0
 40
2.0
 40
2.0
 40
2.0
 40
3.0
 40
3.0
 40
3.0
 40
4.0
 40
4.0
 40
4.0
 40
5.0
 40
5.0
 40
5.0
 40
6.0
 40
6.0
 40
6.0
 40
7.0
 40
7.0
 40
7.0
 40
8.0
 40
8.0
 40
8.0
 40
9.0
 40
9.0
 40
9.0
 40
10.0
 40
10.0
 40
10.0
 40
11.0
 40
11.0
 40
11.0
 40
12.0
 40
12.0
 40
12.0
 40
13.0
 40
13.0
 40
13.0
 40
14.0
 40
14.0
 40
14.0
 40
15.0
 40
15.0
 40
15.0
 40
16.0
 40
16.0
 40
16.0
 40
17.0
 40
17.0
 40
17.0
 40
18.0
 40
18.0
 40
18.0
 40
19.0
 40
19.0
 40
19.0
 40
20.0
 40
20.0
 40
20.0
 40
20.0
 10
3.489990234375
 20
-5.094590928819444
 30
0.0
 10
3.517510308159722
 20
-5.072808159722222
 30
0.0
 10
3.539401584201389
 20
-5.041042751736111
 30
0.0
 10
3.560560438368055
 20
-5.041531032986111
 30
0.0
 10
3.617228190104167
 20
-5.0428466796875
 30
0.0
 10
3.648078070746528
 20
-4.997531467013888
 30
0.0
 10
3.694179958767361
 20
-4.982354058159722
 30
0.0
 10
3.742947048611111
 20
-4.96630859375
 30
0.0
 10
3.765109592013889
 20
-4.928799099392361
 30
0.0
 10
3.773980034722222
 20
-4.8729248046875
 30
0.0
 10
3.653476291232639
 20
-4.918870713975694
 30
0.0
 10
3.590752495659722
 20
-4.852776421440972
 30
0.0
 10
3.541368272569444
 20
-4.751044379340278
 30
0.0
 10
3.645636664496528
 20
-4.689344618055555
 30
0.0
 10
3.748162163628472
 20
-4.622890896267361
 30
0.0
 10
3.856330023871528
 20
-4.567423502604166
 30
0.0
 10
3.901048448350694
 20
-4.544487847222222
 30
0.0
 10
3.957851833767361
 20
-4.545111762152778
 30
0.0
 10
4.003282335069445
 20
-4.536180284288194
 30
0.0
 10
4.066134982638888
 20
-4.599100748697916
 30
0.0
 10
4.068793402777778
 20
-4.615166558159722
 30
0.0
 10
4.031826443142361
 20
-4.677259657118055
 30
0.0
 10
4.001980251736111
 20
-4.727369520399305
 30
0.0
 10
3.971733940972222
 20
-4.7772216796875
 30
0.0
 10
3.939751519097222
 20
-4.83038330078125
 30
0.0
 10
3.998297797309028
 20
-4.843743218315972
 30
0.0
 10
4.04486083984375
 20
-4.854390462239583
 30
0.0
 10
4.093960232204861
 20
-4.8656005859375
 30
0.0
 10
4.093960232204861
 20
-4.901529947916666
 30
0.0
 10
4.093960232204861
 20
-4.929036458333333
 30
0.0
 10
4.093960232204861
 20
-4.963114420572916
 30
0.0
 10
4.041815863715278
 20
-4.995829264322916
 30
0.0
 10
3.9837646484375
 20
-5.031324598524305
 30
0.0
 10
3.9710693359375
 20
-5.113979763454861
 30
0.0
 10
4.002054850260416
 20
-5.118177625868055
 30
0.0
 10
4.034613715277778
 20
-5.122585720486111
 30
0.0
 10
4.070651584201388
 20
-5.127468532986111
 30
0.0
 10
4.095567491319445
 20
-5.156697591145833
 30
0.0
 10
4.138888888888888
 20
-5.175428602430555
 30
0.0
 10
4.141411675347222
 20
-5.233072916666666
 30
0.0
 10
4.072733561197916
 20
-5.303541395399305
 30
0.0
 10
3.969211154513889
 20
-5.311550564236111
 30
0.0
 10
3.884616427951389
 20
-5.356072319878472
 30
0.0
 10
3.798563639322917
 20
-5.401353624131944
 30
0.0
 10
3.704786512586805
 20
-5.431979709201388
 30
0.0
 10
3.613030327690972
 20
-5.469577365451388
 30
0.0
 10
3.572435167100694
 20
-5.446723090277778
 30
0.0
 10
3.520439995659722
 20
-5.443264431423611
 30
0.0
 10
3.514872233072917
 20
-5.37579345703125
 30
0.0
 10
3.577629937065972
 20
-5.310709635416666
 30
0.0
 10
3.6956787109375
 20
-5.2923583984375
 30
0.0
 10
3.709540473090278
 20
-5.174838595920138
 30
0.0
 10
3.675245496961805
 20
-5.151455349392361
 30
0.0
 10
3.663553873697917
 20
-5.194057888454861
 30
0.0
 10
3.639906141493055
 20
-5.199985080295138
 30
0.0
 10
3.617180718315972
 20
-5.205681694878472
 30
0.0
 10
3.5927734375
 20
-5.204630533854166
 30
0.0
 10
3.570014105902778
 20
-5.206475151909722
 30
0.0
 10
3.544114854600694
 20
-5.170254177517361
 30
0.0
 10
3.521735297309028
 20
-5.138956705729166
 30
0.0
 10
3.489990234375
 20
-5.094590928819444
 30
0.0
  0
SPLINE
  5
45
330
3C
100
AcDbEntity
  8
LAYER_1
 62
     7
100
AcDbSpline
210
0.0
220
0.0
230
1.0
 70
    11
 71
     3
 72
    20
 73
    16
 74
     0
 42
0.0000000001
 43
0.0000000001
 40
0.0
 40
0.0
 40
0.0
 40
0.0
 40
1.0
 40
1.0
 40
1.0
 40
2.0
 40
2.0
 40
2.0
 40
3.0
 40
3.0
 40
3.0
 40
4.0
 40
4.0
 40
4.0
 40
5.0
 40
5.0
 40
5.0
 40
5.0
 10
2.50653076171875
 20
-5.085951063368055
 30
0.0
 10
2.541395399305555
 20
-5.047960069444444
 30
0.0
 10
2.578301323784722
 20
-5.025722927517361
 30
0.0
 10
2.615987141927083
 20
-5.040323893229166
 30
0.0
 10
2.701700846354167
 20
-5.073567708333333
 30
0.0
 10
2.809495713975694
 20
-5.056633843315972
 30
0.0
 10
2.874586317274305
 20
-5.156032986111111
 30
0.0
 10
2.869879828559028
 20
-5.226609971788194
 30
0.0
 10
2.901082356770833
 20
-5.309712727864583
 30
0.0
 10
2.837924533420139
 20
-5.377543131510416
 30
0.0
 10
2.802910698784722
 20
-5.377543131510416
 30
0.0
 10
2.771314832899305
 20
-5.377543131510416
 30
0.0
 10
2.735833062065972
 20
-5.377543131510416
 30
0.0
 10
2.673333062065972
 20
-5.271430121527778
 30
0.0
 10
2.556769476996528
 20
-5.208597819010416
 30
0.0
 10
2.50653076171875
 20
-5.085951063368055
 30
0.0
  0
SPLINE
  5
46
330
3C
100
AcDbEntity
  8
LAYER_1
 62
     7
100
AcDbSpline
210
0.0
220
0.0
230
1.0
 70
    11
 71
     3
 72
    23
 73
    19
 74
     0
 42
0.0000000001
 43
0.0000000001
 40
0.0
 40
0.0
 40
0.0
 40
0.0
 40
1.0
 40
1.0
 40
1.0
 40
2.0
 40
2.0
 40
2.0
 40
3.0
 40
3.0
 40
3.0
 40
4.0
 40
4.0
 40
4.0
 40
5.0
 40
5.0
 40
5.0
 40
6.0
 40
6.0
 40
6.0
 40
6.0
 10
4.723578559027778
 20
-4.747219509548611
 30
0.0
 10
4.72998046875
 20
-4.735670301649305
 30
0.0
 10
4.739990234375
 20
-4.717542860243055
 30
0.0
 10
4.752088758680555
 20
-4.695610894097222
 30
0.0
 10
4.774549696180555
 20
-4.695610894097222
 30
0.0
 10
4.798502604166666
 20
-4.695610894097222
 30
0.0
 10
4.824869791666666
 20
-4.695610894097222
 30
0.0
 10
4.960734049479166
 20
-4.800713433159722
 30
0.0
 10
4.970838758680555
 20
-4.814581976996528
 30
0.0
 10
5.014811197916666
 20
-4.957166883680555
 30
0.0
 10
4.984266493055555
 20
-5.024997287326388
 30
0.0
 10
4.923895941840278
 20
-5.02130126953125
 30
0.0
 10
4.868245442708333
 20
-5.011440700954861
 30
0.0
 10
4.807169596354166
 20
-5.0006103515625
 30
0.0
 10
4.775743272569444
 20
-4.954108344184028
 30
0.0
 10
4.762071397569444
 20
-4.894599066840278
 30
0.0
 10
4.751220703125
 20
-4.847310384114583
 30
0.0
 10
4.7376708984375
 20
-4.800645616319444
 30
0.0
 10
4.723578559027778
 20
-4.747219509548611
 30
0.0
  0
SPLINE
  5
47
330
3C
100
AcDbEntity
  8
LAYER_1
 62
     7
100
AcDbSpline
210
0.0
220
0.0
230
1.0
 70
    11
 71
     3
 72
   167
 73
   163
 74
     0
 42
0.0000000001
 43
0.0000000001
 40
0.0
 40
0.0
 40
0.0
 40
0.0
 40
1.0
 40
1.0
 40
1.0
 40
2.0
 40
2.0
 40
2.0
 40
3.0
 40
3.0
 40
3.0
 40
4.0
 40
4.0
 40
4.0
 40
5.0
 40
5.0
 40
5.0
 40
6.0
 40
6.0
 40
6.0
 40
7.0
 40
7.0
 40
7.0
 40
8.0
 40
8.0
 40
8.0
 40
9.0
 40
9.0
 40
9.0
 40
10.0
 40
10.0
 40
10.0
 40
11.0
 40
11.0
 40
11.0
 40
12.0
 40
12.0
 40
12.0
 40
13.0
 40
13.0
 40
13.0
 40
14.0
 40
14.0
 40
14.0
 40
15.0
 40
15.0
 40
15.0
 40
16.0
 40
16.0
 40
16.0
 40
17.0
 40
17.0
 40
17.0
 40
18.0
 40
18.0
 40
18.0
 40
19.0
 40
19.0
 40
19.0
 40
20.0
 40
20.0
 40
20.0
 40
21.0
 40
21.0
 40
21.0
 40
22.0
 40
22.0
 40
22.0
 40
23.0
 40
23.0
 40
23.0
 40
24.0
 40
24.0
 40
24.0
 40
25.0
 40
25.0
 40
25.0
 40
26.0
 40
26.0
 40
26.0
 40
27.0
 40
27.0
 40
27.0
 40
28.0
 40
28.0
 40
28.0
 40
29.0
 40
29.0
 40
29.0
 40
30.0
 40
30.0
 40
30.0
 40
31.0
 40
31.0
 40
31.0
 40
32.0
 40
32.0
 40
32.0
 40
33.0
 40
33.0
 40
33.0
 40
34.0
 40
34.0
 40
34.0
 40
35.0
 40
35.0
 40
35.0
 40
36.0
 40
36.0
 40
36.0
 40
37.0
 40
37.0
 40
37.0
 40
38.0
 40
38.0
 40
38.0
 40
39.0
 40
39.0
 40
39.0
 40
40.0
 40
40.0
 40
40.0
 40
41.0
 40
41.0
 40
41.0
 40
42.0
 40
42.0
 40
42.0
 40
43.0
 40
43.0
 40
43.0
 40
44.0
 40
44.0
 40
44.0
 40
45.0
 40
45.0
 40
45.0
 40
46.0
 40
46.0
 40
46.0
 40
47.0
 40
47.0
 40
47.0
 40
48.0
 40
48.0
 40
48.0
 40
49.0
 40
49.0
 40
49.0
 40
50.0
 40
50.0
 40
50.0
 40
51.0
 40
51.0
 40
51.0
 40
52.0
 40
52.0
 40
52.0
 40
53.0
 40
53.0
 40
53.0
 40
54.0
 40
54.0
 40
54.0
 40
54.0
 10
4.326551649305555
 20
-6.260810004340278
 30
0.0
 10
4.326551649305555
 20
-6.198662651909722
 30
0.0
 10
4.327799479166666
 20
-6.141669379340278
 30
0.0
 10
4.326199001736111
 20
-6.084743923611111
 30
0.0
 10
4.324801974826388
 20
-6.035617404513888
 30
0.0
 10
4.367838541666666
 20
-5.986355251736111
 30
0.0
 10
4.325927734375
 20
-5.937445746527778
 30
0.0
 10
4.361409505208333
 20
-5.860460069444444
 30
0.0
 10
4.334716796875
 20
-5.776177300347222
 30
0.0
 10
4.352484809027778
 20
-5.698540581597222
 30
0.0
 10
4.370998806423611
 20
-5.617540147569444
 30
0.0
 10
4.373819986979166
 20
-5.541029188368055
 30
0.0
 10
4.352783203125
 20
-5.460483127170138
 30
0.0
 10
4.341525607638888
 20
-5.417446560329861
 30
0.0
 10
4.34619140625
 20
-5.370259602864583
 30
0.0
 10
4.343478732638888
 20
-5.321946885850694
 30
0.0
 10
4.255805121527778
 20
-5.342264811197916
 30
0.0
 10
4.171793619791666
 20
-5.354058159722222
 30
0.0
 10
4.119778103298611
 20
-5.432203504774305
 30
0.0
 10
4.093892415364583
 20
-5.4281005859375
 30
0.0
 10
4.070848253038195
 20
-5.424431694878472
 30
0.0
 10
4.037183973524305
 20
-5.419087727864583
 30
0.0
 10
4.097330729166666
 20
-5.326958550347222
 30
0.0
 10
4.169243706597222
 20
-5.272847493489583
 30
0.0
 10
4.267971462673611
 20
-5.25640869140625
 30
0.0
 10
4.278428819444445
 20
-5.254659016927083
 30
0.0
 10
4.291707356770833
 20
-5.259908040364583
 30
0.0
 10
4.2998046875
 20
-5.255215115017361
 30
0.0
 10
4.3895263671875
 20
-5.203179253472222
 30
0.0
 10
4.450141059027778
 20
-5.263448079427083
 30
0.0
 10
4.520616319444444
 20
-5.308519151475694
 30
0.0
 10
4.520616319444444
 20
-5.3973388671875
 30
0.0
 10
4.520616319444444
 20
-5.485541449652778
 30
0.0
 10
4.520616319444444
 20
-5.588514539930555
 30
0.0
 10
4.619249131944444
 20
-5.539076063368055
 30
0.0
 10
4.707139756944444
 20
-5.495015462239583
 30
0.0
 10
4.795979817708333
 20
-5.450466579861111
 30
0.0
 10
4.806532118055555
 20
-5.322231716579861
 30
0.0
 10
4.816609700520833
 20
-5.199632432725694
 30
0.0
 10
4.827351888020833
 20
-5.068874782986111
 30
0.0
 10
4.863199869791666
 20
-5.052775065104166
 30
0.0
 10
4.900390625
 20
-5.053514268663194
 30
0.0
 10
4.920193142361111
 20
-5.086886935763888
 30
0.0
 10
4.913194444444444
 20
-5.182956271701388
 30
0.0
 10
4.907063802083333
 20
-5.266818576388888
 30
0.0
 10
4.900987413194444
 20
-5.349833170572916
 30
0.0
 10
4.991495768229166
 20
-5.370822482638888
 30
0.0
 10
5.004625108506944
 20
-5.362962510850694
 30
0.0
 10
5.0374755859375
 20
-5.292860243055555
 30
0.0
 10
5.077039930555555
 20
-5.20849609375
 30
0.0
 10
5.117879231770833
 20
-5.125142415364583
 30
0.0
 10
5.145467122395833
 20
-5.035542805989583
 30
0.0
 10
5.151123046875
 20
-5.017239040798611
 30
0.0
 10
5.179524739583333
 20
-5.005940755208333
 30
0.0
 10
5.196004231770833
 20
-4.992587619357638
 30
0.0
 10
5.308702256944444
 20
-5.081644694010416
 30
0.0
 10
5.333292643229166
 20
-5.147610134548611
 30
0.0
 10
5.295681423611111
 20
-5.245869954427083
 30
0.0
 10
5.361111111111111
 20
-5.286960177951388
 30
0.0
 10
5.452528211805555
 20
-5.304721408420138
 30
0.0
 10
5.445421006944444
 20
-5.407870822482638
 30
0.0
 10
5.379625108506944
 20
-5.485263400607638
 30
0.0
 10
5.316080729166666
 20
-5.560004340277778
 30
0.0
 10
5.252237955729166
 20
-5.6351318359375
 30
0.0
 10
5.28564453125
 20
-5.654242621527778
 30
0.0
 10
5.306952582465278
 20
-5.6376953125
 30
0.0
 10
5.330308702256944
 20
-5.618625217013888
 30
0.0
 10
5.42333984375
 20
-5.542588975694444
 30
0.0
 10
5.482679578993055
 20
-5.5469970703125
 30
0.0
 10
5.57080078125
 20
-5.634548611111111
 30
0.0
 10
5.57080078125
 20
-5.6619873046875
 30
0.0
 10
5.57080078125
 20
-5.689968532986111
 30
0.0
 10
5.57080078125
 20
-5.694485134548611
 30
0.0
 10
5.502861870659722
 20
-5.801920572916666
 30
0.0
 10
5.446384006076388
 20
-5.891140407986111
 30
0.0
 10
5.389851888020833
 20
-5.980550130208333
 30
0.0
 10
5.426527235243055
 20
-6.004014756944444
 30
0.0
 10
5.483629014756944
 20
-6.017198350694444
 30
0.0
 10
5.501356336805555
 20
-6.079074435763888
 30
0.0
 10
5.511867947048611
 20
-6.115804036458333
 30
0.0
 10
5.506591796875
 20
-6.149726019965278
 30
0.0
 10
5.471706814236111
 20
-6.156534830729166
 30
0.0
 10
5.419080946180555
 20
-6.166788736979166
 30
0.0
 10
5.368435329861111
 20
-6.200344509548611
 30
0.0
 10
5.309190538194444
 20
-6.168850368923611
 30
0.0
 10
5.283555772569444
 20
-6.155178493923611
 30
0.0
 10
5.246975368923611
 20
-6.162773980034722
 30
0.0
 10
5.215603298611111
 20
-6.158867730034722
 30
0.0
 10
5.1956787109375
 20
-6.156399197048611
 30
0.0
 10
5.176174587673611
 20
-6.150458441840278
 30
0.0
 10
5.149441189236111
 20
-6.144490559895833
 30
0.0
 10
5.151611328125
 20
-6.143296983506944
 30
0.0
 10
5.145114474826388
 20
-6.145331488715278
 30
0.0
 10
5.140814887152778
 20
-6.149563259548611
 30
0.0
 10
5.053358289930555
 20
-6.235636393229166
 30
0.0
 10
5.00830078125
 20
-6.225029839409721
 30
0.0
 10
4.976847330729166
 20
-6.108506944444444
 30
0.0
 10
4.969618055555555
 20
-6.081705729166666
 30
0.0
 10
4.973307291666666
 20
-6.052191840277778
 30
0.0
 10
4.969482421875
 20
-6.024251302083333
 30
0.0
 10
4.960164388020833
 20
-5.956488715277778
 30
0.0
 10
4.949395073784722
 20
-5.888916015625
 30
0.0
 10
4.938856336805555
 20
-5.819146050347222
 30
0.0
 10
5.016899956597222
 20
-5.775743272569444
 30
0.0
 10
5.079481336805555
 20
-5.706610785590278
 30
0.0
 10
5.124715169270833
 20
-5.625013563368055
 30
0.0
 10
5.1470947265625
 20
-5.584608289930555
 30
0.0
 10
5.175550672743055
 20
-5.549492730034722
 30
0.0
 10
5.198527018229166
 20
-5.510443793402778
 30
0.0
 10
5.223008897569444
 20
-5.468817816840278
 30
0.0
 10
5.244791666666666
 20
-5.425001356336805
 30
0.0
 10
5.262030707465278
 20
-5.379957411024305
 30
0.0
 10
5.2711181640625
 20
-5.356187608506944
 30
0.0
 10
5.267998589409722
 20
-5.327752007378472
 30
0.0
 10
5.271484375
 20
-5.289638943142361
 30
0.0
 10
5.190171983506944
 20
-5.329976399739583
 30
0.0
 10
5.1807861328125
 20
-5.409200032552083
 30
0.0
 10
5.131198459201388
 20
-5.457139756944444
 30
0.0
 10
5.083902994791666
 20
-5.50286865234375
 30
0.0
 10
5.036973741319444
 20
-5.545111762152778
 30
0.0
 10
4.975965711805555
 20
-5.576022677951388
 30
0.0
 10
4.971652560763888
 20
-5.547498914930555
 30
0.0
 10
4.9676513671875
 20
-5.520846896701388
 30
0.0
 10
4.961466471354166
 20
-5.480129665798611
 30
0.0
 10
4.928941514756944
 20
-5.508090549045138
 30
0.0
 10
4.906060112847222
 20
-5.527750651041666
 30
0.0
 10
4.885077582465278
 20
-5.5457763671875
 30
0.0
 10
4.885077582465278
 20
-5.647542317708333
 30
0.0
 10
4.882703993055555
 20
-5.744222005208333
 30
0.0
 10
4.885972764756944
 20
-5.840738932291666
 30
0.0
 10
4.887871636284722
 20
-5.896240234375
 30
0.0
 10
4.898640950520833
 20
-5.951470269097222
 30
0.0
 10
4.9058837890625
 20
-6.006727430555555
 30
0.0
 10
4.913153754340278
 20
-6.062093098958333
 30
0.0
 10
4.9110107421875
 20
-6.117268880208333
 30
0.0
 10
4.921549479166666
 20
-6.173841688368055
 30
0.0
 10
4.938897026909722
 20
-6.266777886284721
 30
0.0
 10
4.954684787326388
 20
-6.374905056423611
 30
0.0
 10
4.844075520833333
 20
-6.437811957465278
 30
0.0
 10
4.746419270833333
 20
-6.372328016493055
 30
0.0
 10
4.649305555555555
 20
-6.307142469618055
 30
0.0
 10
4.550021701388888
 20
-6.240573459201388
 30
0.0
 10
4.537611219618055
 20
-6.281995985243055
 30
0.0
 10
4.527723524305555
 20
-6.314900716145833
 30
0.0
 10
4.516615125868055
 20
-6.351955837673611
 30
0.0
 10
4.540581597222222
 20
-6.394571940104166
 30
0.0
 10
4.577623155381944
 20
-6.431165907118055
 30
0.0
 10
4.587836371527778
 20
-6.486423068576388
 30
0.0
 10
4.594075520833333
 20
-6.5201416015625
 30
0.0
 10
4.609239366319444
 20
-6.549329969618055
 30
0.0
 10
4.597629123263888
 20
-6.586032443576388
 30
0.0
 10
4.585584852430555
 20
-6.624091254340278
 30
0.0
 10
4.552435980902778
 20
-6.634290907118055
 30
0.0
 10
4.525607638888888
 20
-6.653225368923611
 30
0.0
 10
4.518527560763888
 20
-6.651624891493055
 30
0.0
 10
4.510470920138888
 20
-6.652086046006944
 30
0.0
 10
4.505452473958333
 20
-6.648342556423611
 30
0.0
 10
4.351128472222222
 20
-6.533650716145833
 30
0.0
 10
4.320027669270833
 20
-6.490627712673611
 30
0.0
 10
4.238335503472222
 20
-6.276814778645833
 30
0.0
 10
4.265068901909722
 20
-6.271931966145833
 30
0.0
 10
4.290337456597222
 20
-6.267374674479166
 30
0.0
 10
4.326551649305555
 20
-6.260810004340278
 30
0.0
  0
SPLINE
  5
48
330
3C
100
AcDbEntity
  8
LAYER_1
 62
     7
100
AcDbSpline
210
0.0
220
0.0
230
1.0
 70
    11
 71
     3
 72
    23
 73
    19
 74
     0
 42
0.0000000001
 43
0.0000000001
 40
0.0
 40
0.0
 40
0.0
 40
0.0
 40
1.0
 40
1.0
 40
1.0
 40
2.0
 40
2.0
 40
2.0
 40
3.0
 40
3.0
 40
3.0
 40
4.0
 40
4.0
 40
4.0
 40
5.0
 40
5.0
 40
5.0
 40
6.0
 40
6.0
 40
6.0
 40
6.0
 10
4.541056315104166
 20
-6.193752712673611
 30
0.0
 10
4.567911783854166
 20
-6.201673719618055
 30
0.0
 10
4.587497287326388
 20
-6.206637912326388
 30
0.0
 10
4.606553819444444
 20
-6.213175455729166
 30
0.0
 10
4.635647243923611
 20
-6.223185221354166
 30
0.0
 10
4.663642035590278
 20
-6.237453884548611
 30
0.0
 10
4.693413628472222
 20
-6.244099934895833
 30
0.0
 10
4.747463650173611
 20
-6.256252712673611
 30
0.0
 10
4.776394314236111
 20
-6.234551323784721
 30
0.0
 10
4.777818467881944
 20
-6.1802978515625
 30
0.0
 10
4.779866536458333
 20
-6.102891710069444
 30
0.0
 10
4.778333875868055
 20
-6.025444878472222
 30
0.0
 10
4.778333875868055
 20
-5.933620876736111
 30
0.0
 10
4.661973741319444
 20
-5.960774739583333
 30
0.0
 10
4.629692925347222
 20
-6.075656467013888
 30
0.0
 10
4.541056315104166
 20
-6.108317057291666
 30
0.0
 10
4.541056315104166
 20
-6.138197157118055
 30
0.0
 10
4.541056315104166
 20
-6.1632080078125
 30
0.0
 10
4.541056315104166
 20
-6.193752712673611
 30
0.0
  0
SPLINE
  5
49
330
3C
100
AcDbEntity
  8
LAYER_1
 62
     7
100
AcDbSpline
210
0.0
220
0.0
230
1.0
 70
    11
 71
     3
 72
    20
 73
    16
 74
     0
 42
0.0000000001
 43
0.0000000001
 40
0.0
 40
0.0
 40
0.0
 40
0.0
 40
1.0
 40
1.0
 40
1.0
 40
2.0
 40
2.0
 40
2.0
 40
3.0
 40
3.0
 40
3.0
 40
4.0
 40
4.0
 40
4.0
 40
5.0
 40
5.0
 40
5.0
 40
5.0
 10
4.5252685546875
 20
-5.711100260416666
 30
0.0
 10
4.5252685546875
 20
-5.802056206597222
 30
0.0
 10
4.5252685546875
 20
-5.881103515625
 30
0.0
 10
4.5252685546875
 20
-5.986165364583333
 30
0.0
 10
4.610853407118055
 20
-5.842529296875
 30
0.0
 10
4.683688693576388
 20
-5.721299913194444
 30
0.0
 10
4.7547607421875
 20
-5.599066840277778
 30
0.0
 10
4.760145399305555
 20
-5.589748806423611
 30
0.0
 10
4.752997504340278
 20
-5.573106553819444
 30
0.0
 10
4.751817491319444
 20
-5.561143663194444
 30
0.0
 10
4.708279079861111
 20
-5.582736545138888
 30
0.0
 10
4.665554470486111
 20
-5.598605685763888
 30
0.0
 10
4.628933376736111
 20
-5.623494466145833
 30
0.0
 10
4.588528103298611
 20
-5.650933159722222
 30
0.0
 10
4.553683810763888
 20
-5.686618381076388
 30
0.0
 10
4.5252685546875
 20
-5.711100260416666
 30
0.0
  0
SPLINE
  5
4A
330
3C
100
AcDbEntity
  8
LAYER_1
 62
     7
100
AcDbSpline
210
0.0
220
0.0
230
1.0
 70
    11
 71
     3
 72
    17
 73
    13
 74
     0
 42
0.0000000001
 43
0.0000000001
 40
0.0
 40
0.0
 40
0.0
 40
0.0
 40
1.0
 40
1.0
 40
1.0
 40
2.0
 40
2.0
 40
2.0
 40
3.0
 40
3.0
 40
3.0
 40
4.0
 40
4.0
 40
4.0
 40
4.0
 10
5.345404730902778
 20
-5.719373914930555
 30
0.0
 10
5.221015082465278
 20
-5.765326605902778
 30
0.0
 10
5.126410590277778
 20
-5.815809461805555
 30
0.0
 10
5.049045138888888
 20
-5.903021918402778
 30
0.0
 10
5.076863606770833
 20
-5.969455295138888
 30
0.0
 10
5.102674696180555
 20
-6.031087239583333
 30
0.0
 10
5.131049262152778
 20
-6.098931206597222
 30
0.0
 10
5.142903645833333
 20
-6.060248480902778
 30
0.0
 10
5.143202039930555
 20
-6.022162543402778
 30
0.0
 10
5.162407769097222
 20
-6.003173828125
 30
0.0
 10
5.238959418402778
 20
-5.927408854166666
 30
0.0
 10
5.2777099609375
 20
-5.828911675347222
 30
0.0
 10
5.345404730902778
 20
-5.719373914930555
 30
0.0
  0
ENDBLK
  5
3F
330
3C
100
AcDbEntity
  8
0
100
AcDbBlockEnd
  0
ENDSEC
  0
SECTION
  2
ENTITIES
  0
INSERT
  5
3D
330
1F
100
AcDbEntity
  8
LAYER_1
100
AcDbBlockReference
  2
BLOCK_2
 10
0.0
 20
0.0
 30
0.0
  0
ENDSEC
  0
SECTION
  2
OBJECTS
  0
DICTIONARY
  5
C
330
0
100
AcDbDictionary
  3
ACAD_GROUP
350
D
  3
ACAD_LAYOUT
350
1A
  3
ACAD_MLINESTYLE
350
17
  3
ACAD_PLOTSETTINGS
350
19
  3
ACAD_TABLESTYLE
350
6B
  3
ACAD_VISUALSTYLE
350
2A
  3
ACDBHEADERROUNDTRIPXREC
350
4B
  0
DICTIONARY
  5
D
102
{ACAD_REACTORS
330
C
102
}
330
C
100
AcDbDictionary
  0
DICTIONARY
  5
1A
102
{ACAD_REACTORS
330
C
102
}
330
C
100
AcDbDictionary
  0
DICTIONARY
  5
17
102
{ACAD_REACTORS
330
C
102
}
330
C
100
AcDbDictionary
  3
STANDARD
350
18
  0
DICTIONARY
  5
19
102
{ACAD_REACTORS
330
C
102
}
330
C
100
AcDbDictionary
  0
DICTIONARY
  5
6B
102
{ACAD_REACTORS
330
C
102
}
330
C
100
AcDbDictionary
  0
DICTIONARY
  5
2A
102
{ACAD_REACTORS
330
C
102
}
330
C
100
AcDbDictionary
  3
2DWIREFRAME
350
2F
  3
3D_HIDDEN
350
31
  3
3DWIREFRAME
350
30
  3
BASIC
350
32
  3
BRIGHTEN
350
36
  3
COLORCHANGE
350
3A
  3
CONCEPTUAL
350
34
  3
DIM
350
35
  3
FACEPATTERN
350
39
  3
FLAT
350
2B
  3
FLATWITHEDGES
350
2C
  3
GOURAUD
350
2D
  3
GOURAUDWITHEDGES
350
2E
  3
LINEPATTERN
350
38
  3
REALISTIC
350
33
  3
THICKEN
350
37
  0
DICTIONARY
  5
4B
102
{ACAD_REACTORS
330
C
102
}
330
C
100
AcDbDictionary
  3
CEPSNTYPE
350
54
  3
DIMSTYLEDATA
350
6A
  3
FINGERPRINTGUID
350
55
  3
HYPERLINKBASE
350
4E
  3
INSUNITS
350
53
  3
LAYOUTDICT
350
50
  3
LWETCUNION
350
52
  3
PLOTSETDICT
350
51
  3
PSVPSCALE
350
57
  3
PUCSBASE
350
5A
  3
PUCSORGBACK
350
60
  3
PUCSORGBOTTOM
350
5C
  3
PUCSORGFRONT
350
5F
  3
PUCSORGLEFT
350
5D
  3
PUCSORGRIGHT
350
5E
  3
PUCSORGTOP
350
5B
  3
PUCSORTHOREF
350
58
  3
PUCSORTHOVIEW
350
59
  3
STYLESHEET
350
4F
  3
TSTACKALIGN
350
4C
  3
TSTACKSIZE
350
4D
  3
UCSBASE
350
63
  3
UCSORGBACK
350
69
  3
UCSORGBOTTOM
350
65
  3
UCSORGFRONT
350
68
  3
UCSORGLEFT
350
66
  3
UCSORGRIGHT
350
67
  3
UCSORGTOP
350
64
  3
UCSORTHOREF
350
61
  3
UCSORTHOVIEW
350
62
  3
VERSIONGUID
350
56
  0
MLINESTYLE
  5
18
102
{ACAD_REACTORS
330
17
102
}
330
17
100
AcDbMlineStyle
  2
Standard
 70
     0
  3

 62
   256
 51
90.0
 52
90.0
 71
     2
 49
0.5
 62
   256
  6
BYLAYER
 49
-0.5
 62
   256
  6
BYLAYER
  0
VISUALSTYLE
  5
2F
102
{ACAD_REACTORS
330
2A
102
}
330
2A
100
AcDbVisualStyle
  2
2dWireframe
 70
     4
 71
     0
 72
     2
 73
     0
 90
        0
 40
-0.6
 41
-30.0
 62
     5
 63
     7
 74
     1
 91
        4
 64
     7
 65
   257
 75
     1
175
     1
 42
1.0
 92
        0
 66
   257
 43
1.0
 76
     1
 77
     6
 78
     2
 67
     7
 79
     5
170
     0
171
     0
290
     0
174
     0
 93
        1
 44
0.0
173
     0
291
     0
 45
0.0
1001
ACAD
1000
AcDbSavedByObjectVersion
1070
     0
  0
VISUALSTYLE
  5
31
102
{ACAD_REACTORS
330
2A
102
}
330
2A
100
AcDbVisualStyle
  2
3D Hidden
 70
     6
 71
     1
 72
     2
 73
     2
 90
        0
 40
-0.6
 41
-30.0
 62
     5
 63
     7
 74
     2
 91
        2
 64
     7
 65
   257
 75
     2
175
     1
 42
40.0
 92
        0
 66
   257
 43
1.0
 76
     1
 77
     6
 78
     2
 67
     7
 79
     3
170
     0
171
     0
290
     0
174
     0
 93
        1
 44
0.0
173
     0
291
     0
 45
0.0
1001
ACAD
1000
AcDbSavedByObjectVersion
1070
     0
  0
VISUALSTYLE
  5
30
102
{ACAD_REACTORS
330
2A
102
}
330
2A
100
AcDbVisualStyle
  2
3dWireframe
 70
     5
 71
     0
 72
     2
 73
     0
 90
        0
 40
-0.6
 41
-30.0
 62
     5
 63
     7
 74
     1
 91
        4
 64
     7
 65
   257
 75
     1
175
     1
 42
1.0
 92
        0
 66
   257
 43
1.0
 76
     1
 77
     6
 78
     2
 67
     7
 79
     5
170
     0
171
     0
290
     0
174
     0
 93
        1
 44
0.0
173
     0
291
     0
 45
0.0
1001
ACAD
1000
AcDbSavedByObjectVersion
1070
     0
  0
VISUALSTYLE
  5
32
102
{ACAD_REACTORS
330
2A
102
}
330
2A
100
AcDbVisualStyle
  2
Basic
 70
     7
 71
     1
 72
     0
 73
     1
 90
        0
 40
-0.6
 41
-30.0
 62
     5
 63
     7
 74
     0
 91
        4
 64
     7
 65
   257
 75
     1
175
     1
 42
1.0
 92
        8
 66
     7
 43
1.0
 76
     1
 77
     6
 78
     2
 67
     7
 79
     5
170
     0
171
     0
290
     0
174
     0
 93
        1
 44
0.0
173
     0
291
     1
 45
0.0
1001
ACAD
1000
AcDbSavedByObjectVersion
1070
     0
  0
VISUALSTYLE
  5
36
102
{ACAD_REACTORS
330
2A
102
}
330
2A
100
AcDbVisualStyle
  2
Brighten
 70
    12
 71
     2
 72
     2
 73
     0
 90
        0
 40
-0.6
 41
-30.0
 62
     5
 63
     7
 74
     1
 91
        4
 64
     7
 65
   257
 75
     1
175
     1
 42
1.0
 92
        8
 66
     7
 43
1.0
 76
     1
 77
     6
 78
     2
 67
     7
 79
     5
170
     0
171
     0
290
     0
174
     0
 93
        1
 44
50.0
173
     0
291
     1
 45
0.0
1001
ACAD
1000
AcDbSavedByObjectVersion
1070
     0
  0
VISUALSTYLE
  5
3A
102
{ACAD_REACTORS
330
2A
102
}
330
2A
100
AcDbVisualStyle
  2
ColorChange
 70
    16
 71
     2
 72
     2
 73
     3
 90
        0
 40
-0.6
 41
-30.0
 62
     5
 63
     8
 74
     1
 91
        4
 64
     7
 65
   257
 75
     1
175
     1
 42
1.0
 92
        8
 66
     8
 43
1.0
 76
     1
 77
     6
 78
     2
 67
     7
 79
     5
170
     0
171
     0
290
     0
174
     0
 93
        1
 44
0.0
173
     0
291
     1
 45
0.0
1001
ACAD
1000
AcDbSavedByObjectVersion
1070
     0
  0
VISUALSTYLE
  5
34
102
{ACAD_REACTORS
330
2A
102
}
330
2A
100
AcDbVisualStyle
  2
Conceptual
 70
     9
 71
     3
 72
     2
 73
     0
 90
        0
 40
-0.6
 41
-30.0
 62
     5
 63
     7
 74
     2
 91
        2
 64
     7
 65
   257
 75
     1
175
     1
 42
40.0
 92
        8
 66
     7
 43
1.0
 76
     1
 77
     6
 78
     2
 67
     7
 79
     3
170
     0
171
     0
290
     0
174
     0
 93
        1
 44
0.0
173
     0
291
     0
 45
0.0
1001
ACAD
1000
AcDbSavedByObjectVersion
1070
     0
  0
VISUALSTYLE
  5
35
102
{ACAD_REACTORS
330
2A
102
}
330
2A
100
AcDbVisualStyle
  2
Dim
 70
    11
 71
     2
 72
     2
 73
     0
 90
        0
 40
-0.6
 41
-30.0
 62
     5
 63
     7
 74
     1
 91
        4
 64
     7
 65
   257
 75
     1
175
     1
 42
1.0
 92
        8
 66
     7
 43
1.0
 76
     1
 77
     6
 78
     2
 67
     7
 79
     5
170
     0
171
     0
290
     0
174
     0
 93
        1
 44
-50.0
173
     0
291
     1
 45
0.0
1001
ACAD
1000
AcDbSavedByObjectVersion
1070
     0
  0
VISUALSTYLE
  5
39
102
{ACAD_REACTORS
330
2A
102
}
330
2A
100
AcDbVisualStyle
  2
Facepattern
 70
    15
 71
     2
 72
     2
 73
     0
 90
        0
 40
-0.6
 41
-30.0
 62
     5
 63
     7
 74
     1
 91
        4
 64
     7
 65
   257
 75
     1
175
     1
 42
1.0
 92
        8
 66
     7
 43
1.0
 76
     1
 77
     6
 78
     2
 67
     7
 79
     5
170
     0
171
     0
290
     0
174
     0
 93
        1
 44
0.0
173
     0
291
     1
 45
0.0
1001
ACAD
1000
AcDbSavedByObjectVersion
1070
     0
  0
VISUALSTYLE
  5
2B
102
{ACAD_REACTORS
330
2A
102
}
330
2A
100
AcDbVisualStyle
  2
Flat
 70
     0
 71
     2
 72
     1
 73
     1
 90
        2
 40
-0.6
 41
30.0
 62
     5
 63
     7
 74
     0
 91
        4
 64
     7
 65
   257
 75
     1
175
     1
 42
1.0
 92
        8
 66
     7
 43
1.0
 76
     1
 77
     6
 78
     2
 67
     7
 79
     5
170
     0
171
     0
290
     0
174
     0
 93
       13
 44
0.0
173
     0
291
     1
 45
0.0
1001
ACAD
1000
AcDbSavedByObjectVersion
1070
     0
  0
VISUALSTYLE
  5
2C
102
{ACAD_REACTORS
330
2A
102
}
330
2A
100
AcDbVisualStyle
  2
FlatWithEdges
 70
     1
 71
     2
 72
     1
 73
     1
 90
        2
 40
-0.6
 41
30.0
 62
     5
 63
     7
 74
     1
 91
        4
 64
     7
 65
   257
 75
     1
175
     1
 42
1.0
 92
        0
 66
   257
 43
1.0
 76
     1
 77
     6
 78
     2
 67
     7
 79
     5
170
     0
171
     0
290
     0
174
     0
 93
       13
 44
0.0
173
     0
291
     1
 45
0.0
1001
ACAD
1000
AcDbSavedByObjectVersion
1070
     0
  0
VISUALSTYLE
  5
2D
102
{ACAD_REACTORS
330
2A
102
}
330
2A
100
AcDbVisualStyle
  2
Gouraud
 70
     2
 71
     2
 72
     2
 73
     1
 90
        2
 40
-0.6
 41
30.0
 62
     5
 63
     7
 74
     0
 91
        4
 64
     7
 65
   257
 75
     1
175
     1
 42
1.0
 92
        0
 66
     7
 43
1.0
 76
     1
 77
     6
 78
     2
 67
     7
 79
     5
170
     0
171
     0
290
     0
174
     0
 93
       13
 44
0.0
173
     0
291
     1
 45
0.0
1001
ACAD
1000
AcDbSavedByObjectVersion
1070
     0
  0
VISUALSTYLE
  5
2E
102
{ACAD_REACTORS
330
2A
102
}
330
2A
100
AcDbVisualStyle
  2
GouraudWithEdges
 70
     3
 71
     2
 72
     2
 73
     1
 90
        2
 40
-0.6
 41
30.0
 62
     5
 63
     7
 74
     1
 91
        4
 64
     7
 65
   257
 75
     1
175
     1
 42
1.0
 92
        0
 66
   257
 43
1.0
 76
     1
 77
     6
 78
     2
 67
     7
 79
     5
170
     0
171
     0
290
     0
174
     0
 93
       13
 44
0.0
173
     0
291
     1
 45
0.0
1001
ACAD
1000
AcDbSavedByObjectVersion
1070
     0
  0
VISUALSTYLE
  5
38
102
{ACAD_REACTORS
330
2A
102
}
330
2A
100
AcDbVisualStyle
  2
Linepattern
 70
    14
 71
     2
 72
     2
 73
     0
 90
        0
 40
-0.6
 41
-30.0
 62
     5
 63
     7
 74
     1
 91
        4
 64
     7
 65
   257
 75
     7
175
     7
 42
1.0
 92
        8
 66
     7
 43
1.0
 76
     1
 77
     6
 78
     2
 67
     7
 79
     5
170
     0
171
     0
290
     0
174
     0
 93
        1
 44
0.0
173
     0
291
     1
 45
0.0
1001
ACAD
1000
AcDbSavedByObjectVersion
1070
     0
  0
VISUALSTYLE
  5
33
102
{ACAD_REACTORS
330
2A
102
}
330
2A
100
AcDbVisualStyle
  2
Realistic
 70
     8
 71
     2
 72
     2
 73
     0
 90
        0
 40
-0.6
 41
-30.0
 62
     5
 63
     7
 74
     1
 91
        0
 64
     7
 65
   257
 75
     1
175
     1
 42
1.0
 92
        8
 66
     8
 43
1.0
 76
     1
 77
     6
 78
     2
 67
     7
 79
     5
170
     0
171
     0
290
     0
174
     0
 93
       13
 44
0.0
173
     0
291
     0
 45
0.0
1001
ACAD
1000
AcDbSavedByObjectVersion
1070
     0
  0
VISUALSTYLE
  5
37
102
{ACAD_REACTORS
330
2A
102
}
330
2A
100
AcDbVisualStyle
  2
Thicken
 70
    13
 71
     2
 72
     2
 73
     0
 90
        0
 40
-0.6
 41
-30.0
 62
     5
 63
     7
 74
     1
 91
        4
 64
     7
 65
   257
 75
     1
175
     1
 42
1.0
 92
       12
 66
     7
 43
1.0
 76
     1
 77
     6
 78
     2
 67
     7
 79
     5
170
     0
171
     0
290
     0
174
     0
 93
        1
 44
0.0
173
     0
291
     1
 45
0.0
1001
ACAD
1000
AcDbSavedByObjectVersion
1070
     0
  0
XRECORD
  5
54
102
{ACAD_REACTORS
330
4B
102
}
330
4B
100
AcDbXrecord
 90
        0
  0
XRECORD
  5
6A
102
{ACAD_REACTORS
330
4B
102
}
330
4B
100
AcDbXrecord
1000
DSTYLE
1002
{
1070
   340
340
11
1002
}
  0
XRECORD
  5
55
102
{ACAD_REACTORS
330
4B
102
}
330
4B
100
AcDbXrecord
  1
{F01BB913-903B-4238-89A8-B04C3E33FA53}
  0
XRECORD
  5
4E
102
{ACAD_REACTORS
330
4B
102
}
330
4B
100
AcDbXrecord
  1

  0
XRECORD
  5
53
102
{ACAD_REACTORS
330
4B
102
}
330
4B
100
AcDbXrecord
 90
        1
  0
XRECORD
  5
50
102
{ACAD_REACTORS
330
4B
102
}
330
4B
100
AcDbXrecord
340
1A
  0
XRECORD
  5
52
102
{ACAD_REACTORS
330
4B
102
}
330
4B
100
AcDbXrecord
 90
    10269
  0
XRECORD
  5
51
102
{ACAD_REACTORS
330
4B
102
}
330
4B
100
AcDbXrecord
340
19
  0
XRECORD
  5
57
102
{ACAD_REACTORS
330
4B
102
}
330
4B
100
AcDbXrecord
 40
0.0
  0
XRECORD
  5
5A
102
{ACAD_REACTORS
330
4B
102
}
330
4B
100
AcDbXrecord
340
0
  0
XRECORD
  5
60
102
{ACAD_REACTORS
330
4B
102
}
330
4B
100
AcDbXrecord
 10
0.0
 20
0.0
 30
0.0
  0
XRECORD
  5
5C
102
{ACAD_REACTORS
330
4B
102
}
330
4B
100
AcDbXrecord
 10
0.0
 20
0.0
 30
0.0
  0
XRECORD
  5
5F
102
{ACAD_REACTORS
330
4B
102
}
330
4B
100
AcDbXrecord
 10
0.0
 20
0.0
 30
0.0
  0
XRECORD
  5
5D
102
{ACAD_REACTORS
330
4B
102
}
330
4B
100
AcDbXrecord
 10
0.0
 20
0.0
 30
0.0
  0
XRECORD
  5
5E
102
{ACAD_REACTORS
330
4B
102
}
330
4B
100
AcDbXrecord
 10
0.0
 20
0.0
 30
0.0
  0
XRECORD
  5
5B
102
{ACAD_REACTORS
330
4B
102
}
330
4B
100
AcDbXrecord
 10
0.0
 20
0.0
 30
0.0
  0
XRECORD
  5
58
102
{ACAD_REACTORS
330
4B
102
}
330
4B
100
AcDbXrecord
340
0
  0
XRECORD
  5
59
102
{ACAD_REACTORS
330
4B
102
}
330
4B
100
AcDbXrecord
 70
     0
  0
XRECORD
  5
4F
102
{ACAD_REACTORS
330
4B
102
}
330
4B
100
AcDbXrecord
  1

  0
XRECORD
  5
4C
102
{ACAD_REACTORS
330
4B
102
}
330
4B
100
AcDbXrecord
 90
        1
  0
XRECORD
  5
4D
102
{ACAD_REACTORS
330
4B
102
}
330
4B
100
AcDbXrecord
 90
       70
  0
XRECORD
  5
63
102
{ACAD_REACTORS
330
4B
102
}
330
4B
100
AcDbXrecord
340
0
  0
XRECORD
  5
69
102
{ACAD_REACTORS
330
4B
102
}
330
4B
100
AcDbXrecord
 10
0.0
 20
0.0
 30
0.0
  0
XRECORD
  5
65
102
{ACAD_REACTORS
330
4B
102
}
330
4B
100
AcDbXrecord
 10
0.0
 20
0.0
 30
0.0
  0
XRECORD
  5
68
102
{ACAD_REACTORS
330
4B
102
}
330
4B
100
AcDbXrecord
 10
0.0
 20
0.0
 30
0.0
  0
XRECORD
  5
66
102
{ACAD_REACTORS
330
4B
102
}
330
4B
100
AcDbXrecord
 10
0.0
 20
0.0
 30
0.0
  0
XRECORD
  5
67
102
{ACAD_REACTORS
330
4B
102
}
330
4B
100
AcDbXrecord
 10
0.0
 20
0.0
 30
0.0
  0
XRECORD
  5
64
102
{ACAD_REACTORS
330
4B
102
}
330
4B
100
AcDbXrecord
 10
0.0
 20
0.0
 30
0.0
  0
XRECORD
  5
61
102
{ACAD_REACTORS
330
4B
102
}
330
4B
100
AcDbXrecord
340
0
  0
XRECORD
  5
62
102
{ACAD_REACTORS
330
4B
102
}
330
4B
100
AcDbXrecord
 70
     0
  0
XRECORD
  5
56
102
{ACAD_REACTORS
330
4B
102
}
330
4B
100
AcDbXrecord
  1
{FAEB1C32-E019-11D5-929B-00C0DF256EC4}
  0
ENDSEC
  0
EOF
