  0
SECTION
  2
HEADER
  9
$ACADVER
  1
AC1009
  9
$DWGCODEPAGE
  3
ansi_1252
  9
$INSBASE
 10
0.0
 20
0.0
 30
0.0
  9
$EXTMIN
 10
0.1249999999999996
 20
0.2543186510858755
 30
0.0
  9
$EXTMAX
 10
3.375
 20
4.33384887621819
 30
0.0
  9
$LIMMIN
 10
0.0
 20
0.0
  9
$LIMMAX
 10
12.0
 20
9.0
  9
$ORTHOMODE
 70
     0
  9
$REGENMODE
 70
     1
  9
$FILLMODE
 70
     1
  9
$QTEXTMODE
 70
     0
  9
$MIRRTEXT
 70
     1
  9
$DRAGMODE
 70
     2
  9
$LTSCALE
 40
1.0
  9
$OSMODE
 70
    37
  9
$ATTMODE
 70
     1
  9
$TEXTSIZE
 40
0.2
  9
$TRACEWID
 40
0.05
  9
$TEXTSTYLE
  7
STANDARD
  9
$CLAYER
  8
0
  9
$CELTYPE
  6
BYLAYER
  9
$CECOLOR
 62
   256
  9
$DIMSCALE
 40
1.0
  9
$DIMASZ
 40
0.18
  9
$DIMEXO
 40
0.0625
  9
$DIMDLI
 40
0.38
  9
$DIMRND
 40
0.0
  9
$DIMDLE
 40
0.0
  9
$DIMEXE
 40
0.18
  9
$DIMTP
 40
0.0
  9
$DIMTM
 40
0.0
  9
$DIMTXT
 40
0.18
  9
$DIMCEN
 40
0.09
  9
$DIMTSZ
 40
0.0
  9
$DIMTOL
 70
     0
  9
$DIMLIM
 70
     0
  9
$DIMTIH
 70
     1
  9
$DIMTOH
 70
     1
  9
$DIMSE1
 70
     0
  9
$DIMSE2
 70
     0
  9
$DIMTAD
 70
     0
  9
$DIMZIN
 70
     0
  9
$DIMBLK
  1

  9
$DIMASO
 70
     1
  9
$DIMSHO
 70
     1
  9
$DIMPOST
  1

  9
$DIMAPOST
  1

  9
$DIMALT
 70
     0
  9
$DIMALTD
 70
     2
  9
$DIMALTF
 40
25.4
  9
$DIMLFAC
 40
1.0
  9
$DIMTOFL
 70
     0
  9
$DIMTVP
 40
0.0
  9
$DIMTIX
 70
     0
  9
$DIMSOXD
 70
     0
  9
$DIMSAH
 70
     0
  9
$DIMBLK1
  1

  9
$DIMBLK2
  1

  9
$DIMSTYLE
  2
STANDARD
  9
$DIMCLRD
 70
     0
  9
$DIMCLRE
 70
     0
  9
$DIMCLRT
 70
     0
  9
$DIMTFAC
 40
1.0
  9
$DIMGAP
 40
0.09
  9
$LUNITS
 70
     2
  9
$LUPREC
 70
     4
  9
$SKETCHINC
 40
0.1
  9
$FILLETRAD
 40
0.5
  9
$AUNITS
 70
     0
  9
$AUPREC
 70
     0
  9
$MENU
  1
.
  9
$ELEVATION
 40
0.0
  9
$PELEVATION
 40
0.0
  9
$THICKNESS
 40
0.0
  9
$LIMCHECK
 70
     0
  9
$CHAMFERA
 40
0.0
  9
$CHAMFERB
 40
0.0
  9
$SKPOLY
 70
     0
  9
$TDCREATE
 40
2454910.5
  9
$TDUPDATE
 40
2456642.755636366
  9
$TDINDWG
 40
0.0000000116
  9
$TDUSRTIMER
 40
0.0000000116
  9
$USRTIMER
 70
     1
  9
$ANGBASE
 50
0.0
  9
$ANGDIR
 70
     0
  9
$PDMODE
 70
     0
  9
$PDSIZE
 40
0.0
  9
$PLINEWID
 40
0.0
  9
$COORDS
 70
     1
  9
$SPLFRAME
 70
     0
  9
$SPLINETYPE
 70
     6
  9
$SPLINESEGS
 70
     8
  9
$ATTDIA
 70
     0
  9
$ATTREQ
 70
     1
  9
$HANDLING
 70
     1
  9
$HANDSEED
  5
163
  9
$SURFTAB1
 70
     6
  9
$SURFTAB2
 70
     6
  9
$SURFTYPE
 70
     6
  9
$SURFU
 70
     6
  9
$SURFV
 70
     6
  9
$UCSNAME
  2

  9
$UCSORG
 10
0.0
 20
0.0
 30
0.0
  9
$UCSXDIR
 10
1.0
 20
0.0
 30
0.0
  9
$UCSYDIR
 10
0.0
 20
1.0
 30
0.0
  9
$PUCSNAME
  2

  9
$PUCSORG
 10
0.0
 20
0.0
 30
0.0
  9
$PUCSXDIR
 10
1.0
 20
0.0
 30
0.0
  9
$PUCSYDIR
 10
0.0
 20
1.0
 30
0.0
  9
$USERI1
 70
     0
  9
$USERI2
 70
     0
  9
$USERI3
 70
     0
  9
$USERI4
 70
     0
  9
$USERI5
 70
     0
  9
$USERR1
 40
0.0
  9
$USERR2
 40
0.0
  9
$USERR3
 40
0.0
  9
$USERR4
 40
0.0
  9
$USERR5
 40
0.0
  9
$WORLDVIEW
 70
     1
  9
$SHADEDGE
 70
     3
  9
$SHADEDIF
 70
    70
  9
$TILEMODE
 70
     1
  9
$MAXACTVP
 70
    64
  9
$PLIMCHECK
 70
     0
  9
$PEXTMIN
 10
1.000000000000000E+20
 20
1.000000000000000E+20
 30
1.000000000000000E+20
  9
$PEXTMAX
 10
-1.000000000000000E+20
 20
-1.000000000000000E+20
 30
-1.000000000000000E+20
  9
$PLIMMIN
 10
0.0
 20
0.0
  9
$PLIMMAX
 10
12.0
 20
9.0
  9
$UNITMODE
 70
     0
  9
$VISRETAIN
 70
     1
  9
$PLINEGEN
 70
     0
  9
$PSLTSCALE
 70
     1
  0
ENDSEC
  0
SECTION
  2
TABLES
  0
TABLE
  2
VPORT
 70
     1
  0
VPORT
  2
*ACTIVE
 70
     0
 10
0.0
 20
0.0
 11
1.0
 21
1.0
 12
10.42990654205607
 22
4.5
 13
0.0
 23
0.0
 14
0.5
 24
0.5
 15
0.5
 25
0.5
 16
0.0
 26
0.0
 36
1.0
 17
0.0
 27
0.0
 37
0.0
 40
9.0
 41
1.972972972850329
 42
50.0
 43
0.0
 44
0.0
 50
0.0
 51
0.0
 71
     0
 72
   100
 73
     1
 74
     3
 75
     0
 76
     0
 77
     0
 78
     0
  0
ENDTAB
  0
TABLE
  2
LTYPE
 70
     2
  0
LTYPE
  2
CONTINUOUS
 70
     0
  3
Solid line
 72
    65
 73
     0
 40
0.0
  0
LTYPE
  2
CONTINUOUS2
 70
     0
  3
Solid Line
 72
    65
 73
     0
 40
0.0
  0
ENDTAB
  0
TABLE
  2
LAYER
 70
     2
  0
LAYER
  2
0
 70
     0
 62
     7
  6
CONTINUOUS
  0
LAYER
  2
LAYER_1
 70
     0
 62
    18
  6
CONTINUOUS
  0
ENDTAB
  0
TABLE
  2
STYLE
 70
     1
  0
STYLE
  2
STANDARD
 70
     0
 40
0.0
 41
1.0
 50
0.0
 71
     0
 42
0.2
  3
txt
  4

  0
ENDTAB
  0
TABLE
  2
VIEW
 70
     0
  0
ENDTAB
  0
TABLE
  2
UCS
 70
     0
  0
ENDTAB
  0
TABLE
  2
APPID
 70
     1
  0
APPID
  2
ACAD
 70
     0
  0
ENDTAB
  0
TABLE
  2
DIMSTYLE
 70
     1
  0
DIMSTYLE
  2
STANDARD
 70
     0
  3

  4

  5

  6

  7

 40
1.0
 41
0.18
 42
0.0625
 43
0.38
 44
0.18
 45
0.0
 46
0.0
 47
0.0
 48
0.0
140
0.18
141
0.09
142
0.0
143
25.4
144
1.0
145
0.0
146
1.0
147
0.09
 71
     0
 72
     0
 73
     1
 74
     1
 75
     0
 76
     0
 77
     0
 78
     0
170
     0
171
     2
172
     0
173
     0
174
     0
175
     0
176
     0
177
     0
178
     0
  0
ENDTAB
  0
ENDSEC
  0
SECTION
  2
BLOCKS
  0
BLOCK
  8
0
  2
$MODEL_SPACE
 70
     0
 10
0.0
 20
0.0
 30
0.0
  3
$MODEL_SPACE
  1

  0
ENDBLK
  5
21
  8
0
  0
BLOCK
 67
     1
  8
0
  2
$PAPER_SPACE
 70
     0
 10
0.0
 20
0.0
 30
0.0
  3
$PAPER_SPACE
  1

  0
ENDBLK
  5
1D
 67
     1
  8
0
  0
ENDSEC
  0
SECTION
  2
ENTITIES
  0
POLYLINE
  5
6C
  8
LAYER_1
 66
     1
 10
0.0
 20
0.0
 30
0.0
 70
     1
  0
VERTEX
  5
76
  8
LAYER_1
 10
1.99637082174935
 20
3.930537287399321
 30
0.0
  0
VERTEX
  5
77
  8
LAYER_1
 10
1.998754495995518
 20
3.941491609025364
 30
0.0
  0
VERTEX
  5
78
  8
LAYER_1
 10
2.000610792034361
 20
3.952302859857817
 30
0.0
  0
VERTEX
  5
79
  8
LAYER_1
 10
2.001936957756544
 20
3.962988342845384
 30
0.0
  0
VERTEX
  5
7A
  8
LAYER_1
 10
2.002730241052732
 20
3.97356536093677
 30
0.0
  0
VERTEX
  5
7B
  8
LAYER_1
 10
2.002987889813589
 20
3.984051217080679
 30
0.0
  0
VERTEX
  5
7C
  8
LAYER_1
 10
2.002707151929779
 20
3.994463214225818
 30
0.0
  0
VERTEX
  5
7D
  8
LAYER_1
 10
2.001885275291967
 20
4.004818655320889
 30
0.0
  0
VERTEX
  5
7E
  8
LAYER_1
 10
2.000519507790818
 20
4.0151348433146
 30
0.0
  0
VERTEX
  5
7F
  8
LAYER_1
 10
1.998607097316996
 20
4.025429081155655
 30
0.0
  0
VERTEX
  5
80
  8
LAYER_1
 10
1.996145291761167
 20
4.035718671792758
 30
0.0
  0
VERTEX
  5
81
  8
LAYER_1
 10
1.993131339013993
 20
4.046020918174613
 30
0.0
  0
VERTEX
  5
82
  8
LAYER_1
 10
1.989562486966141
 20
4.056353123249927
 30
0.0
  0
VERTEX
  5
83
  8
LAYER_1
 10
1.985435983508275
 20
4.066732589967405
 30
0.0
  0
VERTEX
  5
84
  8
LAYER_1
 10
1.980749076531059
 20
4.077176621275752
 30
0.0
  0
VERTEX
  5
85
  8
LAYER_1
 10
1.975499013925158
 20
4.087702520123672
 30
0.0
  0
VERTEX
  5
86
  8
LAYER_1
 10
1.969683043581236
 20
4.098327589459871
 30
0.0
  0
VERTEX
  5
87
  8
LAYER_1
 10
1.961409281120212
 20
4.111749508894428
 30
0.0
  0
VERTEX
  5
88
  8
LAYER_1
 10
1.952443628517875
 20
4.124305346539998
 30
0.0
  0
VERTEX
  5
89
  8
LAYER_1
 10
1.942830848807505
 20
4.13599510792961
 30
0.0
  0
VERTEX
  5
8A
  8
LAYER_1
 10
1.932615705022378
 20
4.146818798596289
 30
0.0
  0
VERTEX
  5
8B
  8
LAYER_1
 10
1.921842960195775
 20
4.156776424073065
 30
0.0
  0
VERTEX
  5
8C
  8
LAYER_1
 10
1.910557377360973
 20
4.165867989892964
 30
0.0
  0
VERTEX
  5
8D
  8
LAYER_1
 10
1.89880371955125
 20
4.174093501589017
 30
0.0
  0
VERTEX
  5
8E
  8
LAYER_1
 10
1.886626749799885
 20
4.181452964694252
 30
0.0
  0
VERTEX
  5
8F
  8
LAYER_1
 10
1.874071231140157
 20
4.187946384741695
 30
0.0
  0
VERTEX
  5
90
  8
LAYER_1
 10
1.861181926605344
 20
4.193573767264374
 30
0.0
  0
VERTEX
  5
91
  8
LAYER_1
 10
1.848003599228723
 20
4.198335117795317
 30
0.0
  0
VERTEX
  5
92
  8
LAYER_1
 10
1.834581012043575
 20
4.202230441867553
 30
0.0
  0
VERTEX
  5
93
  8
LAYER_1
 10
1.820958928083177
 20
4.205259745014111
 30
0.0
  0
VERTEX
  5
94
  8
LAYER_1
 10
1.807182110380807
 20
4.207423032768016
 30
0.0
  0
VERTEX
  5
95
  8
LAYER_1
 10
1.793295321969743
 20
4.208720310662297
 30
0.0
  0
VERTEX
  5
96
  8
LAYER_1
 10
1.779343325883266
 20
4.209151584229984
 30
0.0
  0
VERTEX
  5
97
  8
LAYER_1
 10
1.765370885154651
 20
4.208716859004102
 30
0.0
  0
VERTEX
  5
98
  8
LAYER_1
 10
1.751422762817179
 20
4.207416140517682
 30
0.0
  0
VERTEX
  5
99
  8
LAYER_1
 10
1.737543721904128
 20
4.205249434303751
 30
0.0
  0
VERTEX
  5
9A
  8
LAYER_1
 10
1.723778525448775
 20
4.202216745895335
 30
0.0
  0
VERTEX
  5
9B
  8
LAYER_1
 10
1.7101719364844
 20
4.198318080825463
 30
0.0
  0
VERTEX
  5
9C
  8
LAYER_1
 10
1.69676871804428
 20
4.193553444627165
 30
0.0
  0
VERTEX
  5
9D
  8
LAYER_1
 10
1.683613633161694
 20
4.187922842833466
 30
0.0
  0
VERTEX
  5
9E
  8
LAYER_1
 10
1.670751444869921
 20
4.181426280977397
 30
0.0
  0
VERTEX
  5
9F
  8
LAYER_1
 10
1.658226916202239
 20
4.174063764591985
 30
0.0
  0
VERTEX
  5
A0
  8
LAYER_1
 10
1.646084810191926
 20
4.165835299210256
 30
0.0
  0
VERTEX
  5
A1
  8
LAYER_1
 10
1.634369889872261
 20
4.15674089036524
 30
0.0
  0
VERTEX
  5
A2
  8
LAYER_1
 10
1.623126918276522
 20
4.146780543589964
 30
0.0
  0
VERTEX
  5
A3
  8
LAYER_1
 10
1.612400658437988
 20
4.135954264417457
 30
0.0
  0
VERTEX
  5
A4
  8
LAYER_1
 10
1.602235873389936
 20
4.124262058380745
 30
0.0
  0
VERTEX
  5
A5
  8
LAYER_1
 10
1.592677326165646
 20
4.11170393101286
 30
0.0
  0
VERTEX
  5
A6
  8
LAYER_1
 10
1.583769779798396
 20
4.098279887846826
 30
0.0
  0
VERTEX
  5
A7
  8
LAYER_1
 10
1.5756233956009
 20
4.084643198527741
 30
0.0
  0
VERTEX
  5
A8
  8
LAYER_1
 10
1.569249894569234
 20
4.072600283138249
 30
0.0
  0
VERTEX
  5
A9
  8
LAYER_1
 10
1.56666260093481
 20
4.06690511610344
 30
0.0
  0
VERTEX
  5
AA
  8
LAYER_1
 10
1.564440078924911
 20
4.061282743074635
 30
0.0
  0
VERTEX
  5
AB
  8
LAYER_1
 10
1.562556178817225
 20
4.055624614226372
 30
0.0
  0
VERTEX
  5
AC
  8
LAYER_1
 10
1.560984750889443
 20
4.049822179733184
 30
0.0
  0
VERTEX
  5
AD
  8
LAYER_1
 10
1.559699645419252
 20
4.043766889769608
 30
0.0
  0
VERTEX
  5
AE
  8
LAYER_1
 10
1.558674712684343
 20
4.037350194510179
 30
0.0
  0
VERTEX
  5
AF
  8
LAYER_1
 10
1.557300766531125
 20
4.022998388801907
 30
0.0
  0
VERTEX
  5
B0
  8
LAYER_1
 10
1.556653714651302
 20
4.005898364004651
 30
0.0
  0
VERTEX
  5
B1
  8
LAYER_1
 10
1.556524359266385
 20
3.985181721514696
 30
0.0
  0
VERTEX
  5
B2
  8
LAYER_1
 10
1.556715320445587
 20
3.972152469193917
 30
0.0
  0
VERTEX
  5
B3
  8
LAYER_1
 10
1.557230356662018
 20
3.959841267907667
 30
0.0
  0
VERTEX
  5
B4
  8
LAYER_1
 10
1.558088046924368
 20
3.94819394476976
 30
0.0
  0
VERTEX
  5
B5
  8
LAYER_1
 10
1.55930697024133
 20
3.937156326894011
 30
0.0
  0
VERTEX
  5
B6
  8
LAYER_1
 10
1.560905705621596
 20
3.926674241394237
 30
0.0
  0
VERTEX
  5
B7
  8
LAYER_1
 10
1.562902832073858
 20
3.916693515384252
 30
0.0
  0
VERTEX
  5
B8
  8
LAYER_1
 10
1.565316928606807
 20
3.907159975977871
 30
0.0
  0
VERTEX
  5
B9
  8
LAYER_1
 10
1.568166574229137
 20
3.898019450288909
 30
0.0
  0
VERTEX
  5
BA
  8
LAYER_1
 10
1.57147034794954
 20
3.889217765431181
 30
0.0
  0
VERTEX
  5
BB
  8
LAYER_1
 10
1.575246828776706
 20
3.880700748518503
 30
0.0
  0
VERTEX
  5
BC
  8
LAYER_1
 10
1.579514595719329
 20
3.87241422666469
 30
0.0
  0
VERTEX
  5
BD
  8
LAYER_1
 10
1.5842922277861
 20
3.864304026983556
 30
0.0
  0
VERTEX
  5
BE
  8
LAYER_1
 10
1.589598303985712
 20
3.856315976588916
 30
0.0
  0
VERTEX
  5
BF
  8
LAYER_1
 10
1.595451403326856
 20
3.848395902594587
 30
0.0
  0
VERTEX
  5
C0
  8
LAYER_1
 10
1.601870104818225
 20
3.840489632114382
 30
0.0
  0
VERTEX
  5
C1
  8
LAYER_1
 10
1.60887298746851
 20
3.832542992262116
 30
0.0
  0
VERTEX
  5
C2
  8
LAYER_1
 10
1.612140641412414
 20
3.829081270922261
 30
0.0
  0
VERTEX
  5
C3
  8
LAYER_1
 10
1.615365376546952
 20
3.82603429670693
 30
0.0
  0
VERTEX
  5
C4
  8
LAYER_1
 10
1.618768774159174
 20
3.823375658407603
 30
0.0
  0
VERTEX
  5
C5
  8
LAYER_1
 10
1.622572415536129
 20
3.821078944815762
 30
0.0
  0
VERTEX
  5
C6
  8
LAYER_1
 10
1.626997881964867
 20
3.819117744722888
 30
0.0
  0
VERTEX
  5
C7
  8
LAYER_1
 10
1.632266754732438
 20
3.817465646920463
 30
0.0
  0
VERTEX
  5
C8
  8
LAYER_1
 10
1.638600615125892
 20
3.816096240199968
 30
0.0
  0
VERTEX
  5
C9
  8
LAYER_1
 10
1.646221044432278
 20
3.814983113352885
 30
0.0
  0
VERTEX
  5
CA
  8
LAYER_1
 10
1.655349623938645
 20
3.814099855170695
 30
0.0
  0
VERTEX
  5
CB
  8
LAYER_1
 10
1.666207934932044
 20
3.81342005444488
 30
0.0
  0
VERTEX
  5
CC
  8
LAYER_1
 10
1.694000076528136
 20
3.812565180528297
 30
0.0
  0
VERTEX
  5
CD
  8
LAYER_1
 10
1.780090714194883
 20
3.81213482899681
 30
0.0
  0
VERTEX
  5
CE
  8
LAYER_1
 10
1.932647753213396
 20
3.81213482899681
 30
0.0
  0
VERTEX
  5
CF
  8
LAYER_1
 10
1.959051032002157
 20
3.848583496359779
 30
0.0
  0
VERTEX
  5
D0
  8
LAYER_1
 10
1.964577701461023
 20
3.856834031478336
 30
0.0
  0
VERTEX
  5
D1
  8
LAYER_1
 10
1.970164311037169
 20
3.866326469149411
 30
0.0
  0
VERTEX
  5
D2
  8
LAYER_1
 10
1.975657791280459
 20
3.876724670776942
 30
0.0
  0
VERTEX
  5
D3
  8
LAYER_1
 10
1.980905072740758
 20
3.887692497764869
 30
0.0
  0
VERTEX
  5
D4
  8
LAYER_1
 10
1.985753085967932
 20
3.898893811517131
 30
0.0
  0
VERTEX
  5
D5
  8
LAYER_1
 10
1.990048761511845
 20
3.909992473437667
 30
0.0
  0
VERTEX
  5
D6
  8
LAYER_1
 10
1.993639029922363
 20
3.920652344930417
 30
0.0
  0
SEQEND
  5
160
  8
LAYER_1
  0
POLYLINE
  5
6D
  8
LAYER_1
 66
     1
 10
0.0
 20
0.0
 30
0.0
 70
     1
  0
VERTEX
  5
D7
  8
LAYER_1
 10
1.75
 20
3.504318651085875
 30
0.0
 42
0.4142135623730951
  0
VERTEX
  5
D8
  8
LAYER_1
 10
0.1249999999999996
 20
1.879318651085875
 30
0.0
 42
0.4142135623730951
  0
VERTEX
  5
D9
  8
LAYER_1
 10
1.75
 20
0.2543186510858754
 30
0.0
 42
0.4142135623730951
  0
VERTEX
  5
DA
  8
LAYER_1
 10
3.375
 20
1.879318651085875
 30
0.0
 42
0.4142135623730951
  0
SEQEND
  5
161
  8
LAYER_1
  0
POLYLINE
  5
6E
  8
LAYER_1
 66
     1
 10
0.0
 20
0.0
 30
0.0
  0
VERTEX
  5
DB
  8
LAYER_1
 10
2.309895367485375
 20
3.404407167973248
 30
0.0
  0
VERTEX
  5
DC
  8
LAYER_1
 10
2.305578050425332
 20
3.708745336139384
 30
0.0
  0
VERTEX
  5
DD
  8
LAYER_1
 10
2.272423044589001
 20
3.724698183544466
 30
0.0
  0
VERTEX
  5
DE
  8
LAYER_1
 10
2.264409505580709
 20
3.728223139198686
 30
0.0
  0
VERTEX
  5
DF
  8
LAYER_1
 10
2.254317303120568
 20
3.732130915811177
 30
0.0
  0
VERTEX
  5
E0
  8
LAYER_1
 10
2.229528755788248
 20
3.740575687137551
 30
0.0
  0
VERTEX
  5
E1
  8
LAYER_1
 10
2.201321098479057
 20
3.748994007976734
 30
0.0
  0
VERTEX
  5
E2
  8
LAYER_1
 10
2.172958027080008
 20
3.756347388781874
 30
0.0
  0
VERTEX
  5
E3
  8
LAYER_1
 10
2.122745200804246
 20
3.768470109369902
 30
0.0
  0
VERTEX
  5
E4
  8
LAYER_1
 10
2.095136932745409
 20
3.775574530848916
 30
0.0
  0
VERTEX
  5
E5
  8
LAYER_1
 10
2.093773820434018
 20
3.776215833933116
 30
0.0
  0
VERTEX
  5
E6
  8
LAYER_1
 10
2.09270155341069
 20
3.777220198810206
 30
0.0
  0
VERTEX
  5
E7
  8
LAYER_1
 10
2.09192212748012
 20
3.778595831535572
 30
0.0
  0
VERTEX
  5
E8
  8
LAYER_1
 10
2.091437538447007
 20
3.780350938164599
 30
0.0
  0
VERTEX
  5
E9
  8
LAYER_1
 10
2.091249782116048
 20
3.782493724752671
 30
0.0
  0
VERTEX
  5
EA
  8
LAYER_1
 10
2.091360854291939
 20
3.785032397355176
 30
0.0
  0
VERTEX
  5
EB
  8
LAYER_1
 10
2.092487467383061
 20
3.791330224825024
 30
0.0
  0
VERTEX
  5
EC
  8
LAYER_1
 10
2.09483334415795
 20
3.799310069017225
 30
0.0
  0
VERTEX
  5
ED
  8
LAYER_1
 10
2.098414451054182
 20
3.809037578374863
 30
0.0
  0
VERTEX
  5
EE
  8
LAYER_1
 10
2.103246754509332
 20
3.820578401341022
 30
0.0
  0
VERTEX
  5
EF
  8
LAYER_1
 10
2.109346220960979
 20
3.833998186358786
 30
0.0
  0
VERTEX
  5
F0
  8
LAYER_1
 10
2.116860110517701
 20
3.850697991708151
 30
0.0
  0
VERTEX
  5
F1
  8
LAYER_1
 10
2.122781919740827
 20
3.865751351153207
 30
0.0
  0
VERTEX
  5
F2
  8
LAYER_1
 10
2.125202644136692
 20
3.872980854021551
 30
0.0
  0
VERTEX
  5
F3
  8
LAYER_1
 10
2.127293568340438
 20
3.880183033845733
 30
0.0
  0
VERTEX
  5
F4
  8
LAYER_1
 10
2.129077432315825
 20
3.887485986769727
 30
0.0
  0
VERTEX
  5
F5
  8
LAYER_1
 10
2.130576976026611
 20
3.895017808937504
 30
0.0
  0
VERTEX
  5
F6
  8
LAYER_1
 10
2.131814939436557
 20
3.902906596493037
 30
0.0
  0
VERTEX
  5
F7
  8
LAYER_1
 10
2.132814062509424
 20
3.911280445580296
 30
0.0
  0
VERTEX
  5
F8
  8
LAYER_1
 10
2.134186747498955
 20
3.929995712925884
 30
0.0
  0
VERTEX
  5
F9
  8
LAYER_1
 10
2.134876950705283
 20
3.952188380126044
 30
0.0
  0
VERTEX
  5
FA
  8
LAYER_1
 10
2.135066591838486
 20
3.978883216332553
 30
0.0
  0
VERTEX
  5
FB
  8
LAYER_1
 10
2.134876484399674
 20
4.005534263382822
 30
0.0
  0
VERTEX
  5
FC
  8
LAYER_1
 10
2.134186779254768
 20
4.027704631388001
 30
0.0
  0
VERTEX
  5
FD
  8
LAYER_1
 10
2.132818402161057
 20
4.046407477072525
 30
0.0
  0
VERTEX
  5
FE
  8
LAYER_1
 10
2.131823750932553
 20
4.054775190520927
 30
0.0
  0
VERTEX
  5
FF
  8
LAYER_1
 10
2.130592278875834
 20
4.062655957160828
 30
0.0
  0
VERTEX
  5
100
  8
LAYER_1
 10
2.129101601710558
 20
4.070176421582783
 30
0.0
  0
VERTEX
  5
101
  8
LAYER_1
 10
2.12732933515639
 20
4.077463228377345
 30
0.0
  0
VERTEX
  5
102
  8
LAYER_1
 10
2.125253094932989
 20
4.08464302213507
 30
0.0
  0
VERTEX
  5
103
  8
LAYER_1
 10
2.122850496760018
 20
4.09184244744651
 30
0.0
  0
VERTEX
  5
104
  8
LAYER_1
 10
2.116976689444008
 20
4.106806771092759
 30
0.0
  0
VERTEX
  5
105
  8
LAYER_1
 10
2.109528838965652
 20
4.123369356040524
 30
0.0
  0
VERTEX
  5
106
  8
LAYER_1
 10
2.1024045167228
 20
4.137627525534137
 30
0.0
  0
VERTEX
  5
107
  8
LAYER_1
 10
2.094466267158015
 20
4.151775383215913
 30
0.0
  0
VERTEX
  5
108
  8
LAYER_1
 10
2.085769272064492
 20
4.165756904456776
 30
0.0
  0
VERTEX
  5
109
  8
LAYER_1
 10
2.076368713235423
 20
4.179516064627645
 30
0.0
  0
VERTEX
  5
10A
  8
LAYER_1
 10
2.066319772464001
 20
4.192996839099443
 30
0.0
  0
VERTEX
  5
10B
  8
LAYER_1
 10
2.055677631543419
 20
4.206143203243093
 30
0.0
  0
VERTEX
  5
10C
  8
LAYER_1
 10
2.04449747226687
 20
4.218899132429514
 30
0.0
  0
VERTEX
  5
10D
  8
LAYER_1
 10
2.032834476427547
 20
4.231208602029628
 30
0.0
  0
VERTEX
  5
10E
  8
LAYER_1
 10
2.020743825818642
 20
4.24301558741436
 30
0.0
  0
VERTEX
  5
10F
  8
LAYER_1
 10
2.008280702233349
 20
4.254264063954627
 30
0.0
  0
VERTEX
  5
110
  8
LAYER_1
 10
1.995500287464861
 20
4.264898007021355
 30
0.0
  0
VERTEX
  5
111
  8
LAYER_1
 10
1.98245776330637
 20
4.274861391985462
 30
0.0
  0
VERTEX
  5
112
  8
LAYER_1
 10
1.969208311551069
 20
4.284098194217872
 30
0.0
  0
VERTEX
  5
113
  8
LAYER_1
 10
1.955807113992152
 20
4.292552389089505
 30
0.0
  0
VERTEX
  5
114
  8
LAYER_1
 10
1.942309352422811
 20
4.300167951971284
 30
0.0
  0
VERTEX
  5
115
  8
LAYER_1
 10
1.928770208636239
 20
4.306888858234131
 30
0.0
  0
VERTEX
  5
116
  8
LAYER_1
 10
1.910514886375942
 20
4.315043255217546
 30
0.0
  0
VERTEX
  5
117
  8
LAYER_1
 10
1.894440374049372
 20
4.321400279488255
 30
0.0
  0
VERTEX
  5
118
  8
LAYER_1
 10
1.886837593756022
 20
4.323972027292018
 30
0.0
  0
VERTEX
  5
119
  8
LAYER_1
 10
1.879320022519848
 20
4.32617513244041
 30
0.0
  0
VERTEX
  5
11A
  8
LAYER_1
 10
1.871734329198765
 20
4.328036495107702
 30
0.0
  0
VERTEX
  5
11B
  8
LAYER_1
 10
1.863927182650687
 20
4.329583015468163
 30
0.0
  0
VERTEX
  5
11C
  8
LAYER_1
 10
1.85574525173353
 20
4.330841593696062
 30
0.0
  0
VERTEX
  5
11D
  8
LAYER_1
 10
1.847035205305207
 20
4.331839129965666
 30
0.0
  0
VERTEX
  5
11E
  8
LAYER_1
 10
1.827417441346727
 20
4.33315867732707
 30
0.0
  0
VERTEX
  5
11F
  8
LAYER_1
 10
1.803847241638562
 20
4.333756858946528
 30
0.0
  0
VERTEX
  5
120
  8
LAYER_1
 10
1.775097957044033
 20
4.33384887621819
 30
0.0
  0
VERTEX
  5
121
  8
LAYER_1
 10
1.74606149061007
 20
4.333604479745603
 30
0.0
  0
VERTEX
  5
122
  8
LAYER_1
 10
1.722467496891633
 20
4.332893034524028
 30
0.0
  0
VERTEX
  5
123
  8
LAYER_1
 10
1.703045424750244
 20
4.33147550413063
 30
0.0
  0
VERTEX
  5
124
  8
LAYER_1
 10
1.694501812040169
 20
4.330427258112361
 30
0.0
  0
VERTEX
  5
125
  8
LAYER_1
 10
1.686524723047427
 20
4.329112852142574
 30
0.0
  0
VERTEX
  5
126
  8
LAYER_1
 10
1.678955338879708
 20
4.327502406668412
 30
0.0
  0
VERTEX
  5
127
  8
LAYER_1
 10
1.671634840644703
 20
4.325566042137023
 30
0.0
  0
VERTEX
  5
128
  8
LAYER_1
 10
1.664404409450102
 20
4.323273878995551
 30
0.0
  0
VERTEX
  5
129
  8
LAYER_1
 10
1.657105226403596
 20
4.320596037691143
 30
0.0
  0
VERTEX
  5
12A
  8
LAYER_1
 10
1.641665329185626
 20
4.313963802382097
 30
0.0
  0
VERTEX
  5
12B
  8
LAYER_1
 10
1.624044597852318
 20
4.305430299787049
 30
0.0
  0
VERTEX
  5
12C
  8
LAYER_1
 10
1.61066283658305
 20
4.298358016786048
 30
0.0
  0
VERTEX
  5
12D
  8
LAYER_1
 10
1.597447639318632
 20
4.290614109140069
 30
0.0
  0
VERTEX
  5
12E
  8
LAYER_1
 10
1.584437685444749
 20
4.282237182707029
 30
0.0
  0
VERTEX
  5
12F
  8
LAYER_1
 10
1.571671654347086
 20
4.273265843344848
 30
0.0
  0
VERTEX
  5
130
  8
LAYER_1
 10
1.559188225411327
 20
4.26373869691144
 30
0.0
  0
VERTEX
  5
131
  8
LAYER_1
 10
1.547026078023156
 20
4.253694349264721
 30
0.0
  0
VERTEX
  5
132
  8
LAYER_1
 10
1.535223891568259
 20
4.243171406262613
 30
0.0
  0
VERTEX
  5
133
  8
LAYER_1
 10
1.523820345432319
 20
4.232208473763031
 30
0.0
  0
VERTEX
  5
134
  8
LAYER_1
 10
1.512854119001021
 20
4.22084415762389
 30
0.0
  0
VERTEX
  5
135
  8
LAYER_1
 10
1.50236389166005
 20
4.209117063703111
 30
0.0
  0
VERTEX
  5
136
  8
LAYER_1
 10
1.492388342795089
 20
4.197065797858609
 30
0.0
  0
VERTEX
  5
137
  8
LAYER_1
 10
1.482966151791825
 20
4.184728965948301
 30
0.0
  0
VERTEX
  5
138
  8
LAYER_1
 10
1.474135998035941
 20
4.172145173830105
 30
0.0
  0
VERTEX
  5
139
  8
LAYER_1
 10
1.465936560913122
 20
4.159353027361938
 30
0.0
  0
VERTEX
  5
13A
  8
LAYER_1
 10
1.458406519809051
 20
4.146391132401718
 30
0.0
  0
VERTEX
  5
13B
  8
LAYER_1
 10
1.451584554109415
 20
4.13329809480736
 30
0.0
  0
VERTEX
  5
13C
  8
LAYER_1
 10
1.443402368461918
 20
4.116059281411916
 30
0.0
  0
VERTEX
  5
13D
  8
LAYER_1
 10
1.437049361381703
 20
4.100834889535612
 30
0.0
  0
VERTEX
  5
13E
  8
LAYER_1
 10
1.434487695519987
 20
4.093571129869423
 30
0.0
  0
VERTEX
  5
13F
  8
LAYER_1
 10
1.432297999158887
 20
4.086322609425761
 30
0.0
  0
VERTEX
  5
140
  8
LAYER_1
 10
1.430451830584666
 20
4.07892653948554
 30
0.0
  0
VERTEX
  5
141
  8
LAYER_1
 10
1.428920748083589
 20
4.071220131329675
 30
0.0
  0
VERTEX
  5
142
  8
LAYER_1
 10
1.427676309941922
 20
4.063040596239078
 30
0.0
  0
VERTEX
  5
143
  8
LAYER_1
 10
1.426690074445929
 20
4.054225145494664
 30
0.0
  0
VERTEX
  5
144
  8
LAYER_1
 10
1.425378444536025
 20
4.034035342168044
 30
0.0
  0
VERTEX
  5
145
  8
LAYER_1
 10
1.424758324643995
 20
4.009348411597126
 30
0.0
  0
VERTEX
  5
146
  8
LAYER_1
 10
1.424602181059959
 20
3.978862044029222
 30
0.0
  0
VERTEX
  5
147
  8
LAYER_1
 10
1.424766073601565
 20
3.94895664687632
 30
0.0
  0
VERTEX
  5
148
  8
LAYER_1
 10
1.42538447741787
 20
3.924561915675543
 30
0.0
  0
VERTEX
  5
149
  8
LAYER_1
 10
1.426647481796105
 20
3.904527567552211
 30
0.0
  0
VERTEX
  5
14A
  8
LAYER_1
 10
1.427580112098205
 20
3.895786073746249
 30
0.0
  0
VERTEX
  5
14B
  8
LAYER_1
 10
1.428745176023499
 20
3.887703319631642
 30
0.0
  0
VERTEX
  5
14C
  8
LAYER_1
 10
1.430166434732892
 20
3.880135519849055
 30
0.0
  0
VERTEX
  5
14D
  8
LAYER_1
 10
1.431867649387285
 20
3.872938889039153
 30
0.0
  0
VERTEX
  5
14E
  8
LAYER_1
 10
1.433872581147584
 20
3.8659696418426
 30
0.0
  0
VERTEX
  5
14F
  8
LAYER_1
 10
1.436204991174692
 20
3.859083992900062
 30
0.0
  0
VERTEX
  5
150
  8
LAYER_1
 10
1.441947290672952
 20
3.844988348339688
 30
0.0
  0
VERTEX
  5
151
  8
LAYER_1
 10
1.449284637169293
 20
3.829501672483348
 30
0.0
  0
VERTEX
  5
152
  8
LAYER_1
 10
1.473967093278627
 20
3.7796274907498
 30
0.0
  0
VERTEX
  5
153
  8
LAYER_1
 10
1.449284637169293
 20
3.774212786196548
 30
0.0
  0
VERTEX
  5
154
  8
LAYER_1
 10
1.418556807995152
 20
3.767297379883279
 30
0.0
  0
VERTEX
  5
155
  8
LAYER_1
 10
1.390502934445411
 20
3.760614351471423
 30
0.0
  0
VERTEX
  5
156
  8
LAYER_1
 10
1.365004720372621
 20
3.754129920554214
 30
0.0
  0
VERTEX
  5
157
  8
LAYER_1
 10
1.341943869629332
 20
3.747810306724888
 30
0.0
  0
VERTEX
  5
158
  8
LAYER_1
 10
1.321202086068096
 20
3.741621729576679
 30
0.0
  0
VERTEX
  5
159
  8
LAYER_1
 10
1.302661073541464
 20
3.735530408702822
 30
0.0
  0
VERTEX
  5
15A
  8
LAYER_1
 10
1.286202535901985
 20
3.729502563696551
 30
0.0
  0
VERTEX
  5
15B
  8
LAYER_1
 10
1.271708177002211
 20
3.723504414151101
 30
0.0
  0
VERTEX
  5
15C
  8
LAYER_1
 10
1.230408575447162
 20
3.705235636712825
 30
0.0
  0
VERTEX
  5
15D
  8
LAYER_1
 10
1.230408575447162
 20
3.418778021459213
 30
0.0
  0
SEQEND
  5
162
  8
LAYER_1
  0
ENDSEC
  0
EOF
